<?xml version="1.0" encoding="UTF-8"?>
<svg width="1587pt" height="1635pt" version="1.1" viewBox="0 0 1587 1635" xmlns="http://www.w3.org/2000/svg">
 <defs>
  <filter id="a" color-interpolation-filters="sRGB">
   <feColorMatrix values="1 0 0 0 0 0 1 0 0 0 0 0 1 0 0 0 0 0 1000 -500 "/>
  </filter>
 </defs>
 <g filter="url(#a)">
  <path d="m585.56 0h0.91c2.98 1.21 5.19 3.6 7.81 5.38 88.61 1.3 177.34 0.51 265.99 0.38 13.19 0.51 26.4 0 39.6 0.39 6.7 0.97 13.51 1.04 20.28 0.63 10.23 0.17 20.42 1.1 30.66 1.4 4.41 0.42 8.91 0.61 13.39 0.63 7.22 0.22 14.4 0.89 21.62 1.38 4.09 0.3 8.26 0.49 12.41 0.61 8.17 0.11 16.47 0.62 24.67 1.39 4 0.3 8.1 0.46 12.3 0.61 31.9-0.04 63.3 4.27 94.7 9.34 2.6 0.26 5.5 0.5 8.3 0.71 33.1 0.74 65.8 5.36 98.8 8.38 4.2 0.04 9 2.13 13-0.2 16.4 10.94 41.6 2.54 61.1 10.96 3.2 0.64 6.7 1.02 10 0.86 46.1-2.46 90.6 12.73 136.1 13.94 43 10.55 87.4 14.37 129.8 26.89v0.91c-5.1 7.93-6.3 18.82-14.1 24.65-8.9 1.11-21.1-5.39-27 4.17 12.3 2.58-3.2 9.11-5.5 13.95-7.4 11.97-20.3 9.77-32 9.39 4.3 6.07-1.4 7.2-1.7 0.36-5.4-5.64-16.1 3.37-20.7-6.39 8.3 0.42 16.6 2.06 24.9 2.47 4.7 0.33 9.5 0.82 14.2 0.78 9.6-1.75 17.5-12.24 23.4-19.09-42-4.59-83.1-14.71-124.2-24.17-50.5-7.16-101.7-8.79-152-18.02-20.2-3.99-40.8-3.99-61.2-5.85-4.8-0.56-9.5-0.83-14.3-0.69-6.2-0.08-12.4-0.16-18.7-0.3-5-0.39-10-1.04-15.1-0.82-4.4-0.8-8.8-0.88-13.2-0.88-4.2-0.11-8.4-0.19-12.6-0.32-9.8-1.33-19.6-0.92-29.4-0.6-20.1-1.31-40.1-3.13-59.8-7.39-4.3-0.6-8.6-0.9-13-0.88-17.3 0.07-34.7 0.03-52.02 0.04-12.24-2.13-24.68-0.53-37-1-7.64-1.66-15.43-0.95-23.14-0.78-2.58-0.07-5.13-0.19-7.65-0.35-2.88-0.23-5.6-0.49-8.41-0.71-5.22-0.32-10.43-0.72-15.62-1.29-2.88-0.28-5.59-0.54-8.41-0.72-3.25-0.17-6.36-0.21-9.56-0.28-4.43-0.34-8.79-0.75-13.19-0.91-6.02-1.22-12.13-0.97-18.19-0.78-6.55-0.13-13.07-0.15-19.6-0.3-4.11-0.27-8.17-0.58-12.23-0.97-6.94-0.88-14.15-1.95-21-0.01-4.12 0.24-8.17 0.54-12.24 0.84-2.88 0.13-5.63 0.24-8.45 0.45-3.47 0.06-7.24-1.13-10.34 0.91-4.11 0.07-8.17 0.28-12.23 0.6-3.54 0.14-6.98 0.24-10.47 0.52-5.06 0.26-10.41-1.42-15.26 0.42-3.48 3.33-7.76 6.29-11.16 1.15-59.9-1.38-120.08-1.21-180.02-0.07-2.9 0.13-5.71 0.25-8.57 0.47-3.56-0.31-7.1-0.43-10.55 0.53-6.15 0.48-12.32 0.78-18.43 1.58-3.23-0.15-6.4-0.41-9.52 0.43-2.87 0.15-5.66 0.29-8.49 0.48-3.11 0.01-6.43-0.88-9.25 0.77-3.48-0.14-6.94-0.22-10.29 0.78-2.86 0.14-5.63 0.26-8.45 0.45-3.11 0.02-6.45-0.88-9.27 0.79-3.14 0.01-6.24-0.07-9.27 0.74-2.86 0.16-5.65 0.26-8.48 0.48-3.23-0.13-6.42-0.28-9.56 0.48-6.17 0.34-12.33 0.73-18.45 1.58-3.21-0.12-6.38-0.32-9.52 0.4-5.52 0.27-11.02 0.89-16.5 1.6-2.86 0.14-5.67 0.12-8.5 0.4-3.51 0.18-6.98 0.27-10.47 0.53-3.52-0.3-7.05-0.53-10.45 0.53-47.28 5.91-94.54 12.67-141.91 17.28-33.21-3.93-64 12.7-96.88 13.77-5-0.67-10.09-0.92-15.09-0.14-11.98 2.82-23.71 6.75-35.74 9.45-1.77 0.4-5.78 1.92-3.39 4.05 8.76 8.52 17.31 17.25 25.68 26.15 1.29 1.58 2.76-0.71 3.95-1.27 4.15-0.26 8.39 0.13 12.5-0.75 16.18-2.67 31.84-7.85 48.07-10.36-19.4 10.74-43.52 11.5-65.04 15.26-9.56-7.57-16.85-17.3-25.45-25.79-2.68-1.05-4.6 2.45-6.61 3.77-13.68-11.3-25.36-24.49-34.88-39.44v-1.76c9.01-3.46 17.88-7.74 24.87-14.54 85.62-14.48 171.51-27.88 257.52-40.06 11.73-0.96 23.53 0.06 35.28-0.56 3.52 0.3 7.16 0.58 10.58-0.56 5.45-0.75 10.94-1.21 16.43-1.57 4.51-0.01 9.21 0.85 13.63-0.44 34.22-3.34 67.93-7.5 102.42-8.51 3.49 0.32 7.12 0.62 10.53-0.48 38.22-3.41 77.06 3.83 114.61-6.41-0.08-0.46-0.23-1.37-0.31-1.83m53.68 13.4c-4.75-0.47-12.94-1.59-15.02 0.72-7.97-0.48-15.98-0.19-23.93 0.18-10 0.23-23.09-1.77-31.23 0.71-31.61 0.65-66.15-1.37-95.92 1-21.64 2.43-43.28 4.69-64.89 7.32-2.43 0.04-7.17-1.59-8.1 0.99-2.56 0.02-6.76-1.56-8.29 0.7-2.83 0.1-5.75-0.27-8.52 0.26-2.58 0.3-8.53-2.23-9.2 1.01-4.15-0.71-7.92-0.49-11.29 0.67-3.85-0.08-7.69 0.04-11.5 0.35-4.41-0.37-12.28-1.44-14.02 0.94-4.25-0.06-10.8-1.72-13.41 0.77-89.7 7.12-179.28 19.49-267.81 36.12-14.46-0.99-22.47 13.11-36.39 12.26-8.72 5.88 9.72 21.93 13.61 15.78 91.1-14.46 182.38-28.98 274.37-36.56 2.43 0.04 7.24 1.65 8.16-0.94 2.55-0.02 6.75 1.57 8.27-0.7 2.51 0 5.02-0.11 7.54-0.31 2.41-0.03 7.35 1.6 8.16-0.95 2.72-0.21 7.84 2.25 9.22-0.72 2.55 0.06 5.11-0.07 7.66-0.36 2.57-0.04 6.95 1.67 8.41-0.67 5.2-0.26 10.41-0.72 15.58-1.34 2.77-0.11 7.93 2.37 9.39-0.62 2.53 0.07 5.05-0.03 7.58-0.29 2.5-0.3 8.69 2.3 9.11-0.99 2.75-0.23 7.89 2.25 9.3-0.73 2.53 0.08 5.06-0.01 7.59-0.28 2.5-0.3 8.68 2.3 9.11-0.99 2.73-0.24 7.93 2.27 9.28-0.73 2.54 0.09 5.08-0.01 7.61-0.3 2.78-0.21 8.03 2.31 9.45-0.71 2.86 0.01 5.68-0.08 8.57-0.23 4.45 0.71 8.14 0.36 11.08-1.06 4.18 0.14 10.69 1.75 13.27-0.74 4.9 0.15 9.78 0.17 14.68-0.32 5.52 0.42 15.23 1.39 17.84-0.56 8.36-0.5 18.93 1.2 25.43-1.09 9.66-0.02 19.33 0.17 29.01-0.03 7.64-0.11 18.46 1.19 23.63-1.12 8.31 0.07 18.94 1.3 25.34-0.85 7.93 0.07 15.88 0.22 23.82-0.28 17.04 0.78 34.15 0.09 51.21 0.27 12.74 0.1 25.49 0.11 38.24-0.07 39.65 2.56 84.96 0.37 126.76 1.08 14.99 2.29 34.31 0.59 50.95 0.83 8.33 0.64 16.71-0.02 25.08 0.2 2.68 3.33 12.65-0.15 17.38 0.97 1.52 3.12 12.66-0.08 16.86 0.71 5.55 0.39 11.13 0.41 16.72 0.27 2.93 3.35 12.51-0.2 17.31 0.82 2 3.39 12.6 0.08 17 0.93 3.8 0.18 7.7 0.26 11.6 0.25 1.7 2.5 6.6 0.11 9.4 0.81 2.9 0.24 5.6 0.13 8.6 0.2 1.7 2.47 6.5 0.11 9.2 0.79 1.2 2.4 5.6 0.79 8 1.02 9 1.31 18 1.8 27 2.16 0.6 2.33 5.5 0.71 7.8 0.93 1.7 2.58 6.6 0.23 9.4 0.93 3 0.24 5.8 0.19 8.9 0.1 1 2.61 6.6 0.06 9 0.84 11.9 1.31 23.9 2.42 35.8 3.19 2.4 3.17 10.2-0.13 14.2 0.79 5.2 0.6 10.4 0.22 15.7 0.21 1.7 2.75 7.6-0.11 10.4 0.82 2.4 2.9 11.4 0.38 15.9 0.98 5.2 0.57 10.4 0.2 15.7 0.23 1.7 2.51 6.5 0.05 9.3 0.71 47.2 7.64 94.9 11.56 142.1 19.07 23.5 3.71 47.7 4.21 70.2 12.85 30.3 3.35 60.4 9.13 90.7 13.17 9.1 1.82 11.4-9.13 12.7-15.67-36.7-8.45-75.3-10.9-111.1-22.95-57.7-7.09-115.3-14.28-173.1-19.66-37.5-7.45-75.7-9.29-113.7-12.4-1.6-2.77-7.7 0.03-10.3-0.93 0.1-3.26-9.4-0.04-11.7-1.07-3.3-0.37-6.8-0.1-10 0.05-1-2.44-5.8-0.66-8.3-0.93-2.5-0.2-5-0.29-7.5-0.25-3.5-1.14-7.2-1.39-11.4-0.74-1-3.44-9.2 0.21-12-0.96-31-2.56-61.7-7.32-92.7-9.2-1.7-2.52-6.7-0.21-9.36-0.91-1.49-3.06-10.13-0.35-13.71-1.08-5.41-0.37-10.87-0.07-16.24 0.13-1.17-3.36-9.8-0.01-13.06-1.05-0.85-3.13-9.63-0.27-12.7-1.12-8.44-0.26-16.9-0.05-25.32 0.07-5.88-3.48-20.56 0.13-28.95-0.92-2.89-3.42-13.61-0.18-18.74-1.17-9.45-0.17-18.89-0.1-28.31 0.14-9.28-3.16-26.06-0.14-37.68-1.13-8.37-2.41-21.01-0.57-30.95-0.85-8.46-0.65-16.97-0.04-25.43 0.03-5.61-2.66-17.91-0.71-25.96-0.92-17.49 0-35.15 1.37-52.46 4.09-3.05-0.35-6.2-0.14-9.21-0.07-6.51-4.71-14.34-4.48-21.78-1.9z" fill="#060401"/>
  <path d="m594.28 5.38c88.64-0.37 177.38-1.15 265.99 0.38-88.65 0.13-177.38 0.92-265.99-0.38z" fill="#292819"/>
  <path d="m899.87 6.15c6.76-0.28 13.52-0.19 20.28 0.63-6.77 0.41-13.58 0.34-20.28-0.63z" fill="#6e6f53"/>
  <path d="m460.73 8.72c3.44-0.99 6.97-0.78 10.53-0.48-3.41 1.1-7.04 0.8-10.53 0.48z" fill="#5d5b42"/>
  <path d="m950.81 8.18c4.46 0.01 8.9 0.23 13.39 0.63-4.48-0.02-8.98-0.21-13.39-0.63z" fill="#5d5c42"/>
  <path d="m985.82 10.19c4.12 0.19 8.24 0.37 12.41 0.61-4.15-0.12-8.32-0.31-12.41-0.61z" fill="#484730"/>
  <path d="m639.24 13.4c7.44-2.58 15.27-2.81 21.78 1.9 3.01 0.93 6.21 1.09 9.21 0.07 17.31-2.72 34.97-4.09 52.46-4.09 8.62 0.81 17.29 0.89 25.96 0.92 8.01 0.83 16.08 0.89 24.13 0.95 10.67 1.35 21.44 0.88 32.17 0.86 12.25 0.02 24.51-0.12 36.77 0.18 9.7 1.11 19.49 0.97 29.25 0.82 6.24 0.02 12.52-0.02 18.79 0.17 8.95 0.95 17.96 0.99 26.97 1.01 9.02 1.04 18.12 1.02 27.21 0.83 4.23 0.06 8.51 0.09 12.79 0.13 4 0.32 8.04 0.78 12.09 1.09 5.68 0.58 11.42 0.89 17.16 0.82 4.55 0.03 9.17 0 13.76 0.09 3.06 0.3 6.26 0.78 9.36 0.91 31 1.88 61.7 6.64 92.7 9.2 3.9 0.35 8 0.69 12 0.96 3.8 0.33 7.6 0.57 11.4 0.74 2.5-0.04 5 0.05 7.5 0.25l6.4 1.04c3.9 0.47 7.9 0.74 11.9 0.81 3.9 0.05 7.8 0.08 11.7 0.1 3.3 0.34 6.9 0.85 10.3 0.93 38 3.11 76.2 4.95 113.7 12.4 57.8 5.38 115.4 12.57 173.1 19.66 35.8 12.05 74.4 14.5 111.1 22.95-1.3 6.54-3.6 17.49-12.7 15.67-30.3-4.04-60.4-9.82-90.7-13.17-22.5-8.64-46.7-9.14-70.2-12.85-47.2-7.51-94.9-11.43-142.1-19.07-3.2-0.35-6.2-0.74-9.3-0.71-5.3-0.03-10.5 0.34-15.7-0.23-5.3-0.53-10.6-0.78-15.9-0.98-3.5-0.32-6.9-0.86-10.4-0.82-5.3 0.01-10.5 0.39-15.7-0.21-4.8-0.4-9.4-0.82-14.2-0.79-11.9-0.77-23.9-1.88-35.8-3.19-2.4-0.34-4.8-0.65-7.2-0.93-6.6-1.14-13.4-1.7-20-1.9-2.7-0.01-5.3 0-7.9 0.03-9-0.36-18-0.85-27-2.16-2.7-0.36-5.3-0.74-8-1.02-3.1-0.33-6.1-0.77-9.2-0.79-3-0.07-5.7 0.04-8.6-0.2-3.2-0.33-6.3-0.82-9.4-0.81-3.9 0.01-7.8-0.07-11.6-0.25-5.7-0.5-11.4-0.77-17-0.93-5.8-0.51-11.5-1.03-17.31-0.82-5.59 0.14-11.17 0.12-16.72-0.27-5.62-0.58-11.25-0.67-16.86-0.71-0.36-0.33-1.07-0.99-1.43-1.31-13.49-1.7-27.15-0.12-40.7-0.8l-0.99-0.05c-16.71-1.72-33.54-0.51-50.29-0.84-41.6-0.12-83.2 0.26-124.79-0.17-13.36-1.53-26.81-0.65-40.21-0.84-17.07 0.36-34.19-0.8-51.21 0.73-7.94 0.5-15.89 0.35-23.82 0.28-8.39 0.66-17.18-1.63-25.34 0.85-7.87 0.25-15.73 0.11-23.59 0.12-17.62 0.71-35.59-1.16-53.02 0.67-0.61 0.35-1.83 1.06-2.45 1.41-5.63-0.15-11.26-0.09-16.85 0.6-4.9 0.49-9.78 0.47-14.68 0.32-4.43 0.02-8.96-0.45-13.27 0.74-3.7 0.45-7.39 0.81-11.08 1.06-2.89 0.15-5.71 0.24-8.57 0.23-3.2-0.08-6.4-0.34-9.45 0.71-2.53 0.29-5.07 0.39-7.61 0.3-3.16-0.15-6.29-0.33-9.28 0.73-3.1 0.08-6.15 0.09-9.11 0.99-2.53 0.27-5.06 0.36-7.59 0.28-3.16-0.14-6.3-0.34-9.3 0.73-3.09 0.08-6.15 0.09-9.11 0.99-2.53 0.26-5.05 0.36-7.58 0.29-3.18-0.14-6.32-0.24-9.39 0.62-5.17 0.62-10.38 1.08-15.58 1.34-2.85 0.07-5.65 0.06-8.41 0.67-2.55 0.29-5.11 0.42-7.66 0.36-3.13-0.14-6.25-0.34-9.22 0.72-2.76 0.29-5.47 0.44-8.16 0.95-2.52 0.2-5.03 0.31-7.54 0.31-2.8 0.01-5.57-0.04-8.27 0.7-2.75 0.31-5.45 0.52-8.16 0.94-91.99 7.58-183.27 22.1-274.37 36.56-3.89 6.15-22.33-9.9-13.61-15.78 13.92 0.85 21.93-13.25 36.39-12.26 88.53-16.63 178.11-29 267.81-36.12 4.44-0.04 9.06 0.49 13.41-0.77 4.65-0.24 9.46 0.37 14.02-0.94 3.81-0.31 7.65-0.43 11.5-0.35 3.76-0.17 7.53-0.39 11.29-0.67 3.07-0.06 6.22-0.12 9.2-1.01 2.77-0.53 5.69-0.16 8.52-0.26 2.75 0 5.59 0.05 8.29-0.7 2.67-0.29 5.43-0.45 8.1-0.99 21.61-2.63 43.25-4.89 64.89-7.32 31.96-0.03 63.92 0 95.88 0 19.06 0.38 38.12-0.54 57.15-1.72 4.33-0.18 8.79 0.08 13.07-0.89z" fill="#f9c905"/>
  <path d="m722.69 11.28c8.05 0.21 20.35-1.74 25.96 0.92-8.67-0.03-17.34-0.11-25.96-0.92z" fill="#775c00"/>
  <path d="m748.65 12.2c8.46-0.07 16.97-0.68 25.43-0.03l-0.31 0.95-0.99 0.03c-8.05-0.06-16.12-0.12-24.13-0.95z" fill="#bca030"/>
  <path d="m774.08 12.17c9.94 0.28 22.58-1.56 30.95 0.85-10.43 0.01-20.85-0.15-31.26 0.1l0.31-0.95z" fill="#312100"/>
  <path d="m1022.9 12.19c4.1 0.2 8.1 0.35 12.3 0.61-4.2-0.15-8.3-0.31-12.3-0.61z" fill="#32321b"/>
  <path d="m624.22 14.12c2.08-2.31 10.27-1.19 15.02-0.72-4.28 0.97-8.74 0.71-13.07 0.89-0.49-0.04-1.46-0.13-1.95-0.17z" fill="#856800"/>
  <path d="m772.78 13.15l0.99-0.03c10.41-0.25 20.83-0.09 31.26-0.1l-0.08 0.99c-10.73 0.02-21.5 0.49-32.17-0.86z" fill="#efc92d"/>
  <path d="m805.03 13.02c11.62 0.99 28.4-2.03 37.68 1.13l-0.99 0.04c-12.26-0.3-24.52-0.16-36.77-0.18l0.08-0.99z" fill="#876b00"/>
  <path d="m569.06 15.01c8.14-2.48 21.23-0.48 31.23-0.71-10.39 1.05-20.83 0.76-31.23 0.71z" fill="#433100"/>
  <path d="m600.29 14.3c7.95-0.37 15.96-0.66 23.93-0.18 0.49 0.04 1.46 0.13 1.95 0.17-19.03 1.18-38.09 2.1-57.15 1.72l0.04-1c10.4 0.05 20.84 0.34 31.23-0.71z" fill="#e2be31"/>
  <path d="m841.72 14.19l0.99-0.04c9.42-0.24 18.86-0.31 28.31-0.14l-0.05 1c-9.76 0.15-19.55 0.29-29.25-0.82z" fill="#ceb13a"/>
  <path d="m871.02 14.01c5.13 0.99 15.85-2.25 18.74 1.17-6.27-0.19-12.55-0.15-18.79-0.17l0.05-1z" fill="#433300"/>
  <path d="m473.14 16.01c29.77-2.37 64.31-0.35 95.92-1l-0.04 1c-31.96 0-63.92-0.03-95.88 0z" fill="#977900"/>
  <path d="m661.02 15.3c3.01-0.07 6.16-0.28 9.21 0.07-3 1.02-6.2 0.86-9.21-0.07z" fill="#9b7c02"/>
  <path d="m889.76 15.18c8.39 1.05 23.07-2.56 28.95 0.92-0.5 0.02-1.48 0.07-1.98 0.09-9.01-0.02-18.02-0.06-26.97-1.01z" fill="#997902"/>
  <path d="m916.73 16.19c0.5-0.02 1.48-0.07 1.98-0.09 8.42-0.12 16.88-0.33 25.32-0.07l-0.09 0.99c-9.09 0.19-18.19 0.21-27.21-0.83z" fill="#e0c043"/>
  <path d="m944.03 16.03c3.07 0.85 11.85-2.01 12.7 1.12-4.28-0.04-8.56-0.07-12.79-0.13l0.09-0.99z" fill="#554200"/>
  <path d="m344.68 17.67c4.47-0.97 9.09-0.46 13.63-0.44-4.42 1.29-9.12 0.43-13.63 0.44z" fill="#4e4e3b"/>
  <path d="m956.73 17.15c3.26 1.04 11.89-2.31 13.06 1.05l-0.97 0.04c-4.05-0.31-8.09-0.77-12.09-1.09z" fill="#a4860a"/>
  <path d="m968.82 18.24l0.97-0.04c5.37-0.2 10.83-0.5 16.24-0.13l-0.05 0.99c-5.74 0.07-11.48-0.24-17.16-0.82z" fill="#e7c541"/>
  <path d="m986.03 18.07c3.58 0.73 12.22-1.98 13.71 1.08-4.59-0.09-9.21-0.06-13.76-0.09l0.05-0.99z" fill="#645002"/>
  <path d="m317.67 19.8c3.43-1.12 7.02-0.86 10.58-0.56-3.42 1.14-7.06 0.86-10.58 0.56z" fill="#3f3e2b"/>
  <path d="m999.74 19.15c2.66 0.7 7.66-1.61 9.36 0.91-3.1-0.13-6.3-0.61-9.36-0.91z" fill="#b69713"/>
  <path d="m1129.9 22.14c2.7 0.3 5.4 0.5 8.3 0.71-2.8-0.21-5.7-0.45-8.3-0.71z" fill="#6b6b4e"/>
  <path d="m400.15 24.32c0.93-2.58 5.67-0.95 8.1-0.99-2.67 0.54-5.43 0.7-8.1 0.99z" fill="#5c4401"/>
  <path d="m391.86 25.02c1.53-2.26 5.73-0.68 8.29-0.7-2.7 0.75-5.54 0.7-8.29 0.7z" fill="#9b811e"/>
  <path d="m374.14 26.29c0.67-3.24 6.62-0.71 9.2-1.01-2.98 0.89-6.13 0.95-9.2 1.01z" fill="#614900"/>
  <path d="m362.85 26.96c3.37-1.16 7.14-1.38 11.29-0.67-3.76 0.28-7.53 0.5-11.29 0.67z" fill="#a68e26"/>
  <path d="m337.33 28.25c1.74-2.38 9.61-1.31 14.02-0.94-4.56 1.31-9.37 0.7-14.02 0.94z" fill="#775f01"/>
  <path d="m323.92 29.02c2.61-2.49 9.16-0.83 13.41-0.77-4.35 1.26-8.97 0.73-13.41 0.77z" fill="#ba9d2d"/>
  <path d="m1101.8 29.26c2.8 1.17 11-2.48 12 0.96-4-0.27-8.1-0.61-12-0.96z" fill="#896b00"/>
  <path d="m1113.8 30.22c4.2-0.65 7.9-0.4 11.4 0.74-3.8-0.17-7.6-0.41-11.4-0.74z" fill="#caab35"/>
  <path d="m1132.7 31.21c2.5 0.27 7.3-1.51 8.3 0.93-0.5 0.03-1.5 0.09-1.9 0.11l-6.4-1.04z" fill="#907204"/>
  <path d="m1237 31.23c4.3 0.04 8.6-0.11 13-0.2-4 2.33-8.8 0.24-13 0.2z" fill="#656452"/>
  <path d="m1139.1 32.25c0.4-0.02 1.4-0.08 1.9-0.11 3.2-0.15 6.7-0.42 10-0.05v0.97c-4-0.07-8-0.34-11.9-0.81z" fill="#dbbf3f"/>
  <path d="m1151 32.09c2.3 1.03 11.8-2.19 11.7 1.07-3.9-0.02-7.8-0.05-11.7-0.1v-0.97z" fill="#514100"/>
  <path d="m1162.7 33.16c2.6 0.96 8.7-1.84 10.3 0.93-3.4-0.08-7-0.59-10.3-0.93z" fill="#a38409"/>
  <path d="m651.79 38.71c17.02-1.53 34.14-0.37 51.21-0.73v1c-17.06-0.18-34.17 0.51-51.21-0.27z" fill="#775b00"/>
  <path d="m703 37.98c13.4 0.19 26.85-0.69 40.21 0.84-0.5 0.03-1.48 0.07-1.97 0.09-12.75 0.18-25.5 0.17-38.24 0.07v-1z" fill="#efca30"/>
  <path d="m602.63 39.84c8.16-2.48 16.95-0.19 25.34-0.85-6.4 2.15-17.03 0.92-25.34 0.85z" fill="#aa9126"/>
  <path d="m741.24 38.91c0.49-0.02 1.47-0.06 1.97-0.09 41.59 0.43 83.19 0.05 124.79 0.17v1c-41.8-0.71-87.11 1.48-126.76-1.08z" fill="#aa9027"/>
  <path d="m868 38.99c16.75 0.33 33.58-0.88 50.29 0.84-16.77 0.24-33.53 0.18-50.29 0.16v-1z" fill="#eec92e"/>
  <path d="m526.02 40.63c17.43-1.83 35.4 0.04 53.02-0.67l-0.04 1c-9.68 0.2-19.35 0.01-29.01 0.03-8 0.03-15.99 0.08-23.97-0.36z" fill="#eec829"/>
  <path d="m579.04 39.96c7.86-0.01 15.72 0.13 23.59-0.12-5.17 2.31-15.99 1.01-23.63 1.12l0.04-1z" fill="#634a00"/>
  <path d="m868 39.99c16.76 0.02 33.52 0.08 50.29-0.16l0.99 0.05-0.33 0.94c-16.64-0.24-35.96 1.46-50.95-0.83z" fill="#644b00"/>
  <path d="m919.28 39.88c13.55 0.68 27.21-0.9 40.7 0.8-5.35 0.06-10.63 0.21-15.95 0.34-8.37-0.22-16.75 0.44-25.08-0.2l0.33-0.94z" fill="#efc82b"/>
  <path d="m523.57 42.04c0.62-0.35 1.84-1.06 2.45-1.41 7.98 0.44 15.97 0.39 23.97 0.36-6.5 2.29-17.07 0.59-25.43 1.09l-0.99-0.04z" fill="#9a811e"/>
  <path d="m944.03 41.02c5.32-0.13 10.6-0.28 15.95-0.34 0.36 0.32 1.07 0.98 1.43 1.31-4.73-1.12-14.7 2.36-17.38-0.97z" fill="#987f1c"/>
  <path d="m506.72 42.64c5.59-0.69 11.22-0.75 16.85-0.6l0.99 0.04c-2.61 1.95-12.32 0.98-17.84 0.56z" fill="#523900"/>
  <path d="m961.41 41.99c5.61 0.04 11.24 0.13 16.86 0.71-4.2-0.79-15.34 2.41-16.86-0.71z" fill="#523a00"/>
  <path d="m1311.1 41.99c3.3 0.23 6.6 0.54 10 0.86-3.3 0.16-6.8-0.22-10-0.86z" fill="#45442b"/>
  <path d="m478.77 43.7c4.31-1.19 8.84-0.72 13.27-0.74-2.58 2.49-9.09 0.88-13.27 0.74z" fill="#866f12"/>
  <path d="m994.99 42.97c5.81-0.21 11.51 0.31 17.31 0.82-4.8-1.02-14.38 2.53-17.31-0.82z" fill="#877013"/>
  <path d="m467.69 44.76c3.69-0.25 7.38-0.61 11.08-1.06-2.94 1.42-6.63 1.77-11.08 1.06z" fill="#412b00"/>
  <path d="m1012.3 43.79c5.6 0.16 11.3 0.43 17 0.93-4.4-0.85-15 2.46-17-0.93z" fill="#432d00"/>
  <path d="m449.67 45.7c3.05-1.05 6.25-0.79 9.45-0.71-1.42 3.02-6.67 0.5-9.45 0.71z" fill="#7a640a"/>
  <path d="m1040.9 44.97c3.1-0.01 6.2 0.48 9.4 0.81-2.8-0.7-7.7 1.69-9.4-0.81z" fill="#705c07"/>
  <path d="m432.78 46.73c2.99-1.06 6.12-0.88 9.28-0.73-1.35 3-6.55 0.49-9.28 0.73z" fill="#b89914"/>
  <path d="m788.98 46.9c6.85-1.94 14.06-0.87 21 0.01-7.02-0.03-14.01 0.24-21-0.01z" fill="#303300"/>
  <path d="m1058.9 45.98c3.1 0.02 6.1 0.46 9.2 0.79-2.7-0.68-7.5 1.68-9.2-0.79z" fill="#b59612"/>
  <path d="m423.67 47.72c2.96-0.9 6.01-0.91 9.11-0.99-0.43 3.29-6.61 0.69-9.11 0.99z" fill="#655103"/>
  <path d="m776.74 47.74c4.07-0.3 8.12-0.6 12.24-0.84-4.07 0.81-8.15 0.87-12.24 0.84z" fill="#7a7b1f"/>
  <path d="m788.98 46.9c6.99 0.25 13.98-0.02 21 0.01 4.02 0.63 8.12 0.89 12.23 0.97 6.53 0.15 13.05 0.17 19.6 0.3 6.02 0.63 12.1 0.97 18.19 0.78 4.32 0.76 8.77 0.93 13.19 0.91 3.2 0.07 6.31 0.11 9.56 0.28 2.73 0.18 5.62 0.41 8.41 0.72 5.19 0.57 10.4 0.97 15.62 1.29 2.73 0.22 5.61 0.48 8.41 0.71 2.52 0.16 5.07 0.28 7.65 0.35 7.67 0.82 15.41 0.97 23.14 0.78 11.9 1.96 24.01 0.71 36.02 1 17.58 2.21 35.4 0.53 53.1 0.95 4.3-0.02 8.6-0.19 12.9-0.11 19.7 4.26 39.7 6.08 59.8 7.39 9.7 1.19 19.6 0.85 29.4 0.6 4.2 0.13 8.4 0.21 12.6 0.32 4.4 0.33 8.8 0.72 13.2 0.88 5 0.86 10.1 1.08 15.1 0.82 6.3 0.14 12.5 0.22 18.7 0.3 4.7 0.58 9.6 0.75 14.3 0.69 20.4 1.86 41 1.86 61.2 5.85 50.3 9.23 101.5 10.86 152 18.02 41.1 9.46 82.2 19.58 124.2 24.17-5.9 6.85-13.8 17.34-23.4 19.09-4.8-0.59-9.5-0.91-14.2-0.78-8.3-0.41-16.6-2.05-24.9-2.47-40.6-3.1-79.5-16.11-119.9-20.82-2.8-0.29-5.5-0.54-8.2-0.81-38.1-4.38-76.5-6.97-113.9-15.23-12-1.86-24.2-0.58-36.3-0.58-8.9-0.35-17.7-0.89-26.6-1.46-5.1-0.51-10.2-0.96-15.3-0.65-4.9-0.12-9.8-0.16-14.6-0.26-3.5-0.4-6.8-0.79-10.2-0.92-2.8-0.26-5.4-0.57-8.2-0.88-19.2-1.63-38.4-4.48-57.6-6.23-3.2-0.3-6.3-0.68-9.4-0.77-7.9-0.15-15.8-0.02-23.6-0.27-6.1-0.67-12.2-0.98-18.2-0.83-5-0.99-10.1-1.1-15.2-0.84-5.2-0.08-10.4-0.13-15.62-0.35-5.4-0.51-10.8-0.86-16.19-0.75-3.4-0.54-6.7-1.04-10.11-0.97-15.69-1.71-31.5-2.78-46.92-6.26-7.86-0.3-16.51-2.86-24.06 0.16-4.41 0.41-8.93-0.53-13.19 0.8-4.54 0.18-9.02 0.26-13.52 0.4-7.03-0.13-14.12-0.72-21.04 0.76-8.4-0.03-16.77 0.05-25.16 0.04-18-0.01-36-0.02-53.99 0-18.67 0-37.34-0.03-56 0-22.57 0.82-45.77-1.56-67.99 0.96-28.1 0.72-56.41-1.13-84.4 0.74-7.47 0.42-14.93 0.9-22.37 1.62-2.87 0.1-5.65 0.07-8.47 0.32-4.58 0.29-9.12 0.93-13.64 1.63-2.84 0.13-5.59 0.14-8.37 0.41-2.51 0.19-5.01 0.37-7.5 0.53-2.8 0.06-5.62-0.42-8.22 0.7-2.46 0.3-4.9 0.59-7.32 0.85-10.17 0.82-20.36 1.44-30.51 2.51-2.85 0.12-5.62 0.1-8.43 0.41-4.87 0.48-9.72 1.05-14.58 1.6-2.84 0.12-5.62 0.08-8.41 0.4-1.63 0.15-4.89 0.46-6.51 0.61-2.81 0.04-5.69-0.5-8.28 0.71-2.8 0.25-5.54 0.35-8.3 0.7-2.84 0.16-5.62 0.28-8.43 0.51-3.4 0.09-7.17-1.17-10.26 0.79-3.51-0.19-7.01-0.23-10.39 0.77-14.13-0.21-28.32 0.48-41.66 5.49-6.71-0.12-13.4-0.18-20.1-0.11-6.21-0.12-12.42-0.28-18.62 0.08-2.84 0.08-5.65 0-8.44 0.49-49.81 9.42-100.26 15.6-149.82 26.2-16.23 2.51-31.89 7.69-48.07 10.36-4 0.69-8.99-1.93-12.5 0.75-1.19 0.56-2.66 2.85-3.95 1.27-8.37-8.9-16.92-17.63-25.68-26.15-2.39-2.13 1.62-3.65 3.39-4.05 12.03-2.7 23.76-6.63 35.74-9.45 5.02 0.02 10.06 0.39 15.09 0.14 32.88-1.07 63.67-17.7 96.88-13.77 47.37-4.61 94.63-11.37 141.91-17.28 3.47 0.25 7.08 0.64 10.45-0.53 3.49-0.26 6.96-0.35 10.47-0.53 2.81-0.05 5.7 0.08 8.5-0.4 5.48-0.71 10.98-1.33 16.5-1.6 3.16 0.16 6.42 0.48 9.52-0.4 6.12-0.85 12.28-1.24 18.45-1.58 3.17 0.18 6.46 0.5 9.56-0.48 2.83-0.22 5.62-0.32 8.48-0.48 3.04-0.03 6.48 0.97 9.27-0.74 3.08 0.02 6.27 0.15 9.27-0.79 2.82-0.19 5.59-0.31 8.45-0.45 3.37-0.07 7.21 1.19 10.29-0.78 3.07 0.05 6.26 0.16 9.25-0.77 2.83-0.19 5.62-0.33 8.49-0.48 3.15 0.13 6.41 0.42 9.52-0.43 6.11-0.8 12.28-1.1 18.43-1.58 3.5 0.25 7.17 0.74 10.55-0.53 2.86-0.22 5.67-0.34 8.57-0.47 60 0.5 120.02 0.38 180.02 0.07 3.4 5.14 7.68 2.18 11.16-1.15 5.03-0.07 10.35 1.36 15.26-0.42 3.49-0.28 6.93-0.38 10.47-0.52 4.01-0.13 8.29 0.66 12.23-0.6 3.43 0.03 7.02 0.25 10.34-0.91 2.82-0.21 5.57-0.32 8.45-0.45 4.09 0.03 8.17-0.03 12.24-0.84z" fill="#c9ca34"/>
  <path d="m809.98 46.91c4.06 0.39 8.12 0.7 12.23 0.97-4.11-0.08-8.21-0.34-12.23-0.97z" fill="#797a1f"/>
  <path d="m1068.1 46.77c2.7 0.28 5.3 0.66 8 1.02-2.4-0.23-6.8 1.38-8-1.02z" fill="#635003"/>
  <path d="m406.78 48.73c3-1.07 6.14-0.87 9.3-0.73-1.41 2.98-6.55 0.5-9.3 0.73z" fill="#a28509"/>
  <path d="m757.95 49.1c3.1-2.04 6.87-0.85 10.34-0.91-3.32 1.16-6.91 0.94-10.34 0.91z" fill="#46470d"/>
  <path d="m841.81 48.18c6.06-0.19 12.17-0.44 18.19 0.78-6.09 0.19-12.17-0.15-18.19-0.78z" fill="#43450b"/>
  <path d="m397.67 49.72c2.96-0.9 6.02-0.91 9.11-0.99-0.42 3.29-6.61 0.69-9.11 0.99z" fill="#513f00"/>
  <path d="m745.72 49.7c4.06-0.32 8.12-0.53 12.23-0.6-3.94 1.26-8.22 0.47-12.23 0.6z" fill="#848526"/>
  <path d="m860 48.96c4.4 0.16 8.76 0.57 13.19 0.91-4.42 0.02-8.87-0.15-13.19-0.91z" fill="#878626"/>
  <path d="m380.7 50.63c3.07-0.86 6.21-0.76 9.39-0.62-1.46 2.99-6.62 0.51-9.39 0.62z" fill="#937401"/>
  <path d="m719.99 50.64c4.85-1.84 10.2-0.16 15.26-0.42-4.91 1.78-10.23 0.35-15.26 0.42z" fill="#4f5114"/>
  <path d="m882.75 50.15c2.82 0.18 5.53 0.44 8.41 0.72-2.79-0.31-5.68-0.54-8.41-0.72z" fill="#514f13"/>
  <path d="m1103.1 49.95c2.6-0.03 5.2-0.04 7.9-0.03l-0.1 0.96c-2.3-0.22-7.2 1.4-7.8-0.93z" fill="#907302"/>
  <path d="m1111 49.92c6.6 0.2 13.4 0.76 20 1.9l-1.8 0.09c-3.1 0.09-5.9 0.14-8.9-0.1-3.2-0.33-6.3-0.7-9.4-0.93l0.1-0.96z" fill="#e0bd2f"/>
  <path d="m528.81 51.72c59.94-1.14 120.12-1.31 180.02 0.07-60 0.31-120.02 0.43-180.02-0.07z" fill="#999833"/>
  <path d="m1110.9 50.88c3.1 0.23 6.2 0.6 9.4 0.93-2.8-0.7-7.7 1.65-9.4-0.93z" fill="#443000"/>
  <path d="m356.71 52.64c2.76-0.61 5.56-0.6 8.41-0.67-1.46 2.34-5.84 0.63-8.41 0.67z" fill="#886900"/>
  <path d="m509.69 52.72c3.45-0.96 6.99-0.84 10.55-0.53-3.38 1.27-7.05 0.78-10.55 0.53z" fill="#5d5c1d"/>
  <path d="m906.78 52.16c2.81 0.22 5.53 0.48 8.41 0.71-2.8-0.23-5.68-0.49-8.41-0.71z" fill="#61611e"/>
  <path d="m1129.2 51.91l1.8-0.09c2.4 0.28 4.8 0.59 7.2 0.93-2.4-0.78-8 1.77-9-0.84z" fill="#846900"/>
  <path d="m339.83 53.72c2.97-1.06 6.09-0.86 9.22-0.72-1.38 2.97-6.5 0.51-9.22 0.72z" fill="#b69b2f"/>
  <path d="m922.84 53.22c7.71-0.17 15.5-0.88 23.14 0.78-7.73 0.19-15.47 0.04-23.14-0.78z" fill="#2e2d00"/>
  <path d="m331.67 54.67c2.69-0.51 5.4-0.66 8.16-0.95-0.81 2.55-5.75 0.92-8.16 0.95z" fill="#785900"/>
  <path d="m481.74 54.73c3.12-0.84 6.29-0.58 9.52-0.43-3.11 0.85-6.37 0.56-9.52 0.43z" fill="#6b6d28"/>
  <path d="m945.98 54c12.32 0.47 24.76-1.13 37 1h-0.98c-12.01-0.29-24.12 0.96-36.02-1z" fill="#6f702a"/>
  <path d="m315.86 55.68c2.7-0.74 5.47-0.69 8.27-0.7-1.52 2.27-5.72 0.68-8.27 0.7z" fill="#a99027"/>
  <path d="m464 55.98c2.82-1.65 6.14-0.76 9.25-0.77-2.99 0.93-6.18 0.82-9.25 0.77z" fill="#413f01"/>
  <path d="m982 55h0.98c17.32-0.01 34.72 0.03 52.02-0.04l0.1 0.99c-17.7-0.42-35.52 1.26-53.1-0.95z" fill="#b7b849"/>
  <path d="m1035 54.96c4.4-0.02 8.7 0.28 13 0.88-4.3-0.08-8.6 0.09-12.9 0.11l-0.1-0.99z" fill="#3d3c00"/>
  <path d="m307.7 56.62c2.71-0.42 5.41-0.63 8.16-0.94-0.92 2.59-5.73 0.98-8.16 0.94z" fill="#614900"/>
  <path d="m453.71 56.76c3.35-1 6.81-0.92 10.29-0.78-3.08 1.97-6.92 0.71-10.29 0.78z" fill="#7f8036"/>
  <path d="m1174 55.94c4.8-0.03 9.4 0.39 14.2 0.79-4-0.92-11.8 2.38-14.2-0.79z" fill="#654a00"/>
  <path d="m435.99 58c2.82-1.67 6.16-0.77 9.27-0.79-3 0.94-6.19 0.81-9.27 0.79z" fill="#484a02"/>
  <path d="m1203.9 56.94c3.5-0.04 6.9 0.5 10.4 0.82-2.8-0.93-8.7 1.93-10.4-0.82z" fill="#98801e"/>
  <path d="m426.72 58.74c3.03-0.81 6.13-0.73 9.27-0.74-2.79 1.71-6.23 0.71-9.27 0.74z" fill="#8f9040"/>
  <path d="m1214.3 57.76c5.3 0.2 10.6 0.45 15.9 0.98-4.5-0.6-13.5 1.92-15.9-0.98z" fill="#513900"/>
  <path d="m408.68 59.7c3.14-0.76 6.33-0.61 9.56-0.48-3.1 0.98-6.39 0.66-9.56 0.48z" fill="#5e600a"/>
  <path d="m1245.9 58.97c3.1-0.03 6.1 0.36 9.3 0.71-2.8-0.66-7.6 1.8-9.3-0.71z" fill="#897414"/>
  <path d="m380.71 61.68c3.14-0.72 6.31-0.52 9.52-0.4-3.1 0.88-6.36 0.56-9.52 0.4z" fill="#676711"/>
  <path d="m355.71 63.68c2.83-0.28 5.64-0.26 8.5-0.4-2.8 0.48-5.69 0.35-8.5 0.4z" fill="#787a1c"/>
  <path d="m1107.8 63.23c9.8-0.32 19.6-0.73 29.4 0.6-9.8 0.25-19.7 0.59-29.4-0.6z" fill="#7a791e"/>
  <path d="m334.79 64.74c3.4-1.06 6.93-0.83 10.45-0.53-3.37 1.17-6.98 0.78-10.45 0.53z" fill="#45450b"/>
  <path d="m1149.8 64.15c4.4 0 8.8 0.08 13.2 0.88-4.4-0.16-8.8-0.55-13.2-0.88z" fill="#40430b"/>
  <path d="m1163 65.03c5.1-0.22 10.1 0.43 15.1 0.82-5 0.26-10.1 0.04-15.1-0.82z" fill="#8a8929"/>
  <path d="m1196.8 66.15c4.8-0.14 9.5 0.13 14.3 0.69-4.7 0.06-9.6-0.11-14.3-0.69z" fill="#505113"/>
  <path d="m895.9 72c7.55-3.02 16.2-0.46 24.06-0.16-8.04-0.18-16.05 0.41-24.06 0.16z" fill="#8d8e3d"/>
  <path d="m882.71 72.8c4.26-1.33 8.78-0.39 13.19-0.8-4.38 0.87-8.78 0.97-13.19 0.8z" fill="#4f4f03"/>
  <path d="m895.9 72c8.01 0.25 16.02-0.34 24.06-0.16 15.42 3.48 31.23 4.55 46.92 6.26 3.3 0.42 6.74 0.83 10.11 0.97 5.34 0.9 10.76 0.84 16.19 0.75 5.22 0.22 10.42 0.27 15.62 0.35 5 0.36 10.1 0.97 15.2 0.84 6 1.23 12.1 1.01 18.2 0.83 7.8 0.25 15.7 0.12 23.6 0.27 3 0.25 6.2 0.58 9.4 0.77 19.2 1.75 38.4 4.6 57.6 6.23 2.7 0.27 5.5 0.53 8.2 0.88 3.3 0.53 6.8 1 10.2 0.92 4.8 0.1 9.7 0.14 14.6 0.26 5.1 0.56 10.2 0.92 15.3 0.65 8.9 0.57 17.7 1.11 26.6 1.46 12.1 1.34 24.2 0.54 36.3 0.58 37.4 8.26 75.8 10.85 113.9 15.23 2.6 0.25 5.5 0.51 8.2 0.81 40.4 4.71 79.3 17.72 119.9 20.82 4.6 9.76 15.3 0.75 20.7 6.39 0.3 6.84 6 5.71 1.7-0.36 11.7 0.38 24.6 2.58 32-9.39 2.3-4.84 17.8-11.37 5.5-13.95 5.9-9.56 18.1-3.06 27-4.17-24.6 20.63-49.5 40.93-74 61.64-54.4 32.78-106.6 70.45-166.5 92.46-62.2 22.77-123.2 49.93-188.3 63.67-2.6 0.49-4.7 2.01-6.8 3.53-91.5 20.36-182.94 45.14-277.1 50.78-0.5 12.47 3.79 24.56 5.33 36.85-0.23 9.79-8.79 18.62-7.82 28.07 27.57 6.38 51.8 21.16 77.33 32.71 29.4 16.23 51.83 41.18 75.16 64.83 23.6 33.17 41.3 69.98 55.2 108.17 0 4.06-0.1 8.16 0.3 12.24 0.4 6.53 1 13.02 1.6 19.55-0.2 3.15-0.3 6.44 0.4 9.58 1 15.83 3 31.62 3.2 47.49-0.7 4.75-0.9 9.61-0.7 14.43-0.1 26.44-4.5 54.21-18.2 77.06-0.7 3.08-0.9 6.31-0.8 9.47-17.9 22.33-37 43.9-56.48 64.95-36.88 26.59-73.27 54.28-115.69 71.46-1.75-5.48 12.15-11.91 15.63-19.23 2.69 1.39 4.67-1.25 6.47-2.82 23.4-14.23 49.3-25.36 68.62-45.38 14.33-15.36 33.45-26.04 45.25-43.73 14.5-20.74 33.6-39.83 38.5-65.59 1.5-11.83 6.3-22.84 8.7-34.43 0.5-3.09 1.7-6.31 0-9.2-0.2-3.88-0.2-7.74-0.2-11.59-0.6-9.8 1.5-19.94-0.8-29.55-0.2-3.06 0-6.05-0.9-8.97-1.1-22.02-7.8-43.82-9.7-65.31-9.3-20.61-14.8-43.15-28.2-61.72-12.9-17.35-21.3-38.86-40.03-51.03-17.84-14.43-35.7-28.83-53-43.91-7.35-8.39-19.84-5.17-28.87-10.2-17.42-11.41-38.14-15.81-57.43-22.81-6.99-0.9-14.04-0.78-21.05-0.7-5.63-1.02-11.33-1.1-17-1.04-4.37-0.59-8.72-1.06-13.09-0.99-4.9-0.07-9.76 0.26-14.62-0.12-28.34 0.16-54.84 11.78-81.27 21.12-5.29 1.33-11.32 1.84-15.36 5.91l-0.71 0.33c-11.13 2.59 7.35-10.36 8.93-14.36 15.39-7.8 32.58-10.19 48.87-15.29 0.57-7.45-9.14-11.3-11.66-17.78-3.82-13.32-4.19-27.26-4.28-41.01-10.77-5.37-22.9-4.81-34.56-4.88-41.73-5.47-82.8-15.4-124.58-20.53-91.96-17.95-181.12-47.64-268.82-80.24-34.54-14.43-67.4-32.41-99.57-51.44-28.54-7.96-48.9-31.16-73.25-46.73-29.4-22.09-61.82-40.74-86.17-68.8 2.01-1.32 3.93-4.82 6.61-3.77 8.6 8.49 15.89 18.22 25.45 25.79 21.52-3.76 45.64-4.52 65.04-15.26 49.56-10.6 100.01-16.78 149.82-26.2 2.79-0.17 5.65-0.11 8.44-0.49 6.2-0.36 12.41-0.2 18.62-0.08 6.67 0.95 13.43 1.35 20.1 0.11 13.34-5.01 27.53-5.7 41.66-5.49 3.4-0.11 7.28 1.23 10.39-0.77 3.43 0.19 6.95 0.29 10.26-0.79 2.81-0.23 5.59-0.35 8.43-0.51 2.74-0.04 5.7 0.52 8.3-0.7 2.72-0.26 5.54-0.3 8.28-0.71 1.62-0.15 4.88-0.46 6.51-0.61 2.77-0.07 5.63 0.04 8.41-0.4 4.86-0.55 9.71-1.12 14.58-1.6 2.77-0.1 5.65 0 8.43-0.41 10.15-1.07 20.34-1.69 30.51-2.51 2.71-0.07 5.62 0.43 8.23-0.66 2.42-0.34 4.86-0.64 7.31-0.89 2.49-0.16 4.99-0.34 7.5-0.53 2.75-0.07 5.61 0.1 8.37-0.41 4.52-0.7 9.06-1.34 13.64-1.63 2.77-0.1 5.66 0 8.47-0.32 7.44-0.72 14.9-1.2 22.37-1.62 27.99-0.3 56.88 1.88 84.4-0.74 22.66 0.05 45.32 0.05 67.99 0.04 18.66 0 37.33 0.03 56 0 18.01 0.01 36.02 0.02 54.03 0 8.21-1.02 17.29 2.16 25.12-1.04 7.01 0.07 14.04 0.09 21.04-0.76 4.5-0.14 8.98-0.22 13.52-0.4 4.41 0.17 8.81 0.07 13.19-0.8m-127.9 10.99c-12.91-0.25-25.74 1.54-38.63 1.32-6.26-0.4-15.14-1.48-19.35 0.71-19.91-0.16-39.78 1.36-59.67 1.31-9.13-0.26-20.99-1.5-28.34 0.67-14.23-0.26-28.43 1.25-42.64 1.31-6.26-0.41-15.11-1.48-19.36 0.7-4.89-0.12-9.81-0.14-14.67 0.33-8.69 0.02-20.42-1.73-27.27 0.63-37.34 2.66-74.34 8.94-111.76 10.43-4.19-0.32-10.82-1.85-13.33 0.61-39.4 3.7-81.23 1.45-118.96 12.02-15.85 5.99-36.78-3.7-49.28 6.96-7.84-0.4-15.92-1.26-23.55 1.08-15.21 6.58-32.69 0.4-47.41 9.09-11.03 1.95-22.4 4.34-32.91 7.89-12.73 0.5-25.04 4.26-37.59 6.14 0.13 7.95 11.27 8.74 15.33 14.2 37.52 31.94 80.96 55.64 124.31 78.53 33.28 17.05 66.11 35.62 101.75 47.41 76.13 30.44 155.01 54.51 235.74 68.27 55.73 9.07 111.58 20.95 168.25 20.4 2.52-17.39 22.83-22.6 35.82-30.68 20.36-2.06 40.87 0.05 60.4 5.67 15.25 7.85 25.67 28.18 45.09 22.22 19.76-4.29 42.95 5.16 59.77-8.19 26.66 2 52.44-5.74 78.56-9.7 60.8-16.13 122.3-29.67 182.7-47.29 63.4-25.06 130-42.66 190.5-74.52 45.3-19.55 83.4-51.74 124.7-78.24 1.6-2.27 3.1-8.55-1.3-8.41-27.4-1.73-54.7-5.62-80.8-13.99-44.1-10.41-89.3-14.49-134.2-18.86-53.7-9.56-113.4-0.05-167.9-15.1-33.6-2.95-67.3-5.21-101-5.89-9-3.32-24.42 0.14-35.25-0.77-40.07 3-78.71-7.86-118.73-6.23-10.5-3.14-26.99 0-39.26-0.76-9.83-0.7-19.72-0.33-29.55 0.02-9.9-0.3-22.09-1.35-30.21 0.71m-21.55 287.41c-3.63 2.01-5.4 6.07-7.67 9.32-1.46 0.48-1.94 1.1-1.42 1.87-1.68 0.93-3.67 2.27-3.37 4.47-2.23 1.32-0.49 5.53-0.73 8-1.01 6.37-3.66 12.79-1.16 19.23 3.88 10.32 7.07 27.53 20.97 26.73 7.65 3.87 20.45-0.82 29.89 0.94 8.83-0.28 21.21 1.33 27.69-1.16 7.51-0.02 17.59 1.5 23.4-0.86 12.05 5.34 22.1-4.34 20.63-16.63 0.56-6.16 0.32-12.35 0.05-18.5-3.86-20.01-18.37-43.5-40.47-45.62-22.72-2.99-54.28-12.8-67.81 12.21z" fill="#040503"/>
  <path d="m848.15 73.96c6.92-1.48 14.01-0.89 21.04-0.76-7 0.85-14.03 0.83-21.04 0.76z" fill="#807f34"/>
  <path d="m645.01 74.96c22.22-2.52 45.42-0.14 67.99-0.96v1c-22.67 0.01-45.33 0.01-67.99-0.04z" fill="#b7b849"/>
  <path d="m713 74c18.66-0.03 37.33 0 56 0v1c-18.67 0.03-37.34 0-56 0v-1z" fill="#3c3c00"/>
  <path d="m769 74c17.99-0.02 35.99-0.01 53.99 0l0.04 1c-18.01 0.02-36.02 0.01-54.03 0v-1z" fill="#b7b94a"/>
  <path d="m822.99 74c8.39 0.01 16.76-0.07 25.16-0.04-7.83 3.2-16.91 0.02-25.12 1.04l-0.04-1z" fill="#3c3d00"/>
  <path d="m560.61 75.7c27.99-1.87 56.3-0.02 84.4-0.74-27.52 2.62-56.41 0.44-84.4 0.74z" fill="#6f6f29"/>
  <path d="m529.77 77.64c2.82-0.25 5.6-0.22 8.47-0.32-2.81 0.32-5.7 0.22-8.47 0.32z" fill="#615f1e"/>
  <path d="m966.88 78.1c3.41-0.07 6.71 0.43 10.11 0.97-3.37-0.14-6.81-0.55-10.11-0.97z" fill="#959531"/>
  <path d="m507.76 79.68c2.78-0.27 5.53-0.28 8.37-0.41-2.76 0.51-5.62 0.34-8.37 0.41z" fill="#4b4b10"/>
  <path d="m976.99 79.07c5.39-0.11 10.79 0.24 16.19 0.75-5.43 0.09-10.85 0.15-16.19-0.75z" fill="#505113"/>
  <path d="m492.04 80.91c2.6-1.12 5.42-0.64 8.22-0.7-2.45 0.25-4.89 0.55-7.31 0.89l-0.91-0.19z" fill="#8b8e28"/>
  <path d="m1008.8 80.17c5.1-0.26 10.2-0.15 15.2 0.84-5.1 0.13-10.2-0.48-15.2-0.84z" fill="#8c892a"/>
  <path d="m484.72 81.76c2.42-0.26 4.86-0.55 7.32-0.85l0.91 0.19c-2.61 1.09-5.52 0.59-8.23 0.66z" fill="#3e3e06"/>
  <path d="m1024 81.01c6-0.15 12.1 0.16 18.2 0.83-6.1 0.18-12.2 0.4-18.2-0.83z" fill="#3f410a"/>
  <path d="m768 82.99c8.12-2.06 20.31-1.01 30.21-0.71-10.05 1.04-20.14 0.87-30.21 0.71z" fill="#142929"/>
  <path d="m798.21 82.28c9.83-0.35 19.72-0.72 29.55-0.02 13.03 1.37 26.17 0.64 39.26 0.76 40.02-1.63 78.66 9.23 118.73 6.23 11.7 1.29 23.45 0.74 35.25 0.77 33.7 0.68 67.4 2.94 101 5.89 54.5 15.05 114.2 5.54 167.9 15.1 44.9 4.37 90.1 8.45 134.2 18.86 26.1 8.37 53.4 12.26 80.8 13.99 4.4-0.14 2.9 6.14 1.3 8.41-41.3 26.5-79.4 58.69-124.7 78.24-60.5 31.86-127.1 49.46-190.5 74.52-60.4 17.62-121.9 31.16-182.7 47.29-26.12 3.96-51.9 11.7-78.56 9.7-16.82 13.35-40.01 3.9-59.77 8.19-19.42 5.96-29.84-14.37-45.09-22.22-19.53-5.62-40.04-7.73-60.4-5.67-12.99 8.08-33.3 13.29-35.82 30.68-56.67 0.55-112.52-11.33-168.25-20.4-80.73-13.76-159.61-37.83-235.74-68.27-35.64-11.79-68.47-30.36-101.75-47.41 1.52-1.48 2.79-4.96 5.26-2.99 15 7.42 29.61 15.53 44.93 22.22 40.33 13.83 79.23 31.98 121.22 40.44 48.55 18.3 100.28 23.03 150.49 33.64 30.57 2.2 61.28 10.14 91.55 8.77 9.22-24.59 42.85-30.87 66.16-24.53 17.26-0.8 28.07 13.28 41.01 21.88 18.18 1.09 36.5-2.27 54.73-1.94 11.44-9.58 26.31-1.2 38.91-7.23 53.73-5.03 104.06-27.52 157.21-35.64 56.21-16.91 111.01-37.68 165.81-58.32 45.5-19.38 87-45.99 126.5-75.48 4.8-3.55 14.9-5.58 12.8-13.35-43.5-2.98-85-17.37-128.2-22.61-56.9-6.52-113-11.51-170.3-13.29-9.46 2.76-18.04-4.13-27.03-5.86-45.24-2.15-90.47-5.74-135.88-5.13-15.39-1.52-31.48 0.36-46.23-5.11-39.84 1.03-79.73-3.07-119.55 0.3-95.79 1.82-191.59 1.5-286.95 12.01-37.1 1.7-74.37 4.3-111.34 8.33 37.73-10.57 79.56-8.32 118.96-12.02 4.42 0.08 8.94 0.26 13.33-0.61 37.42-1.49 74.42-7.77 111.76-10.43 9.08 0.07 18.22 0.53 27.27-0.63 4.86-0.47 9.78-0.45 14.67-0.33 6.4-0.19 13.07 1.04 19.36-0.7 14.21-0.06 28.41-1.57 42.64-1.31 9.41-0.3 19.01 1.02 28.34-0.67 19.89 0.05 39.76-1.47 59.67-1.31 6.4-0.22 13.06 1.04 19.35-0.71 12.89 0.22 25.72-1.57 38.63-1.32 10.07 0.16 20.16 0.33 30.21-0.71z" fill="#326465"/>
  <path d="m827.76 82.26c12.27 0.76 28.76-2.38 39.26 0.76-13.09-0.12-26.23 0.61-39.26-0.76z" fill="#142728"/>
  <path d="m1065.8 82.11c3.1 0.09 6.2 0.47 9.4 0.77-3.2-0.19-6.4-0.52-9.4-0.77z" fill="#75771d"/>
  <path d="m445.78 84.68c2.81-0.31 5.58-0.29 8.43-0.41-2.78 0.41-5.66 0.31-8.43 0.41z" fill="#6e7019"/>
  <path d="m710.02 85.02c4.21-2.19 13.09-1.11 19.35-0.71-6.29 1.75-12.95 0.49-19.35 0.71z" fill="#182f30"/>
  <path d="m422.79 86.68c2.79-0.32 5.57-0.28 8.41-0.4-2.78 0.44-5.64 0.33-8.41 0.4z" fill="#5f5f0e"/>
  <path d="m622.01 87c7.35-2.17 19.21-0.93 28.34-0.67-9.33 1.69-18.93 0.37-28.34 0.67z" fill="#1f3636"/>
  <path d="m408 88c2.59-1.21 5.47-0.67 8.28-0.71-2.74 0.41-5.56 0.45-8.28 0.71z" fill="#898a3d"/>
  <path d="m399.7 88.7c2.76-0.35 5.5-0.45 8.3-0.7-2.6 1.22-5.56 0.66-8.3 0.7z" fill="#515205"/>
  <path d="m560.01 89.01c4.25-2.18 13.1-1.11 19.36-0.7-6.29 1.74-12.96 0.51-19.36 0.7z" fill="#243d3d"/>
  <path d="m381.01 90c3.09-1.96 6.86-0.7 10.26-0.79-3.31 1.08-6.83 0.98-10.26 0.79z" fill="#808035"/>
  <path d="m518.07 89.97c6.85-2.36 18.58-0.61 27.27-0.63-9.05 1.16-18.19 0.7-27.27 0.63z" fill="#0d2627"/>
  <path d="m985.75 89.25c10.83 0.91 26.25-2.55 35.25 0.77-11.8-0.03-23.55 0.52-35.25-0.77z" fill="#0d2728"/>
  <path d="m1132.8 89.11c2.8 0.31 5.4 0.62 8.2 0.88-2.7-0.35-5.5-0.61-8.2-0.88z" fill="#838236"/>
  <path d="m370.62 90.77c3.38-1 6.88-0.96 10.39-0.77-3.11 2-6.99 0.66-10.39 0.77z" fill="#3b3c00"/>
  <path d="m1141 89.99c3.4 0.13 6.7 0.52 10.2 0.92-3.4 0.08-6.9-0.39-10.2-0.92z" fill="#3e3d00"/>
  <path d="m672.31 92.69c39.82-3.37 79.71 0.73 119.55-0.3 14.75 5.47 30.84 3.59 46.23 5.11 45.41-0.61 90.64 2.98 135.88 5.13 8.99 1.73 17.57 8.62 27.03 5.86 57.3 1.78 113.4 6.77 170.3 13.29 43.2 5.24 84.7 19.63 128.2 22.61 2.1 7.77-8 9.8-12.8 13.35-39.5 29.49-81 56.1-126.5 75.48-54.8 20.64-109.6 41.41-165.81 58.32-53.15 8.12-103.48 30.61-157.21 35.64-12.6 6.03-27.47-2.35-38.91 7.23-18.23-0.33-36.55 3.03-54.73 1.94-12.94-8.6-23.75-22.68-41.01-21.88-23.31-6.34-56.94-0.06-66.16 24.53-30.27 1.37-60.98-6.57-91.55-8.77-50.21-10.61-101.94-15.34-150.49-33.64-41.99-8.46-80.89-26.61-121.22-40.44-15.32-6.69-29.93-14.8-44.93-22.22-2.47-1.97-3.74 1.51-5.26 2.99-43.35-22.89-86.79-46.59-124.31-78.53-4.06-5.46-15.2-6.25-15.33-14.2 12.55-1.88 24.86-5.64 37.59-6.14-7.52 6.1-21.99 0.27-27.88 7.64 61.25 49.68 133.78 83.11 206.79 111.53 30.88 10.61 62.91 17.26 93.95 27.12 50.56 6.21 100.26 20.05 151.45 20.33 1.68-11.98 15.28-15.15 24.08-20.75 22.62-3.4 48.28 0.36 63.77 18.84 13.97-0.02 27.89-1.75 41.91-1.25 7.75 0.16 13.71-7.39 21.74-5 45.39-2.21 88.19-21.03 132.84-29.01 22.65-3.35 43.31-13.86 65.23-19.71 32.25-13.44 66.62-21.83 97.34-38.72 35.41-14.18 66.31-37.05 97.21-58.99 1.7-11.5-18.3-6.75-26.2-8.69-72.07-18.29-144.59-23.37-218.1-25.82-48.04-11.77-98.8-9.31-148.2-9.73-52.2-8.54-105.71-3.61-158.33-3.53-101.68 0.12-203.07 7.73-304.16 17.94-27.32 1.55-53.14 10.51-80.53 9.91 14.72-8.69 32.2-2.51 47.41-9.09 7.63-2.34 15.71-1.48 23.55-1.08 12.5-10.66 33.43-0.97 49.28-6.96 36.97-4.03 74.24-6.63 111.34-8.33 95.36-10.51 191.16-10.19 286.95-12.01z" fill="#346a6a"/>
  <path d="m1165.8 91.17c5.1-0.31 10.2 0.14 15.3 0.65-5.1 0.27-10.2-0.09-15.3-0.65z" fill="#717028"/>
  <path d="m1207.7 93.28c12.1 0 24.3-1.28 36.3 0.58-12.1-0.04-24.2 0.76-36.3-0.58z" fill="#61601f"/>
  <path d="m80.91 95.65c5-0.78 10.09-0.53 15.09 0.14-5.03 0.25-10.07-0.12-15.09-0.14z" fill="#787a1f"/>
  <path d="m281.8 96.72c2.79-0.49 5.6-0.41 8.44-0.49-2.79 0.38-5.65 0.32-8.44 0.49z" fill="#828524"/>
  <path d="m308.86 96.15c6.7-0.07 13.39-0.01 20.1 0.11-6.67 1.24-13.43 0.84-20.1-0.11z" fill="#838325"/>
  <path d="m392.98 101.01c2.51-2.46 9.14-0.93 13.33-0.61-4.39 0.87-8.91 0.69-13.33 0.61z" fill="#1c3232"/>
  <path d="m538.47 102.31c52.62-0.08 106.13-5.01 158.33 3.53 49.4 0.42 100.16-2.04 148.2 9.73 73.51 2.45 146.03 7.53 218.1 25.82 7.9 1.94 27.9-2.81 26.2 8.69-30.9 21.94-61.8 44.81-97.21 58.99-30.72 16.89-65.09 25.28-97.34 38.72-21.92 5.85-42.58 16.36-65.23 19.71-44.65 7.98-87.45 26.8-132.84 29.01-8.03-2.39-13.99 5.16-21.74 5-14.02-0.5-27.94 1.23-41.91 1.25-15.49-18.48-41.15-22.24-63.77-18.84-8.8 5.6-22.4 8.77-24.08 20.75-51.19-0.28-100.89-14.12-151.45-20.33-31.04-9.86-63.07-16.51-93.95-27.12-73.01-28.42-145.54-61.85-206.79-111.53 5.89-7.37 20.36-1.54 27.88-7.64 10.51-3.55 21.88-5.94 32.91-7.89 27.39 0.6 53.21-8.36 80.53-9.91 101.09-10.21 202.48-17.82 304.16-17.94m-245.12 17.36c-54.4 0.97-109.71 8.39-162.31 18.35-5.52 0.65-10.62 3.07-16.05 4.12-5.1 0.09-20.2-0.38-13.85 6.74 67.14 50.21 146.09 83.83 226.56 103.57 36.19 7.76 73.06 12.09 109.48 18.35 5.93-2.1 16.6 3.64 18.98-4.63 17.04-21.15 49.7-14.23 67.3 2.42 13.52-2.68 29.27 4.35 41.4-3.81 33.9-1.01 65.88-12.78 98.54-20.4 38.74-6.5 75.38-22.72 112.62-35.35 37.68-15.83 73.81-35.43 105.86-60.57 2.68-8.93-7.48-3.36-11.25-5.11-9.15-2.32-19.22-0.69-27.52-5.42-32-8.35-65.61-10.18-98.07-13.6-58.44-0.82-115.74-14.4-174.63-9.58-29.84-6.68-61.07-2.87-91.17-5.06-61.31 5.22-124.69 0.22-185.89 9.98z" fill="#3a7271"/>
  <path d="m293.35 119.67c61.2-9.76 124.58-4.76 185.89-9.98 30.1 2.19 61.33-1.62 91.17 5.06 58.89-4.82 116.19 8.76 174.63 9.58 32.46 3.42 66.07 5.25 98.07 13.6 8.3 4.73 18.37 3.1 27.52 5.42 3.77 1.75 13.93-3.82 11.25 5.11-32.05 25.14-68.18 44.74-105.86 60.57-37.24 12.63-73.88 28.85-112.62 35.35-32.66 7.62-64.64 19.39-98.54 20.4-12.13 8.16-27.88 1.13-41.4 3.81-17.6-16.65-50.26-23.57-67.3-2.42-2.38 8.27-13.05 2.53-18.98 4.63-36.42-6.26-73.29-10.59-109.48-18.35-80.47-19.74-159.42-53.36-226.56-103.57-6.35-7.12 8.75-6.65 13.85-6.74-2.07 1.1-13.39 0.73-8.72 5.51 73.19 55.38 164.06 82.56 254.92 88.88 6.62-13.51 22.9-13.69 35.74-11.52 9.33 1.55 14.24 14.81 24.75 9.97 30.31-0.58 60.27-8.6 89.23-17.1 40.47-7.9 79.44-22.76 116.97-40 16.61-8.03 29.94-21.21 46-29.97-2.95-8-12.63-2.73-18.78-5.01-47.3-14.52-97.56-10.96-145.71-18.16-27.75-4.45-56.27 0.6-83.86-5.25-23.71 1.3-47.73 1.39-71.31 0.5-21.73 1-44.05 4.15-66.09 1.94-52.48 4.58-104.79 9.11-157.09 16.09 52.6-9.96 107.91-17.38 162.31-18.35z" fill="#3a7877"/>
  <path d="m1357.9 109.09c2.7 0.27 5.4 0.52 8.2 0.81-2.7-0.3-5.6-0.56-8.2-0.81z" fill="#60621e"/>
  <path d="m288.13 121.93c22.04 2.21 44.36-0.94 66.09-1.94 23.58 0.89 47.6 0.8 71.31-0.5 27.59 5.85 56.11 0.8 83.86 5.25 48.15 7.2 98.41 3.64 145.71 18.16 6.15 2.28 15.83-2.99 18.78 5.01-16.06 8.76-29.39 21.94-46 29.97-37.53 17.24-76.5 32.1-116.97 40-28.96 8.5-58.92 16.52-89.23 17.1-10.51 4.84-15.42-8.42-24.75-9.97-12.84-2.17-29.12-1.99-35.74 11.52-90.86-6.32-181.73-33.5-254.92-88.88-4.67-4.78 6.65-4.41 8.72-5.51 5.43-1.05 10.53-3.47 16.05-4.12 52.3-6.98 104.61-11.51 157.09-16.09m-10.3 7.56c-55.67 2.72-111.95 2.71-166.26 14.97-2.32-0.09-1.59 2.46-0.01 3 46.2 33.2 102.22 51.52 158.65 55.23 6.6-11.97 24.36-11.05 31.55-0.49 11.17 3.25 21.39-3.84 32.63-3.76 41.54-8.66 83.71-19.85 119.55-43.51 4.2-2.62 12.1-4.77 11.76-10.39-62.11-10.39-124.85-14.71-187.87-15.05z" fill="#3c7c7c"/>
  <path d="m277.83 129.49c63.02 0.34 125.76 4.66 187.87 15.05 0.34 5.62-7.56 7.77-11.76 10.39-35.84 23.66-78.01 34.85-119.55 43.51-11.24-0.08-21.46 7.01-32.63 3.76-7.19-10.56-24.95-11.48-31.55 0.49-56.43-3.71-112.45-22.03-158.65-55.23-1.58-0.54-2.31-3.09 0.01-3 54.31-12.26 110.59-12.25 166.26-14.97z" fill="#418382"/>
  <path d="m71.41 134.03c3.51-2.68 8.5-0.06 12.5-0.75-4.11 0.88-8.35 0.49-12.5 0.75z" fill="#9c9b47"/>
  <path d="m1510.9 133.19c4.7-0.13 9.4 0.19 14.2 0.78-4.7 0.04-9.5-0.45-14.2-0.78z" fill="#9e9f4b"/>
  <path d="m746.45 370.4c13.53-25.01 45.09-15.2 67.81-12.21-1.8 0.5-7.89 1.65-3.67 3.3 25.78 9.25 38.32 45.06 23.55 67.52-26.07-0.35-52.12 0.08-78.12 1.97-14.55-0.34-18.68-17.89-22.41-29.28-1.71 3.63-0.78 7.74-1.51 11.59-2.5-6.44 0.15-12.86 1.16-19.23 0.25-2.7 0.56-5.33 0.73-8-0.3-2.2 1.69-3.54 3.37-4.47 0.54 12.72-0.97 30.8 12.1 39.2 22.57 2.81 45.49-1.31 68.22 0.18 8.67-0.47 9.84-12.15 8.69-18.81 1.34-19.25-13.14-41.41-33.87-41.4-10.22 1.57-20.75-5.44-30.61-0.9-5.93 2.25-9.75 7.82-15.44 10.54z" fill="#fad01f"/>
  <path d="m761.89 359.86c9.86-4.54 20.39 2.47 30.61 0.9 24.85 4.04 40.83 36.36 27.62 57.82-21.21 1.41-42.64-0.54-63.78 1.72-11.68-0.87-15.69-14.65-18.1-24.2-0.44-4.15 6.83-16.45 0.54-16.38 2.27-3.25 4.04-7.31 7.67-9.32 5.69-2.72 9.51-8.29 15.44-10.54m-5.87 6.15c-1.03 0.29-1.7 0.96-1.99 2-2.29 0.34-3.89 2.2-4.81 4.18-13.12 9.95-8.22 42.82 12.25 38.27 15.41-1.67 31.21 1.18 46.46-1.49 6.96-15.61 1.42-38.24-16.25-43.64-11.13-2.1-26.38-8.22-35.66 0.68z" fill="#fad441"/>
  <path d="m814.26 358.19c22.1 2.12 36.61 25.61 40.47 45.62-0.5 6.11-1.63 12.44-0.05 18.5 1.47 12.29-8.58 21.97-20.63 16.63-7.78 0.32-15.79-1.03-23.4 0.86-9.21 0.33-18.42 0.15-27.61 0.16-10 0.01-19.99 0-29.97 0.06-13.9 0.8-17.09-16.41-20.97-26.73 0.73-3.85-0.2-7.96 1.51-11.59 3.73 11.39 7.86 28.94 22.41 29.28 26-1.89 52.05-2.32 78.12-1.97 14.77-22.46 2.23-58.27-23.55-67.52-4.22-1.65 1.87-2.8 3.67-3.3z" fill="#f9c908"/>
  <path d="m792.5 360.76c20.73-0.01 35.21 22.15 33.87 41.4 1.15 6.66-0.02 18.34-8.69 18.81-22.73-1.49-45.65 2.63-68.22-0.18-13.07-8.4-11.56-26.48-12.1-39.2-0.52-0.77-0.04-1.39 1.42-1.87 6.29-0.07-0.98 12.23-0.54 16.38 2.41 9.55 6.42 23.33 18.1 24.2 21.14-2.26 42.57-0.31 63.78-1.72 13.21-21.46-2.77-53.78-27.62-57.82z" fill="#fbd330"/>
  <path d="m756.02 366.01c9.28-8.9 24.53-2.78 35.66-0.68 17.67 5.4 23.21 28.03 16.25 43.64-15.25 2.67-31.05-0.18-46.46 1.49-20.47 4.55-25.37-28.32-12.25-38.27-5.87 9.69-7.25 30.24 8.98 29.51 11.86-0.88 24.69-0.25 36.09-2.37 13.72-22.91-17.76-44.59-38.27-33.32z" fill="#fadc5f"/>
  <path d="m756.02 366.01c20.51-11.27 51.99 10.41 38.27 33.32-11.4 2.12-24.23 1.49-36.09 2.37-16.23 0.73-14.85-19.82-8.98-29.51 0.92-1.98 2.52-3.84 4.81-4.18-0.45 0.89-0.89 1.78-1.32 2.68-0.21 0.32-0.61 0.96-0.81 1.28-6.39 6.78-7.14 20.21 0.4 26.13 12 2.65 24.55-0.44 36.81 0.51 7.11-0.45 5.59-9.45 5.69-14.26-3.78-17.47-26-22.93-40.77-16.34 0.29-1.04 0.96-1.71 1.99-2z" fill="#f9df70"/>
  <path d="m754.03 368.01c14.77-6.59 36.99-1.13 40.77 16.34-0.1 4.81 1.42 13.81-5.69 14.26-12.26-0.95-24.81 2.14-36.81-0.51-7.54-5.92-6.79-19.35-0.4-26.13-1 5.72-5.37 15.88 2.66 17.58 8.25 0.88 18.88 3.32 25.91-1.48 5.35-16.62-15.05-25.63-27.76-17.38 0.43-0.9 0.87-1.79 1.32-2.68z" fill="#f9e282"/>
  <path d="m752.71 370.69c12.71-8.25 33.11 0.76 27.76 17.38-7.03 4.8-17.66 2.36-25.91 1.48-8.03-1.7-3.66-11.86-2.66-17.58 0.2-0.32 0.6-0.96 0.81-1.28z" fill="#f9e7a1"/>
  <path d="m733.26 394.06c0.24-2.47-1.5-6.68 0.73-8-0.17 2.67-0.48 5.3-0.73 8z" fill="#554602"/>
  <path d="m854.68 422.31c-1.58-6.06-0.45-12.39 0.05-18.5 0.27 6.15 0.51 12.34-0.05 18.5z" fill="#927a18"/>
  <path d="m810.65 439.8c7.61-1.89 15.62-0.54 23.4-0.86-5.81 2.36-15.89 0.84-23.4 0.86z" fill="#a78e25"/>
  <path d="m753.07 440.02c9.98-0.06 19.97-0.05 29.97-0.06l-0.08 1c-9.44-1.76-22.24 2.93-29.89-0.94z" fill="#e0bc2d"/>
  <path d="m783.04 439.96c9.19-0.01 18.4 0.17 27.61-0.16-6.48 2.49-18.86 0.88-27.69 1.16l0.08-1z" fill="#644a00"/>
  <path d="m696.04 470.98c26.43-9.34 52.93-20.96 81.27-21.12 4.75 1.16 9.74 1.32 14.63 1.1 4.33 0 8.71-0.02 13.08 0.01 5.58 1.1 11.3 1.06 17 1.04 6.92 1.53 14.02 0.8 21.05 0.7 19.29 7 40.01 11.4 57.43 22.81 9.03 5.03 21.52 1.81 28.87 10.2 17.3 15.08 35.16 29.48 53 43.91 18.73 12.17 27.13 33.68 40.03 51.03 13.4 18.57 18.9 41.11 28.2 61.72 1.9 21.49 8.6 43.29 9.7 65.31-0.1 2.99-0.1 6.1-0.1 9.14 1 9.02-2.6 21.45 0.8 29.12l1 0.26c0 3.85 0 7.71 0.2 11.59-0.1 3 0.1 6.14 0 9.2-2.4 11.59-7.2 22.6-8.7 34.43-4.9 25.76-24 44.85-38.5 65.59-11.8 17.69-30.92 28.37-45.25 43.73-19.32 20.02-45.22 31.15-68.62 45.38-2.22 0.8-4.4 1.69-6.47 2.82-8.05 3.37-14.91 9.82-24.23 9.34-13.09 5.6-23.71 16.79-38.51 18.64-34.23 5.93-62.22 27.37-92.97 42.07-26.17 10-42.24 34.4-63.17 51.8-15.02 27-28.19 55.3-42.05 83 3.7 43.8 6.78 91.4 35.05 127.4 14.56 26.1 39.41 45.4 67.17 55.8 3.01 1.5 6.02 3.1 9.28 4.1 2.51 0.2 5.18 0.5 7.76 0.7 19.28 2.6-9.09 14.3-16.14 9.4-25.59-2.1-41.26-23.7-61.97-36.2-10.27-12-29.55-15.8-32.89-33-24.78-36.5-25.98-83.3-20.83-126 0.38-4.3 0.53-8.5 0.64-12.8 1.33-5.1 5.48-9.1 6.45-14.3 0.64-3.1 1.52-6.2-0.12-9 7.15-20.5 23.54-38.2 33.96-57.8 20.78-17.1 36.14-41.5 62.93-50.1 46.6-33.42 101.7-51.82 155.39-70.6 39.1-21.5 72.94-51.22 104.59-82.4 11.88-17.15 31.8-29.59 35.7-51.28 6.2-21.92 20.4-42.07 19.4-65.49 0.3-3.14 0.9-6.14 0.9-9.25 0.5-3.41 1-6.75 0.9-10.19 0.1-6.19 0.2-12.36-0.1-18.52-0.2-2.89 0-5.67-0.5-8.47-4.9-21.5-7.4-43.58-13.3-64.79-14.6-24.59-23.6-52.56-42.71-74.3-7.82-10.11-12.83-23.02-24.24-29.77-17.33-12.16-30.32-30.96-50.82-38.16-25.24-10.01-48.71-24.82-75.44-30.69-3.77-0.56-8.19-2.52-11.7-0.19-4.17 0.13-8.28 0.42-12.39 0.8-5.51 0.21-11 0.38-16.48 0.55-7.09-0.16-14.28-0.84-21.25 0.77-8.63 0.05-17.31-0.62-25.85 0.75-25.69 12.73-57 14.49-78.39 34.9-6.87 5.94-17.75 3.18-23.93 10.16-15.25 18.34-33.11 34.31-48.55 52.47-4.61 9.55-7.68 19.83-12.76 29.18-8.8 14.32-6.37 32.07-11.64 47.61-1.27 5.26-1.08 10.71-0.16 16.02 2.23 16.23 3.35 32.6 5.48 48.85 0.17 3.72 0.36 7.45 0.57 11.2 14.48 33.63 24.82 71.14 51.14 98.01 16.57 9.6 32.98 19.52 49.02 29.98 33.64 11.31 68.08 20.18 103.58 23.08 11.08 8.57 25.09 2.4 37.58 0.78 28.06-2.79 51.02-20.32 76.75-30.14 13.01-10.37 22.36-25.08 34.17-36.92 11.98-29.75 22.33-60.67 22.76-93.21 0.85-3.19 1.55-6.38 1.03-9.65-6.47-39.84-6.51-85.89-38.91-114.96-14.71-21.36-39.11-31.97-59.93-46.19-21.78-7.18-45.04-9.02-67.39-14.19-31.34 0.3-60.33 13.11-89.37 23.28-10.71 8.19-21.95 16.38-28.65 28.44-12.9 14.65-9.46 36.21-20.74 51.73-1.19 5.84-0.8 11.84-0.62 17.77 0.49 6.69-1.7 15.13 0.9 20.9l0.88 0.41c0.06 4.11 0.09 8.26 0.25 12.4-0.03 3.06-0.87 6.54 0.82 9.37 0.14 4.66-0.71 9.55 0.65 14.13 7.28 17.24 9.7 37.58 24.87 50.31 17.93 25.47 49.82 34.48 75.73 49.63 19.09 1.33 38.84 1.58 57.81 0.31 0.29-0.36 0.88-1.08 1.18-1.44 8.9-0.89 15.74-7.86 24.62-9.06 23.94-1.8 34.98-37.65 61.5-23.92-17.51 22.76-42.49 42.43-71.33 47.98-14.05 3.4-28.01 11.18-42.88 7.93-3.18-0.38-6.22-0.66-9.36-0.82-1.9-0.14-3.8-0.19-5.69-0.26-3.65-0.17-7.28-0.36-10.89-0.59-4.38-1.23-8-4.36-12.45-5.33-3.19-0.55-6.32-0.73-9.51-0.94-17.51-8.03-34.25-18.34-50.55-28.65-19.07-28.03-48.47-51.39-51.96-87.17 0.39-21.68 0.26-43.36 0.24-65.04-0.25-3.8-0.52-7.58-0.81-11.35 5.66-57.15 57.26-98.52 110.56-112.16 4.66-0.42 9.98 1.91 14.32-0.65 3.72-0.36 7.46-0.62 11.22-0.76 3.44-0.16 6.99-0.11 10.45-0.43 3.14 0.09 6.45 0.35 9.56-0.5 19.75-3.72 38.52 6.73 57.69 9.81 25.91 1.88 44.17 23.04 65.65 35.26 12.57 14.65 31.96 25.13 37.21 44.78 6.44 13.62 11.61 27.82 17.48 41.67 2.27 21.49 6.58 42.72 9.54 64.12-3.16 20.55-6.99 41.08-9.93 61.63-16.21 29.36-30.38 60.64-56.83 82.56-24.05 16.65-49.37 36.15-79.89 37.19-2.66-0.11-5.31-0.16-7.92-0.16-12.87-0.22-25.72-0.26-38.57 0-2.64 0.04-5.26 0.07-7.85 0.11-42.37-8.74-83.68-23.27-123.05-41.03-20.63-19.97-48.17-34.33-60.74-61.28-16.55-23.35-26.85-50.82-32.38-78.63-0.02-3.45 1.18-7.14-0.7-10.29 0.13-3.49 0.29-6.93-0.77-10.27-4.98-57.3 9.35-118.03 44.12-164.38 23.4-19.88 49.33-37.42 78.62-47.14l0.71-0.33c5.27-1.56 10.54-3.2 15.36-5.91z" fill="#f7c807"/>
  <path d="m777.31 449.86c4.86 0.38 9.72 0.05 14.62 0.12l0.01 0.98c-4.89 0.22-9.88 0.06-14.63-1.1z" fill="#e8c744"/>
  <path d="m791.93 449.98c4.37-0.07 8.72 0.4 13.09 0.99-4.37-0.03-8.75-0.01-13.08-0.01l-0.01-0.98z" fill="#665004"/>
  <path d="m805.02 450.97c5.67-0.06 11.37 0.02 17 1.04-5.7 0.02-11.42 0.06-17-1.04z" fill="#b99913"/>
  <path d="m822.02 452.01c7.01-0.08 14.06-0.2 21.05 0.7-7.03 0.1-14.13 0.83-21.05-0.7z" fill="#e5c53f"/>
  <path d="m641.44 481.39c15.83-6.07 31.36-13.11 47.46-18.53-1.58 4-20.06 16.95-8.93 14.36-29.29 9.72-55.22 27.26-78.62 47.14-34.77 46.35-49.1 107.08-44.12 164.38-0.04 3.37-1.07 7.15 0.77 10.27-0.14 3.41-0.17 6.94 0.7 10.29 5.53 27.81 15.83 55.28 32.38 78.63 12.57 26.95 40.11 41.31 60.74 61.28 39.37 17.76 80.68 32.29 123.05 41.03 2.7 0.23 5.55 0.67 8.33 0.75 12.52 0.11 25.06 0 37.61-0.01 2.75-0.09 5.67 0.09 8.4-0.69 30.52-1.04 55.84-20.54 79.89-37.19 26.45-21.92 40.62-53.2 56.83-82.56 2.94-20.55 6.77-41.08 9.93-61.63-2.96-21.4-7.27-42.63-9.54-64.12-5.87-13.85-11.04-28.05-17.48-41.67-5.25-19.65-24.64-30.13-37.21-44.78-21.48-12.22-39.74-33.38-65.65-35.26-19.17-3.08-37.94-13.53-57.69-9.81-3.27-0.19-6.43-0.4-9.56 0.5-3.46 0.32-7.01 0.27-10.45 0.43-3.76 0.19-7.5 0.44-11.22 0.76-4.79-0.04-9.63-0.4-14.32 0.65-53.3 13.64-104.9 55.01-110.56 112.16-0.09 3.67-0.18 7.42-0.15 11.11-0.07 5.29 0.06 10.62-0.21 15.92-0.88 12.76-1.9 25.81-0.15 38.53 0.35 3.59 0.71 7.21 1.08 10.83 3.49 35.78 32.89 59.14 51.96 87.17 16.3 10.31 33.04 20.62 50.55 28.65 3.1 0.53 6.33 0.89 9.51 0.94 4.45 0.97 8.07 4.1 12.45 5.33 3.61 0.24 7.24 0.43 10.89 0.59 1.89 0.07 3.79 0.12 5.69 0.26 3.06 0.21 6.25 0.59 9.36 0.82 14.87 3.25 28.83-4.53 42.88-7.93 28.84-5.55 53.82-25.22 71.33-47.98 4.25-15.38 12.54-29.74 13.77-45.88 0.39-3.46 0.81-6.84 0.7-10.3 3.98-23.56 0.01-46.92-4.46-70.12-8.76-23.06-26.51-40.64-45.33-55.82-15.9-7.12-32.62-12.54-48.43-19.96-2.9-1.11-5.92-1.67-8.67-0.11-20.57 2.84-42.04 1.73-61.76 9.03-12.05 9.8-24.85 18.73-36.94 28.44-5.48 12.68-14.57 25.13-14.14 39.47-0.03 3.43 0.07 6.96 0.04 10.43-3.19 31.96 12.53 61.89 36.25 82.39 11.05 12.41 28.62 14.84 42.64 22.67 12.57 0.74 25.61 1.98 38.08 0.07 9.42-5.21 19.5-9.65 28.18-16.04 8.01-13.42 8.31-29.8 12.76-44.52 0.28-2.48 2.37-5.71-0.08-7.63 0.43-27-17.72-53.66-45.03-58.38-2.56-0.15-6.12-2.32-7.81 0.47-7.4-0.08-14.9-0.93-22.21 0.36-5.46 2.7-10.18 7.07-14.1 11.63-0.41 2.92-0.58 5.97-0.76 8.94-0.09 1.25-0.17 2.5-0.25 3.76-0.05 2.55-2.11 5.75-0.04 7.92 4.94 6.47 7.98 14.42 13.27 20.54 8.16 0.31 18.43 5.59 24.4-2.52 1.22-4.2-0.87-5.21-4.17-5.02-9.92-3.75-22.22-10.81-19.47-22.92 3.24-9.67 21.18-26.07 28.86-12.42 20.65 8.02 34.63 27.53 36.15 49.54-0.8 4.93-0.7 9.94 0.01 14.89-2.34 10.45-9.93 18.86-14.35 28.54-10.98 5.77-23.64 7.53-35.51 10.7-2.68 0.04-5.33 0.06-7.96 0.05-42.22-5-70.68-45.91-76.62-85.76 3.31-13.51 6.35-27.09 8.92-40.76 8.37-17.55 26.02-27.12 40.36-39.11 31.45-6.5 67.02-3.42 93.55 16.2 19.79 18.7 45.13 38.08 48.06 67.01-0.29 3.41-0.6 6.99 0.42 10.34 1.98 7.69 4.31 15.3 6.47 22.95 0.04 2.61 0.06 5.24 0.06 7.89-0.67 5.35-1.91 10.62-2.34 16.01-0.35 2.95-0.5 6.03-0.76 9.04-14.57 25.44-35.7 49.71-63.26 61.91-8.88 1.2-15.72 8.17-24.62 9.06-16.83 0.97-34.02-1.67-50.66 0.83-2.84 0.08-5.55 0.37-8.33 0.3-25.91-15.15-57.8-24.16-75.73-49.63-15.17-12.73-17.59-33.07-24.87-50.31-0.55-4.64 1.9-9.88-0.65-14.13-0.03-3.2 0.16-6.33-0.82-9.37-0.16-4.14-0.19-8.29-0.25-12.4 0.32-7.25 0.08-14.5-0.86-21.68-0.12-5.82-0.35-11.61-0.3-17.4 11.28-15.52 7.84-37.08 20.74-51.73 6.7-12.06 17.94-20.25 28.65-28.44 29.04-10.17 58.03-22.98 89.37-23.28 22.35 5.17 45.61 7.01 67.39 14.19 20.82 14.22 45.22 24.83 59.93 46.19 32.4 29.07 32.44 75.12 38.91 114.96-0.37 3.18-0.54 6.46-1.03 9.65-0.43 32.54-10.78 63.46-22.76 93.21-11.81 11.84-21.16 26.55-34.17 36.92-25.73 9.82-48.69 27.35-76.75 30.14-12.49 1.62-26.5 7.79-37.58-0.78-35.5-2.9-69.94-11.77-103.58-23.08-16.04-10.46-32.45-20.38-49.02-29.98-26.32-26.87-36.66-64.38-51.14-98.01-0.18-3.75-0.37-7.48-0.57-11.2-2.13-16.25-3.25-32.62-5.48-48.85 0.04-5.37 0.17-10.68 0.16-16.02 5.27-15.54 2.84-33.29 11.64-47.61 5.08-9.35 8.15-19.63 12.76-29.18 15.44-18.16 33.3-34.13 48.55-52.47 6.18-6.98 17.06-4.22 23.93-10.16 21.39-20.41 52.7-22.17 78.39-34.9 8.61-0.02 17.32 1.01 25.85-0.75 7.08 0.18 14.17-0.14 21.25-0.77 5.48-0.17 10.97-0.34 16.48-0.55 4.32-0.55 9.37 1.81 13.35-0.74 3.53-0.02 7.17-0.03 10.74 0.13 26.73 5.87 50.2 20.68 75.44 30.69 20.5 7.2 33.49 26 50.82 38.16 11.41 6.75 16.42 19.66 24.24 29.77 19.11 21.74 28.11 49.71 42.71 74.3 5.9 21.21 8.4 43.29 13.3 64.79 0 2.76 0.1 5.67 0.5 8.47 0.3 6.16 0.2 12.33 0.1 18.52-0.4 3.03-0.9 6.16-0.9 9.26-0.6 3.32-1 6.77-0.9 10.18 1 23.42-13.2 43.57-19.4 65.49-3.9 21.69-23.82 34.13-35.7 51.28-31.65 31.18-65.49 60.9-104.59 82.4-53.69 18.78-108.79 37.18-155.39 70.6-26.79 8.6-42.15 33-62.93 50.1-10.42 19.6-26.81 37.3-33.96 57.8-0.03 2.9 0.15 6 0.12 9-0.97 5.2-5.12 9.2-6.45 14.3-0.63 4.2-0.59 8.5-0.64 12.8-5.15 42.7-3.95 89.5 20.83 126 3.34 17.2 22.62 21 32.89 33-3.81 2.4-7.26 5.4-9.95 9-37.86-26.8-56.29-73.2-56.24-118.8-0.13-2.9-0.01-5.6-0.39-8.4-0.66-5.5-1.19-11.1-1.53-16.6-0.07-3.2-0.03-6.1 0.04-9.2 4.23-31.1 12.84-59.7 25.68-88.5 16.41-18.5 32.08-37.9 49.54-55.5 29.64-18.9 56.48-42.75 89.84-55.13 32.46-20.71 72.63-21.13 105.1-41.89 25.41-7.77 41.43-29.86 62.89-44.12 28.71-15.13 42.15-46.47 63.34-69.6 18-29.96 34.2-64.61 28.7-100.16-1.6-89.87-53.53-176.41-131.07-220.92-15.4-6.48-30.67-13.25-45.85-20.19-36.23-9.89-73.84-7.27-110.81-2.68-2.8 0.03-5.5-0.2-8.2 0.38-43.69 21.29-94.02 37.9-122.34 79.93-14.95 12.56-16.1 33.08-24.34 49.63-6.07 10.95-5.15 23.64-6.44 35.65-1.14 7.71-0.95 15.51-0.72 23.29 2.3 51.26 21.99 101.71 53.74 141.93 25.32 17.16 51.57 34.71 82.11 41.12 3.68 0.19 7.37 0.38 11.08 0.55 14.73 2.42 29.3 6.04 44.1 8.14 5.48 0.56 11.19-3.93 16.15 0.04 9.45 2.01 19.19 0.91 28.8 0.89 12.74 0.22 23.29-7.99 35.06-11.67 14.8-7.03 31.93-10.16 43.98-22.04 11.94-8.02 16.01-22.59 24.3-33.67 17.94-23.75 18.35-54.47 21.17-82.88 5.84-28.37-6.99-55.77-10.36-83.76-20.62-40.3-57.88-71.85-101.36-84.97-3.67-0.32-7.33-0.56-10.97-0.73-22.16-2.4-44.63-5-66.85-2.16-17.63 6.75-35.53 12.85-52.98 20.03-26.6 17.32-36.85 50.94-39.75 81.31-5.27 25.67-3.8 52.2 7.05 76.27 3.74 28.09 33.2 39.41 49.4 59.62 19.43 11.89 42.41 17.85 65.02 19.69 34-4.8 71.84-14.91 90.12-46.95 18.91-17.78 28.33-47.07 13.42-70.28-2.42-57.92-65.92-98.07-120.54-89.92-19.56 12.81-42.24 24.3-47.6 49.17-0.33 10.37-0.44 20.77-0.04 31.15 3.13 21.71 17.27 40.98 34.79 53.85 19.09 23.68 59.66 14.1 73.87-10.13 0.3-8.28 0.22-16.56 0.05-24.83-1.15-9.47-7.66-17.73-11.62-26.22-9.13-4.54-24.95-18.48-30.17-2.48 2.31 8.36 14.07 12.4 22.23 11.38 9.52 12.91-3.11 33.6-19.09 26.24-2.89-0.32-5.64-0.5-8.48-0.7-12.73 3.31-16.15-9.57-23.37-16.61-13.05-18.48-7.11-45.63 12.77-56.52 20.2-6.37 40.93-0.58 59.95 6.85 39.1 25.47 36.77 81.09 17.59 118.71-14.69 7.09-26.43 23.7-44.37 20.53-12.7-1.06-27.07 5.73-38.47-2.12-18.72-10.51-44.43-13.03-54.01-34.86-14.44-14.24-19.92-34.17-27.48-52.36 1.73-17.14 1.48-34.41 2.68-51.59 4.6-31.39 31.81-49.22 56.94-64.34 22.61-2.89 45.11-12.39 67.98-5.78 2.99 0.28 6.12 0.63 9.17 0.75 26.33 7.77 55.45 17.92 71.71 42.31 25.93 20.86 31.48 56.19 33.72 87.52-4.95 21.21 0.34 45.08-11.56 64.37-7.7 13.78-9.28 32.2-24.82 40.18-39.78 39.45-101.79 48.45-154.01 32.63-18.65-10.33-38.04-19.45-55.91-31.11-17.53-23.21-35.7-46.29-51.08-71.05-2.88-27.64-12.29-55.38-5.65-83.26 1.28-32.83 11.12-68.03 36.26-90.62 31.4-30.19 74.61-52.39 118.99-46.62 9.77 1.25 19.62 0.91 29.44 0.62 13.6 0.47 28.27-1.35 40.77 5.24 25.74 9.67 53.18 18.78 72.24 39.72 9.51 10.86 27.17 17.07 29.61 32.16 27.73 37.35 31.01 86.36 36.96 131.25-1.26 21.09-8.36 41.3-11.34 62.16-19.6 39.22-42.25 80.28-82.32 101.82-20.72 18.36-49.36 16.96-74.95 22.12-4.77-0.05-9.48 0.05-14.21-0.11-7.92-0.86-15.82-2.02-23.78-2.4-3.83-0.22-7.65-0.4-11.45-0.55-30.09-1.59-56.68-18.99-85.63-26.36-20.63-3.96-35-22.7-54.43-27.65-20.83-15.72-36.19-37.37-49.59-59.33-10.33-29.12-29.2-56.68-27.97-88.61 0.8-6.14 0.92-12.3 0.71-18.46-1.93-46.89 3.55-94.59 27.05-135.94 11.58-28.81 42.62-40.99 64.54-60.48z" fill="#080602"/>
  <path d="m823.09 467.9c3.51-2.33 7.93-0.37 11.7 0.19-3.57-0.16-7.21-0.15-10.74-0.13l-0.96-0.06z" fill="#d0b236"/>
  <path d="m810.7 468.7c4.11-0.38 8.22-0.67 12.39-0.8l0.96 0.06c-3.98 2.55-9.03 0.19-13.35 0.74z" fill="#876a00"/>
  <path d="m772.97 470.02c6.97-1.61 14.16-0.93 21.25-0.77-7.08 0.63-14.17 0.95-21.25 0.77z" fill="#ba9f30"/>
  <path d="m747.12 470.77c8.54-1.37 17.22-0.7 25.85-0.75-8.53 1.76-17.24 0.73-25.85 0.75z" fill="#755900"/>
  <path d="m680.68 476.89c4.04-4.07 10.07-4.58 15.36-5.91-4.82 2.71-10.09 4.35-15.36 5.91z" fill="#2a1d00"/>
  <path d="m735.97 482.69c2.7-0.58 5.4-0.35 8.2-0.38-2.72 0.26-5.53 0.2-8.2 0.38z" fill="#636550"/>
  <path d="m775.79 506.19c9.81-0.3 19.66-0.64 29.44 0.62-9.82 0.29-19.67 0.63-29.44-0.62z" fill="#47472e"/>
  <path d="m778.73 513.77c3.13-0.9 6.29-0.69 9.56-0.5-3.11 0.85-6.42 0.59-9.56 0.5z" fill="#a48709"/>
  <path d="m757.06 514.96c3.72-0.32 7.46-0.57 11.22-0.76-3.76 0.14-7.5 0.4-11.22 0.76z" fill="#635003"/>
  <path d="m742.74 515.61c4.69-1.05 9.53-0.69 14.32-0.65-4.34 2.56-9.66 0.23-14.32 0.65z" fill="#b79812"/>
  <path d="m819.93 544.14c3.64 0.17 7.3 0.41 10.97 0.73-3.67-0.29-7.33-0.53-10.97-0.73z" fill="#52513c"/>
  <path d="m808.97 561.09c3.07 0.26 6.05 0.45 9.17 0.75-3.05-0.12-6.18-0.47-9.17-0.75z" fill="#525040"/>
  <path d="m804.95 569.82c2.75-1.56 5.77-1 8.67 0.11-2.96-0.14-5.77-0.13-8.67-0.11z" fill="#614700"/>
  <path d="m743.19 578.85c19.72-7.3 41.19-6.19 61.76-9.03 2.9-0.02 5.71-0.03 8.67 0.11 15.81 7.42 32.53 12.84 48.43 19.96 18.82 15.18 36.57 32.76 45.33 55.82 4.47 23.2 8.44 46.56 4.46 70.12-0.42 3.38-0.7 6.86-0.7 10.3-1.23 16.14-9.52 30.5-13.77 45.88-26.52-13.73-37.56 22.12-61.5 23.92 27.56-12.2 48.69-36.47 63.26-61.91 0.26-3.07 0.58-6.01 0.76-9.04 0.43-5.39 1.67-10.66 2.34-16.01-0.03-2.63 2.03-5.71-0.06-7.89-2.16-7.65-4.49-15.26-6.47-22.95 0.25-3.5 0.52-6.95-0.42-10.34-2.93-28.93-28.27-48.31-48.06-67.01-26.53-19.62-62.1-22.7-93.55-16.2-14.34 11.99-31.99 21.56-40.36 39.11-2.57 13.67-5.61 27.25-8.92 40.76 5.94 39.85 34.4 80.76 76.62 85.76 2.56 0.15 5.68 1.92 7.96-0.05 11.87-3.17 24.53-4.93 35.51-10.7 4.42-9.68 12.01-18.09 14.35-28.54 0.08-4.99 0.22-9.93-0.01-14.89-1.52-22.01-15.5-41.52-36.15-49.54-7.68-13.65-25.62 2.75-28.86 12.42-2.75 12.11 9.55 19.17 19.47 22.92 2.21 0.9 3.98 2.52 4.17 5.02-5.97 8.11-16.24 2.83-24.4 2.52-5.29-6.12-8.33-14.07-13.27-20.54-0.05-2.66-0.04-5.3 0.04-7.92 0.08-1.26 0.16-2.51 0.25-3.76 0.19-3.03 0.48-5.95 0.76-8.94 3.92-4.56 8.64-8.93 14.1-11.63 7.39 0.23 14.87 1.13 22.21-0.36 2.58-0.24 5.18-0.4 7.81-0.47 27.31 4.72 45.46 31.38 45.03 58.38 0.05 2.52 0.08 5.07 0.08 7.63-4.45 14.72-4.75 31.1-12.76 44.52-8.68 6.39-18.76 10.83-28.18 16.04-12.7-0.51-25.4-0.36-38.08-0.07-14.02-7.83-31.59-10.26-42.64-22.67-23.72-20.5-39.44-50.43-36.25-82.39 0.74-3.49 0.73-6.97-0.04-10.43-0.43-14.34 8.66-26.79 14.14-39.47 12.09-9.71 24.89-18.64 36.94-28.44z" fill="#f5c709"/>
  <path d="m632.18 627.77c0.29 3.77 0.56 7.55 0.81 11.35l-0.96-0.24c-0.03-3.69 0.06-7.44 0.15-11.11z" fill="#6d4f00"/>
  <path d="m648.16 648.97c-0.18-5.93-0.57-11.93 0.62-17.77-0.05 5.79 0.18 11.58 0.3 17.4l-0.92 0.37z" fill="#92791a"/>
  <path d="m797.14 636.22c1.69-2.79 5.25-0.62 7.81-0.47-2.63 0.07-5.23 0.23-7.81 0.47z" fill="#705700"/>
  <path d="m774.93 636.58c7.31-1.29 14.81-0.44 22.21-0.36-7.34 1.49-14.82 0.59-22.21 0.36z" fill="#ba9f31"/>
  <path d="m632.03 638.88l0.96 0.24c0.02 21.68 0.15 43.36-0.24 65.04-0.37-3.62-0.73-7.24-1.08-10.83 0.56-12.84 0.33-25.69 0.15-38.53 0.27-5.3 0.14-10.63 0.21-15.92z" fill="#efc626"/>
  <path d="m717.22 640.92c1.42 10.33 1.07 20.8-0.04 31.15-0.4-10.38-0.29-20.78 0.04-31.15z" fill="#4d4c3a"/>
  <path d="m571.69 661.11c-0.92-5.31-1.11-10.76 0.16-16.02 0.01 5.34-0.12 10.65-0.16 16.02z" fill="#cba71b"/>
  <path d="m692.11 646.76c0.77 3.46 0.78 6.94 0.04 10.43 0.03-3.47-0.07-7-0.04-10.43z" fill="#533b00"/>
  <path d="m582.13 671.19c-0.23-7.78-0.42-15.58 0.72-23.29 0.14 7.77 0.46 15.56-0.72 23.29z" fill="#4c4c31"/>
  <path d="m760.07 657.15c0.18-2.97 0.35-6.02 0.76-8.94-0.28 2.99-0.57 5.91-0.76 8.94z" fill="#725700"/>
  <path d="m648.16 648.97l0.92-0.37c0.06 7.07-0.22 14.18-0.02 21.27-2.6-5.77-0.41-14.21-0.9-20.9z" fill="#ecc937"/>
  <path d="m649.08 648.6c0.94 7.18 1.18 14.43 0.86 21.68l-0.88-0.41c-0.2-7.09 0.08-14.2 0.02-21.27z" fill="#493300"/>
  <path d="m1065.4 651.95c0.6 4.04 0.2 8.15 0.3 12.24-0.4-4.08-0.3-8.18-0.3-12.24z" fill="#494836"/>
  <path d="m631.67 693.33c-1.75-12.72-0.73-25.77 0.15-38.53 0.18 12.84 0.41 25.69-0.15 38.53z" fill="#9e851f"/>
  <path d="m759.78 668.83c-2.07-2.17-0.01-5.37 0.04-7.92-0.08 2.62-0.09 5.26-0.04 7.92z" fill="#a48b27"/>
  <path d="m895.28 667.79c0.94 3.39 0.67 6.84 0.42 10.34-1.02-3.35-0.71-6.93-0.42-10.34z" fill="#715b05"/>
  <path d="m549.14 696.27c-0.18-6.17-0.17-12.36 0.71-18.46 0.21 6.16 0.09 12.32-0.71 18.46z" fill="#6c6e50"/>
  <path d="m793.28 681.83c3.3-0.19 5.39 0.82 4.17 5.02-0.19-2.5-1.96-4.12-4.17-5.02z" fill="#9b821b"/>
  <path d="m650.19 682.68c0.98 3.04 0.79 6.17 0.82 9.37-1.69-2.83-0.85-6.31-0.82-9.37z" fill="#806b0f"/>
  <path d="m1067.3 683.74c0.8 3.14 0.5 6.32 0.4 9.58-0.7-3.14-0.6-6.43-0.4-9.58z" fill="#595b47"/>
  <path d="m557.23 688.74c1.06 3.34 0.9 6.78 0.77 10.27-1.84-3.12-0.81-6.9-0.77-10.27z" fill="#433100"/>
  <path d="m825.84 715.79c-1.17-8.25-1.23-16.6 0.05-24.83 0.17 8.27 0.25 16.55-0.05 24.83z" fill="#303019"/>
  <path d="m651.01 692.05c2.55 4.25 0.1 9.49 0.65 14.13-1.36-4.58-0.51-9.47-0.65-14.13z" fill="#3f2900"/>
  <path d="m849.98 694.13c2.45 1.92 0.36 5.15 0.08 7.63 0-2.56-0.03-5.11-0.08-7.63z" fill="#a28927"/>
  <path d="m838.83 710.92c-0.71-4.95-0.81-9.96-0.01-14.89 0.23 4.96 0.09 9.9 0.01 14.89z" fill="#644b00"/>
  <path d="m558 699.01c1.88 3.15 0.68 6.84 0.7 10.29-0.87-3.35-0.84-6.88-0.7-10.29z" fill="#987a03"/>
  <path d="m778.76 699.18c2.84 0.2 5.59 0.38 8.48 0.7-2.81-0.28-5.72-0.56-8.48-0.7z" fill="#6f6f51"/>
  <path d="m902.17 701.08c2.09 2.18 0.03 5.26 0.06 7.89 0-2.65-0.02-5.28-0.06-7.89z" fill="#7a5c02"/>
  <path d="m952.74 712.74c0.49-3.19 0.66-6.47 1.03-9.65 0.52 3.27-0.18 6.46-1.03 9.65z" fill="#cab03a"/>
  <path d="m1041.3 705.8c0.5 2.8 0.3 5.58 0.5 8.47-0.4-2.8-0.5-5.71-0.5-8.47z" fill="#967c1e"/>
  <path d="m1060.3 707.69c0.9 2.92 0.7 5.91 0.9 8.97l-1 0.17c0-3.04 0-6.15 0.1-9.14z" fill="#8d7416"/>
  <path d="m577.17 709.96c0.2 3.72 0.39 7.45 0.57 11.2-0.21-3.75-0.4-7.48-0.57-11.2z" fill="#927401"/>
  <path d="m911.14 726.13c0-3.44 0.28-6.92 0.7-10.3 0.11 3.46-0.31 6.84-0.7 10.3z" fill="#8a6d00"/>
  <path d="m1060.2 716.83l1-0.17c-0.2 9.76-0.3 19.52-0.2 29.29-3.4-7.67 0.2-20.1-0.8-29.12z" fill="#ecc836"/>
  <path d="m1061.2 716.66c2.3 9.61 0.2 19.75 0.8 29.55l-1-0.26c-0.1-9.77 0-19.53 0.2-29.29z" fill="#493300"/>
  <path d="m899.13 734.02c0.26-3.01 0.41-6.09 0.76-9.04-0.18 3.03-0.5 5.97-0.76 9.04z" fill="#91791a"/>
  <path d="m1041 742.05c0-3.1 0.5-6.23 0.9-9.26 0.1 3.44-0.4 6.78-0.9 10.19v-0.93z" fill="#917a17"/>
  <path d="m1070.2 755.24c-0.2-4.82 0-9.68 0.7-14.43 0.1 4.82-0.3 9.61-0.7 14.43z" fill="#2f2f17"/>
  <path d="m1040.1 752.23c-0.1-3.41 0.3-6.86 0.9-10.18v0.93c0 3.11-0.6 6.11-0.9 9.25z" fill="#452e00"/>
  <path d="m781.01 750.21c2.63 0.01 5.28-0.01 7.96-0.05-2.28 1.97-5.4 0.2-7.96 0.05z" fill="#483700"/>
  <path d="m1062.2 757.8c1.7 2.89 0.5 6.11 0 9.2 0.1-3.06-0.1-6.2 0-9.2z" fill="#7e6b15"/>
  <path d="m771.04 762.25c12.68-0.29 25.38-0.44 38.08 0.07-12.47 1.91-25.51 0.67-38.08-0.07z" fill="#d9b526"/>
  <path d="m760.59 805.82c16.64-2.5 33.83 0.14 50.66-0.83-0.3 0.36-0.89 1.08-1.18 1.44-16.49-0.88-32.99-0.13-49.48-0.61z" fill="#412a00"/>
  <path d="m752.26 806.12c2.78 0.07 5.49-0.22 8.33-0.3 16.49 0.48 32.99-0.27 49.48 0.61-18.97 1.27-38.72 1.02-57.81-0.31z" fill="#e2c036"/>
  <path d="m735.26 819.98c3.19 0.21 6.32 0.39 9.51 0.94-3.18-0.05-6.41-0.41-9.51-0.94z" fill="#8b6e02"/>
  <path d="m757.22 826.25c3.61 0.23 7.24 0.42 10.89 0.59-3.65-0.16-7.28-0.35-10.89-0.59z" fill="#584000"/>
  <path d="m773.8 827.1c3.14 0.16 6.18 0.44 9.36 0.82-3.11-0.23-6.3-0.61-9.36-0.82z" fill="#887011"/>
  <path d="m1051.2 841.77c-0.1-3.16 0.1-6.39 0.8-9.47-0.2 3.18-0.4 6.28-0.8 9.47z" fill="#5a5846"/>
  <path d="m717.98 854.24c3.68 0.17 7.37 0.35 11.08 0.55-3.71-0.17-7.4-0.36-11.08-0.55z" fill="#707053"/>
  <path d="m789.31 862.97c9.59 0.24 19.23-0.53 28.8 0.89-9.61 0.02-19.35 1.12-28.8-0.89z" fill="#666551"/>
  <path d="m774.87 890.24c2.59-0.04 5.21-0.07 7.85-0.11l0.48 0.86c-2.78-0.08-5.63-0.52-8.33-0.75z" fill="#533a00"/>
  <path d="m782.72 890.13c12.85-0.26 25.7-0.22 38.57 0l-0.48 0.85c-12.55 0.01-25.09 0.12-37.61 0.01l-0.48-0.86z" fill="#dcb928"/>
  <path d="m821.29 890.13c2.61 0 5.26 0.05 7.92 0.16-2.73 0.78-5.65 0.6-8.4 0.69l0.48-0.85z" fill="#573f00"/>
  <path d="m766.76 898.22c3.8 0.15 7.62 0.33 11.45 0.55-3.83-0.21-7.65-0.39-11.45-0.55z" fill="#646451"/>
  <path d="m801.99 901.17c4.73 0.16 9.44 0.06 14.21 0.11-4.59 1.76-9.53 0.21-14.21-0.11z" fill="#343419"/>
  <path d="m894.66 958.95c2.07-1.13 4.25-2.02 6.47-2.82-1.8 1.57-3.78 4.21-6.47 2.82z" fill="#352600"/>
  <path d="m870.43 968.29c9.32 0.48 16.18-5.97 24.23-9.34-3.48 7.32-17.38 13.75-15.63 19.23-27.5 14-56.33 25.02-85.79 34.02-41.47 22-85.88 44.6-112.78 84.2-15.55 31.3-43.23 60.8-36.65 96.8 4.81 58.3 36.54 118.1 92.25 141.7-8.99 4.8-6.7 8-0.11 12.1-27.76-10.4-52.61-29.7-67.17-55.8-28.27-36-31.35-83.6-35.05-127.4 13.86-27.7 27.03-56 42.05-83 20.93-17.4 37-41.8 63.17-51.8 30.75-14.7 58.74-36.14 92.97-42.07 14.8-1.85 25.42-13.04 38.51-18.64z" fill="#080602"/>
  <path d="m783.25 1062.3c40.21-6.1 78.58 8.4 115.14 23.2 11.43 12.6 24.45 23.7 35.4 36.7 14.48 27.9 22.43 58.5 29.19 89-0.92 22.5-2.52 45.1-5.34 67.3-13.51 20.5-19.09 47.7-39.45 62.5-11.28-7.3-17.57 8.2-27.07 11.1 11.05-11.7 27.51-18.5 33.89-34.1 7.95-17.2 17.96-33.6 24.96-51.2 0.57-3.3 0.97-6.5 0.94-9.8 5.74-24.4 0.05-48.7-5.43-72.5-4.3-28.2-16.8-56.5-39.55-74.4-17.98-25.5-53.51-28.1-81.05-36.1-3.28-0.6-6.49-0.9-9.78-1.1-2.83-0.4-5.49-0.7-8.27-0.9-4.51-0.4-8.96 0-13.38 0.7-23.5 2.1-45.79 11-64.22 25.5-13.43 17.7-26.85 36.6-32.45 58.4-0.73 1.5-1.57 3-2.09 4.6-1.24 14.8-1.09 29.8-0.15 44.6 0.32 0.4 0.97 1 1.29 1.4 4.24 12.2 9.25 24.2 13.46 36.4 9.23 13.8 22.15 24.7 32.71 37.4 13.64 8.9 29.52 14.2 45.86 15.1 26.92 8 49.8-13.5 69.29-29 7.56-11.9 10.76-25.2 11.9-39.1 0.27-2.8 0.7-5.4 0.86-8.1-1.3-11.6-1.74-23.8-5.8-34.7-13.99-13.2-22.6-33.9-43.01-38.5-3.68-0.3-7.35-0.5-11.01-0.6-3.48-0.6-6.87-1.1-10.37-1-17.41-6.3-29.35 9.6-35.92 22.9-1.1 11.9-1.67 24.2-0.14 36 4.96 5.6 8.71 12.1 12.97 18.2 9.33 4.9 26.61 1.1 27.11-11.4-2.5 0-4.99 0.1-7.46 0.4-3.14-0.2-6.12 0-9.18-0.1-15.61-1.9-22.54-23.3-14.83-35.8 0.56-10.7 10.65-15.5 15.76-23.7 9.17 0.5 18.37 0.4 27.58 0.4 7.42 8.3 15.69 16 24.28 23.2 12.79 23.1 10.8 50.8 0.82 74.4-11.9 9.9-18.08 27.6-35.78 28.4-7.89-0.1-15.77 0.2-23.64 0-29.39-9.7-55.48-30.7-64.65-60.9 0.03-3.2 0.44-6.2-0.29-9.3-2.3-11.4-3.07-23.1-4.6-34.7-0.05-2.7-0.02-5.3 0.1-7.9 6.26-15.3 8.16-33.2 23.93-42.4 12.21-18 31.69-25.4 51.37-31.9 14.9 0.1 29.81 0.1 44.72 0 10.94 5.6 22.05 10.9 33.3 15.9 11.5 4.4 17.34 16.2 27.75 22.3 18.01 15.4 21.62 39.7 30.08 60.9 3.85 20.8 5.13 42.2 1.23 63.2-0.6 2.6-0.86 5.4-1.16 8-0.06 1.7-0.18 4.9-0.23 6.5-0.27 2.8-0.43 5.7-0.68 8.5 2.85 17.3-12.17 27.6-21.17 39.8 3.13-4.9-0.07-7.2-5.84-6 10.93-13.1 20.46-29.1 19.98-46.8 0.16-2.8 0.46-5.5 0.74-8.3 8.26-41.3-6.61-82.2-27.62-117.1-15.63-11.4-32.42-21.2-48.37-32.1-16.94-3.5-34.32-2.8-51.51-2.8-30.37 6.1-54.22 30.6-66.22 58.4 1.4 18-5.18 38.7 5.99 54.6 7.08 13.2 11.19 29.5 26.86 35.1 16.91 15.8 42.53 23.2 62.98 10 6.07-8.3 12.67-16.3 18.27-24.8 0.16-14.6-0.63-29.3 0.38-43.8-8.97-9.5-14.69-23.8-27.14-29.1-22.48-8.8-40.95 32.3-15.15 38.3 6.98-6.5 19.04-2 15.85 8.5 8.01 30.9-38.09 32.7-49.44 12.1-6.35-18.7-15.31-38.9-5.69-58.2 6.29-9 7.64-23.3 20.29-25.6 14.76-9.6 32.68 0.4 48.82-0.6 24.38 3 36.16 27.6 48 46.2 7.95 23.1 5.66 47.9 1.46 71.5-6.99 10.7-8.78 25.9-21.7 31.5-17.12 9.7-35.29 26.2-56.43 20.6-16.14-4-35.35 0.6-48.46-11.7-12.12-9.3-29.83-13-34.7-29.2-18.67-22.1-22.03-51.2-30.33-77.9 2.31-18 7.38-35.6 10.43-53.4 10.1-17.4 22.84-33.3 33.84-50.2 18.84-7.8 35.68-22.6 56.97-22.9z" fill="#080602"/>
  <path d="m793.45 1072.7c4.42-0.7 8.87-1.1 13.38-0.7l0.3 0.9c-4.59-0.1-9.13-0.2-13.68-0.2z" fill="#dbbf47"/>
  <path d="m806.83 1072c2.78 0.2 5.44 0.5 8.27 0.9h-7.97l-0.3-0.9z" fill="#594401"/>
  <path d="m729.23 1098.2c18.43-14.5 40.72-23.4 64.22-25.5 4.55 0 9.09 0.1 13.68 0.2h7.97c3.2 0.4 6.51 1 9.78 1.1 27.54 8 63.07 10.6 81.05 36.1-12.21-17.1-34.04-19.6-51.77-28.4-7.35-4.8-12.72 5.6-17.06 10.3 20.41 9.3 43.06 17.5 55.82 37.1-10.41-6.1-16.25-17.9-27.75-22.3-11.25-5-22.36-10.3-33.3-15.9-14.8-1.6-29.93-1.5-44.72 0-19.68 6.5-39.16 13.9-51.37 31.9-15.77 9.2-17.67 27.1-23.93 42.4-0.82 2.6-1.69 5.5-0.1 7.9 1.53 11.6 2.3 23.3 4.6 34.7-0.13 3-0.53 6.3 0.29 9.3 9.17 30.2 35.26 51.2 64.65 60.9 7.63 0.6 16.25 3 23.64 0 17.7-0.8 23.88-18.5 35.78-28.4 9.98-23.6 11.97-51.3-0.82-74.4-8.59-7.2-16.86-14.9-24.28-23.2-8.58-1.4-18.72-2.2-27.58-0.4-5.11 8.2-15.2 13-15.76 23.7-7.71 12.5-0.78 33.9 14.83 35.8 2.99 0.8 6.29 1.7 9.18 0.1 2.47-0.3 4.96-0.4 7.46-0.4-0.5 12.5-17.78 16.3-27.11 11.4-4.26-6.1-8.01-12.6-12.97-18.2 0.47-12 0.44-24 0.14-36 6.57-13.3 18.51-29.2 35.92-22.9 3.41 0.3 6.91 0.8 10.37 1 3.66 0.2 7.32 0.4 11.01 0.6 20.41 4.6 29.02 25.3 43.01 38.5 4.06 10.9 4.5 23.1 5.8 34.7-0.26 2.6-0.41 5.4-0.86 8.1-1.14 13.9-4.34 27.2-11.9 39.1-19.49 15.5-42.37 37-69.29 29-16.34-0.9-32.22-6.2-45.86-15.1-10.56-12.7-23.48-23.6-32.71-37.4-4.21-12.2-9.22-24.2-13.46-36.4 0.6-16.9-0.64-33.8 0.95-50.6 5.6-21.8 19.02-40.7 32.45-58.4z" fill="#f6c708"/>
  <path d="m815.1 1072.9c3.29 0.2 6.5 0.5 9.78 1.1-3.27-0.1-6.58-0.7-9.78-1.1z" fill="#a38407"/>
  <path d="m837.1 1092c4.34-4.7 9.71-15.1 17.06-10.3 17.73 8.8 39.56 11.3 51.77 28.4 22.75 17.9 35.25 46.2 39.55 74.4 5.48 23.8 11.17 48.1 5.43 72.5-0.43 3.2-0.68 6.6-0.94 9.8-7 17.6-17.01 34-24.96 51.2-6.38 15.6-22.84 22.4-33.89 34.1-16.72 14.9-44.84 26.5-65.39 13 2.23-6.6 8.65-7.1 14.17-9.2 13.67-3.7 26.91-8.8 40.12-13.8 7.73-8 14.5-17 20.97-26.1 9-12.2 24.02-22.5 21.17-39.8 0.14-2.9 0.52-5.6 0.68-8.5 0.05-1.6 0.17-4.8 0.23-6.5 0.23-2.8 0.63-5.3 1.16-8 3.9-21 2.62-42.4-1.23-63.2-8.46-21.2-12.07-45.5-30.08-60.9-12.76-19.6-35.41-27.8-55.82-37.1z" fill="#f8c805"/>
  <path d="m787.15 1090.9c14.79-1.5 29.92-1.6 44.72 0-14.91 0.1-29.82 0.1-44.72 0z" fill="#997b01"/>
  <path d="m628.13 1129.9c1.64 2.8 0.76 5.9 0.12 9 0.03-3-0.15-6.1-0.12-9z" fill="#4a3500"/>
  <path d="m799.72 1145.1c3.5-0.1 6.89 0.4 10.37 1-3.46-0.2-6.96-0.7-10.37-1z" fill="#614a00"/>
  <path d="m810.09 1146.1c3.66 0.1 7.33 0.3 11.01 0.6-3.69-0.2-7.35-0.4-11.01-0.6z" fill="#a88e26"/>
  <path d="m788.03 1151.6c8.86-1.8 19-1 27.58 0.4-9.21 0-18.41 0.1-27.58-0.4z" fill="#e8c843"/>
  <path d="m621.16 1166c0.05-4.3 0.01-8.6 0.64-12.8-0.11 4.3-0.26 8.5-0.64 12.8z" fill="#473700"/>
  <path d="m694.69 1161.2c0.52-1.6 1.36-3.1 2.09-4.6-1.59 16.8-0.35 33.7-0.95 50.6-0.32-0.4-0.97-1-1.29-1.4 0.64-14.8 0.7-29.7 0.15-44.6z" fill="#e8c42f"/>
  <path d="m694.54 1205.8c-0.94-14.8-1.09-29.8 0.15-44.6 0.55 14.9 0.49 29.8-0.15 44.6z" fill="#5d4400"/>
  <path d="m711.75 1173.1c-1.59-2.4-0.72-5.3 0.1-7.9-0.12 2.6-0.15 5.2-0.1 7.9z" fill="#573f00"/>
  <path d="m763.66 1204c-1.53-11.8-0.96-24.1 0.14-36 0.3 12 0.33 24-0.14 36z" fill="#423200"/>
  <path d="m606.77 1190.2c-1.58-2.9-0.45-6.2 0.04-9.2-0.07 3.1-0.11 6-0.04 9.2z" fill="#5f604b"/>
  <path d="m608.3 1206.8c0.38 2.8 0.26 5.5 0.39 8.4-0.34-2.8-0.33-5.7-0.39-8.4z" fill="#4a4b39"/>
  <path d="m716.35 1207.8c0.73 3.1 0.32 6.1 0.29 9.3-0.82-3-0.42-6.3-0.29-9.3z" fill="#654f03"/>
  <path d="m787.1 1211.1c3.06 0.1 6.04-0.1 9.18 0.1-2.89 1.6-6.19 0.7-9.18-0.1z" fill="#7c6300"/>
  <path d="m869.05 1228c0.45-2.7 0.6-5.5 0.86-8.1-0.16 2.7-0.59 5.3-0.86 8.1z" fill="#563e00"/>
  <path d="m923.07 1261.2c0.3-2.6 0.56-5.4 1.16-8-0.53 2.7-0.93 5.2-1.16 8z" fill="#534000"/>
  <path d="m915.13 1263.2c0.26-2.7 0.4-5.6 0.74-8.3-0.28 2.8-0.58 5.5-0.74 8.3z" fill="#5c5e44"/>
  <path d="m949.97 1266.8c0.26-3.2 0.51-6.6 0.94-9.8 0.03 3.3-0.37 6.5-0.94 9.8z" fill="#826d10"/>
  <path d="m922.16 1276.2c0.25-2.8 0.41-5.7 0.68-8.5-0.16 2.9-0.54 5.6-0.68 8.5z" fill="#9a7a05"/>
  <path d="m781.29 1278c7.87 0.2 15.75-0.1 23.64 0-7.39 3-16.01 0.6-23.64 0z" fill="#cfb138"/>
  <path d="m878.23 1329.2c5.43-6.6 10.34-13.7 16.92-19.2 5.77-1.2 8.97 1.1 5.84 6-6.47 9.1-13.24 18.1-20.97 26.1-13.21 5-26.45 10.1-40.12 13.8-6.53 1.3-29.63 2.7-14.17 9.2 20.55 13.5 48.67 1.9 65.39-13 9.5-2.9 15.79-18.4 27.07-11.1-19.97 20.8-43.34 42.1-74.02 42 1.72 7.4 10.91 10.7 18 10.8 27.51 5.8 54.58 13.7 81.65 21.3 51.51 25.8 108.28 45.9 153.78 83.3 7.8 12.4 19.6 24.7 20 40.1-7.8 13.5-8.2 32.9-24.5 39.6-22.3 18.7-51.4 23.9-77.2 35.8-36.91 10.2-75.5 12.6-112.86 20.5-2.93-0.1-5.72-0.2-8.49 0.6h-17.03c-11.8-1.6-23.69-1-35.53-1-25.95 0.6-51.83-1.2-77.76-1.2-8.11-0.3-16.61-2.4-24.55 0-3.5 0.3-7.07 0.1-10.54 0.1-4.75-0.7-9.49-0.8-14.24-0.7-37.94-5.6-76.09-10.1-113.92-16.1-32.92-10.2-66.27-19.4-99.04-29.9-9.03-6.6-17.46-14.1-26.22-21-8.74-16.7-14.05-35.7-10.88-54.9-0.08-3.3-0.13-6.2-0.1-9.3 3.89-26.2 27.95-37.4 46.2-53.1 58.06-30.3 123.89-40.1 186.87-55.2 13.47-3.7 33.77-1.4 38.85-17.6-27.21-7.7-49.52-24.2-71.73-41.1 2.69-3.6 6.14-6.6 9.95-9 20.71 12.5 36.38 34.1 61.97 36.2 7.05 4.9 35.42-6.8 16.14-9.4-2.65-0.4-5.18-0.3-7.76-0.7-3.26-1-6.27-2.6-9.28-4.1-6.59-4.1-8.88-7.3 0.11-12.1 44.65 21.9 99.33 19.1 142.17-5.7m-109.76 39c-28.95 7.9-39.74 46.2-32.51 69.6 4 19.8 24.52 23.4 40.15 30.2 5.84 1.7 19.14 1.8 24.75 0 16-2.5 31.65-10.7 40.87-23.8 0.16-11.8 5.13-23.5 3.67-35.3-8.69-9.5-10.5-24.7-23.48-29.8-14.86-9.2-37.15-20.7-53.45-10.9m-50.12 31.2c-32.03 6.5-63.74 14.5-95.71 21.3-31.87 2.8-59.55 19.8-89.49 29.5-18.76 6.6-31.67 22.8-48.03 33.4-6.3 24.5 18.13 37.2 35.03 48.3 151.78 66.4 324.11 60.9 483.65 28.9 30.3-10.2 66.3-14.3 85.6-42.5 1.8-4.8 2.6-11.2-3.5-13.3-24.9-15.8-46.4-36.8-72.9-50-49.49-21.6-99.85-43.2-153.59-51-4.55 16.5 1.4 40.8-13.7 53.8-11.84 19.7-37.29 16.9-55.83 26-12.2-3-24.59-5.6-36.71-8.9-7.85-6.9-16.25-13.2-24.48-19.6-11.24-14.7-5.3-34.4-6.63-51.3 3.43-6.6-1.11-4.8-3.71-4.6m-243.06 140c-0.8 2.7-0.17 6.5 2.71 7.7 11.71 21.1 32.86 36.6 56.64 41.3 26.4 5.8 52.01 14.7 78.37 20.6 1.63 2.4 6.42 0 9.05 0.8 1.42 2.7 6.61 0.2 9.22 1 2.84 0.2 5.62-0.1 8.52 0.2 1.71 2.2 5.73 0.5 8.36 0.7 24.42 0.6 47.8 7.9 71.87 10.3 4.03 2.8 18.18 1 21.58-0.2 9.52 0.5 19.07 0.2 28.61 0 9.47 2.7 24.29 0.6 35.78 1.2 15.74 0 31.48 0.1 47.22-0.1 14.78 2.8 36.11 0.4 53.09 0.9 24.01-0.5 46.8-11 70.84-12.7 22.95-1.4 43.35-12.2 64.85-19.1 23.7-6.8 48.8-19.3 59.7-42.4-0.9-7.2 8.2-19.7-1.7-22.6-9.6 6.6-15.4 18.3-25.7 24.4-19.2 6.8-38.7 13-57.7 20.2-47.05 6.7-93.72 17.2-141.34 20.4-52.23 0.2-104.48-0.5-156.7 0.4-22.02-4.6-44.54-6.7-66.56-11.4-39.41-2.8-76.26-17.6-112.98-31-18.98-12.7-43.52-18.7-58.62-36.1-1.15-1.5-2.35-5.5-4.52-4.6-3.02 6.5 0.19 21.2-0.59 30.1z" fill="#050503"/>
  <path d="m745.23 1351.1c2.58 0.4 5.11 0.3 7.76 0.7-2.58-0.2-5.25-0.5-7.76-0.7z" fill="#543c00"/>
  <path d="m825.73 1365.1c-15.46-6.5 7.64-7.9 14.17-9.2-5.52 2.1-11.94 2.6-14.17 9.2z" fill="#dbb61e"/>
  <path d="m768.47 1368.2c16.3-9.8 38.59 1.7 53.45 10.9 12.98 5.1 14.79 20.3 23.48 29.8 1.46 11.8-3.51 23.5-3.67 35.3-9.22 13.1-24.87 21.3-40.87 23.8h-24.75c-15.63-6.8-36.15-10.4-40.15-30.2-1.44-3.3 1.15-8.1 3.13-3.9 3.3 9.1 10.53 16.5 20.56 17.3 21.93 13.5 53.53 7.1 68.68-13.2-0.35-13.6 9.68-28.8-2.41-39.9-9.68-22-36.43-27.9-57.45-29.9z" fill="#f7c808"/>
  <path d="m735.96 1437.8c-7.23-23.4 3.56-61.7 32.51-69.6 21.02 2 47.77 7.9 57.45 29.9 12.09 11.1 2.06 26.3 2.41 39.9-15.15 20.3-46.75 26.7-68.68 13.2-10.03-0.8-17.26-8.2-20.56-17.3-1.98-4.2-4.57 0.6-3.13 3.9m11.15-46.8c-13.42 16-9.94 47.4 12.92 53 21.41 13.1 60.36 0.5 59.36-27.6 6.29-35.6-56.17-60.1-72.28-25.4z" fill="#fad11f"/>
  <path d="m747.11 1391c16.11-34.7 78.57-10.2 72.28 25.4 1 28.1-37.95 40.7-59.36 27.6-22.86-5.6-26.34-37-12.92-53-7.93 15.1-10.28 43.2 9.98 48.9 17.43 12.3 42.12 7 56.59-7.4 15.39-29-13.94-60.7-44.23-56.7-8.06 3.8-18.05 6.5-22.34 15.2z" fill="#fbd430"/>
  <path d="m769.45 1375.8c30.29-4 59.62 27.7 44.23 56.7-14.47 14.4-39.16 19.7-56.59 7.4-20.26-5.7-17.91-33.8-9.98-48.9 4.29-8.7 14.28-11.4 22.34-15.2m-10.18 7.4c-4.9 1-7.86 5.8-9.98 10-7.89 6.9-5.28 19.5-4.66 28.7 12.26 25.1 63.54 20.9 61.41-10.9 2.08-21-29.72-40.2-46.77-27.8z" fill="#fad441"/>
  <path d="m759.27 1383.2c17.05-12.4 48.85 6.8 46.77 27.8 2.13 31.8-49.15 36-61.41 10.9-0.62-9.2-3.23-21.8 4.66-28.7-3.37 8.7-5.5 19-2.81 28.2 10.94 22.6 57.41 20.1 56.91-9.1 3.34-22-25.58-37.1-44.12-29.1z" fill="#fad952"/>
  <path d="m759.27 1383.2c18.54-8 47.46 7.1 44.12 29.1 0.5 29.2-45.97 31.7-56.91 9.1-2.69-9.2-0.56-19.5 2.81-28.2 2.12-4.2 5.08-9 9.98-10m5.69 1.2c-18.83 2-25.28 35.6-5.26 39.9 10.91 5.9 30.11 1.2 32.02-12.7 5.09-15.4-13.47-27-26.76-27.2z" fill="#fadd63"/>
  <path d="m764.96 1384.4c13.29 0.2 31.85 11.8 26.76 27.2-1.91 13.9-21.11 18.6-32.02 12.7-20.02-4.3-13.57-37.9 5.26-39.9m-4.31 6c-8.44 1.6-11.08 12.3-8.83 19.5 6.76 10.5 29.04 8.2 28.09-6.9-1.2-8.8-11.03-13.8-19.26-12.6z" fill="#f9e281"/>
  <path d="m760.65 1390.4c8.23-1.2 18.06 3.8 19.26 12.6 0.95 15.1-21.33 17.4-28.09 6.9-2.25-7.2 0.39-17.9 8.83-19.5z" fill="#f9e7a1"/>
  <path d="m718.35 1399.4c2.6-0.2 7.14-2 3.71 4.6 1.33 16.9-4.61 36.6 6.63 51.3 8.23 6.4 16.63 12.7 24.48 19.6 12.12 3.3 24.51 5.9 36.71 8.9 18.54-9.1 43.99-6.3 55.83-26 15.1-13 9.15-37.3 13.7-53.8 53.74 7.8 104.1 29.4 153.59 51 26.5 13.2 48 34.2 72.9 50 6.1 2.1 5.3 8.5 3.5 13.3-19.3 28.2-55.3 32.3-85.6 42.5-159.54 32-331.87 37.5-483.65-28.9-16.9-11.1-41.33-23.8-35.03-48.3 16.36-10.6 29.27-26.8 48.03-33.4 29.94-9.7 57.62-26.7 89.49-29.5 31.97-6.8 63.68-14.8 95.71-21.3m-44.28 27c-38.52 8.6-76.41 20-113.17 34.5-13.27 10.2-38.14 13.2-34.72 34.7 10.36 9.8 22.51 17.8 34.59 25.4 18.01 2.2 36.01 6.6 54.1 9.1 23.7 9.2 49.44 2.6 73.42 2.2 5.89-14.7 16.35-26.9 22.74-41.3-4.46-13.7-4.73-29-10.15-42.2-9.19-7-17.77-16-26.81-22.4z" fill="#326465"/>
  <path d="m674.07 1426.4c9.04 6.4 17.62 15.4 26.81 22.4 5.42 13.2 5.69 28.5 10.15 42.2-6.39 14.4-16.85 26.6-22.74 41.3-23.98 0.4-49.72 7-73.42-2.2-18.09-2.5-36.09-6.9-54.1-9.1-12.08-7.6-24.23-15.6-34.59-25.4-3.42-21.5 21.45-24.5 34.72-34.7 36.76-14.5 74.65-25.9 113.17-34.5m-12.56 5.1c-37.68 10.9-77.6 18.4-111.16 39.7-6.56 3-7.95 10.1-8.11 16.5 7.88 8.4 18.17 14.2 27.47 20.9 35.41 5.1 71.63 17 106.88 8.1 5.66-10.3 12.32-20 17.97-30.3-1.28-12.4-5.18-24.7-8.26-36.6-8.83-5.2-14.92-17.2-24.79-18.3z" fill="#346a6a"/>
  <path d="m661.51 1431.5c9.87 1.1 15.96 13.1 24.79 18.3 3.08 11.9 6.98 24.2 8.26 36.6-5.65 10.3-12.31 20-17.97 30.3-35.25 8.9-71.47-3-106.88-8.1-9.3-6.7-19.59-12.5-27.47-20.9 0.16-6.4 1.55-13.5 8.11-16.5 33.56-21.3 73.48-28.8 111.16-39.7m-9.92 5c-30.89 7.7-63.15 15.2-89.68 33.5-9.58 12.8 9.49 18.5 16.35 25.9 28.49 4.9 58.06 14.6 86.31 6.8 2.8-5.9 5.21-12.4 10.35-16.8 8.7-9.8-1.85-22-1.94-32.8-4.74-7-13.04-16.1-21.39-16.6z" fill="#3a7272"/>
  <path d="m651.59 1436.5c8.35 0.5 16.65 9.6 21.39 16.6 0.09 10.8 10.64 23 1.94 32.8-5.14 4.4-7.55 10.9-10.35 16.8-28.25 7.8-57.82-1.9-86.31-6.8-6.86-7.4-25.93-13.1-16.35-25.9 26.53-18.3 58.79-25.8 89.68-33.5m-7.24 3.9c-22.33 6.2-46.98 9.6-65.49 24.4-10.54 6.1 5.21 13.7 9.94 18.4 20.4 4.3 42.19 10.2 62.93 5.7 3.11-5.3 6.07-10.9 10.49-15.5-1.84-12.6-5.19-28.2-17.87-33z" fill="#3a7777"/>
  <path d="m644.35 1440.4c12.68 4.8 16.03 20.4 17.87 33-4.42 4.6-7.38 10.2-10.49 15.5-20.74 4.5-42.53-1.4-62.93-5.7-4.73-4.7-20.48-12.3-9.94-18.4 18.51-14.8 43.16-18.2 65.49-24.4m-12.62 5.2c-14.17 3.9-31.7 6.5-40.66 18.2 10.3 13.2 30.76 13.2 46.04 12.7 15.05-5.9 9.75-31.9-5.38-30.9z" fill="#3c7c7c"/>
  <path d="m631.73 1445.6c15.13-1 20.43 25 5.38 30.9-15.28 0.5-35.74 0.5-46.04-12.7 8.96-11.7 26.49-14.3 40.66-18.2z" fill="#418382"/>
  <path d="m776.11 1468h24.75c-5.61 1.8-18.91 1.7-24.75 0z" fill="#c7a51e"/>
  <path d="m464.84 1510.3c-1.61-2.9-0.76-6.3-0.1-9.3-0.03 3.1 0.02 6 0.1 9.3z" fill="#515251"/>
  <path d="m475.29 1539.4c0.78-8.9-2.43-23.6 0.59-30.1-0.51 9.9 1.51 20.2-0.59 30.1z" fill="#2b1b00"/>
  <path d="m475.88 1509.3c2.17-0.9 3.37 3.1 4.52 4.6-2.16-1.2-7.4-4.5-3.73 3.1 0.95 10-0.98 20.2 1.33 30.1-2.88-1.2-3.51-5-2.71-7.7 2.1-9.9 0.08-20.2 0.59-30.1z" fill="#debb2b"/>
  <path d="m476.67 1517c-3.67-7.6 1.57-4.3 3.73-3.1 15.1 17.4 39.64 23.4 58.62 36.1 36.72 13.4 73.57 28.2 112.98 31 22.02 4.7 44.54 6.8 66.56 11.4 1.16 0.3 2.35 0.6 3.57 0.9 50.44 1.2 101.76 1.2 151.8 0.1 0.34-0.4 1-1 1.33-1.4 47.62-3.2 94.29-13.7 141.34-20.4 19-7.2 38.5-13.4 57.7-20.2 10.3-6.1 16.1-17.8 25.7-24.4 9.9 2.9 0.8 15.4 1.7 22.6-10.9 23.1-36 35.6-59.7 42.4-21.5 6.9-41.9 17.7-64.85 19.1-24.04 1.7-46.83 12.2-70.84 12.7-16.66-1.8-33.43-0.2-50.13-1-16.68-1.7-33.47-0.5-50.19-0.8-11.93-0.2-23.86 0.3-35.77-0.2-9.46-0.5-19.29-2.4-28.61 0-7.2 0.2-14.4 0.2-21.58 0.2-24.07-2.4-47.45-9.7-71.87-10.3-2.84-0.4-5.56-0.6-8.36-0.7-2.9-0.3-5.68 0-8.52-0.2-3.12-0.4-6.13-0.7-9.22-1-3.06-0.4-6.02-0.6-9.05-0.8-26.36-5.9-51.97-14.8-78.37-20.6-23.78-4.7-44.93-20.2-56.64-41.3-2.31-9.9-0.38-20.1-1.33-30.1z" fill="#f9c904"/>
  <path d="m718.56 1592.4c52.22-0.9 104.47-0.2 156.7-0.4-0.33 0.4-0.99 1-1.33 1.4-50.59-0.7-101.21-0.6-151.8-0.1-1.22-0.3-2.41-0.6-3.57-0.9z" fill="#99811d"/>
  <path d="m722.13 1593.3c50.59-0.5 101.21-0.6 151.8 0.1-50.04 1.1-101.36 1.1-151.8-0.1z" fill="#f3c922"/>
  <path d="m613.01 1609c3.03 0.2 5.99 0.4 9.05 0.8-2.63-0.8-7.42 1.6-9.05-0.8z" fill="#957c1a"/>
  <path d="m622.06 1609.8c3.09 0.3 6.1 0.6 9.22 1-2.61-0.8-7.8 1.7-9.22-1z" fill="#533a00"/>
  <path d="m639.8 1611c2.8 0.1 5.52 0.3 8.36 0.7-2.63-0.2-6.65 1.5-8.36-0.7z" fill="#866e12"/>
  <path d="m741.61 1621.8c9.32-2.4 19.15-0.5 28.61 0-9.54 0.2-19.09 0.5-28.61 0z" fill="#bea130"/>
  <path d="m720.03 1622c7.18 0 14.38 0 21.58-0.2-3.4 1.2-17.55 3-21.58 0.2z" fill="#725900"/>
  <path d="m770.22 1621.8c11.91 0.5 23.84 0 35.77 0.2l0.01 1c-11.49-0.6-26.31 1.5-35.78-1.2z" fill="#755b00"/>
  <path d="m805.99 1622c16.72 0.3 33.51-0.9 50.19 0.8-0.74 0-2.22 0.1-2.96 0.1-15.74 0.2-31.48 0.1-47.22 0.1l-0.01-1z" fill="#eec82e"/>
  <path d="m853.22 1622.9c0.74 0 2.22-0.1 2.96-0.1 16.7 0.8 33.47-0.8 50.13 1-16.98-0.5-38.31 1.9-53.09-0.9z" fill="#a99027"/>
  <path d="m714.9 1632.2c4.75-0.1 9.49 0 14.24 0.7-4.76 0-9.55-0.2-14.24-0.7z" fill="#4a4a4a"/>
  <path d="m739.68 1632.8c7.94-2.4 16.44-0.3 24.55 0-8.19 0.2-16.38 0.2-24.55 0z" fill="#494949"/>
  <path d="m841.99 1634c11.84 0 23.73-0.6 35.53 1h-35.27l-0.26-1z" fill="#5b5b5b"/>
  <path d="m894.55 1635c2.77-0.8 5.56-0.7 8.49-0.6l-0.79 0.6h-7.7z" fill="#5c5c5c"/>
 </g>
</svg>
