<?xml version="1.0" encoding="UTF-8"?>
<svg width="1264pt" height="1533pt" version="1.1" viewBox="0 0 1264 1533" xmlns="http://www.w3.org/2000/svg">
 <defs>
  <filter id="a" color-interpolation-filters="sRGB">
   <feColorMatrix values="1 0 0 0 0 0 1 0 0 0 0 0 1 0 0 0 0 0 1000 -500 "/>
  </filter>
 </defs>
 <g filter="url(#a)">
  <path d="m565.49 0h10c-3.51 0.57-6.97 1.22-10.5 0.85l0.5-0.85z" fill="#5e5d43"/>
  <path d="m575.49 0h24.04c4.11 0.8 8.31 0.96 12.52 0.87 9.27 0.32 18.52 1 27.8 1.36 6.7 1.07 13.55 0.97 20.32 0.57 13.23 0.12 26.44 1.14 39.68 1.37 6.69 1.21 13.54 0.99 20.31 0.65 6.21 0.13 12.44 0.16 18.67 0.33 6.04 1.22 12.24 0.92 18.38 0.68 12.56-0.38 25.05 1.15 37.6 1.33 6.05 1.17 12.25 0.92 18.4 0.67 13.22-0.31 26.37 1.21 39.58 1.34 9.03 1.58 18.22 0.68 27.34 0.61 15.81 0.99 30.59 8.07 46.66 6.34 3.4 0.58 6.94 1.05 10.42 0.71 7.55-0.03 15.08 0.73 22.61 1.4 3.77 0.41 7.57 0.59 11.4 0.53 10.23 0.55 20.43 1.56 30.68 2.36 3 0.37 6.2 0.91 9.3 0.72 5.9 0.04 11.8 0.87 17.6 1.32 2.8 0.2 5.6 0.58 8.4 0.69 58 13.15 118.4 13.74 175.8 30.18 18.7 2.32 36.7 10.1 51 22.27v3.52c-1.4 20.81-15.9 41.17-31.9 52.2-8.9 14.07-16.9 29-27 42.06-28.7 14.71-39.5 49.02-55.8 73.26-27.9 39.06-55.2 79.04-77.1 121.91-28.6 54.4-63.8 105.6-85.35 163.42-1.38 4.15-7.73 4.75-5.9 10.38-0.86 12.7-12.51 22.03-13.19 34.8-0.49 3.35-0.84 6.79-0.49 10.19-18.18 40.91-31.24 83.99-39.07 128.17-3.49 25.23-13.55 49.81-10.43 75.63-2.01 19.07-10.21 37.4-8.55 56.87-0.26 7.11-0.38 14.27 0.01 21.4-2.74 21.84-12.53 42.62-12.82 64.65-15.87 43.16-43.12 82.84-80.56 109.84-10.54 0-15.84 13-24.96 17.3-38.82 20.9-80.86 35.9-124.7 41.4 0.93 8.4 7.03 15.8 10.39 23.6 1.51 11.9-1.99 23.7-1.75 35.7 28.84 12.8 61.32 17.6 87.98 35.6 31.73 14.2 55.1 40.8 82.09 61.9 14.71 10.6 17.44 33.4 34.92 40.1 5.58 8 9.14 18.1 19.05 21.9 29.36 21.4 64.41 35.7 87.85 64.2 9.68 11.5 23.18 21.9 26.08 37.4-16.95 10.5-31.01 26.9-50.84 32.2-13.59 5.9-27.37 11.4-40.82 17.6 1.55-6.6 9.08-10 13.13-15.3 19.8-9.3 40.61-17 59.12-28.8 2.53-3.7 7.01-8.1 6.12-12.7-9.37-8.4-15.6-20-25.7-27.5-22.24 19.7-54.78 19.6-76.82 39.8-29.94 6.4-58.38 23.4-89.04 23.9-3.05-0.6-6.22-1.9-9.06-0.1-32.08 10.1-65.91 10.4-98.83 16.3-8.14 0-16.25-0.3-24.37-0.2-26.16-0.6-51.65 6.5-77.52 8.8-12.67-2-25.33-3.9-38.13-4.9-2.74-0.3-5.91-2.1-8.23 0.1-3.86 0.1-7.7 0.2-11.53 0.3-4.08 0.2-8.52-1.1-12.39 0.7-2.52 0.1-5.03 0.2-7.53 0.3-10.85-13.2-33.98-7.1-49.69-13 1.55-1.7 3.01-3.5 4.52-5.3 4.49 0.7 9.03 1 13.58 1.3 3.11 0.2 6.29 0.9 9.45 0.6 6.43-0.9 13.05 2.4 19.33 0.6 3.54-29.9 7.77-59.8 13.45-89.3-9.86-1.9-19.9-2.8-29.84-4.1-6.04-2.3 2.4-5.8 5.22-7.5 1.6 0.2 4.79 0.5 6.39 0.7 8.33 1.3 16.79 0.8 25.2 0.8 6.95 0 13.93-0.2 20.89 0.2 8.27 1.3 16.72 1.1 25.05 0.2 1.15-0.3 2.27-0.7 3.38-1.2 3.27-0.6 6.47-1.5 9.62-2.6 8.69 0.4 17.4 0.4 26.1 0.4 5.93 0.9 12.41 2.3 18.28 0.2 39.32-4.3 78.38-10.7 117.66-15.3 39.57-2.6 76.81-17.4 114.88-27.3 0.03-7.8-10.15-11.4-14.93-17.2-25.53 10.5-52.38 17.3-77.91 27.7-47.83 7.5-95.99 13.3-143.79 21.2-2.86-0.2-5.65-0.5-8.33 0.5-3.93 0.5-7.85 0.9-11.8 1-9.3-1.5-18.72-0.6-28.07-0.8-8.62-2-17.51-0.8-26.24-0.8-8.21-0.3-16.41-0.1-24.61-0.4-7.98-1.4-16.08-0.7-24.13-0.8-7.88-1.8-15.97-1-23.97-1-17.99-0.2-36.01 0.7-53.95-1-3.19-1.2-6.5-1.9-9.87-2.2-7.41-2.1-14.94-3.8-22.46-5.4-4.43-3.2 2.64-5.6 4.5-8.5 69.44 8.8 139.84 5.6 209.62 10.7 42.64-5.6 85.33-11.2 127.83-17.9 15.94-3.1 30.82-11.2 47.49-9.4 19.26-7.5 38.94-14.1 57.88-22.5-10.44-21.2-32.48-32.9-49.38-48.5-21.16-19.6-47.05-32.8-71.72-47.3-20.11-6-40.59-11.2-60.81-16.9-1.26 12.8-13.97 13.3-18.26 24.9-1.17 0.4-2.28 1-3.27 1.8-12.61 5.5-26.5 7.1-40.09 6.7-16.78-8.3-33.22-17.5-45.7-31.7-22.66-0.5-46.63 4.8-66.8 15.7 1.21-5.9 7.88-8.6 10.98-13.6 15.69-6.1 31.98-10.6 48.67-13.2 2.86-5.4 0.52-12.6 1.46-18.5 1.28-6.4 0.81-12.8 0.59-19.1 2.58-7.5 7.81-13.7 11.11-20.9-13.22-9.9-30.32-0.4-44.36-7.7-20.56-8.1-40.97-16.7-61.72-24.3-45.23-15.8-72.96-57.3-103.85-91.37-2.22-16.7-19.55-25.32-23.34-41.45-23.65-81.58-37.18-165.67-48.18-249.8-5.48-58.26-23.36-114.17-35.91-171.08-18.79-70.11-35.35-141.64-66.43-207.59-5.23-12.04-8.91-25.22-17.7-35.31-22.5-31.23-44.05-63.16-66.61-94.33-2.45-4.29-9.17-2.18-10.97-7.13-25.82-43.15-52.61-86.13-88.8-121.42v-1.72c10.43-8.81 23.38-13.34 35.91-18.22 32.86-4.11 65.61-9.92 98.78-10.96 3.55 0.12 7.27 0.83 10.65-0.62 12.11-0.5 24.21-1.2 36.33-1.46 7.47-0.08 15.27 1.38 22.59-0.55 6.44-0.44 12.9-0.04 19.36-0.33 6.45-0.58 13.54 1.85 19.71-0.72 12.82-0.13 25.58-1.63 38.42-1.34 5.48 0.2 11.01 0.36 16.46-0.56 8.49-0.73 17-1.38 25.53-1.47 5.49 0.21 11.03 0.45 16.48-0.56 8.17-0.48 16.36-0.69 24.53-1.46 2.81 0.1 5.73 0.45 8.46-0.5 27.45-3.29 55.06-4.87 82.5-8.48 6.14 0.24 12.3 0.16 18.45-0.01 13.16 2.04 26.37 0.87 39.55-0.03 2.82 0.12 5.77 0.51 8.52-0.45 14.19-2.01 28.41-3.91 42.76-4.43 3.53 0.37 6.99-0.28 10.5-0.85m50.62 10.99c-11.9 1.57-23.91 2.14-35.83 3.37-2.51-0.04-7.2-1.65-8.34 0.67-9.53 0.98-19.18 0.99-28.66 2.29-2.38-0.06-7.46-1.52-8.1 0.92-4.38-0.78-8.13-0.52-11.26 0.78-11.97-0.05-23.95-0.04-35.92 0-13.48-2.53-35.37-1.13-49.02-0.02-3.54 0.09-7.23-0.42-10.7 0.32-2.48 0.03-7.24-1.62-8.29 0.7-10.59 1.47-21.88 2.67-31.89 4-21.04-0.05-42.08-0.04-63.11-0.01-4.82 0.75-12.71-1.76-16.09 1.04-4.79 0.14-12.1-1.41-14.87 0.97-5.28-0.06-10.58-0.2-15.83 0.28-4.87-0.21-12.34-1.67-15.19 0.7-7.62-0.45-15.12 1.26-22.72 1.31-4.38-0.83-8.19-0.6-11.42 0.68-6.54-0.16-12.98 1.36-19.52 1.28-2.93 0.27-9.46-2.26-10.4 0.74-6.24-0.26-12.39 1.23-18.62 1.28-2.59 0.27-8.81-2.56-9.38 0.75-9.99-0.13-19.98-0.02-29.96-0.04-1.97-1.83-12.94-1.82-14.97-0.05-29.89 3.81-60.01 6.67-89.78 11.41-2.45 0.2-8.79-2.63-9.08 0.65-7.15 1.78-12.85 7.73-19.24 10.95 27.8 13.53 59.07 19.35 88.55 28.58 63.65 9.44 127.24 20.45 191.45 25.4 1.26 2.37 5.72 0.61 8.25 0.77 40.56 3.94 80.99 9.67 121.76 11.26 1.43 2.61 6.73 0.02 9.33 0.73 7.56 0.78 15.12 1.73 22.74 1.28 2.26 3.11 10.29-0.12 14.29 0.74 3.91 0.29 7.83 0.39 11.77 0.28 3.94 3.12 14.32-0.11 20.2 0.83 3.38 3.4 14.37 0.11 20.02 0.88 3.88 0.29 7.79 0.4 11.71 0.3 13.47 2.3 31.19 0.48 46.27 0.83 14.7 3.01 35.84 0.23 52.72 1.13 23.44 0.01 46.9 0.21 70.34-0.15-0.15 1.8 7.25 2.02 7.58 0.22 14.08-5.68 29.33-2.42 44.03-1.11 1.28 2.35 5.72 0.63 8.24 0.81 11.82 0.59 23.89 0.89 35.59-1.03 2.63-0.28 8.44 2.52 9.29-0.71 8-0.21 15.92-1.84 23.98-1.02 4.7 2.66 14.67 0.33 21.23 0.73 3.12 0.54 6.25 0.56 9.42-0.02 3.39-0.08 10.88 1.83 12.03-0.94 3.68-0.19 10.23 1.88 12.36-0.76 55.58-4.57 111.23-9.46 166.73-15.33 4.3 0.85 8.1 0.63 11.3-0.67 4.1-0.16 8.4 0.49 12.5-0.25 4.5 0.62 9.1 0.12 13.7 0.01 18.3 1.72 35.4-7.69 53.7-5.77 1.9 2.65 14.1 1.21 15.7 0.07 27.7-10.97 60-7.09 87.4-19.2-3.7-7.52-9.5-15.69-18.5-16.38-26.5-6.11-52.6-15.57-80-15.56-35.1-6.67-77.6-11.94-115.6-15.86-1.3-2.63-6.8-0.05-9.2-0.76-8.9-1.21-17.8-1.92-26.8-2.24-1.3-2.63-6.8-0.05-9.25-0.76-33.28-3.1-66.38-8.39-99.75-10.25-1.38-2.75-7.73 0.2-10.25-0.79-2.89-0.42-5.9-0.28-8.74-0.25-12.12-2.76-29.55-0.18-43.36-0.82-3.89-2.67-14.59-0.65-20.84-0.86-8.18-1.39-16.47-2.23-24.75-2.28-1.38-2.62-6.83-0.04-9.32-0.74-8.24-0.87-16.49-1.88-24.78-1.29-3.95-3.15-14.37 0.08-20.23-0.72-12.24-0.34-24.45-1.74-36.73-1.25-2.24-3.13-10.32 0.1-14.26-0.75-8.9-0.53-17.79-1.56-26.72-1.28-6.07-2.58-20.88-1.14-26.91-0.02m-588.74 65.66c2.65 4.1 6.54 8.96 9.45 12.29 0.7 2.39 1.63 5.24 4.29 6.05 3.22 6.23 7.65 11.76 11.42 17.66 50.53 9.41 101.92 21.33 153.38 28.3 1.06 2.22 4.98 0.71 7.18 0.88 0.79 2.45 5.67 0.73 8.08 0.93 37.6 3.98 75.12 8.43 112.8 11.19 1.35 2.62 6.72 0.06 9.29 0.8 2.9 0.43 5.79 0.24 8.74 0.21 1.13 2.62 6.72 0.21 9.2 0.89 0.79 2.84 7.76-0.03 10.07 0.94 2.86 0.34 5.71 0.16 8.61 0.21 3.18 1.27 6.96 1.55 11.34 0.82 1.16 3.39 9.77 0 13.07 0.92 3.87 0.26 7.76 0.34 11.67 0.24 1.43 3.43 9.18-0.38 12.26 0.84 1.15 3.39 9.77 0 13.06 0.92 3.9 0.28 7.81 0.36 11.74 0.24 2.22 3.07 10.23-0.07 14.2 0.85 2.09 3.06 10.7 0.29 14.78 1.15 5.33 0.19 10.65-0.03 15.99 0 3.58 3.25 13.52-0.04 18.97 0.91 2.91 3.39 12.27 0.07 16.99 0.92 3.99 0.2 8 0.26 12.03 0.18 4.11 3.08 14.09 0.02 19.97 0.86 40.42 2.58 85.02 0.62 127.02 0.96 27.68-0.15 57.97 1.36 84.04-0.8 3.89 0.19 7.78 0.1 11.66-0.26 2.61-0.33 8.73 2.5 9.39-0.78 3.89 0.11 7.81 0.11 11.74-0.01 5.27-0.47 13.73 1.56 17.17-0.99 6.39 0.35 12.8 0.01 19.21-0.35 7.31 1.94 15.02 2.68 22.52 2.09 2.49-0.08 7.25 1.6 8.33-0.75 12.65-0.97 25.26-2.7 37.98-1.96 0.12 2.68 10.88 1.31 10.88 0.01 50.08-7.19 100.51-11.07 150.81-17.28 2.8 0.41 5.7 0.32 8.5 0.14-0.4 2.56 10.8 1.58 10.7 0.21 33.7-4.84 67.4-10.12 101.2-15.01 18.3 0.1 32.6-14.94 38.3-31.4 3.6-2.34-10.3-2.91-10.2-0.78-13.1 2.53-25.4 9.48-39 8.16-10.8 0.4-24-1.33-33.2 0.95l0.4 0.86c-9.7 6.73-24.5 2.32-36.2 6.41-3.4 0.45-11-2.04-11.9 0.85-3.7 0.24-10.5-1.73-12.4 0.9-35.3 1.72-70.2 9.49-105.71 10.01-19.09 0.55-40.73-1.34-58.2 0.96-0.45 0.25-1.36 0.76-1.81 1.01-7.77 1.27-15.05 4.54-22.94 5.33-9.79 0.12-23.4-1.8-30.9 0.85-10.18 0.22-24.1-1.53-31.99 0.94-36.44-0.26-72.9-0.09-109.35-0.09-6.06 0.16-15.03-1.24-18.7 1.13-6.11-0.14-15.49-1.25-18.95 0.91-6.05-0.35-12.14-0.21-18.16 0.23-6.57-0.38-15.58-1.43-20.13 0.72-17.37 0.05-34.76-0.3-52.12 0.21-23.29-0.5-46.67-0.31-69.97-0.01-3.35-0.53-6.81-0.13-10.14-0.01-0.96-2.74-6.76-0.3-9.1-0.99-1.87-0.22-3.75-0.19-5.62-0.2-1.1-2.2-4.99-0.68-7.19-0.85-0.79-2.47-5.74-0.72-8.17-0.97-2.54-0.19-5.08-0.24-7.61-0.16-1.35-2.35-5.77-0.6-8.31-0.74-5.53-0.79-11.07-1.6-16.67-1.25-1.4-2.36-5.81-0.58-8.39-0.8-2.6-0.3-5.19-0.38-7.79-0.23-0.85-2.48-5.74-0.6-8.1-0.94-0.62-2.41-5.74-0.59-8.14-0.89-2.56-0.24-5.11-0.29-7.67-0.15-1.39-2.6-6.76-0.13-9.28-0.84-0.93-2.86-7.71-0.09-10.04-0.98-2.89-0.36-5.86-0.22-8.73-0.18-1.37-2.74-7.69 0.14-10.23-0.84-0.92-2.86-7.72-0.09-10.05-0.98-2.87-0.36-5.81-0.19-8.67-0.18-1.39-2.6-6.76-0.12-9.27-0.84-0.93-2.86-7.74-0.09-10.08-0.98-2.53-0.18-5.05-0.24-7.57-0.17-1.35-2.35-5.83-0.62-8.4-0.77-1.66-0.06-4.98-0.17-6.64-0.23-1.31-2.33-5.69-0.63-8.2-0.82-0.97-2.47-5.63-0.83-8.05-0.98-86.74-9.31-173.96-16.93-258.72-38.42-5.31-4.18-13.15-5.46-19.77-7.18m35.55 48.47c16.81 31.5 43.81 56.65 63.86 86.22 5.38 1.64 10.82 3.11 16.25 4.62-12.74-26.91-19.04-57.22-36.39-81.63-14.32-3.6-29.31-5.41-43.72-9.21m57 10.97c10.93 27.41 24.17 53.99 36.53 80.66 13.04 3.01 26.23 5.43 39.23 8.66 3.73 1.21 10.37 1.87 6.9-4.81-7.94-25.17-16.77-50.07-25.16-75.1-19.09-3.51-38.42-5.73-57.5-9.41m1080.5 3.32c-10.9 2.6-22.3 3.12-33.2 5.79-9.2 29.52-23.4 57.37-30.4 87.62 9.5-4.64 10.6-16.82 16.1-24.86 11.4-16.7 26.1-30.84 37.3-47.71 4.6-5.87 12.7-13.94 10.2-20.84m-87.9 12.8c-14 27.5-19.9 57.72-28.1 87.21-1.7 3.8 2.3 2.97 5.3 2.25 3.6-0.12 10.3 1.98 12.2-0.66 7.4-1.37 14.4-5.34 20.4-9.8 10.8-27.33 21.8-54.8 32.7-82.04-13.3-7.06-28.4 2.99-42.5 3.04m-922.5-0.26c10.18 25.19 19.82 50.64 28.58 76.37 17.39 6.61 36.8 5.72 55.13 7.78-3.22-23.67-9.73-46.91-14.45-70.36-3.67-4.3 2.83-4.96 2.54-7.86 1.02 0.33 2.05 0.65 3.07 0.97 12.07 25.8 11.48 55.88 25.42 81.15 0.64-0.08 1.93-0.24 2.58-0.32 3.68 0.61 7.39 0.23 11.11 0 6.55 5.16 14.67 6.85 22.99 5.33 4.13 1.76 15.81 1.74 20.02 0.14-7.34-27.4-14.24-54.94-22.27-82.13-18.53-1.84-36.96-5.12-55.61-5.19-2.48-2.93-9.45 0.38-13.19-0.66-1.05-2.38-5.63-0.77-8.06-0.91-5.22-0.66-10.43-1.46-15.72-1.21-1.36-2.37-5.8-0.58-8.37-0.8-2.55-0.25-5.09-0.32-7.65-0.21-1.33-2.32-5.69-0.62-8.21-0.81-0.94-2.49-5.67-0.83-8.1-0.94-3.25 0.02-6.85-2.55-9.81-0.34m898.2 3.01c-15.9 3.5-32.3 5.18-48.4 7.8-7.5-2.7-3.7 5.69-5.3 8.51-8.1 24.25-13.5 49.37-20.8 73.87-4.3 2.41 6.8 5.48 7.4 1.95 6.8-0.2 13.7-0.78 20.6-1.39 2.9-0.22 9.3 2.28 10.3-0.71 5.6 0.24 11.1-0.83 16.6-1.35 8.5-29.78 20.3-59.1 29.2-88.68-3.2-1.81-6.4-1.81-9.6 0m-748.1 11.05c7.21 27.58 13.97 57.63 22.11 83.93 2.27 2.98 10.88 0.02 15.06 0.73 8.56 0.77 17.1 1.93 25.73 1.33 2.17 2.28 21.4 3.07 16.19-2.92-4.56-21.93-7.51-44.15-11.04-66.24 0.16-5.7 4.1-17.98-7.05-13.85-3.2-1.28-6.97-1.51-11.32-0.7-3.55-0.57-7.2-0.35-10.77-0.26-1.82-3.28-9.73 0.18-13.27-0.71-8.43-0.14-18.4-3.94-25.64-1.31m665-0.01c-15.4 1.98-31.23 2.04-46.4 4.59-7.97 20.58-14.6 41.74-21.67 62.59-2.83 2.75-0.14 11.41-0.78 16.03-2.39 10.8 15.23 0.65 20.46 3.49 4.38 0.82 8.17 0.58 11.39-0.69 10.76-1.42 23.2 1.08 32.7-5.16 10.6-25.52 15-53.51 19.1-80.8-1.8-1.86-13-1.87-14.8-0.05m-587.95 4.03c4.11 27.83 8.1 55.94 13.12 83.75 22.72 2.9 45.5 8.57 68.48 5.21-0.25-2.43-5.33-4.56-3.17-8.73 0.07-3.6 2.01-10.31-0.6-12.27 0.23-3.92 0.13-7.8-0.28-11.65 0.26-4.18 1.66-11.04-0.71-13.36 0.04-8.57-1.41-17.1-1.31-25.66 0.37-3.92 1.43-11.79-0.62-12.92-3.63-3.68-10.41-0.29-15.04-1.35-1.39-2.78-7.73 0.19-10.28-0.75-7.22-0.77-14.46-1.53-21.73-1.28-1.85-3.27-9.71 0.2-13.24-0.73-4.84-0.73-9.77-0.27-14.62-0.26m457.33 5.15c-6.96 25.81-14.36 51.98-21.44 77.82 18.93 2.98 43.33-0.28 64 1.16 5.06 5.58 6.65-3.05 2.96-1.89 7.55-25.27 23.96-53.17 22.03-80.23-22.47-4.28-44.97 2.77-67.55 3.14m-348.45-2.2c-8.67-0.23-17.19 1.86-25.87 0.99 3.01 28.27 6.08 56.64 9.05 84.95 7.93 0.35 15.88 0 23.84 0.06 2.96 3.44 13.19-0.22 18.2 0.69 13.27 2.53 27.18 1.29 39.73-3.63-0.67-2.08-3.39-3.24-3.05-5.86l0.85-0.25c2.53-21.75 1.52-51.13 0.2-72.93-1.5-0.25-4.48-0.77-5.97-1.03-2.83 0.71-9.21-1.97-10.01 1.02-12.33 3.47-23.32-2.41-35.08-3.98-0.91-2.63-11.04-1.4-11.89-0.03m285.86 2.03c-3.89-0.16-7.76-0.06-11.59 0.3-3.48 0.09-10.74-1.82-12.08 0.85-2.84 1.66-10.97-3.21-11.37 1.81-4.07 25.7-10.4 53.76-11.87 78.11 3.11 1.21 6.83 1.41 11.16 0.59 7.21 1.53 14.61 1.6 21.94 2.34-0.01 2.65 10.78 1.35 10.85 0.03 10.93-1.38 21.58-4.97 32.7-5.07 1.13-2.09-1.36-2.25-2.66-3.01 12.64-22.4 15.49-48.31 20.56-73.11 2.58-2-4.59-2.26-6.71-1.66-2.96-0.27-5.84-1.13-8.81-1.21-3.12-1.26-6.86-1.5-11.22-0.71-3.13-0.57-6.4-0.31-9.5 0-4.43-0.8-8.22-0.55-11.4 0.74m-204.77 1.16c-12.74-0.37-3.3 21.97-5.98 31.11-3.47 4.04-0.03 16.56-0.87 23.02-1.52 11.18-5.02 33.32 13.61 28.66 1.63 2.78 7.69-0.23 10.42 0.73 6.9 0.31 13.74 1.83 20.68 1.27 1.41 2.79 7.68-0.26 10.31 0.69 9.93 4.22 19.47-6.19 20.92-15.51 2.98-22.93 5.84-45.99 6.75-69.07-7.19-3.42-21.13 0.17-30.25-0.93-4.02-3.45-16.54-0.05-22.96-0.84-7.51-0.78-15.25-0.76-22.63 0.87m126.86 0.81c-2.92-0.01-5.93 0-8.78 0.26-2.75 0.34-9.54-2.08-10.02 1-4.35-0.79-8.11-0.53-11.3 0.75-3.72 0.03-11.07-1.26-8.09 4.26-1.37 13.74-6.11 27.11-7.79 40.86-3.23 5.5 0.09 17.75-0.71 25.2-0.42 3.87-0.5 7.75-0.25 11.65 7.48 2.48 24.5 1.33 31.65-0.14 9.73-0.28 23.54 1.4 30.88-0.7 8.31-9.92 5.73-30.37 12.4-41.14 3.28-1.8-0.22-9.73 0.7-13.25 1.27-9.58 0.95-19.28 2.25-28.85-7.53-1.87-23.23-1.36-30.94 0.1m-596.26 51.17c8.02 9.51 13.92 21.74 24.09 29.17 49.82 12.6 101.06 21.07 152.18 25.64 1.17 2.62 6.69 0.2 9.18 0.89 0.78 2.72 6.77 0.15 9.11 0.95 2.86 0.34 5.69 0.08 8.58 0.15 1.34 2.32 5.72 0.64 8.26 0.82 1.05 2.79 6.71 0.29 9.16 1.02 2.52 0.17 5.06 0.23 7.61 0.16 1.32 2.32 5.67 0.64 8.18 0.81 0.97 2.5 5.69 0.81 8.15 1.04 2.53 0.18 5.08 0.23 7.65 0.15 1.34 2.32 5.68 0.64 8.21 0.81 0.97 2.5 5.65 0.82 8.1 1.02 3.26 0.42 6.51 0.26 9.82 0.25 2.78 1.34 6.46 1.64 11.02 0.88 8 0.18 15.96 1.34 23.98 1.1 1.08 3.45 9.26-0.35 12.2 0.89 3.58 0.36 7.13 0.03 10.73 0.06 1.46 3.46 9.26-0.38 12.37 0.88-0.01 3.3 9.25 0.06 11.69 1.11 4.73 0.35 9.47-0.04 14.22-0.13 2.43 2.8 11.33 0.48 15.83 1.13 2.59 3.01 10.9-0.06 15.22 0.78 4.27 0.59 8.62 0.39 12.94 0.2 2.68 1.31 6.37 1.63 11.07 0.97 0.56 2.66 7.55 0.16 9.74 1.03 3.42 0.3 6.79 0.06 10.24-0.05 2.2 2.86 11.5 0.28 15.96 0.83 6.89 0.85 13.85 0.06 20.78 0.26 15.2 2.45 38.68 1.19 54.03 0.02 7.16-0.17 14.41 0.5 21.54-0.27 4.38-0.38 14.18 1.92 16.11-0.8 23.18 0.17 46.39 0.11 69.58 0.01 1.92 3 10.92-0.02 15.01 0.81 7.47 0.44 16.02 1.18 22.76-1.67 11.37-1.04 22.78-1.23 34.21-1.13 3.23 2.81 18.24 1.12 21.44-0.01 3.6-0.41 10.58 1.72 12.31-0.93 1.68-0.07 5.05-0.21 6.73-0.29 2.37-0.27 9.29 2.45 9.1-0.85 3.3 0.38 6.53 0.13 9.88-0.14 4.41 0.82 8.21 0.55 11.42-0.81 2.35-0.53 8.89 2.36 8.8-0.89 1.7-0.08 5.1-0.25 6.8-0.33 2.52-0.02 7.16 1.59 8.4-0.71 22.09-0.62 43.79-5.38 65.89-6.03 1.7 2.57 11.5 1.47 12.9 0.09 26.5-5.26 53.4-9.52 79.9-14.17 2-8.12 21-24.44 7.2-27.87-27.8 8.85-57.1 8.92-85.7 12.35-2.4-0.01-7.7-1.64-8.1 0.77-2.5 0.52-9-2.43-9.2 0.89-2.9 0.08-6-0.54-8.7 0.28-2.2 0.26-9.9-2.51-9 0.81-2.5 0.55-9.16-2.42-9.27 0.91-2.63-0.17-5.21-0.07-7.73 0.3-2.5 0.04-7.26-1.61-8.34 0.73-9.19 0.54-18.33 2.06-27.55 1.9-7.58-0.16-15.15 0.05-22.7 0.33-14.22-0.66-28.49-0.16-42.71-0.23-2.37 0.37-7.26-1.34-7.94 0.97-4.61 0.3-9.25 0.62-13.79 1.3-2.29 0.22-9.38-2.44-8.97 0.87-3.42-0.43-6.97-0.21-10.35 0.07-11.59-0.75-23.3-0.2-34.91-0.05-7.08-0.66-14.24-0.08-21.32-0.05-3.98-3.5-16.47 0.03-22.87-0.95-4.7-1.46-5.84 4.58-9.67 5.24-2.45-0.09-7.11-1.76-8.17 0.6-3.32-0.07-6.61 0.76-9.83 1.29-4.36-0.85-8.11-0.62-11.26 0.68-1.97 0.01-3.94-0.02-5.89 0.01-1.16-2.69-7.6 0.01-10.03-1-7.34-0.16-14.66-0.01-21.98 0-6.69-3.14-19.48-0.01-27.95-0.87-7.08-3.56-20.22 0.02-29.04-0.98-9.33-0.51-18.69-0.04-28.01-0.14-6.92-3.29-20.21 0.09-28.95-0.89-7.08-3.55-20.23 0.07-29.05-1.03-9.33-0.4-18.68 0-28-0.08-6.92-3.29-20.21 0.09-28.95-0.89-6.73-3.03-18.68-0.36-27.04-0.95-11.39-0.54-22.83-0.21-34.22 0.04-0.87-2.79-6.75-0.3-9.06-0.95-17.32-2.04-34.22-7.38-51.77-7.28-7.22-3.24-21.04 0.06-30.14-0.65-10.97-3.63-22.3-7.05-33.9-7.35-5.77-2.98-17.28-0.09-24.93-1.92-7.53-3.91-17.56-3.94-26.04-5.01-1.35-2.79-7.72 0.14-10.27-0.77-21.36 0.3-41.33-7.71-61.79-12.29-1.64-3.23-9.66 0.19-13.09-0.69-7.29-1.56-14.75-1.24-22.1-2.17m30.66 43.58c13.54 32.45 27.33 65.13 43.61 96.38 2.23 23.06 11.77 44.41 16.94 66.95 18.89 71.36 33.71 143.73 51.6 215.34 9.15 24.98 2.25 52.57 11.76 77.39 8.37 48.34 16.37 96.73 24.76 145.08 1.64 4.68 6.29 7.39 8.5 11.81 33.63 6.65 67.27 13.35 100.68 21.14 64.54 8.35 129.74 9.64 194.57 13.15 45.1-10.52 93.05-6.39 138.85-12.27 10.79-5.99 26.45 4.89 34.06-5.25 30.39 0.71 60.29-9.97 90.62-12.99 7.04-42.09 10.49-84.93 15.83-127.31 9.19-36.76 17.72-73.68 23.89-111.06 15.31-45.9 33.21-90.99 49.5-136.55 20.25-40.15 38.75-81.43 64.45-118.54 14.6-37.59 41.8-72.14 64-107 2.9-3.81-5.4-4.59-7.8-2.66-34.6 10.69-71.2 10.44-106.94 14.15-53.81 5.32-108.91 7.67-163.21 11.6-50.64-4.05-101.61-3.67-152.21-0.07-54.03-2.48-108.31-1.4-162.09-8.96-7.98-4.87-18.36 9.78-23.5-0.39-105.89 0.07-213.67-7.09-317.87-29.94m154.81 621.25c0.67 8.03 4.41 15.33 6.93 22.84 14.06 8.53 31.46 6.48 46.75 11.12 0.47 2.02 2.7 2.61 4.46 3.09 4.33 3.07 17.25-0.07 24.02 0.85 36.55 4.95 72.56 15.01 109.56 16.08 1.29 2.33 5.68 0.6 8.19 0.73 4.89 1.05 9.86 1.63 14.88 1.31 0.26 0.26 0.77 0.76 1.03 1.02 25.26 2.24 55.03 0.54 81.96 0.78 15.68-0.11 33.96 1.37 48.05-0.8 3.56-0.09 7.16 0.39 10.69-0.32 2.51-0.03 7.18 1.6 8.36-0.69 15.14-1.62 30.34-4.06 45.64-3.81 10.16-0.41 20.34 0.02 30.52-0.26 38.94-5.46 73.46-10.76 112.38-17.06 1.27-8.53 9.17-19.64 7.11-26.88-1.43-1.69-12.88-1.88-14.63-0.02-51.19 7.39-102.38 15.3-153.86 20.38-2.44 0-7.24-1.63-8.18 0.73-8.23 1.23-16.67 0.57-24.82 2.24-2.53 0.04-7.09-1.6-8.34 0.74-3.04 0.51-7.78-1.56-9.84 0.98l-0.98-0.01c-7.49-3.26-20.87 0.07-30.05-0.85-14.66-0.53-29.36 0.01-44.02-0.16-18.33-2.33-40.99-0.46-60.97-0.93-13.89-2.92-32.87-0.13-48.43-1.05-52.99-4.37-104.68-18.71-156.41-30.05m10.03 39.69c1.31 4.49 0.12 9.72 3.72 13.38 15.08 19.05 27.69 39.86 40.67 60.35 17.2 17.4 37.21 32.1 55.11 48.9 21.51 11.4 43.56 23.2 67.97 27 4.87 0 6.11 6.7 11.35 5.7 1.34 2.6 6.56-0.1 9.09 0.7 13.55 2.5 27.36 3.6 40.88 6.3 2.76 2.8 10.65 0 14.97 1 9.4 0.1 18.82 0.1 28.23-0.2 0.9 2.9 7.68 0 10.06 1 23.26 0.8 45.79-7.2 69.08-7.3 19.65-4.1 37.59-13.4 56.57-19.6 43.18-12.2 73.82-46.8 105.88-76.17 9.9-17.65 18.88-35.81 28.27-53.73-22.79-7.42-44.44 10.75-67.46 8.33-0.02-1.76-2.53-1.13-3.65-1.37-3.49-1.85-6.73-1.83-9.72 0.07-19.42 3.57-38.44 9.71-58.49 8.12 0.33-1.93-9.61-2.12-8.48-0.2-9.02 3.23-18.6 3.63-27.94 5.43-4.72-1-8.43-0.78-11.15 0.66-4.66-0.32-9.36-0.15-13.98 0.25-10.37-0.86-20.82-0.09-31.2-0.27-25.74 0.08-51.49-0.31-77.21 0.22-0.86-2.88-7.72-0.24-10-1.06-0.68-3.5-9.38 0.15-12.08-0.93-3.88-0.24-7.74-0.31-11.6-0.21-1.31-2.35-5.73-0.61-8.24-0.74-64.19-3.68-126.62-22.62-190.65-25.63m255.61 174.23c-15.73-1.6-35.29 8.2-34.88 26.1-5.28 14.8 3.06 28.2 8.48 41.5 15.84 13.6 35.83 25.2 57.31 22.4 8.29-4.8 16.75-9.3 24.81-14.4 4.43-8.8 10.33-17.4 13.46-26.6 3.09-4-0.11-14.4 0.81-20.2 1.8 0.1 2.02-7.2 0.21-7.7-0.45-6.1-6.73-9.9-8.24-15.9-19.56-7.1-41.49-9.4-61.96-5.2m278.67 216.4c-2.52 1.5-10.81 4.1-3.57 6.6 26.08 19.6 52.25 39.1 78.15 59 5.26-3 11.14-5.4 16-8.9-3.61-7.4-12.79-7.8-19.1-12-23.87-14.5-46.63-33.4-71.48-44.7m-21.92 5.1c-12.31 5.4-27.54 6.8-38.55 13.6 26.43 22.6 51.26 48.2 75.08 73.8 15.42-7 32.94-12.6 46.51-21.7-16.23-18.5-38.65-31.1-56.7-48-8.62-5.6-15.36-17.7-26.34-17.7m-55.35 14c-11.13 3.4-24.66 1.4-34.19 8.7 15.99 27.5 30.44 56.8 45.69 85.1 2.46 7.8 12.29 0.6 17.6 1.1 17.58-1.1 33.7-8.4 49.63-15.4-3.93-8.5-7.32-17.9-15.22-23.7-21.66-17.9-38.98-41.7-63.51-55.8m-64.76 10.2c-15.54 2.4-30.94 6.1-46.3 9.4 10.7 28 18.51 57.4 23.91 86.8 4.88 3 9.98 7.9 16.34 5.7 23.86-4.1 48.02-6.3 71.93-10.1 1.5-5.6-1.87-11.3-4.57-16.3-10.92-26.2-22.71-53.2-42.02-74.2-6.46-0.2-12.82-2.5-19.29-1.3m-100.1 12.6c-4.93-0.1-12.5-1.6-15.37 0.8-2.92 0-6.01-0.2-8.88 0.1 0.22 13 4.93 25.5 5.17 38.5 0.26 2.9-2.32 9.5 0.71 10.4 0.76 15.9 2.76 31.8 3.23 47.8 8.18 1 16.28-1 24.44-1.2 3.66 0.1 10.29 1.9 12.41-0.6 8.89 0.3 17.71-1.4 26.62-1.2 3.17 0.4 6.28 0 9.52 0 4.24 0.6 17.4-5.7 11.69-8.9-0.21-3.9 1.5-10.9-0.89-12.6-8.72-25.1-13.72-52.2-26.37-76.2-13.74 3-28.18 2.6-42.28 3.1m-93.72 6.3c-7.78 28.8-9 58.8-11.55 88.3 7.94 0.4 15.86 1.4 23.83 1.2 1.42 2.6 6.77-0.1 9.39 0.7 7.02 0.2 14.23-0.6 19.19 5.4 7.64-3.5 25.18 1.4 27.22-6.9-0.03-2.3 1.5-7.4-1-8-0.18-3.6 1.89-10.3-0.76-12.2-0.06-3.6 0.45-7.3-0.22-10.7-0.29-2.8 2.18-9.6-0.76-10.3 0.53-18.7-3.91-36.6-10.3-54-18.41 1.6-36.72 4.2-55.04 6.5z" fill="#060502"/>
  <path d="m599.53 0h12.05l0.47 0.87c-4.21 0.09-8.41-0.07-12.52-0.87z" fill="#5c5b42"/>
  <path d="m639.85 2.23c6.77-0.45 13.59-0.55 20.32 0.57-6.77 0.4-13.62 0.5-20.32-0.57z" fill="#46462e"/>
  <path d="m699.85 4.17c6.77-0.31 13.58-0.54 20.31 0.65-6.77 0.34-13.62 0.56-20.31-0.65z" fill="#31321a"/>
  <path d="m455.71 5.77c5.9-2.18 12.38-0.39 18.45-0.01-6.15 0.17-12.31 0.25-18.45 0.01z" fill="#787760"/>
  <path d="m513.71 5.73c2.77-0.9 5.61-0.52 8.52-0.45-2.75 0.96-5.7 0.57-8.52 0.45z" fill="#72725c"/>
  <path d="m738.83 5.15c6.13-0.2 12.29-0.48 18.38 0.68-6.14 0.24-12.34 0.54-18.38-0.68z" fill="#76765f"/>
  <path d="m794.81 7.16c6.13-0.23 12.3-0.48 18.4 0.67-6.15 0.25-12.35 0.5-18.4-0.67z" fill="#64634f"/>
  <path d="m852.79 9.17c9.1-0.09 18.28-0.83 27.34 0.61-9.12 0.07-18.31 0.97-27.34-0.61z" fill="#4f4f3d"/>
  <path d="m626.11 10.99c6.03-1.12 20.84-2.56 26.91 0.02-8.98 0.1-17.95-0.04-26.91-0.02z" fill="#4c3c04"/>
  <path d="m590.28 14.36c11.92-1.23 23.93-1.8 35.83-3.37 8.96-0.02 17.93 0.12 26.91 0.02 8.93-0.28 17.82 0.75 26.72 1.28 4.7 0.54 9.49 0.92 14.26 0.75 12.28-0.49 24.49 0.91 36.73 1.25 6.69 0.89 13.48 0.87 20.23 0.72 8.29-0.59 16.54 0.42 24.78 1.29 3.04 0.32 6.21 0.77 9.32 0.74 8.28 0.05 16.57 0.89 24.75 2.28 6.9 0.81 13.87 0.84 20.84 0.86 14.37 1.71 28.91 0.51 43.36 0.82 2.84-0.03 5.85-0.17 8.74 0.25 3.35 0.45 6.83 0.92 10.25 0.79 33.37 1.86 66.47 7.15 99.75 10.25 3.01 0.35 6.18 0.74 9.25 0.76 9 0.32 17.9 1.03 26.8 2.24 3 0.36 6.1 0.73 9.2 0.76 38 3.92 80.5 9.19 115.6 15.86-0.5 0.06-1.5 0.16-2 0.22-22.6-1.01-44.8-6.93-67.4-8.17-38.4-7.36-77.8-8.07-116.67-12.22-67.26-11.3-135.53-6.69-203.17-14.32-18.86-3.29-39.05 2.56-57.69-3.06-17.53-0.39-35.21 1.87-52.63-1.24-24.82-3.64-49.31 4.76-74.14 3.23-52.61 9.75-111.02-1.46-162.74 8.13-32.52 1.57-65.44 4.54-97.91 1.45l-0.35-0.88c5.35-0.07 10.73-0.01 16.09-0.03 20.8-0.91 43.13 1.61 63.11-1 10.01-1.33 21.3-2.53 31.89-4 2.76 0.07 5.64 0.3 8.29-0.7 3.47-0.74 7.16-0.23 10.7-0.32 16.34 0.03 32.68 0 49.02 0.02 11.97-0.04 23.95-0.05 35.92 0 3.76-0.01 7.51-0.28 11.26-0.78 2.68-0.08 5.5 0.02 8.1-0.92 9.48-1.3 19.13-1.31 28.66-2.29 2.76 0.07 5.65 0.26 8.34-0.67z" fill="#b19216"/>
  <path d="m579.9 16.35c24.83 1.53 49.32-6.87 74.14-3.23 17.42 3.11 35.1 0.85 52.63 1.24 18.64 5.62 38.83-0.23 57.69 3.06 67.64 7.63 135.91 3.02 203.17 14.32 38.87 4.15 78.27 4.86 116.67 12.22-27.4-0.58-54.5-5.41-81.7-7.29-24.38-4.36-49.23-0.16-73.68-3.12-57.48-4.21-114.54-9.38-171.88-2.64-38.44 6.37-77.72-1.63-116.02 6.51-53.86-2.2-108.72 2.99-163.04 7.02-28.84-4-57.31 5.11-85.93 6.64-5.15 2.1-9.99 5.18-14.03 9 4.27 7.46 15.73 5.15 22.56 9.59 68.88 21.42 141.81 23.6 213.21 32.52 70.33 6.68 141.45 9.71 212.16 8.32 25.65 3.63 53.31-3.57 79.72 0.93 22.19 0.6 45.57-4.58 66.34-0.72 70.09-8.51 140.79-12.05 210.59-18.2 17-6.15 35.3-5.42 52.6-10.28 2.8-0.89 6.6-2.65 4.6-6.61-7-10.06-21.2-10.61-31.7-11.49-16.7-9.17-38.3-6.45-56.4-12.01 0.5-0.06 1.5-0.16 2-0.22 27.4-0.01 53.5 9.45 80 15.56 9 0.69 14.8 8.86 18.5 16.38-27.4 12.11-59.7 8.23-87.4 19.2-5.3-0.02-10.5-0.12-15.7-0.07-18.3-1.92-35.4 7.49-53.7 5.77-4.5-0.34-9.3-1.95-13.7-0.01-4.1 0.74-8.4 0.09-12.5 0.25-3.8-0.02-7.6 0.2-11.3 0.67-55.5 5.87-111.15 10.76-166.73 15.33-4.13 0.01-8.37-0.39-12.36 0.76-4.03 0.27-8.1 0.07-12.03 0.94-3.17 0.58-6.3 0.56-9.42 0.02-7.04-1-14.16-0.85-21.23-0.73-8.06-0.82-15.98 0.81-23.98 1.02-3.18-0.1-6.34-0.6-9.29 0.71-11.7 1.92-23.77 1.62-35.59 1.03-2.81-0.29-5.47-0.68-8.24-0.81-14.7-1.31-29.95-4.57-44.03 1.11-2.55-0.06-5.07-0.13-7.58-0.22-22.65-1.94-45.47-0.21-68.19-0.88-35.89-5.42-76.02-0.8-113.88-3.19-129.22-4.29-256.61-18.3-384.74-36.97 14.53-18.21 34.57-36.21 52.13-53.2 25.1-2.81 50.4-3.92 75.86-4.11 15.94-6.02 35.15 2.63 50.75-4.54 32.47 3.09 65.39 0.12 97.91-1.45 51.72-9.59 110.13 1.62 162.74-8.13z" fill="#bd9907"/>
  <path d="m679.74 12.29c3.94 0.85 12.02-2.38 14.26 0.75-4.77 0.17-9.56-0.21-14.26-0.75z" fill="#5d4c0a"/>
  <path d="m364.75 14.75c2.74-0.91 5.58-0.56 8.46-0.5-2.73 0.95-5.65 0.6-8.46 0.5z" fill="#68694c"/>
  <path d="m581.94 15.03c1.14-2.32 5.83-0.71 8.34-0.67-2.69 0.93-5.58 0.74-8.34 0.67z" fill="#665310"/>
  <path d="m730.73 14.29c5.86 0.8 16.28-2.43 20.23 0.72-6.75 0.15-13.54 0.17-20.23-0.72z" fill="#675612"/>
  <path d="m323.74 16.77c5.44-0.94 10.97-0.74 16.48-0.56-5.45 1.01-10.99 0.77-16.48 0.56z" fill="#595940"/>
  <path d="m775.74 16.3c2.49 0.7 7.94-1.88 9.32 0.74-3.11 0.03-6.28-0.42-9.32-0.74z" fill="#6e5d19"/>
  <path d="m926.79 16.12c3.51-0.26 6.91 0.2 10.42 0.71-3.48 0.34-7.02-0.13-10.42-0.71z" fill="#5b5a3f"/>
  <path d="m545.18 18.24c0.64-2.44 5.72-0.98 8.1-0.92-2.6 0.94-5.42 0.84-8.1 0.92z" fill="#4b3800"/>
  <path d="m281.75 18.8c5.43-1 10.96-0.77 16.46-0.56-5.45 0.92-10.98 0.76-16.46 0.56z" fill="#45452d"/>
  <path d="m448.98 19c13.65-1.11 35.54-2.51 49.02 0.02-16.34-0.02-32.68 0.01-49.02-0.02z" fill="#7e6c20"/>
  <path d="m533.92 19.02c3.13-1.3 6.88-1.56 11.26-0.78-3.75 0.5-7.5 0.77-11.26 0.78z" fill="#7d6a1f"/>
  <path d="m959.82 18.23c3.79-0.02 7.59 0.16 11.4 0.53-3.83 0.06-7.63-0.12-11.4-0.53z" fill="#47462c"/>
  <path d="m429.99 20.02c1.05-2.32 5.81-0.67 8.29-0.7-2.65 1-5.53 0.77-8.29 0.7z" fill="#5b4700"/>
  <path d="m809.81 19.32c6.25 0.21 16.95-1.81 20.84 0.86-6.97-0.02-13.94-0.05-20.84-0.86z" fill="#574400"/>
  <path d="m223.62 20.86c6.2-2.5 13.23-0.19 19.71-0.72-6.17 2.57-13.26 0.14-19.71 0.72z" fill="#34321b"/>
  <path d="m830.65 20.18c13.81 0.64 31.24-1.94 43.36 0.82-14.45-0.31-28.99 0.89-43.36-0.82z" fill="#8c7829"/>
  <path d="m181.67 21.74c7.4-1.61 15.08-0.53 22.59-0.55-7.32 1.93-15.12 0.47-22.59 0.55z" fill="#74755f"/>
  <path d="m882.75 21.25c2.52 0.99 8.87-1.96 10.25 0.79-3.42 0.13-6.9-0.34-10.25-0.79z" fill="#675403"/>
  <path d="m1001.9 21.12c3.1-0.08 6.1 0.38 9.3 0.72-3.1 0.19-6.3-0.35-9.3-0.72z" fill="#74725b"/>
  <path d="m134.69 23.82c3.36-1.56 7.1-0.71 10.65-0.62-3.38 1.45-7.1 0.74-10.65 0.62z" fill="#5e604a"/>
  <path d="m1028.8 23.16c2.9 0.1 5.5 0.46 8.4 0.69-2.8-0.11-5.6-0.49-8.4-0.69z" fill="#676550"/>
  <path d="m318.9 25.05c3.38-2.8 11.27-0.29 16.09-1.04v1.01c-5.36 0.02-10.74-0.04-16.09 0.03z" fill="#3f3000"/>
  <path d="m334.99 24.01c21.03-0.03 42.07-0.04 63.11 0.01-19.98 2.61-42.31 0.09-63.11 1v-1.01z" fill="#a58f36"/>
  <path d="m304.03 26.02c2.77-2.38 10.08-0.83 14.87-0.97l0.35 0.88c-5.08 0.01-10.15 0.16-15.22 0.09z" fill="#80670e"/>
  <path d="m273.01 27c2.85-2.37 10.32-0.91 15.19-0.7-5.05 0.57-10.12 0.95-15.19 0.7z" fill="#4d3d03"/>
  <path d="m288.2 26.3c5.25-0.48 10.55-0.34 15.83-0.28 5.07 0.07 10.14-0.08 15.22-0.09-15.6 7.17-34.81-1.48-50.75 4.54-25.46 0.19-50.76 1.3-75.86 4.11-17.56 16.99-37.6 34.99-52.13 53.2 128.13 18.67 255.52 32.68 384.74 36.97 37.86 2.39 77.99-2.23 113.88 3.19-0.49 0.01-1.49 0.03-1.98 0.04-17.64-0.07-35.26 0.22-52.89-0.14-15.34-1.84-30.86-0.44-46.27-0.83-3.92 0.1-7.83-0.01-11.71-0.3-6.65-0.91-13.34-0.62-20.02-0.88-6.69-1.06-13.46-1-20.2-0.83-3.94 0.11-7.86 0.01-11.77-0.28-4.76-0.52-9.51-0.95-14.29-0.74-7.62 0.45-15.18-0.5-22.74-1.28-3.13-0.33-6.2-0.82-9.33-0.73-40.77-1.59-81.2-7.32-121.76-11.26-2.78-0.3-5.49-0.67-8.25-0.77-64.21-4.95-127.8-15.96-191.45-25.4-29.48-9.23-60.75-15.05-88.55-28.58 6.39-3.22 12.09-9.17 19.24-10.95 3.04 0.08 6.16 0.4 9.08-0.65 29.77-4.74 59.89-7.6 89.78-11.41 4.98 0.05 9.98 0.16 14.97 0.05 9.98 0.02 19.97-0.09 29.96 0.04 3.15 0.14 6.4 0.49 9.38-0.75 6.23-0.05 12.38-1.54 18.62-1.28 3.46 0.06 7.11 0.65 10.4-0.74 6.54 0.08 12.98-1.44 19.52-1.28 3.82 0.02 7.62-0.21 11.42-0.68 7.6-0.05 15.1-1.76 22.72-1.31 5.07 0.25 10.14-0.13 15.19-0.7z" fill="#b8950b"/>
  <path d="m756.94 30.91c57.34-6.74 114.4-1.57 171.88 2.64 24.45 2.96 49.3-1.24 73.68 3.12 27.2 1.88 54.3 6.71 81.7 7.29 22.6 1.24 44.8 7.16 67.4 8.17 18.1 5.56 39.7 2.84 56.4 12.01-64.4-12.94-130.4-16.55-195.3-23.17-33.38 2.49-67.28-4.65-100.44-3.93-36.57-2.59-73.32 6.78-109.96 3.68-53.85 4.74-107.86 2.44-161.68 8.82-25.89-2.46-51.21 4.99-76.88 7.23-7.54 1.58-8.17 9.39-0.31 9.26 34.33 12.37 70.73 15.84 106.15 22.42 88.43 8.48 182.08 16.69 273.14 13.47 16.58-3.29 34.76 4.57 51.56-1.49 46.02 2.86 92.42-5.88 137.72-8.53 34.9-0.1 68.5-6.63 102.6-14.38-1-7.05-11.1-9.91-17.7-10.44-2.8-0.69-5.7-1.31-8.4-2.32l-0.5-0.62c10.5 0.88 24.7 1.43 31.7 11.49 2 3.96-1.8 5.72-4.6 6.61-17.3 4.86-35.6 4.13-52.6 10.28-69.8 6.15-140.5 9.69-210.59 18.2-20.77-3.86-44.15 1.32-66.34 0.72-26.41-4.5-54.07 2.7-79.72-0.93-70.71 1.39-141.83-1.64-212.16-8.32-71.4-8.92-144.33-11.1-213.21-32.52-6.83-4.44-18.29-2.13-22.56-9.59 4.04-3.82 8.88-6.9 14.03-9 28.62-1.53 57.09-10.64 85.93-6.64 54.32-4.03 109.18-9.22 163.04-7.02 38.3-8.14 77.58-0.14 116.02-6.51z" fill="#c7a109"/>
  <path d="m238.87 28.99c3.23-1.28 7.04-1.51 11.42-0.68-3.8 0.47-7.6 0.7-11.42 0.68z" fill="#58490a"/>
  <path d="m208.95 31.01c0.94-3 7.47-0.47 10.4-0.74-3.29 1.39-6.94 0.8-10.4 0.74z" fill="#655612"/>
  <path d="m136.02 32.95c2.03-1.77 13-1.78 14.97 0.05-4.99 0.11-9.99 0-14.97-0.05z" fill="#6e5e19"/>
  <path d="m180.95 33.04c0.57-3.31 6.79-0.48 9.38-0.75-2.98 1.24-6.23 0.89-9.38 0.75z" fill="#716119"/>
  <path d="m992.75 32.29c2.45 0.71 7.95-1.87 9.25 0.76-3.07-0.02-6.24-0.41-9.25-0.76z" fill="#705e17"/>
  <path d="m1028.8 35.29c2.4 0.71 7.9-1.87 9.2 0.76-3.1-0.03-6.2-0.4-9.2-0.76z" fill="#524100"/>
  <path d="m802.3 40.72c36.64 3.1 73.39-6.27 109.96-3.68 33.16-0.72 67.06 6.42 100.44 3.93 64.9 6.62 130.9 10.23 195.3 23.17l0.5 0.62c-45.6-6.6-92.5-11.94-138.6-15.67-41.4-0.48-83.19-6.19-124.42-0.84-18.27 0.69-43.34-0.58-64.35 3.46-39.07-1.96-78.36 2.66-117.55 4.76-9.56 2.25-22.23-0.14-28.7 8.53 19.77 6 39 13.19 55.88 13.4 87.64 13.09 178 17.65 267.04 13.95 31.2 2.11 62-5.81 92.3-6.33 25.9-0.1 51.9-4.31 76.9-9.9 2.7-4.84-6.6-6.92-10.1-9.04 6.6 0.53 16.7 3.39 17.7 10.44-34.1 7.75-67.7 14.28-102.6 14.38-45.3 2.65-91.7 11.39-137.72 8.53-16.8 6.06-34.98-1.8-51.56 1.49-91.06 3.22-184.71-4.99-273.14-13.47-35.42-6.58-71.82-10.05-106.15-22.42-7.86 0.13-7.23-7.68 0.31-9.26 25.67-2.24 50.99-9.69 76.88-7.23 53.82-6.38 107.83-4.08 161.68-8.82z" fill="#cea709"/>
  <path d="m37.16 45.01c0.29-3.28 6.63-0.45 9.08-0.65-2.92 1.05-6.04 0.73-9.08 0.65z" fill="#584809"/>
  <path d="m945.48 48.25c41.23-5.35 83.02 0.36 124.42 0.84 46.1 3.73 93 9.07 138.6 15.67 2.7 1.01 5.6 1.63 8.4 2.32 3.5 2.12 12.8 4.2 10.1 9.04-25 5.59-51 9.8-76.9 9.9-30.3 0.52-61.1 8.44-92.3 6.33-89.04 3.7-179.4-0.86-267.04-13.95-16.88-0.21-36.11-7.4-55.88-13.4 6.47-8.67 19.14-6.28 28.7-8.53 39.19-2.1 78.48-6.72 117.55-4.76 21.01-4.04 46.08-2.77 64.35-3.46m114.02 6.15c-40.1 5.19-81.25 4.34-121.64 6.35-5.71 5.68-21.65-3.28-21.79 7.24 20.98 6.8 45.15 10.93 69.07 12.51 78.66 7.02 160.86 6.64 237.86-6.39-4.1-7.99-15.6-5.58-22.5-8.68-47.1-7.15-93.8-9.63-141-11.03z" fill="#d5ac0a"/>
  <path d="m1059.5 54.4c47.2 1.4 93.9 3.88 141 11.03 6.9 3.1 18.4 0.69 22.5 8.68-77 13.03-159.2 13.41-237.86 6.39-23.92-1.58-48.09-5.71-69.07-12.51 0.14-10.52 16.08-1.56 21.79-7.24 40.39-2.01 81.54-1.16 121.64-6.35z" fill="#dab10a"/>
  <path d="m37.37 76.65c6.62 1.72 14.46 3 19.77 7.18-4.63-2.23-7.65 1.78-10.32 5.11-2.91-3.33-6.8-8.19-9.45-12.29z" fill="#e9bf15"/>
  <path d="m46.82 88.94c2.67-3.33 5.69-7.34 10.32-5.11 84.76 21.49 171.98 29.11 258.72 38.42 2.66 0.27 5.36 0.72 8.05 0.98 2.7 0.28 5.45 0.76 8.2 0.82 1.66 0.06 4.98 0.17 6.64 0.23 2.78 0.16 5.58 0.77 8.4 0.77 2.52-0.07 5.04-0.01 7.57 0.17 3.33 0.41 6.71 0.86 10.08 0.98 3.05 0.33 6.16 0.94 9.27 0.84 2.86-0.01 5.8-0.18 8.67 0.18 3.32 0.42 6.69 0.86 10.05 0.98 3.37 0.41 6.8 1.01 10.23 0.84 2.87-0.04 5.84-0.18 8.73 0.18 3.31 0.43 6.68 0.86 10.04 0.98 3.06 0.32 6.17 0.92 9.28 0.84 2.56-0.14 5.11-0.09 7.67 0.15 1.56 0.28 4.69 0.85 6.26 1.14 3.28 0.42 6.64 0.84 9.98 0.69 2.6-0.15 5.19-0.07 7.79 0.23 2.75 0.3 5.58 0.8 8.39 0.8 5.6-0.35 11.14 0.46 16.67 1.25 2.72 0.28 5.53 0.72 8.31 0.74 2.53-0.08 5.07-0.03 7.61 0.16 2.4 0.37 4.8 0.73 7.23 1.09 2.67 0.24 5.41 0.77 8.13 0.73 1.87 0.01 3.75-0.02 5.62 0.2 2.99 0.36 6.06 0.81 9.1 0.99 3.3 0.37 6.65 0.84 9.99 0.98 23.4 1.35 47.1 1.4 70.5-0.04 17.23-0.32 34.48-0.08 51.72-0.13 13.02-0.52 26.46 0.3 39.29-1.84 5.89-0.76 12.29 1.2 17.97-1.02 6.21-0.22 12.44-0.11 18.68-0.13 36.38-0.78 73.27 1.34 109.37-0.91 10.62-0.74 21.49 1.06 31.99-0.94 10.28-0.49 20.64 0.47 30.9-0.85 7.89-0.79 15.17-4.06 22.94-5.33 19.36-1.18 41.82 2.04 59.8-1.01l0.21-0.96c35.51-0.52 70.41-8.29 105.71-10.01 4.4-0.23 9.1 0.94 13.4-0.74 3.6-0.29 7.2-0.62 10.9-1.01 11.7-4.09 26.5 0.32 36.2-6.41 10.3-0.93 23.6 2.24 32.6-0.85l0.2-0.96c13.6 1.32 25.9-5.63 39-8.16 3.3-0.03 6.9-0.2 10.2 0.78-5.7 16.46-20 31.5-38.3 31.4-33.8 4.89-67.5 10.17-101.2 15.01-3.6-0.06-7.1-0.1-10.7-0.21-2.9-0.59-5.8-1.78-8.5-0.14-50.3 6.21-100.73 10.09-150.81 17.28-3.68-0.02-7.24-0.07-10.88-0.01-12.72-0.74-25.33 0.99-37.98 1.96-2.88-0.03-5.66-0.3-8.33 0.75-7.5 0.59-15.21-0.15-22.52-2.09-6.37-0.76-12.75-0.74-19.13-0.65-4.96 1.18-13.41-2.19-16.99 1.03l-0.26 0.96c-3.93 0.12-7.85 0.12-11.74 0.01-3.21-0.07-6.44-0.61-9.39 0.78-3.88 0.36-7.77 0.45-11.66 0.26-27.92-0.15-55.84 0.21-83.75-0.15-42.24-2.08-84.67-0.16-126.98-0.95-10.59-1.78-21.35-0.56-32-1.04-5.64-1.01-11.36-0.92-17.04-0.93l-0.98-0.1c-11.35-1.64-22.85-0.63-34.27-0.86-4.94-0.04-9.85 0.08-14.77-0.15-4.72-0.67-9.45-1.05-14.2-0.85-3.93 0.12-7.84 0.04-11.74-0.24-4.36-0.43-8.7-0.82-13.06-0.92-4.08-0.61-8.16-0.92-12.26-0.84-3.91 0.1-7.8 0.02-11.67-0.24-4.37-0.43-8.71-0.82-13.07-0.92-3.77-0.59-7.55-0.86-11.34-0.82-2.9-0.05-5.75 0.13-8.61-0.21-3.06-0.42-6.05-0.85-9.11-1.03-3.4-0.39-6.75-0.98-10.16-0.8-2.95 0.03-5.84 0.22-8.74-0.21-3.12-0.37-6.17-0.8-9.29-0.8-37.68-2.76-75.2-7.21-112.8-11.19-2.38-0.37-4.76-0.71-7.14-1.03-2.73-0.24-5.4-0.72-8.12-0.78-51.46-6.97-102.85-18.89-153.38-28.3-3.77-5.9-8.2-11.43-11.42-17.66-0.87-2.37-2.15-4.61-4.29-6.05z" fill="#faca04"/>
  <path d="m46.82 88.94c2.14 1.44 3.42 3.68 4.29 6.05-2.66-0.81-3.59-3.66-4.29-6.05z" fill="#d3b125"/>
  <path d="m1235.2 98.89c-0.1-2.13 13.8-1.56 10.2 0.78-3.3-0.98-6.9-0.81-10.2-0.78z" fill="#a7902e"/>
  <path d="m1149 102.98c5.2-0.05 10.4 0.05 15.7 0.07-1.6 1.14-13.8 2.58-15.7-0.07z" fill="#493c04"/>
  <path d="m1163 108c9.2-2.28 22.4-0.55 33.2-0.95l-0.2 0.96c-11-0.01-22-0.01-33-0.01z" fill="#321e00"/>
  <path d="m1081.6 108.74c4.4-1.94 9.2-0.33 13.7 0.01-4.6 0.11-9.2 0.61-13.7-0.01z" fill="#654d00"/>
  <path d="m1163 108c11 0 22 0 33 0.01-9 3.09-22.3-0.08-32.6 0.85l-0.4-0.86z" fill="#e9c83f"/>
  <path d="m1057.8 109.66c3.7-0.47 7.5-0.69 11.3-0.67-3.2 1.3-7 1.52-11.3 0.67z" fill="#8c7627"/>
  <path d="m297.92 109.94c2.76 0.1 5.47 0.47 8.25 0.77-2.53-0.16-6.99 1.6-8.25-0.77z" fill="#513e00"/>
  <path d="m1115.3 116.12c0.9-2.89 8.5-0.4 11.9-0.85-3.7 0.39-7.3 0.72-10.9 1.01l-1-0.16z" fill="#735800"/>
  <path d="m1102.9 117.02c1.9-2.63 8.7-0.66 12.4-0.9l1 0.16c-4.3 1.68-9 0.51-13.4 0.74z" fill="#bfa332"/>
  <path d="m315.86 122.25c2.42 0.15 7.08-1.49 8.05 0.98-2.69-0.26-5.39-0.71-8.05-0.98z" fill="#6a5503"/>
  <path d="m427.93 121.97c3.13-0.09 6.2 0.4 9.33 0.73-2.6-0.71-7.9 1.88-9.33-0.73z" fill="#725c05"/>
  <path d="m323.91 123.23c2.51 0.19 6.89-1.51 8.2 0.82-2.75-0.06-5.5-0.54-8.2-0.82z" fill="#b49412"/>
  <path d="m338.75 124.28c2.57 0.15 7.05-1.58 8.4 0.77-2.82 0-5.62-0.61-8.4-0.77z" fill="#7b660e"/>
  <path d="m460 123.98c4.78-0.21 9.53 0.22 14.29 0.74-4-0.86-12.03 2.37-14.29-0.74z" fill="#624d01"/>
  <path d="m72.92 125.12c14.41 3.8 29.4 5.61 43.72 9.21 17.35 24.41 23.65 54.72 36.39 81.63-5.43-1.51-10.87-2.98-16.25-4.62-20.05-29.57-47.05-54.72-63.86-86.22z" fill="#c7c835"/>
  <path d="m354.72 125.22c2.34 0.89 9.15-1.88 10.08 0.98-3.37-0.12-6.75-0.57-10.08-0.98z" fill="#463000"/>
  <path d="m486.06 125c6.74-0.17 13.51-0.23 20.2 0.83-5.88-0.94-16.26 2.29-20.2-0.83z" fill="#867426"/>
  <path d="m878.71 125.75c3.99-1.15 8.23-0.75 12.36-0.76-2.13 2.64-8.68 0.57-12.36 0.76z" fill="#8a7527"/>
  <path d="m364.8 126.2c2.51 0.72 7.88-1.76 9.27 0.84-3.11 0.1-6.22-0.51-9.27-0.84z" fill="#8a7114"/>
  <path d="m506.26 125.83c6.68 0.26 13.37-0.03 20.02 0.88-5.65-0.77-16.64 2.52-20.02-0.88z" fill="#564201"/>
  <path d="m836.03 125.98c7.07-0.12 14.19-0.27 21.23 0.73-6.56-0.4-16.53 1.93-21.23-0.73z" fill="#544100"/>
  <path d="m866.68 126.69c3.93-0.87 8-0.67 12.03-0.94-1.15 2.77-8.64 0.86-12.03 0.94z" fill="#544200"/>
  <path d="m382.74 127.22c2.33 0.89 9.13-1.88 10.05 0.98-3.36-0.12-6.73-0.56-10.05-0.98z" fill="#5b4100"/>
  <path d="m537.99 127.01c15.41 0.39 30.93-1.01 46.27 0.83-15.08-0.35-32.8 1.47-46.27-0.83z" fill="#7b691e"/>
  <path d="m802.76 127.71c2.95-1.31 6.11-0.81 9.29-0.71-0.85 3.23-6.66 0.43-9.29 0.71z" fill="#7e6b1e"/>
  <path d="m938.99 127.99c17.47-2.3 39.11-0.41 58.2-0.96l-0.21 0.96c-19.34 0.01-38.66 0.03-57.99 0z" fill="#553d00"/>
  <path d="m392.79 128.2c2.54 0.98 8.86-1.9 10.23 0.84-3.43 0.17-6.86-0.43-10.23-0.84z" fill="#96801c"/>
  <path d="m584.26 127.84c17.63 0.36 35.25 0.07 52.89 0.14l-0.17 0.99c-16.88-0.9-38.02 1.88-52.72-1.13z" fill="#473500"/>
  <path d="m637.15 127.98c0.49-0.01 1.49-0.03 1.98-0.04 22.72 0.67 45.54-1.06 68.19 0.88-23.44 0.36-46.9 0.16-70.34 0.15l0.17-0.99z" fill="#ae9327"/>
  <path d="m758.93 127.93c2.77 0.13 5.43 0.52 8.24 0.81-2.52-0.18-6.96 1.54-8.24-0.81z" fill="#473400"/>
  <path d="m937.18 129c0.45-0.25 1.36-0.76 1.81-1.01 19.33 0.03 38.65 0.01 57.99 0-17.98 3.05-40.44-0.17-59.8 1.01z" fill="#ebc633"/>
  <path d="m411.75 129.22c2.33 0.89 9.11-1.88 10.04 0.98-3.36-0.12-6.73-0.55-10.04-0.98z" fill="#694e00"/>
  <path d="m707.32 128.82c2.51 0.09 5.03 0.16 7.58 0.22-0.33 1.8-7.73 1.58-7.58-0.22z" fill="#695b16"/>
  <path d="m421.79 130.2c2.52 0.71 7.89-1.76 9.28 0.84-3.11 0.08-6.22-0.52-9.28-0.84z" fill="#a99026"/>
  <path d="m438.74 131.19c2.4 0.3 7.52-1.52 8.14 0.89-0.47 0.06-1.41 0.19-1.88 0.25-1.57-0.29-4.7-0.86-6.26-1.14z" fill="#765b00"/>
  <path d="m445 132.33c0.47-0.06 1.41-0.19 1.88-0.25 2.36 0.34 7.25-1.54 8.1 0.94-3.34 0.15-6.7-0.27-9.98-0.69z" fill="#c6a932"/>
  <path d="m462.77 133.25c2.58 0.22 6.99-1.56 8.39 0.8-2.81 0-5.64-0.5-8.39-0.8z" fill="#8d7103"/>
  <path d="m883.34 135.18c7.5-2.65 21.11-0.73 30.9-0.85-10.26 1.32-20.62 0.36-30.9 0.85z" fill="#443400"/>
  <path d="m487.83 135.3c2.54 0.14 6.96-1.61 8.31 0.74-2.78-0.02-5.59-0.46-8.31-0.74z" fill="#917503"/>
  <path d="m851.35 136.12c7.89-2.47 21.81-0.72 31.99-0.94-10.5 2-21.37 0.2-31.99 0.94z" fill="#9a7c03"/>
  <path d="m129.92 136.09c19.08 3.68 38.41 5.9 57.5 9.41 8.39 25.03 17.22 49.93 25.16 75.1 3.47 6.68-3.17 6.02-6.9 4.81-13-3.23-26.19-5.65-39.23-8.66-12.36-26.67-25.6-53.25-36.53-80.66z" fill="#c8c934"/>
  <path d="m503.75 136.2c2.43 0.25 7.38-1.5 8.17 0.97l-0.94 0.12c-2.43-0.36-4.83-0.72-7.23-1.09z" fill="#523e00"/>
  <path d="m723.3 137.16c3.67-2.37 12.64-0.97 18.7-1.13l-0.02 1c-6.24 0.02-12.47-0.09-18.68 0.13z" fill="#564300"/>
  <path d="m742 136.03c36.45 0 72.91-0.17 109.35 0.09-36.1 2.25-72.99 0.13-109.37 0.91l0.02-1z" fill="#e1c146"/>
  <path d="m510.98 137.29l0.94-0.12c2.2 0.17 6.09-1.35 7.19 0.85-2.72 0.04-5.46-0.49-8.13-0.73z" fill="#a6870a"/>
  <path d="m704.35 138.07c3.46-2.16 12.84-1.05 18.95-0.91-5.68 2.22-12.08 0.26-17.97 1.02l-0.98-0.11z" fill="#aa8c0b"/>
  <path d="m524.73 138.22c2.34 0.69 8.14-1.75 9.1 0.99-3.04-0.18-6.11-0.63-9.1-0.99z" fill="#665201"/>
  <path d="m666.06 139.02c4.55-2.15 13.56-1.1 20.13-0.72-6.69 0.97-13.42 0.73-20.13 0.72z" fill="#695605"/>
  <path d="m686.19 138.3c6.02-0.44 12.11-0.58 18.16-0.23l0.98 0.11c-12.83 2.14-26.27 1.32-39.29 1.84l0.02-1c6.71 0.01 13.44 0.25 20.13-0.72z" fill="#edc734"/>
  <path d="m533.83 139.21c3.33-0.12 6.79-0.52 10.14 0.01l-0.15 0.97c-3.34-0.14-6.69-0.61-9.99-0.98z" fill="#ba9b14"/>
  <path d="m543.97 139.22c23.3-0.3 46.68-0.49 69.97 0.01l0.38 0.92c-23.5-0.17-47.01-0.36-70.5 0.04l0.15-0.97z" fill="#341d00"/>
  <path d="m613.94 139.23c17.36-0.51 34.75-0.16 52.12-0.21l-0.02 1c-17.24 0.05-34.49-0.19-51.72 0.13l-0.38-0.92z" fill="#bd9b15"/>
  <path d="m1210.4 139.41c2.5 6.9-5.6 14.97-10.2 20.84-11.2 16.87-25.9 31.01-37.3 47.71-5.5 8.04-6.6 20.22-16.1 24.86 7-30.25 21.2-58.1 30.4-87.62 10.9-2.67 22.3-3.19 33.2-5.79z" fill="#9b9c22"/>
  <path d="m543.82 140.19c23.49-0.4 47-0.21 70.5-0.04-23.4 1.44-47.1 1.39-70.5 0.04z" fill="#eac73e"/>
  <path d="m215.91 140.95c2.72 0.06 5.39 0.54 8.12 0.78l-0.94 0.1c-2.2-0.17-6.12 1.34-7.18-0.88z" fill="#b69b2d"/>
  <path d="m223.09 141.83l0.94-0.1c2.38 0.32 4.76 0.66 7.14 1.03-2.41-0.2-7.29 1.52-8.08-0.93z" fill="#6d5200"/>
  <path d="m1086.7 145.73c2.7-1.64 5.6-0.45 8.5 0.14-2.8 0.18-5.7 0.27-8.5-0.14z" fill="#997b16"/>
  <path d="m1095.2 145.87c3.6 0.11 7.1 0.15 10.7 0.21 0.1 1.37-11.1 2.35-10.7-0.21z" fill="#4e3600"/>
  <path d="m1122.5 152.21c14.1-0.05 29.2-10.1 42.5-3.04-10.9 27.24-21.9 54.71-32.7 82.04-6 4.46-13 8.43-20.4 9.8-4.1-0.04-8.2-0.14-12.2 0.66-3 0.72-7 1.55-5.3-2.25 8.2-29.49 14.1-59.71 28.1-87.21z" fill="#9d9e20"/>
  <path d="m200 151.95c2.96-2.21 6.56 0.36 9.81 0.34 2.68 0.31 5.4 0.65 8.1 0.94 2.71 0.28 5.46 0.81 8.21 0.81 2.56-0.11 5.1-0.04 7.65 0.21 2.77 0.28 5.57 0.77 8.37 0.8 5.29-0.25 10.5 0.55 15.72 1.21 2.67 0.3 5.37 0.68 8.06 0.91 1.47 0.17 4.41 0.53 5.88 0.71 0.29 2.9-6.21 3.56-2.54 7.86 4.72 23.45 11.23 46.69 14.45 70.36-18.33-2.06-37.74-1.17-55.13-7.78-8.76-25.73-18.4-51.18-28.58-76.37z" fill="#c9ca34"/>
  <path d="m209.81 152.29c2.43 0.11 7.16-1.55 8.1 0.94-2.7-0.29-5.42-0.63-8.1-0.94z" fill="#41420a"/>
  <path d="m217.91 153.23c2.52 0.19 6.88-1.51 8.21 0.81-2.75 0-5.5-0.53-8.21-0.81z" fill="#8f8d2b"/>
  <path d="m233.77 154.25c2.57 0.22 7.01-1.57 8.37 0.8-2.8-0.03-5.6-0.52-8.37-0.8z" fill="#565414"/>
  <path d="m343.97 153.95c3.12 0 6.17 0.43 9.29 0.8-2.57-0.74-7.94 1.82-9.29-0.8z" fill="#907202"/>
  <path d="m1098.2 154.96c3.2-1.81 6.4-1.81 9.6 0-3.3 0-6.4 0.03-9.6 0z" fill="#42420c"/>
  <path d="m362 154.96c3.41-0.18 6.76 0.41 10.16 0.8l-0.96 0.09c-2.48-0.68-8.07 1.73-9.2-0.89z" fill="#c9ac35"/>
  <path d="m1049.8 162.76c16.1-2.62 32.5-4.3 48.4-7.8 3.2 0.03 6.3 0 9.6 0-8.9 29.58-20.7 58.9-29.2 88.68-5.5 0.52-11 1.59-16.6 1.35-3.5-0.1-7-0.61-10.3 0.71-6.9 0.61-13.8 1.19-20.6 1.39-2.7-0.41-6.7 1.34-7.4-1.95 7.3-24.5 12.7-49.62 20.8-73.87 1.6-2.82-2.2-11.21 5.3-8.51z" fill="#9e9f1f"/>
  <path d="m257.86 156.26c2.43 0.14 7.01-1.47 8.06 0.91-2.69-0.23-5.39-0.61-8.06-0.91z" fill="#646320"/>
  <path d="m371.2 155.85l0.96-0.09c3.06 0.18 6.05 0.61 9.11 1.03-2.31-0.97-9.28 1.9-10.07-0.94z" fill="#806600"/>
  <path d="m265.92 157.17c3.74 1.04 10.71-2.27 13.19 0.66-1.42 0.3-2.83 0.67-4.24 1.02-1.02-0.32-2.05-0.64-3.07-0.97-1.47-0.18-4.41-0.54-5.88-0.71z" fill="#9f9d3e"/>
  <path d="m389.88 157c3.79-0.04 7.57 0.23 11.34 0.82-4.38 0.73-8.16 0.45-11.34-0.82z" fill="#b99f2f"/>
  <path d="m274.87 158.85c1.41-0.35 2.82-0.72 4.24-1.02 18.65 0.07 37.08 3.35 55.61 5.19 8.03 27.19 14.93 54.73 22.27 82.13-6.68-0.12-13.35-0.29-20.02-0.14-8.32 1.52-16.44-0.17-22.99-5.33-3.66-1.21-7.46-0.93-11.11 0-0.65 0.08-1.94 0.24-2.58 0.32-13.94-25.27-13.35-55.35-25.42-81.15z" fill="#c9ca33"/>
  <path d="m401.22 157.82c4.36 0.1 8.7 0.49 13.07 0.92-3.3-0.92-11.91 2.47-13.07-0.92z" fill="#755c01"/>
  <path d="m425.96 158.98c4.1-0.08 8.18 0.23 12.26 0.84-3.08-1.22-10.83 2.59-12.26-0.84z" fill="#a88e26"/>
  <path d="m438.22 159.82c4.36 0.1 8.7 0.49 13.06 0.92-3.29-0.92-11.91 2.47-13.06-0.92z" fill="#644c00"/>
  <path d="m463.02 160.98c4.75-0.2 9.48 0.18 14.2 0.85-3.97-0.92-11.98 2.22-14.2-0.85z" fill="#967f1b"/>
  <path d="m477.22 161.83c4.92 0.23 9.83 0.11 14.77 0.15l0.01 1c-4.08-0.86-12.69 1.91-14.78-1.15z" fill="#4f3700"/>
  <path d="m491.99 161.98c11.42 0.23 22.92-0.78 34.27 0.86-6.1 0.01-12.18 0.07-18.27 0.14-5.34-0.03-10.66 0.19-15.99 0l-0.01-1z" fill="#e5bf24"/>
  <path d="m507.99 162.98c6.09-0.07 12.17-0.13 18.27-0.14l0.98 0.1-0.28 0.95c-5.45-0.95-15.39 2.34-18.97-0.91z" fill="#856f10"/>
  <path d="m527.24 162.94c5.68 0.01 11.4-0.08 17.04 0.93-5.79 0.07-11.56 0.11-17.32 0.02l0.28-0.95z" fill="#ecc73c"/>
  <path d="m820.06 164c3.58-3.22 12.03 0.15 16.99-1.03l-0.08 1c-5.66 0.02-11.29 0.01-16.91 0.03z" fill="#eac63a"/>
  <path d="m837.05 162.97c6.38-0.09 12.76-0.11 19.13 0.65-6.41 0.36-12.82 0.7-19.21 0.35l0.08-1z" fill="#896e13"/>
  <path d="m925.01 163c3.64-0.06 7.2-0.01 10.88 0.01 0 1.3-10.76 2.67-10.88-0.01z" fill="#826f13"/>
  <path d="m526.96 163.89c5.76 0.09 11.53 0.05 17.32-0.02l-0.33 0.94c-4.72-0.85-14.08 2.47-16.99-0.92z" fill="#3f2600"/>
  <path d="m544.28 163.87c10.65 0.48 21.41-0.74 32 1.04-6.78 0.06-13.54 0.01-20.3 0.08-4.03 0.08-8.04 0.02-12.03-0.18l0.33-0.94z" fill="#e2bc22"/>
  <path d="m820.06 164c5.62-0.02 11.25-0.01 16.91-0.03-3.44 2.55-11.9 0.52-17.17 0.99l0.26-0.96z" fill="#3d2600"/>
  <path d="m350.1 166.01c7.24-2.63 17.21 1.17 25.64 1.31 4.39 0.47 8.84 0.84 13.27 0.71 3.57-0.09 7.22-0.31 10.77 0.26 3.75 0.51 7.52 0.74 11.32 0.7 11.15-4.13 7.21 8.15 7.05 13.85 3.53 22.09 6.48 44.31 11.04 66.24-0.37 6.96-11.86 0.78-16.19 2.92-8.63 0.6-17.17-0.56-25.73-1.33-5.02-0.47-10.03-0.77-15.06-0.73-8.14-26.3-14.9-56.35-22.11-83.93z" fill="#c9ca33"/>
  <path d="m555.98 164.99c6.76-0.07 13.52-0.02 20.3-0.08l-0.33 0.94c-5.88-0.84-15.86 2.22-19.97-0.86z" fill="#735d09"/>
  <path d="m576.28 164.91c42.31 0.79 84.74-1.13 126.98 0.95-42.44 0.22-84.88 0.25-127.31-0.01l0.33-0.94z" fill="#e8c741"/>
  <path d="m798.67 165.75c2.95-1.39 6.18-0.85 9.39-0.78-0.66 3.28-6.78 0.45-9.39 0.78z" fill="#76610c"/>
  <path d="m878.7 165.71c2.67-1.05 5.45-0.78 8.33-0.75-1.08 2.35-5.84 0.67-8.33 0.75z" fill="#6d5707"/>
  <path d="m1015.1 166c1.8-1.82 13-1.81 14.8 0.05-5-0.02-9.9-0.07-14.8-0.05z" fill="#53550a"/>
  <path d="m575.95 165.85c42.43 0.26 84.87 0.23 127.31 0.01l-0.29 0.95c-42-0.34-86.6 1.62-127.02-0.96z" fill="#2c1800"/>
  <path d="m703.26 165.86c27.91 0.36 55.83 0 83.75 0.15-26.07 2.16-56.36 0.65-84.04 0.8l0.29-0.95z" fill="#b59512"/>
  <path d="m968.7 170.59c15.17-2.55 31-2.61 46.4-4.59 4.9-0.02 9.8 0.03 14.8 0.05-4.1 27.29-8.5 55.28-19.1 80.8-9.5 6.24-21.94 3.74-32.7 5.16-3.83-0.02-7.63 0.21-11.39 0.69-5.23-2.84-22.85 7.31-20.46-3.49 0.82-5.31 0.77-10.68 0.78-16.03 7.07-20.85 13.7-42.01 21.67-62.59z" fill="#9e9f1f"/>
  <path d="m375.74 167.32c3.54 0.89 11.45-2.57 13.27 0.71-4.43 0.13-8.88-0.24-13.27-0.71z" fill="#7b7b1d"/>
  <path d="m399.78 168.29c4.35-0.81 8.12-0.58 11.32 0.7-3.8 0.04-7.57-0.19-11.32-0.7z" fill="#44440b"/>
  <path d="m427.15 170.03c4.85-0.01 9.78-0.47 14.62 0.26 4.37 0.56 8.81 0.85 13.24 0.73 7.27-0.25 14.51 0.51 21.73 1.28 3.39 0.37 6.84 0.88 10.28 0.75 4.63 1.06 11.41-2.33 15.04 1.35 0.18 4.27-0.86 8.77 0.62 12.92-0.1 8.56 1.35 17.09 1.31 25.66 0.22 4.41-0.96 9.1 0.71 13.36 0.41 3.85 0.51 7.73 0.28 11.65-0.18 4.09-0.03 8.21 0.6 12.27-2.16 4.17 2.92 6.3 3.17 8.73-22.98 3.36-45.76-2.31-68.48-5.21-5.02-27.81-9.01-55.92-13.12-83.75z" fill="#adae26"/>
  <path d="m441.77 170.29c3.53 0.93 11.39-2.54 13.24 0.73-4.43 0.12-8.87-0.17-13.24-0.73z" fill="#4b4a10"/>
  <path d="m884.48 175.18c22.58-0.37 45.08-7.42 67.55-3.14 1.93 27.06-14.48 54.96-22.03 80.23-22.24 1.76-44.65 0.21-66.96 0.73 7.08-25.84 14.48-52.01 21.44-77.82z" fill="#9e9f1f"/>
  <path d="m476.74 172.3c2.55 0.94 8.89-2.03 10.28 0.75-3.44 0.13-6.89-0.38-10.28-0.75z" fill="#56551a"/>
  <path d="m536.03 172.98c0.85-1.37 10.98-2.6 11.89 0.03-3.97 0.01-7.94 0.01-11.89-0.03z" fill="#505019"/>
  <path d="m510.16 173.97c8.68 0.87 17.2-1.22 25.87-0.99 3.95 0.04 7.92 0.04 11.89 0.03 11.76 1.57 22.75 7.45 35.08 3.98 3.25-0.01 6.59-0.02 9.87-0.04 1.3 0.1 2.6 0.26 3.91 0.47 1.47 24.24-0.43 48.58 1.15 72.76-0.34 2.62 2.38 3.78 3.05 5.86-12.55 4.92-26.46 6.16-39.73 3.63-6.05-0.74-12.13-0.87-18.2-0.69-7.96-0.06-15.91 0.29-23.84-0.06-2.97-28.31-6.04-56.68-9.05-84.95z" fill="#adae26"/>
  <path d="m502.06 174.4c2.05 1.13 0.99 9 0.62 12.92-1.48-4.15-0.44-8.65-0.62-12.92z" fill="#535317"/>
  <path d="m821.89 175.01c3.18-1.29 6.97-1.54 11.4-0.74-3.8 0.51-7.6 0.76-11.4 0.74z" fill="#646320"/>
  <path d="m833.29 174.27c3.1-0.31 6.37-0.57 9.5 0 3.7 0.48 7.44 0.71 11.22 0.71 2.97 0.08 5.85 0.94 8.81 1.21 2.22 0.54 4.46 1.09 6.71 1.66-5.07 24.8-7.92 50.71-20.56 73.11 1.3 0.76 3.79 0.92 2.66 3.01-11.12 0.1-21.77 3.69-32.7 5.07-3.67-0.05-7.22-0.06-10.85-0.03-7.33-0.74-14.73-0.81-21.94-2.34-3.73-0.42-7.44-0.62-11.16-0.59 1.47-24.35 7.8-52.41 11.87-78.11 3.74-0.82 7.51-1.49 11.37-1.81 4.01 0.03 8.1-0.03 12.08-0.85 3.83-0.36 7.7-0.46 11.59-0.3 3.8 0.02 7.6-0.23 11.4-0.74z" fill="#adae26"/>
  <path d="m842.79 174.27c4.36-0.79 8.1-0.55 11.22 0.71-3.78 0-7.52-0.23-11.22-0.71z" fill="#60611f"/>
  <path d="m617.12 176.17c7.38-1.63 15.12-1.65 22.63-0.87 7.6 1.01 15.3 0.69 22.96 0.84 10 1.63 20.16 0.6 30.25 0.93-0.91 23.08-3.77 46.14-6.75 69.07-1.45 9.32-10.99 19.73-20.92 15.51-3.46-0.42-6.85-0.79-10.31-0.69-6.94 0.56-13.78-0.96-20.68-1.27-3.49-0.39-6.92-0.87-10.42-0.73-18.63 4.66-15.13-17.48-13.61-28.66 1.07-7.64 0.69-15.35 0.87-23.02 4.85-9.45-6-28.35 5.98-31.11z" fill="#adae26"/>
  <path d="m639.75 175.3c6.42 0.79 18.94-2.61 22.96 0.84-7.66-0.15-15.36 0.17-22.96-0.84z" fill="#363600"/>
  <path d="m798.22 176.16c1.34-2.67 8.6-0.76 12.08-0.85-3.98 0.82-8.07 0.88-12.08 0.85z" fill="#383900"/>
  <path d="m583 176.99c0.8-2.99 7.18-0.31 10.01-1.02l-0.14 0.98c-3.28 0.02-6.62 0.03-9.87 0.04z" fill="#6e6f2b"/>
  <path d="m593.01 175.97c1.49 0.26 4.47 0.78 5.97 1.03-0.09 24.31 0.29 48.63-0.2 72.93l-0.85 0.25c-1.58-24.18 0.32-48.52-1.15-72.76-1.31-0.21-2.61-0.37-3.91-0.47l0.14-0.98z" fill="#acab3d"/>
  <path d="m611.14 207.28c2.68-9.14-6.76-31.48 5.98-31.11-11.98 2.76-1.13 21.66-5.98 31.11z" fill="#767830"/>
  <path d="m662.71 176.14c9.12 1.1 23.06-2.49 30.25 0.93-10.09-0.33-20.25 0.7-30.25-0.93z" fill="#6f6f2b"/>
  <path d="m743.98 176.98c7.71-1.46 23.41-1.97 30.94-0.1-10.33 0.1-20.63 0.25-30.94 0.1z" fill="#6e6d2b"/>
  <path d="m786.85 177.97c0.4-5.02 8.53-0.15 11.37-1.81-3.86 0.32-7.63 0.99-11.37 1.81z" fill="#6f712f"/>
  <path d="m862.82 176.19c2.12-0.6 9.29-0.34 6.71 1.66-2.25-0.57-4.49-1.12-6.71-1.66z" fill="#696c2b"/>
  <path d="m598.98 177c1.32 21.8 2.33 51.18-0.2 72.93 0.49-24.3 0.11-48.62 0.2-72.93z" fill="#191900"/>
  <path d="m725.18 178.24c0.48-3.08 7.27-0.66 10.02-1-3.38 0.36-6.65 0.85-10.02 1z" fill="#464501"/>
  <path d="m735.2 177.24c2.85-0.26 5.86-0.27 8.78-0.26 10.31 0.15 20.61 0 30.94-0.1-1.3 9.57-0.98 19.27-2.25 28.85-0.48 4.39-0.76 8.82-0.7 13.25-6.67 10.77-4.09 31.22-12.4 41.14-10.3-0.03-20.66-0.81-30.88 0.7-10.55 0.28-21.1 0.19-31.65 0.14-0.25-3.9-0.17-7.78 0.25-11.65 1.15-8.36 0.67-16.79 0.71-25.2 1.68-13.75 6.42-27.12 7.79-40.86-2.98-5.52 4.37-4.23 8.09-4.26 3.77 0.01 7.53-0.24 11.3-0.75 3.37-0.15 6.64-0.64 10.02-1z" fill="#adae26"/>
  <path d="m713.88 178.99c3.19-1.28 6.95-1.54 11.3-0.75-3.77 0.51-7.53 0.76-11.3 0.75z" fill="#7b7c33"/>
  <path d="m771.97 218.98c-0.06-4.43 0.22-8.86 0.7-13.25-0.92 3.52 2.58 11.45-0.7 13.25z" fill="#5e5f21"/>
  <path d="m610.27 230.3c0.84-6.46-2.6-18.98 0.87-23.02-0.18 7.67 0.2 15.38-0.87 23.02z" fill="#414000"/>
  <path d="m503.99 212.98c2.37 2.32 0.97 9.18 0.71 13.36-1.67-4.26-0.49-8.95-0.71-13.36z" fill="#494811"/>
  <path d="m697.29 249.31c0.8-7.45-2.52-19.7 0.71-25.2-0.04 8.41 0.44 16.84-0.71 25.2z" fill="#383804"/>
  <path d="m147.72 228.15c7.35 0.93 14.81 0.61 22.1 2.17 4.33 0.53 8.71 0.7 13.09 0.69 20.46 4.58 40.43 12.59 61.79 12.29 3.4 0.35 6.84 0.78 10.27 0.77 8.48 1.07 18.51 1.1 26.04 5.01 7.61 3.15 16.64 1.65 24.93 1.92 11.6 0.3 22.93 3.72 33.9 7.35 10 1.18 20.09 0.62 30.14 0.65 17.55-0.1 34.45 5.24 51.77 7.28 2.98 0.34 6.04 0.69 9.06 0.95 11.25 1.6 22.63 0.34 33.95 0.91 8.92 1.48 17.98 0.71 26.98 0.94 18.91 2.16 38.06 0.25 57.07 1l0.97 0.09c9.25 1.53 18.65 0.6 27.98 0.92 18.9 2.17 38.02 0.19 57.01 1.03 9.58 1.66 19.32 0.59 28.99 0.97 16.65 1.99 33.5 0.46 50.24 0.93 3.29 0 6.7 0.07 10.03 0 1.95-0.03 3.92 0 5.89-0.01 3.75 0 7.5-0.23 11.26-0.68 3.22-0.53 6.51-1.36 9.83-1.29 2.67-0.04 5.54 0.29 8.17-0.6 3.83-0.66 4.97-6.7 9.67-5.24 7.55 1.18 15.23 0.77 22.87 0.95 6.94 1.11 13.99 0.94 21.02 0.99 11.77 1.47 23.77 1.34 35.56 0.04 3.3-0.06 6.86 0.42 10-1 2.95-0.03 6.12 0.22 8.97-0.87 4.54-0.68 9.18-1 13.79-1.3 2.61 0.02 5.24 0.03 7.9 0.03 21.24-1.36 43.28 1.89 64.06 0.21 0.34-0.32 1.04-0.98 1.39-1.31 9.22 0.16 18.36-1.36 27.55-1.9 2.73 0.03 5.68 0.29 8.34-0.73 2.52-0.37 5.1-0.47 7.73-0.3 3.27-0.09 7.07 0.79 10.17-0.78 2.7-0.11 5.5 0.05 8.1-0.94 2.7-0.82 5.8-0.2 8.7-0.28 3.3-0.1 7 0.81 10.2-0.77 2.3-0.2 4.7-0.5 7.1-0.89 28.6-3.43 57.9-3.5 85.7-12.35 13.8 3.43-5.2 19.75-7.2 27.87-26.5 4.65-53.4 8.91-79.9 14.17-4.3-0.03-8.6-0.18-12.9-0.09-22.1 0.65-43.8 5.41-65.89 6.03-2.92-0.15-5.71-0.37-8.4 0.71-1.7 0.08-5.1 0.25-6.8 0.33-3.06-0.07-5.95-0.11-8.94-0.07-7.43-0.15-14.8 0.49-22.1 1.8-2.83 0.03-5.54 0-8.16 0.96-1.68 0.08-5.05 0.22-6.73 0.29-4.42 0.34-9.15-1.15-13.3 0.82-6.17 0.25-12.33 0.24-18.47-0.01-11.77-0.67-25.19-2.74-36.19 1.26-6.74 2.85-15.29 2.11-22.76 1.67-4.37-0.48-8.7-0.82-13.07-0.99-24.04-1.08-48.64-1.55-72.51 0.06-5.05 0.34-10.24-0.69-15.12 0.91-7.13 0.77-14.38 0.1-21.54 0.27-18.01 0-36.02 0.01-54.03-0.02-6.93-0.2-13.89 0.59-20.78-0.26-5-0.52-9.97-0.79-14.98-0.9-3.77-0.55-7.56-0.84-11.35-0.86-3.25-0.09-6.4-0.04-9.61-0.05-3.09-0.45-6.08-0.98-9.16-1.17-10.03-0.64-20.04-1.95-30.1-1.76-5.29-0.03-10.54 0.16-15.8-0.15-4.71-0.68-9.43-0.98-14.17-0.85-3.92-0.04-7.84-0.09-11.74-0.13-4.11-0.63-8.23-0.96-12.37-0.88-3.6-0.03-7.15 0.3-10.73-0.06l-0.35-0.92c-10.77-1.94-24.12-0.66-35.85-2.05-3.69-0.03-7.33 0.01-11 0.1-3.31 0.01-6.56 0.17-9.82-0.25-2.74-0.32-5.39-0.75-8.1-1.02-2.77-0.31-5.45-0.78-8.21-0.81-2.57 0.08-5.12 0.03-7.65-0.15-2.75-0.32-5.42-0.77-8.15-1.04-2.76-0.32-5.43-0.77-8.18-0.81-2.55 0.07-5.09 0.01-7.61-0.16-3.07-0.39-6.09-0.77-9.16-1.02-2.78-0.29-5.48-0.82-8.26-0.82-2.89-0.07-5.72 0.19-8.58-0.15-2.74-0.41-5.42-0.82-8.16-1.04-3.38-0.42-6.73-0.97-10.13-0.8-51.12-4.57-102.36-13.04-152.18-25.64-10.17-7.43-16.07-19.66-24.09-29.17z" fill="#faca04"/>
  <path d="m169.82 230.32c3.43 0.88 11.45-2.54 13.09 0.69-4.38 0.01-8.76-0.16-13.09-0.69z" fill="#433200"/>
  <path d="m946.25 249.21c0.64-4.62-2.05-13.28 0.78-16.03-0.01 5.35 0.04 10.72-0.78 16.03z" fill="#3c3c00"/>
  <path d="m504.98 237.99c2.61 1.96 0.67 8.67 0.6 12.27-0.63-4.06-0.78-8.18-0.6-12.27z" fill="#767620"/>
  <path d="m302.87 239.68c3.65-0.93 7.45-1.21 11.11 0-3.72 0.23-7.43 0.61-11.11 0z" fill="#8d8d3c"/>
  <path d="m1099.7 241.67c4-0.8 8.1-0.7 12.2-0.66-1.9 2.64-8.6 0.54-12.2 0.66z" fill="#626322"/>
  <path d="m244.7 243.3c2.55 0.91 8.92-2.02 10.27 0.77-3.43 0.01-6.87-0.42-10.27-0.77z" fill="#7c5f00"/>
  <path d="m336.97 245.01c6.67-0.15 13.34 0.02 20.02 0.14-4.21 1.6-15.89 1.62-20.02-0.14z" fill="#5c5b1e"/>
  <path d="m1031.1 247.09c-0.6 3.53-11.7 0.46-7.4-1.95 0.7 3.29 4.7 1.54 7.4 1.95z" fill="#393b10"/>
  <path d="m1051.7 245.7c3.3-1.32 6.8-0.81 10.3-0.71-1 2.99-7.4 0.49-10.3 0.71z" fill="#4a4913"/>
  <path d="m281.01 249.08c7.65 1.83 19.16-1.06 24.93 1.92-8.29-0.27-17.32 1.23-24.93-1.92z" fill="#e1c33a"/>
  <path d="m429.19 249.08c5.21 5.99-14.02 5.2-16.19 2.92 4.33-2.14 15.82 4.04 16.19-2.92z" fill="#5f6210"/>
  <path d="m372.21 249.94c5.03-0.04 10.04 0.26 15.06 0.73-4.18-0.71-12.79 2.25-15.06-0.73z" fill="#787a1c"/>
  <path d="m930 252.27c3.69-1.16 2.1 7.47-2.96 1.89-20.67-1.44-45.07 1.82-64-1.16 22.31-0.52 44.72 1.03 66.96-0.73z" fill="#787a33"/>
  <path d="m966.71 252.7c3.76-0.48 7.56-0.71 11.39-0.69-3.22 1.27-7.01 1.51-11.39 0.69z" fill="#525208"/>
  <path d="m774.98 256.08c3.72-0.03 7.43 0.17 11.16 0.59-4.33 0.82-8.05 0.62-11.16-0.59z" fill="#3f3e00"/>
  <path d="m1034.2 258.12c0.4-2.41 5.7-0.78 8.1-0.77-2.4 0.39-4.8 0.69-7.1 0.89l-1-0.12z" fill="#614b00"/>
  <path d="m339.84 258.35c9.1 0.71 22.92-2.59 30.14 0.65-10.05-0.03-20.14 0.53-30.14-0.65z" fill="#ae9428"/>
  <path d="m1025 259.01c0.2-3.32 6.7-0.37 9.2-0.89l1 0.12c-3.2 1.58-6.9 0.67-10.2 0.77z" fill="#ad9329"/>
  <path d="m543.05 258.98c6.07-0.18 12.15-0.05 18.2 0.69-5.01-0.91-15.24 2.75-18.2-0.69z" fill="#5e5e20"/>
  <path d="m623.88 258.96c3.5-0.14 6.93 0.34 10.42 0.73-2.73-0.96-8.79 2.05-10.42-0.73z" fill="#5a5d1e"/>
  <path d="m808.08 259.01c3.63-0.03 7.18-0.02 10.85 0.03-0.07 1.32-10.86 2.62-10.85-0.03z" fill="#5b591f"/>
  <path d="m1007.3 260.1c-0.9-3.32 6.8-0.55 9-0.81-2.6 0.99-5.4 0.83-8.1 0.94l-0.9-0.13z" fill="#755900"/>
  <path d="m728.69 260.82c10.22-1.51 20.58-0.73 30.88-0.7-7.34 2.1-21.15 0.42-30.88 0.7z" fill="#8d8e30"/>
  <path d="m998.03 261.01c0.11-3.33 6.77-0.36 9.27-0.91l0.9 0.13c-3.1 1.57-6.9 0.69-10.17 0.78z" fill="#ba9f2e"/>
  <path d="m654.98 260.96c3.46-0.1 6.85 0.27 10.31 0.69-2.63-0.95-8.9 2.1-10.31-0.69z" fill="#4d4d13"/>
  <path d="m697.04 260.96c10.55 0.05 21.1 0.14 31.65-0.14-7.15 1.47-24.17 2.62-31.65 0.14z" fill="#505018"/>
  <path d="m981.96 262.04c1.08-2.34 5.84-0.69 8.34-0.73-2.66 1.02-5.61 0.76-8.34 0.73z" fill="#836700"/>
  <path d="m881.06 265.01c0.68-2.31 5.57-0.6 7.94-0.97l-0.04 1c-2.66 0-5.29-0.01-7.9-0.03z" fill="#574401"/>
  <path d="m889 264.04c14.22 0.07 28.49-0.43 42.71 0.23 7.06 0.86 14.18 0.98 21.31 0.98-20.78 1.68-42.82-1.57-64.06-0.21l0.04-1z" fill="#e6c53c"/>
  <path d="m931.71 264.27c7.55-0.28 15.12-0.49 22.7-0.33-0.35 0.33-1.05 0.99-1.39 1.31-7.13 0-14.25-0.12-21.31-0.98z" fill="#5a4701"/>
  <path d="m421.75 266.28c2.31 0.65 8.19-1.84 9.06 0.95-3.02-0.26-6.08-0.61-9.06-0.95z" fill="#695303"/>
  <path d="m768.85 266.2c6.4 0.98 18.89-2.55 22.87 0.95-7.64-0.18-15.32 0.23-22.87-0.95z" fill="#695504"/>
  <path d="m858.3 267.18c-0.41-3.31 6.68-0.65 8.97-0.87-2.85 1.09-6.02 0.84-8.97 0.87z" fill="#665302"/>
  <path d="m430.81 267.23c11.39-0.25 22.83-0.58 34.22-0.04l-0.27 0.95c-11.32-0.57-22.7 0.69-33.95-0.91z" fill="#bf9b17"/>
  <path d="m465.03 267.19c8.36 0.59 20.31-2.08 27.04 0.95-9.11-0.23-18.21-0.15-27.31 0l0.27-0.95z" fill="#341d00"/>
  <path d="m791.72 267.15c7.08-0.03 14.24-0.61 21.32 0.05l-0.3 0.94c-7.03-0.05-14.08 0.12-21.02-0.99z" fill="#bc9c16"/>
  <path d="m813.04 267.2c11.61-0.15 23.32-0.7 34.91 0.05l0.35 0.93c-11.86-0.21-23.71-0.35-35.56-0.04l0.3-0.94z" fill="#351e00"/>
  <path d="m847.95 267.25c3.38-0.28 6.93-0.5 10.35-0.07-3.14 1.42-6.7 0.94-10 1l-0.35-0.93z" fill="#bd9e13"/>
  <path d="m464.76 268.14c9.1-0.15 18.2-0.23 27.31 0l-0.33 0.94c-9-0.23-18.06 0.54-26.98-0.94z" fill="#eac83d"/>
  <path d="m492.07 268.14c8.74 0.98 22.03-2.4 28.95 0.89-9.77 0-19.52-0.06-29.28 0.05l0.33-0.94z" fill="#7b640c"/>
  <path d="m812.74 268.14c11.85-0.31 23.7-0.17 35.56 0.04-11.79 1.3-23.79 1.43-35.56-0.04z" fill="#ebc83d"/>
  <path d="m491.74 269.08c9.76-0.11 19.51-0.05 29.28-0.05 9.32 0.08 18.67-0.32 28 0.08l-0.21 0.97c-19.01-0.75-38.16 1.16-57.07-1z" fill="#e1bb22"/>
  <path d="m549.02 269.11c8.82 1.1 21.97-2.52 29.05 1.03-9.44-0.27-18.86-0.14-28.29 0.03l-0.97-0.09 0.21-0.97z" fill="#462e00"/>
  <path d="m549.78 270.17c9.43-0.17 18.85-0.3 28.29-0.03l-0.31 0.95c-9.33-0.32-18.73 0.61-27.98-0.92z" fill="#ebc838"/>
  <path d="m578.07 270.14c8.74 0.98 22.03-2.4 28.95 0.89-9.76 0-19.51-0.06-29.26 0.06l0.31-0.95z" fill="#8a7316"/>
  <path d="m577.76 271.09c9.75-0.12 19.5-0.06 29.26-0.06 9.32 0.1 18.68-0.37 28.01 0.14l-0.26 0.95c-18.99-0.84-38.11 1.14-57.01-1.03z" fill="#e9c224"/>
  <path d="m635.03 271.17c8.82 1 21.96-2.58 29.04 0.98-9.78-0.23-19.54-0.21-29.3-0.03l0.26-0.95z" fill="#553d00"/>
  <path d="m751.01 272.04c1.06-2.36 5.72-0.69 8.17-0.6-2.63 0.89-5.5 0.56-8.17 0.6z" fill="#594300"/>
  <path d="m178.38 271.73c104.2 22.85 211.98 30.01 317.87 29.94 5.14 10.17 15.52-4.48 23.5 0.39 53.78 7.56 108.06 6.48 162.09 8.96 50.6-3.6 101.57-3.98 152.21 0.07 54.3-3.93 109.4-6.28 163.21-11.6 35.74-3.71 72.34-3.46 106.94-14.15 2.4-1.93 10.7-1.15 7.8 2.66-22.2 34.86-49.4 69.41-64 107-25.7 37.11-44.2 78.39-64.45 118.54-16.29 45.56-34.19 90.65-49.5 136.55-6.17 37.38-14.7 74.3-23.89 111.06-5.34 42.38-8.79 85.22-15.83 127.31-30.33 3.02-60.23 13.7-90.62 12.99-7.61 10.14-23.27-0.74-34.06 5.25-45.8 5.88-93.75 1.75-138.85 12.27-64.83-3.51-130.03-4.8-194.57-13.15-33.41-7.79-67.05-14.49-100.68-21.14-2.21-4.42-6.86-7.13-8.5-11.81-8.39-48.35-16.39-96.74-24.76-145.08-9.51-24.82-2.61-52.41-11.76-77.39-17.89-71.61-32.71-143.98-51.6-215.34-5.17-22.54-14.71-43.89-16.94-66.95-16.28-31.25-30.07-63.93-43.61-96.38m22.71 14.26c10.67 27.24 19.79 55.3 35.91 80 1.41 10.88 2.25 23.78 8.59 33.53 17.83 72.65 35.27 145.72 52.44 218.5 6.7 48.93 14.06 95.88 23.49 144.54 2.83 16 1.01 35.08 14.28 46.87 18.37 3.56 37 6.18 54.95 10.76 64.62 15.06 130.43 13.32 197.08 17.77 25.59-7.31 52.92-3.89 78.93-8.38 49.59 0.88 94-9.86 143.6-18.07 8.13-49.23 9.63-99.3 23.4-147.8 5.1-39.71 16.35-78.9 32.53-115.42 15.22-49.31 38.61-95.96 64.23-140.72 5.38-9.5 13.29-17.4 15.88-28.14 12.75-26.14 31.74-48.79 46.19-73.8 6.76-9.5-11.74-1.36-16.26-1.6-101.17 8.73-202.67 20.43-303.46 12.92-50.04 6.67-101.02 0.91-151.3-0.35-14.95-1.75-30.61-5.61-45.51-0.54-2.93-4.22-8.27-3.86-13.13-3.35-87.77-1.53-176.81-5.95-261.84-26.72z" fill="#013f01"/>
  <path d="m634.77 272.12c9.76-0.18 19.52-0.2 29.3 0.03l-0.31 0.94c-9.67-0.38-19.41 0.69-28.99-0.97z" fill="#edc832"/>
  <path d="m664.07 272.15c8.47 0.86 21.26-2.27 27.95 0.87-9.43 0-18.85-0.03-28.26 0.07l0.31-0.94z" fill="#9c841e"/>
  <path d="m663.76 273.09c9.41-0.1 18.83-0.07 28.26-0.07 7.32-0.01 14.64-0.16 21.98 0v1c-16.74-0.47-33.59 1.06-50.24-0.93z" fill="#efc827"/>
  <path d="m714 273.02c2.43 1.01 8.87-1.69 10.03 1-3.33 0.07-6.74 0-10.03 0v-1z" fill="#674d00"/>
  <path d="m729.92 274.01c3.15-1.3 6.9-1.53 11.26-0.68-3.76 0.45-7.51 0.68-11.26 0.68z" fill="#654a00"/>
  <path d="m323.99 282.96c3.4-0.17 6.75 0.38 10.13 0.8l-0.95 0.09c-2.49-0.69-8.01 1.73-9.18-0.89z" fill="#c3a731"/>
  <path d="m333.17 283.85l0.95-0.09c2.74 0.22 5.42 0.63 8.16 1.04-2.34-0.8-8.33 1.77-9.11-0.95z" fill="#7c6200"/>
  <path d="m350.86 284.95c2.78 0 5.48 0.53 8.26 0.82-2.54-0.18-6.92 1.5-8.26-0.82z" fill="#b69c2f"/>
  <path d="m201.09 285.99c85.03 20.77 174.07 25.19 261.84 26.72 4.86-0.51 10.2-0.87 13.13 3.35 14.9-5.07 30.56-1.21 45.51 0.54 50.28 1.26 101.26 7.02 151.3 0.35 100.79 7.51 202.29-4.19 303.46-12.92 4.52 0.24 23.02-7.9 16.26 1.6-14.45 25.01-33.44 47.66-46.19 73.8-2.59 10.74-10.5 18.64-15.88 28.14-25.62 44.76-49.01 91.41-64.23 140.72-16.18 36.52-27.43 75.71-32.53 115.42-13.77 48.5-15.27 98.57-23.4 147.8-49.6 8.21-94.01 18.95-143.6 18.07-26.01 4.49-53.34 1.07-78.93 8.38-66.65-4.45-132.46-2.71-197.08-17.77-17.95-4.58-36.58-7.2-54.95-10.76-13.27-11.79-11.45-30.87-14.28-46.87-9.43-48.66-16.79-95.61-23.49-144.54-17.17-72.78-34.61-145.85-52.44-218.5-6.34-9.75-7.18-22.65-8.59-33.53-16.12-24.7-25.24-52.76-35.91-80m24.33 17.68c8.41 19.84 15.06 41.08 26.42 59.56 33.57 112.5 56.27 230.33 74.22 344.57 0.12 8.08 1.9 16.75 6.83 23.38 59.87 15.75 121.74 25.57 184.01 24.15 24.58 5.28 48.1-5.37 72.96-2.55 18.15-6.43 38.09 0.69 55.64-5.55 25.99 1.37 51.75-9.23 78.89-11.57 1.88-0.37 2.04-3.03 2.86-4.5 2.42-27.3 6.9-54.26 9.3-81.61 13.59-43.94 14.45-91.9 37.06-133.18 6.42-30.24 23.53-56.32 35.13-84.58 23.12-39.97 44.57-80.18 70.82-118.08-139.1 18.78-281.45 20.28-421.65 11.18-76.63 0.49-156.93-5.94-232.49-21.22z" fill="#014400"/>
  <path d="m359.12 285.77c3.07 0.25 6.09 0.63 9.16 1.02-2.45-0.73-8.11 1.77-9.16-1.02z" fill="#6f5500"/>
  <path d="m375.89 286.95c2.75 0.04 5.42 0.49 8.18 0.81-2.51-0.17-6.86 1.51-8.18-0.81z" fill="#9f851f"/>
  <path d="m1028 286.95c4.3-0.09 8.6 0.06 12.9 0.09-1.4 1.38-11.2 2.48-12.9-0.09z" fill="#9c8523"/>
  <path d="m384.07 287.76c2.73 0.27 5.4 0.72 8.15 1.04-2.46-0.23-7.18 1.46-8.15-1.04z" fill="#614a00"/>
  <path d="m399.87 288.95c2.76 0.03 5.44 0.5 8.21 0.81-2.53-0.17-6.87 1.51-8.21-0.81z" fill="#957d19"/>
  <path d="m408.08 289.76c2.71 0.27 5.36 0.7 8.1 1.02-2.45-0.2-7.13 1.48-8.1-1.02z" fill="#583f01"/>
  <path d="m426 291.03c3.67-0.09 7.31-0.13 11-0.1l0.02 0.98c-4.56 0.76-8.24 0.46-11.02-0.88z" fill="#836a0f"/>
  <path d="m437 290.93c11.73 1.39 25.08 0.11 35.85 2.05-3.96-0.03-7.91-0.02-11.85 0.03-8.02 0.24-15.98-0.92-23.98-1.1l-0.02-0.98z" fill="#dfbc29"/>
  <path d="m461 293.01c3.94-0.05 7.89-0.06 11.85-0.03l0.35 0.92c-2.94-1.24-11.12 2.56-12.2-0.89z" fill="#715c07"/>
  <path d="m953.71 293.69c2.69-1.08 5.48-0.86 8.4-0.71-1.24 2.3-5.88 0.69-8.4 0.71z" fill="#756209"/>
  <path d="m483.93 293.96c4.14-0.08 8.26 0.25 12.37 0.88-3.11-1.26-10.91 2.58-12.37-0.88z" fill="#ae9011"/>
  <path d="m915.87 295.75c7.3-1.31 14.67-1.95 22.1-1.8l0.14 0.96c-3.83 0.15-7.64 0.42-11.42 0.81-3.35 0.27-6.58 0.52-9.88 0.14l-0.94-0.11z" fill="#ebc933"/>
  <path d="m937.97 293.95c2.99-0.04 5.88 0 8.94 0.07 0.09 3.25-6.45 0.36-8.8 0.89l-0.14-0.96z" fill="#b18e0e"/>
  <path d="m496.3 294.84c3.9 0.04 7.82 0.09 11.74 0.13l-0.05 0.98c-2.44-1.05-11.7 2.19-11.69-1.11z" fill="#645103"/>
  <path d="m508.04 294.97c4.74-0.13 9.46 0.17 14.17 0.85-4.75 0.09-9.49 0.48-14.22 0.13l0.05-0.98z" fill="#e9c646"/>
  <path d="m926.69 295.72c3.78-0.39 7.59-0.66 11.42-0.81-3.21 1.36-7.01 1.63-11.42 0.81z" fill="#625003"/>
  <path d="m522.21 295.82c5.26 0.31 10.51 0.12 15.8 0.15l0.03 0.98c-4.5-0.65-13.4 1.67-15.83-1.13z" fill="#a68807"/>
  <path d="m538.01 295.97c10.06-0.19 20.07 1.12 30.1 1.76-0.48 0.05-1.43 0.15-1.91 0.2-4.32 0.19-8.67 0.39-12.94-0.2-5.06-0.64-10.13-0.85-15.22-0.78l-0.03-0.98z" fill="#e6c432"/>
  <path d="m907.71 296.71c2.62-0.96 5.33-0.93 8.16-0.96l0.94 0.11c0.19 3.3-6.73 0.58-9.1 0.85z" fill="#a58809"/>
  <path d="m538.04 296.95c5.09-0.07 10.16 0.14 15.22 0.78-4.32-0.84-12.63 2.23-15.22-0.78z" fill="#4f3e00"/>
  <path d="m833.02 299.07c11-4 24.42-1.93 36.19-1.26-0.5 0.03-1.49 0.1-1.98 0.13-11.43-0.1-22.84 0.09-34.21 1.13z" fill="#d5b334"/>
  <path d="m887.68 297.82c4.15-1.97 8.88-0.48 13.3-0.82-1.73 2.65-8.71 0.52-12.31 0.93l-0.99-0.11z" fill="#d5b93c"/>
  <path d="m566.2 297.93c0.48-0.05 1.43-0.15 1.91-0.2 3.08 0.19 6.07 0.72 9.16 1.17-4.7 0.66-8.39 0.34-11.07-0.97z" fill="#8f7301"/>
  <path d="m867.23 297.94c0.49-0.03 1.48-0.1 1.98-0.13 6.14 0.25 12.3 0.26 18.47 0.01l0.99 0.11c-3.2 1.13-18.21 2.82-21.44 0.01z" fill="#907401"/>
  <path d="m577.27 298.9c3.21 0.01 6.36-0.04 9.61 0.05l0.13 0.98c-2.19-0.87-9.18 1.63-9.74-1.03z" fill="#3f2e00"/>
  <path d="m586.88 298.95c3.79 0.02 7.58 0.31 11.35 0.86l-0.98 0.07c-3.45 0.11-6.82 0.35-10.24 0.05l-0.13-0.98z" fill="#ccae37"/>
  <path d="m724.68 299.81c23.87-1.61 48.47-1.14 72.51-0.06-0.48 0.05-1.45 0.13-1.94 0.18-23.19 0.1-46.4 0.16-69.58-0.01l-0.99-0.11z" fill="#cbad38"/>
  <path d="m597.25 299.88l0.98-0.07c5.01 0.11 9.98 0.38 14.98 0.9-4.46-0.55-13.76 2.03-15.96-0.83z" fill="#816500"/>
  <path d="m709.56 300.72c4.88-1.6 10.07-0.57 15.12-0.91l0.99 0.11c-1.93 2.72-11.73 0.42-16.11 0.8z" fill="#846701"/>
  <path d="m795.25 299.93c0.49-0.05 1.46-0.13 1.94-0.18 4.37 0.17 8.7 0.51 13.07 0.99-4.09-0.83-13.09 2.19-15.01-0.81z" fill="#826500"/>
  <path d="m633.99 300.97c18.01 0.03 36.02 0.02 54.03 0.02-15.35 1.17-38.83 2.43-54.03-0.02z" fill="#b69b2d"/>
  <path d="m225.42 303.67c75.56 15.28 155.86 21.71 232.49 21.22 140.2 9.1 282.55 7.6 421.65-11.18-26.25 37.9-47.7 78.11-70.82 118.08-11.6 28.26-28.71 54.34-35.13 84.58-22.61 41.28-23.47 89.24-37.06 133.18-2.4 27.35-6.88 54.31-9.3 81.61-0.82 1.47-0.98 4.13-2.86 4.5-27.14 2.34-52.9 12.94-78.89 11.57-17.55 6.24-37.49-0.88-55.64 5.55-24.86-2.82-48.38 7.83-72.96 2.55-62.27 1.42-124.14-8.4-184.01-24.15-4.93-6.63-6.71-15.3-6.83-23.38-17.95-114.24-40.65-232.07-74.22-344.57-11.36-18.48-18.01-39.72-26.42-59.56m25.69 16.54c1.45 22.33 21.91 42.09 23.94 65.62 15.59 50.97 25.44 103.33 38.16 154.99 1.66 26.05 6.52 51.91 11.38 77.6 6.42 12.37-1.18 36.06 16.22 39.75 37.02 5.81 73.24 17.1 111.18 14.78 19.36-2 39.52 7.1 58.15 0.03 44.93-3.07 89.72-2.52 132.71-15.3 7.86-81.31 25.27-162.9 63.27-235.58 5.7-15.83 19.7-27.53 23.82-43.94 9.52-17.37 23.96-32.6 30.93-51-94.19 16.21-190.48 13.55-285.87 12.88-74.58-5.57-149.99-3.78-223.89-19.83z" fill="#004900"/>
  <path d="m251.11 320.21c73.9 16.05 149.31 14.26 223.89 19.83 95.39 0.67 191.68 3.33 285.87-12.88-6.97 18.4-21.41 33.63-30.93 51-4.12 16.41-18.12 28.11-23.82 43.94-38 72.68-55.41 154.27-63.27 235.58-42.99 12.78-87.78 12.23-132.71 15.3-18.63 7.07-38.79-2.03-58.15-0.03-37.94 2.32-74.16-8.97-111.18-14.78-17.4-3.69-9.8-27.38-16.22-39.75-4.86-25.69-9.72-51.55-11.38-77.6-12.72-51.66-22.57-104.02-38.16-154.99-2.03-23.53-22.49-43.29-23.94-65.62m22.85 16c1.65 18.5 16.23 32.29 18.32 50.52 16.34 61.98 30.06 124.58 37.23 187.42 4.35 11.55 17.97 6.13 25.88 11.84 66.77 12.9 136.74 9.68 202.18-3.39 7.78-17.28 1.76-38.69 9.75-56.41 8.59-66.13 39.85-126.41 76.75-181.16 0.7-1.04 1.53-3.41-0.21-3.81-35.42 7.67-70.8 5.14-106.51 10.19-40.19-4.82-80.99 4.22-120.91-3.54-47.1 0.85-95.48-2.74-142.48-11.66z" fill="#005200"/>
  <path d="m273.96 336.21c47 8.92 95.38 12.51 142.48 11.66 39.92 7.76 80.72-1.28 120.91 3.54 35.71-5.05 71.09-2.52 106.51-10.19 1.74 0.4 0.91 2.77 0.21 3.81-36.9 54.75-68.16 115.03-76.75 181.16-7.99 17.72-1.97 39.13-9.75 56.41-65.44 13.07-135.41 16.29-202.18 3.39-7.91-5.71-21.53-0.29-25.88-11.84-7.17-62.84-20.89-125.44-37.23-187.42-2.09-18.23-16.67-32.02-18.32-50.52m24.15 15.87c-2.63 8.2 8.02 16.38 7.46 24.64 14.64 42.11 19.27 85.64 28.02 128.65 45.92 12.03 93.01 10.63 139.16 1.75 3.14-1.09 5.27-4.78 4.48-8.13 1.5-47.72 21.09-92.72 46.12-132.63 2.61-2.01 10.97-13.07 2.09-10.99-75.25 10.2-152.27 7.15-227.33-3.29z" fill="#050"/>
  <path d="m298.11 352.08c75.06 10.44 152.08 13.49 227.33 3.29 8.88-2.08 0.52 8.98-2.09 10.99-25.03 39.91-44.62 84.91-46.12 132.63 0.79 3.35-1.34 7.04-4.48 8.13-46.15 8.88-93.24 10.28-139.16-1.75-8.75-43.01-13.38-86.54-28.02-128.65 0.56-8.26-10.09-16.44-7.46-24.64z" fill="#005a01"/>
  <path d="m967.27 588.04c-0.35-3.4 0-6.84 0.49-10.19 0.35 3.42-0.04 6.78-0.49 10.19z" fill="#41402e"/>
  <path d="m909.22 848.71c1.59 7.02 0.94 14.32 0.01 21.4-0.39-7.13-0.27-14.29-0.01-21.4z" fill="#777964"/>
  <path d="m333.19 892.98c51.73 11.34 103.42 25.68 156.41 30.05 0.37 0.31 1.09 0.94 1.46 1.25 15.19 1.87 31.25 0.06 46.78 0.77l0.98 0.09c34.56 2.13 69.35 0.08 103.99 0.99 10.06 0.8 21.89 2.32 31.24-0.1 2.06-2.54 6.8-0.47 9.84-0.98 2.76 0.03 5.7 0.38 8.34-0.74 8.15-1.67 16.59-1.01 24.82-2.24 2.69-0.1 5.55 0.19 8.18-0.73 51.48-5.08 102.67-12.99 153.86-20.38 4.84-0.02 9.75 0.05 14.63 0.02 2.06 7.24-5.84 18.35-7.11 26.88-38.92 6.3-73.44 11.6-112.38 17.06l-0.36-0.91c-8.2-1.15-20.3-2.55-28.93-0.27-0.31 0.36-0.93 1.08-1.23 1.44-15.3-0.25-30.5 2.19-45.64 3.81-2.88-0.19-5.68-0.34-8.36 0.69-3.53 0.71-7.13 0.23-10.69 0.32-15.92-0.13-31.83 0.2-47.74-0.14-27.68-1.99-55.55-0.33-83.3-0.86-5.02 0.32-9.99-0.26-14.88-1.31-2.77-0.4-5.44-0.67-8.19-0.73-37-1.07-73.01-11.13-109.56-16.08-0.37-0.3-1.12-0.88-1.49-1.17-8.63-2.32-18.57 1.53-26.99-2.77-15.29-4.64-32.69-2.59-46.75-11.12-2.52-7.51-6.26-14.81-6.93-22.84z" fill="#f9c905"/>
  <path d="m879.09 900.96c1.75-1.86 13.2-1.67 14.63 0.02-4.88 0.03-9.79-0.04-14.63-0.02z" fill="#3a2b00"/>
  <path d="m717.05 922.07c0.94-2.36 5.74-0.73 8.18-0.73-2.63 0.92-5.49 0.63-8.18 0.73z" fill="#ad8e10"/>
  <path d="m489.6 923.03c15.56 0.92 34.54-1.87 48.43 1.05-15.66-0.12-31.32-0.26-46.97 0.2-0.37-0.31-1.09-0.94-1.46-1.25z" fill="#3b2500"/>
  <path d="m491.06 924.28c15.65-0.46 31.31-0.32 46.97-0.2l-0.19 0.97c-15.53-0.71-31.59 1.1-46.78-0.77z" fill="#eac83d"/>
  <path d="m538.03 924.08c19.98 0.47 42.64-1.4 60.97 0.93-20.06 0.09-40.13-0.21-60.18 0.13l-0.98-0.09 0.19-0.97z" fill="#806a0f"/>
  <path d="m683.89 925.05c1.25-2.34 5.81-0.7 8.34-0.74-2.64 1.12-5.58 0.77-8.34 0.74z" fill="#8a7215"/>
  <path d="m538.82 925.14c20.05-0.34 40.12-0.04 60.18-0.13 14.66 0.17 29.36-0.37 44.02 0.16l-0.21 0.96c-34.64-0.91-69.43 1.14-103.99-0.99z" fill="#e5bf23"/>
  <path d="m643.02 925.17c9.18 0.92 22.56-2.41 30.05 0.85-10.09 0-20.18-0.15-30.26 0.11l0.21-0.96z" fill="#4c3300"/>
  <path d="m642.81 926.13c10.08-0.26 20.17-0.11 30.26-0.11l0.98 0.01c-9.35 2.42-21.18 0.9-31.24 0.1z" fill="#edc733"/>
  <path d="m386.87 926.94c8.42 4.3 18.36 0.45 26.99 2.77-7.52 0.15-15.02 0.38-22.53 0.32-1.76-0.48-3.99-1.07-4.46-3.09z" fill="#e2c132"/>
  <path d="m391.33 930.03c7.51 0.06 15.01-0.17 22.53-0.32 0.37 0.29 1.12 0.87 1.49 1.17-6.77-0.92-19.69 2.22-24.02-0.85z" fill="#483200"/>
  <path d="m343.22 932.67c64.03 3.01 126.46 21.95 190.65 25.63 2.69 0.24 5.48 0.73 8.24 0.74 3.86-0.1 7.72-0.03 11.6 0.21 3.99 0.41 8.03 0.76 12.08 0.93 3.29 0.35 6.66 0.87 10 1.06 25.67 1.78 51.5 0.25 77.24 0.78 10.38-0.18 20.83 0.63 31.17-0.73 4.62-0.4 9.32-0.57 13.98-0.25 0.72 0.07 2.17 0.19 2.89 0.26-5.72 0.42-11.39 1.05-17.07 1.58-4.67 0.27-9.28 0.55-13.91 1.03-42.54 3.32-85.67-0.29-128.43 0.41-32.94-5.27-66.84-2.55-99.12-11.84-28.03-2.66-55.54-12.98-84.1-11.06-0.86 17.9 17.53 28.37 24.41 43.74 12.99 25.84 39.52 39.84 58.52 60.54 68.91 39.2 153.84 43.2 229.59 25.2-6.68 8.4-15.34 14.9-22.08 23.1 14.71-4.9 30.2-5.3 45.5-6.9 24.15-5.2 45.99-17.5 69.9-23.7 35.92-17.2 63.74-45.6 92.24-72.94 7.64-16.33 17.42-32.19 24.25-48.54-20.7-6.12-41.36 11.52-62.97 7.96-0.05-0.39-0.14-1.16-0.19-1.55 23.02 2.42 44.67-15.75 67.46-8.33-9.39 17.92-18.37 36.08-28.27 53.73-32.06 29.37-62.7 63.97-105.88 76.17-18.98 6.2-36.92 15.5-56.57 19.6-23.29 0.1-45.82 8.1-69.08 7.3-3.38-0.5-6.68-0.8-10.06-1-9.35-1.3-18.8-0.8-28.2-0.8-5.02-0.1-10 0-15 0-13.52-2.7-27.33-3.8-40.88-6.3-3.05-0.5-6.04-0.7-9.09-0.7-5.24 1-6.48-5.7-11.35-5.7-24.41-3.8-46.46-15.6-67.97-27-17.9-16.8-37.91-31.5-55.11-48.9-12.98-20.49-25.59-41.3-40.67-60.35-3.6-3.66-2.41-8.89-3.72-13.38z" fill="#b7950c"/>
  <path d="m817.8 949.88c21.61 3.56 42.27-14.08 62.97-7.96-6.83 16.35-16.61 32.21-24.25 48.54-28.5 27.34-56.32 55.74-92.24 72.94-23.91 6.2-45.75 18.5-69.9 23.7-15.3 1.6-30.79 2-45.5 6.9 6.74-8.2 15.4-14.7 22.08-23.1 20.59-11.7 46.51-12.1 64.36-27.6 22.16-13 39.12-32.5 58.3-49.68 9.04-13.99 14.08-30.36 24.18-43.74z" fill="#bc9707"/>
  <path d="m358.44 941.42c28.56-1.92 56.07 8.4 84.1 11.06 32.28 9.29 66.18 6.57 99.12 11.84 42.76-0.7 85.89 2.91 128.43-0.41-16.78 5.38-35.59 4.06-53.14 7.04-1.6 0.04-4.78 0.13-6.37 0.17-54.73-3.08-114.01 1.67-169.3-11.35-22.57-4.09-45.5-9.57-68.5-8.09 6.16 18.06 21.58 32.76 30.16 50.32 18.79 13.5 31.71 35.7 54.87 42.1 51.4 25.5 111.95 24.3 167.93 14.7 28.92-11 59.24-19.6 81.52-42.5 7.67-7.1 14.34-15.2 22.93-21.12 8.27-12.34 13.45-26.52 20.81-39.28-1.55-0.18-4.66-0.53-6.21-0.71l0.96-0.04c20.05 1.59 39.07-4.55 58.49-8.12 3.18-0.11 6.49-0.04 9.72-0.07 1.12 0.24 3.63-0.39 3.65 1.37 0.05 0.39 0.14 1.16 0.19 1.55-10.1 13.38-15.14 29.75-24.18 43.74-19.18 17.18-36.14 36.68-58.3 49.68-17.85 15.5-43.77 15.9-64.36 27.6-75.75 18-160.68 14-229.59-25.2-19-20.7-45.53-34.7-58.52-60.54-6.88-15.37-25.27-25.84-24.41-43.74z" fill="#c6a10e"/>
  <path d="m744.94 943.74c8.63-2.28 20.73-0.88 28.93 0.27-9.65-0.01-19.3 0.1-28.93-0.27z" fill="#eec830"/>
  <path d="m743.71 945.18c0.3-0.36 0.92-1.08 1.23-1.44 9.63 0.37 19.28 0.26 28.93 0.27l0.36 0.91c-10.18 0.28-20.36-0.15-30.52 0.26z" fill="#5c4300"/>
  <path d="m804.24 947.03c2.99-1.9 6.23-1.92 9.72-0.07-3.23 0.03-6.54-0.04-9.72 0.07z" fill="#837025"/>
  <path d="m524.91 946.96c2.75 0.06 5.42 0.33 8.19 0.73-2.51-0.13-6.9 1.6-8.19-0.73z" fill="#836b12"/>
  <path d="m547.98 949c27.75 0.53 55.62-1.13 83.3 0.86-27.43 0.31-54.85 0.03-82.27 0.16-0.26-0.26-0.77-0.76-1.03-1.02z" fill="#e7c742"/>
  <path d="m689.71 949.68c2.68-1.03 5.48-0.88 8.36-0.69-1.18 2.29-5.85 0.66-8.36 0.69z" fill="#6b5806"/>
  <path d="m549.01 950.02c27.42-0.13 54.84 0.15 82.27-0.16l-0.31 0.94c-26.93-0.24-56.7 1.46-81.96-0.78z" fill="#261200"/>
  <path d="m631.28 949.86c15.91 0.34 31.82 0.01 47.74 0.14-14.09 2.17-32.37 0.69-48.05 0.8l0.31-0.94z" fill="#ae8f0e"/>
  <path d="m372.78 951.68c23-1.48 45.93 4 68.5 8.09 55.29 13.02 114.57 8.27 169.3 11.35-11.16 3.78-22.73 3.66-34.3 5.02-42.86-3.57-86.83 1.58-129.07-8.41-18.25-3.14-36.54-6.58-54.95-8.26-7.35-1.71-5.23 6.6-2.63 9.78 12.19 11.93 16.8 30.13 31.16 39.95 42.86 45.3 112.29 45.7 169.39 35 40.54-12.9 80.09-39.3 93.82-81.32 5.68-0.53 11.35-1.16 17.07-1.58 2.71-0.22 5.57-0.17 8.26-0.92 9.34-1.8 18.92-2.2 27.94-5.43 2.49 0.06 4.99 0.14 7.52 0.24 1.55 0.18 4.66 0.53 6.21 0.71-7.36 12.76-12.54 26.94-20.81 39.28-8.59 5.92-15.26 14.02-22.93 21.12-22.28 22.9-52.6 31.5-81.52 42.5-55.98 9.6-116.53 10.8-167.93-14.7-23.16-6.4-36.08-28.6-54.87-42.1-8.58-17.56-24-32.26-30.16-50.32z" fill="#d2ab13"/>
  <path d="m737.27 954.95c-1.13-1.92 8.81-1.73 8.48 0.2l-0.96 0.04c-2.53-0.1-5.03-0.18-7.52-0.24z" fill="#56490e"/>
  <path d="m533.87 958.3c2.51 0.13 6.93-1.61 8.24 0.74-2.76-0.01-5.55-0.5-8.24-0.74z" fill="#705f18"/>
  <path d="m392.26 959.47c18.41 1.68 36.7 5.12 54.95 8.26 42.24 9.99 86.21 4.84 129.07 8.41-8.02 1.8-16.36 0.5-24.27 2.89-2.66 0.23-5.23 0.6-7.84 0.95-43.16 1.16-86.19-1.16-128.37-9.93-4.09 0.04-15.27-5.23-13.51 3.32 12.68 18.42 25.18 38.23 45.75 48.63 37.68 15.9 82 17.4 119.53 0.5 21.64-8.9 45.23-28.21 49.38-51.55 17.55-2.98 36.36-1.66 53.14-7.04 4.63-0.48 9.24-0.76 13.91-1.03-13.73 42.02-53.28 68.42-93.82 81.32-57.1 10.7-126.53 10.3-169.39-35-14.36-9.82-18.97-28.02-31.16-39.95-2.6-3.18-4.72-11.49 2.63-9.78z" fill="#ddb619"/>
  <path d="m553.71 959.25c2.7 1.08 11.4-2.57 12.08 0.93-4.05-0.17-8.09-0.52-12.08-0.93z" fill="#433200"/>
  <path d="m565.79 960.18c2.28 0.82 9.14-1.82 10 1.06-3.34-0.19-6.71-0.71-10-1.06z" fill="#79681e"/>
  <path d="m698.18 961.04c2.72-1.44 6.43-1.66 11.15-0.66-2.69 0.75-5.55 0.7-8.26 0.92-0.72-0.07-2.17-0.19-2.89-0.26z" fill="#77651c"/>
  <path d="m575.79 961.24c25.72-0.53 51.47-0.14 77.21-0.22l0.03 1c-25.74-0.53-51.57 1-77.24-0.78z" fill="#b19628"/>
  <path d="m653 961.02c10.38 0.18 20.83-0.59 31.2 0.27-10.34 1.36-20.79 0.55-31.17 0.73l-0.03-1z" fill="#533f00"/>
  <path d="m402.29 973.37c-1.76-8.55 9.42-3.28 13.51-3.32 42.18 8.77 85.21 11.09 128.37 9.93-39.98 7.53-82.85 5.77-123.3-1.8-10.45-1.33-0.96 6.95 1.66 10.39 10.98 20.33 34.58 31.43 57.12 29.83 28.48 4.4 63.57-10.6 72.36-39.37 7.91-2.39 16.25-1.09 24.27-2.89 11.57-1.36 23.14-1.24 34.3-5.02 1.59-0.04 4.77-0.13 6.37-0.17-4.15 23.34-27.74 42.65-49.38 51.55-37.53 16.9-81.85 15.4-119.53-0.5-20.57-10.4-33.07-30.21-45.75-48.63z" fill="#eac020"/>
  <path d="m422.53 988.57c-2.62-3.44-12.11-11.72-1.66-10.39 40.45 7.57 83.32 9.33 123.3 1.8 2.61-0.35 5.18-0.72 7.84-0.95-8.79 28.77-43.88 43.77-72.36 39.37-22.54 1.6-46.14-9.5-57.12-29.83z" fill="#f3ca23"/>
  <path d="m522.04 1088c3.05 0 6.04 0.2 9.09 0.7-2.53-0.8-7.75 1.9-9.09-0.7z" fill="#453300"/>
  <path d="m572.01 1095c5 0 9.98-0.1 15 0l-0.03 1c-4.32-1-12.21 1.8-14.97-1z" fill="#413400"/>
  <path d="m587.01 1095c9.4 0 18.85-0.5 28.2 0.8-9.41 0.3-18.83 0.3-28.23 0.2l0.03-1z" fill="#a89338"/>
  <path d="m615.21 1095.8c3.38 0.2 6.68 0.5 10.06 1-2.38-1-9.16 1.9-10.06-1z" fill="#745f07"/>
  <path d="m598.83 1106.9c20.47-4.2 42.4-1.9 61.96 5.2 1.51 6 7.79 9.8 8.24 15.9-0.07 2.6-0.14 5.1-0.21 7.7-1.09 6.6-0.9 13.4-0.81 20.2-3.13 9.2-9.03 17.8-13.46 26.6-8.06 5.1-16.52 9.6-24.81 14.4-21.48 2.8-41.47-8.8-57.31-22.4-5.42-13.3-13.76-26.7-8.48-41.5-0.41-17.9 19.15-27.7 34.88-26.1z" fill="#faca03"/>
  <path d="m556.17 1146.2c-0.29-6.4-0.56-12.8 0.59-19.1 0.22 6.3 0.69 12.7-0.59 19.1z" fill="#3e3d2d"/>
  <path d="m669.03 1128c1.81 0.5 1.59 7.8-0.21 7.7 0.07-2.6 0.14-5.1 0.21-7.7z" fill="#846901"/>
  <path d="m668.01 1155.9c-0.09-6.8-0.28-13.6 0.81-20.2-0.92 5.8 2.28 16.2-0.81 20.2z" fill="#cfb03b"/>
  <path d="m669.18 1174.1c20.22 5.7 40.7 10.9 60.81 16.9 24.67 14.5 50.56 27.7 71.72 47.3 16.9 15.6 38.94 27.3 49.38 48.5-18.94 8.4-38.62 15-57.88 22.5-16.67-1.8-31.55 6.3-47.49 9.4-42.5 6.7-85.19 12.3-127.83 17.9-69.78-5.1-140.18-1.9-209.62-10.7-19.46-7.1-40.72-9.5-59.2-19 8.5-13.4 17.03-27.4 31.05-35.8 38.13-26.8 71.28-61.6 114.94-79.6 20.17-10.9 44.14-16.2 66.8-15.7 12.48 14.2 28.92 23.4 45.7 31.7 13.59 0.4 27.48-1.2 40.09-6.7l0.06 0.7c-0.48 1.2-0.96 2.4-1.53 3.6-14.75 6.7-34.74 15.2-48.87 3.5-9.7-4.6-20.03-9.3-26.95-17.8-10.32-8.4-24.17-1.4-35.41 1.2-53.48 13.5-92.44 54.8-135.26 86.7-3.88 7-19.26 20.6-5.94 24.6 24.91 6.1 49.35 14.4 75.11 15.9 49.9-0.1 99.88 3.6 149.63 5.5 33.62-5.1 67.29-9.4 101.25-16.2 15.18 1.7 28.66-9.2 43.68-6.9 16.41-6.2 32.61-12.7 49.21-18.2-0.9-10.8-11.46-18.2-19.44-24.6-23.98-23.3-52.22-41.4-80.56-58.5-17.66-3.9-34.47-11.8-52.7-12.2-1.85 4.1-3.09 11.3-9.01 10.9 4.29-11.6 17-12.1 18.26-24.9z" fill="#013f01"/>
  <path d="m367.32 1272.3c44.18-34.2 85.41-74.7 138.72-94.4-3.1 5-9.77 7.7-10.98 13.6-43.66 18-76.81 52.8-114.94 79.6-14.02 8.4-22.55 22.4-31.05 35.8 18.48 9.5 39.74 11.9 59.2 19-1.86 2.9-8.93 5.3-4.5 8.5-21.28-4-41.91-9.3-61.52-16.9-5-2.6-4.3 5.2-2.47 7.4 5.64 2.4 11.41 4.6 17.28 6.3 3.6 0.4 7.22 0.5 10.86 0.6 15.91 8.8 34.07 10.1 51.79 12.4 28.65 5.4 57.79 9 86.67 13.3-2.82 1.7-11.26 5.2-5.22 7.5-6.31-0.5-12.57-1.4-18.84-2.2-11.21 28.3-18.98 58.1-28.26 87.1 5.3 3.7 14.37 4.1 21.13 6-1.51 1.8-2.97 3.6-4.52 5.3-38.94-6.4-78.31-10.7-116.66-20.2-13.61-2.6-24.58-12.2-38.07-15.2-5.27-1.2-10.65-0.6-15.97-0.5-6.88-1.9-14.47-4.7-18.49-11-19.33-6.1-38.12-13.9-57.36-20.2-10.89 9.4-19.95 21.5-30.43 31.6-5.03 4.6 5.68 5.9 8.15 8.5 31.84 19.8 67.24 32.7 101.33 48 2.95 0.6 6.22 1.8 8.94-0.1 4.89-0.7 8.59 3.3 12.7 5.2 76.42 19.1 154.73 30.9 233.14 38.6 33.88-3.9 67.95-5.9 101.8-10.1 3.48 0 7.24 0.9 10.56-0.6 3.79-0.2 7.59-0.3 11.41-0.5 4.14-0.8 9.65 2.2 13.26-0.6 3.11-0.1 6.39 0.3 9.38-0.9 36.47-1.6 72.87-14.1 107.03-17.8 28.17-7.4 55.51-18.6 84.58-22.3 13.65-2.4 25.4-10.3 38.3-14.9-4.05 5.3-11.58 8.7-13.13 15.3-25.72 12.8-56.36 10.4-81.16 25.4-8.65 5.3-19.03 4.2-28.67 4.3-2.92-0.2-5.75-0.5-8.45 0.6-40.13 10.8-81.03 17-122.53 19.4-3.27-0.2-6.54-0.8-9.57 0.6-30.62 5.8-61.9 2.5-92.4 9.2h-19.69c-13.19-3.1-27-2.8-40.44-4.2-3.82-0.4-7.63-0.6-11.45-0.6-46.61-3.8-91.98-16.2-138.43-21.5-38.77-11.9-79.54-19.2-115.58-38.5-24.22-10.4-49.29-20.4-69.5-37.5 2.27-8.5 5.42-18 13.15-23.3 14.56-11.7 27.09-25.7 41.3-37.7 25.37-14.2 51.36-27.4 76.75-41.4 10.21 0.4 14.41-11.9 14.62-20.1 18.39-5.4 22.38-27 38.23-35.9m-42.52 61.1c-32.62 10.6-59.35 33.8-89.39 49.8 11.05 17.4 36.07 13.1 51.77 23.5 26.15-17.3 46.23-42.9 69.8-63.9-10.08-3.1-20.83-11.2-32.18-9.4m48.11 13.8c-23.3 21.1-47.44 42-69.93 63.8 11.79 10.5 28.78 10 42.21 17.9 7.51-2 28.64 10.4 26.97-0.1 14.61-24.2 29.57-48.3 44.86-71.9-14.76-2.9-29.26-7.4-44.11-9.7m56.47 10c-15.45 26.4-35.17 51.9-46.14 80.6 18.63 5.9 38.79 2.4 57.61 8.1 9.38-27.7 19.83-55.8 27.98-83.7-13.23-1.1-26.27-4.1-39.45-5z" fill="#080703"/>
  <path d="m534.95 1192c11.24-2.6 25.09-9.6 35.41-1.2 6.92 8.5 17.25 13.2 26.95 17.8 14.13 11.7 34.12 3.2 48.87-3.5-8.25 7-16.94 16.3-29.42 15.8-19.33 4.8-31.23-16-46.98-22.5-31.57 4.1-61.79 17.8-85.9 38.5-20.86 16.2-46.09 30.1-58.79 53.9 10.03 9.8 28.07 6.8 40.46 13.7 28.95 5.2 58.65 1.6 87.8 5.4 61.88 5.5 122.77-6.3 183.21-17.3 12.65-6.1 26.86-9 39.33-14.8-6.64-16.8-24.41-25.1-37.44-36.3-25.33-21.8-56.55-41.2-90.74-40l-0.06-0.7c0.99-0.8 2.1-1.4 3.27-1.8 5.92 0.4 7.16-6.8 9.01-10.9 18.23 0.4 35.04 8.3 52.7 12.2 28.34 17.1 56.58 35.2 80.56 58.5 7.98 6.4 18.54 13.8 19.44 24.6-16.6 5.5-32.8 12-49.21 18.2-15.02-2.3-28.5 8.6-43.68 6.9-33.96 6.8-67.63 11.1-101.25 16.2-49.75-1.9-99.73-5.6-149.63-5.5-25.76-1.5-50.2-9.8-75.11-15.9-13.32-4 2.06-17.6 5.94-24.6 42.82-31.9 81.78-73.2 135.26-86.7z" fill="#014400"/>
  <path d="m483.88 1236.9c24.11-20.7 54.33-34.4 85.9-38.5 15.75 6.5 27.65 27.3 46.98 22.5 12.48 0.5 21.17-8.8 29.42-15.8 0.57-1.2 1.05-2.4 1.53-3.6 34.19-1.2 65.41 18.2 90.74 40 13.03 11.2 30.8 19.5 37.44 36.3-12.47 5.8-26.68 8.7-39.33 14.8-60.44 11-121.33 22.8-183.21 17.3-29.15-3.8-58.85-0.2-87.8-5.4-12.39-6.9-30.43-3.9-40.46-13.7 12.7-23.8 37.93-37.7 58.79-53.9m89.64-25.5c-36.56 4.7-65.46 28.6-92.69 51.4-8.34 4.8-15.8 12.6-17.65 21.9 42.49 15.9 88.53 10.6 133 14.1 15.08 4.3 29.87-3 44.98-2.4 32.81-6.6 65.48-9.7 95.65-23.6-0.8-6.6-7.43-10.6-11.84-14.8-23.95-21.7-52.25-42.9-85.36-45.8-8.63 14.5-31.64 23.2-45.51 10.6-8.1-2.2-11.36-14-20.58-11.4z" fill="#004900"/>
  <path d="m573.52 1211.4c9.22-2.6 12.48 9.2 20.58 11.4 13.87 12.6 36.88 3.9 45.51-10.6 33.11 2.9 61.41 24.1 85.36 45.8 4.41 4.2 11.04 8.2 11.84 14.8-30.17 13.9-62.84 17-95.65 23.6-15.11-0.6-29.9 6.7-44.98 2.4-44.47-3.5-90.51 1.8-133-14.1 1.85-9.3 9.31-17.1 17.65-21.9 27.23-22.8 56.13-46.7 92.69-51.4m46.61 23c-7.11 6.6-17.84 10.1-25.69 1.8-23.5-7.6-38.16 17.8-56.19 25.5 5.01 3-11.65 6.1-1.12 8.3 42.23 12.9 88.91 4.9 129.82-3.2 1.21-5.4-8.43 4-4.71-1.5 6.38-8.1-7.94-11.9-12.35-16.2-6.24-10-19.46-11.2-29.76-14.7z" fill="#005300"/>
  <path d="m620.13 1234.4c10.3 3.5 23.52 4.7 29.76 14.7 4.41 4.3 18.73 8.1 12.35 16.2-3.72 5.5 5.92-3.9 4.71 1.5-40.91 8.1-87.59 16.1-129.82 3.2-10.53-2.2 6.13-5.3 1.12-8.3 18.03-7.7 32.69-33.1 56.19-25.5 7.85 8.3 18.58 4.8 25.69-1.8z" fill="#005a01"/>
  <path d="m780.99 1324.1c25.53-10.4 52.38-17.2 77.91-27.7 4.78 5.8 14.96 9.4 14.93 17.2-38.07 9.9-75.31 24.7-114.88 27.3-39.28 4.6-78.34 11-117.66 15.3-6.1-0.2-12.2-0.1-18.28-0.2-8.56-1.5-17.54-1.8-26.1-0.4-3.15 1.1-6.35 2-9.62 2.6-16.42-0.4-32.84-0.2-49.26-0.2-8.43-0.1-16.85-0.1-25.26 0.2-1.6-0.2-4.79-0.5-6.39-0.7-28.88-4.3-58.02-7.9-86.67-13.3-2.98-2.1-8.22-0.6-10.72-2.9 3.62-6.4 11.71-0.5 17.24-1.5 3.37 0.3 6.68 1 9.87 2.2 17.41 4.5 36.02 0.8 53.9 2 8 0.1 16.01-0.2 24.02 0 7.92 1.8 16.08 0.9 24.13 0.8 8.2 0.3 16.4 0.1 24.61 0.4 8.68 1.4 17.49 0.7 26.24 0.8 9.22 1.9 18.72 0.9 28.07 0.8 3.95-0.1 7.87-0.5 11.8-1 2.74-0.1 5.62 0.3 8.33-0.5 47.8-7.9 95.96-13.7 143.79-21.2z" fill="#f6c709"/>
  <path d="m339.78 1324.9c-1.83-2.2-2.53-10 2.47-7.4-2.37 1.6-1.83 4.8-2.47 7.4z" fill="#9c8524"/>
  <path d="m339.78 1324.9c0.64-2.6 0.1-5.8 2.47-7.4 19.61 7.6 40.24 12.9 61.52 16.9 7.52 1.6 15.05 3.3 22.46 5.4-5.53 1-13.62-4.9-17.24 1.5 2.5 2.3 7.74 0.8 10.72 2.9-17.72-2.3-35.88-3.6-51.79-12.4-3.62-0.4-7.24-0.6-10.86-0.6-5.87-1.7-11.64-3.9-17.28-6.3z" fill="#eec311"/>
  <path d="m877.5 1323.3c24.85 11.3 47.61 30.2 71.48 44.7 6.31 4.2 15.49 4.6 19.1 12-4.86 3.5-10.74 5.9-16 8.9-25.9-19.9-52.07-39.4-78.15-59-7.24-2.5 1.05-5.1 3.57-6.6z" fill="#9b9c22"/>
  <path d="m855.58 1328.4c10.98 0 17.72 12.1 26.34 17.7 18.05 16.9 40.47 29.5 56.7 48-13.57 9.1-31.09 14.7-46.51 21.7-23.82-25.6-48.65-51.2-75.08-73.8 11.01-6.8 26.24-8.2 38.55-13.6z" fill="#9e9e1f"/>
  <path d="m357.06 1331.2c3.62 0 7.24 0.2 10.86 0.6-3.64-0.1-7.26-0.2-10.86-0.6z" fill="#7a640a"/>
  <path d="m324.8 1333.4c11.35-1.8 22.1 6.3 32.18 9.4-23.57 21-43.65 46.6-69.8 63.9-15.7-10.4-40.72-6.1-51.77-23.5 30.04-16 56.77-39.2 89.39-49.8z" fill="#c8c934"/>
  <path d="m436.1 1342c17.94 1.7 35.96 0.8 53.95 1l-0.05 1c-17.88-1.2-36.49 2.5-53.9-2z" fill="#e0bd2b"/>
  <path d="m800.23 1342.4c24.53 14.1 41.85 37.9 63.51 55.8 7.9 5.8 11.29 15.2 15.22 23.7-15.93 7-32.05 14.3-49.63 15.4-5.31-0.5-15.14 6.7-17.6-1.1-15.25-28.3-29.7-57.6-45.69-85.1 9.53-7.3 23.06-5.3 34.19-8.7z" fill="#9e9e1f"/>
  <path d="m490.05 1343c8 0 16.09-0.8 23.97 1-8.01-0.2-16.02 0.1-24.02 0l0.05-1z" fill="#604700"/>
  <path d="m514.02 1344c8.05 0.1 16.15-0.6 24.13 0.8-8.05 0.1-16.21 1-24.13-0.8z" fill="#a68e25"/>
  <path d="m562.76 1345.2c8.73 0 17.62-1.2 26.24 0.8-8.75-0.1-17.56 0.6-26.24-0.8z" fill="#735800"/>
  <path d="m628.87 1345.8c2.68-1 5.47-0.7 8.33-0.5-2.71 0.8-5.59 0.4-8.33 0.5z" fill="#725700"/>
  <path d="m589 1346c9.35 0.2 18.77-0.7 28.07 0.8-9.35 0.1-18.85 1.1-28.07-0.8z" fill="#b89d2f"/>
  <path d="m372.91 1347.2c14.85 2.3 29.35 6.8 44.11 9.7-15.29 23.6-30.25 47.7-44.86 71.9 1.67 10.5-19.46-1.9-26.97 0.1-13.43-7.9-30.42-7.4-42.21-17.9 22.49-21.8 46.63-42.7 69.93-63.8z" fill="#c9c933"/>
  <path d="m735.47 1352.6c6.47-1.2 12.83 1.1 19.29 1.3 19.31 21 31.1 48 42.02 74.2 2.7 5 6.07 10.7 4.57 16.3-23.91 3.8-48.07 6-71.93 10.1-6.36 2.2-11.46-2.7-16.34-5.7-5.4-29.4-13.21-58.8-23.91-86.8 15.36-3.3 30.76-7 46.3-9.4z" fill="#9e9f1f"/>
  <path d="m596.91 1355.6c8.56-1.4 17.54-1.1 26.1 0.4-8.7 0-17.41 0-26.1-0.4z" fill="#c0a331"/>
  <path d="m623.01 1356c6.08 0.1 12.18 0 18.28 0.2-5.87 2.1-12.35 0.7-18.28-0.2z" fill="#775d00"/>
  <path d="m429.38 1357.2c13.18 0.9 26.22 3.9 39.45 5-8.15 27.9-18.6 56-27.98 83.7-18.82-5.7-38.98-2.2-57.61-8.1 10.97-28.7 30.69-54.2 46.14-80.6z" fill="#c8c933"/>
  <path d="m512.77 1358.2c8.41-0.3 16.83-0.3 25.26-0.2l-0.06 1c-8.41 0-16.87 0.5-25.2-0.8z" fill="#664e00"/>
  <path d="m538.03 1358c16.42 0 32.84-0.2 49.26 0.2-1.11 0.5-2.23 0.9-3.38 1.2-8.35-0.5-16.71-0.6-25.05-0.2-6.96-0.4-13.94-0.2-20.89-0.2l0.06-1z" fill="#f0ca29"/>
  <path d="m558.86 1359.2c8.34-0.4 16.7-0.3 25.05 0.2-8.33 0.9-16.78 1.1-25.05-0.2z" fill="#9a8220"/>
  <path d="m635.37 1365.2c14.1-0.5 28.54-0.1 42.28-3.1 12.65 24 17.65 51.1 26.37 76.2 0.93 3.7-1.9 9.7 0.89 12.6 5.71 3.2-7.45 9.5-11.69 8.9-3.21-0.5-6.54-1.8-9.52 0-8.91-0.2-17.73 1.5-26.62 1.2-4.16-0.1-8.35-0.3-12.41 0.6-8.16 0.2-16.26 2.2-24.44 1.2-0.47-16-2.47-31.9-3.23-47.8 0.06-3.6 0.59-7-0.71-10.4-0.24-13-4.95-25.5-5.17-38.5 2.87-0.3 5.96-0.1 8.88-0.1 5.05-0.4 10.5 1.2 15.37-0.8z" fill="#adae26"/>
  <path d="m482.32 1362.8c6.27 0.8 12.53 1.7 18.84 2.2 9.94 1.3 19.98 2.2 29.84 4.1-5.68 29.5-9.91 59.4-13.45 89.3-6.28 1.8-12.9-1.5-19.33-0.6-3.18-0.4-6.27-0.8-9.45-0.6-4.55-0.3-9.09-0.6-13.58-1.3-6.76-1.9-15.83-2.3-21.13-6 9.28-29 17.05-58.8 28.26-87.1z" fill="#acad26"/>
  <path d="m541.65 1371.5c18.32-2.3 36.63-4.9 55.04-6.5 6.39 17.4 10.83 35.3 10.3 54-0.01 3.4-0.69 7.1 0.76 10.3 0.67 3.4 0.16 7.1 0.22 10.7-0.05 4-0.29 8.2 0.76 12.2 0.07 2.6 0.01 5.5 1 8-2.04 8.3-19.58 3.4-27.22 6.9-4.96-6-12.17-5.2-19.19-5.4-3.16-0.4-6.23-0.8-9.39-0.7-7.97 0.2-15.89-0.8-23.83-1.2 2.55-29.5 3.77-59.5 11.55-88.3z" fill="#adae26"/>
  <path d="m620 1366c2.87-2.4 10.44-0.9 15.37-0.8-4.87 2-10.32 0.4-15.37 0.8z" fill="#676613"/>
  <path d="m973.81 1389.2c10.1 7.5 16.33 19.1 25.7 27.5 0.89 4.6-3.59 9-6.12 12.7-18.51 11.8-39.32 19.5-59.12 28.8-12.9 4.6-24.65 12.5-38.3 14.9-29.07 3.7-56.41 14.9-84.58 22.3-34.16 3.7-70.56 16.2-107.03 17.8-3.17 0.6-7.74-1.7-10.33 0.8-4.12 0-8.3-0.2-12.31 0.7-3.82 0.2-7.62 0.3-11.41 0.5-3.56-0.2-7.23-0.9-10.56 0.6-33.85 4.2-67.92 6.2-101.8 10.1-78.41-7.7-156.72-19.5-233.14-38.6-4.11-1.9-7.81-5.9-12.7-5.2-3-0.1-5.95 0.2-8.94 0.1-34.09-15.3-69.49-28.2-101.33-48-2.47-2.6-13.18-3.9-8.15-8.5 10.48-10.1 19.54-22.2 30.43-31.6 19.24 6.3 38.03 14.1 57.36 20.2 4.02 6.3 11.61 9.1 18.49 11 5.28 0.9 10.64 0.5 15.97 0.5 13.49 3 24.46 12.6 38.07 15.2 38.35 9.5 77.72 13.8 116.66 20.2 15.71 5.9 38.84-0.2 49.69 13 1.27 1.8 6.04 1.6 7.53-0.3 4.1-0.1 8.33 0.3 12.39-0.7 3.83-0.1 7.67-0.2 11.53-0.3 2.72-0.1 5.47-0.1 8.23-0.1 12.8 1 25.46 2.9 38.13 4.9 25.87-2.3 51.36-9.4 77.52-8.8 0.35 0.3 1.04 1 1.38 1.4 6.46 0.4 17.39 2.7 22.79-0.3l0.2-0.9c32.92-5.9 66.75-6.2 98.83-16.3 2.95-0.2 6.05 0 9.06 0.1 30.66-0.5 59.1-17.5 89.04-23.9 22.04-20.2 54.58-20.1 76.82-39.8z" fill="#faca03"/>
  <path d="m616.29 1404.6c1.3 3.4 0.77 6.8 0.71 10.4-3.03-0.9-0.45-7.5-0.71-10.4z" fill="#656515"/>
  <path d="m606.99 1419c2.94 0.7 0.47 7.5 0.76 10.3-1.45-3.2-0.77-6.9-0.76-10.3z" fill="#4b4b06"/>
  <path d="m299.97 1425.3c5.32-0.1 10.7-0.7 15.97 0.5-5.33 0-10.69 0.4-15.97-0.5z" fill="#725700"/>
  <path d="m704.02 1438.3c2.39 1.7 0.68 8.7 0.89 12.6-2.79-2.9 0.04-8.9-0.89-12.6z" fill="#78782f"/>
  <path d="m607.97 1440c2.65 1.9 0.58 8.6 0.76 12.2-1.05-4-0.81-8.2-0.76-12.2z" fill="#7b7b34"/>
  <path d="m608.73 1452.2c2.5 0.6 0.97 5.7 1 8-0.99-2.5-0.93-5.4-1-8z" fill="#414102"/>
  <path d="m798.89 1452.8c2.84-1.8 6.01-0.5 9.06 0.1-3.01-0.1-6.11-0.3-9.06-0.1z" fill="#846f16"/>
  <path d="m488.77 1457.2c3.18-0.2 6.27 0.2 9.45 0.6-3.16 0.3-6.34-0.4-9.45-0.6z" fill="#606221"/>
  <path d="m683.7 1459.8c2.98-1.8 6.31-0.5 9.52 0-3.24 0-6.35 0.4-9.52 0z" fill="#59581a"/>
  <path d="m553.93 1461c3.16-0.1 6.23 0.3 9.39 0.7-2.62-0.8-7.97 1.9-9.39-0.7z" fill="#464610"/>
  <path d="m644.67 1461.6c4.06-0.9 8.25-0.7 12.41-0.6-2.12 2.5-8.75 0.7-12.41 0.6z" fill="#484711"/>
  <path d="m675.69 1468.9c8.12-0.1 16.23 0.2 24.37 0.2l-0.2 0.9c-7.61-0.2-15.2 0.1-22.79 0.3-0.34-0.4-1.03-1.1-1.38-1.4z" fill="#543b00"/>
  <path d="m677.07 1470.3c7.59-0.2 15.18-0.5 22.79-0.3-5.4 3-16.33 0.7-22.79 0.3z" fill="#edc732"/>
  <path d="m551.81 1472.9c2.32-2.2 5.49-0.4 8.23-0.1-2.76 0-5.51 0-8.23 0.1z" fill="#a6902a"/>
  <path d="m527.89 1473.9c3.87-1.8 8.31-0.5 12.39-0.7-4.06 1-8.29 0.6-12.39 0.7z" fill="#725800"/>
  <path d="m520.36 1474.2c2.5-0.1 5.01-0.2 7.53-0.3-1.49 1.9-6.26 2.1-7.53 0.3z" fill="#bfa02e"/>
  <path d="m303.17 1482.2c2.99 0.1 5.94-0.2 8.94-0.1-2.72 1.9-5.99 0.7-8.94 0.1z" fill="#846801"/>
  <path d="m802.86 1503.8c2.7-1.1 5.53-0.8 8.45-0.6-2.74 0.9-5.69 0.5-8.45 0.6z" fill="#4f514e"/>
  <path d="m694.03 1514c2.59-2.5 7.16-0.2 10.33-0.8-2.99 1.2-6.27 0.8-9.38 0.9l-0.95-0.1z" fill="#d0b33a"/>
  <path d="m681.72 1514.7c4.01-0.9 8.19-0.7 12.31-0.7l0.95 0.1c-3.61 2.8-9.12-0.2-13.26 0.6z" fill="#826700"/>
  <path d="m659.75 1515.8c3.33-1.5 7-0.8 10.56-0.6-3.32 1.5-7.08 0.6-10.56 0.6z" fill="#b69a2e"/>
  <path d="m670.76 1523.8c3.03-1.4 6.3-0.8 9.57-0.6-3.06 1.2-6.41 0.7-9.57 0.6z" fill="#757575"/>
  <path d="m506.78 1528.2c3.82 0 7.63 0.2 11.45 0.6-3.84 0-7.66-0.2-11.45-0.6z" fill="#595959"/>
 </g>
</svg>
