<?xml version="1.0" encoding="UTF-8"?>
<svg width="1183pt" height="1677pt" version="1.1" viewBox="0 0 1183 1677" xmlns="http://www.w3.org/2000/svg">
 <defs>
  <filter id="a" color-interpolation-filters="sRGB">
   <feColorMatrix values="1 0 0 0 0 0 1 0 0 0 0 0 1 0 0 0 0 0 1000 -500 "/>
  </filter>
 </defs>
 <g filter="url(#a)">
  <path d="m447.06 0h80.28c33.79 2.3 67.79 0.36 101.66 1 40.59 0.76 81.28-1.56 121.8 1.21 3.78 0.35 7.58 0.54 11.41 0.57 11.88 0.73 23.75 1.65 35.63 2.38 3.37 0.57 6.88 0.94 10.33 0.67 7.57 0.26 15.14 0.77 22.71 1.34 3.34 0.58 6.83 0.89 10.25 0.67 7.24 0.41 14.47 0.91 21.73 1.32 3.35 0.61 6.86 0.91 10.3 0.67 90.89 1.63 179.94 20.92 269.54 34.32 14.7 1.67 25.5 15.42 40.3 14.48v0.94c-8.7 34.23-12.1 70.31-28 102.38-24.7 43.14-49.6 86.88-83.1 123.91-36.5 46.45-86.3 80.92-138.65 107.39-11.4 6.23-19.98 16.46-31.26 22.81-20.32 8.77-41.09 16.48-61.28 25.58-4.7 1.97-8.2 7-7.52 12.2-0.16 5.39-0.35 10.82-0.01 16.22 9.83 27.04 8.57 62.39-16.06 81.9 3.51 4.82 11.33 7.52 11.84 14-0.38 2.69-0.62 5.48-0.81 8.22-0.22 6.34-0.6 12.68-1.64 18.96-7.3 5.53-19.95 8.88-16.09 20.54-15.12 3.2-30.64 4.85-45.45 9.2-9.58 3.93-8.65 15.22-11.2 23.55-6.68 6.89-16.47 5.32-25.09 5.64-7.92 9.63-14.95 20.34-11.85 33.68-1.13 6.09-0.89 12.3-0.67 18.47 2.67 17.96-1.29 42.41-21.08 48.79-9.17 7.16-28.34 2.87-24.22 19.84-0.45 3.06-0.8 6.26-0.73 9.4 1.28 7.12 0.74 13.43-7.27 15.07-1.82 11.02-4.44 22.37-8.47 32.43 12.73 16.59 18.05 41.05 1.77 57.4 11.4 19.1 17.72 48.97-3.87 63.27 4.69 13.58 19.08 25.48 11.53 41.53-0.57 3.25-0.82 6.66-0.58 9.95-1.47 5.6-9.94 6.4-11.13 11.9 10.32 16.8 26.5 32.8 19.36 54.5-1.97 10.5-14.8 11.8-21.2 17.7 5.31 8 12.55 15.5 18.5 23.4 8.85 17.7 4.86 41.8-14.6 50.7 13.48 14.3 31.93 34.4 19.99 55.1-2.08 8.3-8.54 12.6-15.02 15.9 9.41 14.5 27.67 31.6 18.88 50.9-0.11 8.9-11.13 9.8-16.79 14.3 3.11 10.7 14.78 19.1 13.32 31.3 0.53 9.6-9.09 15-13.18 22.3 7.14 5.7 7.24 14 5.53 22.5 13.21 8.2 28.16 15.7 35.01 30.8 2.33 10.8 4.81 21.8 6.82 32.7-5.2 15.4-11.23 30.8-14.15 46.9-1.14 11.9 9.5 17.9 16.96 24.9 30.36 9.2 63.21 10.8 91.52 26.2 29 15 61.59 23.5 87.79 43.3 3.05 8.7 8.33 19 4.95 28.3-7.98 7.5-14.25 16.9-22.51 23.9-29.36 8.1-57.91 19-87.42 26.5-48.79 7.2-97.59 14.4-146.44 21.1h-30.8c-17.03-2.3-34.26-0.3-51.36-1.2-18.78-1.7-37.71-0.6-56.54-0.6-9.51-0.4-19.02-0.1-28.52-0.4-14.34-1.8-28.84-0.5-43.24-0.6-36.97-8.6-74.35-16.4-109.8-30.3-4.67-4.1-10.21-7.3-14.55-11.9-0.22-7.7 1.79-15.7-0.42-23.2 0.12-25.2 24.5-36.3 40.86-50.8 37.82-12.2 74.21-29.3 113.56-36.4 13.59-1.6 19.38-15.5 28.54-23.8 8.94-23.8-19.68-40.2-12.23-63.9-5.11-21.5 5.89-46.3 27.03-54 14.6-4.4-6.91-16.4-9.18-23.9-0.85-11.6 2.26-23.9-0.71-35.3-0.4-8.5 9.93-13.9 10.48-21.1-11.93-16.7-25.31-42.6-5.58-58.9-4.14-9.1-9.01-17.7-13.3-26.7 0.34-7.3 0.28-14.6-0.08-21.9 4.8-7.1 11.9-13.1 15.27-21-4.05-8.3-10.37-15.3-15.07-23.1 0.21-7.4 0.11-14.7-0.14-22 3.2-9.1 8.85-17 17.29-20.1-12.97-15.5-19.19-34.5-14.4-55.2 6.5-4.9 12.87-9.9 19.41-14.8-19.14-16.1-35.91-49.45-11.85-68.75 9.91-7.51 0.6-19.53-1.81-28.44-5.2-11.47 2.11-23.4 9.42-32.03-2.62-8.69-7.9-16.6-11.51-24.98 1.95-13.14 5.45-26.78 15.54-35.54-13.86-10.34-9.93-26.26-6.83-40.97 10.72-11.59-3.85-26.89-1.14-41.09-0.04-3.09 0.87-6.25-0.41-9.15-12.69-9.22-25.37-19.24-30.37-34.9-11.74-14.44-3.18-32.53-2.64-48.91 2.69-7.08-1.46-18.92-10.66-17.01-15.8 1.9-21.46-17.69-15.92-29.79-15.45-3.15-23.91-18.39-34.87-28.33-2.11-11.47 1.65-23.29 7.93-32.92-10.83-5.95-15.3-18.2-22.05-27.86-10.14-29.4 15.32-57.12 5.5-86.41-19.16-10.8-37.61-23.17-58.44-30.67-49.79-24.72-98.04-52.53-146.83-79.11-20.68-20.33-42.1-39.94-63.4-59.65-28.47-25.03-46.97-59.06-70.2-88.8-30.66-39.93-39.45-90.59-55.41-136.99v-1.75c15.18-11.58 34.33-9.87 50.49-15.42 65.25-8.63 130.38-18.12 196.08-22.66 11.49-0.43 23.35 1.72 34.69-0.51 14.41-1.92 28.93-2.72 43.44-3.5 3.18 0.22 6.5 0.7 9.55-0.51 6.11-0.86 12.27-1.21 18.43-1.49 3.18 0.22 6.51 0.7 9.58-0.51 6.1-0.86 12.27-1.2 18.43-1.53 2.83 0.09 5.77 0.43 8.55-0.43 13.05-1.72 26.26-1.71 39.4-2.53 4.67-0.81 11.48 2.12 15.28-0.53 1.02-0.77 2.07-1.51 3.14-2.23m13.96 10.96c-6.27 0.48-12.49 1.72-18.76 2.39-5.04-0.1-14.27-1.72-16.92 0.83-4.2 0.03-11.08-1.65-13.36 0.84-3.91-0.19-7.8-0.09-11.67 0.3-3.42 0.09-10.86-1.85-12.03 0.95-3.67 0.18-10.3-1.93-12.33 0.75-3.9-0.09-7.78-0.02-11.66 0.23-4.54-0.79-8.25-0.45-11.11 1-4.34-0.78-8.1-0.53-11.28 0.75-3.16 0.16-6.46-0.51-9.54 0.26-2.93 0.3-9.46-2.24-10.4 0.77-3.19 0.05-6.51-0.49-9.62 0.22-2.68 0.23-10-2-10.08 0.98-4.39-0.77-8.18-0.51-11.37 0.78-3.87-0.13-7.73-0.03-11.57 0.3-3.45 0.15-10.83-1.87-12.09 0.92-4.36-0.76-8.13-0.51-11.33 0.75-64.31 4.83-127.76 17.04-191.89 24.01-17.13 2.08-33.72 7.14-50.69 10.08 0.77 2.27 8.25 1.26 4.98 7.3 18.32 10.55 40.34 9.17 60.59 13.58 1.37 2.33 5.71 0.61 8.24 0.75 28.55 2.33 56.4 9.42 84.81 12.24 1.43 2.61 6.75 0.1 9.35 0.82 2.52 0.18 5.05 0.24 7.59 0.2 1.36 2.31 5.7 0.62 8.23 0.81 1.07 2.78 6.74 0.32 9.2 0.99l6.6 0.2c1.32 2.33 5.69 0.59 8.21 0.75 6.23 1.07 12.5 2.01 18.84 2.25 3.13 1.29 6.89 1.55 11.26 0.78 4.25 0.45 8.54 0.28 12.82 0.26 5.48 3.24 17.7-0.1 25.15 0.65 10.17 1.97 20.47 3.61 30.82 4.36 39.66 2.41 83.98 0.39 125.29 0.83 24.55 2.75 54.96 0.39 81.7 1.14 36.08-0.06 72.16 0.25 108.24-0.17l0.97 0.09c26.56 2.52 58.51 0.55 87.09 0.93 12.15 2.69 35.24 1.36 47.37 0.09 5.31-0.36 13.82 1.55 17.31-0.91 12 0.13 23.81-2.27 35.73-3.38 3.64-0.05 10.24 2.01 12.33-0.66 4.53-0.01 9.11 0.45 13.62-0.27 10.54 0.21 24.71 1.44 32.99-0.81 11.77 0.35 23.56 0.06 35.35 0.08 13.63-0.54 29.94 1.34 41.92-0.94 4.34-0.15 8.06-2.71 11.95-4.36 10.33 0.01 23.44 1.61 32.13-0.63 39.7-6.12 79.2-15.22 119.2-18.92 12.6 1.22 22.9-6.91 34.4-10.52 1.4-0.56 6.6-2.08 3-3.22-45.4-13.12-92.4-19.56-138.6-28.37-1.3-2.53-6.7-0.04-9.1-0.78-6.3 1.41-11.6-2.4-17.14-4.21-1.3-3.14-9.66 0.18-12.9-0.73-3.93-0.59-7.85-1.12-11.8-1.22-1.29-2.36-5.74-0.6-8.25-0.84-2.89-0.37-5.91-0.19-8.74-0.2-1.4-2.59-6.76-0.07-9.24-0.81-0.93-2.74-6.78-0.32-9.09-1.01-2.86-0.36-5.86-0.16-8.67-0.17-1.41-2.6-6.75-0.08-9.23-0.82-0.94-2.76-6.83-0.3-9.15-0.98-1.65-0.05-4.93-0.14-6.58-0.19-1.36-2.35-5.73-0.57-8.27-0.79-10.97-0.99-21.91-2.01-32.81-3.25-1.3-2.29-5.56-0.62-7.98-0.55-4.38-7.45-6.86-8.27-8.65-0.1-11.93-0.52-25.08-2.67-37.47-3.33-1.02-2.67-7.58-0.02-9.93-0.99-27.07-0.04-54.16-0.2-81.23 0.12-23.61-2.94-53.34-0.34-79.04-1.01-24.91-2.82-55.7-0.32-82.73-1.13-19.43 0.01-38.88-0.21-58.3 0.16-8.53-2.01-25.57-1.85-34.68-0.22m700.18 67.94c-45.4 10.85-91.7 19.29-137.9 26.41-2.9 0.25-9.4-2.35-10.3 0.71-3.2 0.03-6.5-0.42-9.6 0.26-4.74-0.89-8.49-0.59-11.2 0.89-3 0.39-8.97-2.05-10.31 0.85-3.15 0.13-6.51-0.51-9.54 0.25-2.68 0.22-10.17-2.11-10.16 0.91-3.37-0.41-6.88-0.29-10.2-0.12-2.13 0.51-9.66-2.06-8.67 1.08-2.62 0.52-8.77-2.41-9.39 0.88-2.84 0.08-5.9-0.54-8.6 0.25-2.31 0.28-9.46-2.38-9.05 0.91-2.89 0.43-9.46-2.19-10.29 0.84-2.87 0.04-5.93-0.43-8.67 0.28-4-0.3-11.53-1.52-13.02 0.94-3.65 0.26-10.42-1.92-12.29 0.76-1.67-0.04-5.01-0.12-6.68-0.15-19.12 1.02-40.88-1.32-58.33 1.16-5.33-0.04-10.7-0.12-16.01 0.01-3.93 0.21-11.31-1.3-12.7 1.16-4.42-0.72-8.22-0.45-11.4 0.82-3.18 0.02-6.47-0.15-9.58 0.34-5.01-0.1-14.48-1.66-16.93 0.62-7.06 0.59-17.19-1.37-22.38 1.04-103.35 0.09-206.7-0.17-310.05 0.12-14.41-0.35-28.86-0.04-43.28-0.12-4.88-0.34-9.79 0.12-14.66 0.06-1.39-2.78-7.67 0.19-10.22-0.76-56.81-6.43-113.83-10.68-170.73-16.23-1.28-2.36-5.73-0.63-8.25-0.79-35.79-2.54-71.17-8.93-106.9-12.17-11.73-1.12-22.95-4.83-33.8-9.24 3.69 10.1 5.86 21.16 10.14 30.86 24.1 7.47 49.7 10.34 74.76 13.22 5.23 2.59 14.47 2.33 21.04 3.06 8.27 2.4 21.21 0.48 31.21 0.72 5.96 0.59 11.99 0.4 17.97 0.19 1.06 3.28 9.67-0.16 12.91 0.79 15.7 3.7 31.8 5.34 47.78 7.26 1.34 2.33 5.74 0.55 8.28 0.81 2.57 0.18 5.14 0.24 7.73 0.19 1.44 2.59 6.72 0.02 9.3 0.74 15.89 1.47 31.69 3.93 47.67 4.25 1.34 2.31 5.65 0.62 8.16 0.8 1.02 2.48 5.67 0.81 8.14 1.05 2.6 0.21 5.21 0.26 7.84 0.16 0.68 2.35 5.57 0.64 7.92 0.88 5.38 0.62 10.78 1.33 16.22 1.02 0.87 2.66 6.69 0.17 9.06 0.9 3.53 0.47 7.07 0.18 10.65 0.18 1.68 2.67 7.58 0.09 10.32 0.88 0.49 3.49 9.36-0.2 12.04 0.91 3.55 0.49 7.1 0.29 10.69 0.23 1.52 3.44 9.14-0.37 12.25 0.77 2.85 1.46 6.55 1.79 11.11 1.01 3.86 0.24 7.74 0.32 11.63 0.23 1.52 3.44 9.22-0.42 12.36 0.86 1.89 3.23 12.41 0.17 16.71 1.15 75.67 0 151.33 0.06 227-0.04 0.47 1.81 7.52 1.81 8 0.02 3.35 0.05 6.62 0.1 10.01 0 2.72-0.6 9.37 1.96 9.86-0.97 6.29-0.63 12.6-1.27 18.84-2.29 2.91-0.29 9.36 2.32 10.3-0.73 3.89 0.23 7.77 0.15 11.64-0.24 2.68-0.18 9.97 1.98 10.06-0.95 15.07 0.59 30.2 0.07 45.3 0.18 14.77-0.41 31.88 1.28 45-1 2.32-0.37 7.29 1.3 7.87-1 17.65-1.71 35.05-5.57 52.82-6.29 2.62-0.23 8.55 2.57 9.33-0.68 5.24-0.11 10.45-0.96 15.68-1.36 2.52 0.01 7.18 1.66 8.38-0.68 1.64-0.07 4.94-0.19 6.59-0.26 2.34-0.01 7.57 1.54 8.08-0.89 2.95-0.41 9.2 2.18 10.29-0.83 5.6 0.12 11.25-0.13 16.85-1.04v0.96c-27.3 8.66-55.19 14.96-83.6 18.38-6.49-0.41-16.06-1.31-19.95 0.83-2.64 0.57-8.79-2.37-9.43 0.92-3.16 0.09-6.54-0.57-9.57 0.24-2.93 0.29-9.4-2.26-10.39 0.71-1.58-0.26-4.73-0.78-6.31-1.03 0.72-2.02 2.35-3.8 2.17-6.05-12.9 0.73-23.94 7.76-36.57 9.4-2.48 0.24-10.46-2.16-9.84 0.85-4.24 0.11-11.16-1.64-13.45 0.88-4.54-0.01-9.18-0.46-13.62 0.25-4.41-0.36-12.3-1.37-14.02 0.91-4.81 0.71-13.24-2.01-16.34 0.84-5.54 0.11-11.18-0.55-16.64 0.27-5.83-0.3-14.42-1.53-18.34 0.73-5.23-0.04-10.49-0.25-15.7-0.18-5.63 0.53-15-1.03-17.93 1.32-4.84 0.74-13.25-1.99-16.4 0.86-4.54 0.01-9.18-0.48-13.62 0.24-4.73-0.32-12.99-1.35-14.96 0.85-28.21-0.2-56.44-0.24-84.65 0.05-4.88-3.57-17.8 0-25-0.9-7.56-0.68-15.17-0.17-22.73-0.24-5.17-2.85-18.73-1.02-23.96-0.06-8.74-0.37-18.27 7.58-25.37 0.05-1.02-3.1-9.7 0.14-12.84-0.73-4.93-0.59-9.85-1.4-14.84-1.24-1.4-2.75-7.74 0.13-10.31-0.78-3.9-0.29-7.79-0.37-11.68-0.24-1.82-3.26-9.7 0.16-13.22-0.82-0.63-3.49-9.38 0.12-12.08-0.95-3.91-0.27-7.81-0.35-11.7-0.23-1.82-3.26-9.7 0.16-13.22-0.82-0.65-3.48-9.33 0.12-12.03-0.96-3.21-0.45-6.49-0.26-9.69-0.22-1.43-2.59-6.75-0.02-9.28-0.75-4.53-0.7-9.09-1.38-13.69-1.23-1.35-2.35-5.72-0.59-8.25-0.77-5.57-0.7-11.12-1.63-16.75-1.25-1.48-2.59-6.82-0.06-9.4-0.8-2.54-0.18-5.07-0.24-7.59-0.19-1.34-2.34-5.72-0.59-8.24-0.75-19.8-3.03-39.84-4.15-59.81-5.25-1.42-2.59-6.77-0.09-9.33-0.79-2.87-0.41-5.8-0.24-8.68-0.23-1.5-3.44-9.2 0.39-12.28-0.82-0.62-3.47-9.29 0.14-11.99-0.92-45.48-4-90.63-10.71-135.98-16.08 16.85 51.78 57.85 89.96 88.06 133.92 24.31 23.36 49.78 45.56 74.38 68.63 12.9 15.77 36.47 15.35 49.88 30.22 37.78 18.35 74.34 39.05 111.7 58.19 15.89 8.46 35.27 4.46 51.11 12.93 12.25 4.71 21.16 16.08 31.3 22.89 0.12 1.7 7.43 1.8 7.62 0.05 3.01-0.17 5.99-0.72 8.93-1.41 3.05 0.58 6.1 0.2 9.22 0.12 7.32 2.2 15.05 5.1 22.53 5.59 17.16-11.42 35.7-19.17 56.67-19.27 17.32 4.5 33.51 15.05 41.79 31.96 16.2-10.94 37.01-9.89 54.75-3.2 9.97-15.79 24.64-30.91 44.53-30.31 18.56 5.2 38.15 14.69 45.78 33.64 9.36-11.55 23.35-15.66 37.95-12.08 18.47 5.33 17.78-24.66 35.19-22.83 39.32-7.61 75.9-25.16 109.39-46.65 47.29-29.32 97.52-57.1 133.12-100.86 31.5-31.93 60.8-67.54 77.5-109.49 14.2-18.38 27.9-37.85 31.7-61.31-28.9 5.29-56 16.05-84.8 22.31-8.5-0.62-16.9-0.22-25.4-0.07-1-2.66-11.3-1.65-12.7-0.23-8.6-0.73-19.3 9.64-26.3 4 1.4-3.2 3-6.69 2.9-10.15 3.2 0.24 5.4-0.36 6.4-1.82 2.9-0.11 5.8 0.53 8.6-0.25 2.6-0.17 10.4 2.06 10.1-0.83 4.5-0.04 11.8 1.44 14.2-0.88 25.4-4.4 50.3-12.12 75.6-17.5 11-3.49 24.1-3.54 32.5-12.25 1.6-0.6 4.2-1.43 4-3.57 2.5-3.27 1.1-17.78 0.3-21.54-1.1 0.6-5.2 0.05-4.1 1.75m-752.85 396.4c-4.38 15.06-9.62 30.46-10.94 46.02 5.11 8.55 8.52 18.03 13.91 26.41 15.76 7.08 32.45 11.83 49.67 13.29 12.69 1.87 33.53 1.49 45.65 0 6.29-2.7 11.88-7.07 17.65-10.75 11.23-20.49-5.33-37.62-5.64-59.03 0.48-3.07 0.17-6.23 0.16-9.28 2.31-8.62 3.95-17.41 6.07-26.08-8.83 6.57-26.09 8.48-22.62 23.42 16 24.35 5.78 58.24-16.82 75.17-21.79 4.43-41.39-3.38-58.48-16.45-14.34-22.96-12.77-54.17 3.94-75.02-4.97-7.68-14.28-11.49-21.16-17.38-4.82 1.28-0.35 22.37-1.39 29.68m394.33-25.71c-0.56 6.88-10.94 14.57-3.29 20.01 5.61 6.44 12.36 13.71 11 23-0.02 3.68-2.06 10.36 0.62 12.45 4.21 11.12-4.78 19.52-9.1 28.82-8.67 11.25-24.55 11.75-37.05 14.87-1.94 0.12-3.87 0.26-5.79 0.33-13.62-4.49-24.04-14.46-35.38-22.84-8.99-13.78-3.78-30.4 3.22-44.26-6.92-9.41-13.42-21.68-26.09-23.79 2.14 7.76 5.64 15.07 8.57 22.56 0.75 14.03-5.07 27.44-11.36 39.29-2.54 1.39-0.09 6.54-0.76 9.08-0.24 17.07 25.43 32.43 40.14 21.79 7.56 2.94 25.34 0.98 33.61 0.2 22.34 1.24 45.11-9.91 54.98-30.25 2.47-9.55 1.12-27.94 0.03-37.84-1.56-11.9-4.19-23.69-6.64-35.43-5.32-0.75-11.32 0.92-16.71 2.01m-143.64 22.57c-4.95 12.01 2.13 34.67-2.03 49.9-6.09 22.29-26.18 37.98-49.45 38.39-15.53-7.78-30.43-15.51-37.87-32.33-0.3-2.65 2.37-8.04-0.68-9.12 0.08-2.62-0.04-5.21-0.37-7.77 0.71-3.7 0.22-7.53 0.09-11.23 2.43-4.33 3.65-9.17 5.54-13.72 7.25-10.95-6.49-22.13-16.5-24.64-3.02-3.25-2.69 10.65-0.82 11.39 6.84 16.78-7.93 28.26-7.68 43.54-0.84 8.22-0.11 16.51-0.05 24.76-0.56 22.06 28.89 18.87 43.82 21.67 17.11 2.55 39.28 0.34 58.12 0.79 10.72-4.64 20.91-16.15 29.83-24.01 2.48-1.04-0.03-6.6 0.72-8.93 0.45-5.61 3.17-12.15-0.51-17.07-11.34-15.72-9-37.59-14.06-54.52-2.91 2.97-7.06 8.11-8.1 12.9m23.93-12.97c1.33 13.46-3.61 28.67 4.33 40.73 2.14 0.37 4.08-0.92 5.89-1.89 5.19-1.41-0.09-11.93 1.63-16.21 0.39-8.81-8.05-16.18-11.85-22.63m-149 9.99c-2.45 9.51-0.08 23.62-1.14 34.86-6.24 5.22 3.32 6.46 2.09 3.11 8.84-11.47 14.22-32.85 4.06-46.28-3.14 1.25-4.24 5.39-5.01 8.31m-76.89 2.87c-0.5 0.34-1.5 1.03-2 1.37-4.72-2.17-14.5-2.09-15.52 3.85-11.8 4.94-7.19 19.41-9.41 29.36-2.63 6.89 3.92 13.11 5.63 19.59 1.91 12.6 21.54 3.63 24.45 16.86 7.77-7.46 23.57 4.73 29.2-6.77 20.8-23.9-0.53-73.88-32.35-64.26m294.18 6c-1.82-0.04-2.52 1.74-3.17 3.1-10.04 4.72-16.63 15.92-16.01 27.11l-0.27 0.76c-5.59 6.35 6.88 10.21 8.09 16.06 16.73 12.94 42.11 14.07 56.11-4.43 2.66-7.49 0.98-25.78 0.01-33.32-7.56-12.75-35.5-20.3-44.76-9.28m-145.02 0.09c-1.01 1.11-3.6 2.28-2.89 3.96-6.11 3.18-12.07 7.36-16.45 12.75-13.78 10.84-4.92 34.52 6.78 44.5 12.36 3.89 27.55 11.49 36.72-1.99 17.38-7.89 14.18-28.66 13.55-44.31-6.25-15.27-24.98-11.55-37.71-14.91m-73.16 73.1c-3.3 10.2 1.97 12.96 7.75 6.85-5.36-1.09-2.35-8.39-7.75-6.85m153.69 0.91c-0.77 13.19 16.07-2.95 0 0m36.09 14.33c1.13 1.22 2.39 2.31 3.59 3.48 0.08 2.56-2.68 8.03 0.54 9 5.77 15.81-6.77 25.45-15.09 37.08 2.92-0.61 5.79-1.09 8.79-1.45 3.64 0.04 10.22 2 12.36-0.59 19.12-0.73 37.95-4.46 56.89-6.9-3.34-5.34-9.32-9.1-13.38-14.05-0.84-7.92 3.46-21.14-1.57-26.29-0.74 0.05-2.22 0.14-2.96 0.19-2.34-3.02-10.29 0.2-14.26-0.68-6.26-0.75-12.6-0.13-18.86-0.26-1.45-2.73-22.8-1.64-16.05 0.47m73.42-0.5c-3.57-0.13-7.07 3.85-8.4 6.42-2.29 0.62-1.15 11.99 0.06 12.07 0.63 2.36 3.16 4.97 5.52 5.62l-0.41 0.86c3.96 2.82 18.18 1.02 21.63 0.11 3.75-3.07 0.06-9.31 1.24-13.35 6.03-7.68-2.15-16.84-12.24-11.59 0.11-1.77-7.4-1.89-7.4-0.14m-381.26 7.18c-2.25 1.04-0.53 5.57-0.8 7.97-0.13 1.29-0.21 2.58-0.23 3.88-2.73 0.09-1.18 11.19-0.03 10.65 4.08 7.49 14.98 7.14 21.94 11.2 2.65-4.1 6.48-7.32 9.1-11.39 2.42-0.85 1.25-14.88 0.05-16.09-5.93-7.9-23.37-18.6-30.03-6.22m264.97 7.08c-2.4 1.02-0.11 6.42-0.81 8.78-3.49 19.73 31.11 24.04 36.9 7.16 2.5-1.98 1.57-7.14 1.77-10.36-1.94-16.84-29.78-20.54-37.86-5.58m-161.98 3.08c-2.46 0.87-1.32 11.89-0.05 12.24 2.24 4.4 5.37 8.35 7.94 12.6 0.99 4.82 14.27 1.16 15.66 0.88 3.99-2.26 9.64-4.29 12.43-7.27 2.68-3.05 1.05-15.83 0.06-18.37-5.87-16.53-28.2-12.72-36.04-0.08m-59.99-0.25c-0.69 11.76-11.72 19.96-14.84 31.04 14.07-2.2 22.06 6.27 35.48 3.61 4.4 0.34 12.23 1.39 14-0.89 4.25-0.05 10.9 1.61 13.45-0.86 19.91 3.95 6.41-5.23 0.56-12.86-0.48-6.77 2.6-25.69-1.31-26.4-2.8 5.35-10.72-1.15-15.26 1.32-1.5-2.58-6.79-0.08-9.36-0.74-8.62 1.86-30.49-10.39-22.72 5.78m127.01-5.02c-1.4-2.6-6.74-0.09-9.24-0.77-4-0.18-13.31-4.15-10.3 3.25 6.18 14.51-0.45 33.27-15.39 38.58 4.57 3.27 13.88 1.21 19.9 1.88 2.85 3.35 12.48-0.24 17.22 0.69 11.75 5.83 23.79-7.4 33.58-0.99 20.32 0.16 43.44 1.22 62.09-0.48-12.49-12.01-16.59-27.76-16.95-45-26.7 5.28-53.93 7.5-80.91 2.84m-132.73 48.94c-0.58 0.32-1.75 0.98-2.33 1.3-2.42 0.68-1.29 12.11 0.04 12.36 4.56 0.92 8.14 0.72 10.74-0.61 6.31 1.34 9.11 8.63 14.46 11.96 0.94 20.72-2.91 45.37 1.71 63.96 12.33 28.78 46.4 30.37 73.17 29.03 5.48-4.39 16.99-6.59 12.35-16.18 1.9-11.44-9.76-9.71-17.36-9.79-1.56-3.47-9.3 0.38-12.43-0.82-2.25-2.91-11.34-0.46-15.73-0.78-11.45-10.62-26.33-20.77-24.95-38.38 1.8-12.65 1.62-32.64 0.1-44.75 0.48-2.47-2-3.94-3.58-5.35-0.37-2.77-9.76 0.03-12.63-0.71-1.11-2.89-7.7-0.18-10.12-0.99-1.89-0.21-3.81-0.3-5.7-0.24-0.57-1.78-7.84-1.68-7.74-0.01m231.68 16.21l-0.94-0.18c-3.04 15.86-0.02 37.55-0.91 55.19-6.35 6.66-12.43 13.58-18.38 20.6-13.87 7.9-27.59-3.98-40.99-5-12.35 20.45 13.75 33.69 31.01 32.15 1.55 2.3 5.81 0.61 8.44 0.85 1.75 3.27 10.15 0.05 13.93 0.99 9.87-2.06 17.74-11.07 26.7-15.95 7.5-17.21 6.59-36.42 0.36-53.98 3.29-13.63 7.15-28 18.78-37.16 2.41-0.16 6.88 1.57 7.97-0.74 3.93-0.16 7.91-0.56 11.82-1.16 5.61 2.87 7.29-5.33 4.35-7.47-0.53-1.6-1.05-3.94-3.23-3.41-20.15-1.21-44.64-0.66-58.91 15.27m-175.02 45.4c5.56 3.32 6.73 12.01 13.55 12.92 12.42 0.88 27.44 10.04 37.36-2.06 0.52-21.71-0.37-43.43 0.47-65.13-6.77 0.85-13.72-0.08-20.57 0.03-2.74-0.68-5.62-0.18-8.35 0.05-8.2 1.47-15.5-1.71-22.55-5.37-1.45 17.54-1.55 42.61 0.09 59.56m66-52.5c-2.04 21.9-1.32 51.71 0.02 73.94 2.09 13.19-0.18 31.36 14.46 37.92 7.42 0.46 15.89-0.61 16.58-9.29 3.02-2.02-0.06-12.55 0.86-16.88 3.45-4.96-0.1-17.61 1.09-24.8 0.13-12.73 0.01-25.46 0-38.19 2.87-3.91 1.03-18.39-0.02-22.71-2.94-0.19-5.95-0.07-8.84-0.12-6.11-3.1-18.22-2.82-24.15 0.13m47.08 0.25c-0.28 17.71-1.17 35.36-2.06 53.06 5.72 13.11 21.28 11.44 32.37 16.4 10.01 0.08 17.53-10.65 18.69-19.92 2.55 0.01 1.32-10.78-0.02-10.86-0.28-9.58-1.21-19.16-1.24-28.74 0.36-2.74 0.26-5.52-0.11-8.24 0.54-1.09 3.21-1.74 2.16-3.13 3.04-1.73-6.91-0.75-7.74-0.52-3.36 0.97-6.72-0.32-10.1-0.13-4.91-0.62-9.9-0.27-14.79 0.09-5.62 1.09-12.72-2.18-17.16 1.99m-6.92 112.86c-6.31 4.82-10.08 15.03-19.36 13.91-15.88 3.68-26.68-21.15-41.6-4.8-14.04-0.13-30.78-1.53-43.14 0.75 2.33 7.93-4.96 28.65 10.23 25.61 18.51 4.08 37.27 6.56 55.85 10.37 27.35-2.44 55.01-3.79 81.63-11.07-1.72-8.52 8.02-24.88-8.38-21.8-11.69-1.91-23.63-8.92-35.23-12.97m-91.44 50.39c-11.85 3.77-17.35 13.3-19.63 25.15 19.26 35.38 61.37 40.21 96.04 51.27 0.23 0.25 0.69 0.74 0.93 0.99 12.67 1.66 32.26 1.71 44.98-0.04l-0.36-0.89c18.35-3.72 7.56-31.19-3.62-39.1-2.26-4.71-10.61-0.72-14.81-1.97-16.89-3.99-35.16-5.22-51.13-13.08-16.47-9.36-32.58-22.67-52.4-22.33m94.53 6.77c-5.03-0.11-14.23-1.78-16.86 0.85-3.75 0.28-10.31-1.93-12.46 0.81-2.97-0.23-19.12-0.4-7.62 1.5 18.35 10.29 40.01 8.82 60 13.2 4.43 2.23 5.89-2.57 7.75-5.18 2.13-0.87 1.49-13.83 0-15.47-0.47-0.21-1.42-0.62-1.89-0.83-3.42-0.38-6.93-0.21-10.32 0-6.56-0.21-12.35 3.68-18.6 5.12m-104.64 49.08c-3.6 2.59-6.66 5.86-9.65 9.12-2.3 2.28-1.1 18.4 0.1 20.91 10.5 19.47 32.83 26.51 52.46 33.06 19.47 5.68 38.38 13.37 57.63 19.46 6.48 2.82 22.46 0.87 28.52 0.04 22.68-5.57 15.45-41.37-2.47-46.04-1.51-2.25-5.71-0.6-8.27-0.77-1.08-2.76-6.74-0.37-9.12-0.98-16.69-1.8-33.19-4.98-49.83-7.08-19.77-9.25-39.9-17.8-59.37-27.72m-7.22 94.06c17.4 26.39 47.72 35.2 75.47 46.62 8.59 4.87 18.68 4.17 28.2 3.85 3.99 3.12 14.33-0.11 20.23 0.82 0.55 3.4 9.31-0.2 12.02 1 22.94-3.75 11.29-37.66-1.56-47.85-2.51-3.2-13.07 0.21-17.79-0.65-36.64-10.33-72.35-23.23-107.53-37.74-16.51 0.43-14.62 20.72-9.04 33.95m-1.35 26.67c-2.22 0.28-7.21-1.36-7.61 0.82-14.4 19.08 6.15 37.6 17.86 51.7 24.83 23.5 58.89 31.4 89.9 43.3-0.03 1.9 9.89 1.6 8.45-0.2 7.88 0.5 15.78 0.2 23.68 0 8.14 1 15.64-4.8 22-8.6 4.02-1.6 1.51-12.3 0.79-13.9-6.19-13.1-17.38-38.2-34.95-29.5-23.01-4.7-45.18-12.4-67.12-20.82-17.85-3.03-31.9-14.82-46.43-24.63-2.27-0.82-4.59 0.85-6.57 1.83m10.5 68.22c-6.07 3-11.89 6.6-17.59 10.3-1.18 0.2-2.16 0.7-2.96 1.6-1.67 5-1.65 19.5 0 24.4 0.22 2.4 2.99 3.7 5.07 4.5 9.73 11.8 20.12 23.6 34.98 28.8 15.92 6.1 29.52 19.7 46.91 21 1.39 2.3 5.55 0.6 8.02 0.6 11.18 9.9 27.22 12.2 40.36 18.9 9.58-1.2 19.76-4 28.02-9.3 1.8-6.1 2.52-12.4 4.4-18.5-0.51-15.1-14.51-22.4-23.43-32.8-1.51-3-4.44-7-8.08-6.7-6.15-0.6-12.35-0.2-18.49 0.1-0.68-0.1-2.05-0.2-2.74-0.3-32.32-11.8-65.05-24-94.47-42.6m4.76 132.3c37.77 19.7 75.9 41.3 118.5 48.2 8.41-4.4 18.78-7.8 26.19-12.1 1.8-5.4 1.78-19.2 0.08-24.6-4.28-8.8-14.15-15.1-19.97-23.4-9.13-1.6-18.72-1.8-28.02-2.8-1.3-2.3-5.61-0.5-8.09-0.6-14.07-9.5-31.34-12.6-47.25-18.1-17.95-8.3-33.41-21.3-50.86-30.3-32.83 10.5-15.1 54.4 9.42 63.7m-24.27 15.5l-0.93-0.2c-2.92 5-1 19-0.13 23.8-0.03 1.4 0.67 2.2 2.09 2.2 5.95 11.8 13.79 22.7 27.04 26.9 27.73 20.2 61.07 30.2 93.06 41.1 2.9 3.4 13.07-0.2 18.01 0.8 0.81 2.4 5.66 0.7 8.09 1 8.26 0.2 16.04-4 23.86-6.2 2.31-3.7 0.31-14.6 0.71-20.7-3.79-9.7-14.44-18.5-22.27-25.8-51.02-2.5-95.38-28.9-139.47-52-3.5 2.6-8.37 5.2-10.06 9.1m8.26 57c-7.93 6.8-9.09 19.8-2.37 27.9 7.46 22 31.31 30.8 46.21 46.9 20.75 6.2 40.69 18.2 62.87 18 1.48 2.7 7.63-0.3 10.27 0.7 8.85 1 18.07 2.6 26.83 1.4 4.55-4.8 8.91-10 13.89-14.5 5.67-11.7-5.97-20.3-12.41-28.4-52.59-3.1-98.8-29.7-145.29-52m-0.28 68c-2.43 9.1-1.08 28.5 0 37.4 13.33 25.9 47.27 22.8 71.48 30.9 16.3 5.9 33-2.9 49.52-3.5 12.67-0.1 32.53-7.4 27-23.9-5.57-2.4-20.49-1.5-25.65 0-2.85-0.2-5.71-0.1-8.53 0.2-39.88-3.8-72.58-27.9-106.72-46.2-2.07 2-6.17 2.6-7.1 5.1m155.52 66.1c-8.92 5.3-19.36 8.5-29.36 11.7-4.98 1-15.22 0.9-14.91 6.9 6.4 0 12.14-2.2 18.65-0.9 10.77 1.6 17.55 10.4 26.31 16.1-0.39 3.7-0.12 7.3 0.12 11.1-1.58 19.9-3.69 42.3-14.34 57.8-1.35 2.8-1.64 6.5-0.88 11-0.31 3.8 0 7.4 0.15 11.3-1.83 11 10.03 15.8 17.77 20.7 11.77 10.4 28.29 8.7 42.72 11.8 4.14-3.8 9.77-8.3 6.72-14.7-12.18-12.3-25.85-24.1-31.42-41 5.81-15.7 9.3-32.2 15.42-47.8 2.07-23.8-13.73-48.4-36.95-54m-170.48 25.4c-1.09 1.1-3.31 1.8-3.07 3.6-2.94 5.9 0.05 19.7-0.72 27.9-0.22 2.2-0.24 5.8 1.89 6.7 3.21 6.8 6.31 13.7 10.01 20.2-0.1 1.6-0.13 3.2-0.12 4.8-2.57 6.4-1.16 20.6 0.01 27.1 0.03 0.8 0.11 2.2 0.15 2.9-14.55 8.3-19.33 23.8-25.19 38.2 28.65 10.5 60.99-17.7 53.67-47.7-5.86-8.6-9.04-18.7-14.9-27.3-0.08-4.1 1.77-10.9-0.75-12.9-2.01-10.2-0.22-20.9 3.79-30.4 9.19-5.8 17.96-12.3 27.1-18 4-2 15.44 1.8 13.61-5.3-20.1-11.4-57.07-19-65.48 10.2m79.01 16.3c0.54 15.8-1.4 35.1 1.09 48.7-0.31 15.1-0.09 30.2-0.06 45.3-0.13 4.1-0.06 8.2 0.2 12.2 0.92 12.1 13.12 31.2 27.01 19.1 4.99-7.5 0.04-22.7 1.58-32.6 2.89-9.3 0.34-25.2 1.13-36.7 0.04-16.4 0.2-32.8-0.18-49.2l0.09-1c-1.14-6.9 9.43-35.4-8.19-29.7-0.16-2.5-6.67-0.5-8.69-1.1-2.99-0.2-6.05-0.2-9-0.1-11.31-6.1-5.03 20.2-4.98 25.1m47.21-3.2c0.1 26-1.47 54.8 0.84 79.2 5.25 0.2 13.7 0.3 14.32-6.6 5.76-24 24.62-50.2 11.72-74.7-8.32 1.1-24.27-10.8-26.88 2.1m-90.28 8.6c-2.33 8.6-1.12 28.4 0.02 37.3 9.46 10.1 19.46 21.8 13.04 37.2 18.24 6.8 13.68-18.8 13.98-28.9 2.64-4.8 0.31-14.8 0.74-21.3-0.08-12.2 1.52-24.3 1.02-36.5-11.62-2.8-20.08 6.5-28.8 12.2m88.11 92.6c-2.73 1.6 0.1 7.5-0.74 10.2-0.61 3.6-1.15 7.1-1.25 10.8-2.37 1.2-0.61 5.6-0.71 8-12.22 29-56.62 14.1-54.7-14.6-0.01-2.6 1.64-7.3-0.7-8.5 4.37-14.8-15.13-13.1-20.93-4.9-7.56 8.5-16.28 16-22.98 25.1-12.23 1.6-24.17 5.6-36.51 6.6-6.81-6.3-19.28-9.1-17.51-20.6-32.99 6-64.4 18.6-96.28 28.6-12.68 10.6-31.8 14.9-38.47 31.1 5.65 5.7 9.07 14.4 17.67 16.3 22.48 7 45.18 16 68.97 16.9 1.49 2.6 6.7-0.1 9.32 0.7 6.18 0.7 12.36 1.7 18.6 1.3 1.4 2.3 5.79 0.5 8.36 0.7 9.58 1 19.19 2.1 28.84 2.3 3.05 3.4 13.22-0.3 18.26 0.7 5.41 0.3 10.96 0.8 16.35 0 10.77 0.2 24.24 1.4 33.34-0.7 17.57-0.2 35.15 0.4 52.71-0.3 16.69-0.1 36.24 1.5 51.21-0.7 31.23-2.5 62.22-10.3 93.53-9.5 33.37-9.8 68.15-15.5 101.77-26.3 8.81-4.1 15.18-14.3 26-12.8 1.42-2 0.51-9.3-3.62-6.8-5.48 1.7-5.18-6.5-9.69-7.6-18.36-8.7-36.86-17.2-55.49-25.4-22.83-14-50.54-12.6-74.52-24.5 9.75 11.5-4.31 21.2-8.36 31.7-7.82 0.8-15.57 2.2-23.06 4.7-22.76-5.7-50.01-13.3-61.41-36.5-2.07-9.9-21.92-5-18 4m267.15 66.7c-13.21 6.2-23.42 18.9-38.79 20.8-43.67 14.4-89.49 22.6-135.09 27.8-2.63 0.2-10.07-2.2-10.03 0.9-2.63 0.4-8.69-2.6-9.37 0.8-3.21 0-6.48-0.1-9.64 0.2-4.55-0.8-8.25-0.4-11.11 1-4.34-0.8-8.1-0.5-11.28 0.8-3.17 0.2-6.5-0.6-9.57 0.3-2.37 0-7.58-1.6-8.11 0.9-2.61 0.4-8.57-2.6-9.27 0.8-2.84 0.1-5.84-0.6-8.57 0.3-4.04-0.2-11.76-1.7-13.17 0.7-5.99-0.3-12-0.1-17.96 0.3-8.68 0.1-20.35-1.7-27.21 0.7-7.69 0.2-18.43-1.2-23.72 1.1-4.36-0.4-8.76-0.2-13.09 0.2-4.16-0.1-10.95-1.9-13.23 0.8-7.03-0.4-14.12-0.3-21.11 0.5-1.79-2.7-3.64-6.3-7.52-4.3-12.53-0.6-25.08-0.5-37.61 0-21.03-3.3-42.34-4.4-63.14-8.9-21.2-8.6-48.29-6.5-63.89-25.8-3.1-6.4-4.91 9.1-1.82 10.2 3.95 22.4 31.98 20.1 48.62 29.7 25.9 5.6 52.17 11.3 78.51 14.5 7.22 3.2 21.06-0.2 30.2 0.9 9.33 2.5 24.28 0.5 35.75 1.1 13.44 2.3 31.18 0.6 46.26 0.7 11.29 0.8 22.67 0.1 34 0.2 1.92 3.3 12.61-0.1 16.98 0.8 3.13 0.4 6.35 0.8 9.46 0 2.55-0.3 8.77 2.4 9.25-0.7 47.16-5.6 94.14-12.7 141.45-17.2 5.53 1.1 7.72-10.1 12.83-4.8 27.59-6.9 55.01-15.2 81.72-25 6.98-6.2 16.28-11.8 21.13-19.2 3.02-1.6 1.17-18-1.86-11.1z" fill="#050403"/>
  <path d="m527.34 0h101.63l0.03 1c-33.87-0.64-67.87 1.3-101.66-1z" fill="#51503f"/>
  <path d="m428.64 2.76c4.9-1.81 10.2-0.36 15.28-0.53-3.8 2.65-10.61-0.28-15.28 0.53z" fill="#3f3d2c"/>
  <path d="m750.8 2.21c3.79 0.02 7.6 0.21 11.41 0.57-3.83-0.03-7.63-0.22-11.41-0.57z" fill="#3e3c2b"/>
  <path d="m380.69 5.72c2.79-0.8 5.65-0.51 8.55-0.43-2.78 0.86-5.72 0.52-8.55 0.43z" fill="#6e7053"/>
  <path d="m797.84 5.16c3.47-0.23 6.87 0.1 10.33 0.67-3.45 0.27-6.96-0.1-10.33-0.67z" fill="#717156"/>
  <path d="m352.68 7.76c3.09-1.16 6.33-0.7 9.58-0.51-3.07 1.21-6.4 0.73-9.58 0.51z" fill="#59593c"/>
  <path d="m830.88 7.17c3.44-0.23 6.81 0.07 10.25 0.67-3.42 0.22-6.91-0.09-10.25-0.67z" fill="#5c5c42"/>
  <path d="m324.7 9.76c3.08-1.17 6.32-0.7 9.55-0.51-3.05 1.21-6.37 0.73-9.55 0.51z" fill="#45442d"/>
  <path d="m862.86 9.16c3.46-0.22 6.84 0.1 10.3 0.67-3.44 0.24-6.95-0.06-10.3-0.67z" fill="#494731"/>
  <path d="m461.02 10.96c9.11-1.63 26.15-1.79 34.68 0.22-11.56-0.38-23.12-0.03-34.68-0.22z" fill="#3b7371"/>
  <path d="m442.26 13.35c6.27-0.67 12.49-1.91 18.76-2.39 11.56 0.19 23.12-0.16 34.68 0.22 19.36 1.84 38.87 0.35 58.3 0.84 27.58 0.06 55.16-0.21 82.73 0.13 26.26 2.11 52.71 0.05 79.04 1.01 27 1.96 54.19 0.26 81.27 0.88 3.23 0.01 6.61-0.02 9.89-0.01 12.39 0.66 25.54 2.81 37.47 3.33 1.79-8.17 4.27-7.35 8.65 0.1 2.53 0.59 5.33 0.51 7.98 0.55 10.9 1.24 21.84 2.26 32.81 3.25 2.68 0.31 5.51 0.72 8.27 0.79 1.65 0.05 4.93 0.14 6.58 0.19 2.98 0.29 6.1 0.72 9.15 0.98 3 0.38 6.15 0.86 9.23 0.82 2.81 0.01 5.81-0.19 8.67 0.17 2.95 0.41 6.07 0.74 9.09 1.01 3.01 0.36 6.16 0.88 9.24 0.81 2.83 0.01 5.85-0.17 8.74 0.2 2.66 0.32 5.5 0.68 8.25 0.84 3.95 0.1 7.87 0.63 11.8 1.22 4.25 0.51 8.59 0.68 12.9 0.73 5.54 1.81 10.84 5.62 17.14 4.21 2.9 0.32 6 0.81 9.1 0.78 46.2 8.81 93.2 15.25 138.6 28.37 3.6 1.14-1.6 2.66-3 3.22-11.5 3.61-21.8 11.74-34.4 10.52-40 3.7-79.5 12.8-119.2 18.92-10.69 0.4-21.61-1.12-32.13 0.63-3.89 1.65-7.61 4.21-11.95 4.36-13.98-0.03-27.96-0.05-41.93-0.06-11.66 1.16-24.01-1.98-35.34 0.92-10.96 0.92-22.22-1.27-32.99 0.81-4.51 0.72-9.09 0.26-13.62 0.27-4.14-0.11-8.29-0.11-12.33 0.66-11.92 1.11-23.73 3.51-35.73 3.38-6.05 0.48-12.5-1.38-18.3 0.8-15.46 0.34-30.93 0.28-46.38 0.02-28.96-2-58.08-0.15-87.09-0.93l-0.97-0.09c-36-1.91-72.18-0.24-108.24-0.83-27.24-0.07-54.47 0.23-81.7-0.14-41.68-1.95-83.54-0.3-125.29-0.83-10.35-0.75-20.65-2.39-30.82-4.36-8.35-1-16.77-0.75-25.15-0.65-4.28 0.02-8.57 0.19-12.82-0.26-3.75-0.41-7.5-0.67-11.26-0.78-6.34-0.24-12.61-1.18-18.84-2.25-2.75-0.35-5.46-0.67-8.21-0.75l-6.6-0.2c-3.08-0.33-6.12-0.71-9.2-0.99-2.75-0.34-5.47-0.75-8.23-0.81-2.54 0.04-5.07-0.02-7.59-0.2-3.12-0.34-6.21-0.8-9.35-0.82-28.41-2.82-56.26-9.91-84.81-12.24-2.75-0.33-5.48-0.65-8.24-0.75-20.25-4.41-42.27-3.03-60.59-13.58 3.27-6.04-4.21-5.03-4.98-7.3 16.97-2.94 33.56-8 50.69-10.08 64.13-6.97 127.58-19.18 191.89-24.01 3.79-0.02 7.56-0.27 11.33-0.75 4.03-0.12 8.11-0.14 12.09-0.92 3.84-0.33 7.7-0.43 11.57-0.3 3.8-0.04 7.59-0.3 11.37-0.78 3.37 0 6.87 0.25 10.08-0.98 3.11-0.71 6.43-0.17 9.62-0.22 3.45 0.07 7.1 0.61 10.4-0.77 3.08-0.77 6.38-0.1 9.54-0.26 3.77-0.01 7.53-0.26 11.28-0.75 3.7-0.31 7.4-0.64 11.11-1 3.88-0.25 7.76-0.32 11.66-0.23 4.1 0.07 8.29 0.18 12.33-0.75 3.99-0.26 8.07-0.16 12.03-0.95 3.87-0.39 7.76-0.49 11.67-0.3 4.41-0.27 9.15 1 13.36-0.84 5.63-0.18 11.34 0.18 16.92-0.83z" fill="#97fdfc"/>
  <path d="m495.7 11.18c19.42-0.37 38.87-0.15 58.3-0.16v1c-19.43-0.49-38.94 1-58.3-0.84z" fill="#8ac3c4"/>
  <path d="m554 11.02c27.03 0.81 57.82-1.69 82.73 1.13-27.57-0.34-55.15-0.07-82.73-0.13v-1z" fill="#0e2e2d"/>
  <path d="m636.73 12.15c25.7 0.67 55.43-1.93 79.04 1.01-26.33-0.96-52.78 1.1-79.04-1.01z" fill="#4b8686"/>
  <path d="m246.57 13.77c11.31-2.35 23.19-0.03 34.69-0.51-11.34 2.23-23.2 0.08-34.69 0.51z" fill="#1f1f09"/>
  <path d="m425.34 14.18c2.65-2.55 11.88-0.93 16.92-0.83-5.58 1.01-11.29 0.65-16.92 0.83z" fill="#204243"/>
  <path d="m715.77 13.16c27.07-0.32 54.16-0.16 81.23-0.12l0.04 1c-27.08-0.62-54.27 1.08-81.27-0.88z" fill="#9ad5d4"/>
  <path d="m797 13.04c2.35 0.97 8.91-1.68 9.93 0.99-3.28-0.01-6.66 0.02-9.89 0.01l-0.04-1z" fill="#1c4040"/>
  <path d="m411.98 15.02c2.28-2.49 9.16-0.81 13.36-0.84-4.21 1.84-8.95 0.57-13.36 0.84z" fill="#5a9595"/>
  <path d="m388.28 16.27c1.17-2.8 8.61-0.86 12.03-0.95-3.96 0.79-8.04 0.69-12.03 0.95z" fill="#2b5253"/>
  <path d="m375.95 17.02c2.03-2.68 8.66-0.57 12.33-0.75-4.04 0.93-8.23 0.82-12.33 0.75z" fill="#69abaa"/>
  <path d="m353.18 18.25c2.86-1.45 6.57-1.79 11.11-1-3.71 0.36-7.41 0.69-11.11 1z" fill="#41696a"/>
  <path d="m853.05 17.46c2.42-0.07 6.68-1.74 7.98 0.55-2.65-0.04-5.45 0.04-7.98-0.55z" fill="#3a6262"/>
  <path d="m341.9 19c3.18-1.28 6.94-1.53 11.28-0.75-3.75 0.49-7.51 0.74-11.28 0.75z" fill="#75b7b9"/>
  <path d="m321.96 20.03c0.94-3.01 7.47-0.47 10.4-0.77-3.3 1.38-6.95 0.84-10.4 0.77z" fill="#4c7776"/>
  <path d="m302.26 21.23c0.08-2.98 7.4-0.75 10.08-0.98-3.21 1.23-6.71 0.98-10.08 0.98z" fill="#0f3c3e"/>
  <path d="m290.89 22.01c3.19-1.29 6.98-1.55 11.37-0.78-3.78 0.48-7.57 0.74-11.37 0.78z" fill="#608f8e"/>
  <path d="m893.84 21.26c2.54 0.22 6.91-1.56 8.27 0.79-2.76-0.07-5.59-0.48-8.27-0.79z" fill="#558483"/>
  <path d="m267.23 23.23c1.26-2.79 8.64-0.77 12.09-0.92-3.98 0.78-8.06 0.8-12.09 0.92z" fill="#205252"/>
  <path d="m908.69 22.24c2.32 0.68 8.21-1.78 9.15 0.98-3.05-0.26-6.17-0.69-9.15-0.98z" fill="#215052"/>
  <path d="m255.9 23.98c3.2-1.26 6.97-1.51 11.33-0.75-3.77 0.48-7.54 0.73-11.33 0.75z" fill="#6a9c9a"/>
  <path d="m917.84 23.22c2.48 0.74 7.82-1.78 9.23 0.82-3.08 0.04-6.23-0.44-9.23-0.82z" fill="#71a0a1"/>
  <path d="m935.74 24.21c2.31 0.69 8.16-1.73 9.09 1.01-3.02-0.27-6.14-0.6-9.09-1.01z" fill="#2d6361"/>
  <path d="m944.83 25.22c2.48 0.74 7.84-1.78 9.24 0.81-3.08 0.07-6.23-0.45-9.24-0.81z" fill="#7bb1b2"/>
  <path d="m962.81 26.23c2.51 0.24 6.96-1.52 8.25 0.84-2.75-0.16-5.59-0.52-8.25-0.84z" fill="#396e6f"/>
  <path d="m982.86 28.29c3.24 0.91 11.6-2.41 12.9 0.73-4.31-0.05-8.65-0.22-12.9-0.73z" fill="#4c8684"/>
  <path d="m1012.9 33.23c2.4 0.74 7.8-1.75 9.1 0.78-3.1 0.03-6.2-0.46-9.1-0.78z" fill="#3b6465"/>
  <path d="m1161.2 78.9c-1.1-1.7 3-1.15 4.1-1.75-0.3 7.18-0.4 14.36-0.3 21.54 0.2 2.14-2.4 2.97-4 3.57 4.7-5.88 5.6-19.89 0.2-23.36z" fill="#e2c237"/>
  <path d="m1165.3 77.15c0.8 3.76 2.2 18.27-0.3 21.54-0.1-7.18 0-14.36 0.3-21.54z" fill="#3c2700"/>
  <path d="m78.89 78.95c2.76 0.1 5.49 0.42 8.24 0.75-2.53-0.14-6.87 1.58-8.24-0.75z" fill="#6dadae"/>
  <path d="m1023.3 105.31c46.2-7.12 92.5-15.56 137.9-26.41 5.4 3.47 4.5 17.48-0.2 23.36-8.4 8.71-21.5 8.76-32.5 12.25-25.3 5.38-50.2 13.1-75.6 17.5-5.1 0.35-10.4-1.17-15.2 0.76-3.1 0-6.1-0.14-9.1 0.95-2.8 0.78-5.7 0.14-8.6 0.25-4.8-0.04-9.5-0.15-14.1 0.97-5.6 0.91-11.25 1.16-16.85 1.04-3.48 0.01-7.06-0.74-10.29 0.83-2.8 0.07-5.47 0-8.08 0.89-1.65 0.07-4.95 0.19-6.59 0.26-2.9-0.06-5.67-0.22-8.38 0.68-5.23 0.4-10.44 1.25-15.68 1.36-3.21-0.16-6.32-0.44-9.33 0.68-17.77 0.72-35.17 4.58-52.82 6.29-2.64-0.02-5.25-0.01-7.84 0-17.43 0.56-35-1.02-52.34 0.76-12.6 1.34-25.6-1.3-37.99 1.06-3.41 0.05-6.83-0.29-10.06 0.95-3.87 0.39-7.75 0.47-11.64 0.24-3.49-0.13-7-0.55-10.3 0.73-6.24 1.02-12.55 1.66-18.84 2.29-3.33-0.02-6.54-0.05-9.83-0.03-81.69 0.07-163.37 0.02-245.05 0.02-5.58-0.02-11.15-0.05-16.7-0.15-4.11-0.64-8.23-0.89-12.36-0.86-3.89 0.09-7.77 0.01-11.63-0.23-3.71-0.36-7.41-0.7-11.11-1.01-4.08-0.46-8.16-0.83-12.25-0.77-3.59 0.06-7.14 0.26-10.69-0.23-3.69-0.4-7.38-0.74-11.07-1.01-3.76-0.48-7.52-0.74-11.29-0.78-3.58 0-7.12 0.29-10.65-0.18-2.74-0.36-5.41-0.69-8.13-0.94-5.66-0.94-11.36-1.79-17.11-1.95-2.66 0-5.31 0.03-7.96 0.09-2.63 0.1-5.24 0.05-7.84-0.16-2.74-0.37-5.41-0.75-8.14-1.05-2.74-0.33-5.42-0.73-8.16-0.8-15.98-0.32-31.78-2.78-47.67-4.25-3.1-0.36-6.17-0.79-9.3-0.74-2.59 0.05-5.16-0.01-7.73-0.19-2.77-0.33-5.5-0.71-8.28-0.81-15.98-1.92-32.08-3.56-47.78-7.26-3.66-0.48-7.32-0.82-10.99-1.03-24.04-2.07-48.21-0.68-72.14-3.73-25.06-2.88-50.66-5.75-74.76-13.22-4.28-9.7-6.45-20.76-10.14-30.86 10.85 4.41 22.07 8.12 33.8 9.24 35.73 3.24 71.11 9.63 106.9 12.17 2.73 0.27 5.49 0.64 8.25 0.79 56.9 5.55 113.92 9.8 170.73 16.23 3.37 0.41 6.8 0.86 10.22 0.76 4.87 0.06 9.78-0.4 14.66-0.06 0.36 0.31 1.08 0.93 1.44 1.25 13.3 1.4 27.67 1.24 41.23 0.01l0.96-0.21c110.14-0.61 220.89 0.97 330.65-0.79 0.36-0.32 1.08-0.98 1.43-1.3 5.62-0.03 11.35 0.5 16.93-0.62 3.11-0.49 6.4-0.32 9.58-0.34 3.8 0.01 7.6-0.26 11.4-0.82 4.2-0.08 8.46-0.1 12.71-0.16 24.2-0.68 49.4 1.17 73.05-0.71 0.32-0.36 0.96-1.1 1.28-1.46 1.67 0.03 5.01 0.11 6.68 0.15 4.06 0.13 8.27 0.22 12.29-0.76 4.28-0.38 8.84 0.48 13.02-0.94 2.74-0.71 5.8-0.24 8.67-0.28 3.37 0 7.09 0.72 10.29-0.84 2.98 0.01 6.17 0.22 9.05-0.91 2.7-0.79 5.76-0.17 8.6-0.25 3.08 0.07 6.51 0.67 9.39-0.88 2.8-0.06 5.76-0.03 8.63-0.1 3.72-0.09 7.46-0.34 11.2-0.75 3.03-0.06 6.27 0.12 9.2-1.02 3.03-0.76 6.39-0.12 9.54-0.25 3.76-0.01 7.51-0.26 11.28-0.75 3.4 0.02 6.93 0.05 10.23-0.99 3.1-0.68 6.4-0.23 9.6-0.26 3.4 0.14 7 0.53 10.3-0.71z" fill="#faca03"/>
  <path d="m171.94 91.94c3.14 0.02 6.23 0.48 9.35 0.82-2.6-0.72-7.92 1.79-9.35-0.82z" fill="#477272"/>
  <path d="m188.88 92.96c2.76 0.06 5.48 0.47 8.23 0.81-2.53-0.19-6.87 1.5-8.23-0.81z" fill="#7bbbbb"/>
  <path d="m197.11 93.77c3.08 0.28 6.12 0.66 9.2 0.99-2.46-0.67-8.13 1.79-9.2-0.99z" fill="#3d6768"/>
  <path d="m212.91 94.96c2.75 0.08 5.46 0.4 8.21 0.75-2.52-0.16-6.89 1.58-8.21-0.75z" fill="#64a7a4"/>
  <path d="m971.87 95.67c10.52-1.75 21.44-0.23 32.13-0.63-8.69 2.24-21.8 0.64-32.13 0.63z" fill="#6aabaa"/>
  <path d="m239.96 97.96c3.76 0.11 7.51 0.37 11.26 0.78-4.37 0.77-8.13 0.51-11.26-0.78z" fill="#244846"/>
  <path d="m264.04 99c8.38-0.1 16.8-0.35 25.15 0.65-7.45-0.75-19.67 2.59-25.15-0.65z" fill="#4c8686"/>
  <path d="m882.65 100.89c11.33-2.9 23.68 0.24 35.34-0.92l0.01 1c-11.79-0.02-23.58 0.27-35.35-0.08z" fill="#8bc3c4"/>
  <path d="m917.99 99.97c13.97 0.01 27.95 0.03 41.93 0.06-11.98 2.28-28.29 0.4-41.92 0.94l-0.01-1z" fill="#0f2d2d"/>
  <path d="m849.66 101.7c10.77-2.08 22.03 0.11 32.99-0.81-8.28 2.25-22.45 1.02-32.99 0.81z" fill="#3c7473"/>
  <path d="m160.81 102.28c2.52 0.16 6.97-1.57 8.25 0.79-2.76-0.15-5.52-0.52-8.25-0.79z" fill="#523a00"/>
  <path d="m823.71 102.63c4.04-0.77 8.19-0.77 12.33-0.66-2.09 2.67-8.69 0.61-12.33 0.66z" fill="#7cb2b2"/>
  <path d="m320.01 104.01c41.75 0.53 83.61-1.12 125.29 0.83-41.31-0.44-85.63 1.58-125.29-0.83z" fill="#6b9d9d"/>
  <path d="m445.3 104.84c27.23 0.37 54.46 0.07 81.7 0.14v1c-26.74-0.75-57.15 1.61-81.7-1.14z" fill="#1c4d4e"/>
  <path d="m527 104.98c36.06 0.59 72.24-1.08 108.24 0.83-36.08 0.42-72.16 0.11-108.24 0.17v-1z" fill="#99e2e3"/>
  <path d="m1013 106.02c0.9-3.06 7.4-0.46 10.3-0.71-3.3 1.24-6.9 0.85-10.3 0.71z" fill="#ad9329"/>
  <path d="m636.21 105.9c29.01 0.78 58.13-1.07 87.09 0.93-28.58-0.38-60.53 1.59-87.09-0.93z" fill="#5d8b8b"/>
  <path d="m769.68 106.81c5.8-2.18 12.25-0.32 18.3-0.8-3.49 2.46-12 0.55-17.31 0.91l-0.99-0.11z" fill="#5f8d8c"/>
  <path d="m992.2 107.17c2.71-1.48 6.46-1.78 11.2-0.89-3.3 1.04-6.83 1.01-10.23 0.99l-0.97-0.1z" fill="#745900"/>
  <path d="m723.3 106.83c15.45 0.26 30.92 0.32 46.38-0.02l0.99 0.11c-12.13 1.27-35.22 2.6-47.37-0.09z" fill="#0d393a"/>
  <path d="m981.89 108.02c1.34-2.9 7.31-0.46 10.31-0.85l0.97 0.1c-3.77 0.49-7.52 0.74-11.28 0.75z" fill="#baa02d"/>
  <path d="m962.19 109.18c-0.01-3.02 7.48-0.69 10.16-0.91-2.93 1.14-6.17 0.96-9.2 1.02l-0.96-0.11z" fill="#876b00"/>
  <path d="m943.32 110.14c-0.99-3.14 6.54-0.57 8.67-1.08l-0.04 0.98c-2.87 0.07-5.83 0.04-8.63 0.1z" fill="#433000"/>
  <path d="m951.99 109.06c3.32-0.17 6.83-0.29 10.2 0.12l0.96 0.11c-3.74 0.41-7.48 0.66-11.2 0.75l0.04-0.98z" fill="#cdb137"/>
  <path d="m933.93 111.02c0.62-3.29 6.77-0.36 9.39-0.88-2.88 1.55-6.31 0.95-9.39 0.88z" fill="#977a03"/>
  <path d="m916.28 112.18c-0.41-3.29 6.74-0.63 9.05-0.91-2.88 1.13-6.07 0.92-9.05 0.91z" fill="#594602"/>
  <path d="m905.99 113.02c0.83-3.03 7.4-0.41 10.29-0.84-3.2 1.56-6.92 0.84-10.29 0.84z" fill="#aa8a0a"/>
  <path d="m884.3 114.24c1.49-2.46 9.02-1.24 13.02-0.94-4.18 1.42-8.74 0.56-13.02 0.94z" fill="#605002"/>
  <path d="m872.01 115c1.87-2.68 8.64-0.5 12.29-0.76-4.02 0.98-8.23 0.89-12.29 0.76z" fill="#b89613"/>
  <path d="m807 116.01c17.45-2.48 39.21-0.14 58.33-1.16-0.32 0.36-0.96 1.1-1.28 1.46-19.01-0.65-38.04-0.15-57.05-0.3z" fill="#75620b"/>
  <path d="m778.29 117.18c1.39-2.46 8.77-0.95 12.7-1.16l0.01 1c-4.25 0.06-8.51 0.08-12.71 0.16z" fill="#422a00"/>
  <path d="m790.99 116.02c5.31-0.13 10.68-0.05 16.01-0.01 19.01 0.15 38.04-0.35 57.05 0.3-23.65 1.88-48.85 0.03-73.05 0.71l-0.01-1z" fill="#e9c223"/>
  <path d="m766.89 118c3.18-1.27 6.98-1.54 11.4-0.82-3.8 0.56-7.6 0.83-11.4 0.82z" fill="#8a7115"/>
  <path d="m740.38 118.96c2.45-2.28 11.92-0.72 16.93-0.62-5.58 1.12-11.31 0.59-16.93 0.62z" fill="#573f00"/>
  <path d="m339.79 119.3c2.55 0.95 8.83-2.02 10.22 0.76-3.42 0.1-6.85-0.35-10.22-0.76z" fill="#97811e"/>
  <path d="m718 120c5.19-2.41 15.32-0.45 22.38-1.04-0.35 0.32-1.07 0.98-1.43 1.3-7-0.11-13.96-0.25-20.95-0.26z" fill="#99811e"/>
  <path d="m364.67 120c14.42 0.08 28.87-0.23 43.28 0.12l0.35 0.93-0.96 0.21c-13.74-0.31-27.5-0.55-41.23-0.01-0.36-0.32-1.08-0.94-1.44-1.25z" fill="#664c00"/>
  <path d="m407.95 120.12c103.35-0.29 206.7-0.03 310.05-0.12 6.99 0.01 13.95 0.15 20.95 0.26-109.76 1.76-220.51 0.18-330.65 0.79l-0.35-0.93z" fill="#eec930"/>
  <path d="m1075.1 142.24c28.8-6.26 55.9-17.02 84.8-22.31-3.8 23.46-17.5 42.93-31.7 61.31-16.7 41.95-46 77.56-77.5 109.49-35.6 43.76-85.83 71.54-133.12 100.86-33.49 21.49-70.07 39.04-109.39 46.65-17.41-1.83-16.72 28.16-35.19 22.83-14.6-3.58-28.59 0.53-37.95 12.08-7.63-18.95-27.22-28.44-45.78-33.64-19.89-0.6-34.56 14.52-44.53 30.31-17.74-6.69-38.55-7.74-54.75 3.2-8.28-16.91-24.47-27.46-41.79-31.96-20.97 0.1-39.51 7.85-56.67 19.27-7.48-0.49-15.21-3.39-22.53-5.59-3.09-0.87-6.22-1.32-9.22-0.12-2.94 0.69-5.92 1.24-8.93 1.41-2.55-0.02-5.09-0.04-7.62-0.05-10.14-6.81-19.05-18.18-31.3-22.89-15.84-8.47-35.22-4.47-51.11-12.93-37.36-19.14-73.92-39.84-111.7-58.19-13.41-14.87-36.98-14.45-49.88-30.22-24.6-23.07-50.07-45.27-74.38-68.63-30.21-43.96-71.21-82.14-88.06-133.92 45.35 5.37 90.5 12.08 135.98 16.08 3.98 0.4 7.99 0.7 11.99 0.92 4.06 0.58 8.17 0.84 12.28 0.82 2.88-0.01 5.81-0.18 8.68 0.23 3.09 0.35 6.21 0.84 9.33 0.79 19.97 1.1 40.01 2.22 59.81 5.25 2.71 0.33 5.48 0.7 8.24 0.75 2.52-0.05 5.05 0.01 7.59 0.19 3.1 0.38 6.25 0.87 9.4 0.8 5.63-0.38 11.18 0.55 16.75 1.25 2.72 0.27 5.49 0.69 8.25 0.77 4.6-0.15 9.16 0.53 13.69 1.23 3.05 0.42 6.18 0.8 9.28 0.75 3.2-0.04 6.48-0.23 9.69 0.22 3.98 0.43 8 0.74 12.03 0.96 4.36 0.55 8.8 0.92 13.22 0.82 3.89-0.12 7.79-0.04 11.7 0.23 4.01 0.34 8.04 0.73 12.08 0.95 4.36 0.55 8.8 0.92 13.22 0.82 3.89-0.13 7.78-0.05 11.68 0.24 3.4 0.34 6.86 0.88 10.31 0.78 4.99-0.16 9.91 0.65 14.84 1.24 4.24 0.51 8.55 0.66 12.84 0.73 7.1 7.53 16.63-0.42 25.37-0.05 7.98 0 15.97 0.14 23.96 0.06 7.56 0.07 15.17-0.44 22.73 0.24 8.28 1.26 16.66 0.47 25 0.9 28.05 1.09 56.78 1.83 84.65-0.05 4.93-0.39 10.17 0.89 14.96-0.85 4.44-0.72 9.08-0.23 13.62-0.24 5.46 0.17 10.96-0.01 16.4-0.86 5.5-0.13 11.02-0.13 16.56-0.07-46.71 11.5-99.81 5.47-149.12 9.71-40.12 0.23-80.45-2.87-120.01-0.24-4.1 0.22-8.02 1.51-11.84 2.92-6.1-6.99-18.84-2.71-26.56-5.83-21.48 0.93-43.59-2.74-65.18-3.88-1.96-1.66-15.2 2.94-21.44-1.42-84.95-6.77-173.36-10.61-258.04-24.41 3.91 25.35 22.22 47.49 37.62 67.71 11.25 16.49 24.62 31.05 35.94 47.27 21.53 20.87 45.09 40.05 66.33 61.44 5.49 7.45 16.23 7.05 23.27 12.88 9.53 0.09 12.52 10.69 21.04 12.12 32.15 14.95 62.5 33.46 94.11 49.09 10.76 0.36 20.85 5.3 31.71 5.6-3.36 7.01 6.07 0.09 10.02 4.06 5.16 5.91 14.26 8.05 18.8 15.24 8.93 10.6 22.69-2.32 33.27 3.77 17.75 11.49 29.8-15.09 48.37-10.64 19.74-9.32 38.36 8.84 48.08 24.36 4.68 1.47 5.67-5.82 10.15-4.38 10.2 0.36 21.44-7.72 30.09 0.84 12.41 3.22 15.6-13.03 24.81-17.96 13.48-10.26 30.83-6.49 43.05 4.25 9.17 1.97 9.8 13.85 17.43 17.2 8.99-12.33 25.36-9.11 38.69-9.03 7.14-5.81 9.88-18.88 20.3-20.57 44.52-5.61 81.64-33.32 119.75-54.67 20.22-12.87 41.82-27.35 61.87-42.08 33.87-36.84 71.81-72.19 90.64-119.58 9.78-14.03 22.62-25.65 24.62-42.93 7 5.64 17.7-4.73 26.3-4 4.2 0.04 8.5 0.17 12.7 0.23 8.4 1.13 17 1.53 25.4 0.07z" fill="#97caca"/>
  <path d="m366.11 121.25c13.73-0.54 27.49-0.3 41.23 0.01-13.56 1.23-27.93 1.39-41.23-0.01z" fill="#efc92d"/>
  <path d="m105.01 124.95c23.93 3.05 48.1 1.66 72.14 3.73l-1.92 0.24c-5.98 0.21-12.01 0.4-17.97-0.19-10.35-1.38-20.81-0.6-31.21-0.72-6.57-0.73-15.81-0.47-21.04-3.06z" fill="#e0bd2d"/>
  <path d="m126.05 128.01c10.4 0.12 20.86-0.66 31.21 0.72-10-0.24-22.94 1.68-31.21-0.72z" fill="#534000"/>
  <path d="m175.23 128.92l1.92-0.24c3.67 0.21 7.33 0.55 10.99 1.03-3.24-0.95-11.85 2.49-12.91-0.79z" fill="#987a03"/>
  <path d="m1037.7 132.77c4.8-1.93 10.1-0.41 15.2-0.76-2.4 2.32-9.7 0.84-14.2 0.88l-1-0.12z" fill="#b89f2e"/>
  <path d="m1028.6 133.72c3-1.09 6-0.95 9.1-0.95l1 0.12c0.3 2.89-7.5 0.66-10.1 0.83z" fill="#705500"/>
  <path d="m1005.9 134.94c4.6-1.12 9.3-1.01 14.1-0.97-1 1.46-3.2 2.06-6.4 1.82-2.6 0.03-5.2 0.07-7.7 0.11v-0.96z" fill="#c1bd5d"/>
  <path d="m978.76 136.81c3.23-1.57 6.81-0.82 10.29-0.83-1.09 3.01-7.34 0.42-10.29 0.83z" fill="#947b19"/>
  <path d="m922.3 154.28c28.41-3.42 56.3-9.72 83.6-18.38 2.5-0.04 5.1-0.08 7.7-0.11 0.1 3.46-1.5 6.95-2.9 10.15-2 17.28-14.84 28.9-24.62 42.93-18.83 47.39-56.77 82.74-90.64 119.58-20.05 14.73-41.65 29.21-61.87 42.08-38.11 21.35-75.23 49.06-119.75 54.67-10.42 1.69-13.16 14.76-20.3 20.57-13.33-0.08-29.7-3.3-38.69 9.03-7.63-3.35-8.26-15.23-17.43-17.2-12.22-10.74-29.57-14.51-43.05-4.25-9.21 4.93-12.4 21.18-24.81 17.96-8.65-8.56-19.89-0.48-30.09-0.84-4.48-1.44-5.47 5.85-10.15 4.38-9.72-15.52-28.34-33.68-48.08-24.36-18.57-4.45-30.62 22.13-48.37 10.64-10.58-6.09-24.34 6.83-33.27-3.77-4.54-7.19-13.64-9.33-18.8-15.24-3.95-3.97-13.38 2.95-10.02-4.06-10.86-0.3-20.95-5.24-31.71-5.6-31.61-15.63-61.96-34.14-94.11-49.09-8.52-1.43-11.51-12.03-21.04-12.12-7.04-5.83-17.78-5.43-23.27-12.88-21.24-21.39-44.8-40.57-66.33-61.44-11.32-16.22-24.69-30.78-35.94-47.27-15.4-20.22-33.71-42.36-37.62-67.71 84.68 13.8 173.09 17.64 258.04 24.41 6.24 4.36 19.48-0.24 21.44 1.42 21.59 1.14 43.7 4.81 65.18 3.88 7.72 3.12 20.46-1.16 26.56 5.83 3.82-1.41 7.74-2.7 11.84-2.92 39.56-2.63 79.89 0.47 120.01 0.24 49.31-4.24 102.41 1.79 149.12-9.71 0.34-0.31 1.03-0.94 1.37-1.25 5.21-0.07 10.47 0.14 15.7 0.18 6.05-0.38 12.43 1.13 18.34-0.73 5.46-0.82 11.1-0.16 16.64-0.27 5.44 0.16 10.92-0.04 16.34-0.84 4.62-0.33 9.53 0.74 14.02-0.91 4.44-0.71 9.08-0.26 13.62-0.25 4.42-0.26 9.22 1.01 13.45-0.88 1.85-0.09 3.72-0.08 5.59-0.06-18.68 10.7-42.18 2.84-62.6 9.11-13.72-1.79-32.06 5.22-42.39-1.59 0.4-4.28-5.44-2.13-7.3-1.12-40.67 15.89-84.21 8.5-126.25 15.09-3.71-2.51-7.52 1.24-11.54-1.45-0.42-0.01-1.25-0.03-1.67-0.05-24.39 2.42-49.03 1.57-73.21 3.57-38.25 0.19-76.78-5.37-114.54 1.06-1.04-1.04-1.45-2.83-2.9-3.34-51.22-3.42-102.58-3.6-153.37-10.97-50.42 0.8-100.46-9.73-150.19-13.44 11.37 31.84 35.07 56.55 54.6 83.37 14.35 20.51 36.26 33.84 52.81 52.24 35.22 27.58 79.19 43.14 117.56 67.42 11.7 7.21 28.59 1.02 38.84 10.37 7.8 2.77 13.4 9.26 19.64 14.38 8 3.06 17.13-1.3 25.11 1.34 13.24 8.96 22.6-9.95 35.96-9.02 16.97-7.98 33.59 5.63 43.03 18.57 5.01 1.32 15.49-7.69 15.2-1.82 7.45-6.66 16.1 0.81 23.92 1.95 6.39-11.07 16.28-20.19 29.2-22.56 12.76 4.74 26.09 10.35 33.34 22.56 7.42-3.73 15.3-8.47 24.29-6.39 13.76 5.59 13.66-13.63 24.55-16.07 37.37-4.48 68.41-28.18 101.05-45.35 18.52-17.88 46.04-25.38 60.33-47.49 26.26-25.87 51.33-54.09 65.63-88.27 8.59-10.81 18.12-21.93 19.55-36.24 1.58 0.25 4.73 0.77 6.31 1.03 3.43 0.3 7.1 0.62 10.39-0.71 3.03-0.81 6.41-0.15 9.57-0.24 3.1 0.06 6.55 0.68 9.43-0.92 6.57-0.69 13.52 1.22 19.95-0.83z" fill="#9ccfd0"/>
  <path d="m235.92 136.97c2.78 0.1 5.51 0.48 8.28 0.81-2.54-0.26-6.94 1.52-8.28-0.81z" fill="#584001"/>
  <path d="m970.68 137.7c2.61-0.89 5.28-0.82 8.08-0.89-0.51 2.43-5.74 0.88-8.08 0.89z" fill="#584000"/>
  <path d="m251.93 137.97c3.13-0.05 6.2 0.38 9.3 0.74-2.58-0.72-7.86 1.85-9.3-0.74z" fill="#826c10"/>
  <path d="m955.71 138.64c2.71-0.9 5.48-0.74 8.38-0.68-1.2 2.34-5.86 0.69-8.38 0.68z" fill="#826a0f"/>
  <path d="m930.7 140.68c3.01-1.12 6.12-0.84 9.33-0.68-0.78 3.25-6.71 0.45-9.33 0.68z" fill="#77630b"/>
  <path d="m1037 141.94c1.4-1.42 11.7-2.43 12.7 0.23-4.2-0.06-8.5-0.19-12.7-0.23z" fill="#213232"/>
  <path d="m1049.7 142.17c8.5-0.15 16.9-0.55 25.4 0.07-8.4 1.46-17 1.06-25.4-0.07z" fill="#5a7a7a"/>
  <path d="m308.9 142.96c2.74 0.07 5.42 0.47 8.16 0.8-2.51-0.18-6.82 1.51-8.16-0.8z" fill="#a58509"/>
  <path d="m317.06 143.76c2.73 0.3 5.4 0.68 8.14 1.05-2.47-0.24-7.12 1.43-8.14-1.05z" fill="#5b4602"/>
  <path d="m172.78 145.28c2.7 1.06 11.37-2.55 11.99 0.92-4-0.22-8.01-0.52-11.99-0.92z" fill="#3c5151"/>
  <path d="m333.04 144.97c2.65-0.06 5.3-0.09 7.96-0.09l-0.04 0.97c-2.35-0.24-7.24 1.47-7.92-0.88z" fill="#997e06"/>
  <path d="m341 144.88c5.75 0.16 11.45 1.01 17.11 1.95l-0.93 0.04c-5.44 0.31-10.84-0.4-16.22-1.02l0.04-0.97z" fill="#e0be33"/>
  <path d="m184.77 146.2c3.08 1.21 10.78-2.62 12.28 0.82-4.11 0.02-8.22-0.24-12.28-0.82z" fill="#779998"/>
  <path d="m205.73 147.25c2.56 0.7 7.91-1.8 9.33 0.79-3.12 0.05-6.24-0.44-9.33-0.79z" fill="#486060"/>
  <path d="m357.18 146.87l0.93-0.04c2.72 0.25 5.39 0.58 8.13 0.94-2.37-0.73-8.19 1.76-9.06-0.9z" fill="#886900"/>
  <path d="m817.7 147.73c17.34-1.78 34.91-0.2 52.34-0.76l-0.03 1c-15.06 0.05-30.11 0.04-45.16-0.01-1.78-0.06-5.36-0.18-7.15-0.23z" fill="#f0c92b"/>
  <path d="m870.04 146.97c2.59-0.01 5.2-0.02 7.84 0-0.58 2.3-5.55 0.63-7.87 1l0.03-1z" fill="#896e00"/>
  <path d="m376.89 147.95c3.77 0.04 7.53 0.3 11.29 0.78l-0.97 0.1c-2.74-0.79-8.64 1.79-10.32-0.88z" fill="#bea232"/>
  <path d="m779.71 148.79c12.39-2.36 25.39 0.28 37.99-1.06 1.79 0.05 5.37 0.17 7.15 0.23l0.16 1.01c-15.1-0.11-30.23 0.41-45.3-0.18z" fill="#bca032"/>
  <path d="m824.85 147.96c15.05 0.05 30.1 0.06 45.16 0.01-13.12 2.28-30.23 0.59-45 1l-0.16-1.01z" fill="#322300"/>
  <path d="m387.21 148.83l0.97-0.1c3.69 0.27 7.38 0.61 11.07 1.01-2.68-1.11-11.55 2.58-12.04-0.91z" fill="#745900"/>
  <path d="m769.65 149.74c3.23-1.24 6.65-0.9 10.06-0.95-0.09 2.93-7.38 0.77-10.06 0.95z" fill="#735b00"/>
  <path d="m409.94 149.97c4.09-0.06 8.17 0.31 12.25 0.77-3.11-1.14-10.73 2.67-12.25-0.77z" fill="#a88d24"/>
  <path d="m747.71 150.71c3.3-1.28 6.81-0.86 10.3-0.73-0.94 3.05-7.39 0.44-10.3 0.73z" fill="#aa9026"/>
  <path d="m832.25 159.3c12.63-1.64 23.67-8.67 36.57-9.4 0.18 2.25-1.45 4.03-2.17 6.05-1.43 14.31-10.96 25.43-19.55 36.24-14.3 34.18-39.37 62.4-65.63 88.27-14.29 22.11-41.81 29.61-60.33 47.49-32.64 17.17-63.68 40.87-101.05 45.35-10.89 2.44-10.79 21.66-24.55 16.07-8.99-2.08-16.87 2.66-24.29 6.39-7.25-12.21-20.58-17.82-33.34-22.56-12.92 2.37-22.81 11.49-29.2 22.56-7.82-1.14-16.47-8.61-23.92-1.95 0.29-5.87-10.19 3.14-15.2 1.82-9.44-12.94-26.06-26.55-43.03-18.57-13.36-0.93-22.72 17.98-35.96 9.02-7.98-2.64-17.11 1.72-25.11-1.34-6.24-5.12-11.84-11.61-19.64-14.38-10.25-9.35-27.14-3.16-38.84-10.37-38.37-24.28-82.34-39.84-117.56-67.42-16.55-18.4-38.46-31.73-52.81-52.24-19.53-26.82-43.23-51.53-54.6-83.37 49.73 3.71 99.77 14.24 150.19 13.44 50.79 7.37 102.15 7.55 153.37 10.97 1.45 0.51 1.86 2.3 2.9 3.34 37.76-6.43 76.29-0.87 114.54-1.06 24.18-2 48.82-1.15 73.21-3.57-5.11 2.66-10.92 3.14-16.33 4.87-34.08 3.85-76.02 3.4-107.76 5.98-27.17 1.87-54.89-1.65-82.93-0.34-5.81-4.77-19.11 4.67-27.16-0.69-20-0.11-42.4-4.82-63.75-2.53-22.08-4.93-41.16-2.75-63.07-6.77-37.3 2-73.19-8.55-110.5-10.04 6.18 17.66 18.99 37.27 33.43 52.34 15.11 26.16 40.32 42.17 61.6 63.49 3.46 3.34 12.34 1.66 10.59 8.5 5.38-2.72 9.63 0.76 13.62 4.74 29.09 13.04 58.45 35.16 88.61 37.11 1.5 6.46 17.26 7.07 13.46 17.25 5.01-4.54 12.64-2.38 18.81-4.48 8.01 7.98 16.96-0.73 24.46-4.36 11.3 0.26 18.09-7.91 26.43 1.2 9.89-0.1 11.15 18.19 21.51 10.27 9.9-5.45 23.88 7.89 28.75-5.63 3.95-8 19.29-14.93 25.22-5.45 12.26-4.11 11.87 18.02 24.47 11.81 4.67-7.09 13.9-1.78 20.62-4.31 3.19-5.71 9.47-15.2 16.89-12.65 38.27-10.58 71.49-32.62 103.56-55.6 16.92-10.1 25.6-30.14 42.61-40.21 1.85-9.94 14.62-21.97 21.79-31.58 2.38-17.19 19.03-28.96 21.83-45.39 10.33 6.81 28.67-0.2 42.39 1.59 20.42-6.27 43.92 1.59 62.6-9.11 1.41-0.26 2.84-0.48 4.25-0.79z" fill="#a1d8d7"/>
  <path d="m422.19 150.74c3.7 0.31 7.4 0.65 11.11 1.01-4.56 0.78-8.26 0.45-11.11-1.01z" fill="#624b00"/>
  <path d="m444.93 151.98c4.13-0.03 8.25 0.22 12.36 0.86-3.14-1.28-10.84 2.58-12.36-0.86z" fill="#937c19"/>
  <path d="m274.87 153.29c2.52 0.16 6.9-1.59 8.24 0.75-2.76-0.05-5.53-0.42-8.24-0.75z" fill="#779193"/>
  <path d="m457.29 152.84c5.55 0.1 11.12 0.13 16.7 0.15l0.01 1c-4.3-0.98-14.82 2.08-16.71-1.15z" fill="#513a00"/>
  <path d="m473.99 152.99c81.68 0 163.36 0.05 245.05-0.02l-0.03 1c-3.39 0.1-6.66 0.05-10.01 0-2.69-0.05-5.35-0.06-8-0.02-75.67 0.1-151.33 0.04-227 0.04l-0.01-1z" fill="#ddb927"/>
  <path d="m719.04 152.97c3.29-0.02 6.5 0.01 9.83 0.03-0.49 2.93-7.14 0.37-9.86 0.97l0.03-1z" fill="#563f00"/>
  <path d="m290.7 154.23c2.58 0.74 7.92-1.79 9.4 0.8-3.15 0.07-6.3-0.42-9.4-0.8z" fill="#425e5e"/>
  <path d="m701 153.95c2.65-0.04 5.31-0.03 8 0.02-0.48 1.79-7.53 1.79-8-0.02z" fill="#806815"/>
  <path d="m902.35 155.11c3.89-2.14 13.46-1.24 19.95-0.83-6.43 2.05-13.38 0.14-19.95 0.83z" fill="#405b5b"/>
  <path d="m892.92 156.03c0.64-3.29 6.79-0.35 9.43-0.92-2.88 1.6-6.33 0.98-9.43 0.92z" fill="#839d9e"/>
  <path d="m316.85 156.28c2.53 0.18 6.9-1.58 8.25 0.77-2.76-0.08-5.53-0.5-8.25-0.77z" fill="#496565"/>
  <path d="m872.96 156.98c0.99-2.97 7.46-0.42 10.39-0.71-3.29 1.33-6.96 1.01-10.39 0.71z" fill="#517070"/>
  <path d="m338.79 158.28c2.53 0.73 7.85-1.84 9.28 0.75-3.1 0.05-6.23-0.33-9.28-0.75z" fill="#5c7c7b"/>
  <path d="m357.76 159.25c2.7 1.08 11.38-2.52 12.03 0.96-4.03-0.22-8.05-0.53-12.03-0.96z" fill="#344747"/>
  <path d="m822.41 160.15c-0.62-3.01 7.36-0.61 9.84-0.85-1.41 0.31-2.84 0.53-4.25 0.79-1.87-0.02-3.74-0.03-5.59 0.06z" fill="#304244"/>
  <path d="m369.79 160.21c3.52 0.98 11.4-2.44 13.22 0.82-4.42 0.1-8.86-0.27-13.22-0.82z" fill="#698888"/>
  <path d="m808.96 161.03c2.29-2.52 9.21-0.77 13.45-0.88-4.23 1.89-9.03 0.62-13.45 0.88z" fill="#698b8b"/>
  <path d="m394.71 161.26c2.7 1.07 11.45-2.54 12.08 0.95-4.04-0.22-8.07-0.61-12.08-0.95z" fill="#3b5050"/>
  <path d="m781.32 162.19c1.72-2.28 9.61-1.27 14.02-0.91-4.49 1.65-9.4 0.58-14.02 0.91z" fill="#3e5253"/>
  <path d="m406.79 162.21c3.52 0.98 11.4-2.44 13.22 0.82-4.42 0.1-8.86-0.27-13.22-0.82z" fill="#769998"/>
  <path d="m764.98 163.03c3.1-2.85 11.53-0.13 16.34-0.84-5.42 0.8-10.9 1-16.34 0.84z" fill="#789998"/>
  <path d="m431.69 163.27c2.57 0.91 8.91-1.97 10.31 0.78-3.45 0.1-6.91-0.44-10.31-0.78z" fill="#475e5e"/>
  <path d="m730 164.03c3.92-2.26 12.51-1.03 18.34-0.73-5.91 1.86-12.29 0.35-18.34 0.73z" fill="#4a6261"/>
  <path d="m696.37 165.17c2.93-2.35 12.3-0.79 17.93-1.32-0.34 0.31-1.03 0.94-1.37 1.25-5.54-0.06-11.06-0.06-16.56 0.07z" fill="#172e2e"/>
  <path d="m456.84 165.29c3.14 0.87 11.82-2.37 12.84 0.73-4.29-0.07-8.6-0.22-12.84-0.73z" fill="#577171"/>
  <path d="m495.05 165.97c5.23-0.96 18.79-2.79 23.96 0.06-7.99 0.08-15.98-0.06-23.96-0.06z" fill="#59706e"/>
  <path d="m679.97 166.03c3.15-2.85 11.56-0.12 16.4-0.86-5.44 0.85-10.94 1.03-16.4 0.86z" fill="#556d6c"/>
  <path d="m715.71 166.49c1.86-1.01 7.7-3.16 7.3 1.12-2.8 16.43-19.45 28.2-21.83 45.39-7.17 9.61-19.94 21.64-21.79 31.58-17.01 10.07-25.69 30.11-42.61 40.21-32.07 22.98-65.29 45.02-103.56 55.6-7.42-2.55-13.7 6.94-16.89 12.65-6.72 2.53-15.95-2.78-20.62 4.31-12.6 6.21-12.21-15.92-24.47-11.81-5.93-9.48-21.27-2.55-25.22 5.45-4.87 13.52-18.85 0.18-28.75 5.63-10.36 7.92-11.62-10.37-21.51-10.27-8.34-9.11-15.13-0.94-26.43-1.2-7.5 3.63-16.45 12.34-24.46 4.36-6.17 2.1-13.8-0.06-18.81 4.48 3.8-10.18-11.96-10.79-13.46-17.25-30.16-1.95-59.52-24.07-88.61-37.11-3.99-3.98-8.24-7.46-13.62-4.74 1.75-6.84-7.13-5.16-10.59-8.5-21.28-21.32-46.49-37.33-61.6-63.49-14.44-15.07-27.25-34.68-33.43-52.34 37.31 1.49 73.2 12.04 110.5 10.04 21.91 4.02 40.99 1.84 63.07 6.77 21.35-2.29 43.75 2.42 63.75 2.53 8.05 5.36 21.35-4.08 27.16 0.69 28.04-1.31 55.76 2.21 82.93 0.34 31.74-2.58 73.68-2.13 107.76-5.98-12.87 8.98-28.47 0.51-41.35 8.17-17.4-5.46-40.11 4.9-59.27 1.35-11.18 5.9-24.24-1.5-35.95 1.96-38.17 5.52-75.61 0.61-113.55 3.3-59.87-5.82-121.31-5.61-181.73-16.45 6.52 20.86 22.24 36.52 34.9 53.76 6.48 3.47 2.74 8.13 10.58 9.23 22.12 27.68 56.82 37.97 87.03 55.25 10.92 2.4 22.84 4.39 30.4 13.71 8.96-2.89 20.18 6.87 27.26-1.95 11.46-7.87 23.97-3.97 30 7.33 10.59-2.91 23.98 4.61 29.55-6.82 7.54-10.26 23.46-3.58 28.51 5.99 4.58 2.74 7.55-4.81 12.72-2.41 10.28 4.83 10.92-10.56 20.43-10.53 15.07-0.7 28.53-8.35 40.04-16.37 18.92-11.79 48.49-28.69 61.12-47.88 9.05-6.27 11.24-17.74 18.92-25.12 5.41-12.93 16.94-22.84 18.39-37.34 4.02 2.69 7.83-1.06 11.54 1.45 42.04-6.59 85.58 0.8 126.25-15.09z" fill="#a5dddc"/>
  <path d="m541.74 166.27c7.2 0.9 20.12-2.67 25 0.9-8.34-0.43-16.72 0.36-25-0.9z" fill="#223c3c"/>
  <path d="m651.39 167.12c1.97-2.2 10.23-1.17 14.96-0.85-4.79 1.74-10.03 0.46-14.96 0.85z" fill="#263f3f"/>
  <path d="m566.74 167.17c28.21-0.29 56.44-0.25 84.65-0.05-27.87 1.88-56.6 1.14-84.65 0.05z" fill="#668080"/>
  <path d="m576.25 180.08c0.42 0.02 1.25 0.04 1.67 0.05-1.45 14.5-12.98 24.41-18.39 37.34-7.68 7.38-9.87 18.85-18.92 25.12-12.63 19.19-42.2 36.09-61.12 47.88-11.51 8.02-24.97 15.67-40.04 16.37-9.51-0.03-10.15 15.36-20.43 10.53-5.17-2.4-8.14 5.15-12.72 2.41-5.05-9.57-20.97-16.25-28.51-5.99-5.57 11.43-18.96 3.91-29.55 6.82-6.03-11.3-18.54-15.2-30-7.33-7.08 8.82-18.3-0.94-27.26 1.95-7.56-9.32-19.48-11.31-30.4-13.71-30.21-17.28-64.91-27.57-87.03-55.25-7.84-1.1-4.1-5.76-10.58-9.23-12.66-17.24-28.38-32.9-34.9-53.76 60.42 10.84 121.86 10.63 181.73 16.45 37.94-2.69 75.38 2.22 113.55-3.3 11.71-3.46 24.77 3.94 35.95-1.96 19.16 3.55 41.87-6.81 59.27-1.35 12.88-7.66 28.48 0.81 41.35-8.17 5.41-1.73 11.22-2.21 16.33-4.87m-146.99 16.31c-90.26 16.53-185.16 12.49-276.8 2.1 3.17 9.89 9.45 17.9 16.38 26.67 20.35 29.84 56.48 42.48 86.89 55.59 7.8 1.46 14.26-0.1 21.72-3.37 8.01-4.72 9.6 10.01 16.23 5.32 3.93-2.41 9.83 4.23 12.22-0.65 3.07-10.03 16.91-6.11 20.14 1.86 4.74-5.23 13.25 1.37 15.82-6.15 39.25-11.26 72.28-39.48 89.82-76.33 1.65-1.47-0.2-5.87-2.42-5.04z" fill="#aae2e1"/>
  <path d="m429.26 196.39c2.22-0.83 4.07 3.57 2.42 5.04-17.54 36.85-50.57 65.07-89.82 76.33-2.57 7.52-11.08 0.92-15.82 6.15-3.23-7.97-17.07-11.89-20.14-1.86-2.39 4.88-8.29-1.76-12.22 0.65-6.63 4.69-8.22-10.04-16.23-5.32-7.46 3.27-13.92 4.83-21.72 3.37-30.41-13.11-66.54-25.75-86.89-55.59-6.93-8.77-13.21-16.78-16.38-26.67 91.64 10.39 186.54 14.43 276.8-2.1z" fill="#aeeaea"/>
  <path d="m408.35 475.3c1.04-7.31-3.43-28.4 1.39-29.68-2.13 9.78 0.85 20-1.39 29.68z" fill="#8e7102"/>
  <path d="m408.35 475.3c2.24-9.68-0.74-19.9 1.39-29.68 6.88 5.89 16.19 9.7 21.16 17.38-16.71 20.85-18.28 52.06-3.94 75.02 17.09 13.07 36.69 20.88 58.48 16.45 22.6-16.93 32.82-50.82 16.82-75.17-3.47-14.94 13.79-16.85 22.62-23.42-2.12 8.67-3.76 17.46-6.07 26.08-0.9 3.04-1.45 6.28-0.16 9.28 0.31 21.41 16.87 38.54 5.64 59.03-5.77 3.68-11.36 8.05-17.65 10.75-15.22 0.02-30.44-0.11-45.65 0-17.22-1.46-33.91-6.21-49.67-13.29-5.39-8.38-8.8-17.86-13.91-26.41 1.32-15.56 6.56-30.96 10.94-46.02z" fill="#f6c709"/>
  <path d="m802.68 449.59c5.39-1.09 11.39-2.76 16.71-2.01 2.45 11.74 5.08 23.53 6.64 35.43-0.08 12.61-0.02 25.23-0.03 37.84-9.87 20.34-32.64 31.49-54.98 30.25-3.15 0.21-8.9 2.03-6.16-2.36 12.5-3.12 28.38-3.62 37.05-14.87 4.32-9.3 13.31-17.7 9.1-28.82 0.06-4.18-0.05-8.33-0.62-12.45 1.36-9.29-5.39-16.56-11-23-7.65-5.44 2.73-13.13 3.29-20.01z" fill="#f5c709"/>
  <path d="m459.78 454.62c3-1.2 6.13-0.75 9.22 0.12-3.12 0.08-6.17 0.46-9.22-0.12z" fill="#749192"/>
  <path d="m833.19 453.84c1.39 5.33 0.9 10.84-0.01 16.22-0.34-5.4-0.15-10.83 0.01-16.22z" fill="#302e1e"/>
  <path d="m443.23 455.98c2.53 0.01 5.07 0.03 7.62 0.05-0.19 1.75-7.5 1.65-7.62-0.05z" fill="#617878"/>
  <path d="m700.82 458.18c12.67 2.11 19.17 14.38 26.09 23.79-7 13.86-12.21 30.48-3.22 44.26 11.34 8.38 21.76 18.35 35.38 22.84 7.9 4.39-16.28 1.24-21.66 1.83-14.71 10.64-40.38-4.72-40.14-21.79 0.38-3.05 0.73-6.03 0.76-9.08 6.29-11.85 12.11-25.26 11.36-39.29-2.93-7.49-6.43-14.8-8.57-22.56z" fill="#f6c708"/>
  <path d="m659.04 472.16c1.04-4.79 5.19-9.93 8.1-12.9 5.06 16.93 2.72 38.8 14.06 54.52 3.68 4.92 0.96 11.46 0.51 17.07-0.39 2.93-0.62 5.95-0.72 8.93-8.92 7.86-19.11 19.37-29.83 24.01-19.3-1.8-38.76-0.34-58.12-0.79-14.93-2.8-44.38 0.39-43.82-21.67 0.51-8.17 2.19-16.71 0.05-24.76-0.25-15.28 14.52-26.76 7.68-43.54 0.19-3.81 0.46-7.61 0.82-11.39 10.01 2.51 23.75 13.69 16.5 24.64-1.89 4.55-3.11 9.39-5.54 13.72-1.39 3.64-0.93 7.53-0.09 11.23 0.33 2.56 0.45 5.15 0.37 7.77-0.05 3-0.67 6.27 0.68 9.12 7.44 16.82 22.34 24.55 37.87 32.33 23.27-0.41 43.36-16.1 49.45-38.39 5.15-15.17 0.31-33.63 2.03-49.9z" fill="#f7c807"/>
  <path d="m682.97 459.19c3.8 6.45 12.24 13.82 11.85 22.63-0.55 5.4-1.03 10.81-1.63 16.21-1.81 0.97-3.75 2.26-5.89 1.89-7.94-12.06-3-27.27-4.33-40.73z" fill="#346390"/>
  <path d="m533.97 469.18c0.77-2.92 1.87-7.06 5.01-8.31 10.16 13.43 4.78 34.81-4.06 46.28-1.97-12.54-0.51-25.33-0.95-37.97z" fill="#336290"/>
  <path d="m556.95 473.03c-1.87-0.74-2.2-14.64 0.82-11.39-0.36 3.78-0.63 7.58-0.82 11.39z" fill="#be9e1d"/>
  <path d="m532.83 504.04c1.06-11.24-1.31-25.35 1.14-34.86 0.44 12.64-1.02 25.43 0.95 37.97 1.23 3.35-8.33 2.11-2.09-3.11z" fill="#36516c"/>
  <path d="m457.08 472.05c31.82-9.62 53.15 40.36 32.35 64.26-5.63 11.5-21.43-0.69-29.2 6.77-2.91-13.23-22.54-4.26-24.45-16.86-1.71-6.48-8.26-12.7-5.63-19.59 1.73 6.57 4.58 12.78 7.74 18.77 5.61 2 14 0.03 16.93 6.64 10.51 6.68 33.78 0.53 32.37-16.9 7.41-20.69-9.41-42.14-30.11-43.09z" fill="#079235"/>
  <path d="m439.56 477.27c1.02-5.94 10.8-6.02 15.52-3.85-3.82 3.48-10.33-0.48-14 3.43-0.38 0.11-1.14 0.31-1.52 0.42z" fill="#118938"/>
  <path d="m457.08 472.05c20.7 0.95 37.52 22.4 30.11 43.09 1.41 17.43-21.86 23.58-32.37 16.9-2.93-6.61-11.32-4.64-16.93-6.64-3.16-5.99-6.01-12.2-7.74-18.77 2.22-9.95-2.39-24.42 9.41-29.36 0.38-0.11 1.14-0.31 1.52-0.42-0.61 1.42-1.26 2.83-2.02 4.18-6.3 3.03-4.69 11.09-6.36 16.81-4.79 21.89 21.89 31.97 39.43 27.65 12-13.62 8.83-35.28-3.63-47.13-8.91-2.49-18.31-1.67-27.42-1.51 3.67-3.91 10.18 0.05 14-3.43 0.5-0.34 1.5-1.03 2-1.37z" fill="#28a852"/>
  <path d="m657.01 522.06c4.16-15.23-2.92-37.89 2.03-49.9-1.72 16.27 3.12 34.73-2.03 49.9z" fill="#e7c32d"/>
  <path d="m751.26 478.05c9.26-11.02 37.2-3.47 44.76 9.28-0.02 11.1-0.03 22.21-0.01 33.32-14 18.5-39.38 17.37-56.11 4.43-1.21-5.85-13.68-9.71-8.09-16.06 8.1 22.13 43.63 29.95 56.9 8.2-0.37-9.17 2.24-19.08-0.72-27.89-8.55-10.57-23.91-13.33-36.73-11.28z" fill="#079234"/>
  <path d="m441.08 476.85c9.11-0.16 18.51-0.98 27.42 1.51 12.46 11.85 15.63 33.51 3.63 47.13-17.54 4.32-44.22-5.76-39.43-27.65-0.39 13.89 10.22 16.5 19.38 20.84 24.28 6.71 23.74-33.04 6.32-38.66-6.43-1.28-13.08-0.89-19.34 1.01 0.76-1.35 1.41-2.76 2.02-4.18z" fill="#50bc74"/>
  <path d="m751.26 478.05c12.82-2.05 28.18 0.71 36.73 11.28 2.96 8.81 0.35 18.72 0.72 27.89-13.27 21.75-48.8 13.93-56.9-8.2l0.27-0.76c2.49-10.78 9-18.93 16.01-27.11 0.65-1.36 1.35-3.14 3.17-3.1m3.3 4.4c-11.94 3.3-22.19 17.64-18.73 30.29 8.84 15.95 33.18 17.89 44.24 3.27 8.71-18.31-5.23-38.41-25.51-33.56z" fill="#28aa53"/>
  <path d="m606.24 478.14c12.73 3.36 31.46-0.36 37.71 14.91 0.63 15.65 3.83 36.42-13.55 44.31-9.17 13.48-24.36 5.88-36.72 1.99-11.7-9.98-20.56-33.66-6.78-44.5-13.12 16.85 0.46 42.5 21.67 42.71 11.31 4.85 18.61-9.74 27.15-14.83-1.92-11.68 5.92-25.1-4.14-34.41-7.4-7.6-18.84-4.03-28.23-6.22-0.71-1.68 1.88-2.85 2.89-3.96z" fill="#089035"/>
  <path d="m439.06 481.03c6.26-1.9 12.91-2.29 19.34-1.01 17.42 5.62 17.96 45.37-6.32 38.66-9.16-4.34-19.77-6.95-19.38-20.84 1.67-5.72 0.06-13.78 6.36-16.81m-3.13 10.07c-6.89 12.54 10.32 22.79 21.47 18.55 8.79-7.34 6.76-25.51-5.89-27.34-6.27-2.28-17.3 0.28-15.58 8.79z" fill="#78ce94"/>
  <path d="m732.08 508.26c-0.62-11.19 5.97-22.39 16.01-27.11-7.01 8.18-13.52 16.33-16.01 27.11z" fill="#14873b"/>
  <path d="m435.93 491.1c-1.72-8.51 9.31-11.07 15.58-8.79 12.65 1.83 14.68 20 5.89 27.34-11.15 4.24-28.36-6.01-21.47-18.55-3.65 11.61 19.61 17.74 17.65 3.5 2.65-10.24-16.65-14.5-17.65-3.5z" fill="#9fdeb6"/>
  <path d="m518.65 491.24c-1.29-3-0.74-6.24 0.16-9.28 0.01 3.05 0.32 6.21-0.16 9.28z" fill="#7b650a"/>
  <path d="m586.9 494.85c4.38-5.39 10.34-9.57 16.45-12.75 9.39 2.19 20.83-1.38 28.23 6.22 10.06 9.31 2.22 22.73 4.14 34.41-8.54 5.09-15.84 19.68-27.15 14.83-21.21-0.21-34.79-25.86-21.67-42.71m-1.07 6.67c-7.36 14.47 10.5 33.68 27.13 30.32 5.03-6.35 19.05-8.35 15.23-18.93 0.14-8.07 5-17.51-3.91-23.13-13.7-9.77-31.81-2.96-38.45 11.74z" fill="#27a852"/>
  <path d="m693.19 498.03c0.6-5.4 1.08-10.81 1.63-16.21-1.72 4.28 3.56 14.8-1.63 16.21z" fill="#11273b"/>
  <path d="m754.56 482.45c20.28-4.85 34.22 15.25 25.51 33.56-11.06 14.62-35.4 12.68-44.24-3.27-3.46-12.65 6.79-26.99 18.73-30.29m-11.54 12.52c-0.29 0.23-0.86 0.7-1.15 0.94-8.32 6.96-4.95 21.7 6.21 22.96 9.33 6.65 28.43-0.78 25.02-13.76 6.08-17.06-25.68-25.95-30.08-10.14z" fill="#50bc73"/>
  <path d="m826.03 483.01c1.09 9.9 2.44 28.29-0.03 37.84 0.01-12.61-0.05-25.23 0.03-37.84z" fill="#b59b2e"/>
  <path d="m435.93 491.1c1-11 20.3-6.74 17.65 3.5 1.96 14.24-21.3 8.11-17.65-3.5z" fill="#c5f1d4"/>
  <path d="m585.83 501.52c6.64-14.7 24.75-21.51 38.45-11.74 8.91 5.62 4.05 15.06 3.91 23.13 3.82 10.58-10.2 12.58-15.23 18.93-16.63 3.36-34.49-15.85-27.13-30.32-3.55 13.52 8.63 23.94 21.07 24.22 12.24-5.08 19-19.37 13.18-31.74-5.98-4.49-17.27-8.49-22.91-1.96-2.28 2.1-4.73 3.98-7.13 5.92-1.44 1.14-2.86 2.31-4.21 3.56z" fill="#51bc74"/>
  <path d="m743.02 494.97c4.4-15.81 36.16-6.92 30.08 10.14 3.41 12.98-15.69 20.41-25.02 13.76-11.16-1.26-14.53-16-6.21-22.96-12.64 16.52 13.76 27.86 23.44 15.14 6.86-14.36-11.02-26.5-22.29-16.08z" fill="#79cd94"/>
  <path d="m796.02 487.33c0.97 7.54 2.65 25.83-0.01 33.32-0.02-11.11-0.01-22.22 0.01-33.32z" fill="#135f2e"/>
  <path d="m597.17 492.04c5.64-6.53 16.93-2.53 22.91 1.96 5.82 12.37-0.94 26.66-13.18 31.74-12.44-0.28-24.62-10.7-21.07-24.22 1.35-1.25 2.77-2.42 4.21-3.56-9.69 10.95 8.65 28.76 18.47 17.52 13.64-8.2 3.57-28.12-11.34-23.44z" fill="#78cd94"/>
  <path d="m743.02 494.97c11.27-10.42 29.15 1.72 22.29 16.08-9.68 12.72-36.08 1.38-23.44-15.14 0.29-0.24 0.86-0.71 1.15-0.94m3.64 1.28c-8.36 4.07-5.97 16.92 3.92 15.69 13.02-0.66 7.43-20.01-3.92-15.69z" fill="#9edeb6"/>
  <path d="m597.17 492.04c14.91-4.68 24.98 15.24 11.34 23.44-9.82 11.24-28.16-6.57-18.47-17.52 2.4-1.94 4.85-3.82 7.13-5.92m0.41 4.35c-8.68 0.33-10.66 15.28-0.4 15.54 11.07 4.59 13.54-21.27 0.4-15.54z" fill="#9ddeb4"/>
  <path d="m810.39 492.6c0.57 4.12 0.68 8.27 0.62 12.45-2.68-2.09-0.64-8.77-0.62-12.45z" fill="#432b00"/>
  <path d="m597.58 496.39c13.14-5.73 10.67 20.13-0.4 15.54-10.26-0.26-8.28-15.21 0.4-15.54z" fill="#c6f1d4"/>
  <path d="m746.66 496.25c11.35-4.32 16.94 15.03 3.92 15.69-9.89 1.23-12.28-11.62-3.92-15.69z" fill="#c4f0d3"/>
  <path d="m568.64 511.23c-0.84-3.7-1.3-7.59 0.09-11.23 0.13 3.7 0.62 7.53-0.09 11.23z" fill="#644f04"/>
  <path d="m549.27 516.57c2.14 8.05 0.46 16.59-0.05 24.76-0.06-8.25-0.79-16.54 0.05-24.76z" fill="#c5a933"/>
  <path d="m569.01 519c3.05 1.08 0.38 6.47 0.68 9.12-1.35-2.85-0.73-6.12-0.68-9.12z" fill="#a38307"/>
  <path d="m697.27 529.11c0.67-2.54-1.78-7.69 0.76-9.08-0.03 3.05-0.38 6.03-0.76 9.08z" fill="#6d5706"/>
  <path d="m680.99 539.78c0.1-2.98 0.33-6 0.72-8.93-0.75 2.33 1.76 7.89-0.72 8.93z" fill="#967803"/>
  <path d="m759.07 549.07c1.92-0.07 3.85-0.21 5.79-0.33-2.74 4.39 3.01 2.57 6.16 2.36-8.27 0.78-26.05 2.74-33.61-0.2 5.38-0.59 29.56 2.56 21.66-1.83z" fill="#e8c42e"/>
  <path d="m533.08 551.24c5.4-1.54 2.39 5.76 7.75 6.85-5.78 6.11-11.05 3.35-7.75-6.85z" fill="#357"/>
  <path d="m686.77 552.15c16.07-2.95-0.77 13.19 0 0z" fill="#355b7f"/>
  <path d="m460.99 561.02c15.21-0.11 30.43 0.02 45.65 0-12.12 1.49-32.96 1.87-45.65 0z" fill="#967902"/>
  <path d="m593.04 563c19.36 0.45 38.82-1.01 58.12 0.79-18.84-0.45-41.01 1.76-58.12-0.79z" fill="#866a00"/>
  <path d="m722.86 566.48c-6.75-2.11 14.6-3.2 16.05-0.47-5.37-0.02-10.73-0.15-16.05 0.47z" fill="#3c514f"/>
  <path d="m796.28 565.98c0-1.75 7.51-1.63 7.4 0.14-2.49-0.07-4.95-0.11-7.4-0.14z" fill="#78080b"/>
  <path d="m722.86 566.48c5.32-0.62 10.68-0.49 16.05-0.47 6.26 0.13 12.6-0.49 18.86 0.26 4.69 0.57 9.5 1.06 14.26 0.68 0.74-0.05 2.22-0.14 2.96-0.19 2.02 8.62 0.18 17.57 1.57 26.29 4.06 4.95 10.04 8.71 13.38 14.05-18.94 2.44-37.77 6.17-56.89 6.9-4.16-0.18-8.29-0.04-12.36 0.59-3 0.36-5.87 0.84-8.79 1.45 8.32-11.63 20.86-21.27 15.09-37.08-0.23-3.01 0.86-6.21-0.54-9-1.2-1.17-2.46-2.26-3.59-3.48z" fill="#659696"/>
  <path d="m757.77 566.27c3.97 0.88 11.92-2.34 14.26 0.68-4.76 0.38-9.57-0.11-14.26-0.68z" fill="#162f2f"/>
  <path d="m787.88 572.4c1.33-2.57 4.83-6.55 8.4-6.42 2.45 0.03 4.91 0.07 7.4 0.14 8.48-0.76 14.9 2.59 12.24 11.59 3.81 16.73-12.22 12.13-22.46 12.38-2.36-0.65-4.89-3.26-5.52-5.62-0.03-4.04 0.02-8.05-0.06-12.07z" fill="#f60202"/>
  <path d="m803.68 566.12c10.09-5.25 18.27 3.91 12.24 11.59 2.66-9-3.76-12.35-12.24-11.59z" fill="#9b0d0c"/>
  <path d="m828.15 574.18c0.19-2.74 0.43-5.53 0.81-8.22-0.11 2.76-0.61 5.43-0.81 8.22z" fill="#4b4a32"/>
  <path d="m415.02 573.16c6.66-12.38 24.1-1.68 30.03 6.22-0.05 5.35-0.06 10.71-0.05 16.09-2.62 4.07-6.45 7.29-9.1 11.39-6.96-4.06-17.86-3.71-21.94-11.2-0.01-3.58 0.07-7.09 0.03-10.65 0.02-1.3 0.1-2.59 0.23-3.88 0.28-2.7 0.55-5.31 0.8-7.97z" fill="#f20303"/>
  <path d="m774.99 566.76c5.03 5.15 0.73 18.37 1.57 26.29-1.39-8.72 0.45-17.67-1.57-26.29z" fill="#182928"/>
  <path d="m679.99 580.24c8.08-14.96 35.92-11.26 37.86 5.58-1.49 3.24-1.87 6.78-1.77 10.36-5.79 16.88-40.39 12.57-36.9-7.16 0.4-2.95 0.84-5.82 0.81-8.78z" fill="#f30303"/>
  <path d="m726.45 569.96c1.4 2.79 0.31 5.99 0.54 9-3.22-0.97-0.46-6.44-0.54-9z" fill="#426061"/>
  <path d="m518.01 583.32c7.84-12.64 30.17-16.45 36.04 0.08-0.04 6.11-0.05 12.24-0.06 18.37-2.79 2.98-8.44 5.01-12.43 7.27-5.22-0.18-10.61 0.82-15.66-0.88-2.57-4.25-5.7-8.2-7.94-12.6-0.01-4.1 0.01-8.17 0.05-12.24z" fill="#f40302"/>
  <path d="m787.94 584.47c-1.21-0.08-2.35-11.45-0.06-12.07 0.08 4.02 0.03 8.03 0.06 12.07z" fill="#a11617"/>
  <path d="m414.22 581.13c0.27-2.4-1.45-6.93 0.8-7.97-0.25 2.66-0.52 5.27-0.8 7.97z" fill="#640101"/>
  <path d="m458.02 583.07c-7.77-16.17 14.1-3.92 22.72-5.78 3.07 0.32 6.23 0.8 9.36 0.74 4.54-2.47 12.46 4.03 15.26-1.32 1.71 8.69-0.62 17.81 1.31 26.4 5.85 7.63 19.35 16.81-0.56 12.86-4.47 0.25-9.23-1.03-13.45 0.86-4.66 0.35-9.52-0.77-14 0.89-13.42 2.66-21.41-5.81-35.48-3.61 3.12-11.08 14.15-19.28 14.84-31.04z" fill="#659696"/>
  <path d="m585.03 578.05c26.98 4.66 54.21 2.44 80.91-2.84 0.36 17.24 4.46 32.99 16.95 45-20.68 0.05-41.5-1.11-62.09 0.48-9.79-6.41-21.83 6.82-33.58 0.99-5.72-0.78-11.48-0.86-17.22-0.69-6.02-0.67-15.33 1.39-19.9-1.88 14.94-5.31 21.57-24.07 15.39-38.58-3.01-7.4 6.3-3.43 10.3-3.25 3.02 0.36 6.16 0.73 9.24 0.77z" fill="#659797"/>
  <path d="m505.36 576.71c3.91 0.71 0.83 19.63 1.31 26.4-1.93-8.59 0.4-17.71-1.31-26.4z" fill="#1e2f30"/>
  <path d="m480.74 577.29c2.57 0.66 7.86-1.84 9.36 0.74-3.13 0.06-6.29-0.42-9.36-0.74z" fill="#2b4040"/>
  <path d="m575.79 577.28c2.5 0.68 7.84-1.83 9.24 0.77-3.08-0.04-6.22-0.41-9.24-0.77z" fill="#293d3f"/>
  <path d="m793.46 590.09c10.24-0.25 26.27 4.35 22.46-12.38-1.18 4.04 2.51 10.28-1.24 13.35-7.22-0.04-14.43-0.09-21.63-0.11l0.41-0.86z" fill="#b41515"/>
  <path d="m445.05 579.38c1.2 1.21 2.37 15.24-0.05 16.09-0.01-5.38 0-10.74 0.05-16.09z" fill="#880001"/>
  <path d="m679.18 589.02c0.7-2.36-1.59-7.76 0.81-8.78 0.03 2.96-0.41 5.83-0.81 8.78z" fill="#7f0d0b"/>
  <path d="m517.96 595.56c-1.27-0.35-2.41-11.37 0.05-12.24-0.04 4.07-0.06 8.14-0.05 12.24z" fill="#981212"/>
  <path d="m554.05 583.4c0.99 2.54 2.62 15.32-0.06 18.37 0.01-6.13 0.02-12.26 0.06-18.37z" fill="#5d0404"/>
  <path d="m413.96 595.66c-1.15 0.54-2.7-10.56 0.03-10.65 0.04 3.56-0.04 7.07-0.03 10.65z" fill="#7d0a0b"/>
  <path d="m716.08 596.18c-0.1-3.58 0.28-7.12 1.77-10.36-0.2 3.22 0.73 8.38-1.77 10.36z" fill="#840809"/>
  <path d="m793.05 590.95c7.2 0.02 14.41 0.07 21.63 0.11-3.45 0.91-17.67 2.71-21.63-0.11z" fill="#470000"/>
  <path d="m525.9 608.16c5.05 1.7 10.44 0.7 15.66 0.88-1.39 0.28-14.67 3.94-15.66-0.88z" fill="#8f0204"/>
  <path d="m720.69 614.59c4.07-0.63 8.2-0.77 12.36-0.59-2.14 2.59-8.72 0.63-12.36 0.59z" fill="#50696a"/>
  <path d="m492.66 616.83c4.22-1.89 8.98-0.61 13.45-0.86-2.55 2.47-9.2 0.81-13.45 0.86z" fill="#465f5f"/>
  <path d="m478.66 617.72c4.48-1.66 9.34-0.54 14-0.89-1.77 2.28-9.6 1.23-14 0.89z" fill="#173031"/>
  <path d="m620.8 620.69c20.59-1.59 41.41-0.43 62.09-0.48-18.65 1.7-41.77 0.64-62.09 0.48z" fill="#334848"/>
  <path d="m570 620.99c5.74-0.17 11.5-0.09 17.22 0.69-4.74-0.93-14.37 2.66-17.22-0.69z" fill="#4f7171"/>
  <path d="m452.3 626.99c-0.1-1.67 7.17-1.77 7.74 0.01-2.6-0.02-5.18-0.03-7.74-0.01z" fill="#ae9014"/>
  <path d="m449.97 628.29c0.58-0.32 1.75-0.98 2.33-1.3 2.56-0.02 5.14-0.01 7.74 0.01 1.89-0.06 3.81 0.03 5.7 0.24 3.34 0.39 6.74 0.8 10.12 0.99 4.18 0.44 8.41 0.76 12.63 0.71 1.58 1.41 4.06 2.88 3.58 5.35-0.14 14.91-0.06 29.83-0.1 44.75-1.38 17.61 13.5 27.76 24.95 38.38 5.2 0.76 10.47 0.68 15.73 0.78 4.11 0.5 8.27 0.83 12.43 0.82 7.6 0.08 19.26-1.65 17.36 9.79 4.64 9.59-6.87 11.79-12.35 16.18-26.77 1.34-60.84-0.25-73.17-29.03-2.78-21.08 0.94-43.38-1.71-63.96-5.35-3.33-8.15-10.62-14.46-11.96-3.06-1.2-9.41 2.17-10.84-2.29-0.07-3.2 0.02-6.29 0.06-9.46z" fill="#f9c905"/>
  <path d="m465.74 627.24c2.42 0.81 9.01-1.9 10.12 0.99-3.38-0.19-6.78-0.6-10.12-0.99z" fill="#76610b"/>
  <path d="m683.98 643.2c14.27-15.93 38.76-16.48 58.91-15.27 2.18-0.53 2.7 1.81 3.23 3.41 1.43 4.54-0.12 7.17-4.35 7.47-3.91 0.6-7.89 1-11.82 1.16-2.68 0.2-5.7-0.83-7.97 0.74-11.63 9.16-15.49 23.53-18.78 37.16 6.23 17.56 7.14 36.77-0.36 53.98-8.96 4.88-16.83 13.89-26.7 15.95-4.66-0.5-9.27-0.86-13.93-0.99-2.85-0.47-5.61-0.77-8.44-0.85-17.26 1.54-43.36-11.7-31.01-32.15 13.4 1.02 27.12 12.9 40.99 5 5.95-7.02 12.03-13.94 18.38-20.6 0.3-0.33 0.9-1 1.2-1.33 1.65-17.69 0.21-35.82 0.65-53.68z" fill="#f8c905"/>
  <path d="m450.01 640.65c-1.33-0.25-2.46-11.68-0.04-12.36-0.04 3.17-0.13 6.26-0.06 9.46 0.03 0.73 0.08 2.18 0.1 2.9z" fill="#927d1f"/>
  <path d="m475.86 628.23c2.87 0.74 12.26-2.06 12.63 0.71-4.22 0.05-8.45-0.27-12.63-0.71z" fill="#c4a31d"/>
  <path d="m508.96 688.6c-1.64-16.95-1.54-42.02-0.09-59.56 0.25 19.85 0.12 39.7 0.09 59.56z" fill="#24230e"/>
  <path d="m746.12 631.34c2.94 2.14 1.26 10.34-4.35 7.47 4.23-0.3 5.78-2.93 4.35-7.47z" fill="#978023"/>
  <path d="m492.07 634.29c1.52 12.11 1.7 32.1-0.1 44.75 0.04-14.92-0.04-29.84 0.1-44.75z" fill="#caae3b"/>
  <path d="m531.42 634.41c2.73-0.23 5.61-0.73 8.35-0.05-2.66 1.24-5.6 0.35-8.35 0.05z" fill="#6f6f53"/>
  <path d="m574.96 636.1c5.93-2.95 18.04-3.23 24.15-0.13-8.03-0.6-16.18-1.56-24.15 0.13z" fill="#b99a23"/>
  <path d="m639.2 634.36c4.89-0.36 9.88-0.71 14.79-0.09-4.9 0.82-9.91 0.87-14.79 0.09z" fill="#6f6f54"/>
  <path d="m664.09 634.4c0.83-0.23 10.78-1.21 7.74 0.52-2.57-0.17-5.21-0.39-7.74-0.52z" fill="#696b52"/>
  <path d="m574.96 636.1c7.97-1.69 16.12-0.73 24.15-0.13 2.89 0.05 5.9-0.07 8.84 0.12 0.07 6.23 0.13 12.49-0.14 18.74-1.75 13.98-0.44 28.13-0.84 42.19 0.03 7.92 0.07 15.85-0.13 23.78-1.01 5.89-0.94 11.9-0.82 17.87-0.69 8.68-9.16 9.75-16.58 9.29-14.64-6.56-12.37-24.73-14.46-37.92 0.04-24.65 0.04-49.3-0.02-73.94z" fill="#fbca03"/>
  <path d="m574.98 710.04c-1.34-22.23-2.06-52.04-0.02-73.94 0.06 24.64 0.06 49.29 0.02 73.94z" fill="#d4b123"/>
  <path d="m607.95 636.09c1.05 4.32 2.89 18.8 0.02 22.71-0.08-1.33-0.13-2.65-0.16-3.97 0.27-6.25 0.21-12.51 0.14-18.74z" fill="#9c8221"/>
  <path d="m449.91 637.75c1.43 4.46 7.78 1.09 10.84 2.29-2.6 1.33-6.18 1.53-10.74 0.61-0.02-0.72-0.07-2.17-0.1-2.9z" fill="#dec041"/>
  <path d="m669.78 646.29c-0.87-2.4-2.39-6.26-0.11-8.24 0.37 2.72 0.47 5.5 0.11 8.24z" fill="#6c6d4e"/>
  <path d="m721.98 640.71c2.27-1.57 5.29-0.54 7.97-0.74-1.09 2.31-5.56 0.58-7.97 0.74z" fill="#534100"/>
  <path d="m682.13 698.21c0.89-17.64-2.13-39.33 0.91-55.19 0.08 17.95-0.41 35.91 0.29 53.86-0.3 0.33-0.9 1-1.2 1.33z" fill="#362000"/>
  <path d="m683.04 643.02l0.94 0.18c-0.44 17.86 1 35.99-0.65 53.68-0.7-17.95-0.21-35.91-0.29-53.86z" fill="#eac83f"/>
  <path d="m475.21 652c2.65 20.58-1.07 42.88 1.71 63.96-4.62-18.59-0.77-43.24-1.71-63.96z" fill="#e5c743"/>
  <path d="m606.97 697.02c0.4-14.06-0.91-28.21 0.84-42.19 0.03 1.32 0.08 2.64 0.16 3.97 0.01 12.73 0.13 25.46 0 38.19l-1 0.03z" fill="#edc82e"/>
  <path d="m671.02 675.03c1.34 0.08 2.57 10.87 0.02 10.86-0.06-3.61-0.11-7.28-0.02-10.86z" fill="#585741"/>
  <path d="m716.16 704.22c-0.22-6.17-0.46-12.38 0.67-18.47 0.22 6.16 0.48 12.35-0.67 18.47z" fill="#3d3c26"/>
  <path d="m606.97 697.02l1-0.03c-1.19 7.19 2.36 19.84-1.09 24.8l-0.04-0.99c0.2-7.93 0.16-15.86 0.13-23.78z" fill="#674d00"/>
  <path d="m516.92 717.42c4.39 0.32 13.48-2.13 15.73 0.78-5.26-0.1-10.53-0.02-15.73-0.78z" fill="#453200"/>
  <path d="m532.65 718.2c3.13 1.2 10.87-2.65 12.43 0.82-4.16 0.01-8.32-0.32-12.43-0.82z" fill="#957602"/>
  <path d="m606.02 738.67c-0.12-5.97-0.19-11.98 0.82-17.87l0.04 0.99c-0.92 4.33 2.16 14.86-0.86 16.88z" fill="#ae952a"/>
  <path d="m653.77 745.96c2.83 0.08 5.59 0.38 8.44 0.85-2.63-0.24-6.89 1.45-8.44-0.85z" fill="#866f13"/>
  <path d="m662.21 746.81c4.66 0.13 9.27 0.49 13.93 0.99-3.78-0.94-12.18 2.28-13.93-0.99z" fill="#402c00"/>
  <path d="m615.12 749.21c11.6 4.05 23.54 11.06 35.23 12.97 16.4-3.08 6.66 13.28 8.38 21.8-26.62 7.28-54.28 8.63-81.63 11.07-18.58-3.81-37.34-6.29-55.85-10.37-15.19 3.04-7.9-17.68-10.23-25.61 14.32-0.87 29.01 1.26 43.14-0.75 14.92-16.35 25.72 8.48 41.6 4.8 9.28 1.12 13.05-9.09 19.36-13.91z" fill="#659696"/>
  <path d="m497.36 754.95c1.28 2.9 0.37 6.06 0.41 9.15-1.11-2.93-0.69-6.14-0.41-9.15z" fill="#59593f"/>
  <path d="m511.02 759.07c12.36-2.28 29.1-0.88 43.14-0.75-14.13 2.01-28.82-0.12-43.14 0.75z" fill="#152d2d"/>
  <path d="m670.13 782.25c-0.07-3.14 0.28-6.34 0.73-9.4 0.02 3.16-0.33 6.23-0.73 9.4z" fill="#505035"/>
  <path d="m523.68 799.6c19.82-0.34 35.93 12.97 52.4 22.33 15.97 7.86 34.24 9.09 51.13 13.08 4.62 1.6 10.01 0.44 14.81 1.97 11.18 7.91 21.97 35.38 3.62 39.1-15.19-0.12-30.37-0.12-45.55-0.06-34.67-11.06-76.78-15.89-96.04-51.27 2.28-11.85 7.78-21.38 19.63-25.15z" fill="#fac904"/>
  <path d="m618.21 806.37c6.25-1.44 12.04-5.33 18.6-5.12 3.42 0.78 6.86 0.78 10.32 0 0.47 0.21 1.42 0.62 1.89 0.83-0.03 5.12-0.03 10.31 0 15.47-1.86 2.61-3.32 7.41-7.75 5.18-19.99-4.38-41.65-2.91-60-13.2-11.5-1.9 4.65-1.73 7.62-1.5 4.12 0 8.4 0.25 12.46-0.81 5.58-0.45 11.35 0.43 16.86-0.85z" fill="#f5c70b"/>
  <path d="m636.81 801.25c3.39-0.21 6.9-0.38 10.32 0-3.46 0.78-6.9 0.78-10.32 0z" fill="#6b5704"/>
  <path d="m649.02 802.08c1.49 1.64 2.13 14.6 0 15.47-0.03-5.16-0.03-10.35 0-15.47z" fill="#937502"/>
  <path d="m601.35 807.22c2.63-2.63 11.83-0.96 16.86-0.85-5.51 1.28-11.28 0.4-16.86 0.85z" fill="#523a00"/>
  <path d="m588.89 808.03c2.15-2.74 8.71-0.53 12.46-0.81-4.06 1.06-8.34 0.81-12.46 0.81z" fill="#947b1b"/>
  <path d="m627.21 835.01c4.2 1.25 12.55-2.74 14.81 1.97-4.8-1.53-10.19-0.37-14.81-1.97z" fill="#e5c339"/>
  <path d="m513.57 855.45c19.47 9.92 39.6 18.47 59.37 27.72 16.64 2.1 33.14 5.28 49.83 7.08 2.99 0.29 6.08 0.73 9.12 0.98 2.7 0.24 5.5 0.76 8.27 0.77 17.92 4.67 25.15 40.47 2.47 46.04-9.52-0.08-19.02-0.03-28.52-0.04-19.25-6.09-38.16-13.78-57.63-19.46-19.63-6.55-41.96-13.59-52.46-33.06-0.02-6.98-0.03-13.95-0.1-20.91 2.99-3.26 6.05-6.53 9.65-9.12z" fill="#eabc04"/>
  <path d="m504.02 885.48c-1.2-2.51-2.4-18.63-0.1-20.91 0.07 6.96 0.08 13.93 0.1 20.91z" fill="#403000"/>
  <path d="m600.09 876.02c15.18-0.06 30.36-0.06 45.55 0.06l0.36 0.89c-15 0.06-29.99-0.01-44.98 0.04-0.24-0.25-0.7-0.74-0.93-0.99z" fill="#e7c63f"/>
  <path d="m601.02 877.01c14.99-0.05 29.98 0.02 44.98-0.04-12.72 1.75-32.31 1.7-44.98 0.04z" fill="#2e1a00"/>
  <path d="m622.77 890.25c2.38 0.61 8.04-1.78 9.12 0.98-3.04-0.25-6.13-0.69-9.12-0.98z" fill="#6d5400"/>
  <path d="m631.89 891.23c2.56 0.17 6.76-1.48 8.27 0.77-2.77-0.01-5.57-0.53-8.27-0.77z" fill="#b0972c"/>
  <path d="m506.35 949.51c-5.58-13.23-7.47-33.52 9.04-33.95 35.18 14.51 70.89 27.41 107.53 37.74 5.87 0.98 11.85 0.76 17.79 0.65 12.85 10.19 24.5 44.1 1.56 47.85-4.02-0.4-8.01-0.8-12.02-1-6.72-0.96-13.48-0.98-20.23-0.82-9.52 0.32-19.61 1.02-28.2-3.85-27.75-11.42-58.07-20.23-75.47-46.62z" fill="#eabc03"/>
  <path d="m614.11 938c9.5 0.01 19-0.04 28.52 0.04-6.06 0.83-22.04 2.78-28.52-0.04z" fill="#7f6915"/>
  <path d="m622.92 953.3c4.72 0.86 15.28-2.55 17.79 0.65-5.94 0.11-11.92 0.33-17.79-0.65z" fill="#a18826"/>
  <path d="m505 976.18c1.98-0.98 4.3-2.65 6.57-1.83 14.53 9.81 28.58 21.6 46.43 24.63 21.94 8.42 44.11 16.12 67.12 20.82 17.57-8.7 28.76 16.4 34.95 29.5-0.16 4.6 0.25 9.4-0.79 13.9-6.36 3.8-13.86 9.6-22 8.6-7.79-0.5-16.07-2.4-23.68 0-2.87 0-5.63 0.2-8.45 0.2-31.01-11.9-65.07-19.8-89.9-43.3-11.71-14.1-32.26-32.62-17.86-51.7 2.52-0.17 5.37 0.72 7.61-0.82z" fill="#dcb103"/>
  <path d="m497.39 977c0.4-2.18 5.39-0.54 7.61-0.82-2.24 1.54-5.09 0.65-7.61 0.82z" fill="#94760e"/>
  <path d="m663.24 1001.9c-0.24-3.29 0.01-6.7 0.58-9.95 0.19 3.35 0.01 6.63-0.58 9.95z" fill="#50513e"/>
  <path d="m610.02 999.98c6.75-0.16 13.51-0.14 20.23 0.82-5.9-0.93-16.24 2.3-20.23-0.82z" fill="#91791d"/>
  <path d="m630.25 1000.8c4.01 0.2 8 0.6 12.02 1-2.71-1.2-11.47 2.4-12.02-1z" fill="#4e3800"/>
  <path d="m515.5 1044.4c29.42 18.6 62.15 30.8 94.47 42.6 8.34 6 22.19-3.1 29.31 6.9 8.92 10.4 22.92 17.7 23.43 32.8-1.88 6.1-2.6 12.4-4.4 18.5-8.26 5.3-18.44 8.1-28.02 9.3-13.14-6.7-29.18-9-40.36-18.9-2.63-0.9-5.34-0.5-8.02-0.6-17.39-1.3-30.99-14.9-46.91-21-14.86-5.2-25.25-17-34.98-28.8-6.94-7.8-5.86-21.3-2.11-30.5 5.7-3.7 11.52-7.3 17.59-10.3z" fill="#ddb103"/>
  <path d="m660.07 1049.3c0.72 1.6 3.23 12.3-0.79 13.9 1.04-4.5 0.63-9.3 0.79-13.9z" fill="#c5aa39"/>
  <path d="m494.95 1056.3c0.8-0.9 1.78-1.4 2.96-1.6-3.75 9.2-4.83 22.7 2.11 30.5-2.08-0.8-4.85-2.1-5.07-4.5 0.03-8.2 0.1-16.3 0-24.4z" fill="#c6a82e"/>
  <path d="m494.95 1080.7c-1.65-4.9-1.67-19.4 0-24.4 0.1 8.1 0.03 16.2 0 24.4z" fill="#392600"/>
  <path d="m613.6 1071.8c7.61-2.4 15.89-0.5 23.68 0-7.9 0.2-15.8 0.5-23.68 0z" fill="#957a09"/>
  <path d="m605.15 1072c2.82 0 5.58-0.2 8.45-0.2 1.44 1.8-8.48 2.1-8.45 0.2z" fill="#463600"/>
  <path d="m609.97 1087c0.69 0.1 2.06 0.2 2.74 0.3 6.06 0.3 12.56 2.1 18.49-0.1 3.64-0.3 6.57 3.7 8.08 6.7-7.12-10-20.97-0.9-29.31-6.9z" fill="#c5a523"/>
  <path d="m612.71 1087.3c6.14-0.3 12.34-0.7 18.49-0.1-5.93 2.2-12.43 0.4-18.49 0.1z" fill="#4a3900"/>
  <path d="m520.26 1176.7c-24.52-9.3-42.25-53.2-9.42-63.7 17.45 9 32.91 22 50.86 30.3 15.91 5.5 33.18 8.6 47.25 18.1 2.64 0.2 5.39 0.6 8.09 0.6 9.3 1 18.89 1.2 28.02 2.8 5.82 8.3 15.69 14.6 19.97 23.4-0.06 8.2 0.04 16.4-0.08 24.6-7.41 4.3-17.78 7.7-26.19 12.1-42.6-6.9-80.73-28.5-118.5-48.2z" fill="#d2a903"/>
  <path d="m483.79 1148c-2.51-6.9-0.33-14.8-0.14-22 0.25 7.3 0.35 14.6 0.14 22z" fill="#46482e"/>
  <path d="m581.91 1135c2.68 0.1 5.39-0.3 8.02 0.6-2.47 0-6.63 1.7-8.02-0.6z" fill="#8c7306"/>
  <path d="m608.95 1161.4c2.48 0.1 6.79-1.7 8.09 0.6-2.7 0-5.45-0.4-8.09-0.6z" fill="#917c24"/>
  <path d="m495.99 1192.2c1.69-3.9 6.56-6.5 10.06-9.1 44.09 23.1 88.45 49.5 139.47 52 7.83 7.3 18.48 16.1 22.27 25.8-1.07 6.8-0.91 13.7-0.71 20.7-7.82 2.2-15.6 6.4-23.86 6.2-2.74-0.5-5.38-0.7-8.09-1-5.98-1-12.01-0.9-18.01-0.8-31.99-10.9-65.33-20.9-93.06-41.1-13.25-4.2-21.09-15.1-27.04-26.9-1.49-8.5-1.06-17.2-1.03-25.8z" fill="#d2a903"/>
  <path d="m665.03 1188.2c1.7 5.4 1.72 19.2-0.08 24.6 0.12-8.2 0.02-16.4 0.08-24.6z" fill="#7c6301"/>
  <path d="m483.67 1214c-2.17-7-0.33-14.7-0.08-21.9 0.36 7.3 0.42 14.6 0.08 21.9z" fill="#474830"/>
  <path d="m494.93 1215.8c-0.87-4.8-2.79-18.8 0.13-23.8-0.07 7.9 0 15.8-0.13 23.8z" fill="#372500"/>
  <path d="m495.06 1192l0.93 0.2c-0.03 8.6-0.46 17.3 1.03 25.8-1.42 0-2.12-0.8-2.09-2.2 0.13-8 0.06-15.9 0.13-23.8z" fill="#c1a42e"/>
  <path d="m504.25 1249.2c46.49 22.3 92.7 48.9 145.29 52 6.44 8.1 18.08 16.7 12.41 28.4-4.98 4.5-9.34 9.7-13.89 14.5-8.76 1.2-17.98-0.4-26.83-1.4-3.44-0.5-6.82-0.9-10.27-0.7-22.18 0.2-42.12-11.8-62.87-18-14.9-16.1-38.75-24.9-46.21-46.9-6.72-8.1-5.56-21.1 2.37-27.9z" fill="#c39c03"/>
  <path d="m667.08 1281.6c-0.2-7-0.36-13.9 0.71-20.7-0.4 6.1 1.6 17-0.71 20.7z" fill="#6e5701"/>
  <path d="m617.12 1286c6-0.1 12.03-0.2 18.01 0.8-4.94-1-15.11 2.6-18.01-0.8z" fill="#917a23"/>
  <path d="m635.13 1286.8c2.71 0.3 5.35 0.5 8.09 1-2.43-0.3-7.28 1.4-8.09-1z" fill="#5b4501"/>
  <path d="m503.97 1317.2c0.93-2.5 5.03-3.1 7.1-5.1 34.14 18.3 66.84 42.4 106.72 46.2 2.79 0.3 6 1.7 8.53-0.2 8.54-0.1 17.1-0.2 25.65 0 5.53 16.5-14.33 23.8-27 23.9-16.52 0.6-33.22 9.4-49.52 3.5-24.21-8.1-58.15-5-71.48-30.9 0.02-12.4 0.07-24.9 0-37.4z" fill="#c39b03"/>
  <path d="m503.97 1354.6c-1.08-8.9-2.43-28.3 0-37.4 0.07 12.5 0.02 25 0 37.4z" fill="#352800"/>
  <path d="m492.07 1320.7c2.97 11.4-0.14 23.7 0.71 35.3-2.72-11.2 0.28-23.7-0.71-35.3z" fill="#3c3928"/>
  <path d="m610.96 1342c3.45-0.2 6.83 0.2 10.27 0.7-2.64-1-8.79 2-10.27-0.7z" fill="#4f4003"/>
  <path d="m626.32 1358.1c5.16-1.5 20.08-2.4 25.65 0-8.55-0.2-17.11-0.1-25.65 0z" fill="#342500"/>
  <path d="m617.79 1358.3c2.82-0.3 5.68-0.4 8.53-0.2-2.53 1.9-5.74 0.5-8.53 0.2z" fill="#785d01"/>
  <path d="m659.49 1383.3c23.22 5.6 39.02 30.2 36.95 54-6.12 15.6-9.61 32.1-15.42 47.8 5.57 16.9 19.24 28.7 31.42 41 3.05 6.4-2.58 10.9-6.72 14.7-14.43-3.1-30.95-1.4-42.72-11.8-7.74-4.9-19.6-9.7-17.77-20.7 0.48-3.8 0.76-7.6 0.83-11.4 0-3.7-0.01-7.3-0.1-10.9 10.65-15.5 12.76-37.9 14.34-57.8-0.46-3.3 2.6-8.5-0.12-11.1-8.76-5.7-15.54-14.5-26.31-16.1-4.34-2.4-11.26-2.1-3.74-6 10-3.2 20.44-6.4 29.36-11.7z" fill="#f9c905"/>
  <path d="m489.01 1408.7c8.41-29.2 45.38-21.6 65.48-10.2 1.83 7.1-9.61 3.3-13.61 5.3-9.14 5.7-17.91 12.2-27.1 18-4.01 9.5-5.8 20.2-3.79 30.4 0.56 4.1-1.38 9 0.75 12.9 5.86 8.6 9.04 18.7 14.9 27.3 7.32 30-25.02 58.2-53.67 47.7 5.86-14.4 10.64-29.9 25.19-38.2 1.52-11 1.46-23.6-0.04-34.8-3.7-6.5-6.8-13.4-10.01-20.2-0.5-12.6-2.38-26.2 1.9-38.2z" fill="#f8c805"/>
  <path d="m615.22 1401.9c-0.31-6 9.93-5.9 14.91-6.9-7.52 3.9-0.6 3.6 3.74 6-6.51-1.3-12.25 0.9-18.65 0.9z" fill="#dfb920"/>
  <path d="m568.02 1425c-0.05-4.9-6.33-31.2 4.98-25.1-10.91-0.4-2.93 17.3-4.98 25.1z" fill="#554506"/>
  <path d="m568.02 1425c2.05-7.8-5.93-25.5 4.98-25.1 2.95-0.1 6.01-0.1 9 0.1l-0.01 1c-18.97-6.8-12.06 12.8-12.97 24h-1z" fill="#eec82b"/>
  <path d="m582 1400c2.02 0.6 8.53-1.4 8.69 1.1-2.95-0.1-5.79 0-8.7-0.1l0.01-1z" fill="#644700"/>
  <path d="m569.02 1425c0.91-11.2-6-30.8 12.97-24 2.91 0.1 5.75 0 8.7 0.1 16.21-1.9 5.58 20.1 8.19 29.7l-0.09 1c-1.76 16.3-0.38 32.8-0.82 49.2-0.04 12.2 0.18 24.5-0.13 36.7-1.92 10.8 0.24 21.8-1.58 32.6-13.89 12.1-26.09-7-27.01-19.1 0.4-4.1 0.77-8.1 0.8-12.2-1.19-15 1.89-30.7-0.94-45.3-0.27-16.3-0.04-32.5-0.09-48.7z" fill="#fbca03"/>
  <path d="m590.69 1401.1c17.62-5.7 7.05 22.8 8.19 29.7-2.61-9.6 8.02-31.6-8.19-29.7z" fill="#a98d13"/>
  <path d="m485.94 1412.3c-0.24-1.8 1.98-2.5 3.07-3.6-4.28 12-2.4 25.6-1.9 38.2-2.13-0.9-2.11-4.5-1.89-6.7 1.32-9.2 0.78-18.6 0.72-27.9z" fill="#e1bc29"/>
  <path d="m485.22 1440.2c0.77-8.2-2.22-22 0.72-27.9 0.06 9.3 0.6 18.7-0.72 27.9z" fill="#342500"/>
  <path d="m660.18 1417.1c2.72 2.6-0.34 7.8 0.12 11.1-0.24-3.8-0.51-7.4-0.12-11.1z" fill="#907202"/>
  <path d="m615.23 1421.8c2.09 26.2-0.02 52.8 0.84 79.2-2.31-24.4-0.74-53.2-0.84-79.2z" fill="#4a4a3f"/>
  <path d="m568.02 1425h1c0.05 16.2-0.18 32.4 0.09 48.7-2.49-13.6-0.55-32.9-1.09-48.7z" fill="#a28206"/>
  <path d="m524.97 1467.7c-1.14-8.9-2.35-28.7-0.02-37.3 0.08 12.4 0.05 24.8 0.02 37.3z" fill="#252410"/>
  <path d="m597.97 1481c0.44-16.4-0.94-32.9 0.82-49.2 0.38 16.4 0.22 32.8 0.18 49.2h-1z" fill="#e7c745"/>
  <path d="m509.99 1452.2c2.52 2 0.67 8.8 0.75 12.9-2.13-3.9-0.19-8.8-0.75-12.9z" fill="#b3992d"/>
  <path d="m551.99 1476c-0.18-7.2-0.26-14.3 0.74-21.3-0.43 6.5 1.9 16.5-0.74 21.3z" fill="#56564c"/>
  <path d="m497.12 1467.1c1.5 11.2 1.56 23.8 0.04 34.8-0.04-0.7-0.12-2.1-0.15-2.9-0.03-9 0.05-18.1-0.01-27.1-0.01-1.6 0.02-3.2 0.12-4.8z" fill="#e0bd2e"/>
  <path d="m497.01 1499c-1.17-6.5-2.58-20.7-0.01-27.1 0.06 9-0.02 18.1 0.01 27.1z" fill="#533a00"/>
  <path d="m569.11 1473.7c2.83 14.6-0.25 30.3 0.94 45.3h-1c-0.03-15.1-0.25-30.2 0.06-45.3z" fill="#e8c748"/>
  <path d="m597.97 1481h1c-0.79 11.5 1.76 27.4-1.13 36.7 0.31-12.2 0.09-24.5 0.13-36.7z" fill="#6a5502"/>
  <path d="m645.08 1497c-0.76-4.5-0.47-8.2 0.88-11 0.09 3.6 0.1 7.2 0.1 10.9l-0.98 0.1z" fill="#433100"/>
  <path d="m645.08 1497l0.98-0.1c-0.07 3.8-0.35 7.6-0.83 11.4-0.15-3.9-0.46-7.5-0.15-11.3z" fill="#caad3a"/>
  <path d="m613.06 1523c-3.92-9 15.93-13.9 18-4 11.4 23.2 38.65 30.8 61.41 36.5 7.49-2.5 15.24-3.9 23.06-4.7 4.05-10.5 18.11-20.2 8.36-31.7 23.98 11.9 51.69 10.5 74.52 24.5 18.63 8.2 37.13 16.7 55.49 25.4 4.51 1.1 4.21 9.3 9.69 7.6 4.13-2.5 5.04 4.8 3.62 6.8-10.82-1.5-17.19 8.7-26 12.8-33.62 10.8-68.4 16.5-101.77 26.3-31.31-0.8-62.3 7-93.53 9.5-17.07 0.4-34.2-0.9-51.21 0.7-17.56 0.7-35.14 0.1-52.71 0.3-11.07 0.6-22.44-1.3-33.34 0.7-5.39 0.8-10.94 0.3-16.35 0-6.06-0.8-12.17-0.9-18.26-0.7-9.65-0.2-19.26-1.3-28.84-2.3-2.82-0.4-5.55-0.7-8.36-0.7-6.24 0.4-12.42-0.6-18.6-1.3-3.13-0.5-6.19-0.7-9.32-0.7-23.79-0.9-46.49-9.9-68.97-16.9-8.6-1.9-12.02-10.6-17.67-16.3 6.67-16.2 25.79-20.5 38.47-31.1 31.88-10 63.29-22.6 96.28-28.6-1.77 11.5 10.7 14.3 17.51 20.6 12.34-1 24.28-5 36.51-6.6 6.7-9.1 15.42-16.6 22.98-25.1 5.8-8.2 25.3-9.9 20.93 4.9-0.14 2.7-0.24 5.7 0.7 8.5-1.92 28.7 42.48 43.6 54.7 14.6 0.25-2.8 0.58-5.3 0.71-8 0.1-3.7 0.64-7.2 1.25-10.8 0.36-3.5 0.94-6.8 0.74-10.2m-183.99 29c-4.86 0.5-9.75 1.5-14.37 3-7.87-0.9-14.97 3.2-22.62 4.1-16.81 4.1-34.44 12.7-44.99 27 12.21 16.9 34.17 14.8 52.28 20.5 42.21 1.3 82.36 4.7 124.99 2.7 11.36-3.7 25.99-7.1 36.27-9.1 0.45-6.4-2.7-11.9-1.76-18.5-30.12-9.7-60.59-15.4-91.35-19.3-14.19 1.7-24.85-21.2-38.45-10.4z" fill="#659797"/>
  <path d="m596.26 1550.3c1.82-10.8-0.34-21.8 1.58-32.6-1.54 9.9 3.41 25.1-1.58 32.6z" fill="#be9c17"/>
  <path d="m569.05 1519h1c-0.03 4.1-0.4 8.1-0.8 12.2-0.26-4-0.33-8.1-0.2-12.2z" fill="#604a00"/>
  <path d="m612.32 1533.2c0.84-2.7-1.99-8.6 0.74-10.2 0.2 3.4-0.38 6.7-0.74 10.2z" fill="#355152"/>
  <path d="m554.96 1528.9c2.34 1.2 0.69 5.9 0.7 8.5-0.94-2.8-0.84-5.8-0.7-8.5z" fill="#355350"/>
  <path d="m610.36 1552c0.1-2.4-1.66-6.8 0.71-8-0.13 2.7-0.46 5.2-0.71 8z" fill="#254442"/>
  <path d="m429.07 1552c13.6-10.8 24.26 12.1 38.45 10.4 30.76 3.9 61.23 9.6 91.35 19.3-0.94 6.6 2.21 12.1 1.76 18.5-10.28 2-24.91 5.4-36.27 9.1-42.63 2-82.78-1.4-124.99-2.7-18.11-5.7-40.07-3.6-52.28-20.5 10.55-14.3 28.18-22.9 44.99-27-11.82 6.1-26.14 10.8-34.12 21.9 9.88 14.5 29.57 13 44.66 17.4 43.09 0 87.99 9.5 129.56-5.5 1.73-4.6 0.64-11-1.42-15.7-23.41-7.2-47.62-11.6-71.96-14-11.68 0.6-19.71-9.5-29.73-11.2z" fill="#689c9d"/>
  <path d="m414.7 1555c4.62-1.5 9.51-2.5 14.37-3 10.02 1.7 18.05 11.8 29.73 11.2 15.29 3.1 30.54 6 45.49 10.5 1.07 3.4 2.38 7.9 0.85 11.4-25.45 9.1-53.46 7.1-80.09 4.3-18.72 1-41.45 0-55.95-12.5 8.15-12.2 24.89-17.4 39.03-19.9-5.01 4.9-14.99 2.3-18.14 9.2 0.05 7.8 12.67 3.6 15.06 9.5 17.92-6.4 29.48 4.7 45.65-3.1 5.05 0.2 4.07-8-0.29-8.1-12.1-2-23.79-5.9-35.39-8.7l-0.32-0.8z" fill="#72acac"/>
  <path d="m392.08 1559.1c7.65-0.9 14.75-5 22.62-4.1l0.32 0.8c-2.3 0.4-4.61 0.7-6.89 1.2-14.14 2.5-30.88 7.7-39.03 19.9 14.5 12.5 37.23 13.5 55.95 12.5 26.63 2.8 54.64 4.8 80.09-4.3 1.53-3.5 0.22-8-0.85-11.4-14.95-4.5-30.2-7.4-45.49-10.5 24.34 2.4 48.55 6.8 71.96 14 2.06 4.7 3.15 11.1 1.42 15.7-41.57 15-86.47 5.5-129.56 5.5-15.09-4.4-34.78-2.9-44.66-17.4 7.98-11.1 22.3-15.8 34.12-21.9z" fill="#6da5a4"/>
  <path d="m408.13 1557c2.28-0.5 4.59-0.8 6.89-1.2 11.6 2.8 23.29 6.7 35.39 8.7 4.36 0.1 5.34 8.3 0.29 8.1-16.17 7.8-27.73-3.3-45.65 3.1-2.39-5.9-15.01-1.7-15.06-9.5 3.15-6.9 13.13-4.3 18.14-9.2z" fill="#78b6b5"/>
  <path d="m880.21 1589.7c3.03-6.9 4.88 9.5 1.86 11.1-1.24-3.3 1.8-8.9-1.86-11.1z" fill="#e4c543"/>
  <path d="m841.42 1610.5c15.37-1.9 25.58-14.6 38.79-20.8 3.66 2.2 0.62 7.8 1.86 11.1-4.85 7.4-14.15 13-21.13 19.2-26.71 9.8-54.13 18.1-81.72 25-5.11-5.3-7.3 5.9-12.83 4.8-47.31 4.5-94.29 11.6-141.45 17.2-3.15-0.2-6.29-0.4-9.25 0.7-3.11 0.8-6.33 0.4-9.46 0-5.01-0.5-10-0.8-15.02-0.9-27.35-1.4-54.8-2-82.21-1.8-11.6-0.1-23.2 0.2-34.78-0.2-10.33-1.5-20.79-0.7-31.18-0.8-26.34-3.2-52.61-8.9-78.51-14.5-16.64-9.6-44.67-7.3-48.62-29.7 1.05-3-1.68-8.3 1.82-10.2 15.6 19.3 42.69 17.2 63.89 25.8 20.8 4.5 42.11 5.6 63.14 8.9 12.45 0.8 25.23 1.6 37.61 0 3.88-2 5.73 1.6 7.52 4.3 6.98 0.8 14.03 0.4 21.06 0.5 9.09-0.3 18.43 0.3 27.34-1.9 7.56-0.3 15.13-0.2 22.71-0.2 16.07 0.4 32.13-0.3 48.15-1.7 3.4-0.1 6.95 0.1 10.23-1 2.73-0.9 5.73-0.2 8.57-0.3 3.07 0 6.39 0.7 9.27-0.8 2.68-0.2 5.5 0 8.11-0.9 3.07-0.9 6.4-0.1 9.57-0.3 3.76 0 7.52-0.3 11.28-0.8 3.69-0.3 7.4-0.6 11.11-1 3.16-0.3 6.43-0.2 9.64-0.2 3.1 0 6.45 0.6 9.37-0.8 3.32-0.1 6.82 0.3 10.03-0.9 45.6-5.2 91.42-13.4 135.09-27.8z" fill="#f8c806"/>
  <path d="m315.91 1619.8c-3.09-1.1-1.28-16.6 1.82-10.2-3.5 1.9-0.77 7.2-1.82 10.2z" fill="#d0b442"/>
  <path d="m304.2 1608.8c2.21 7.5 0.2 15.5 0.42 23.2-2.32-7.2 0.13-15.7-0.42-23.2z" fill="#272727"/>
  <path d="m408.92 1628c3.13 0 6.19 0.2 9.32 0.7-2.62-0.8-7.83 1.9-9.32-0.7z" fill="#304747"/>
  <path d="m436.84 1630c2.81 0 5.54 0.3 8.36 0.7-2.57-0.2-6.96 1.6-8.36-0.7z" fill="#293c3e"/>
  <path d="m594.7 1632.7c17.01-1.6 34.14-0.3 51.21-0.7-14.97 2.2-34.52 0.6-51.21 0.7z" fill="#1f3131"/>
  <path d="m474.04 1633c6.09-0.2 12.2-0.1 18.26 0.7-5.04-1-15.21 2.7-18.26-0.7z" fill="#3c5a5b"/>
  <path d="m508.65 1633.7c10.9-2 22.27-0.1 33.34-0.7-9.1 2.1-22.57 0.9-33.34 0.7z" fill="#3e5b5c"/>
  <path d="m696.3 1639.2c-0.04-3.1 7.4-0.7 10.03-0.9-3.21 1.2-6.71 0.8-10.03 0.9z" fill="#523b00"/>
  <path d="m686.93 1640c0.68-3.4 6.74-0.4 9.37-0.8-2.92 1.4-6.27 0.8-9.37 0.8z" fill="#917b1b"/>
  <path d="m666.18 1641.2c2.86-1.4 6.56-1.8 11.11-1-3.71 0.4-7.42 0.7-11.11 1z" fill="#634a00"/>
  <path d="m654.9 1642c3.18-1.3 6.94-1.6 11.28-0.8-3.76 0.5-7.52 0.8-11.28 0.8z" fill="#ac9227"/>
  <path d="m637.22 1643.2c0.53-2.5 5.74-0.9 8.11-0.9-2.61 0.9-5.43 0.7-8.11 0.9z" fill="#755a00"/>
  <path d="m627.95 1644c0.7-3.4 6.66-0.4 9.27-0.8-2.88 1.5-6.2 0.8-9.27 0.8z" fill="#be9f2f"/>
  <path d="m444.76 1644.3c12.53-0.5 25.08-0.6 37.61 0-12.38 1.6-25.16 0.8-37.61 0z" fill="#876a00"/>
  <path d="m606.21 1645c1.41-2.4 9.13-0.9 13.17-0.7-3.28 1.1-6.83 0.9-10.23 1-0.74-0.1-2.21-0.2-2.94-0.3z" fill="#856800"/>
  <path d="m561.04 1646c6.86-2.4 18.53-0.6 27.21-0.7-9.02 1.2-18.14 0.6-27.21 0.7z" fill="#413100"/>
  <path d="m588.25 1645.3c5.96-0.4 11.97-0.6 17.96-0.3 0.73 0.1 2.2 0.2 2.94 0.3-16.02 1.4-32.08 2.1-48.15 1.7l0.04-1c9.07-0.1 18.19 0.5 27.21-0.7z" fill="#e1bf2f"/>
  <path d="m537.32 1647.1c5.29-2.3 16.03-0.9 23.72-1.1l-0.04 1c-7.58 0-15.15-0.1-22.71 0.2l-0.97-0.1z" fill="#997a01"/>
  <path d="m511 1648.1c2.28-2.7 9.07-0.9 13.23-0.8-4.41 0.4-8.81 0.7-13.23 0.8z" fill="#524000"/>
  <path d="m524.23 1647.3c4.33-0.4 8.73-0.6 13.09-0.2l0.97 0.1c-8.91 2.2-18.25 1.6-27.34 1.9l0.05-1c4.42-0.1 8.82-0.4 13.23-0.8z" fill="#e6c333"/>
  <path d="m489.89 1648.6c6.99-0.8 14.08-0.9 21.11-0.5l-0.05 1c-7.03-0.1-14.08 0.3-21.06-0.5z" fill="#a6860a"/>
  <path d="m443.04 1664c10.39 0.1 20.85-0.7 31.18 0.8l-0.98 0.1c-9.14-1.1-22.98 2.3-30.2-0.9z" fill="#dec044"/>
  <path d="m473.24 1664.9l0.98-0.1c11.58 0.4 23.18 0.1 34.78 0.2l-0.01 1c-11.47-0.6-26.42 1.4-35.75-1.1z" fill="#977901"/>
  <path d="m509 1665c27.41-0.2 54.86 0.4 82.21 1.8-0.49 0-1.47 0.1-1.96 0.1-11.33-0.1-22.71 0.6-34-0.2-15.36-1.6-30.85-0.3-46.26-0.7l0.01-1z" fill="#e1be31"/>
  <path d="m508.99 1666c15.41 0.4 30.9-0.9 46.26 0.7-15.08-0.1-32.82 1.6-46.26-0.7z" fill="#413100"/>
  <path d="m589.25 1666.9c0.49 0 1.47-0.1 1.96-0.1 5.02 0.1 10.01 0.4 15.02 0.9-4.37-0.9-15.06 2.5-16.98-0.8z" fill="#8a6c02"/>
  <path d="m615.69 1667.7c2.96-1.1 6.1-0.9 9.25-0.7-0.48 3.1-6.7 0.4-9.25 0.7z" fill="#8c6c01"/>
  <path d="m428.97 1674.2c14.4 0.1 28.9-1.2 43.24 0.6-14.41-0.1-28.91 1.1-43.24-0.6z" fill="#656565"/>
  <path d="m500.73 1675.2c18.83 0 37.76-1.1 56.54 0.6-18.84-0.1-37.77 1.1-56.54-0.6z" fill="#252525"/>
 </g>
</svg>
