<?xml version="1.0" encoding="UTF-8"?>
<svg width="1137pt" height="1815pt" version="1.1" viewBox="0 0 1137 1815" xmlns="http://www.w3.org/2000/svg">
 <defs>
  <filter id="a" color-interpolation-filters="sRGB">
   <feColorMatrix values="1 0 0 0 0 0 1 0 0 0 0 0 1 0 0 0 0 0 1000 -500 "/>
  </filter>
 </defs>
 <g filter="url(#a)">
  <path d="m529.71 0h7.87c-2.88 0.49-5.88 0.2-8.75 0.46l0.88-0.46z" fill="#484830"/>
  <path d="m537.58 0h22.93c3.15 0.28 6.39 0.65 9.59 0.61 21.59 1.38 43.17 2.83 64.74 4.55 2.75 0.24 5.61 0.45 8.41 0.65 6.2 0.24 12.4 0.68 18.58 1.37 2.73 0.26 5.58 0.53 8.37 0.66 3.82 0.09 7.66 0.03 11.52-0.16 5.43 0.17 10.92 0.13 16.39 0.09 22.9 3.6 45.84 7.3 68.85 10.41 6.64 0.84 13.37 0.82 20.07 0.68 38.67 8.33 77.97 14.38 116.05 25.25 8.4 3.02 19.52-3.72 25.65 4.37 26.51 8.17 54.03 13.1 80.57 21.18 30.4 13.28 61.4 25.17 92 38-15.3 7.61 12.1 10.79 17.8 17.31 6.5 5.73-2 13.11-8.1 14.07 3.2-3.58 9.8-5.79 8.9-11.55-21.6-11.34-42.3-25.67-66.6-30.48-6.4 0.11-8-7.52-13.7-8.8-109.7-36.9-224.51-55.99-338.53-74.38-2.83-0.31-5.53-0.67-8.33-0.78-3.21-0.16-6.32-0.2-9.5-0.27-12.08-1.14-24.23-0.72-36.31-1-4.66-0.7-9.32-0.68-13.99-0.77-5-0.05-9.96 0.15-14.93-0.01-4.99-0.62-10-1.16-15.04-0.99-4.69 0.07-9.34-0.19-14 0.09-4.94-0.6-9.95-1.31-14.94-1.08-5.62-1.09-11.34-0.89-17.01-1.05-11.66 0.04-23.31 0.02-34.95 0.01-3.42-0.23-6.96-0.44-10.15 0.98-3.08 0.48-6.14 0.25-9.17 0.86-9.84 0.95-19.73 1.15-29.52 2.47-3.2 0.18-6.34-0.01-9.5 0.36-3.19 0.24-6.3 0.37-9.46 0.61-3.11 0.03-6.36-0.54-9.27 0.76-3.12 0.27-6.19 0.29-9.28 0.64-2.86 0.18-5.63 0.41-8.46 0.61-3.09 0.08-6.45-0.53-9.34 0.76-3.74 0.33-7.47 0.58-11.2 0.77-3.17 0.1-6.27 0.25-9.42 0.42-3.48-0.24-7.07-0.72-10.34 0.75-4.78 0.18-9.58-0.05-14.31 0.64-94.67 9.2-188.7 24.9-281.54 45.6-26.86 2.06-53.16 10.31-77.8 20.31 3.77 13.05 18.28 21.81 26.01 33.37 14.43 9.07 29.74-1.68 44.63-2.99-13.21 5.75-28.33 9.76-42.7 6.53-5.7-1.78-11.87-19.45-16.51-7.44-11.22-7.17-17.64-19.07-24.74-29.88v-4.68c5.09 6.62 9.68-7.98 16.82-7.55 132.21-31.14 266.47-55.2 401.91-66.2 4.12-0.24 8.27-0.12 12.41-0.41 17.39-2.47 35.04-0.79 52.5-2.57 5.21 0.09 10.57 0.8 15.72-0.36 9.81-0.8 19.66-1.07 29.47-1.88 2.87-0.26 5.87 0.03 8.75-0.46z" fill="#0a0703"/>
  <path d="m560.51 0h8.81l0.78 0.61c-3.2 0.04-6.44-0.33-9.59-0.61z" fill="#47472f"/>
  <path d="m483.64 2.7c5.15-1.27 10.49-0.44 15.72-0.36-5.15 1.16-10.51 0.45-15.72 0.36z" fill="#36351e"/>
  <path d="m418.73 5.68c4.13 0.03 8.25-0.35 12.41-0.41-4.14 0.29-8.29 0.17-12.41 0.41z" fill="#676551"/>
  <path d="m634.84 5.16c2.81 0.22 5.55 0.45 8.41 0.65-2.8-0.2-5.66-0.41-8.41-0.65z" fill="#666453"/>
  <path d="m661.83 7.18c2.8 0.2 5.51 0.51 8.37 0.66-2.79-0.13-5.64-0.4-8.37-0.66z" fill="#50513d"/>
  <path d="m681.72 7.68c5.44-0.68 10.91-0.6 16.39 0.09-5.47 0.04-10.96 0.08-16.39-0.09z" fill="#52523e"/>
  <path d="m511.92 8.96c3.19-1.42 6.73-1.21 10.15-0.98l-0.18 0.97c-3.37 0.03-6.64 0.03-9.97 0.01z" fill="#675201"/>
  <path d="m522.07 7.98c11.64 0.01 23.29 0.03 34.95-0.01l0.03 0.99c-11.73 0.08-23.45 0.12-35.16-0.01l0.18-0.97z" fill="#e5c748"/>
  <path d="m557.02 7.97c5.67 0.16 11.39-0.04 17.01 1.05-5.67-0.07-11.34-0.17-16.98-0.06l-0.03-0.99z" fill="#645201"/>
  <path d="m502.75 9.82c3.03-0.61 6.09-0.38 9.17-0.86-3.09 0.35-6.11 0.58-9.17 0.86z" fill="#b5950f"/>
  <path d="m511.92 8.96c3.33 0.02 6.6 0.02 9.97-0.01 11.71 0.13 23.43 0.09 35.16 0.01 5.64-0.11 11.31-0.01 16.98 0.06 4.65 0.26 9.32 0.98 14 1.12 4.93 0.42 9.97 1.03 14.98 0.86 4.98-0.03 10-0.12 15 0 4.94 0.59 9.99 1.2 15.02 0.98 4.61-0.08 9.26-0.31 13.9-0.2 0.29 0.37 0.88 1.12 1.17 1.5 14.97 1.59 30.11 0.58 45.16 0.59 2.58-0.05 5.18-0.06 7.81-0.04 114.02 18.39 228.83 37.48 338.53 74.38 5.7 1.28 7.3 8.91 13.7 8.8 24.3 4.81 45 19.14 66.6 30.48 0.9 5.76-5.7 7.97-8.9 11.55-8 5.94-15.5 12.6-23.4 18.78-11.9-3.25-23.7-8.28-33.5-16.02-29.1-11.29-58.44-21.95-87.45-33.48-35.23-8.86-70.54-17.45-105.81-26.17-43.58-13.63-89.95-11.51-134.76-18.27-2.83-0.27-5.53-0.56-8.31-0.71-3.22-0.13-6.33-0.17-9.5-0.37-3.79-0.12-7.55-0.38-11.28-0.77-4.41-0.43-8.8-0.76-13.21-0.9-3.85-0.06-7.69-0.15-11.51-0.29-4.13-0.09-8.2-0.46-12.27-0.88-4.29-0.22-8.56-1.08-12.87-1.21-9.65-0.89-19.35-1.08-29.01-0.56-6.73-0.1-13.43-0.26-20.15-0.22-33.48-2.68-67.78-3.12-100.95 1.12-4.31 0.31-8.92-0.5-13.07 0.87-3.73 0.36-7.47 0.64-11.2 0.84-2.86 0.16-5.63 0.29-8.46 0.4-3.51-0.29-7.1-0.64-10.37 0.9-4.07 0.1-8.11 0.67-12.16 0.57-5.57 0.32-11.09 1-16.61 1.6-2.84 0.18-5.59 0.38-8.4 0.38-43.75 5.59-88.05 7.13-131.41 15.55-10.65 1.84-23.85-1.32-33.2 1.81l-0.31 0.9c-55.54 12.67-112.55 18.22-167.88 31.99-14.89 1.31-30.2 12.06-44.63 2.99-7.73-11.56-22.24-20.32-26.01-33.37 24.64-10 50.94-18.25 77.8-20.31 92.84-20.7 186.87-36.4 281.54-45.6 4.67-0.27 9.94 1.76 14.31-0.64 3.48 0.12 6.97 0.16 10.34-0.75 3.15-0.17 6.25-0.32 9.42-0.42 3.72-0.31 7.45-0.56 11.2-0.77 3.08-0.29 6.27-0.22 9.34-0.76 2.83-0.2 5.6-0.43 8.46-0.61 3.05 0.08 6.34 0.56 9.28-0.64 3.04-0.38 6.21-0.21 9.27-0.76 3.16-0.24 6.27-0.37 9.46-0.61 3.13-0.11 6.37 0.21 9.5-0.36 9.79-1.32 19.68-1.52 29.52-2.47 3.06-0.28 6.08-0.51 9.17-0.86z" fill="#faca03"/>
  <path d="m574.03 9.02c4.99-0.23 10 0.48 14.94 1.08l-0.94 0.04c-4.68-0.14-9.35-0.86-14-1.12z" fill="#b79514"/>
  <path d="m588.03 10.14l0.94-0.04c4.66-0.28 9.31-0.02 14-0.09l0.04 0.99c-5.01 0.17-10.05-0.44-14.98-0.86z" fill="#e9c73f"/>
  <path d="m602.97 10.01c5.04-0.17 10.05 0.37 15.04 0.99-5-0.12-10.02-0.03-15 0l-0.04-0.99z" fill="#776209"/>
  <path d="m618.01 11c4.97 0.16 9.93-0.04 14.93 0.01l0.09 0.97c-5.03 0.22-10.08-0.39-15.02-0.98z" fill="#c7a51c"/>
  <path d="m632.94 11.01c4.67 0.09 9.33 0.07 13.99 0.77-4.64-0.11-9.29 0.12-13.9 0.2l-0.09-0.97z" fill="#422800"/>
  <path d="m463.73 12.65c3.16-0.37 6.3-0.18 9.5-0.36-3.13 0.57-6.37 0.25-9.5 0.36z" fill="#8c7415"/>
  <path d="m646.93 11.78c12.08 0.28 24.23-0.14 36.31 1-11.72 0.05-23.43 0.29-35.14 0.5-0.29-0.38-0.88-1.13-1.17-1.5z" fill="#866f13"/>
  <path d="m445 14.02c2.91-1.3 6.16-0.73 9.27-0.76-3.06 0.55-6.23 0.38-9.27 0.76z" fill="#513800"/>
  <path d="m648.1 13.28c11.71-0.21 23.42-0.45 35.14-0.5 3.18 0.07 6.29 0.11 9.5 0.27l0.52 0.82c-15.05-0.01-30.19 1-45.16-0.59z" fill="#edc523"/>
  <path d="m692.74 13.05c2.8 0.11 5.5 0.47 8.33 0.78-2.63-0.02-5.23-0.01-7.81 0.04l-0.52-0.82z" fill="#5b4200"/>
  <path d="m435.72 14.66c3.09-0.35 6.16-0.37 9.28-0.64-2.94 1.2-6.23 0.72-9.28 0.64z" fill="#99811d"/>
  <path d="m417.92 16.03c2.89-1.29 6.25-0.68 9.34-0.76-3.07 0.54-6.26 0.47-9.34 0.76z" fill="#694f00"/>
  <path d="m406.72 16.8c3.73-0.19 7.46-0.44 11.2-0.77-3.75 0.21-7.48 0.46-11.2 0.77z" fill="#a88f26"/>
  <path d="m386.96 17.97c3.27-1.47 6.86-0.99 10.34-0.75-3.37 0.91-6.86 0.87-10.34 0.75z" fill="#765900"/>
  <path d="m372.65 18.61c4.73-0.69 9.53-0.46 14.31-0.64-4.37 2.4-9.64 0.37-14.31 0.64z" fill="#b79b2d"/>
  <path d="m766.96 18.18c6.69-0.18 13.39-0.25 20.07 0.68-6.7 0.14-13.43 0.16-20.07-0.68z" fill="#35351c"/>
  <path d="m497.02 59.09c33.17-4.24 67.47-3.8 100.95-1.12-0.49 0.01-1.46 0.02-1.95 0.02-6.61 0.27-13.19-0.05-19.78-0.19-13.14-0.53-26.59-2.26-39.63-0.03-13.22 0.09-26.41 0.47-39.59 1.32z" fill="#dab82e"/>
  <path d="m536.61 57.77c13.04-2.23 26.49-0.5 39.63 0.03-13.22 0.13-26.43 0.45-39.63-0.03z" fill="#423100"/>
  <path d="m497.02 59.09c13.18-0.85 26.37-1.23 39.59-1.32 13.2 0.48 26.41 0.16 39.63 0.03 6.59 0.14 13.17 0.46 19.78 0.19 7.15 1.06 14.42 1.23 21.66 1.08 8.04 0.84 16.15 1.28 24.24 0.89 6.02-0.03 12.05-0.08 18.08 0 4.05 0.1 8.16 0.82 12.27 0.88 3.82 0.14 7.66 0.23 11.51 0.29 4.38 0.2 8.8 0.6 13.21 0.9 3.74 0.24 7.51 0.5 11.28 0.77 3.17 0.2 6.28 0.24 9.5 0.37 2.71 0.19 5.55 0.43 8.31 0.71 44.81 6.76 91.18 4.64 134.76 18.27 35.27 8.72 70.58 17.31 105.81 26.17 29.01 11.53 58.35 22.19 87.45 33.48 9.8 7.74 21.6 12.77 33.5 16.02 7.9-6.18 15.4-12.84 23.4-18.78 6.1-0.96 14.6-8.34 8.1-14.07-5.7-6.52-33.1-9.7-17.8-17.31 12.4 4.61 24.1 10.72 35.7 17.02v0.89c-3.6 5.66-4.2 13.29-10.6 16.9-57.2 39.58-115.7 78.17-179.42 106.51-15.78 7.34-32.83 18.01-49.82 19.41-3.33 5.81-9.13 8.44-15.63 7.26-19.11 6.1-37.86 13.85-57.18 19.46-22.33-2.38-41.01 8.27-61.74 10.06-8.42 4.86-21.26 0.78-27.84 9.8-6.57-5.82-14.57 4.67-22.45 1.15-68.49 13.66-139.5 15.19-209.51 10.94-4.33 5.41-3.42-6.38-9.61-0.38-10.05-6.5-29.88-4.6-43.46-8.34-13-4.58-27.85-8.51-41.38-5.37 1.23-8.09-9.52-3.51-14.15-6.26-6.92-2.41-17.83-9.32-22.59-0.5-47.46-10.41-90.35-33.97-136.04-49.78-56.26-18.71-103.07-55.88-152.11-87.89-19.6-18.15-39.65-35.86-58.73-54.55 4.64-12.01 10.81 5.66 16.51 7.44 14.37 3.23 29.49-0.78 42.7-6.53 55.33-13.77 112.34-19.32 167.88-31.99 7.78 0.28 15.59 0.24 23.36-0.44 3.5-0.03 6.9-1.07 10.15-2.27 43.36-8.42 87.66-9.96 131.41-15.55 2.76-0.18 5.6-0.23 8.4-0.38 5.52-0.6 11.04-1.28 16.61-1.6 4.03-0.3 8.13-0.01 12.16-0.57 3.46-0.06 7 0.05 10.37-0.9 2.83-0.11 5.6-0.24 8.46-0.4 3.72-0.33 7.46-0.61 11.2-0.84 4.3-0.23 8.88 0.42 13.07-0.87m33.04 6.97c-5.26 0.27-10.5 0.89-15.75 1.3-3.12 0.19-8.52-2.25-10.4 0.67-56.27 4.44-112.45 10.19-168.68 15.36-2.63 0.09-6.6-1.67-8.37 0.66-5.19 0.58-10.4 0.85-15.62 0.73-39.27 5.37-79.11 9.63-117.67 18.41-21.14 3.02-44.82 6.82-64.46 11.84-21.31 2.51-42.63 6.82-63.35 12.22-3.86 1.12-9.9 0.87-11.83 4.61 4.38 6.02 11.25 10.24 16.83 14.83 15.46 13.26 33.28 24.41 50.13 35.86 8.8 7.17 18.12 13.91 27.98 19.54 21.71 20.44 50.96 28.91 77.18 41.87 91.38 43.49 190.18 69.48 289.99 81.04 12.03 2.83 29.47 0.18 43.24 0.74 4.23 0.23 8.46 0.29 12.72 0.28 11.08 1.9 29.97 1.57 40.87-0.07 37.03-1.63 73.5-8.55 110.09-13.96 62.41-14.11 126.16-26.55 183.98-55.05 27.12-11.75 53.1-25.91 80.13-37.86 31.53-14.99 59.73-36.4 90.13-52.93-44-26.99-94.07-40.1-142.21-57.19-58.96-12.44-117.58-27.05-177.22-35.87-21.67 1.51-43.5 0.82-64.92-3.05-4.86-3.45-17.11 0.22-24.07-0.84-15.27-3.42-37.64-0.16-55.08-0.94-5.85-0.35-11.71-0.26-17.55-0.25-2.05-2.33-6.57-0.16-9.3-0.75-5.56-0.87-11.16-1.62-16.8-1.21-2.62-3.12-10.2 0.13-14.28-0.83-3.16-0.29-6.39-0.09-9.52 0.08-4.82 0.67-12.89-2.09-16.19 0.76z" fill="#050506"/>
  <path d="m596.02 57.99c0.49 0 1.46-0.01 1.95-0.02 6.72-0.04 13.42 0.12 20.15 0.22l-0.44 0.88c-7.24 0.15-14.51-0.02-21.66-1.08z" fill="#866a00"/>
  <path d="m618.12 58.19c9.66-0.52 19.36-0.33 29.01 0.56-1.62 0.02-3.24 0.14-4.84 0.27-8.22-0.04-16.42 0.08-24.61 0.05l0.44-0.88z" fill="#f0ca2c"/>
  <path d="m483.95 59.96c4.15-1.37 8.76-0.56 13.07-0.87-4.19 1.29-8.77 0.64-13.07 0.87z" fill="#bd9f32"/>
  <path d="m617.68 59.07c8.19 0.03 16.39-0.09 24.61-0.05l-0.37 0.94c-8.09 0.39-16.2-0.05-24.24-0.89z" fill="#302200"/>
  <path d="m642.29 59.02c1.6-0.13 3.22-0.25 4.84-0.27 4.31 0.13 8.58 0.99 12.87 1.21-6.03-0.08-12.06-0.03-18.08 0l0.37-0.94z" fill="#b99e2f"/>
  <path d="m472.75 60.8c3.73-0.2 7.47-0.48 11.2-0.84-3.74 0.23-7.48 0.51-11.2 0.84z" fill="#795c00"/>
  <path d="m660 59.96c4.07 0.42 8.14 0.79 12.27 0.88-4.11-0.06-8.22-0.78-12.27-0.88z" fill="#765800"/>
  <path d="m453.92 62.1c3.27-1.54 6.86-1.19 10.37-0.9-3.37 0.95-6.91 0.84-10.37 0.9z" fill="#a68d24"/>
  <path d="m683.78 61.13c4.41 0.14 8.8 0.47 13.21 0.9-4.41-0.3-8.83-0.7-13.21-0.9z" fill="#a78c23"/>
  <path d="m441.76 62.67c4.05 0.1 8.09-0.47 12.16-0.57-4.03 0.56-8.13 0.27-12.16 0.57z" fill="#644a00"/>
  <path d="m696.99 62.03c3.73 0.39 7.49 0.65 11.28 0.77-3.77-0.27-7.54-0.53-11.28-0.77z" fill="#695101"/>
  <path d="m717.77 63.17c2.78 0.15 5.48 0.44 8.31 0.71-2.76-0.28-5.6-0.52-8.31-0.71z" fill="#96801e"/>
  <path d="m416.75 64.65c2.81 0 5.56-0.2 8.4-0.38-2.8 0.15-5.64 0.2-8.4 0.38z" fill="#4f3800"/>
  <path d="m530.06 66.06c3.3-2.85 11.37-0.09 16.19-0.76-5.4 0.37-10.8 0.56-16.19 0.76z" fill="#112f4a"/>
  <path d="m546.25 65.3c3.13-0.17 6.36-0.37 9.52-0.08 4.74 0.35 9.51 0.88 14.28 0.83 5.64-0.41 11.24 0.34 16.8 1.21 3.05 0.34 6.19 0.76 9.3 0.75 5.84-0.01 11.7-0.1 17.55 0.25 18.32 1.7 36.73 0.12 55.08 0.94 7.99 0.69 16.04 1.01 24.07 0.84 21.42 3.87 43.25 4.56 64.92 3.05 59.64 8.82 118.26 23.43 177.22 35.87 48.14 17.09 98.21 30.2 142.21 57.19-30.4 16.53-58.6 37.94-90.13 52.93-27.03 11.95-53.01 26.11-80.13 37.86-57.82 28.5-121.57 40.94-183.98 55.05-36.59 5.41-73.06 12.33-110.09 13.96-13.63 0.17-27.25-0.11-40.87 0.07-4.26 0.01-8.49-0.05-12.72-0.28-14.38-1.35-28.83-0.62-43.24-0.74-99.81-11.56-198.61-37.55-289.99-81.04-26.22-12.96-55.47-21.43-77.18-41.87 14.48 6.75 27.73 16.06 43.05 20.8 5.14 3.45 11.29 8.89 17.82 5.51-1.77 7.67 7.52 3.57 11.17 6.67 36.55 20.28 75.63 29.23 115.03 39.99 29.67 11.03 61.29 11.63 91.99 18.88 57.41 4.5 119.71 5.26 178.07-7.24 62.23-8.98 123.92-27.28 181.92-52.76 25.37-14.25 52.62-25 78.25-38.78 17.87-13.31 38.36-21.93 56.61-34.47-6.87-10.71-24.36-9.5-33.99-18.33-75.37-31.47-156.41-48.93-237.31-61.18-22.5 1.64-43.42-1.4-65.67-3.24-0.07-0.95-0.13-1.9-0.17-2.86-22.37 6.35-46.54 0.43-68.63 0.63-7.14 1.15-10.25-6.79-13.05 1.99-9.86-4.84-22.05-0.28-30.75-4.33-54.98 5.69-110.33 8.55-165.17 15.88 0.47-1.85 1.95-3.13 3.2-4.47 5.22 0.12 10.43-0.15 15.62-0.73 2.77-0.2 5.59-0.37 8.37-0.66 56.23-5.17 112.41-10.92 168.68-15.36 3.44-0.07 7.02 0.25 10.4-0.67 5.25-0.41 10.49-1.03 15.75-1.3 5.39-0.2 10.79-0.39 16.19-0.76z" fill="#326596"/>
  <path d="m555.77 65.22c4.08 0.96 11.66-2.29 14.28 0.83-4.77 0.05-9.54-0.48-14.28-0.83z" fill="#152e47"/>
  <path d="m503.91 68.03c1.88-2.92 7.28-0.48 10.4-0.67-3.38 0.92-6.96 0.6-10.4 0.67z" fill="#183653"/>
  <path d="m586.85 67.26c2.73 0.59 7.25-1.58 9.3 0.75-3.11 0.01-6.25-0.41-9.3-0.75z" fill="#193551"/>
  <path d="m613.7 68.26c17.44 0.78 39.81-2.48 55.08 0.94-18.35-0.82-36.76 0.76-55.08-0.94z" fill="#08192a"/>
  <path d="m668.78 69.2c6.96 1.06 19.21-2.61 24.07 0.84-8.03 0.17-16.08-0.15-24.07-0.84z" fill="#1e3c59"/>
  <path d="m503.96 77.7c2.8-8.78 5.91-0.84 13.05-1.99 22.09-0.2 46.26 5.72 68.63-0.63 0.04 0.96 0.1 1.91 0.17 2.86 22.25 1.84 43.17 4.88 65.67 3.24 80.9 12.25 161.94 29.71 237.31 61.18 9.63 8.83 27.12 7.62 33.99 18.33-18.25 12.54-38.74 21.16-56.61 34.47-25.63 13.78-52.88 24.53-78.25 38.78-58 25.48-119.69 43.78-181.92 52.76-58.36 12.5-120.66 11.74-178.07 7.24-30.7-7.25-62.32-7.85-91.99-18.88-39.4-10.76-78.48-19.71-115.03-39.99-3.65-3.1-12.94 1-11.17-6.67-6.53 3.38-12.68-2.06-17.82-5.51-15.32-4.74-28.57-14.05-43.05-20.8-9.86-5.63-19.18-12.37-27.98-19.54 103.85 59.03 224.7 93.78 344.83 83.04 56.03-6.47 111.85-18.21 164.87-37.95 46.95-22.26 95.9-43.59 138.25-72.54-29.59-20.81-67.79-28.31-101.66-41.37-51.09-10.43-101.86-26.26-154.55-24.21-23.02-5.63-46.76-1-70.05-3.98-83.29-4.32-166.66 9.59-249.01 17.65 38.56-8.78 78.4-13.04 117.67-18.41-1.25 1.34-2.73 2.62-3.2 4.47 54.84-7.33 110.19-10.19 165.17-15.88 8.7 4.05 20.89-0.51 30.75 4.33z" fill="#33689d"/>
  <path d="m252.14 82.01c9.35-3.13 22.55 0.03 33.2-1.81-3.25 1.2-6.65 2.24-10.15 2.27-7.68-0.25-15.36-0.63-23.05-0.46z" fill="#d5b530"/>
  <path d="m252.14 82.01c7.69-0.17 15.37 0.21 23.05 0.46-7.77 0.68-15.58 0.72-23.36 0.44l0.31-0.9z" fill="#412a00"/>
  <path d="m326.86 84.05c1.77-2.33 5.74-0.57 8.37-0.66-2.78 0.29-5.6 0.46-8.37 0.66z" fill="#15334f"/>
  <path d="m193.57 103.19c82.35-8.06 165.72-21.97 249.01-17.65 23.29 2.98 47.03-1.65 70.05 3.98 52.69-2.05 103.46 13.78 154.55 24.21 33.87 13.06 72.07 20.56 101.66 41.37-42.35 28.95-91.3 50.28-138.25 72.54-53.02 19.74-108.84 31.48-164.87 37.95-120.13 10.74-240.98-24.01-344.83-83.04-16.85-11.45-34.67-22.6-50.13-35.86 5.88-0.34 9.6 5.27 14.26 8.04 5.94 4.27 12.6 7.45 18.26 12.13 23.97 20.23 54.66 29.01 82.6 42.27 41.67 14.58 84.68 25.12 128.68 27.66 106.89 7.39 213.45-28.38 301.49-87.76-22.39-13.12-47.19-21.25-71.65-29.52-41.81-7.78-82.97-23.23-126.01-20.88-22.57-2.85-45.37-3.64-68.1-3.07-46.68-4.44-92.95 4.32-139.4 7.5-18.85 3.65-38.26 3.67-56.88 8.76-8.36 0.48-16.52 2.7-24.9 3.21 19.64-5.02 43.32-8.82 64.46-11.84z" fill="#376ca5"/>
  <path d="m210.89 103.06c46.45-3.18 92.72-11.94 139.4-7.5 22.73-0.57 45.53 0.22 68.1 3.07 43.04-2.35 84.2 13.1 126.01 20.88 24.46 8.27 49.26 16.4 71.65 29.52-88.04 59.38-194.6 95.15-301.49 87.76-44-2.54-87.01-13.08-128.68-27.66-27.94-13.26-58.63-22.04-82.6-42.27 8.58 3.84 19.79 5.6 25.69 13.59 10.58 3.21 21.01 6.26 30.67 12.04 14.92-0.99 28.17 7.72 42.44 9.26 19.63 2.66 38.89 8.22 58.98 6.23 32.1 3.08 63.79-9.56 95.43-13.41 23.19-8.66 48.27-15.33 68.14-31.04 11.28 2.68 16.57-10.12 26.77-12.01 5.66-1.76 14.02-13.41 3.44-8.04-0.58-4.79-8.45-9.35-14.5-9.74-65.23-27.18-137.44-29.65-207.13-29.49-25.4 4.79-52.71 3.65-79.2 7.57 18.62-5.09 38.03-5.11 56.88-8.76z" fill="#3772aa"/>
  <path d="m233.21 104.25c69.69-0.16 141.9 2.31 207.13 29.49 6.05 0.39 13.92 4.95 14.5 9.74 10.58-5.37 2.22 6.28-3.44 8.04-10.2 1.89-15.49 14.69-26.77 12.01-19.87 15.71-44.95 22.38-68.14 31.04-31.64 3.85-63.33 16.49-95.43 13.41-20.09 1.99-39.35-3.57-58.98-6.23-14.27-1.54-27.52-10.25-42.44-9.26-9.66-5.78-20.09-8.83-30.67-12.04-5.9-7.99-17.11-9.75-25.69-13.59-5.66-4.68-12.32-7.86-18.26-12.13 10.18 2.82 19.86 9.14 30.55 11.71 61.72 25.63 133.78 11.26 188.6-24.27 1.83-0.78 5.67-3.17 2.8-5.06-31.25-14.26-65.26-22.53-99.73-22.42-47.64-5.21-94.72 5.9-141.48 12.56 20.72-5.4 42.04-9.71 63.35-12.22 8.38-0.51 16.54-2.73 24.9-3.21 26.49-3.92 53.8-2.78 79.2-7.57z" fill="#3974ae"/>
  <path d="m65.76 127.25c46.76-6.66 93.84-17.77 141.48-12.56 34.47-0.11 68.48 8.16 99.73 22.42 2.87 1.89-0.97 4.28-2.8 5.06-54.82 35.53-126.88 49.9-188.6 24.27-10.69-2.57-20.37-8.89-30.55-11.71-4.66-2.77-8.38-8.38-14.26-8.04-5.58-4.59-12.45-8.81-16.83-14.83 1.93-3.74 7.97-3.49 11.83-4.61z" fill="#3d79b7"/>
  <path d="m762.61 305.17c20.73-1.79 39.41-12.44 61.74-10.06-30.81 11.91-64.03 15.82-95.84 24.4-22.07 5.98-44.87 8.65-67.59 10.63-6.32 11.27-16.32 23.13-14.54 36.91 6.81 8.18 18.51 10.83 25.26 19.28 21.77 21.56 16.51 64.3-12.62 76.85-4.29 10.71 4.17 24.61-4.7 34.12-5.61 15.2-31.49 4.22-32.31 22.87-5.4 35.8-13.47 71.47-16.19 107.64-0.4 5.08-0.79 10.22-0.67 15.34-3.76 67.02-0.39 134.09-0.19 201.15 20.28 5.51 29.42 26.37 21.65 46 4.02 16.44 14.53 31.15 19.27 47.53-8.73 15.66 0.7 34.11-5.8 50.27-5.07 15-8.66 30.8-18.12 43.8 6.48 8.5 9.47 20.8-1.94 26.5 10.14 16.5 10.9 40.4-4.22 54.5-5.37 5.9 6.82 7 9.57 11 3.06 9.4-0.03 20.8 6.5 29.1 3.12 5.9 10.08 10.5 8.21 18.1 3.59 31.4-6.22 63.9-27.78 87.1-2.21 9.8 11.3 19 6.09 29.1-3.52 10-6.34 23.9-18.92 25.1-10.25 0.7-9.52 14.1-8.19 21.4 0.05 3 0.02 6.3 0.39 9.4 3.24 24.5 4.14 49.4 2.5 74.1-2.9 33.9 8.59 66.5 11.32 100 14.81 36 15.75 78.7 43.73 108.5 19.27 18.6 35.91 41.4 59.11 54.9 7.94 17.5 27.28 23.9 40.4 36.6 10.43 12.8 26.95 18.1 38.59 29.5 15.54 4.5 24.06 21.1 41.02 23 5.46 16.2-14.47 17.7-25.4 15.6-13.87 8.5-30.73 6.9-45.68 12.9-35.67 4.7-71.1 11.8-107.01 14-5.86-0.2-11.7-0.1-17.52 0.3-8.55 0.6-17.09 1-25.59 1.9-2.97 0.2-5.88 0-8.77 0.5h-55.74c-8.54-0.9-17.12-1.5-25.68-0.9-12.96 0-25.89-0.5-38.82-1.3-4.76-0.4-9.5-0.5-14.26-0.6-68.91-5.8-137.26-13.4-200.75-40.3-3.65-1-4.7-6.7-1.51-8.8 10.33-11.6 27.33-11.9 39.09-21.4 8.15-5.1 14.53-14.3 24.97-14.1 32.44-18.3 56.78-47.2 85.46-70.5 19.27-24.7 38.77-49.5 56.88-75.1 12.82-33.2 33.74-62.9 40.91-98.2-0.12 7.7 0.25 15.4 0.22 23.2-0.78 5.2-1.82 10.5-2.49 15.8-5.02 0.1-3.39 5.4-3.78 9-17.75 43.9-43.3 83.9-74.82 119.2-0.79 0.9-1.56 1.9-2.32 2.9-0.26 0.3-0.76 0.9-1.02 1.2-4.76 8.5-23.75 15.8-23.6 22.1-6.59 7.8-24.12 14.8-25.36 21.8-2.09 2.8-4.87 5.1-7.88 7-5.16 3-22.95 11.5-16.78 15.3-9.2 7.4-19.63 12.9-29.1 19.9 47.61 11.8 97.1 13.9 145.18 22.8 11.17 1.8 22.56 0.9 33.83 0.9 7.87 1.3 15.92 1.3 23.9 1.1 10.35 0.2 20.73-0.3 31.09 0.1 28.64 2 57.44 0.5 86.15 0.7 9.63 0 18.24-5 27.65-6.2 29.5-0.3 57.89-11.6 87.52-10.1 4.57 0.6 7.76-3.8 9.69-7.3-34.42-26.8-66.97-56-101.13-83.1-12.96-17.4-25.13-35.6-37.47-53.5-13.31-14.9-14.72-35.6-22.85-53.2-7.05-30.5-11.9-61.5-17.93-92.2 0.08-6.4 0.38-12.7 0.41-19.1-0.24-4.3 0.77-9.1-0.99-13.1-0.28-3.2-0.34-6.2-0.7-9.3-0.28-2.5-0.48-5-0.62-7.4-0.05-3.2 0.52-6.4-0.68-9.3-0.28-3.5 0.01-6.9-0.72-10.3-0.26-2.9-0.38-5.6-0.56-8.4-0.22-3.2 0.58-6.5-0.84-9.3-0.4-20.3 1.11-40.7-0.66-60.9-2.16-5.7-4.82-11.2-8.1-16.3-6.84 12.2-23.49 8-33.87 3.2-8.33 1.6-7 8.7-5.37 14.8-0.62 6.1-0.88 12.3-0.75 18.5-0.09 2.7-0.06 5.5-0.1 8.3-2.41 4-9.55 5.4-5.45 10.7-0.21 3.5-0.46 7-0.74 10.5-0.54 5.8-1.02 11.6-0.88 17.4 3.35 7.4-2.74 8.2-5.82 12.6 2.97 4.9 0.64 10.6 0.66 16-3.91 7.3 4.96 22.5-4.89 25.2l-0.87 0.2c2.59-22.3 3.07-44.9 7.11-67.1 1.55-12.7 0.6-25.5 0.65-38.2 0.17-8.7 6.46-24.3-8.24-23.4-9.33 2.8-11.71-8.4-16.05-14-5.6-13.4 15.19-26.2 2.43-37.5-18.3-19.5-32.57-46.4-25.9-73.8 4.52-12.6 10.95-25.8 21.85-33.2-7.79-11.4-5.11-28.4 10.1-31.3-6.7-16-14.73-32.7-10.1-50.3 8.12-5.9-8.09-18-1.95-26.3 1.39-7.5 12.55-8.1 8.91-17.3-11.42-21.4-26.67-42.05-23.99-67.76-0.08-2.67-0.07-5.31 0-7.92 0.86-5.17 3.78-10.39 1.7-15.6 0.17-14.43 10.58-25.22 22.08-32.47-11.07-12.2-3.04-26.93-0.47-40.55 5.3-4.19 12.55-4.32 18.71-6.71 0.47-3 0.92-5.89 1.02-8.88 0.51-13.58 1.62-27.11 2.26-40.68 0.17-4.17 0.4-8.3 0.65-12.43 0.34-12.83 0.26-25.66-0.16-38.47 0.15-14.22 1.12-28.47-0.44-42.63-0.65-17.44 0.18-34.88-0.54-52.3-0.16-26.41 1.56-53.28-0.54-79.43-5.43-20.99-8.55-42.52-13.15-63.7-6.15-4.05-13.55-5.68-20.58-7.45-10.11-10.13-9.29-22.9-7.73-35.91-19.81-12.91-25.62-39.58-19.84-61.56 12-16.24 27.55-29.05 43.9-40.64-3.33-12.11-10-23.13-14.96-34.63-40.19-9.99-82.21-11.88-121.19-26.87 4.76-8.82 15.67-1.91 22.59 0.5 4.63 2.75 15.38-1.83 14.15 6.26 13.53-3.14 28.38 0.79 41.38 5.37 13.58 3.74 33.41 1.84 43.46 8.34 6.19-6 5.28 5.79 9.61 0.38 70.01 4.25 141.02 2.72 209.51-10.94 7.88 3.52 15.88-6.97 22.45-1.15 6.58-9.02 19.42-4.94 27.84-9.8m-257.67 27.16c0.66 11.95 9.44 21.51 13.5 32.54 23.38-4.93 46.92-3.04 70.62-2.89 8.05 2.57 21.27 0.42 31.26 0.71 20.01 9.59 20.22-15.64 25.36-27.89 0.01-1.62-7.16-1.56-7.59 0.2-12.21 1.56-24.39 2.63-36.75 2.3-14.82 0.14-33.59-1.71-45.99 0.81l-0.98 0.13c-9.46-0.53-18.93-0.27-28.38 0-6.99-2.01-13.91-4.59-21.05-5.91m63.22 39.67c-4.33 0.23-8.6 1.22-12.83 2.06-1.11-0.1-2.22-0.07-3.31 0.09-9.8 3.06-24.41-0.29-31.45 5.81-0.66-0.02-1.98-0.05-2.64-0.07-2.74 0.46-8.75-1.57-9.62 1.15-8.11 4.25-16.19 10.79-23.12 16.9-8.75 6.07-11.38 17.35-15.69 26.6 0.44 14.21 11 25.3 19.98 35.38 7.3-0.46 13.82-4.69 20.86-6.41 10.4 0.64 19.14 7.4 23.59 16.41 3.35-12.4 14.81-17.75 23.11-26.06 8.29 0.48 16.6 0.11 24.91-0.03 2.68 2.42 5.47 6.62 8.8 6.93 2.98 4.1 7.54 7.18 12.22 9.04 10.21-13.04 34.61-15.56 47.44-6.03 15.78 0.21 21.27-17.16 25.97-29.28 0.65-23.71-19.57-40.57-39.75-49.5-1.82-2.77-10.82-0.16-14.74-0.87-3.73-0.44-7.54 0.07-11.25 0.23-1.66-0.09-4.99-0.27-6.65-0.36-1.64-3.4-10.68-0.82-14.03-1.98-4.14-2.78-17.78-1.17-21.8-0.01m-11.08 86c-11.95 0.63-14.83 19.76-7.89 25.67 1.14 8.31 8.8 13.63 16.72 14.51 3.57 0.84 7.31 1.03 11.21 0.56 7.01 1.42 12.92-5.56 15.83-11.07 2.94-1.72-0.07-10.2 0.86-13.9 0.58-15.23-26.39-26.66-36.73-15.77m61.08 2.92c-1.77 0.31-2.33 0.95-1.65 1.94-7.8 1.43-8.75 10.2-7.72 16.8 0.23 2.77 1.68 5.21 4.28 6.36 1.29 2.57 2.84 5.03 4.79 7.16 3.5 11.27 19.2 7.63 27.03 3.65 2.22-6.35 4.36-12.78 6.9-19.03-2.96-15.03-21.27-20.13-33.63-16.88m-112.95 4.87c-1.48 0.36-2.14 1.09-1.97 2.19-0.23 0.46-0.68 1.39-0.91 1.85-3.15 1.6-5.32 4.57-7.63 7.14-1.4 1.21-2.74 2.52-3.77 4.08-0.91 0.43-1.65 1.05-2.23 1.86 0.7 6.71 8.63 16.37 15.48 18.98 1.61 2.41 6.33 0.16 8.91 0.9 7.56-0.02 17.82-8.01 18.42-16.35-5.63-5.96-7.22-19.15-16.7-19.46 2.24-1.76-12.11-2.49-9.6-1.19m34.92 26.46c-10.17 9.35-21.01 19.34-14.64 34.06 0.06 3.29 0.5 6.57 1.15 9.81 0.82 3.01 1.1 6.08 1.89 9.13-0.46 6.76 2.23 13.34 2.57 20.07-0.43 3.44-0.17 6.88-0.1 10.36-0.39 6.65 0.03 13.32 0.33 19.99 0.02 15.13-1.74 34.25 0.88 46.93-0.53 18.45-0.12 36.93-0.19 55.4 0.64 18.06-1.54 39.95 1.17 55.66 0.37 3.08-1.88 8.69 1.15 10.32-1.05 10.3-0.09 20.69-0.15 31.03-2.32 1.52-0.74 5.65-0.96 8.22-0.37 6.21-2.09 12.76 0.18 18.8-1.12 3.03-0.03 6.48-0.41 9.68-2.24 2.36-0.28 6.53-0.78 9.52-7.31 15.95 14.28 17.96 18.69 4.42 7.93 0.64 15.91 0.5 23.87 0.09 5.98 9.09 14.12 11.23 20.23-0.17 0.89 3.87 3.04 1.9 1.66-1.24 0.09-10.75 1.6-24.4-0.65-33.27l-0.03-1c-0.41-6.2 1.36-17.07-1.22-20.7 0.54-7.35 0.38-14.72-0.1-22.04-0.28-7 1.97-17.22-0.72-22.26 0.03-5.52 1.04-15.06-1.1-17.67-0.26-13.83 0.72-27.59 1.21-41.39 0.25-2.36 0.54-4.69 0.87-7.01 2.46-1.77 0.11-6.55 0.81-9.16 0.54-5.53 1.27-11.04 1.27-16.61 2.04-2.04 0.59-5.66 0.76-8.32 1.19-10.56 2.34-21.13 3.25-31.71 2.04-2 0.58-5.66 0.74-8.32 1.89-30.73 9.12-60.74 13.07-91.2 2.4-9.24-8.13-15.88-13.48-20.33-12.92 22.13-47.84 19.39-61.22-1.09m10.29 367.29c-2.8 8.08-3.92 18.01 0.88 25.43 1.22 2.06 5.18 0.51 7.5 0.99 7.75 6.11 19.46-0.99 20-10.28 6.64-15.1-17.84-26.83-28.38-16.14m52.11-1.57c-3.68 1.71-8.19 4.62-9.56 8.41-2.69 2.54-0.89 16.23-0.06 18.07 9.24 9.18 20.36 1.19 28.91-3.98 1.66-8.48-4.63-15.67-8.4-22.54 0.58-2.14-11.34-1.32-10.89 0.04m-94.16 17.82c-0.32 6.66-3.78 19.34 7.5 15.15 8.67 4.52 22.85-5.75 21.82-16.21 1.47-18.05-33.5-16.7-29.32 1.06m28.43 20.01c-15.04 9.55-37.09 8.31-42.43 28.55-2.68 16.9-2.16 34.55-5.26 51.53 10.12 16.24 19.28 33.12 28.24 50.12 23.32-7.8 49.46-6.2 73.82-3 3.86 3.1 19.25 0.5 22.16 0.2 15.13-15.8 21.76-39.57 18.6-61.17 2.78-5.01 0.28-14.7 0.76-21.32 4.48-16.95-8.13-33.99-20.79-43.82-4.67 14.87-23.9-2-29.71-7.78-11.84 15.41-31.77-3.61-45.39 6.69m8.31 137.2c-3.81-0.1-7.29 1.7-10.96 2.4-3.99 0-10.87-1.9-12.77 0.7-10.23-0.5-25.41 15.5-7.55 14.5 2.82 0 7.08 1.8 9.12-0.7 13.48 0.4 31.42-11.5 41.55-1.7-0.42 2.1 10.69 1.3 11.51-0.2 15.65-5.5 36.52 18.6 44.05-4.1-13.39-7.3-28.95-8.8-43.93-9.9-2.03-2.3-6.64-0.3-9.4-0.8-0.26-2.6-6.66-0.6-8.72-1.2-4.06 0.2-10.77-1.5-12.9 1m-10.3 29c-9.76-5-18.89 5.4-27.89 8.4-1.64 2.9-1.75 16.2 0.09 19.3 1.52 8.1 7.23 14.8 10.66 22.2 8.43 0.4 16.58-2.3 24.99-2.3 5.37-0.2 13.6 2 17.35-0.6 15.33-1.3 30.78-1.3 45.69 2.8 8.66-7.8 11.44-19 13.89-30-2.25-13.7-16.78-22.2-30.24-20-18.01 0.6-38.09-12.2-54.54 0.2m41.43 56c-24.59 7-53.5-2.1-74.19 16 9.94 15.8 29.35-3.8 43.75-1.3 3.5 0.2 6.95 0 10.48 0.1 2.84 0.2 5.62 0 8.5-0.1 5.14 0.5 10.28 0.1 15.45 0 11.84 0.9 23.21 4.3 34.88 6.1 1.78-2.1 2.7-13.1-1.08-13.8-10.11-0.5-19.45-5.1-29.2-7-0.04-1.8-9.49-1.9-8.59 0m-61.94 35.3c-25.42 9.7-40.23 41.6-27.08 66.5 10.07 12.5 18.48 26.4 27.6 39.6 8.06 0 14.49 4.1 21.01 8.4 5.46-7 13.54-10.6 21.95-12.7 6.84 3.5 12.28 9.2 19.06 12.8 5.34-11.4 22.86-3.9 28.2-14.9 12.49-19.6 24.59-41.3 26.1-64.8 0.86-3.7 1.05-7.5 0.59-11.4 1.32-8.9-6.26-15.3-10.08-22.5-12.7-3.7-25.23-8.3-37.91-12.2-23.49 1.1-46.75 5-69.44 11.2m33.88 115.7c-2.92 5.5-3.65 12.1-4.03 18.3 4.47 7.3 15.55 9.1 22.3 4.1 4.53-0.3 2.72-8.7 1.72-9.9 0.2-12.4-11.29-11.3-19.99-12.5m48.54 2.4c-5 1.7-8.88 5.7-13.6 8-8.18 12.2 12.06 31.2 21.25 17.9 7.71-8 7.41-29.3-7.65-25.9m-85.73 7c-2.63 2.4-1.14 16 0.13 18.2 7.45 3 16.62 3.1 19.88-6 1.7 0 1.71-7.2-0.05-7.3 2.53-11.2-16.06-13.2-19.96-4.9m-234.18 487.8c23.39 9.9 48.34 17.3 73.22 22.7 1.9 2.8 7.42 0.7 10.24 1.8 24.26 4.5 48.92 7.7 73.56 9.3 2.12 2.3 6.5 0 9.34 0.8 4.57 0.5 9.14 1.2 13.77 1.1 1.93 2.7 7.44-0.1 10.28 0.9 4.93 0.4 9.86 0.2 14.82 0.2 4 3.2 14.29-0.3 20.19 0.8 18.48 3.1 43.43 0.4 64.04 0.9 9.24 0.5 18.5 0.4 27.76 0.3 4.59 3.1 15.73-0.1 22.3 0.8 2.99 2.9 18.28 1.4 21.31 0 2.95-0.2 7.42 1.7 9.51-0.8 2.88 0 5.68-0.4 8.61-0.4 2.59-0.1 6.68 1.7 8.33-0.6 26.57-3.8 54.1-4 79.45-11.3 3.47-0.7 9.23 1 11.49-1.8 21.04-2.8 40.99-11 62.08-13.8 2.34 0.4 2.52-3.2 0.7-4-15.12-3.7-25.19-18.2-40.44-21.8-3.72 4.5-9.32 6-15 6-2.96 0.1-7.76-0.8-9.39 1.9-31.04 3.3-61.61 10.2-92.68 13.2-2.87 0-7.35-2.1-9.36 0.6-4.61 0.2-9.19 0.8-13.76 1.3-3.99-0.6-7.78-0.4-11.35 0.6-3.15 0.1-6.36 0.1-9.48 0.3-2.82 0.4-9.33-2.1-10.06 1.2-40.78-0.8-81.6-0.4-122.39-0.2-12.08-2.5-24.36-4.4-36.68-5.2-2.06-2-5.63-0.6-8.29-0.8l-0.92-0.1c-3.4-1.1-7.1-1.4-11.11-0.9-0.46 0-1.38-0.1-1.84-0.1-1.69-2.2-5.62-0.7-8.2-0.9-15.4-1.7-30.72-4.1-45.9-7-1.59-2.7-6.31-1.8-9.21-1.9-18.41-3.9-37.31-5.4-55.52-10.2-9.26 6.6-19.83 11-29.42 17.1z" fill="#070403"/>
  <path d="m516.04 325c14.41 0.12 28.86-0.61 43.24 0.74-13.77-0.56-31.21 2.09-43.24-0.74z" fill="#13283c"/>
  <path d="m572 326.02c13.62-0.18 27.24 0.1 40.87-0.07-10.9 1.64-29.79 1.97-40.87 0.07z" fill="#244463"/>
  <path d="m504.94 332.33c7.14 1.32 14.06 3.9 21.05 5.91 9.37 0.76 19.08 1.99 28.38 0l0.98-0.13c15.32-0.43 30.68 0.56 45.99-0.81 12.36 0.33 24.54-0.74 36.75-2.3 2.51-0.06 5.04-0.12 7.59-0.2-5.14 12.25-5.35 37.48-25.36 27.89-10.4-0.87-20.85-0.94-31.26-0.71-23.7-0.15-47.24-2.04-70.62 2.89-4.06-11.03-12.84-20.59-13.5-32.54z" fill="#969634"/>
  <path d="m638.09 335c0.43-1.76 7.6-1.82 7.59-0.2-2.55 0.08-5.08 0.14-7.59 0.2z" fill="#59592e"/>
  <path d="m555.35 338.11c12.4-2.52 31.17-0.67 45.99-0.81-15.31 1.37-30.67 0.38-45.99 0.81z" fill="#44440d"/>
  <path d="m525.99 338.24c9.45-0.27 18.92-0.53 28.38 0-9.3 1.99-19.01 0.76-28.38 0z" fill="#77763d"/>
  <path d="m589.06 361.98c10.41-0.23 20.86-0.16 31.26 0.71-9.99-0.29-23.21 1.86-31.26-0.71z" fill="#4f5014"/>
  <path d="m568.16 372c4.02-1.16 17.66-2.77 21.8 0.01-7.28 0.04-14.54-0.04-21.8-0.01z" fill="#866a00"/>
  <path d="m555.33 374.06c4.23-0.84 8.5-1.83 12.83-2.06 7.26-0.03 14.52 0.05 21.8 0.01 3.35 1.16 12.39-1.42 14.03 1.98-4.04-2.15-24.45 0.27-10.8 1.97 25.74-2.85 59.35 14.52 58.47 43.6-3.69 9.36-7.63 20.45-17.47 24.94-7.67 3.67-9.73-8.26-17.19-5.44-8.98 1.54-23.6 0.43-26.25 11.7-3.33-0.31-6.12-4.51-8.8-6.93-1.64-0.72-3.43-0.84-5.18-0.87 3.37-0.77-0.99-2.56-1.89-3.84 6.67-7.18 16.68-6.42 25.49-8.48 12.55 17.59 32.33-8.12 27.51-22.38-3.39-18.44-24.48-31.02-42.57-30.34-9.82-2.16-21.57 2.7-29.98-3.86z" fill="#fad127"/>
  <path d="m593.19 375.96c-13.65-1.7 6.76-4.12 10.8-1.97 1.66 0.09 4.99 0.27 6.65 0.36 3.89 0.26 7.79 0.48 11.71 0.65 4.73 0.12 9.52 0.04 14.28-0.01 20.18 8.93 40.4 25.79 39.75 49.5-4.7 12.12-10.19 29.49-25.97 29.28-12.83-9.53-37.23-7.01-47.44 6.03-4.68-1.86-9.24-4.94-12.22-9.04 2.65-11.27 17.27-10.16 26.25-11.7 7.46-2.82 9.52 9.11 17.19 5.44 9.84-4.49 13.78-15.58 17.47-24.94 0.88-29.08-32.73-46.45-58.47-43.6z" fill="#f8c907"/>
  <path d="m520.57 379.96c7.04-6.1 21.65-2.75 31.45-5.81 5.65 0.97 1.7 4.32-2.62 3.86-9.56 1.13-19.17 3.31-28.83 1.95z" fill="#eec82b"/>
  <path d="m552.02 374.15c1.09-0.16 2.2-0.19 3.31-0.09 8.41 6.56 20.16 1.7 29.98 3.86 18.09-0.68 39.18 11.9 42.57 30.34 4.82 14.26-14.96 39.97-27.51 22.38 4.5-1.41 6.93 4.86 11.37 4.27 14.26-6.91 20.58-28.86 6.95-39.67-16.02-21.71-46.16-14.03-69.29-17.23 4.32 0.46 8.27-2.89 2.62-3.86z" fill="#f9d53b"/>
  <path d="m610.64 374.35c3.71-0.16 7.52-0.67 11.25-0.23l0.46 0.88c-3.92-0.17-7.82-0.39-11.71-0.65z" fill="#dabe43"/>
  <path d="m621.89 374.12c3.92 0.71 12.92-1.9 14.74 0.87-4.76 0.05-9.55 0.13-14.28 0.01l-0.46-0.88z" fill="#544000"/>
  <path d="m520.57 379.96c9.66 1.36 19.27-0.82 28.83-1.95 23.13 3.2 53.27-4.48 69.29 17.23 13.63 10.81 7.31 32.76-6.95 39.67-4.44 0.59-6.87-5.68-11.37-4.27-8.81 2.06-18.82 1.3-25.49 8.48-0.9-0.84-1.81-1.66-2.77-2.41-0.38-0.4-1.13-1.2-1.5-1.6-2.25-2.86-5.47-4.65-8.8-5.95 8.73-7.65 21.08-5.28 31.12-3.99 19.88-11.98 5.91-40.09-13.53-42.73-22.96-1.3-47-4.07-69.06 3.89-13.5 5.88-29.55 25.14-14.93 38.18 3.28 6.98 11.1 2.96 16.69 1.76 5.77-1.25 8.78 7.68 13.29 6.82 5.15-14.14 25.84-17.89 34.18-4.7-13.56-4.49-24.56 4.8-32.33 14.83-7.1-8.93-18.9-9.67-28.5-4.71-14.31-7.19-19.59-26.93-7.79-39.6 6.59-8.45 20.95-15.13 26.89-18.1l0.09-0.92c0.66 0.02 1.98 0.05 2.64 0.07z" fill="#f8d74e"/>
  <path d="m508.31 381.04c0.87-2.72 6.88-0.69 9.62-1.15l-0.09 0.92c-3.21 0.27-6.35-0.05-9.53 0.23z" fill="#886f17"/>
  <path d="m485.19 397.94c6.93-6.11 15.01-12.65 23.12-16.9 3.18-0.28 6.32 0.04 9.53-0.23-5.94 2.97-20.3 9.65-26.89 18.1-17.28 12.43-6.88 33.4 7.02 41.77 11.29-5.46 23.22-2.69 30.69 6.03 6.84-17.72 27.53-22.39 41.95-11.6 0.37 0.4 1.12 1.2 1.5 1.6-17.07-5.99-32.03 4.1-40.15 18.26-3.35 5.48-6.27-4.6-8.69-6.21-8.65-6.3-19.89-2.84-29.06 0.2-8.75-7.29-17.96-17.29-17.88-29.43 2.44-8.38 7.01-15.84 12.47-22.55-1.21 0.28-2.42 0.61-3.61 0.96z" fill="#fad127"/>
  <path d="m510.34 386.33c22.06-7.96 46.1-5.19 69.06-3.89 19.44 2.64 33.41 30.75 13.53 42.73-10.04-1.29-22.39-3.66-31.12 3.99-0.56-0.19-1.68-0.58-2.24-0.77-8.34-13.19-29.03-9.44-34.18 4.7-4.51 0.86-7.52-8.07-13.29-6.82-5.59 1.2-13.41 5.22-16.69-1.76-14.62-13.04 1.43-32.3 14.93-38.18m19.13-1.79c-7.46 1.88-18.83-0.19-23.48 7.54-12.64 3.81-13.37 21.9-1.56 26.75 6.85-2.46 12.39 1.45 18.14 2.89 5.26-10.72 18.51-10.94 26.44-2.72 6.11-4.84 14.24-5.06 20.95-1.26 9.05-4.15 11.86-17.34 4.89-24.63-10.95-13.25-30.29-10.06-45.38-8.57z" fill="#f8df76"/>
  <path d="m529.47 384.54c15.09-1.49 34.43-4.68 45.38 8.57 6.97 7.29 4.16 20.48-4.89 24.63-6.71-3.8-14.84-3.58-20.95 1.26-7.93-8.22-21.18-8-26.44 2.72-5.75-1.44-11.29-5.35-18.14-2.89-11.81-4.85-11.08-22.94 1.56-26.75-7.86 4.13-5.26 20.1 4.27 18.1 4.5-2.69 8.42 6.25 11.73-0.24 6.41-8.65 14.45 3.84 22.81-1.1 11.9 2.58 14.77-16.64 4.53-20.47-14.14-3.36-30.53-4.39-43.34 3.71 4.65-7.73 16.02-5.66 23.48-7.54z" fill="#f6e49a"/>
  <path d="m505.99 392.08c12.81-8.1 29.2-7.07 43.34-3.71 10.24 3.83 7.37 23.05-4.53 20.47-8.36 4.94-16.4-7.55-22.81 1.1-3.31 6.49-7.23-2.45-11.73 0.24-9.53 2-12.13-13.97-4.27-18.1m13.64-3.56c-9.13-0.61-21.53 10.74-12.8 18.79 6.74-2.31 12.03 5.86 17.05-1.69 9.3 0.13 27.51 7.23 30.08-6.65-3.52-14.66-23.55-11.41-34.33-10.45z" fill="#f5e7ac"/>
  <path d="m519.63 388.52c10.78-0.96 30.81-4.21 34.33 10.45-2.57 13.88-20.78 6.78-30.08 6.65-5.02 7.55-10.31-0.62-17.05 1.69-8.73-8.05 3.67-19.4 12.8-18.79z" fill="#f4eac1"/>
  <path d="m485.19 397.94c1.19-0.35 2.4-0.68 3.61-0.96-5.46 6.71-10.03 14.17-12.47 22.55-0.08 12.14 9.13 22.14 17.88 29.43 9.17-3.04 20.41-6.5 29.06-0.2 2.42 1.61 5.34 11.69 8.69 6.21 8.12-14.16 23.08-24.25 40.15-18.26 0.96 0.75 1.87 1.57 2.77 2.41 0.9 1.28 5.26 3.07 1.89 3.84-6.44 0.79-13.66-1.63-19.73 0.9-8.3 8.31-19.76 13.66-23.11 26.06-4.45-9.01-13.19-15.77-23.59-16.41-7.04 1.72-13.56 5.95-20.86 6.41-8.98-10.08-19.54-21.17-19.98-35.38 4.31-9.25 6.94-20.53 15.69-26.6z" fill="#f5c70b"/>
  <path d="m497.97 440.68c-13.9-8.37-24.3-29.34-7.02-41.77-11.8 12.67-6.52 32.41 7.79 39.6 9.6-4.96 21.4-4.22 28.5 4.71 7.77-10.03 18.77-19.32 32.33-14.83 0.56 0.19 1.68 0.58 2.24 0.77 3.33 1.3 6.55 3.09 8.8 5.95-14.42-10.79-35.11-6.12-41.95 11.6-7.47-8.72-19.4-11.49-30.69-6.03z" fill="#f9d53a"/>
  <path d="m557.04 443.86c6.07-2.53 13.29-0.11 19.73-0.9 1.75 0.03 3.54 0.15 5.18 0.87-8.31 0.14-16.62 0.51-24.91 0.03z" fill="#bea331"/>
  <path d="m557.08 458c10.34-10.89 37.31 0.54 36.73 15.77-0.34 4.62-0.73 9.26-0.86 13.9-2.91 5.51-8.82 12.49-15.83 11.07-3.75-0.2-7.48-0.38-11.21-0.56-7.92-0.88-15.58-6.2-16.72-14.51l-0.23-0.76c5.58 10.38 17.57 11.14 28 11.11 10.23-3.51 11.43-15.25 11.77-24.47-4.88-10.24-19.73-14.71-29.79-11.89-0.55 0.26-1.63 0.77-2.18 1.03l0.32-0.69z" fill="#e30908"/>
  <path d="m558.94 457.66c10.06-2.82 24.91 1.65 29.79 11.89-0.34 9.22-1.54 20.96-11.77 24.47-10.43 0.03-22.42-0.73-28-11.11-1.53-3.76-2.12-7.92-1.6-11.95-2.23 18.9 33.66 28.44 33.94 6.04 4.26-13.71-11.8-19.29-22.36-19.34z" fill="#fb2a29"/>
  <path d="m549.19 483.67c-6.94-5.91-4.06-25.04 7.89-25.67l-0.32 0.69c-4.07 3.28-10.17 6.04-9.4 12.27-0.52 4.03 0.07 8.19 1.6 11.95l0.23 0.76z" fill="#a81616"/>
  <path d="m556.76 458.69c0.55-0.26 1.63-0.77 2.18-1.03 10.56 0.05 26.62 5.63 22.36 19.34-0.28 22.4-36.17 12.86-33.94-6.04-0.77-6.23 5.33-8.99 9.4-12.27m-7.05 9.1c-5.88 14.37 20.93 26.71 25.76 10.17 6.98-15.95-20.66-24.48-25.76-10.17z" fill="#fb5656"/>
  <path d="m549.71 467.79c5.1-14.31 32.74-5.78 25.76 10.17-4.83 16.54-31.64 4.2-25.76-10.17-1.66 9.93 12.64 18.55 19.04 9.96 4.65-8.51-3.36-17.78-12.82-14.39-2.06 1.45-3.86 3.25-5.65 5.02l-0.57-0.59z" fill="#fa8483"/>
  <path d="m618.16 460.92c12.36-3.25 30.67 1.85 33.63 16.88-2.54 6.25-4.68 12.68-6.9 19.03-7.83 3.98-23.53 7.62-27.03-3.65 13.04 10.54 29.8-5.15 26.96-19.05-5.09-10.85-15.55-13.63-26.66-13.21z" fill="#e30808"/>
  <path d="m616.51 462.86c-0.68-0.99-0.12-1.63 1.65-1.94 11.11-0.42 21.57 2.36 26.66 13.21 2.84 13.9-13.92 29.59-26.96 19.05-1.95-2.13-3.5-4.59-4.79-7.16-0.46-0.9-0.9-1.79-1.35-2.67 0.69-2.28 2.17-0.18 3.21 0.64 5.61 17.76 30.1 1.47 23.65-12.32-4.07-9-13.52-9.37-22.07-8.81z" fill="#f72a2a"/>
  <path d="m555.93 463.36c9.46-3.39 17.47 5.88 12.82 14.39-6.4 8.59-20.7-0.03-19.04-9.96l0.57 0.59c0.26 6.33 8.68 11.38 13.16 5.7 3.42-6.46-3.25-8.49-7.51-10.72z" fill="#fab1b2"/>
  <path d="m608.79 479.66c-1.03-6.6-0.08-15.37 7.72-16.8 8.55-0.56 18-0.19 22.07 8.81 6.45 13.79-18.04 30.08-23.65 12.32 5.32 4.78 17.23 4.27 17.66-4.55 6.38-10.6-10.74-19.12-18.65-13.65-1.27 1.06-2.46 2.25-3.37 3.65-1.85 4.43-0.2 8.9 3.47 11.56 0.28 0.99 0.58 1.99 0.89 2.99-1.04-0.82-2.52-2.92-3.21-0.64-0.95-1.26-1.96-2.47-2.93-3.69z" fill="#f85655"/>
  <path d="m550.28 468.38c1.79-1.77 3.59-3.57 5.65-5.02 4.26 2.23 10.93 4.26 7.51 10.72-4.48 5.68-12.9 0.63-13.16-5.7z" fill="#fad6d6"/>
  <path d="m613.94 465.79c7.91-5.47 25.03 3.05 18.65 13.65-0.43 8.82-12.34 9.33-17.66 4.55-0.31-1-0.61-2-0.89-2.99 6.2 4.5 14.24-0.25 14.64-7.69-2.29-6-8.71-8.11-14.74-7.52z" fill="#fa8383"/>
  <path d="m505.21 465.79c-2.51-1.3 11.84-0.57 9.6 1.19-1.8-0.02-3.59-0.08-5.37-0.24-1.42-0.31-2.83-0.63-4.23-0.95z" fill="#7f0909"/>
  <path d="m503.24 467.98c-0.17-1.1 0.49-1.83 1.97-2.19 1.4 0.32 2.81 0.64 4.23 0.95 9.91 0.26 12.73 11.81 17.36 18.44-2.35 11.2-17.06 17.09-26.86 11.36-3.31-4.92-7.67-8.94-11.24-13.63 0.58-0.81 1.32-1.43 2.23-1.86 4.36 14.03 24.04 19.02 30.84 4.47-1.33-9.14-8.03-18.85-18.53-17.54z" fill="#f82828"/>
  <path d="m610.57 469.44c0.91-1.4 2.1-2.59 3.37-3.65 6.03-0.59 12.45 1.52 14.74 7.52-0.4 7.44-8.44 12.19-14.64 7.69-0.5-1.55-0.98-3.09-1.48-4.63 2.66 2.07 7.03 4.02 9.03 0 5.45-6.43-8.44-13.32-10.75-5.36-0.07-0.39-0.2-1.18-0.27-1.57z" fill="#fbb0b0"/>
  <path d="m509.44 466.74c1.78 0.16 3.57 0.22 5.37 0.24 9.48 0.31 11.07 13.5 16.7 19.46-0.6 8.34-10.86 16.33-18.42 16.35-3.01-0.32-5.93-0.57-8.91-0.9-6.85-2.61-14.78-12.27-15.48-18.98 3.57 4.69 7.93 8.71 11.24 13.63 9.8 5.73 24.51-0.16 26.86-11.36-4.63-6.63-7.45-18.18-17.36-18.44z" fill="#db0a09"/>
  <path d="m610.84 471.01c2.31-7.96 16.2-1.07 10.75 5.36-2 4.02-6.37 2.07-9.03 0-0.63-1.77-1.32-3.52-1.72-5.36z" fill="#fbd4d4"/>
  <path d="m503.24 467.98c10.5-1.31 17.2 8.4 18.53 17.54-6.8 14.55-26.48 9.56-30.84-4.47 1.03-1.56 2.37-2.87 3.77-4.08-2.07 12.8 16.04 19.72 22.58 7.28 0.63-7.66-6.89-15.22-14.95-14.42 0.23-0.46 0.68-1.39 0.91-1.85z" fill="#f95756"/>
  <path d="m614.04 481c-3.67-2.66-5.32-7.13-3.47-11.56 0.07 0.39 0.2 1.18 0.27 1.57 0.4 1.84 1.09 3.59 1.72 5.36 0.5 1.54 0.98 3.08 1.48 4.63z" fill="#f58483"/>
  <path d="m494.7 476.97c2.31-2.57 4.48-5.54 7.63-7.14 8.06-0.8 15.58 6.76 14.95 14.42-6.54 12.44-24.65 5.52-22.58-7.28m6.5-4.22c-1.98 1.29-3.26 3.35-4.46 5.32-2.93 7.12 12.17 13.02 15.26 4.84 3.21-5.45-7.62-15.07-10.8-10.16z" fill="#f78181"/>
  <path d="m501.2 472.75c3.18-4.91 14.01 4.71 10.8 10.16-3.09 8.18-18.19 2.28-15.26-4.84 3.86 13.6 19.14-3.94 4.46-5.32z" fill="#fbb0b0"/>
  <path d="m496.74 478.07c1.2-1.97 2.48-4.03 4.46-5.32 14.68 1.38-0.6 18.92-4.46 5.32z" fill="#fad4d4"/>
  <path d="m592.95 487.67c0.13-4.64 0.52-9.28 0.86-13.9-0.93 3.7 2.08 12.18-0.86 13.9z" fill="#670101"/>
  <path d="m608.79 479.66c0.97 1.22 1.98 2.43 2.93 3.69 0.45 0.88 0.89 1.77 1.35 2.67-2.6-1.15-4.05-3.59-4.28-6.36z" fill="#9f1517"/>
  <path d="m540.13 492.25c13.38 20.48 48.3 23.22 61.22 1.09 5.35 4.45 15.88 11.09 13.48 20.33-3.95 30.46-11.18 60.47-13.07 91.2-0.33 2.72-0.58 5.55-0.74 8.32-0.91 10.58-2.06 21.15-3.25 31.71-0.34 2.72-0.64 5.54-0.76 8.32 0 5.57-0.73 11.08-1.27 16.61-0.33 3-0.51 6.12-0.81 9.16-0.33 2.32-0.62 4.65-0.87 7.01-2.71 13.87-3.08 28.49-1.25 42.39 0.1 5.54 0.07 11.09 0.15 16.65-0.04 15.11 0.37 30.25 1.77 45.31 0.12 6.52 0.24 13.07 0.26 19.62-0.03 11.86-0.01 23.73 0.02 35.6-6.11 11.4-14.25 9.26-20.23 0.17-7.84-0.94-16.11-1.99-23.87-0.09-4.41 13.54-26 11.53-18.69-4.42 0.33-3.23 0.81-6.32 0.78-9.52 0.38-3.2-0.71-6.65 0.41-9.68 12.52-0.66 22.04-14.82 36.26-7.12 4.52 7.27 11.45 6.93 16.61 0.51 5.16-3.37 1.71-11.23 2.63-16.18-2.75-49.9-4.21-99.94-0.92-149.81 3.99-35.87 5.38-72.13 14.39-107.24 4.96-10.58 0.49-23.62-10.86-25.91-12.31 16.43-39.56 13.26-51.72-2.14-5 3.27-8.83 13.72-14.31 12.17-6.37-14.72 4.47-24.71 14.64-34.06z" fill="#f9c907"/>
  <path d="m565.91 498.18c3.73 0.18 7.46 0.36 11.21 0.56-3.9 0.47-7.64 0.28-11.21-0.56z" fill="#630000"/>
  <path d="m504.18 501.89c2.98 0.33 5.9 0.58 8.91 0.9-2.58-0.74-7.3 1.51-8.91-0.9z" fill="#590101"/>
  <path d="m525.49 526.31c5.48 1.55 9.31-8.9 14.31-12.17 12.16 15.4 39.41 18.57 51.72 2.14 11.35 2.29 15.82 15.33 10.86 25.91-9.01 35.11-10.4 71.37-14.39 107.24-6.47 49.82-3.18 100.26-0.54 150.22-0.62 5.24 1.52 10.89-1.17 15.77-5.16 6.42-12.09 6.76-16.61-0.51-14.22-7.7-23.74 6.46-36.26 7.12-2.27-6.04-0.55-12.59-0.18-18.8 0.28-2.81 0.67-5.47 0.96-8.22 0.2-1.58 0.6-4.75 0.8-6.34 7.19 4.01 9.96-6.77 17.06-5.63 11.85-4.14 20.01 14.94 28.09 0.6 1.97-40.88-3.34-82.41-1.17-123.58 5.25-29.27 3.64-59.53 11.52-88.41 2.43-12.71 9.48-31.29-7.37-36.67-8.32 13.41-29.28 13.97-39.42 2.19-5.19-5.88-9.18 3.14-12.82 6.12-1.96-2.86-2.32-14.62-4.24-7.17-0.65-3.24-1.09-6.52-1.15-9.81z" fill="#fbd228"/>
  <path d="m526.64 536.12c1.92-7.45 2.28 4.31 4.24 7.17 3.64-2.98 7.63-12 12.82-6.12 10.14 11.78 31.1 11.22 39.42-2.19 16.85 5.38 9.8 23.96 7.37 36.67-7.88 28.88-6.27 59.14-11.52 88.41-2.17 41.17 3.14 82.7 1.17 123.58-8.08 14.34-16.24-4.74-28.09-0.6 7.13-1 14.74-2.45 19.41 4.67 4.62-0.76 8.61-6.71 8.04-11.7-3.75-65.88-3.58-132.12 7.12-197.35 3.29-12.6 12.59-33.53-3.62-40.56-8.28 11.59-28.52 11.83-39.41 2.15-6.13-6.75-8.5 6.23-15.06 5-0.79-3.05-1.07-6.12-1.89-9.13z" fill="#f9d43a"/>
  <path d="m528.53 545.25c6.56 1.23 8.93-11.75 15.06-5 10.89 9.68 31.13 9.44 39.41-2.15 16.21 7.03 6.91 27.96 3.62 40.56-10.7 65.23-10.87 131.47-7.12 197.35 0.57 4.99-3.42 10.94-8.04 11.7-4.67-7.12-12.28-5.67-19.41-4.67-7.1-1.14-9.87 9.64-17.06 5.63 0.06-7.36 0.09-14.71 0.17-22.05 2.11-4.09 1.34-8.63 0.85-12.98 4.66 8.73 10.04-5.41 16.78-2.27 6.82-1.31 13.74 9.76 18.57 0.44 0.92-26.85-0.74-54.27-1.37-81.36 4.94-33.34 4.94-67.25 12.39-100.24 2.16-5.85-2.87-10.31-7.49-13.03-8.3 10.11-25.15 10.07-33.35 0-3.77 1.01-10.01 5.19-10.44 8.14-0.34-6.73-3.03-13.31-2.57-20.07z" fill="#f8d74d"/>
  <path d="m531.1 565.32c0.43-2.95 6.67-7.13 10.44-8.14 8.2 10.07 25.05 10.11 33.35 0 4.62 2.72 9.65 7.18 7.49 13.03-7.45 32.99-7.45 66.9-12.39 100.24 1.59-31.95 3.51-64.26 10.56-95.52 0.48-6.11 1.27-13.63-6.36-15.66-8.33 10.87-25.94 8.58-34.2-1.22-2.36 3.14-4.51 7.04-8.89 7.27z" fill="#f8db63"/>
  <path d="m539.99 558.05c8.26 9.8 25.87 12.09 34.2 1.22 7.63 2.03 6.84 9.55 6.36 15.66-7.05 31.26-8.97 63.57-10.56 95.52 0.63 27.09 2.29 54.51 1.37 81.36-4.83 9.32-11.75-1.75-18.57-0.44-6.74-3.14-12.12 11-16.78 2.27 0.71-11.98 0-24.01 0.89-35.96-0.21 15.62 12.64-1.55 18.78 5.63 6.02 5.06 11.18-4.87 9.2-10.15-3.49-41.39-0.52-83.34 7.06-124.14 2.08-5.36-4.73-14.34-9.72-7.83-8.8 9.78-24.69-11.34-27.14 5.3-0.26 1.77-0.26 3.58-0.19 5.38-1.86-4.62 1.29-13.63-3.89-16.19-0.07-3.48-0.33-6.92 0.1-10.36 4.38-0.23 6.53-4.13 8.89-7.27z" fill="#f8df76"/>
  <path d="m531 575.68c5.18 2.56 2.03 11.57 3.89 16.19 0.64 7.57 1.29 15.16 1.26 22.78-1.66 32.8 0.09 65.81 0.63 98.64 0.02 1.46 0.07 2.92 0.12 4.39-0.89 11.95-0.18 23.98-0.89 35.96 0.49 4.35 1.26 8.89-0.85 12.98-0.2-0.66-0.61-1.98-0.82-2.64-0.29-3.49-0.18-6.96-1.15-10.32-0.42-18.56-0.09-37.11-0.17-55.66-0.87-18.42 1.51-37.12-0.81-55.4-0.74-15.64 0.66-31.33-0.88-46.93-0.3-6.67-0.72-13.34-0.33-19.99z" fill="#f5d139"/>
  <path d="m525.17 576.97c2.1 26.15 0.38 53.02 0.54 79.43-1.8-26.37-0.25-52.98-0.54-79.43z" fill="#2b2c16"/>
  <path d="m535.08 586.49c2.45-16.64 18.34 4.48 27.14-5.3 4.99-6.51 11.8 2.47 9.72 7.83-7.58 40.8-10.55 82.75-7.06 124.14 1.98 5.28-3.18 15.21-9.2 10.15-6.14-7.18-18.99 9.99-18.78-5.63-0.05-1.47-0.1-2.93-0.12-4.39 0.43-2.47 0.91-4.91 1.43-7.32 2.03 4.79-3.95 21.07 5.46 15.32 6.3-5.38 21.34 7.62 19.35-6.66-3.89-41.58-0.39-83.64 6.57-124.7 2.38-6.98-4.17-11.46-8.67-5.83-9.72 8.8-20.18-11.96-25.84 2.39z" fill="#f7e289"/>
  <path d="m535.08 586.49c5.66-14.35 16.12 6.41 25.84-2.39 4.5-5.63 11.05-1.15 8.67 5.83-6.96 41.06-10.46 83.12-6.57 124.7 1.99 14.28-13.05 1.28-19.35 6.66-9.41 5.75-3.43-10.53-5.46-15.32 0.25-5.77 0.46-11.54-0.21-17.27 2.04 7.06 8.75-1.37 12.56 3.7 8.32 2.39 6.8-9.01 6.78-14.44-3.09-25.18 2.27-50.3 3.44-75.21-3.36-7.36-10.97 3.85-16.08-1.43-8.01-4.84-7.77 4.9-6.98 9.77 2.73 14.46-0.36 29.14 1.56 43.68-0.29 2.5-0.64 5.01-1.05 7.53-1.31-15.85-0.5-31.81-2.08-47.65 0.03-7.62-0.62-15.21-1.26-22.78-0.07-1.8-0.07-3.61 0.19-5.38z" fill="#f6e59c"/>
  <path d="m531.33 595.67c1.54 15.6 0.14 31.29 0.88 46.93-2.62-12.68-0.86-31.8-0.88-46.93z" fill="#6b5809"/>
  <path d="m537.72 611.09c-0.79-4.87-1.03-14.61 6.98-9.77 5.11 5.28 12.72-5.93 16.08 1.43-1.17 24.91-6.53 50.03-3.44 75.21 0.02 5.43 1.54 16.83-6.78 14.44-3.81-5.07-10.52 3.36-12.56-3.7-0.45-8.81 0.15-17.61 0.23-26.4 0.41-2.52 0.76-5.03 1.05-7.53 1.83 11.66-0.49 23.44 0.88 35.11 4.91-0.21 9.83-0.61 14.74-0.14-0.47-28.71 0.74-57.86 4.2-86-7.77 3.05-22.88-7.53-21.38 7.35z" fill="#f5e7ac"/>
  <path d="m537.72 611.09c-1.5-14.88 13.61-4.3 21.38-7.35-3.46 28.14-4.67 57.29-4.2 86-4.91-0.47-9.83-0.07-14.74 0.14-1.37-11.67 0.95-23.45-0.88-35.11-1.92-14.54 1.17-29.22-1.56-43.68z" fill="#f4eac1"/>
  <path d="m601.02 613.19c0.16-2.77 0.41-5.6 0.74-8.32-0.16 2.66 1.3 6.32-0.74 8.32z" fill="#5b3f00"/>
  <path d="m536.15 614.65c1.58 15.84 0.77 31.8 2.08 47.65-0.08 8.79-0.68 17.59-0.23 26.4 0.67 5.73 0.46 11.5 0.21 17.27-0.52 2.41-1 4.85-1.43 7.32-0.54-32.83-2.29-65.84-0.63-98.64z" fill="#f8dc6d"/>
  <path d="m605.15 643.15c-0.12-5.12 0.27-10.26 0.67-15.34 0.15 5.12-0.3 10.22-0.67 15.34z" fill="#343523"/>
  <path d="m532.21 642.6c2.32 18.28-0.06 36.98 0.81 55.4h-1c0.07-18.47-0.34-36.95 0.19-55.4z" fill="#c0a121"/>
  <path d="m597.01 653.22c0.12-2.78 0.42-5.6 0.76-8.32-0.17 2.66 1.28 6.28-0.76 8.32z" fill="#7b6000"/>
  <path d="m587.45 799.65c-2.64-49.96-5.93-100.4 0.54-150.22-3.29 49.87-1.83 99.91 0.92 149.81-0.92 4.95 2.53 12.81-2.63 16.18 2.69-4.88 0.55-10.53 1.17-15.77z" fill="#fbcf18"/>
  <path d="m594.93 678.99c0.3-3.04 0.48-6.16 0.81-9.16-0.7 2.61 1.65 7.39-0.81 9.16z" fill="#8d7001"/>
  <path d="m592.81 728.39c-1.83-13.9-1.46-28.52 1.25-42.39-0.49 13.8-1.47 27.56-1.21 41.39l-0.04 1z" fill="#ddbc3b"/>
  <path d="m532.02 698h1c0.08 18.55-0.25 37.1 0.17 55.66-2.71-15.71-0.53-37.6-1.17-55.66z" fill="#382300"/>
  <path d="m526.25 708.7c1.56 14.16 0.59 28.41 0.44 42.63-1.41-14.18-0.55-28.43-0.44-42.63z" fill="#6e6f59"/>
  <path d="m592.85 727.39c2.14 2.61 1.13 12.15 1.1 17.67l-0.99-0.02c-0.08-5.56-0.05-11.11-0.15-16.65l0.04-1z" fill="#9d7e04"/>
  <path d="m592.96 745.04l0.99 0.02c-0.22 7.41 0.02 14.85 0.72 22.26 0.48 7.32 0.64 14.69 0.1 22.04l-0.04 0.99c-1.4-15.06-1.81-30.2-1.77-45.31z" fill="#e3c034"/>
  <path d="m593.95 745.06c2.69 5.04 0.44 15.26 0.72 22.26-0.7-7.41-0.94-14.85-0.72-22.26z" fill="#493800"/>
  <path d="m533.19 753.66c0.97 3.36 0.86 6.83 1.15 10.32-3.03-1.63-0.78-7.24-1.15-10.32z" fill="#816a10"/>
  <path d="m534.34 763.98c0.21 0.66 0.62 1.98 0.82 2.64-0.08 7.34-0.11 14.69-0.17 22.05-0.2 1.59-0.6 4.76-0.8 6.34 0.06-10.34-0.9-20.73 0.15-31.03z" fill="#d0b54c"/>
  <path d="m594.77 789.36c2.58 3.63 0.81 14.5 1.22 20.7l-1-0.09c-0.02-6.55-0.14-13.1-0.26-19.62l0.04-0.99z" fill="#8d7100"/>
  <path d="m526.2 802.23c0.27-4.15 0.46-8.31 0.65-12.43-0.25 4.13-0.48 8.26-0.65 12.43z" fill="#706f5b"/>
  <path d="m533.23 803.23c0.22-2.57-1.36-6.7 0.96-8.22-0.29 2.75-0.68 5.41-0.96 8.22z" fill="#806c1f"/>
  <path d="m594.99 809.97l1 0.09 0.03 1c0.18 11.07-0.83 22.24 0.65 33.27 1.38 3.14-0.77 5.11-1.66 1.24-0.03-11.87-0.05-23.74-0.02-35.6z" fill="#e6c22e"/>
  <path d="m596.02 811.06c2.25 8.87 0.74 22.52 0.65 33.27-1.48-11.03-0.47-22.2-0.65-33.27z" fill="#392900"/>
  <path d="m532.22 841.23c0.5-2.99-1.46-7.16 0.78-9.52 0.03 3.2-0.45 6.29-0.78 9.52z" fill="#bd9c17"/>
  <path d="m522.92 851.79c0.39-2.94 0.67-5.98 1.02-8.88-0.1 2.99-0.55 5.88-1.02 8.88z" fill="#3f4024"/>
  <path d="m550.91 845.65c7.76-1.9 16.03-0.85 23.87 0.09-7.96 0.41-15.94 0.55-23.87-0.09z" fill="#ad9127"/>
  <path d="m550.42 859.54c10.54-10.69 35.02 1.04 28.38 16.14-0.54 9.29-12.25 16.39-20 10.28-2.54-0.48-5-0.67-7.5-0.99-4.8-7.42-3.68-17.35-0.88-25.43z" fill="#c43204"/>
  <path d="m602.53 857.97c-0.45-1.36 11.47-2.18 10.89-0.04-3.64-0.01-7.27 0-10.89 0.04z" fill="#84270a"/>
  <path d="m592.97 866.38c1.37-3.79 5.88-6.7 9.56-8.41 3.62-0.04 7.25-0.05 10.89-0.04 3.77 6.87 10.06 14.06 8.4 22.54-8.55 5.17-19.67 13.16-28.91 3.98 0.04-6.04 0.09-12.05 0.06-18.07z" fill="#c53304"/>
  <path d="m508.37 875.79c-4.18-17.76 30.79-19.11 29.32-1.06 1.03 10.46-13.15 20.73-21.82 16.21-10.37 1.33-5.88-8.97-7.5-15.15z" fill="#c43304"/>
  <path d="m592.91 884.45c-0.83-1.84-2.63-15.53 0.06-18.07 0.03 6.02-0.02 12.03-0.06 18.07z" fill="#7f2103"/>
  <path d="m508.37 875.79c1.62 6.18-2.87 16.48 7.5 15.15-11.28 4.19-7.82-8.49-7.5-15.15z" fill="#6a1600"/>
  <path d="m551.3 884.97c2.5 0.32 4.96 0.51 7.5 0.99-2.32-0.48-6.28 1.07-7.5-0.99z" fill="#541603"/>
  <path d="m536.8 895.8c13.62-10.3 33.55 8.72 45.39-6.69 5.81 5.78 25.04 22.65 29.71 7.78 12.66 9.83 25.27 26.87 20.79 43.82-0.66 7.07-0.89 14.19-0.76 21.32 3.16 21.6-3.47 45.37-18.6 61.17-7.39-0.2-14.78-0.2-22.16-0.2-24.36-3.2-50.5-4.8-73.82 3-8.96-17-18.12-33.88-28.24-50.12 3.1-16.98 2.58-34.63 5.26-51.53 5.34-20.24 27.39-19 42.43-28.55z" fill="#326596"/>
  <path d="m631.93 962.03c-0.13-7.13 0.1-14.25 0.76-21.32-0.48 6.62 2.02 16.31-0.76 21.32z" fill="#284158"/>
  <path d="m480.9 955.04c-1.97-2.24-0.66-5.47 0-7.92-0.07 2.61-0.08 5.25 0 7.92z" fill="#5e5e49"/>
  <path d="m591.17 1023c7.38 0 14.77 0 22.16 0.2-2.91 0.3-18.3 2.9-22.16-0.2z" fill="#253d56"/>
  <path d="m545.11 1033c2.13-2.5 8.84-0.8 12.9-1l-0.1 1h-12.8z" fill="#dfc144"/>
  <path d="m558.01 1032c2.06 0.6 8.46-1.4 8.72 1.2-2.99-0.2-5.87-0.1-8.82-0.2l0.1-1z" fill="#6c5705"/>
  <path d="m534.15 1035.4c3.67-0.7 7.15-2.5 10.96-2.4h12.8c2.95 0.1 5.83 0 8.82 0.2 3.09 0.2 6.27 0.7 9.4 0.8 14.98 1.1 30.54 2.6 43.93 9.9-7.53 22.7-28.4-1.4-44.05 4.1-3.85 0-7.69 0-11.51 0.2-10.13-9.8-28.07 2.1-41.55 1.7-3.08 0.2-6.09 0.3-9.12 0.7-17.86 1-2.68-15 7.55-14.5 4.23-0.3 8.55 0 12.77-0.7z" fill="#f6c70a"/>
  <path d="m566.73 1033.2c2.76 0.5 7.37-1.5 9.4 0.8-3.13-0.1-6.31-0.6-9.4-0.8z" fill="#b79914"/>
  <path d="m521.38 1036.1c1.9-2.6 8.78-0.7 12.77-0.7-4.22 0.7-8.54 0.4-12.77 0.7z" fill="#442e00"/>
  <path d="m564.5 1048.2c3.82-0.2 7.66-0.2 11.51-0.2-0.82 1.5-11.93 2.3-11.51 0.2z" fill="#937802"/>
  <path d="m513.83 1050.6c3.03-0.4 6.04-0.5 9.12-0.7-2.04 2.5-6.3 0.7-9.12 0.7z" fill="#846901"/>
  <path d="m534.81 1062c16.45-12.4 36.53 0.4 54.54-0.2 13.46-2.2 27.99 6.3 30.24 20-2.45 11-5.23 22.2-13.89 30-14.91-4.1-30.36-4.1-45.69-2.8-5.8-0.2-11.58 0.2-17.35 0.6-8.41 0-16.56 2.7-24.99 2.3-3.43-7.4-9.14-14.1-10.66-22.2-0.04-6.5-0.02-12.9-0.09-19.3 9-3 18.13-13.4 27.89-8.4z" fill="#326495"/>
  <path d="m507.01 1089.7c-1.84-3.1-1.73-16.4-0.09-19.3 0.07 6.4 0.05 12.8 0.09 19.3z" fill="#0e2640"/>
  <path d="m542.66 1109.6c5.77-0.4 11.55-0.8 17.35-0.6-3.75 2.6-11.98 0.4-17.35 0.6z" fill="#13273d"/>
  <path d="m576.24 1118c-0.9-1.9 8.55-1.8 8.59 0-2.92-0.1-5.72 0-8.59 0z" fill="#4c3600"/>
  <path d="m502.05 1134c20.69-18.1 49.6-9 74.19-16 2.87 0 5.67-0.1 8.59 0 9.75 1.9 19.09 6.5 29.2 7 0.55 4.5 0.8 9.2 1.08 13.8-11.67-1.8-23.04-5.2-34.88-6.1-5.14-0.9-10.32-0.4-15.45 0-2.88 0.1-5.66 0.3-8.5 0.1-3.5-0.5-6.99-0.5-10.48-0.1-14.4-2.5-33.81 17.1-43.75 1.3z" fill="#f5c70b"/>
  <path d="m614.03 1125c3.78 0.7 2.86 11.7 1.08 13.8-0.28-4.6-0.53-9.3-1.08-13.8z" fill="#695001"/>
  <path d="m545.8 1132.7c3.49-0.4 6.98-0.4 10.48 0.1-3.53-0.1-6.98 0.1-10.48-0.1z" fill="#775b00"/>
  <path d="m564.78 1132.7c5.13-0.4 10.31-0.9 15.45 0-5.17 0.1-10.31 0.5-15.45 0z" fill="#785e01"/>
  <path d="m514.3 1153.3c22.69-6.2 45.95-10.1 69.44-11.2 12.68 3.9 25.21 8.5 37.91 12.2 3.82 7.2 11.4 13.6 10.08 22.5-0.24 3.8-0.44 7.6-0.59 11.4-1.51 23.5-13.61 45.2-26.1 64.8-5.34 11-22.86 3.5-28.2 14.9-6.78-3.6-12.22-9.3-19.06-12.8-8.41 2.1-16.49 5.7-21.95 12.7-6.52-4.3-12.95-8.4-21.01-8.4-9.12-13.2-17.53-27.1-27.6-39.6-13.15-24.9 1.66-56.8 27.08-66.5z" fill="#326596"/>
  <path d="m631.14 1188.2c0.15-3.8 0.35-7.6 0.59-11.4 0.46 3.9 0.27 7.7-0.59 11.4z" fill="#0e2842"/>
  <path d="m548.18 1269c8.7 1.2 20.19 0.1 19.99 12.5 0.1 3.3 0.15 6.9-1.72 9.9-6.75 5-17.83 3.2-22.3-4.1 0.38-6.2 1.11-12.8 4.03-18.3z" fill="#c33305"/>
  <path d="m596.72 1271.4c15.06-3.4 15.36 17.9 7.65 25.9-9.19 13.3-29.43-5.7-21.25-17.9 4.72-2.3 8.6-6.3 13.6-8z" fill="#c33204"/>
  <path d="m510.99 1278.4c3.9-8.3 22.49-6.3 19.96 4.9 0.02 2.4 0.03 4.9 0.05 7.3-3.26 9.1-12.43 9-19.88 6-0.09-6.1-0.14-12.1-0.13-18.2z" fill="#c33305"/>
  <path d="m511.12 1296.6c-1.27-2.2-2.76-15.8-0.13-18.2-0.01 6.1 0.04 12.1 0.13 18.2z" fill="#721a02"/>
  <path d="m568.17 1281.5c1 1.2 2.81 9.6-1.72 9.9 1.87-3 1.82-6.6 1.72-9.9z" fill="#6f260f"/>
  <path d="m530.95 1283.3c1.76 0.1 1.75 7.3 0.05 7.3-0.02-2.4-0.03-4.9-0.05-7.3z" fill="#6b1601"/>
  <path d="m540.29 1301c10.38 4.8 27.03 9 33.87-3.2 3.28 5.1 5.94 10.6 8.1 16.3 0.09 20.3-1.36 40.7 0.66 60.9 0.55 2.9 0.13 6.2 0.84 9.3 0.18 2.8 0.3 5.5 0.56 8.4-0.26 3.3-0.87 7.2 0.72 10.3 0.27 3 0.17 6.2 0.68 9.3 0.14 2.4 0.34 4.9 0.62 7.4-0.27 3-0.58 6.4 0.7 9.3 0.14 4.3-0.04 8.6 0.01 13-0.03 6.3-0.67 12.8 0.57 19.2 6.03 30.7 10.88 61.7 17.93 92.2 8.13 17.6 9.54 38.3 22.85 53.2 12.34 17.9 24.51 36.1 37.47 53.5 34.16 27.1 66.71 56.3 101.13 83.1-1.93 3.5-5.12 7.9-9.69 7.3-29.63-1.5-58.02 9.8-87.52 10.1-9.41 1.2-18.02 6.2-27.65 6.2-28.67-1.8-57.44-0.4-86.15-0.7-10.22-1.7-20.6-1.2-30.89-1.1-7.72-0.1-15.43 0.1-23.12 0-11.55-1.9-23.2-0.7-34.81-1-48.08-8.9-97.57-11-145.18-22.8 9.47-7 19.9-12.5 29.1-19.9 52.18 6.8 104.06 18.2 156.86 18.2 26.09 1.5 52.21 0.4 78.32 1.5 16.61 0.9 34.08 3.8 49.9-3 21.73-0.5 43.38-6.4 64.2-10.9 7.02-1.6 23.16 4.4 23.44-6.9-28.09-22.8-55.39-46.8-83.86-69.2-17.45-26.1-40.72-49.7-47.91-81-18.33-55.5-19.49-114.4-22.96-172.2-1.85-17.7 5.28-38.6-6.98-53.8-7.04 7.3-22.76 8.3-28.03-1.4 0.04-2.8 0.01-5.6 0.1-8.3 0.43-6.2 0.91-12.3 0.75-18.5-1.63-6.1-2.96-13.2 5.37-14.8z" fill="#faca05"/>
  <path d="m582.26 1314.1c1.77 20.2 0.26 40.6 0.66 60.9-2.02-20.2-0.57-40.6-0.66-60.9z" fill="#b1972b"/>
  <path d="m534.17 1334.3c-0.13-6.2 0.13-12.4 0.75-18.5 0.16 6.2-0.32 12.3-0.75 18.5z" fill="#483100"/>
  <path d="m523.19 1368.1c-0.01-12.7-0.96-25.5 0.65-38.2-0.05 12.7 0.9 25.5-0.65 38.2z" fill="#404028"/>
  <path d="m591.28 1333.8c0.42 3.1 0.24 6.1 0.39 9.4-0.37-3.1-0.34-6.4-0.39-9.4z" fill="#484734"/>
  <path d="m534.07 1342.6c5.27 9.7 20.99 8.7 28.03 1.4 12.26 15.2 5.13 36.1 6.98 53.8 3.47 57.8 4.63 116.7 22.96 172.2 7.19 31.3 30.46 54.9 47.91 81 28.47 22.4 55.77 46.4 83.86 69.2-0.28 11.3-16.42 5.3-23.44 6.9-38.22 4.5-75.33 15.7-114.1 13.9-26.11-1.1-52.23 0-78.32-1.5-52.8 0-104.68-11.4-156.86-18.2-6.17-3.8 11.62-12.3 16.78-15.3 7.3-4.5 15.92-5.8 24.23-3.3 68.85 12.9 138.69 14.5 208.56 14.3 26.33-7.8 54.73-8.2 81.31-14.1 7.59-1.3-0.03-6.8-2.29-8.7-17.5-13-32.95-28.5-50.47-41.4-21.19-13.5-30.9-37.9-46.23-56.8-22.33-61-27.84-126.9-26.05-191.5 0.36-6.1-2.52-11.9-6.27-16.5-6.72 2.6-15.43 8-21.6 1.2-0.29-8.4-0.14-16.8-0.22-25.2-0.02-3.7 0.36-7.1-0.22-10.7-4.1-5.3 3.04-6.7 5.45-10.7z" fill="#fbd228"/>
  <path d="m527.88 1363.8c0.28-3.5 0.53-7 0.74-10.5 0.58 3.6 0.2 7 0.22 10.7l-0.96-0.2z" fill="#9b8118"/>
  <path d="m527 1381.2c-0.14-5.8 0.34-11.6 0.88-17.4-0.03 5.7 0.05 11.4 0.05 17.2l-0.93 0.2z" fill="#493d02"/>
  <path d="m527.88 1363.8l0.96 0.2c0.08 8.4-0.07 16.8 0.22 25.2 6.17 6.8 14.88 1.4 21.6-1.2 3.75 4.6 6.63 10.4 6.27 16.5-1.79 64.6 3.72 130.5 26.05 191.5 15.33 18.9 25.04 43.3 46.23 56.8 17.52 12.9 32.97 28.4 50.47 41.4 2.26 1.9 9.88 7.4 2.29 8.7-26.58 5.9-54.98 6.3-81.31 14.1-69.87 0.2-139.71-1.4-208.56-14.3-8.31-2.5-16.93-1.2-24.23 3.3 3.01-1.9 5.79-4.2 7.88-7 46.62 4.7 92.6 16.7 139.67 14.6 33.34-1.2 67.99 6.6 100.37-3 20.95 0.2 40.82-8 61.73-8.1 3.57 0.1 6.57-4.2 2.02-6-18.77-14.1-35.44-30.8-54.5-44.5-17.42-11.7-26.06-31.4-38.42-47.6-12.7-14.7-12.45-35.3-19.28-52.7-10.43-47.5-13.69-96.4-12.02-145 0.05-5.4-1.7-12.4-6.19-15.6-9.03 6.5-25.88 4.2-21.2-10.1 0-5.8-0.08-11.5-0.05-17.2z" fill="#f9d53b"/>
  <path d="m582.92 1375c1.42 2.8 0.62 6.1 0.84 9.3-0.71-3.1-0.29-6.4-0.84-9.3z" fill="#6b5300"/>
  <path d="m527 1381.2l0.93-0.2c-4.68 14.3 12.17 16.6 21.2 10.1 4.49 3.2 6.24 10.2 6.19 15.6-1.67 48.6 1.59 97.5 12.02 145 6.83 17.4 6.58 38 19.28 52.7 12.36 16.2 21 35.9 38.42 47.6 19.06 13.7 35.73 30.4 54.5 44.5 4.55 1.8 1.55 6.1-2.02 6-20.91 0.1-40.78 8.3-61.73 8.1-32.38 9.6-67.03 1.8-100.37 3-47.07 2.1-93.05-9.9-139.67-14.6 1.24-7 18.77-14 25.36-21.8l0.72 0.2c24.08 8.7 51.21 6.4 76.08 12.9 30.09 1.3 60.36-0.1 90.5 1.5 6.63 0.3 13.83-0.2 19.5-4 16.02-0.9 31.43-6.2 47.54-6.1 2.6-0.2 7.03-1.1 6.5-4.6-21.12-22.4-52.65-35.5-67.07-64-19.85-21.2-21.7-51.6-27.87-78.6-1.42-30.3-4.75-60.6-3.2-90.9 0.2-2-1.29-3.5-2.62-4.6-3.17-10-13.06 1.5-19.65-4 0.55-8.4 0.34-16.8 0.3-25.2-0.02-5.4 2.31-11.1-0.66-16 3.08-4.4 9.17-5.2 5.82-12.6z" fill="#f8d74e"/>
  <path d="m584.32 1392.7c0.73 3.4 0.44 6.8 0.72 10.3-1.59-3.1-0.98-7-0.72-10.3z" fill="#a58b24"/>
  <path d="m585.04 1403c1.2 2.9 0.63 6.1 0.68 9.3-0.51-3.1-0.41-6.3-0.68-9.3z" fill="#624901"/>
  <path d="m516.95 1435c9.85-2.7 0.98-17.9 4.89-25.2 0.04 8.4 0.25 16.8-0.3 25.2h-4.59z" fill="#9d8b48"/>
  <path d="m586.34 1419.7c0.36 3.1 0.42 6.1 0.7 9.3-1.28-2.9-0.97-6.3-0.7-9.3z" fill="#8a7316"/>
  <path d="m587.04 1429c1.76 4 0.75 8.8 0.99 13.1l-0.98-0.1c-0.05-4.4 0.13-8.7-0.01-13z" fill="#463100"/>
  <path d="m521.54 1435c6.59 5.5 16.48-6 19.65 4 1.23 31.8 0.03 64.2 5.82 95.5 6.17 27 8.02 57.4 27.87 78.6 14.42 28.5 45.95 41.6 67.07 64 0.53 3.5-3.9 4.4-6.5 4.6-16.11-0.1-31.52 5.2-47.54 6.1-62.17 5.4-124.69 0.4-186.08-10.4l-0.72-0.2c-0.15-6.3 18.84-13.6 23.6-22.1 28.63 7.4 58.46 11.1 88.1 10.4 18.06-0.6 36.53 3.7 54.1-2.4 0.38 0 1.15-0.1 1.53-0.1 11.35-1 22.63-3.2 33.94-4.6 2.3-5.2-5.68-8.1-8.46-11.4-21.59-16.2-44.83-34.5-52.86-61.6-9.06-30.9-11.53-63.4-10.38-95.5 0.53-4.8-1.88-9.1-4.73-12.7-3.83 1.3-9.87 5.2-11.72-0.4 0.67-10.4 0.91-20.7 0.62-31 0.49-3.5 0.83-7.1 1.23-10.6l0.87-0.2h4.59z" fill="#f8de77"/>
  <path d="m541.19 1439c1.33 1.1 2.82 2.6 2.62 4.6-1.55 30.3 1.78 60.6 3.2 90.9-5.79-31.3-4.59-63.7-5.82-95.5z" fill="#f8db62"/>
  <path d="m587.05 1442l0.98 0.1c-0.03 6.4-0.33 12.7-0.41 19.1-1.24-6.4-0.6-12.9-0.57-19.2z" fill="#d2b021"/>
  <path d="m509.98 1479.6c1.98-11.2 1.39-22.9 4.87-33.8 0.29 10.3 0.05 20.6-0.62 31-0.31 1.7-2.07 2.2-3.44 3l-0.81-0.2z" fill="#262215"/>
  <path d="m514.23 1476.8c1.85 5.6 7.89 1.7 11.72 0.4 2.85 3.6 5.26 7.9 4.73 12.7-1.15 32.1 1.32 64.6 10.38 95.5 8.03 27.1 31.27 45.4 52.86 61.6 2.78 3.3 10.76 6.2 8.46 11.4-11.31 1.4-22.59 3.6-33.94 4.6 8.88-6.4 23.61-1.7 31.4-6.8-14.16-16.8-37.42-26.5-48.2-46.8-16.28-19.3-17.12-45.9-21.29-69.7-3.7-19.5 2.94-40.6-4.61-59.2-4.95 1.7-10.12 1.2-14.95-0.7 1.37-0.8 3.13-1.3 3.44-3z" fill="#f6e189"/>
  <path d="m509.37 1482.1c0.15-0.6 0.46-1.9 0.61-2.5l0.81 0.2c4.83 1.9 10 2.4 14.95 0.7 7.55 18.6 0.91 39.7 4.61 59.2 4.17 23.8 5.01 50.4 21.29 69.7 10.78 20.3 34.04 30 48.2 46.8-7.79 5.1-22.52 0.4-31.4 6.8-0.38 0-1.15 0.1-1.53 0.1-46.63 1.7-95.14 2-141.18-9.2 0.76-1 1.53-2 2.32-2.9 4.59-1.6 8.25-5 11.88-8.1 4.52-3.1 8.36-6.9 11.66-11.2 0.22 1.1-0.8 2.9 0.58 3.5 32.43 5.8 66.06 9.4 98.63 2.6 2.87-1.4 11.05 0.5 11.13-4.5-12.67-12.1-29.18-21-36.12-38.1-4.58-8.2-3.29-18.2-7.72-26.5-2.19-13.3-1.93-26.8-2.2-40.3 0.12-4.9-5.54-4.9-9.24-5.6 0.67-5.3 1.71-10.6 2.49-15.8 1.5-8.3 0.79-16.6 0.23-24.9z" fill="#f5e59d"/>
  <path d="m509.37 1482.1c0.56 8.3 1.27 16.6-0.23 24.9 0.03-7.8-0.34-15.5-0.22-23.2 0.11-0.4 0.34-1.3 0.45-1.7z" fill="#c1b78e"/>
  <path d="m502.87 1531.8c0.39-3.6-1.24-8.9 3.78-9 3.7 0.7 9.36 0.7 9.24 5.6 0.27 13.5 0.01 27 2.2 40.3-0.75 28.3 19.48 49.8 41.2 64.8-34.4 9.6-70.87 6-105.93 0.6 0.29-1.6 0.71-3.1 1.17-4.6 1.92-1 3.86-2.1 5.61-3.4 19.89-15 36.96-36.8 39.79-62.2 1-5.4 1.56-10.8 2.03-16.3 0.42-5.3 0.74-10.5 0.91-15.8z" fill="#f4eac2"/>
  <path d="m428.05 1651c31.52-35.3 57.07-75.3 74.82-119.2-0.17 5.3-0.49 10.5-0.91 15.8-0.2 0.4-0.59 1.2-0.78 1.6-9.86 14.8-14.83 32.3-25.07 46.9-8.87 17.9-26.17 29.6-36.18 46.8-3.63 3.1-7.29 6.5-11.88 8.1z" fill="#efc92a"/>
  <path d="m501.18 1549.2c0.19-0.4 0.58-1.2 0.78-1.6-0.47 5.5-1.03 10.9-2.03 16.3-9.07 23.4-23.01 43.8-39.79 62.2-1.75 1.3-3.69 2.4-5.61 3.4l-0.65 0.4c20.1-23.7 40.23-49.8 47.3-80.7z" fill="#f7df7a"/>
  <path d="m476.11 1596.1c10.24-14.6 15.21-32.1 25.07-46.9-7.07 30.9-27.2 57-47.3 80.7-0.79 0.5-1.56 1.1-2.29 1.8-3.3 4.3-7.14 8.1-11.66 11.2 10.01-17.2 27.31-28.9 36.18-46.8z" fill="#f8d74f"/>
  <path d="m460.14 1626.1c16.78-18.4 30.72-38.8 39.79-62.2-2.83 25.4-19.9 47.2-39.79 62.2z" fill="#f6e59f"/>
  <path d="m518.09 1568.7c4.43 8.3 3.14 18.3 7.72 26.5 6.94 17.1 23.45 26 36.12 38.1-0.08 5-8.26 3.1-11.13 4.5-32.57 6.8-66.2 3.2-98.63-2.6-1.38-0.6-0.36-2.4-0.58-3.5 0.73-0.7 1.5-1.3 2.29-1.8l0.65-0.4c-0.46 1.5-0.88 3-1.17 4.6 35.06 5.4 71.53 9 105.93-0.6-21.72-15-41.95-36.5-41.2-64.8z" fill="#f5e7af"/>
  <path d="m424.71 1655.1c0.26-0.3 0.76-0.9 1.02-1.2 46.04 11.2 94.55 10.9 141.18 9.2-17.57 6.1-36.04 1.8-54.1 2.4-29.64 0.7-59.47-3-88.1-10.4z" fill="#f7e28a"/>
  <path d="m401.83 1677.4c61.39 10.8 123.91 15.8 186.08 10.4-5.67 3.8-12.87 4.3-19.5 4-30.14-1.6-60.41-0.2-90.5-1.5-24.87-6.5-52-4.2-76.08-12.9z" fill="#f8db62"/>
  <path d="m586.27 1741c38.77 1.8 75.88-9.4 114.1-13.9-20.82 4.5-42.47 10.4-64.2 10.9-15.82 6.8-33.29 3.9-49.9 3z" fill="#fbcf16"/>
  <path d="m276.81 1766.2c9.59-6.1 20.16-10.5 29.42-17.1 18.21 4.8 37.11 6.3 55.52 10.2 3 0.9 6.06 1.7 9.21 1.9 15.18 2.9 30.5 5.3 45.9 7 2.7 0.2 5.47 0.7 8.2 0.9 0.46 0 1.38 0.1 1.84 0.1 3.69 0.3 7.4 0.6 11.11 0.9l0.92 0.1c2.73 0.1 5.52 0.6 8.29 0.8 12.32 0.8 24.6 2.7 36.68 5.2 40.72 1.4 81.65 1.1 122.39 0.2 3.33-0.4 6.81-0.2 10.06-1.2 3.12-0.2 6.33-0.2 9.48-0.3 3.77-0.1 7.56-0.4 11.35-0.6 4.57-0.5 9.15-1.1 13.76-1.3 3.07-0.3 6.27-0.1 9.36-0.6 31.07-3 61.64-9.9 92.68-13.2 3.21-0.2 6.31-1.1 9.39-1.9 5.68 0 11.28-1.5 15-6 15.25 3.6 25.32 18.1 40.44 21.8 1.82 0.8 1.64 4.4-0.7 4-21.09 2.8-41.04 11-62.08 13.8-3.89 0.2-7.68 1.1-11.49 1.8-25.35 7.3-52.88 7.5-79.45 11.3-2.84 0-5.56 0.4-8.33 0.6-2.93 0-5.73 0.4-8.61 0.4-3.25-0.2-6.39 0-9.51 0.8-7.11 0.2-14.22 0.2-21.31 0-7.42-0.6-14.87-1.1-22.3-0.8-9.26 0.1-18.52 0.2-27.76-0.3-21.31-1.7-42.7-0.1-64.04-0.9-6.73-0.5-13.45-1.1-20.19-0.8-4.96 0-9.89 0.2-14.82-0.2-3.45-0.5-6.83-0.8-10.28-0.9-4.63 0.1-9.2-0.6-13.77-1.1-3.14-0.5-6.2-0.7-9.34-0.8-24.64-1.6-49.3-4.8-73.56-9.3-3.4-0.9-6.77-1.6-10.24-1.8-24.88-5.4-49.83-12.8-73.22-22.7z" fill="#c83202"/>
  <path d="m752.98 1759.2c1.63-2.7 6.43-1.8 9.39-1.9-3.08 0.8-6.18 1.7-9.39 1.9z" fill="#5c1405"/>
  <path d="m361.75 1759.3c2.9 0.1 7.62-0.8 9.21 1.9-3.15-0.2-6.21-1-9.21-1.9z" fill="#6b1c07"/>
  <path d="m467.17 1764c11.61 0.3 23.26-0.9 34.81 1l-0.98-0.1c-11.27 0-22.66 0.9-33.83-0.9z" fill="#bb9913"/>
  <path d="m501 1764.9l0.98 0.1c7.69 0.1 15.4-0.1 23.12 0l-0.2 1c-7.98 0.2-16.03 0.2-23.9-1.1z" fill="#644e01"/>
  <path d="m525.1 1765c10.29-0.1 20.67-0.6 30.89 1.1-10.36-0.4-20.74 0.1-31.09-0.1l0.2-1z" fill="#e5c746"/>
  <path d="m555.99 1766.1c28.71 0.3 57.48-1.1 86.15 0.7-28.71-0.2-57.51 1.3-86.15-0.7z" fill="#a8890b"/>
  <path d="m416.86 1768.2c2.58 0.2 6.51-1.3 8.2 0.9-2.73-0.2-5.5-0.7-8.2-0.9z" fill="#571704"/>
  <path d="m426.9 1769.2c4.01-0.5 7.71-0.2 11.11 0.9-3.71-0.3-7.42-0.6-11.11-0.9z" fill="#621402"/>
  <path d="m438.93 1770.2c2.66 0.2 6.23-1.2 8.29 0.8-2.77-0.2-5.56-0.7-8.29-0.8z" fill="#601b08"/>
  <path d="m650.94 1773c2.01-2.7 6.49-0.6 9.36-0.6-3.09 0.5-6.29 0.3-9.36 0.6z" fill="#652009"/>
  <path d="m625.83 1774.9c3.57-1 7.36-1.2 11.35-0.6-3.79 0.2-7.58 0.5-11.35 0.6z" fill="#71260c"/>
  <path d="m606.29 1776.4c0.73-3.3 7.24-0.8 10.06-1.2-3.25 1-6.73 0.8-10.06 1.2z" fill="#5a0c00"/>
  <path d="m483.9 1776.2c40.79-0.2 81.61-0.6 122.39 0.2-40.74 0.9-81.67 1.2-122.39-0.2z" fill="#7c2c12"/>
  <path d="m350.03 1788.9c3.47 0.2 6.84 0.9 10.24 1.8-2.82-1.1-8.34 1-10.24-1.8z" fill="#6a1b09"/>
  <path d="m743.54 1792.7c3.81-0.7 7.6-1.6 11.49-1.8-2.26 2.8-8.02 1.1-11.49 1.8z" fill="#5f1705"/>
  <path d="m433.83 1800c3.14 0.1 6.2 0.3 9.34 0.8-2.84-0.8-7.22 1.5-9.34-0.8z" fill="#7a1e03"/>
  <path d="m456.94 1801.9c3.45 0.1 6.83 0.4 10.28 0.9-2.84-1-8.35 1.8-10.28-0.9z" fill="#741b02"/>
  <path d="m482.04 1803c6.74-0.3 13.46 0.3 20.19 0.8-5.9-1.1-16.19 2.4-20.19-0.8z" fill="#843216"/>
  <path d="m502.23 1803.8c21.34 0.8 42.73-0.8 64.04 0.9-20.61-0.5-45.56 2.2-64.04-0.9z" fill="#641300"/>
  <path d="m655.76 1804.6c2.77-0.2 5.49-0.6 8.33-0.6-1.65 2.3-5.74 0.5-8.33 0.6z" fill="#611100"/>
  <path d="m594.03 1805c7.43-0.3 14.88 0.2 22.3 0.8-6.57-0.9-17.71 2.3-22.3-0.8z" fill="#7c2c13"/>
  <path d="m637.64 1805.8c3.12-0.8 6.26-1 9.51-0.8-2.09 2.5-6.56 0.6-9.51 0.8z" fill="#792c11"/>
  <path d="m616.33 1805.8c7.09 0.2 14.2 0.2 21.31 0-3.03 1.4-18.32 2.9-21.31 0z" fill="#580c00"/>
  <path d="m463.87 1812.2c4.76 0.1 9.5 0.2 14.26 0.6-4.76 0-9.53-0.4-14.26-0.6z" fill="#3a3a3a"/>
  <path d="m632.73 1812.6c5.82-0.4 11.66-0.5 17.52-0.3-5.83 0.6-11.7 0.5-17.52 0.3z" fill="#373737"/>
  <path d="m516.95 1814.1c8.56-0.6 17.14 0 25.68 0.9h-25.18l-0.5-0.9z" fill="#494949"/>
  <path d="m598.37 1815c2.89-0.5 5.8-0.3 8.77-0.5l-0.87 0.5h-7.9z" fill="#494949"/>
 </g>
</svg>
