<?xml version="1.0" encoding="UTF-8"?>
<svg width="1203pt" height="1352pt" version="1.1" viewBox="0 0 1203 1352" xmlns="http://www.w3.org/2000/svg">
 <defs>
  <filter id="a" color-interpolation-filters="sRGB">
   <feColorMatrix values="1 0 0 0 0 0 1 0 0 0 0 0 1 0 0 0 0 0 1000 -500 "/>
  </filter>
 </defs>
 <g filter="url(#a)">
  <path d="m267.26 0h6.31c-3.13 10.37-8.43 20.01-11.05 30.52 9.24-0.92 20.25 3 27.79-4.38 2.21-3.92 6.44-1.57 6.5 1.74-5.62 7.21-11.26 14.44-16.65 21.83 7.87 0.3 19.44 3.42 26.58-2.76 4.29 10.1-9.09 15.66-12.1 23.57 1.91 1.6 8.65 1.66 11.88-0.57 2.92-3.63 9.8-0.3 7.1 4.52-4.64 14.48-30.41 25.93-9.45 38.6 5.53-8.19 5.8-18.61 9.05-27.73 16.3-23.11 54.72-24.22 69.09 1.93-0.12 8.17-0.01 16.35-0.3 24.52-0.29 2.51-0.74 5-0.89 7.53 57.86-0.52 115.75-0.86 173.59 0.91 29.15 1.59 58.38 0.61 87.56 0.51 71.86-0.22 143.1 13.4 212.01 32.99 49.14 11.09 93.44 35.87 137.09 59.9 44.93 39.93 100.53 73.69 124.83 131.21 28.5 50.79 32.8 110.32 39.6 166.97-0.2 2.76-0.3 5.6-0.6 8.4-1.8 16.68-2 33.64-4.8 50.15-15.6 42.93-28.4 87.08-49.1 127.97 17.6 5.21 46.4-4.32 58.9 16.57 10.9 10.45 17.1 23.63 19.9 38.33 0 3.19 0.2 6.52 0.1 9.76 0.6 34.22-24.5 79.01-64.1 70.94-3.8-0.3-7.6-0.55-11.3-0.75-5 1.73-19.2-5.89-17.4 3.13 26.6 40.29 63.1 74.41 83.8 118.54 15.6 24.15 25.7 50.75 31.8 78.85v12c-0.4 4.1-0.9 8.2-1.2 12.3-0.4 4.3-0.7 8.8-0.2 13.1-1.4 11.7-5.7 25.5-16.8 31.8-29.8 27.8-70.5 37-106.9 53-21.6 10.2-45.1 14.1-68 20-23.37 7.2-47.32 12.7-71.79 14.2-2.78 0.1-5.41 0.3-8.1 0.6-4.45 9 1.65 20.6 3.01 30.1 19.63 17.2 39.81 34 61.45 48.7 10.73 9.9 12.93 24.8 10.13 38.7-18.8 11.7-40.61 17-62.09 21.3-48.3 13.6-98.86 14.6-148.19 22.5h-43.67c-25.03-1.3-50.38-2.1-75.34 0h-20.86c-36.18-5.4-72.94-7.3-108.79-14.7-28.97-9.3-59.04-15.8-86.41-29.4-15.46-5.3-7.69-25.7-7.75-37.4 28.13-20 53.26-43.9 75.77-69.8 0.86-7.2 0.61-14.5 0.62-21.8 0.04-1.5 0.1-4.7 0.14-6.2-17.11-12.4-39.26-14-56.35-26.4-32.73-22.1-63.3-47.3-94.44-71.5-38.16-43.3-69.11-92.92-94.37-144.67-36.55-72.73-55.11-152.58-71.12-231.91-10.95-72.18-24.34-144.02-33.47-216.45-11.12-30.91-21.1-61.94-37.6-90.43-8.25-18.63-10.51-39.46-18.76-58.09-13.57-12.45-20.57-29.87-26.02-47.03-27.99-22.9-43.77-56.63-58.11-88.97-1.51-11.92-17.1-9.43-22.63-18.39-8.47-8.01-13.11-18.61-15.16-29.94v-3.55c7.2-2.24 4.37-9.77 4.76-15.51 10.72-26.6 31.62-49.8 59.7-58.36 23.49-12.34 50.75-11.54 75.92-18.21 9.62-2.66 19.53-0.31 29.22 0.57 7.15-9.46 12.13-21.71 24.04-26.14 13.48-10.02 32.24-3.9 46.19-12.96 9.01-5.23 19.65-7.47 27.43-14.76m-7.71 13.74c-3.68 5.17-11.33 3.69-14.49 9.57-21.39 5.9-56.2 1.89-61.55 29.02 37.44 5.88 72.03 20.86 103.84 41.28 5.77-1.86 10.79-9.04 14.11-14.1-5.64-2-18.48 3.59-19.65-5.45 5.19-4.78 10.04-10.1 11.97-17.15-7.79 1.35-16.14 1.77-22.83-3.25 0.56-6.9 8-11.12 8.82-17.6-10.33-0.08-21.75 11.43-29.5-0.17 2.76-5.09 7.81-8.82 9.79-14.33 2.21-0.06 1.22-10.79-0.51-7.82m-108.64 45.69c3.34 3.33 7.96 7.4 11.98 8.11 1.11 2.12 2.75 3.94 5.2 4.42 10.35 8.62 21.8 21.22 17.69 35.62-9.09 19.08-33.21 12.9-49.82 17.44-19.49 1.04-48.47-1.3-56.17-22.83 0.07-11.39 8.14-21.62 11.86-32.35-35.45 10.22-77.38 29.26-82.34 70.51-2.29 6.15 5.46 5.5 9.63 6.23 6.31 0.78 12.7 0.57 19.04 0.35 9.4 0.34 18.83 0.14 28.24 0.01 1.54 3.05 10.37 0.03 14.1 0.97 1.53 3.04 12.53 0.19 16.69 1.07 4.65 0.3 9.31 0 13.96 0.01 8.33 2.8 23.97 1.05 33.22-0.03 3.51 0.24 7.01 0.04 10.51-0.24 2.61-0.16 6.55 1.38 8.25-1.07 3.09 0.6 6.15-0.01 9.23-0.49 3.49-0.15 6.97-0.33 10.46-0.59 4.74 0.49 12.94 1.44 14.98-0.94 5.1 0.72 10.27 0.46 15.4 0.3 4.29 0.1 12.11 1.01 13.63-1.23 4.79 0.21 13.17 1.43 15.12-0.85 4.73 0.41 9.48 0.26 14.22 0.11 4.67 0.03 12.78 0.98 14.67-1.26 4.4-0.05 9.86 1.57 13.49-0.79 8.25-4.5 13.68 7.16 21.03 0.27 5.98-4.86 12.08 2.15 18.74-0.16 2.05 2.57 11.58 1.38 12.98-0.1 14.59 1.55 27.5-7.44 33.58-20.36 15.83-15.56 2.75-48.29-19.37-46.6-0.63-1.89-10.1-1.63-8.67 0.05-12.36 2.54-25.16 12.28-27.49 24.86-1.91 2.59-0.43 6.18-0.7 9.13-1.49 5.18-3.84 13.16-9.01 14.84-13.1-10.04-21.34-26.33-37.2-32.88-13.52-5.69-25.15-15.05-38.63-20.68-11.48-0.36-22.38-4.15-33.64-5.94-1.78-2.47-6.17-0.6-8.76-1.23-2.06-2.12-5.9-0.63-8.66-1.04 0.72-1.8-5.11-1.23-6.95-0.82-6.81-0.77-13.59-2.92-20.49-1.82m-25.54 4.98c-7.3 0.78-30.93 12-14.93 18.04 13.25 5.82 15.1 20.08 17.25 32.65 0.79 7.12 16.49 1.13 17.56 2.27 4.25-1.36 7.19-5.09 5.79-9.89 1.6-17.38-8.14-38.67-25.67-43.07m22.42 5.78c10 11.99 9.97 27.79 12.72 42.45 6.59 2.04 12.2-2.82 17.25-6.33 2.02-17.78-14.82-30.93-29.97-36.12m-56.88 30.56c-7.75 8.27 6.53 14.94 14.1 13.26 1.85 2.74 12.4 0.77 12.39 0 3.11-9.24-6.59-20.57-12.97-27.76-9.94-3.57-14.33 6.25-13.52 14.5m359.15 25.37c-7.7-0.19-15.4-0.35-23.08-0.05-9.67-0.06-22.56-1.18-29.65 1.24-6.38-0.56-16.57-0.96-19.73 0.5-7.54 11.15-19.34 18.05-32.5 21.44-4.7-0.07-12.51-1.35-14.72 1.08-5.47 0.32-13.42-1.95-17.44 0.69-5.21-0.09-10.42 0.06-15.61 0.31-5.11 0.29-14.23-1.78-16.98 1.04-4.93-0.3-12.23-1.78-15.33 0.66-3.87-0.07-7.72 0.05-11.55 0.35-4.47-0.72-8.2-0.41-11.2 0.92-3.02-0.17-6.83-1.31-9.41 0.66-2.51 0.07-5.01 0.19-7.51 0.38-2.84 0.35-9.25-2.15-10.09 0.97-4.38-0.45-8.8-0.53-13.19-0.23-5.99-0.21-15.7-0.95-18.68 1.14-7.72-0.41-19.3-1.11-24.06 0.98-15.42-0.58-30.88-0.12-46.32-0.17-5.99-0.1-15.45-0.95-18.62 1.25-8.11-0.68-16.28-0.31-24.38 0.29-1.99-5.99-8.43-2.24-12.88-2.31-3.32-0.05-6.64-0.1-9.96-0.15-0.41-0.09-1.23-0.27-1.64-0.36-2.43-6.38-11.7-0.11-16.52-1.65-2.32 0.51-9.02-2.28-8.8 0.98-5.02 0.4-10.68-6.35-14.05 0.17 1.51 12.4 15.69 16.03 24.66 21.9 0.22 1.46 1.06 2.08 2.53 1.86 7.4 2.98 23.5 0.27 33.43 0.67 7.43 0.52 14.89 0.5 22.34 0.3 8.95 2.02 26.59 1.62 35.88 0.01 8.99 0 17.99 0.21 26.98-0.03 7.15 0 18.15 1.1 22.63-1.25 5.91-0.1 14.24 1.81 18.42-0.75 5.9 0.11 11.8 0.06 17.69-0.23 6.76-0.2 17.84 1.62 22-0.93 8.43 0.5 16.89 0.33 25.33 0.12 7.62 0.16 18.55 1.09 23.61-1.23 8.13 0.48 19.91 1.26 25.02-0.86 8.63 0.62 17.32 0.34 25.96-0.25 8.51 1.02 17.14 0.47 25.68-0.1 5.85 18.11 17.1 35.86 31.79 49.44 22.96-27.43 58.17-38.74 91.93-46.86-3.65-5.7-5.9-12.09-4.56-18.91 0.83-3.07 0.15-6.18-0.37-9.24-1.09-8.34 6.27-16.92 4.92-23.93-2.3-2.41-7.31-0.01-10.24-0.76-0.77-2.64-6.66-0.4-8.91-1.15-4.04 0.13-12.71-3.24-12.82 2.05m99.87 17.04c-2.61 0.76-0.98 11.34 0.37 11.51 0.18 4.94-1.46 14.7 0.6 16.82 7.58 10.81 25.48 4.04 36.96 6.5 2.78 3.05 9.49-0.23 13.42 0.75 4.19 0.2 8.38 0.14 12.6 0.25 2.76 3.03 9.37-0.2 13.26 0.8 1.89 3.21 9.57-0.1 13.14 0.99 4.17 0.2 8.35 0.09 12.56 0.21 2.82 3.05 9.51-0.18 13.47 0.83 3.82 3.38 16.48 0.08 22.85 0.92 16.01 0.25 31.01 6.45 46.7 8.22 33.32-6.81 65.76-18.34 99.63-22.55 7.33 1.73 11.22 10.11 10.95 17-8.37 7.94-16.33 16.54-25.27 23.93 24.79 7.68 51.34 11.71 74.8 23.7 17.83 8.43 38.3 11.42 53.93 24.07 22.84 16.36 47.25 30.94 67.9 50.08 22.5 26.29 48.7 52.19 57.1 86.91 13.9 34.28 22.6 70.31 26.9 106.91-4.8 41.43-9.9 82.94-25.4 121.97 15.2 3.55 30.6 6.3 46.2 7.77 5.6-22.83 15.4-44.49 21.4-67.12 2.4-5.63 0.4-17.84 0.8-25.86 3.5-3.43 0-14.41 0.9-20.08-0.3-35.75-4.5-71.78-12.8-106.59-13.2-34.08-18.3-73.69-45.8-100.2-23.3-34.64-59.6-56.34-90.16-83.83-93.77-65.21-209.49-85.77-320.72-98.56-19.44-1.08-38.94-0.44-58.4-0.29-1.76-3.22-9.55 0.06-13-1.03-2.11-3.15-10.24-0.02-14.11-0.91-3.81-0.12-7.61-0.23-11.4-0.34-2.48-1.69-5.66-0.69-8.45-0.76-12.82-5.65-19.17 7.47-20.93 17.98m-53.62-16.12c-6.01 1.63-7.55 10.53-10.36 15.33-2.33 4.51-1.03 21.23-0.07 25.01 0.92 3.43 2.88 6.65 5.73 8.82 2.27 1.25 24.67 1.72 24.09 0.14-9.31-12.76-7.64-30.17-2.57-44.51 8.25-8.1-15.22-9.13-16.82-4.79m19.87 31.69c5.36 5.81 6.21 20.69 16.83 16.28 0.38 1.86 9.76 1.78 8.76-0.07 0.43-3.89 0.38-7.77-0.16-11.64 0.23-3.37 1.28-7.51-0.64-10.48-0.45-7.3 2.99-13.94 4.1-20.99 7.15-9.67-9.35-5.88-16.13-6.52-12.47 5.04-10.28 22.31-12.76 33.42m312.34 18.87c-41.52 8.79-82.84 20.07-121.27 38.52 2.69 5.06 8.68 7.44 12.27 11.84-0.63 7.24-0.64 14.51-0.25 21.77-5.19 6.68-12.24 11.64-18.05 17.73-1.32 4.49 5.93 4.73 8.5 5.19 41.76-29.32 87.59-53.59 125.89-87.19 0.77-4.06-1.23-11.29-7.09-7.86m-483.12 2.85c-6.8 3.82-25.15-0.53-19.51 12.33 17.15 27.02 32.41 55.04 58.89 73.63 1.98 11.39 11.86 19.03 16.22 29.59 12.57 16.09 16.04 38.26 32.16 49.79-0.93-38.02-21.28-71.66-41.29-102.66-16.85-17.31-27.83-38.93-40.85-59.06-1.39-1.82-2.87-4.95-5.62-3.62m-151.64 5.81c-3.4-0.38-7.04-0.56-8.8 2.86 14.99 16.68 25.39 37.75 44.36 50.56 29.31 22.05 54.67 48.63 80.38 74.64 9.03 11.04 12.3 25.59 21.24 36.74 13.03 12.46 25.22 25.81 37.47 39.07 1.37-26.68-17.02-49.44-27.56-72.95-25.8-27.8-50.71-56.63-79.11-81.89-14.7-12.13-17.18-33.83-27.16-48.36-6.6-3.83-29.42 0.77-40.82-0.67m52.42-0.4c3.59 8.77 3.23 19.03 9.4 26.63 29.04 40.95 69.99 71.59 101.13 110.81 13.13 22.83 28.11 44.6 45.93 64.05-13.47-43.97-33.63-88.36-68.93-119.06-18.76-18.84-35.73-39.46-50.53-61.53-4.62-6.15-2.9-18.27-10.13-21-3.73-0.56-7.48-0.75-11.24-0.57-5.22-0.06-10.45 0.03-15.63 0.67m38.98-0.83c2.97 22.28 20.43 39.08 33.87 55.94 24.7 31.79 58.18 57.58 72.91 96.06 10.24 12.78 21.88 24.82 34.07 35.87-5.4-24.14-16.93-46.14-27.47-68.41-13.19-7.73-9.47-26.25-23.59-33.46-24.36-24.64-46.2-53.43-60.16-85.12-3.46-0.92-7.12-1.16-10.97-0.73-6.21-0.35-12.45-0.3-18.66-0.15m188.92 5.28c-2.64 0.08-6-1.28-8.16 0.63-11.28 3.65-21.2 11.17-32.95 14.06-15.77 2.98-23.63 18.39-33.94 29.02 26.22 36.84 42.76 80.02 48.75 124.8 0.08 3.86-4.02 4.73-6.73 6.13 9.37 21.32 24.51 39.06 39.32 56.75 1.49 1.37 3.57 1.26 5.44 1 2.71 0.14 5.43 0.16 8.14-0.01 26.63-6.43 59.83-11.43 71.23-40.48 11.75-18.57 4.51-41.63-1.63-60.89-2.03-16.76 10.65-29.53 19.74-42.03 43.22-32.83 91.07-59.33 141.04-80.43-4.46-2.73-9.75-3.49-14.74-4.74-3.94-3.4-17.15 0.01-23.73-0.85-8.61 0.29-16.02-5.43-24.65-4.32-4.61-2.36-11.22-0.19-16.44-0.69-16.24-0.25-32.44-1.78-48.69-1.21-3.5-3.29-12.37 0.24-17.33-0.79-35.01-2.03-70.07-2.2-104.67 4.05m-316.42-1.76c-8.48 0.68-16.97 1.17-25.4 2.34 23.6 43.12 65.46 70.47 106.32 95.51 36.16 35.37 72.16 72.42 98.67 115.57-0.63-15.2-8.45-28.51-13.93-42.32-13.32-47.31-57.39-74.86-91.57-106.41-22.33-17.88-37.75-42.43-56.6-63.63-5.56-2.37-11.68-1.45-17.49-1.06m-112.06 0.61c0.1 22.1 16.05 39.35 27.1 57.15 27.7 46.87 77.71 71.35 121.35 100.65 3.1 5.99 6.54 11.56 13.32 13.63 14.08 15.76 22.9 35.55 34.96 52.72 4.74 14.18 2.19-17.54 2.84-21.97-6.61-28.12-25.3-54.79-44.84-76.67-37.51-32.4-79.8-59.98-112.14-97.89-4.4-10.21-9.58-27.46-23.37-25.04-7.26 4.4-11.82-5.74-19.22-2.58m42.58 3.86c-1.38 8.2 5.87 13.75 9.78 20.03 9.18 11.09 15.52 25.03 28.08 32.91 44.53 30.93 81.45 71.48 127.12 100.86 15.56 13.13 26.72 30.68 41.89 44.22-6.83-24.44-14.43-50.63-33.73-68.36-12.1-13.2-21.51-29.7-38.44-37.56-30.57-15.68-54.89-40.11-80.38-62.62-6.33-9.23-10.88-19.66-17.52-28.72-7.61-4.85-28.06-1.08-36.8-0.76m707.91 33.44c10.41-0.27 16.6 8.05 23.19 14.71-0.26 3.56-0.12 7.11 0.06 10.69-9.5 12.48-22.91 22.46-37.35 29.22 4.2 7.04 9.04 15.05 4.94 23.47-9.73 9.78-20.8 18.15-30.99 27.45 2.09 3.39 5.78 5.29 8.46 8.18-0.15 2.58-1.29 5.72 0.7 7.87 1.27 16.17-17.38 27.93-31.41 31.64-10.15 3.69 5.53 12.25 2.4 19.41 3.27 16.62-17.18 20.12-25 30.79 5.17 4.04 13.32 7.58 9.35 15.74-9.68 18.1-32.53 18.18-49.45 25.22-6.96 13.14-28.6 8.81-33.58 24.58-2.97 10.6-16.76 11.67-22.22 18.36 11.19 3.59 22.12 7.93 33.17 11.95 18.9-3.44 43.66-12.56 44.72-35.56 10.79-3.21 31.2-10.65 21.91-25.08 9.51-8.75 19.97-17.39 28.71-26.97 6.73-10.23-12.28-12.55-3.5-21.02 16.55-2.21 33.7-18.43 20.12-34.27 6.85-7.45 19-11.54 26.44-19.31 5.55-9.87 2.61-19.14-6.81-24.55 7.39-12.71 26.88-12.33 30.23-27.84 5.98-7.28-8.07-14.42-2.72-21.64 10.59-4.41 24.28-10.01 26.33-22.78 1.74-7.04-5.75-11.24-6.67-17.6 3.66-10.05 15.37-12.36 22.92-18.62 2.07-7.13-3.84-8.58-9.14-8.43-2.51-3.04-9.96 0.1-13.91-0.8-11.46-5.42-22.3-5.56-30.9 5.19m-107.51-3.47c-15.54 8.52-30.86 18.22-46.33 27.05 4.01 14.13 5.93 28.73 9.54 42.96 22.79-12.96 42.21-31 60.22-49.38 2.73-0.73 0.19-12.62 0.06-11.77-2.02-7.21-9.23-9.25-16.03-8.86-0.9-1.82-7.9-1.54-7.46 0m170.46 4.12c-3.42 8.36-7.76 15.88-16.76 19.19-8.14 4 4.07 10.15 0.55 16.39 1.5 14.8-10.52 25.19-22.74 30.58 9.34 21.19-11.66 34.2-26 44.76 1.33 3.79 5.56 6.6 5 11.09-2.7 0.94-1.35 11.19-0.03 11.53-2.49 14.08-26.49 14.48-23.72 30.68 2 14.71-10.99 26.19-22.16 31.86 7.57 19.28-11.77 33.04-25.64 42.26 5.41 17.97-13.68 26.41-25.91 33.35-4.08 20.08-25.14 26.23-41.78 32.15 51.6 16.35 103.57 32.66 152.6 55.62 18.03 15.75 41.85 22.53 60.23 37.75 29.46 22.99 60.33 44.13 89.41 67.58 22.38 21.86 44.81 43.68 67.41 65.27 2.1-16.74 2.9-33.66 5.1-50.41 16.7-58.33 48.7-112.55 54.4-173.79 6.5-24.24-1.2-48.74-1.7-73.21-10.4-60.63-43.3-115.67-86.4-158.7-18.72-12.85-37.25-26.1-55.82-39.2-29.29-10.39-56.01-26.47-86.04-34.75m-82.31 11.65c-19.42 13.08-40.97 25.71-58.63 39.63-2.93 2.14-0.09 10.31-0.89 14.27-8.27 10.05-19.23 17.42-29.21 25.63 0.06 3.69 5.15 4.82 7.66 2.66 33.56-19.14 67.72-37.44 100.5-57.79 5.52-5.9 21.26-11.88 14.44-21.65-9.49-5.9-24.84-13.3-33.87-2.75m-145.4 18.66c-4.72 2.65-10.02 4.51-14.19 8.03 0.67 7.5 5.79 14.04 7.93 21.28 14.56-3.4 13.59-22.01 6.26-29.31m-40.39 28.07c-2.23-1.01-1.22 10.6 0.19 10.04 2.06 6.8 2.8 14.8 6.68 20.49 5.96-7.73 12.87-14.67 20.01-21.33-1.74-7.71-5.56-14.8-8.14-22.25-6.47 2.86-12.85 8.54-18.74 13.05m98.02-9.54c-13.54 13.54-43.78 19.21-37.89 43.18-1.96 3.51-2.11 6.71-0.47 9.6 19.17-7.44 34.69-21.54 52.47-31.57 5.27-2.33 7.12-8.52 7.72-13.75-7.32-1.34-14.92-14.84-21.83-7.46m-61.53 22.47c2.06 10.02 6.83 19.69 8.96 29.86 4.28 2.48 6.05-6.5 4.58-9.27 2.95-3.12-0.09-10.64 0.86-15.08 0.96-3.58 1.28-7.31 0.96-11.18 1.25-15.2-11.4 1.92-15.36 5.67m144.03-10.95c-23.57 14.13-48.72 25.46-72.16 39.54 5.49 8.44-6.29 18.7-6.19 25.13 28.59-11.9 57.9-25.25 81.97-45.09 8.87-4.13 5.31-19.63-3.62-19.58m-191.93 10.04c-12.11 9.12-11.53 26.5-4.59 38.61 16.16-7.22 12.66-28.67 4.59-38.61m-470.55 2.61c11.05 35.43 48.76 51.85 73.96 75.99 9.97 16.08 19.15 35.82 30.06 49.61-2.52-18.57-1.27-38.49-10.07-55.61-26.05-30.08-63.71-44.97-93.95-69.99m511.45 6.32c-7.55 5.74-15.5 11.08-22.25 17.76 3.17 12.06 4.4 24.52 7.09 36.67 11.06-1.01 14.62-16.43 23.45-22.52-1.94-10.39-5.11-23.54-8.29-31.91m28.03 34.28c1.72 7.75-9.91 35.41 5.65 24.26 11.6-6.54 23.89-12.07 34.2-20.63 5.24-1.39 2.55-11.81 1.82-13.83-12.86-15.27-28.47 5.22-41.67 10.2m-71.16 9.04c-0.21 4.37-0.37 8.73-0.28 13.12-0.58 4.73-0.15 8.36 1.27 10.89 0 2.76-1.24 6.13 0.67 8.49-0.05 17.93 14.72-8.28 19.28-13.09 0.49-12.31-5.2-24.8-7.24-37.1-4.19 5.68-13.24 10.54-13.7 17.69m168.62-12.39c-15.06 6.69-29.12 15.42-43.85 22.77-4.15 15.08-21.26 20.88-31.13 32.03 3.59 1.45 8.62 6.11 11.39 1.25 25.34-5.27 49.01-20.93 71.36-34.69 8.71-6.48 1.33-20.46-7.77-21.36m-512 7.89c4.2 14.76 13.35 27.65 19.32 41.74 0.38 5.34-1.78 12.92 0.78 16.99-0.13 5.89-0.26 11.8 0.4 17.68-0.2 4.46-0.17 8.92-0.04 13.4-2.6 4.54-8.8-0.49-12.14-2.31-7.58-13.34-11.25-30.68-24.33-39.52 0.78 18.27 7.67 37.34 1.43 55.1-0.63 4.29-6.2 2.68-7.41-0.36-5.02-20.36-19.27-36.65-28.61-55.13-1.21-2.5-6.78-12.07-6-2.58-4.55 19.24 2.23 37.75 5.55 56.44-1.6 2.51-4.65 3.71-7.21 1.8 0.49 4.81 0.5 9.91 2.95 14.23 23.69 2 46.78-5.12 70.1-8.13 3.93 0.27 7.77-0.25 11.52-1.43 37.65-7.08 75.85-9.79 113.48-15.59 9.87 0.52 22.39 1.54 30.24-0.57 4.58 0.06 9.14-0.19 13.73-0.36 5.1-0.29 14.25 1.73 17-0.95 6.65-0.47 16.31 1.96 21.37-0.77 6.49-0.3 14.98 1.44 19.75-0.6-9.79-15.62-24.37-28.61-32.67-45.51-1.43-3-2.2-7.04-5.35-8.67 0.73 3.5 1.54 6.99 2.02 10.55-15.51 3.43-18.12-25.06-34.82-25.62 2.72 9.64 2.32 20.98 9.68 28.67 3.61 3.43-0.31 12.57-6.01 9.84-14.24-10.23-27.06-22.09-35.16-37.95 1.62 14.8 4.01 30.46 11.12 43.89 1.98 4.66-5.53 8.69-8.56 4.46-9.68-14.87-22.96-27.44-35.96-39.31 6.18 10.7 3.52 23.47 5.92 35.15-2.55 7.65-13.67 5.8-15.64-1.22-10.58-17.01-21.19-34.31-35.41-48.6 4.47 16.55 10.76 32.56 12.23 49.86 2.78 4.6-3.02 16.71-7.03 8.1-16.83-28.14-36.01-57.74-66.24-72.72m-99.95 0.84c7.79 28.12 15.87 57.19 34.96 80.07 2.78 2.03 0.72-3.9 0.71-5.76 0.13-4.46 1.58-12.05-1.03-14.06 0.51-6.66 1.64-15.45-0.62-20.39 0.92-18.5-19.68-30.99-34.02-39.86m477.03 25.18c-1.79-0.03-1.93 8.83-0.03 8.62 0.31 7.09 1.84 14.05 3.08 21.03 21.54-8.05 21.94-32.98 17.11-52.06-7.21 6.79-17.02 12.72-20.16 22.41m73.44-13.85c-18.83 10.64-46.41 14.88-47.62 41.42 19.39-8.24 36.7-20.45 54.43-31.68 4.17-4.33-1.9-11.03-6.81-9.74m-82.98 21.85c-5.15 6.35-14.88 9.01-16.54 17.82-4.78 9.36 3.05 18.35 5.95 27.06 5.87-4.79 12.54-9.25 16.94-15.49-2.3-9.34-2.56-22.49-6.35-29.39m-29.7 7.36c-3.36 9.37-10.98 16.32-17.8 23.25-2.25 1.89 2.59 5.81 3.7 2.75 6.91-6.26 21.98-17.92 14.1-26m143.01 3.89c-9.11 3.44-18.09 7.32-27.07 11.1-11.35 3.14-7.05 20.33-19.65 22.47-8.04 5.9-33.94 7.19-18.79 20.76 28.32-9.67 58.29-19.55 80.65-40.51 2.35-8.67-6.36-17.92-15.14-13.82m-53.34 4.84c-19.7 7.14-37.3 21.31-42.43 42.49 19.25-5.6 35.64-18.27 53.85-26.42 0.58-6.28-5.22-15.71-11.42-16.07m-34.78 7.32c-3.34 4.16-8.12 7.98-9.46 13.18 7.32 4.9 9.03-11.12 9.46-13.18m-52.55 2.28c-3.67 8.09-12.2 12.25-18.09 17.53-1.63-0.24-1.86 6.82 0 7.42 0.7 8.4 1.46 16.81 2.71 25.15 7.59-5.75 14.65-12.32 21.32-19.07 4.69-10.01-0.45-22.54-5.94-31.03m-52.08 21.44c-2.16 1.11-1.62 21.76 0.01 19.1 6.08-8.03 25.58-16.43 24.67-29.9-8.7-0.25-17.72 7.21-24.68 10.8m72.96 26.53c5.96-4.39 10.66-11.05 14.06-17.47 2.3-0.74 1.37-14.78 0.09-16.14-11.64 5.05-20.77 20.59-14.15 33.61m-102.89-21.8c2.21 10.57 13.08 16.06 21.45 21.37 2.89 1.37 0.96-2.68 1.16-4.17 0.16-3.09 0.5-6.52-0.85-9.36 0.06-3.74-0.16-7.45-0.66-11.14-5.67-1.45-14.41 2.37-21.1 3.3m55.34 2.05c-7.85 9.16-16.06 18.04-24.42 26.74 5.41 5.19 12.51 14.91 20.89 9.18 15.17-5.08 4.9-27.48 3.53-35.92m148.05 1.42c-13.92 2.81-25.56 12.34-39.9 13.87-7.15 1.52-1.35 12.91-8.33 15.88-6.34 2.68-13.42 4.9-15.16 12.53 3.56 5.57 9.94 1.61 14.4-0.41 22.57-10.66 48.26-16.8 66.58-34.65-5.56-2.92-10.92-8.19-17.59-7.22m-64.78 5.91c-7.14 4.91-14.38 10.79-23.61 12.4-7.88 10.39-17.44 19.9-23.79 31.24 21.79-6.2 41.37-18.81 61.65-28.66 0.41-7.21-6.66-16.11-14.25-14.98m-191.82 2.62c-3.94 0.03-7.86 0.51-11.74 1.08-2.57 0.21-6.34-1.27-8.06 1.14-3.29-0.19-7.27-1.28-10.2 0.56-3.19 0.08-6.41 0.22-9.57 0.51-3.29-0.13-7.69-1.67-10.41 0.57-5.25 0.24-10.47 0.83-15.69 1.4-2.78-0.08-6.08-1.34-8.5 0.51-5.15 0.23-10.33 0.12-15.48 0.43-2.73 0.02-6.17-1.35-8.44 0.62-38.49 5.94-77.07 11.39-115.57 17.32-2.56 0.16-6.64-1.38-8.19 0.94-2.46-0.18-5.13-0.74-7.37 0.65-9.47 0.07-19.52 0.48-27.54 6.18 1.77 3.76 0.66 12.81 6.57 11.57 26.1-4.37 52.5-7.31 78.15-13.97 2.72-0.02 6.07 1.32 8.35-0.63 34.03-1.84 67.57-8.46 101.6-10.3 2.94-0.04 6.53 0.83 9.05-1.02 3.05-0.19 7.96 1.65 9.93-1.09 3.36 0.48 6.72 0.45 10.13 0.33 2.56-0.39 10.03 1.6 9.77-1.25 3.34 0.03 7.69 1.48 10.48-0.67 3.1-0.14 6.23 0.29 9.31-0.32 15.47 0.04 33.69 1.52 47.52-0.69 3.33-0.3 25.47 1.74 19.21-1.61-2.43-4.11-6.78-6.58-10.36-9.53-6.6-4.51-20.19-0.86-29.03-2.78-4.63-3.1-17.98-1.09-23.92 0.05m143.51 0.27c-7.85 7.44-16.1 15.21-23.34 22.92 1.43 5 0.9 31.67 10.05 19.7 10.39-12.03 28.58-29.01 13.29-42.62m-91.17 20.6c-1.21 0.23-2.41 0.46-3.61 0.68 0.65-1.5-8.6-1.35-8.66 0.36-4.67-0.07-9.35-0.18-14-0.02-3.85 0.04-11.6-1.07-12.59 1.26-3.36 0-7.75-1.49-10.54 0.67-3.16 0.05-6.36 0.11-9.48 0.42-3.19 0.07-8.02-1.72-10.3 0.89-3.76-0.22-7.5-0.05-11.21 0.51-3.06 0.32-6.27-0.26-9.23 0.54-4.36-0.89-8.2-0.67-11.5 0.65-6.69 0.02-13.32 1.24-20.02 1.08-4.91-0.6-8.48-0.26-10.71 1.04-3.68-0.34-7.42-0.07-11.08 0.12-4.1 0.27-8.84-1.06-12.53 0.87-4.42-0.03-10.84-1.48-13.71 0.89-7.06 0.02-13.46 3.2-19.97 5.42-5.34 0.31-13.01-2.01-17 0.64-6.21 0.2-11.98 2.84-17.96 4.27-4.55-0.27-13.11-1.04-14.44 0.72-3.6 1.1-6.99 3.21-10.88 3.03-0.6-2.61-10.97-1.49-11.71-0.05-14.39 1.43-28.23 6.56-42.57 8.49 9.13 52.44 15.96 106.35 23.41 159.46 14.37-9.84 25.63-24.03 40.17-33.85 38.76-24.63 79.34-48.54 124.7-58.31 30.87-7.65 60.35-21.27 92.38-23.6 22.23-2.21 44.04-7.62 66.3-9.42 29.47 0.64 58.99-0.05 88.48 0.3 1.54-0.11 13.01 0.8 9.52-1.79-3.78-1.22-7.53-2.43-11.29-3.67-17.73-7.46-34.82-16.36-52.19-24.62-26.97-10.7-46.34-40.65-77.78-36.98m60.39 8.88c-7.33 6.57 4.26 12.43 0 0m69.84 5.53c-13.34 8.42-30.42 8.32-43.19 16.78 13.51 16.46 41.02 14.61 53.48-3.33-2.31-4.78-5.17-12.98-10.29-13.45m-34.63 57.52c-3.88 0.3-7.76 0.88-11.61 1.36-2.83 0.29-7.1-1.57-9.09 0.9-3.59-0.28-7.25-0.25-10.81 0-3.43 0.07-7.52-0.97-10.54 0.89-2.44 0.31-9.66-1.69-9.36 1.17-3.37-0.28-6.8-0.23-10.13-0.03-5.09-0.06-11.13-1.31-15.47 0.94-34.19 8.75-70.86 9.67-103.8 23.84-19.42 9.28-41.35 10.77-61.61 17.4-28.51 15.47-61.25 23.97-85.49 46.5-16.85 12.9-35.21 25-46.68 43.24 2.3 7.03 4.87 17.08 6.23 22.43 38.78-57.44 105.68-83.81 167.79-108.32 54.95-16.86 111.61-27.2 168.55-34.54 11.3-0.18 27.28 1.73 35.73-1 12.88 0.56 25.79 0.35 38.68 0.04 2.32 3.18 10.84 0.14 15.06 1.01 3.16 0.19 6.27 0.15 9.47 0.29 2.67 1.87 6.16 0.45 9.19 0.78 2.05 2.07 5.58 0.81 8.25 0.94 2.47 0.17 4.96 0.29 7.48 0.37 2.55 1.52 5.64 0.69 8.45 0.63 1.46 2.28 5.51 0.87 8.01 1.09 6.13 1.35 2.54-2.44-1.42-2.54-9.29-4.46-18.75-9.67-28.75-12.28-2.11-2.48-7.21-0.06-10.02-0.82-19.89-1.64-39.76-4.92-59.71-4.89-2.71 0.04-6.19-1.37-8.4 0.6m-3.6 23.12c-5.34 0.46-10.56 1.75-15.88 2.32-4.98 0.33-11.43-0.67-15.33 1.72-34.51 3.92-70.55 2.46-103.1 15.92-30.66 6.34-63.53 10.74-90.65 28.25-54.79 19.09-106.35 52.56-139.02 100.8 8.77 36.8 17.11 73.7 26.26 110.41 14.63 43.9 31.74 86.94 52.79 128.21 14.35 34.2 38.92 62.41 60.54 91.91 8.73 14.1 22.53 26.1 35.58 36.1 0.65 8.7 10.07 12.1 15.73 17.2 11 3.9 13.45 17.7 24.88 21.1 31.77 15.7 58.63 41.9 94.47 48.4 12.11 8.2 26.63 8.3 40.29 11.8 56.95 12.9 114.93 18.7 173.24 20.8 11.53 2.7 32.87 1.2 43.58-0.3 6.66 0.3 15.78 1.5 20.38-0.7 5.87 0.1 11.77 0.2 17.66-0.4 6.45 0.7 16.47 1.2 19.96-0.9 7.03-0.3 17.21 1.9 22.4-0.8 42.62 0.7 84.38-10.6 125.98-18.7 27.02-18.6 39.22-50.1 54.32-78 3.5-23.4 10.3-46.5 11.7-70.2 2.5-10 0.4-24.6 0.7-36.28 2.8-24.24-0.7-48.45-3-72.56-0.2-4 1.1-8.68-0.7-12.24-4.6-36.65-12.1-73.95-28.7-107.24-3.5-22.91-17.9-41.31-29.5-60.49-34.23-31.48-71.8-59.11-108.97-87-29.43-24.92-65.42-39.84-97.89-60.15-14.53-7.35-31.22-9.74-45.31-18.05-27.56-2.53-55.01-6.37-82.5-8.96-15.03-3.6-33.25-1.56-49.37-1.79-0.74-0.04-2.21-0.11-2.95-0.14-5.56-3.01-21.86-1.16-27.59-0.04m493.38 71.32c-8.7 3.95-10.7 14.9-11 23.18 14.6 1.82 29 6.62 43.6 6.82 3.2-7.58 6.7-15.24 8.7-23.28-13.7-2.75-27.7-3.71-41.3-6.72m-14 30.56c-2.7 4.95-7.4 9.96-7.3 15.85 14.6 2.06 28.7 7.5 43.3 8.98 3.4-4.67 5-12.33 5.2-18.49-13.8-1.66-27.4-4.84-41.2-6.34m-11.9 27.9c-2 11.78-8.5 22.36-9.7 34.3-3.4 4.95 0.3 17.1-0.7 24.12-5.4 32.9 18.7 67.44 49.6 77.23 2.9 1.4 6 2.7 9.3 2.52 6 2.55 17.8 0.3 26 0.78 28.2-3.35 46.6-33.08 46.8-59.99 2.5 0.1 1.3-10.82 0-10.51-3.1-23.75-19.1-51.36-45.9-50.04-6.4-0.2-16.1-1.24-19.6 0.73-14.3 5.96-24.1 21.43-22.5 37.01-2.7 0.48-1.1 11.26 0 10.62 1.6 14.55 9 25.19 24.4 27.42 0.8 2.44 14.5 1.05 15 0.03 14.6-7.93 20.1-31.44 5.1-41.98-5.3-3.24-13.7-1.72-13.2 5.9-0.5 3.9-1.3 19.34 1.3 12.94 4.2-3.18 7.5-0.12 10.4 3.5-0.3 5.87-8.4 5.83-12.7 7.21-13.7-4.85-13.1-25.92-4.9-35.28 19.4-12.36 46 16.65 34.1 35.23-3.8 13.55-17.6 21.93-31.3 21.85-2.7-0.26-5.4-0.33-8.1-0.31-4.9-1.71-9.5-4.49-14.3-6.49-15.9-8.98-15.5-31.21-17.4-46.93 6-12.19 12.2-24.47 17.6-36.92 1.8-0.56 1.4-7.69 0.1-7.09-7.3-6.24-18.9-4.13-27.8-7.03-3.4 0.32-10.7-4.5-11.6 1.18m-22.3 82.71c4.5 10.73 7.8 21.9 12.4 32.56 11.1 39.24 22.8 78.46 25.5 119.37-0.4 7.59-1.7 17.67 1 23.67-0.1 8.19-1.8 19.22 0.7 25.87 0.4 9.42-1.4 21.22 1 28.88-3.1 40.9-8.6 82.1-25.3 119.9-10.3 15.1-21.9 29.7-31.6 45.2 11.2-1.8 22.6-4 32.8-9 32.9-44.2 32.6-101.5 45.1-153.1 2.7-1.6 1-12.09-0.3-12.47 0.7-6.9 0.5-13.91-0.3-20.76 1.1-8.36 1.6-19.57-0.5-26.8-0.2-5.24 1.6-13.25-0.9-16.86-1.6-46.75-9.9-98.51-46.6-131.29-1.9-9.13-7-17.97-10.5-26.82-0.2-4.42-4.2-0.23-2.5 1.65m50.6 68.48c5.1 15.61 9.7 31.43 14.9 46.98 4.2-4.11 7.3-9.3 11.8-13.14-8.6-11.5-16.1-24.07-26.7-33.84m32.3 41.12c-4.1 9.42-19.5 15.45-16 26.73-0.1 2.78-1.1 5.95 0.7 8.42 0.7 5.73-0.5 12.69 1.7 17.64 9.6-11.29 20.1-22.29 29.2-33.88-5.3-6.08-9.6-14.61-15.6-18.91m19.8 27.22c-13.6 6.43-20.1 21.85-29.1 32.87-3.2 1.82 0.4 8.68-0.8 11.84-3.2 2.8-0.1 10.8-0.9 15.21-0.4 5.03-0.8 10.04-1.1 15.11 16.6-18.06 33-36.83 47.6-56.41-4.6-6.31-9.6-13.54-15.7-18.62m19.2 29.07c-20.7 19.82-39.5 42.8-52.3 68.76-2.2 15.8-5.6 31.4-8.7 47.1 23.4-33.1 48.6-66.27 72.5-99.45-2.6-5.54-7.5-12.69-11.5-16.41m17 25.11c-6 3.76-11.3 8.62-15 14.78-18.7 28.47-43.2 53.17-57.5 84.47-14.4 20.3-14 46.7-25.8 68.2-4.2 7.4-7.2 15.5-9.1 23.8 7-3.4 17.7-3 20.2-11.8 15.1-30.8 32-60.6 48-90.9 9.9-22.5 26.3-41.3 43.8-58.16 13.1-7.01-0.5-23.32-4.6-30.39m13.1 30.02c-13.4 13.43-26.5 27.53-33.2 45.63-24 31.7-41.3 68.3-57.4 104.6 12.8-4.9 26.3-8.7 38.5-14.6 16.7-38.6 33.5-77.9 63.6-108.4-3.7-8.6-7.4-20.44-11.5-27.23m11.6 38.23c-22.2 27.2-40.6 59.2-51.3 91.6 25.2-9.4 54-28.8 54.3-59.3 2.4-4.5 0.2-11.2 0.7-16.4-0.4-4.9 2-12.9-3.7-15.9m-657.18 142.2c-0.7 5.6-0.75 11.1-1.03 16.7-0.51 3.8-0.73 7.6-0.65 11.5-0.02 1.7-0.33 3.6 0.43 5.3 26.99 6.7 53.29 15.9 79.82 24.2 21.97 3.2 44.09 6.3 66.32 7.4 2.47 1.6 5.57 0.7 8.34 0.7 5.21 0.7 10.44 1.3 15.71 1.3 2.67 1.9 6.36 0.2 9.44 0.6 15.59 1.2 31.18 2.6 46.8 3.3 3.26 2.9 14.63 1.2 17.99 0 7.6-0.1 15.14-1.3 22.76-1.3 3.82 0.2 7.65 0 11.47-0.5 38.23-2.4 76.49-8.3 112.64-21.3-2.61-8.3-3.54-17.1-5.06-25.7-9.51 0.8-19.04 1.2-28.53 2.2-3.1-0.4-6.44-0.6-9.4 0.5-5.54 0.4-11.05 1-16.57 1.5-4.37 0-9.92-1.8-13.44 0.6-11.88 0-23.71 1-35.58 1.4-18.84-1-37.76-0.4-56.61-0.1-14.24-0.4-28.46-1.7-42.7-1.3-7.08-3.5-21.11 0.3-30.18-0.7-51-6.6-102-13.6-151.97-26.3m-28.8 59c-13.14 16-34.25 25.9-45.84 41.7 22.87 8.6 43.87 22.3 68.28 26.8 36.48 7.8 73.2 16.5 110.63 17.5 9.74 2.5 24.56 0.4 36.22 0.7 33.88 0.7 67.79 0.1 101.69 0.3 5.94 1.8 18.85 1.8 25.04 0 18.05-1 35.72-5.4 53.69-7.4 9.57 0.8 23.36 0.9 29.63-0.3 2.3-1.1 3.55-3.9 6.4-3.9 34.39-4.2 66.28-18.4 99.54-27.2 2.24-2.6-1.07-5.1-2.99-6.5-19.44-15-39.18-29.7-58.57-44.7-36.93 12.4-75.82 18.1-114.59 21.2-26.79-0.4-53.59-0.4-80.38 0.1-36.25-3.6-72.6-6.2-108.81-10.2-31.71-8.2-63.25-17.1-95.01-25.1-11.45-3-17.48 10.8-24.93 17m-48.64 50.7c2.85 6.9 0.61 18 9.57 20.5 50.39 21.3 103.95 35.1 158.8 38 3.78 0.5 7.58 0.7 11.42 0.6 12.93 1 25.74 3.8 38.78 3.2 6.19 2.2 19.81 1.5 26.1 0 14.53 0.1 29.05-0.9 43.57-1.4 8.25 0.6 19.22 1.5 25.32-0.6 6.69 0.1 13.38-0.1 20.09 0 1.64 2.6 11.2 1.4 13.03 0 64.96-10 134.76-8.7 193.81-41.2 2.13-4.6 4.33-17.5-4.08-14.2-56.44 22.1-116.69 32.2-176.55 39.7-3.86-0.3-7.67-0.1-11.46 0.5-4.51 0.3-9.06 0.2-13.55 0.5-11.81-0.7-23.65-0.3-35.46 0-9.59-0.6-19.21-0.4-28.79-0.3-4.67-3.2-15.72 0.1-22.28-0.6-10.51-0.7-21.03-1.3-31.55-1.4-4.26-2.6-11.31-0.1-16.42-0.7-8.91-0.5-17.82-0.4-26.72-0.2-2.93-3.1-10.8 0-15.18-0.8-25.9-4.9-52.73-5.1-77.98-13.2-27.79-6.6-53.54-19.4-80.47-28.4z" fill="#090602"/>
  <path d="m259.55 13.74c1.73-2.97 2.72 7.76 0.51 7.82-0.19-2.61-0.33-5.21-0.51-7.82z" fill="#3c3d0b"/>
  <path d="m259.55 13.74c0.18 2.61 0.32 5.21 0.51 7.82-1.98 5.51-7.03 9.24-9.79 14.33 7.75 11.6 19.17 0.09 29.5 0.17-0.82 6.48-8.26 10.7-8.82 17.6 6.69 5.02 15.04 4.6 22.83 3.25-1.93 7.05-6.78 12.37-11.97 17.15 1.17 9.04 14.01 3.45 19.65 5.45-3.32 5.06-8.34 12.24-14.11 14.1-31.81-20.42-66.4-35.4-103.84-41.28 5.35-27.13 40.16-23.12 61.55-29.02 3.16-5.88 10.81-4.4 14.49-9.57z" fill="#c7c835"/>
  <path d="m150.91 59.43c6.9-1.1 13.68 1.05 20.49 1.82l-0.83 0.37c-3.1 1.2-5.56 3.42-7.68 5.92-4.02-0.71-8.64-4.78-11.98-8.11z" fill="#e6bd18"/>
  <path d="m171.4 61.25c1.84-0.41 7.67-0.98 6.95 0.82l-0.99 0.01c-1.7-0.11-5.09-0.34-6.79-0.46l0.83-0.37z" fill="#9a7d05"/>
  <path d="m162.89 67.54c2.12-2.5 4.58-4.72 7.68-5.92 1.7 0.12 5.09 0.35 6.79 0.46 3.2 0.32 6.43 0.71 9.65 1.03 2.91 0.38 5.84 0.79 8.76 1.23 11.26 1.79 22.16 5.58 33.64 5.94 13.48 5.63 25.11 14.99 38.63 20.68 15.86 6.55 24.1 22.84 37.2 32.88 5.17-1.68 7.52-9.66 9.01-14.84 0.3-3.05 0.57-6.08 0.7-9.13 2.33-12.58 15.13-22.32 27.49-24.86 2.86-0.02 5.78 0.02 8.67-0.05 22.12-1.69 35.2 31.04 19.37 46.6-6.08 12.92-18.99 21.91-33.58 20.36-4.34 0.03-8.66 0-12.98 0.1-6.66 2.31-12.76-4.7-18.74 0.16-7.35 6.89-12.78-4.77-21.03-0.27-4.51 0.26-8.99 0.57-13.49 0.79-4.88 0.06-9.75 0.1-14.62 0.27-5.42 0.14-10.82 0.36-16.22 0.71-4.41 0.19-8.78 0.75-13.17 1.02-4.57 0.09-9.12 0.17-13.67 0.24-5.13 0-10.27-0.03-15.36 0.69-5 0.26-10 0.38-14.98 0.94-3.49 0.26-6.97 0.44-10.46 0.59-3.09 0.11-6.17 0.1-9.23 0.49-2.77 0.31-5.5 0.72-8.25 1.07-3.5 0.28-7 0.48-10.51 0.24-0.73-0.05-2.2-0.14-2.93-0.18-14.73-1.25-29.52-0.8-44.28-0.8-5.23-0.05-10.45-0.01-15.68-0.11-3.41-0.38-6.8-0.89-10.22-1.12-11.01-0.94-22.06-0.9-33.1-0.81-6.35-0.2-12.72-0.01-19.04 0.64-4.17-0.73-11.92-0.08-9.63-6.23 4.96-41.25 46.89-60.29 82.34-70.51-3.72 10.73-11.79 20.96-11.86 32.35 7.7 21.53 36.68 23.87 56.17 22.83 16.61-4.54 40.73 1.64 49.82-17.44 4.11-14.4-7.34-27-17.69-35.62-1.67-1.55-3.43-2.99-5.2-4.42m175.71 28.38c-3.14 0.43-4.72 4.53-4.64 7.41-1.79 2.97-1.79 6.13-0.02 9.46-5.86 14.23 15.55 11.41 21.73 4.52 2.86-7.93 3.57-17.34-5.55-21.55 0.8-1.2-11.92-1.54-11.52 0.16z" fill="#fac904"/>
  <path d="m177.36 62.08l0.99-0.01c2.76 0.41 6.6-1.08 8.66 1.04-3.22-0.32-6.45-0.71-9.65-1.03z" fill="#dcbe3e"/>
  <path d="m187.01 63.11c2.59 0.63 6.98-1.24 8.76 1.23-2.92-0.44-5.85-0.85-8.76-1.23z" fill="#d6b020"/>
  <path d="m125.37 64.41c17.53 4.4 27.27 25.69 25.67 43.07 1.4 4.8-1.54 8.53-5.79 9.89-5.67-1.15-12.7 1.68-17.56-2.27-2.15-12.57-4-26.83-17.25-32.65-16-6.04 7.63-17.26 14.93-18.04z" fill="#c89735"/>
  <path d="m162.89 67.54c1.77 1.43 3.53 2.87 5.2 4.42-2.45-0.48-4.09-2.3-5.2-4.42z" fill="#c8a521"/>
  <path d="m147.79 70.19c15.15 5.19 31.99 18.34 29.97 36.12-5.05 3.51-10.66 8.37-17.25 6.33-2.75-14.66-2.72-30.46-12.72-42.45z" fill="#f4f597"/>
  <path d="m294.64 70.52c3.96-0.22 7.91-0.33 11.88-0.57-3.23 2.23-9.97 2.17-11.88 0.57z" fill="#595a3f"/>
  <path d="m342.44 75.01c-1.43-1.68 8.04-1.94 8.67-0.05-2.89 0.07-5.81 0.03-8.67 0.05z" fill="#b19730"/>
  <path d="m90.91 100.75c-0.81-8.25 3.58-18.07 13.52-14.5 6.38 7.19 16.08 18.52 12.97 27.76-4.13-0.01-8.26 0-12.39 0-7.57 1.68-21.85-4.99-14.1-13.26z" fill="#900203"/>
  <path d="m382.31 87.27c1.27 8.13 0.94 16.4-0.3 24.52 0.29-8.17 0.18-16.35 0.3-24.52z" fill="#6f6f54"/>
  <path d="m338.6 95.92c-0.4-1.7 12.32-1.36 11.52-0.16-3.85 0.08-7.68 0.13-11.52 0.16z" fill="#564200"/>
  <path d="m333.96 103.33c-0.08-2.88 1.5-6.98 4.64-7.41 3.84-0.03 7.67-0.08 11.52-0.16 9.12 4.21 8.41 13.62 5.55 21.55-6.18 6.89-27.59 9.71-21.73-4.52 0.1-3.16 0.09-6.31 0.02-9.46m7.69-1.03c-7.5 0.62-3.46 17.34 3.52 13.2 7.14-1.73 5.01-17.87-3.52-13.2z" fill="#0a0701"/>
  <path d="m314.25 109c0.27-2.95-1.21-6.54 0.7-9.13-0.13 3.05-0.4 6.08-0.7 9.13z" fill="#4f3700"/>
  <path d="m341.65 102.3c8.53-4.67 10.66 11.47 3.52 13.2-6.98 4.14-11.02-12.58-3.52-13.2z" fill="#8f8f37"/>
  <path d="m333.94 112.79c-1.77-3.33-1.77-6.49 0.02-9.46 0.07 3.15 0.08 6.3-0.02 9.46z" fill="#584000"/>
  <path d="m105.01 114.01c4.13 0 8.26-0.01 12.39 0 0.01 0.77-10.54 2.74-12.39 0z" fill="#4e0001"/>
  <path d="m127.69 115.1c4.86 3.95 11.89 1.12 17.56 2.27-1.07-1.14-16.77 4.85-17.56-2.27z" fill="#7f6432"/>
  <path d="m554.71 120.23c29.18-0.06 58.4-1.03 87.56 0.51-29.18 0.1-58.41 1.08-87.56-0.51z" fill="#42422a"/>
  <path d="m450.06 126.12c0.11-5.29 8.78-1.92 12.82-2.05l0.25 0.91c-4.39 0.13-8.76 0.4-13.07 1.14z" fill="#ceae36"/>
  <path d="m462.88 124.07c2.25 0.75 8.14-1.49 8.91 1.15-2.93-0.1-5.77-0.16-8.66-0.24l-0.25-0.91z" fill="#4c3900"/>
  <path d="m549.93 143.16c1.76-10.51 8.11-23.63 20.93-17.98 2.76 0.3 5.63 0.66 8.45 0.76 3.79 0.11 7.59 0.22 11.4 0.34 4.68 0.29 9.4 0.65 14.11 0.91 4.31 0.32 8.65 0.77 13 1.03 19.43 1.22 38.96 1.23 58.4 0.29 111.23 12.79 226.95 33.35 320.72 98.56 30.56 27.49 66.86 49.19 90.16 83.83 27.5 26.51 32.6 66.12 45.8 100.2 8.3 34.81 12.5 70.84 12.8 106.59-0.4 6.68-0.7 13.38-0.9 20.08-0.6 8.6-1 17.23-0.8 25.86-6 22.63-15.8 44.29-21.4 67.12-15.6-1.47-31-4.22-46.2-7.77 15.5-39.03 20.6-80.54 25.4-121.97-4.3-36.6-13-72.63-26.9-106.91-8.4-34.72-34.6-60.62-57.1-86.91-20.65-19.14-45.06-33.72-67.9-50.08-15.63-12.65-36.1-15.64-53.93-24.07-23.46-11.99-50.01-16.02-74.8-23.7 8.94-7.39 16.9-15.99 25.27-23.93 0.27-6.89-3.62-15.27-10.95-17-33.87 4.21-66.31 15.74-99.63 22.55-15.69-1.77-30.69-7.97-46.7-8.22-7.61-0.69-15.23-0.83-22.85-0.92-4.51-0.26-8.97-0.73-13.47-0.83-4.21-0.12-8.39-0.01-12.56-0.21-4.41-0.3-8.76-0.73-13.14-0.99-4.44-0.31-8.84-0.71-13.26-0.8-4.22-0.11-8.41-0.05-12.6-0.25-4.49-0.26-8.94-0.65-13.42-0.75-11.48-2.46-29.38 4.31-36.96-6.5-0.07-5.62-0.32-11.22-0.6-16.82-0.14-3.84-0.26-7.68-0.37-11.51z" fill="#c9ca33"/>
  <path d="m450.06 126.12c4.31-0.74 8.68-1.01 13.07-1.14 2.89 0.08 5.73 0.14 8.66 0.24 3.38 0.24 6.83 0.59 10.24 0.76 1.35 7.01-6.01 15.59-4.92 23.93 0.07 3.07 0.27 6.16 0.37 9.24-1.34 6.82 0.91 13.21 4.56 18.91-33.76 8.12-68.97 19.43-91.93 46.86-14.69-13.58-25.94-31.33-31.79-49.44l-0.64-0.67c-17.43-2.19-35.37 0.56-52.97 0.81-7.7 0.02-15.38 0.53-23.05 1.07-7.9 0.25-15.8 0.31-23.7 0.24-8.75-0.17-17.5 0.22-26.22 0.8-7.02 0.17-14.02 0.54-21.02 1-5.89 0.29-11.79 0.34-17.69 0.23-6.15-0.24-12.29 0.22-18.42 0.75-7.52 0.21-15.05 0.24-22.57 0.26-18.4 0.61-36.91-1.12-55.25 0.69-0.72 0.02-2.14 0.06-2.85 0.08-8.85-0.53-17.71-0.97-26.57-0.86l-1-0.03c-11.8-1.36-23.79-0.04-35.55-1.7-8.97-5.87-23.15-9.5-24.66-21.9 3.37-6.52 9.03 0.23 14.05-0.17 2.92 0.09 5.85 0.1 8.77-0.03 5.5-0.32 11.15-0.7 16.55 0.7 0.41 0.09 1.23 0.27 1.64 0.36 3.31 0.63 6.63 0.67 9.96 0.15 4.45 0.07 10.89-3.68 12.88 2.31 8.1 0.71 16.33 1.05 24.38-0.29 6.2-0.17 12.4-0.19 18.6-0.25 15.78-0.12 31.58 0.52 47.33-0.74 8.03 0.05 16.07-0.16 24.06-0.96 5.86-0.17 11.73-0.17 17.59-0.27 4.74-0.13 9.52-0.09 14.24-0.64 3.04-0.32 6.1-0.73 9.14-1.08 2.5-0.19 5-0.31 7.51-0.38 3.44-0.07 6.92-0.12 10.36-0.53 3.4-0.32 6.83-0.7 10.25-1.05 3.83-0.3 7.68-0.42 11.55-0.35 5.1 0.05 10.26 0.1 15.33-0.66 5.65-0.38 11.31-0.71 16.98-1.04 5.19-0.25 10.4-0.4 15.61-0.31 5.81 0.03 11.63-0.39 17.44-0.69 4.88-0.29 9.95 0.33 14.72-1.08 13.16-3.39 24.96-10.29 32.5-21.44 6.56 0.31 13.21 0.55 19.73-0.5 9.9-0.4 19.81-0.34 29.72-0.25 7.66 0.1 15.43 0.53 23.01-0.94z" fill="#fbca03"/>
  <path d="m471.79 125.22c2.93 0.75 7.94-1.65 10.24 0.76-3.41-0.17-6.86-0.52-10.24-0.76z" fill="#9e7e06"/>
  <path d="m496.31 127.04c1.6-4.34 25.07-3.31 16.82 4.79 0.83-8.89-11.48-3.25-16.82-4.79z" fill="#e1e145"/>
  <path d="m516.18 158.73c2.48-11.11 0.29-28.38 12.76-33.42 5.4 2.78 16.97-1.95 16.13 6.52-1.11 7.05-4.55 13.69-4.1 20.99-0.06 3.5 0.12 7.01 0.64 10.48 0.54 3.87 0.59 7.75 0.16 11.64-2.97-0.02-5.84-0.12-8.76 0.07-10.62 4.41-11.47-10.47-16.83-16.28z" fill="#f8f808"/>
  <path d="m528.94 125.31c6.78 0.64 23.28-3.15 16.13 6.52 0.84-8.47-10.73-3.74-16.13-6.52z" fill="#d8d839"/>
  <path d="m570.86 125.18c2.79 0.07 5.97-0.93 8.45 0.76-2.82-0.1-5.69-0.46-8.45-0.76z" fill="#808327"/>
  <path d="m397.33 127.31c7.09-2.42 19.98-1.3 29.65-1.24l0.07 0.99c-9.91-0.09-19.82-0.15-29.72 0.25z" fill="#5a4701"/>
  <path d="m426.98 126.07c7.68-0.3 15.38-0.14 23.08 0.05-7.58 1.47-15.35 1.04-23.01 0.94l-0.07-0.99z" fill="#e4c449"/>
  <path d="m590.71 126.28c3.87 0.89 12-2.24 14.11 0.91-4.71-0.26-9.43-0.62-14.11-0.91z" fill="#45440c"/>
  <path d="m377.6 127.81c3.16-1.46 13.35-1.06 19.73-0.5-6.52 1.05-13.17 0.81-19.73 0.5z" fill="#ac8b0b"/>
  <path d="m485.95 142.37c2.81-4.8 4.35-13.7 10.36-15.33 5.34 1.54 17.65-4.1 16.82 4.79-5.07 14.34-6.74 31.75 2.57 44.51-8.03-0.24-16.07-0.51-24.09-0.14-2.85-2.17-4.81-5.39-5.73-8.82 0.13-8.34 0.12-16.67 0.07-25.01z" fill="#fafa07"/>
  <path d="m604.82 127.19c3.45 1.09 11.24-2.19 13 1.03-4.35-0.26-8.69-0.71-13-1.03z" fill="#8e8e2d"/>
  <path d="m617.82 128.22c19.46-0.15 38.96-0.79 58.4 0.29-19.44 0.94-38.97 0.93-58.4-0.29z" fill="#c4c461"/>
  <path d="m270.66 142.7c4.5-0.22 8.98-0.53 13.49-0.79-3.63 2.36-9.09 0.74-13.49 0.79z" fill="#a28507"/>
  <path d="m323.92 142.02c4.32-0.1 8.64-0.07 12.98-0.1-1.4 1.48-10.93 2.67-12.98 0.1z" fill="#997b08"/>
  <path d="m485.88 167.38c-0.96-3.78-2.26-20.5 0.07-25.01 0.05 8.34 0.06 16.67-0.07 25.01z" fill="#f0f051"/>
  <path d="m239.82 143.68c5.4-0.35 10.8-0.57 16.22-0.71l-0.05 0.99c-4.74 0.15-9.49 0.3-14.22-0.11-0.48-0.04-1.46-0.12-1.95-0.17z" fill="#d9bc3d"/>
  <path d="m256.04 142.97c4.87-0.17 9.74-0.21 14.62-0.27-1.89 2.24-10 1.29-14.67 1.26l0.05-0.99z" fill="#513f02"/>
  <path d="m550.3 154.67c-1.35-0.17-2.98-10.75-0.37-11.51 0.11 3.83 0.23 7.67 0.37 11.51z" fill="#4e5012"/>
  <path d="m226.65 144.7c4.39-0.27 8.76-0.83 13.17-1.02 0.49 0.05 1.47 0.13 1.95 0.17-1.95 2.28-10.33 1.06-15.12 0.85z" fill="#8f7001"/>
  <path d="m197.62 145.63c5.09-0.72 10.23-0.69 15.36-0.69l0.04 0.99c-5.13 0.16-10.3 0.42-15.4-0.3z" fill="#c6a936"/>
  <path d="m212.98 144.94c4.55-0.07 9.1-0.15 13.67-0.24-1.52 2.24-9.34 1.33-13.63 1.23l-0.04-0.99z" fill="#3b2a00"/>
  <path d="m18.94 146.58c6.32-0.65 12.69-0.84 19.04-0.64v0.99c-6.34 0.22-12.73 0.43-19.04-0.35z" fill="#836501"/>
  <path d="m37.98 145.94c11.04-0.09 22.09-0.13 33.1 0.81-1.62 0.02-3.24 0.1-4.86 0.19-9.41 0.13-18.84 0.33-28.24-0.01v-0.99z" fill="#efc82b"/>
  <path d="m182.64 146.57c4.98-0.56 9.98-0.68 14.98-0.94-2.04 2.38-10.24 1.43-14.98 0.94z" fill="#846401"/>
  <path d="m66.22 146.94c1.62-0.09 3.24-0.17 4.86-0.19 3.42 0.23 6.81 0.74 10.22 1.12l-0.98 0.04c-3.73-0.94-12.56 2.08-14.1-0.97z" fill="#b2972a"/>
  <path d="m162.95 147.65c3.06-0.39 6.14-0.38 9.23-0.49-3.08 0.48-6.14 1.09-9.23 0.49z" fill="#b4972b"/>
  <path d="m80.32 147.91l0.98-0.04c5.23 0.1 10.45 0.06 15.68 0.11l0.03 1c-4.16-0.88-15.16 1.97-16.69-1.07z" fill="#6a5200"/>
  <path d="m96.98 147.98c14.76 0 29.55-0.45 44.28 0.8-10.1 0.12-20.19 0.12-30.29 0.21-4.65-0.01-9.31 0.29-13.96-0.01l-0.03-1z" fill="#f1ca25"/>
  <path d="m154.7 148.72c2.75-0.35 5.48-0.76 8.25-1.07-1.7 2.45-5.64 0.91-8.25 1.07z" fill="#6f5300"/>
  <path d="m110.97 148.99c10.1-0.09 20.19-0.09 30.29-0.21 0.73 0.04 2.2 0.13 2.93 0.18-9.25 1.08-24.89 2.83-33.22 0.03z" fill="#9d8720"/>
  <path d="m330.38 150.33c2.21-2.43 10.02-1.15 14.72-1.08-4.77 1.41-9.84 0.79-14.72 1.08z" fill="#5b4200"/>
  <path d="m312.94 151.02c4.02-2.64 11.97-0.37 17.44-0.69-5.81 0.3-11.63 0.72-17.44 0.69z" fill="#9c8322"/>
  <path d="m477.11 149.91c0.52 3.06 1.2 6.17 0.37 9.24-0.1-3.08-0.3-6.17-0.37-9.24z" fill="#513800"/>
  <path d="m280.35 152.37c2.75-2.82 11.87-0.75 16.98-1.04-5.67 0.33-11.33 0.66-16.98 1.04z" fill="#6c5200"/>
  <path d="m265.02 153.03c3.1-2.44 10.4-0.96 15.33-0.66-5.07 0.76-10.23 0.71-15.33 0.66z" fill="#ae9528"/>
  <path d="m242.27 154.3c3-1.33 6.73-1.64 11.2-0.92-3.42 0.35-6.85 0.73-10.25 1.05l-0.95-0.13z" fill="#7b6100"/>
  <path d="m540.97 152.82c1.92 2.97 0.87 7.11 0.64 10.48-0.52-3.47-0.7-6.98-0.64-10.48z" fill="#4d4d00"/>
  <path d="m29.01 155.1c4.82 1.54 14.09-4.73 16.52 1.65-5.4-1.4-11.05-1.02-16.55-0.7l0.03-0.95z" fill="#d9b833"/>
  <path d="m232.86 154.96c2.58-1.97 6.39-0.83 9.41-0.66l0.95 0.13c-3.44 0.41-6.92 0.46-10.36 0.53z" fill="#c0a42e"/>
  <path d="m20.21 156.08c-0.22-3.26 6.48-0.47 8.8-0.98l-0.03 0.95c-2.92 0.13-5.85 0.12-8.77 0.03z" fill="#8d7100"/>
  <path d="m215.26 156.31c0.84-3.12 7.25-0.62 10.09-0.97-3.04 0.35-6.1 0.76-9.14 1.08l-0.95-0.11z" fill="#8f7102"/>
  <path d="m550.3 154.67c0.28 5.6 0.53 11.2 0.6 16.82-2.06-2.12-0.42-11.88-0.6-16.82z" fill="#949533"/>
  <path d="m183.39 157.22c2.98-2.09 12.69-1.35 18.68-1.14l-0.1 0.98c-5.86 0.1-11.73 0.1-17.59 0.27l-0.99-0.11z" fill="#4a3700"/>
  <path d="m202.07 156.08c4.39-0.3 8.81-0.22 13.19 0.23l0.95 0.11c-4.72 0.55-9.5 0.51-14.24 0.64l0.1-0.98z" fill="#d6b83c"/>
  <path d="m47.17 157.11c3.32 0.05 6.64 0.1 9.96 0.15-3.33 0.52-6.65 0.48-9.96-0.15z" fill="#a18404"/>
  <path d="m159.33 158.2c4.76-2.09 16.34-1.39 24.06-0.98l0.99 0.11c-7.99 0.8-16.03 1.01-24.06 0.96l-0.99-0.09z" fill="#a18305"/>
  <path d="m94.39 159.28c3.17-2.2 12.63-1.35 18.62-1.25l-0.02 1c-6.2 0.06-12.4 0.08-18.6 0.25z" fill="#5b4701"/>
  <path d="m113.01 158.03c15.44 0.05 30.9-0.41 46.32 0.17l0.99 0.09c-15.75 1.26-31.55 0.62-47.33 0.74l0.02-1z" fill="#e7c748"/>
  <path d="m70.01 159.57c8.1-0.6 16.27-0.97 24.38-0.29-8.05 1.34-16.28 1-24.38 0.29z" fill="#b3910d"/>
  <path d="m304.71 175.62c17.6-0.25 35.54-3 52.97-0.81-8.36-0.08-16.74-0.19-25.04 0.77-8.64 0.59-17.33 0.87-25.96 0.25-0.49-0.05-1.48-0.16-1.97-0.21z" fill="#e3c033"/>
  <path d="m332.64 175.58c8.3-0.96 16.68-0.85 25.04-0.77l0.64 0.67c-8.54 0.57-17.17 1.12-25.68 0.1z" fill="#4b3900"/>
  <path d="m533.01 175.01c2.92-0.19 5.79-0.09 8.76-0.07 1 1.85-8.38 1.93-8.76 0.07z" fill="#494600"/>
  <path d="m281.66 176.69c7.67-0.54 15.35-1.05 23.05-1.07 0.49 0.05 1.48 0.16 1.97 0.21-5.11 2.12-16.89 1.34-25.02 0.86z" fill="#8d7100"/>
  <path d="m491.61 176.2c8.02-0.37 16.06-0.1 24.09 0.14 0.58 1.58-21.82 1.11-24.09-0.14z" fill="#8a8903"/>
  <path d="m231.74 177.73c8.72-0.58 17.47-0.97 26.22-0.8l0.09 0.99c-8.44 0.21-16.9 0.38-25.33-0.12l-0.98-0.07z" fill="#c4a734"/>
  <path d="m257.96 176.93c7.9 0.07 15.8 0.01 23.7-0.24-5.06 2.32-15.99 1.39-23.61 1.23l-0.09-0.99z" fill="#382800"/>
  <path d="m828.52 177.6c5.86-3.43 7.86 3.8 7.09 7.86-38.3 33.6-84.13 57.87-125.89 87.19-2.57-0.46-9.82-0.7-8.5-5.19 5.81-6.09 12.86-11.05 18.05-17.73 1.01-7.2 1.42-14.57 0.25-21.77-3.59-4.4-9.58-6.78-12.27-11.84 38.43-18.45 79.75-29.73 121.27-38.52z" fill="#f8c805"/>
  <path d="m30.82 178.15c11.76 1.66 23.75 0.34 35.55 1.7-11.01 0.03-22.01 0.22-33.02 0.16-1.47 0.22-2.31-0.4-2.53-1.86z" fill="#eec626"/>
  <path d="m210.72 178.73c7-0.46 14-0.83 21.02-1l0.98 0.07c-4.16 2.55-15.24 0.73-22 0.93z" fill="#7b6100"/>
  <path d="m587.86 177.99c4.48 0.1 8.93 0.49 13.42 0.75-3.93-0.98-10.64 2.3-13.42-0.75z" fill="#64640d"/>
  <path d="m174.61 179.71c6.13-0.53 12.27-0.99 18.42-0.75-4.18 2.56-12.51 0.65-18.42 0.75z" fill="#b2972c"/>
  <path d="m613.88 178.99c4.42 0.09 8.82 0.49 13.26 0.8-3.89-1-10.5 2.23-13.26-0.8z" fill="#959542"/>
  <path d="m33.35 180.01c11.01 0.06 22.01-0.13 33.02-0.16l1 0.03-0.59 0.8c-9.93-0.4-26.03 2.31-33.43-0.67z" fill="#6a5000"/>
  <path d="m67.37 179.88c8.86-0.11 17.72 0.33 26.57 0.86-1.61 0.06-3.22 0.14-4.82 0.24-7.45 0.2-14.91 0.22-22.34-0.3l0.59-0.8z" fill="#efc92e"/>
  <path d="m96.79 180.66c18.34-1.81 36.85-0.08 55.25-0.69l-0.06 0.99c-8.99 0.24-17.99 0.03-26.98 0.03-9.41 0.01-18.81-0.04-28.21-0.33z" fill="#efc927"/>
  <path d="m152.04 179.97c7.52-0.02 15.05-0.05 22.57-0.26-4.48 2.35-15.48 1.25-22.63 1.25l0.06-0.99z" fill="#6c5000"/>
  <path d="m345.4 180.45c2.75-1.33 4.23 1.8 5.62 3.62 13.02 20.13 24 41.75 40.85 59.06 20.01 31 40.36 64.64 41.29 102.66-16.12-11.53-19.59-33.7-32.16-49.79-4.36-10.56-14.24-18.2-16.22-29.59-26.48-18.59-41.74-46.61-58.89-73.63-5.64-12.86 12.71-8.51 19.51-12.33z" fill="#a9a92a"/>
  <path d="m627.14 179.79c4.38 0.26 8.73 0.69 13.14 0.99-3.57-1.09-11.25 2.22-13.14-0.99z" fill="#525405"/>
  <path d="m89.12 180.98c1.6-0.1 3.21-0.18 4.82-0.24 0.71-0.02 2.13-0.06 2.85-0.08 9.4 0.29 18.8 0.34 28.21 0.33-9.29 1.61-26.93 2.01-35.88-0.01z" fill="#9c8622"/>
  <path d="m652.84 180.99c4.5 0.1 8.96 0.57 13.47 0.83-3.96-1.01-10.65 2.22-13.47-0.83z" fill="#888739"/>
  <path d="m666.31 181.82c7.62 0.09 15.24 0.23 22.85 0.92-6.37-0.84-19.03 2.46-22.85-0.92z" fill="#464602"/>
  <path d="m193.76 186.26c11.4 1.44 34.22-3.16 40.82 0.67-13.61 0.28-27.24 0.32-40.82-0.67z" fill="#979845"/>
  <path d="m246.18 185.86c5.18-0.64 10.41-0.73 15.63-0.67 3.74 0.18 7.49 0.37 11.24 0.57 7.23 2.73 5.51 14.85 10.13 21 14.8 22.07 31.77 42.69 50.53 61.53 35.3 30.7 55.46 75.09 68.93 119.06-17.82-19.45-32.8-41.22-45.93-64.05-31.14-39.22-72.09-69.86-101.13-110.81-6.17-7.6-5.81-17.86-9.4-26.63z" fill="#b6b62c"/>
  <path d="m261.81 185.19c3.76-0.18 7.51 0.01 11.24 0.57-3.75-0.2-7.5-0.39-11.24-0.57z" fill="#595809"/>
  <path d="m285.16 185.03c6.21-0.15 12.45-0.2 18.66 0.15 3.65 0.24 7.31 0.49 10.97 0.73 13.96 31.69 35.8 60.48 60.16 85.12 14.12 7.21 10.4 25.73 23.59 33.46 10.54 22.27 22.07 44.27 27.47 68.41-12.19-11.05-23.83-23.09-34.07-35.87-14.73-38.48-48.21-64.27-72.91-96.06-13.44-16.86-30.9-33.66-33.87-55.94z" fill="#a9aa2a"/>
  <path d="m303.82 185.18c3.85-0.43 7.51-0.19 10.97 0.73-3.66-0.24-7.32-0.49-10.97-0.73z" fill="#52530d"/>
  <path d="m184.96 189.12c1.76-3.42 5.4-3.24 8.8-2.86 13.58 0.99 27.21 0.95 40.82 0.67 9.98 14.53 12.46 36.23 27.16 48.36 28.4 25.26 53.31 54.09 79.11 81.89 10.54 23.51 28.93 46.27 27.56 72.95-12.25-13.26-24.44-26.61-37.47-39.07-8.94-11.15-12.21-25.7-21.24-36.74-25.71-26.01-51.07-52.59-80.38-74.64-18.97-12.81-29.37-33.88-44.36-50.56z" fill="#b7b72c"/>
  <path d="m578.75 186.26c4.96 1.03 13.83-2.5 17.33 0.79-5.8 0-11.58-0.41-17.33-0.79z" fill="#353524"/>
  <path d="m157.66 188.55c5.81-0.39 11.93-1.31 17.49 1.06 18.85 21.2 34.27 45.75 56.6 63.63 34.18 31.55 78.25 59.1 91.57 106.41 5.48 13.81 13.3 27.12 13.93 42.32-26.51-43.15-62.51-80.2-98.67-115.57-40.86-25.04-82.72-52.39-106.32-95.51 8.43-1.17 16.92-1.66 25.4-2.34z" fill="#b6b62c"/>
  <path d="m644.77 188.26c5.22 0.5 11.83-1.67 16.44 0.69-5.5-0.03-10.98-0.31-16.44-0.69z" fill="#4a4a35"/>
  <path d="m45.6 189.16c7.4-3.16 11.96 6.98 19.22 2.58 13.79-2.42 18.97 14.83 23.37 25.04 32.34 37.91 74.63 65.49 112.14 97.89 19.54 21.88 38.23 48.55 44.84 76.67-2.7 6.91 1.27 15.74-2.84 21.97-12.06-17.17-20.88-36.96-34.96-52.72-6.78-2.07-10.22-7.64-13.32-13.63-43.64-29.3-93.65-53.78-121.35-100.65-11.05-17.8-27-35.05-27.1-57.15z" fill="#c8c934"/>
  <path d="m465.92 190.94c2.16-1.91 5.52-0.55 8.16-0.63-2.71 0.3-5.48 0.4-8.16 0.63z" fill="#5a5946"/>
  <path d="m88.18 193.02c8.74-0.32 29.19-4.09 36.8 0.76-12.23-1.16-24.53-0.86-36.8-0.76z" fill="#5a5b1b"/>
  <path d="m88.18 193.02c12.27-0.1 24.57-0.4 36.8 0.76 6.64 9.06 11.19 19.49 17.52 28.72 25.49 22.51 49.81 46.94 80.38 62.62 16.93 7.86 26.34 24.36 38.44 37.56 19.3 17.73 26.9 43.92 33.73 68.36-15.17-13.54-26.33-31.09-41.89-44.22-45.67-29.38-82.59-69.93-127.12-100.86-12.56-7.88-18.9-21.82-28.08-32.91-3.91-6.28-11.16-11.83-9.78-20.03z" fill="#c8c934"/>
  <path d="m685.86 193.27c6.58 0.86 19.79-2.55 23.73 0.85-7.92-0.09-15.85-0.17-23.73-0.85z" fill="#2b2c14"/>
  <path d="m796.09 226.46c8.6-10.75 19.44-10.61 30.9-5.19 4.6 0.41 9.27 0.69 13.91 0.8 5.3-0.15 11.21 1.3 9.14 8.43-7.55 6.26-19.26 8.57-22.92 18.62 0.92 6.36 8.41 10.56 6.67 17.6-2.05 12.77-15.74 18.37-26.33 22.78-5.35 7.22 8.7 14.36 2.72 21.64-3.35 15.51-22.84 15.13-30.23 27.84 9.42 5.41 12.36 14.68 6.81 24.55-7.44 7.77-19.59 11.86-26.44 19.31 13.58 15.84-3.57 32.06-20.12 34.27-8.78 8.47 10.23 10.79 3.5 21.02-8.74 9.58-19.2 18.22-28.71 26.97 9.29 14.43-11.12 21.87-21.91 25.08-1.06 23-25.82 32.12-44.72 35.56-11.05-4.02-21.98-8.36-33.17-11.95 5.46-6.69 19.25-7.76 22.22-18.36 4.98-15.77 26.62-11.44 33.58-24.58 16.92-7.04 39.77-7.12 49.45-25.22 3.97-8.16-4.18-11.7-9.35-15.74 7.82-10.67 28.27-14.17 25-30.79 3.13-7.16-12.55-15.72-2.4-19.41 14.03-3.71 32.68-15.47 31.41-31.64-0.28-2.65-0.29-5.26-0.7-7.87-2.68-2.89-6.37-4.79-8.46-8.18 10.19-9.3 21.26-17.67 30.99-27.45 4.1-8.42-0.74-16.43-4.94-23.47 14.44-6.76 27.85-16.74 37.35-29.22-0.07-3.43 1.89-7.5-0.06-10.69-6.59-6.66-12.78-14.98-23.19-14.71z" fill="#b79208"/>
  <path d="m826.99 221.27c3.95 0.9 11.4-2.24 13.91 0.8-4.64-0.11-9.31-0.39-13.91-0.8z" fill="#796308"/>
  <path d="m688.58 222.99c-0.44-1.54 6.56-1.82 7.46 0-2.51-0.01-4.99-0.01-7.46 0z" fill="#5b4903"/>
  <path d="m642.25 250.04c15.47-8.83 30.79-18.53 46.33-27.05 2.47-0.01 4.95-0.01 7.46 0 6.8-0.39 14.01 1.65 16.03 8.86-0.06 3.92-0.05 7.84-0.06 11.77-18.01 18.38-37.43 36.42-60.22 49.38-3.61-14.23-5.53-28.83-9.54-42.96z" fill="#f8c905"/>
  <path d="m719.52 227.96c1.17 7.2 0.76 14.57-0.25 21.77-0.39-7.26-0.38-14.53 0.25-21.77z" fill="#bda030"/>
  <path d="m712.07 231.85c0.13-0.85 2.67 11.04-0.06 11.77 0.01-3.93 0-7.85 0.06-11.77z" fill="#b39730"/>
  <path d="m776.73 238.76c9.03-10.55 24.38-3.15 33.87 2.75 6.82 9.77-8.92 15.75-14.44 21.65-32.78 20.35-66.94 38.65-100.5 57.79-2.51 2.16-7.6 1.03-7.66-2.66 9.98-8.21 20.94-15.58 29.21-25.63 0.46-4.75 0.78-9.5 0.89-14.27 17.66-13.92 39.21-26.55 58.63-39.63z" fill="#f7c806"/>
  <path d="m819.28 241.17c1.95 3.19-0.01 7.26 0.06 10.69-0.18-3.58-0.32-7.13-0.06-10.69z" fill="#3f3100"/>
  <path d="m631.33 257.42c7.33 7.3 8.3 25.91-6.26 29.31-2.14-7.24-7.26-13.78-7.93-21.28 4.17-3.52 9.47-5.38 14.19-8.03z" fill="#f4f40e"/>
  <path d="m590.94 285.49c5.89-4.51 12.27-10.19 18.74-13.05 2.58 7.45 6.4 14.54 8.14 22.25-7.14 6.66-14.05 13.6-20.01 21.33-3.88-5.69-4.62-13.69-6.68-20.49-0.13-3.36-0.16-6.68-0.19-10.04z" fill="#f6f60b"/>
  <path d="m688.96 275.95c6.91-7.38 14.51 6.12 21.83 7.46-0.6 5.23-2.45 11.42-7.72 13.75-17.78 10.03-33.3 24.13-52.47 31.57 0.14-3.22 0.41-6.39 0.47-9.6-5.89-23.97 24.35-29.64 37.89-43.18z" fill="#f6c707"/>
  <path d="m717.21 292.66c0.8-3.96-2.04-12.13 0.89-14.27-0.11 4.77-0.43 9.52-0.89 14.27z" fill="#a78d26"/>
  <path d="m591.13 295.53c-1.41 0.56-2.42-11.05-0.19-10.04 0.03 3.36 0.06 6.68 0.19 10.04z" fill="#6b6a00"/>
  <path d="m627.43 298.42c3.96-3.75 16.61-20.87 15.36-5.67-0.34 3.72-0.65 7.45-0.96 11.18-0.42 5.01-0.95 10.04-0.86 15.08 1.47 2.77-0.3 11.75-4.58 9.27-2.13-10.17-6.9-19.84-8.96-29.86z" fill="#f6f610"/>
  <path d="m771.46 287.47c8.93-0.05 12.49 15.45 3.62 19.58-24.07 19.84-53.38 33.19-81.97 45.09-0.1-6.43 11.68-16.69 6.19-25.13 23.44-14.08 48.59-25.41 72.16-39.54z" fill="#f7c707"/>
  <path d="m641.83 303.93c0.31-3.73 0.62-7.46 0.96-11.18 0.32 3.87 0 7.6-0.96 11.18z" fill="#636303"/>
  <path d="m579.53 297.51c8.07 9.94 11.57 31.39-4.59 38.61-6.94-12.11-7.52-29.49 4.59-38.61z" fill="#f4f40e"/>
  <path d="m108.98 300.12c30.24 25.02 67.9 39.91 93.95 69.99 8.8 17.12 7.55 37.04 10.07 55.61-10.91-13.79-20.09-33.53-30.06-49.61-25.2-24.14-62.91-40.56-73.96-75.99z" fill="#c6c736"/>
  <path d="m640.97 319.01c-0.09-5.04 0.44-10.07 0.86-15.08-0.95 4.44 2.09 11.96-0.86 15.08z" fill="#b8b815"/>
  <path d="m620.43 306.44c3.18 8.37 6.35 21.52 8.29 31.91-8.83 6.09-12.39 21.51-23.45 22.52-2.69-12.15-3.92-24.61-7.09-36.67 6.75-6.68 14.7-12.02 22.25-17.76z" fill="#f7f709"/>
  <path d="m650.6 328.73c-1.64-2.89-1.49-6.09 0.47-9.6-0.06 3.21-0.33 6.38-0.47 9.6z" fill="#4e3800"/>
  <path d="m648.46 340.72c13.2-4.98 28.81-25.47 41.67-10.2-0.36 4.61 0.22 9.52-1.82 13.83-10.31 8.56-22.6 14.09-34.2 20.63-15.56 11.15-3.93-16.51-5.65-24.26z" fill="#f7c807"/>
  <path d="m690.13 330.52c0.73 2.02 3.42 12.44-1.82 13.83 2.04-4.31 1.46-9.22 1.82-13.83z" fill="#e1c241"/>
  <path d="m577.3 349.76c0.46-7.15 9.51-12.01 13.7-17.69 2.04 12.3 7.73 24.79 7.24 37.1-4.56 4.81-19.33 31.02-19.28 13.09-0.29-2.87-0.49-5.65-0.67-8.49-0.14-3.61-0.15-7.16-0.29-10.75-0.15-4.44-0.32-8.85-0.7-13.26z" fill="#f7f70b"/>
  <path d="m745.92 337.37c9.1 0.9 16.48 14.88 7.77 21.36-22.35 13.76-46.02 29.42-71.36 34.69-2.77 4.86-7.8 0.2-11.39-1.25 9.87-11.15 26.98-16.95 31.13-32.03 14.73-7.35 28.79-16.08 43.85-22.77z" fill="#f6c707"/>
  <path d="m764.4 340.18c0.41 2.61 0.42 5.22 0.7 7.87-1.99-2.15-0.85-5.29-0.7-7.87z" fill="#513900"/>
  <path d="m233.92 345.26c30.23 14.98 49.41 44.58 66.24 72.72 4.01 8.61 9.81-3.5 7.03-8.1-1.47-17.3-7.76-33.31-12.23-49.86 14.22 14.29 24.83 31.59 35.41 48.6 1.97 7.02 13.09 8.87 15.64 1.22-2.4-11.68 0.26-24.45-5.92-35.15 13 11.87 26.28 24.44 35.96 39.31 3.03 4.23 10.54 0.2 8.56-4.46-7.11-13.43-9.5-29.09-11.12-43.89 8.1 15.86 20.92 27.72 35.16 37.95 5.7 2.73 9.62-6.41 6.01-9.84-7.36-7.69-6.96-19.03-9.68-28.67 16.7 0.56 19.31 29.05 34.82 25.62 1.13-0.59 2.23-1.24 3.33-1.88 8.3 16.9 22.88 29.89 32.67 45.51-4.77 2.04-13.26 0.3-19.75 0.6-7.14-0.07-14.26 0.32-21.37 0.77-5.68 0.24-11.34 0.61-17 0.95-4.59 0.17-9.15 0.42-13.73 0.36-10.07 0.06-20.24-0.87-30.24 0.57-37.63 5.8-75.83 8.51-113.48 15.59-3.85 0.4-7.7 0.84-11.52 1.43-23.32 3.01-46.41 10.13-70.1 8.13-2.45-4.32-2.46-9.42-2.95-14.23 2.56 1.91 5.61 0.71 7.21-1.8-3.32-18.69-10.1-37.2-5.55-56.44-0.78-9.49 4.79 0.08 6 2.58 9.34 18.48 23.59 34.77 28.61 55.13 1.21 3.04 6.78 4.65 7.41 0.36 6.24-17.76-0.65-36.83-1.43-55.1 13.08 8.84 16.75 26.18 24.33 39.52 3.34 1.82 9.54 6.85 12.14 2.31 0.91-4.45 0.54-8.95 0.04-13.4-0.66-5.88-0.53-11.79-0.4-17.68 0.07-5.67 0.41-11.42-0.78-16.99-5.97-14.09-15.12-26.98-19.32-41.74z" fill="#930102"/>
  <path d="m133.97 346.1c14.34 8.87 34.94 21.36 34.02 39.86-0.21 6.79-0.28 13.63 0.62 20.39 0.35 4.67 0.52 9.39 1.03 14.06 0.01 1.86 2.07 7.79-0.71 5.76-19.09-22.88-27.17-51.95-34.96-80.07z" fill="#c7c836"/>
  <path d="m611 371.28c3.14-9.69 12.95-15.62 20.16-22.41 4.83 19.08 4.43 44.01-17.11 52.06-1.24-6.98-2.77-13.94-3.08-21.03-0.04-2.91 0.02-5.74 0.03-8.62z" fill="#f7f70b"/>
  <path d="m799.06 360.65c-1.32-0.34-2.67-10.59 0.03-11.53 0.12 3.83 0.11 7.68-0.03 11.53z" fill="#6e6e55"/>
  <path d="m577.3 349.76c0.38 4.41 0.55 8.82 0.7 13.26l-0.98-0.14c-0.09-4.39 0.07-8.75 0.28-13.12z" fill="#d3d342"/>
  <path d="m684.44 357.43c4.91-1.29 10.98 5.41 6.81 9.74-17.73 11.23-35.04 23.44-54.43 31.68 1.21-26.54 28.79-30.78 47.62-41.42z" fill="#f4c60a"/>
  <path d="m577.02 362.88l0.98 0.14c0.14 3.59 0.15 7.14 0.29 10.75-1.42-2.53-1.85-6.16-1.27-10.89z" fill="#3f3f00"/>
  <path d="m610.97 379.9c-1.9 0.21-1.76-8.65 0.03-8.62-0.01 2.88-0.07 5.71-0.03 8.62z" fill="#959708"/>
  <path d="m578.29 373.77c0.18 2.84 0.38 5.62 0.67 8.49-1.91-2.36-0.67-5.73-0.67-8.49z" fill="#9b9804"/>
  <path d="m601.46 379.28c3.79 6.9 4.05 20.05 6.35 29.39-4.4 6.24-11.07 10.7-16.94 15.49-2.9-8.71-10.73-17.7-5.95-27.06 1.66-8.81 11.39-11.47 16.54-17.82z" fill="#f6f60b"/>
  <path d="m437.78 380.16c3.15 1.63 3.92 5.67 5.35 8.67-1.1 0.64-2.2 1.29-3.33 1.88-0.48-3.56-1.29-7.05-2.02-10.55z" fill="#5e0a0a"/>
  <path d="m167.99 385.96c2.26 4.94 1.13 13.73 0.62 20.39-0.9-6.76-0.83-13.6-0.62-20.39z" fill="#9e9f49"/>
  <path d="m571.76 386.64c7.88 8.08-7.19 19.74-14.1 26-1.11 3.06-5.95-0.86-3.7-2.75 6.82-6.93 14.44-13.88 17.8-23.25z" fill="#e4e51d"/>
  <path d="m253.24 387c1.19 5.57 0.85 11.32 0.78 16.99-2.56-4.07-0.4-11.65-0.78-16.99z" fill="#560909"/>
  <path d="m714.77 390.53c8.78-4.1 17.49 5.15 15.14 13.82-22.36 20.96-52.33 30.84-80.65 40.51-15.15-13.57 10.75-14.86 18.79-20.76 12.6-2.14 8.3-19.33 19.65-22.47 8.98-3.78 17.96-7.66 27.07-11.1z" fill="#f6c708"/>
  <path d="m242.33 413.31c4.11-6.23 0.14-15.06 2.84-21.97-0.65 4.43 1.9 36.15-2.84 21.97z" fill="#b7b85b"/>
  <path d="m661.43 395.37c6.2 0.36 12 9.79 11.42 16.07-18.21 8.15-34.6 20.82-53.85 26.42 5.13-21.18 22.73-35.35 42.43-42.49z" fill="#f4c609"/>
  <path d="m626.65 402.69c-0.43 2.06-2.14 18.08-9.46 13.18 1.34-5.2 6.12-9.02 9.46-13.18z" fill="#dddd2b"/>
  <path d="m574.1 404.97c5.49 8.49 10.63 21.02 5.94 31.03-6.67 6.75-13.73 13.32-21.32 19.07-1.25-8.34-2.01-16.75-2.71-25.15-0.03-2.48-0.03-4.96 0-7.42 5.89-5.28 14.42-9.44 18.09-17.53z" fill="#f7f70a"/>
  <path d="m168.61 406.35c2.61 2.01 1.16 9.6 1.03 14.06-0.51-4.67-0.68-9.39-1.03-14.06z" fill="#5b5c09"/>
  <path d="m522.02 426.41c6.96-3.59 15.98-11.05 24.68-10.8 0.91 13.47-18.59 21.87-24.67 29.9-0.1-6.38-0.07-12.74-0.01-19.1z" fill="#f6f510"/>
  <path d="m594.98 452.94c-6.62-13.02 2.51-28.56 14.15-33.61-0.08 5.37-0.1 10.75-0.09 16.14-3.4 6.42-8.1 13.08-14.06 17.47z" fill="#f5f50e"/>
  <path d="m609.13 419.33c1.28 1.36 2.21 15.4-0.09 16.14-0.01-5.39 0.01-10.77 0.09-16.14z" fill="#bcbc1a"/>
  <path d="m254.42 421.67c0.5 4.45 0.87 8.95-0.04 13.4-0.13-4.48-0.16-8.94 0.04-13.4z" fill="#530101"/>
  <path d="m485.81 422.7c2.71-0.35 5.39-0.11 8.14-0.01-2.71 0.17-5.43 0.15-8.14 0.01z" fill="#3c3b22"/>
  <path d="m556.01 429.92c-1.86-0.6-1.63-7.66 0-7.42-0.03 2.46-0.03 4.94 0 7.42z" fill="#979623"/>
  <path d="m522.03 445.51c-1.63 2.66-2.17-17.99-0.01-19.1-0.06 6.36-0.09 12.72 0.01 19.1z" fill="#87861a"/>
  <path d="m492.09 431.14c6.69-0.93 15.43-4.75 21.1-3.3 0.2 3.71 0.42 7.42 0.66 11.14 0.18 3.09 0.46 6.26 0.85 9.36-0.2 1.49 1.73 5.54-1.16 4.17-8.37-5.31-19.24-10.8-21.45-21.37z" fill="#f5f60e"/>
  <path d="m513.19 427.84c0.5 3.69 0.72 7.4 0.66 11.14-0.24-3.72-0.46-7.43-0.66-11.14z" fill="#b4b314"/>
  <path d="m547.43 433.19c1.37 8.44 11.64 30.84-3.53 35.92-8.38 5.73-15.48-3.99-20.89-9.18 8.36-8.7 16.57-17.58 24.42-26.74z" fill="#f5f60c"/>
  <path d="m695.48 434.61c6.67-0.97 12.03 4.3 17.59 7.22-18.32 17.85-44.01 23.99-66.58 34.65-4.46 2.02-10.84 5.98-14.4 0.41 1.74-7.63 8.82-9.85 15.16-12.53 6.98-2.97 1.18-14.36 8.33-15.88 14.34-1.53 25.98-11.06 39.9-13.87z" fill="#f5c609"/>
  <path d="m434.68 435.71c7.11-0.45 14.23-0.84 21.37-0.77-5.06 2.73-14.72 0.3-21.37 0.77z" fill="#520708"/>
  <path d="m417.68 436.66c5.66-0.34 11.32-0.71 17-0.95-2.75 2.68-11.9 0.66-17 0.95z" fill="#420101"/>
  <path d="m373.71 437.59c10-1.44 20.17-0.51 30.24-0.57-7.85 2.11-20.37 1.09-30.24 0.57z" fill="#4c0505"/>
  <path d="m513.85 438.98c1.35 2.84 1.01 6.27 0.85 9.36-0.39-3.1-0.67-6.27-0.85-9.36z" fill="#636503"/>
  <path d="m630.7 440.52c7.59-1.13 14.66 7.77 14.25 14.98-20.28 9.85-39.86 22.46-61.65 28.66 6.35-11.34 15.91-20.85 23.79-31.24 9.23-1.61 16.47-7.49 23.61-12.4z" fill="#f5f50b"/>
  <path d="m438.88 443.14c5.94-1.14 19.29-3.15 23.92-0.05-7.66-0.06-15.31 0.07-22.96 0.07l-0.96-0.02z" fill="#4c4c00"/>
  <path d="m427.14 444.22c3.88-0.57 7.8-1.05 11.74-1.08l0.96 0.02c17.31 1.19 34.71 0.92 51.99 2.71 3.58 2.95 7.93 5.42 10.36 9.53-6.37 0.29-12.71 0.5-19.06 0.62-15.52 0.8-31.91-1.77-46.94 1.06l-0.73 0.62c-3.08 0.61-6.21 0.18-9.31 0.32-3.53-0.07-7.01 0.1-10.48 0.67-3.24 0.07-6.41 0.15-9.62 0.28-3.45 0.06-6.86 0.22-10.28 0.64-3.34 0.28-6.62 0.65-9.93 1.09-3.05 0.28-6.04 0.59-9.05 1.02-34.03 1.84-67.57 8.46-101.6 10.3-2.81 0.14-5.57 0.29-8.35 0.63-25.65 6.66-52.05 9.6-78.15 13.97-5.91 1.24-4.8-7.81-6.57-11.57 8.02-5.7 18.07-6.11 27.54-6.18 2.75-0.18 5.54-0.24 8.3-0.56 2.42-0.33 4.84-0.67 7.26-1.03 38.5-5.93 77.08-11.38 115.57-17.32 2.79-0.26 5.63-0.43 8.44-0.62 5.15-0.31 10.33-0.2 15.48-0.43 2.8-0.16 5.68-0.23 8.5-0.51 5.22-0.57 10.44-1.16 15.69-1.4 3.46-0.12 6.96-0.18 10.41-0.57 3.16-0.29 6.38-0.43 9.57-0.51 3.38-0.04 6.84 0.01 10.2-0.56 2.66-0.39 5.39-0.7 8.06-1.14z" fill="#f8f809"/>
  <path d="m439.84 443.16c7.65 0 15.3-0.13 22.96-0.07 8.84 1.92 22.43-1.73 29.03 2.78-17.28-1.79-34.68-1.52-51.99-2.71z" fill="#e7e837"/>
  <path d="m582.39 443.41c15.29 13.61-2.9 30.59-13.29 42.62-9.15 11.97-8.62-14.7-10.05-19.7 7.24-7.71 15.49-15.48 23.34-22.92z" fill="#f6f60b"/>
  <path d="m419.08 445.36c1.72-2.41 5.49-0.93 8.06-1.14-2.67 0.44-5.4 0.75-8.06 1.14z" fill="#606202"/>
  <path d="m408.88 445.92c2.93-1.84 6.91-0.75 10.2-0.56-3.36 0.57-6.82 0.52-10.2 0.56z" fill="#baba14"/>
  <path d="m388.9 447c2.72-2.24 7.12-0.7 10.41-0.57-3.45 0.39-6.95 0.45-10.41 0.57z" fill="#7a7a0e"/>
  <path d="m364.71 448.91c2.42-1.85 5.72-0.59 8.5-0.51-2.82 0.28-5.7 0.35-8.5 0.51z" fill="#84820f"/>
  <path d="m340.79 449.96c2.27-1.97 5.71-0.6 8.44-0.62-2.81 0.19-5.65 0.36-8.44 0.62z" fill="#504f00"/>
  <path d="m248.71 454.61c3.82-0.59 7.67-1.03 11.52-1.43-3.75 1.18-7.59 1.7-11.52 1.43z" fill="#4d0404"/>
  <path d="m502.19 455.4c6.26 3.35-15.88 1.31-19.21 1.61l0.15-0.99c6.35-0.12 12.69-0.33 19.06-0.62z" fill="#c1c11e"/>
  <path d="m436.19 457.08c15.03-2.83 31.42-0.26 46.94-1.06l-0.15 0.99c-15.6 0.05-31.2-0.15-46.79 0.07z" fill="#f6f72d"/>
  <path d="m436.19 457.08c15.59-0.22 31.19-0.02 46.79-0.07-13.83 2.21-32.05 0.73-47.52 0.69l0.73-0.62z" fill="#686903"/>
  <path d="m415.67 458.69c3.47-0.57 6.95-0.74 10.48-0.67-2.79 2.15-7.14 0.7-10.48 0.67z" fill="#b1b10f"/>
  <path d="m395.77 459.61c3.42-0.42 6.83-0.58 10.28-0.64l-0.15 0.97c-3.41 0.12-6.77 0.15-10.13-0.33z" fill="#eaee51"/>
  <path d="m406.05 458.97c3.21-0.13 6.38-0.21 9.62-0.28 0.26 2.85-7.21 0.86-9.77 1.25l0.15-0.97z" fill="#575900"/>
  <path d="m385.84 460.7c3.31-0.44 6.59-0.81 9.93-1.09-1.97 2.74-6.88 0.9-9.93 1.09z" fill="#999a02"/>
  <path d="m376.79 461.72c3.01-0.43 6-0.74 9.05-1.02-2.52 1.85-6.11 0.98-9.05 1.02z" fill="#4a4702"/>
  <path d="m491.22 464.01c31.44-3.67 50.81 26.28 77.78 36.98 17.37 8.26 34.46 17.16 52.19 24.62 0.8 2.44 4.47 7.31-3.13 3.85-27.21-0.2-55.03-1.7-81.91 0.41-0.42 0.22-1.25 0.67-1.67 0.9-22.26 1.8-44.07 7.21-66.3 9.42-32.03 2.33-61.51 15.95-92.38 23.6-45.36 9.77-85.94 33.68-124.7 58.31-14.54 9.82-25.8 24.01-40.17 33.85-7.45-53.11-14.28-107.02-23.41-159.46 14.34-1.93 28.18-7.06 42.57-8.49 3.9 0.07 7.8 0.09 11.71 0.05 3.89 0.18 7.28-1.93 10.88-3.03 4.8-0.16 9.74 0.53 14.44-0.72 5.98-1.43 11.75-4.07 17.96-4.27 5.66-0.09 11.35-0.02 17-0.64 6.51-2.22 12.91-5.4 19.97-5.42 4.64 0.01 9.3 0.12 13.96 0.05 8.81 0.3 17.56-0.7 26.3-1.64 2.53-0.12 5.07-0.25 7.62-0.38 9.82-1.75 20.41 1.24 29.91-1.98 0.44-0.18 1.32-0.53 1.76-0.7 2.96-0.8 6.17-0.22 9.23-0.54 3.73-0.14 7.47-0.31 11.21-0.51 3.42-0.22 6.88-0.48 10.3-0.89 3.12-0.31 6.32-0.37 9.48-0.42 3.5 0.03 7.06-0.05 10.54-0.67 4.25-0.14 8.53-0.22 12.8-0.28 8.24-1.62 19.01 3.5 26.06-2z" fill="#fbca02"/>
  <path d="m478.95 465.05c0.06-1.71 9.31-1.86 8.66-0.36-2.91 0.32-5.77 0.38-8.66 0.36z" fill="#836d12"/>
  <path d="m487.61 464.69c1.2-0.22 2.4-0.45 3.61-0.68-7.05 5.5-17.82 0.38-26.06 2l-0.21-0.98c4.65-0.16 9.33-0.05 14 0.02 2.89 0.02 5.75-0.04 8.66-0.36z" fill="#e1bb23"/>
  <path d="m452.36 466.29c0.99-2.33 8.74-1.22 12.59-1.26l0.21 0.98c-4.27 0.06-8.55 0.14-12.8 0.28z" fill="#553c00"/>
  <path d="m441.82 466.96c2.79-2.16 7.18-0.67 10.54-0.67-3.48 0.62-7.04 0.7-10.54 0.67z" fill="#957e1c"/>
  <path d="m217.03 468.22c1.55-2.32 5.63-0.78 8.19-0.94-2.42 0.36-4.84 0.7-7.26 1.03l-0.93-0.09z" fill="#5a5900"/>
  <path d="m422.04 468.27c2.28-2.61 7.11-0.82 10.3-0.89-3.42 0.41-6.88 0.67-10.3 0.89z" fill="#654c00"/>
  <path d="m209.66 468.87c2.24-1.39 4.91-0.83 7.37-0.65l0.93 0.09c-2.76 0.32-5.55 0.38-8.3 0.56z" fill="#b6b230"/>
  <path d="m410.83 468.78c3.71-0.56 7.45-0.73 11.21-0.51-3.74 0.2-7.48 0.37-11.21 0.51z" fill="#a38c22"/>
  <path d="m390.1 469.97c3.3-1.32 7.14-1.54 11.5-0.65-0.44 0.17-1.32 0.52-1.76 0.7-3.27 0.02-6.49 0.03-9.74-0.05z" fill="#735600"/>
  <path d="m370.08 471.05c6.7 0.16 13.33-1.06 20.02-1.08 3.25 0.08 6.47 0.07 9.74 0.05-9.5 3.22-20.09 0.23-29.91 1.98l0.15-0.95z" fill="#e0bb2b"/>
  <path d="m359.37 472.09c2.23-1.3 5.8-1.64 10.71-1.04l-0.15 0.95c-2.55 0.13-5.09 0.26-7.62 0.38-0.73-0.07-2.2-0.22-2.94-0.29z" fill="#7f6500"/>
  <path d="m266.84 472.65c2.78-0.34 5.54-0.49 8.35-0.63-2.28 1.95-5.63 0.61-8.35 0.63z" fill="#c1c118"/>
  <path d="m335.76 473.08c3.69-1.93 8.43-0.6 12.53-0.87-4.19 0.28-8.36 0.55-12.53 0.87z" fill="#3f2e00"/>
  <path d="m348.29 472.21c3.66-0.19 7.4-0.46 11.08-0.12 0.74 0.07 2.21 0.22 2.94 0.29-8.74 0.94-17.49 1.94-26.3 1.64l-0.25-0.94c4.17-0.32 8.34-0.59 12.53-0.87z" fill="#dfbc2f"/>
  <path d="m322.05 473.97c2.87-2.37 9.29-0.92 13.71-0.89l0.25 0.94c-4.66 0.07-9.32-0.04-13.96-0.05z" fill="#957501"/>
  <path d="m551.61 472.89c4.26 12.43-7.33 6.57 0 0z" fill="#e0e23d"/>
  <path d="m621.45 478.42c5.12 0.47 7.98 8.67 10.29 13.45-12.46 17.94-39.97 19.79-53.48 3.33 12.77-8.46 29.85-8.36 43.19-16.78z" fill="#f6f60a"/>
  <path d="m285.08 480.03c3.99-2.65 11.66-0.33 17-0.64-5.65 0.62-11.34 0.55-17 0.64z" fill="#c8a61d"/>
  <path d="m252.68 485.02c1.33-1.76 9.89-0.99 14.44-0.72-4.7 1.25-9.64 0.56-14.44 0.72z" fill="#ab8f27"/>
  <path d="m230.09 488c0.74-1.44 11.11-2.56 11.71 0.05-3.91 0.04-7.81 0.02-11.71-0.05z" fill="#836700"/>
  <path d="m1155.2 520.21c0.3-2.8 0.4-5.64 0.6-8.4-0.1 2.81-0.4 5.55-0.6 8.4z" fill="#4c4d3c"/>
  <path d="m1144.8 537.77c0.2-6.7 0.5-13.4 0.9-20.08-0.9 5.67 2.6 16.65-0.9 20.08z" fill="#5b5c09"/>
  <path d="m621.19 525.61c3.76 1.24 7.51 2.45 11.29 3.67-32.08 1.6-64.23 0.39-96.33 0.59 26.88-2.11 54.7-0.61 81.91-0.41 7.6 3.46 3.93-1.41 3.13-3.85z" fill="#eac530"/>
  <path d="m632.48 529.28c3.49 2.59-7.98 1.68-9.52 1.79-29.49-0.35-59.01 0.34-88.48-0.3 0.42-0.23 1.25-0.68 1.67-0.9 32.1-0.2 64.25 1.01 96.33-0.59z" fill="#604700"/>
  <path d="m586.82 535.94c2.21-1.97 5.69-0.56 8.4-0.6-2.79 0.21-5.65 0.36-8.4 0.6z" fill="#888900"/>
  <path d="m595.22 535.34c19.95-0.03 39.82 3.25 59.71 4.89 3.3 0.3 6.69 0.62 10.02 0.82 10 2.61 19.46 7.82 28.75 12.28-0.05 0.43-0.14 1.29-0.18 1.73-1.6-0.07-4.81-0.21-6.41-0.28-2.88-0.26-5.62-0.52-8.45-0.63-2.52-0.08-5.01-0.2-7.48-0.37-2.81-0.35-5.49-0.66-8.25-0.94-3.1-0.38-6.1-0.72-9.19-0.78-3.2-0.14-6.31-0.1-9.47-0.29-5.04-0.34-10.03-0.78-15.06-1.01-12.87-0.84-25.83-1.64-38.68-0.04-11.91 0.31-23.85-0.03-35.73 1-56.94 7.34-113.6 17.68-168.55 34.54-62.11 24.51-129.01 50.88-167.79 108.32-1.36-5.35-3.93-15.4-6.23-22.43 11.47-18.24 29.83-30.34 46.68-43.24 24.24-22.53 56.98-31.03 85.49-46.5 20.26-6.63 42.19-8.12 61.61-17.4 32.94-14.17 69.61-15.09 103.8-23.84 8.54 0.99 17.18 1.01 25.6-0.91 3.16-0.13 6.42-0.12 9.62-0.26 7.37-0.04 14.71-0.74 22.02-1.73 2.67-0.33 5.45-0.58 8.16-0.97 3.85-0.48 7.73-1.06 11.61-1.36 2.75-0.24 5.61-0.39 8.4-0.6z" fill="#f8f809"/>
  <path d="m566.12 538.2c1.99-2.47 6.26-0.61 9.09-0.9-2.71 0.39-5.49 0.64-8.16 0.97l-0.93-0.07z" fill="#9c9c04"/>
  <path d="m544.77 539.09c3.02-1.86 7.11-0.82 10.54-0.89-3.55 0.27-7.02 0.63-10.54 0.89z" fill="#565500"/>
  <path d="m555.31 538.2c3.56-0.25 7.22-0.28 10.81 0l0.93 0.07c-7.31 0.99-14.65 1.69-22.02 1.73l-0.26-0.91c3.52-0.26 6.99-0.62 10.54-0.89z" fill="#efef3c"/>
  <path d="m1144 563.63c-0.2-8.63 0.2-17.26 0.8-25.86-0.4 8.02 1.6 20.23-0.8 25.86z" fill="#9f9e4b"/>
  <path d="m535.41 540.26c-0.3-2.86 6.92-0.86 9.36-1.17l0.26 0.91c-3.2 0.14-6.46 0.13-9.62 0.26z" fill="#aeb00f"/>
  <path d="m509.81 541.17c4.34-2.25 10.38-1 15.47-0.94-5.18 0.31-10.3 0.88-15.47 0.94z" fill="#6b6c04"/>
  <path d="m525.28 540.23c3.33-0.2 6.76-0.25 10.13 0.03-8.42 1.92-17.06 1.9-25.6 0.91 5.17-0.06 10.29-0.63 15.47-0.94z" fill="#f7f63a"/>
  <path d="m654.93 540.23c2.81 0.76 7.91-1.66 10.02 0.82-3.33-0.2-6.72-0.52-10.02-0.82z" fill="#696a04"/>
  <path d="m590.53 550.72c12.85-1.6 25.81-0.8 38.68 0.04-12.89 0.31-25.8 0.52-38.68-0.04z" fill="#cacb1d"/>
  <path d="m554.8 551.72c11.88-1.03 23.82-0.69 35.73-1-8.45 2.73-24.43 0.82-35.73 1z" fill="#737408"/>
  <path d="m629.21 550.76c5.03 0.23 10.02 0.67 15.06 1.01-4.22-0.87-12.74 2.17-15.06-1.01z" fill="#75750a"/>
  <path d="m653.74 552.06c3.09 0.06 6.09 0.4 9.19 0.78-3.03-0.33-6.52 1.09-9.19-0.78z" fill="#b7b911"/>
  <path d="m662.93 552.84c2.76 0.28 5.44 0.59 8.25 0.94-2.67-0.13-6.2 1.13-8.25-0.94z" fill="#666705"/>
  <path d="m693.7 553.33c3.96 0.1 7.55 3.89 1.42 2.54-0.4-0.2-1.2-0.61-1.6-0.81 0.04-0.44 0.13-1.3 0.18-1.73z" fill="#d1d45c"/>
  <path d="m678.66 554.15c2.83 0.11 5.57 0.37 8.45 0.63-2.81 0.06-5.9 0.89-8.45-0.63z" fill="#a6a508"/>
  <path d="m687.11 554.78c1.6 0.07 4.81 0.21 6.41 0.28 0.4 0.2 1.2 0.61 1.6 0.81-2.5-0.22-6.55 1.19-8.01-1.09z" fill="#4d4c00"/>
  <path d="m583.22 559.06c5.73-1.12 22.03-2.97 27.59 0.04-9.21-0.11-18.4-0.17-27.59-0.04z" fill="#430304"/>
  <path d="m567.34 561.38c5.32-0.57 10.54-1.86 15.88-2.32 9.19-0.13 18.38-0.07 27.59 0.04 0.74 0.03 2.21 0.1 2.95 0.14 16.43 1.15 32.92 0.71 49.37 1.79 27.49 2.59 54.94 6.43 82.5 8.96 14.09 8.31 30.78 10.7 45.31 18.05 32.47 20.31 68.46 35.23 97.89 60.15 37.17 27.89 74.74 55.52 108.97 87 11.6 19.18 26 37.58 29.5 60.49 16.6 33.29 24.1 70.59 28.7 107.24 0.2 4.05 0.4 8.16 0.7 12.24 2.3 24.11 5.8 48.32 3 72.56-0.9 12.05-0.9 24.18-0.7 36.28-1.4 23.7-8.2 46.8-11.7 70.2-15.1 27.9-27.3 59.4-54.32 78-41.6 8.1-83.36 19.4-125.98 18.7-7.49-0.2-14.96 0.3-22.4 0.8-6.68 0.1-13.35 0.1-19.96 0.9-5.89 0.6-11.79 0.5-17.66 0.4-6.81-0.3-13.66-0.4-20.38 0.7-14.53 0.5-29.06 0.2-43.58 0.3-58.31-2.1-116.29-7.9-173.24-20.8-13.66-3.5-28.18-3.6-40.29-11.8-35.84-6.5-62.7-32.7-94.47-48.4-11.43-3.4-13.88-17.2-24.88-21.1-5.66-5.1-15.08-8.5-15.73-17.2-13.05-10-26.85-22-35.58-36.1-21.62-29.5-46.19-57.71-60.54-91.91-21.05-41.27-38.16-84.31-52.79-128.21-9.15-36.71-17.49-73.61-26.26-110.41 32.67-48.24 84.23-81.71 139.02-100.8 27.12-17.51 59.99-21.91 90.65-28.25 32.55-13.46 68.59-12 103.1-15.92 5.17 0.03 10.26-0.84 15.33-1.72m-15.75 23.17c-25.79 2.95-51.48 7.45-77.44 8.53-23.83 3.23-46.1 13.52-70.1 15.85-60.73 21.11-126.23 47.12-162.01 104.26 10.89 40.48 15.94 82.71 32.21 121.56 10.37 34.29 28.04 65.64 43.07 97.94 22.91 32.04 41.49 69.01 73.61 92.41 3.69 12.4 18.79 15.1 25.36 25.6 14.19 12.1 31.73 19.7 47.57 29.4 33.77 24.8 76.91 27.7 116.47 37.7 42.26 5.9 85.31 6.6 127.67 9.2 62.08-2 124.95-1 185.64-16.5 14.44-0.7 19.49-16.6 30.41-23.5 8.47-17.4 22.38-33.5 24.87-53.2 9.56-41.68 13.4-84.65 7.39-127.16-1.37-41.75-6.78-84.42-25.85-122.11-10.42-39.6-41.6-68.97-74.72-91.25-51.25-41.07-106.4-79.33-169.34-99.77-44.88-4.04-89.55-12.1-134.81-8.96z" fill="#960001"/>
  <path d="m613.76 559.24c16.12 0.23 34.34-1.81 49.37 1.79-16.45-1.08-32.94-0.64-49.37-1.79z" fill="#610606"/>
  <path d="m552.01 563.1c3.9-2.39 10.35-1.39 15.33-1.72-5.07 0.88-10.16 1.75-15.33 1.72z" fill="#4c0405"/>
  <path d="m551.59 584.55c45.26-3.14 89.93 4.92 134.81 8.96 62.94 20.44 118.09 58.7 169.34 99.77 33.12 22.28 64.3 51.65 74.72 91.25 19.07 37.69 24.48 80.36 25.85 122.11 6.01 42.51 2.17 85.48-7.39 127.16-2.49 19.7-16.4 35.8-24.87 53.2-10.92 6.9-15.97 22.8-30.41 23.5-60.69 15.5-123.56 14.5-185.64 16.5-42.36-2.6-85.41-3.3-127.67-9.2-39.56-10-82.7-12.9-116.47-37.7-15.84-9.7-33.38-17.3-47.57-29.4-6.57-10.5-21.67-13.2-25.36-25.6-32.12-23.4-50.7-60.37-73.61-92.41-15.03-32.3-32.7-63.65-43.07-97.94-16.27-38.85-21.32-81.08-32.21-121.56 35.78-57.14 101.28-83.15 162.01-104.26 24-2.33 46.27-12.62 70.1-15.85 25.96-1.08 51.65-5.58 77.44-8.53m2.06 2.01c-26.21 3.15-52.32 7.83-78.78 8.03-30.06 8.18-60.65 14.04-90.43 22.87-18.27 11.19-39.83 14.75-58.26 25.74-32.22 15.88-61.03 39.28-80.81 69.37 1.87 19.01 8.22 37.29 12.06 55.98 10.65 57.54 35.65 111.19 62.11 162.93 13.93 24.98 33.78 46.12 48.51 70.42 9.03 4.9 12.34 16.8 22.66 19.4 17.09 23.7 43.94 40.7 70.53 54.5 12.61 9 26.01 17.6 41.65 20.2 9.74 5.4 20.37 8.9 31.58 9.4 93.36 23.2 190.35 19.4 285.69 15.8 26.95-5.5 54.72-7 81.13-14.8 20.33-17.2 34.61-40.2 43.88-65.2 12.05-48.15 14.95-98.34 8.06-147.51-0.45-36.79-8.42-73.56-24.18-106.84-10.46-42.46-45.78-71.64-79.87-96.03-26.92-18.82-51.16-41.56-80.45-56.57-31.13-15.69-61.52-37.22-97.16-39.84-39.22-3.65-78.32-10.78-117.92-7.85z" fill="#9e0101"/>
  <path d="m553.65 586.56c39.6-2.93 78.7 4.2 117.92 7.85 35.64 2.62 66.03 24.15 97.16 39.84 29.29 15.01 53.53 37.75 80.45 56.57 34.09 24.39 69.41 53.57 79.87 96.03 15.76 33.28 23.73 70.05 24.18 106.84 6.89 49.17 3.99 99.36-8.06 147.51-9.27 25-23.55 48-43.88 65.2-26.41 7.8-54.18 9.3-81.13 14.8-95.34 3.6-192.33 7.4-285.69-15.8-11.21-0.5-21.84-4-31.58-9.4-15.64-2.6-29.04-11.2-41.65-20.2-26.59-13.8-53.44-30.8-70.53-54.5-10.32-2.6-13.63-14.5-22.66-19.4-14.73-24.3-34.58-45.44-48.51-70.42-26.46-51.74-51.46-105.39-62.11-162.93-3.84-18.69-10.19-36.97-12.06-55.98 19.78-30.09 48.59-53.49 80.81-69.37 18.43-10.99 39.99-14.55 58.26-25.74 29.78-8.83 60.37-14.69 90.43-22.87 26.46-0.2 52.57-4.88 78.78-8.03m-29.99 26.05c-32.52 5.96-66.56 2.69-97.85 14.22-20.04 5.31-41.44 7.09-59.34 18.66-32.82 13.37-66.86 29.03-88.81 58.14-4.61 6.24-13.65 12.46-9.96 21.38 8.76 31.73 13.61 64.58 26.08 95.2 27.54 77.58 72.86 154.34 146.38 194.59 25.73 20.2 58.6 27.6 90.21 32.8 69.18 15.3 140.46 10.4 210.81 9.5 22.16-4.9 44.6-8.5 66.94-12.5 19.3-13.5 29.41-34.8 39.06-55.49 1.22-21.02 11.75-40.86 8.73-62.14 2.18-65.25-5.87-134.14-42.02-189.83-28.41-28.82-63.27-50.03-94.58-75.45-35.23-17.76-68.89-44.61-109.92-43.84-28.08-5.82-57.09-5.55-85.73-5.24z" fill="#a60201"/>
  <path d="m523.66 612.61c28.64-0.31 57.65-0.58 85.73 5.24 41.03-0.77 74.69 26.08 109.92 43.84 31.31 25.42 66.17 46.63 94.58 75.45 36.15 55.69 44.2 124.58 42.02 189.83 3.02 21.28-7.51 41.12-8.73 62.14-9.65 20.69-19.76 41.99-39.06 55.49-22.34 4-44.78 7.6-66.94 12.5-70.35 0.9-141.63 5.8-210.81-9.5-31.61-5.2-64.48-12.6-90.21-32.8-73.52-40.25-118.84-117.01-146.38-194.59-12.47-30.62-17.32-63.47-26.08-95.2-3.69-8.92 5.35-15.14 9.96-21.38 21.95-29.11 55.99-44.77 88.81-58.14 17.9-11.57 39.3-13.35 59.34-18.66 31.29-11.53 65.33-8.26 97.85-14.22m-1.99 1.98c-32.33 4.51-65.74 3.32-96.82 14.25-19.87 5.65-41.32 7.13-58.9 19.14-37.72 14.12-75.22 35.3-96.86 70.33 15.94 86.4 46.25 173.43 104.94 240.67 5.37 5.14 8.96 12 16.49 14.56 2.79 11.26 15.61 13.59 22.04 21.94 17.9 10.62 34.56 23.42 53.08 32.92 86.93 32.7 181.72 29.7 273.07 26.4 23.67-3.8 47.41-8 70.85-13 6.33-8.4 16.28-13.8 20.61-23.6 32.79-53.87 24.5-120.32 20.35-180.42-9.72-31.16-15.26-64.22-33.39-91.89-6.1-14.33-21.8-20.23-31.27-31.76-20.99-16.03-43.03-30.69-63.04-48.01-37.16-19.21-72.87-48.05-116.82-46.58-27.53-6.8-56.15-4.6-84.33-4.95z" fill="#af0303"/>
  <path d="m521.67 614.59c28.18 0.35 56.8-1.85 84.33 4.95 43.95-1.47 79.66 27.37 116.82 46.58 20.01 17.32 42.05 31.98 63.04 48.01 9.47 11.53 25.17 17.43 31.27 31.76 18.13 27.67 23.67 60.73 33.39 91.89 4.15 60.1 12.44 126.55-20.35 180.42-4.33 9.8-14.28 15.2-20.61 23.6-23.44 5-47.18 9.2-70.85 13-91.35 3.3-186.14 6.3-273.07-26.4-18.52-9.5-35.18-22.3-53.08-32.92-6.43-8.35-19.25-10.68-22.04-21.94-7.53-2.56-11.12-9.42-16.49-14.56-58.69-67.24-89-154.27-104.94-240.67 21.64-35.03 59.14-56.21 96.86-70.33 17.58-12.01 39.03-13.49 58.9-19.14 31.08-10.93 64.49-9.74 96.82-14.25m-33 25.97c-20.24 3.15-40.79 3.46-60.99 6.99-48.04 12.94-101.26 27.4-132.69 69.39-8.25 7.8 0.04 19.16 0.64 28.44 17.45 84.33 59.23 171.76 136.9 215.11 36.64 21.65 80.79 25.93 122.37 28.77 54.38 4.87 109.27 1.76 162.67-9.55 13.81-10.28 20.76-25.75 28.65-40.57 16.8-67.74 11.45-146-28.28-205.1-30.66-25.08-60.97-51.49-96.66-69.31-38.62-26.55-87.85-24.19-132.61-24.17z" fill="#b80404"/>
  <path d="m1076.6 630.38c13.6 3.01 27.6 3.97 41.3 6.72-2 8.04-5.5 15.7-8.7 23.28-14.6-0.2-29-5-43.6-6.82 0.3-8.28 2.3-19.23 11-23.18z" fill="#f7f709"/>
  <path d="m488.67 640.56c44.76-0.02 93.99-2.38 132.61 24.17 35.69 17.82 66 44.23 96.66 69.31 39.73 59.1 45.08 137.36 28.28 205.1-7.89 14.82-14.84 30.29-28.65 40.57-53.4 11.31-108.29 14.42-162.67 9.55-41.58-2.84-85.73-7.12-122.37-28.77-77.67-43.35-119.45-130.78-136.9-215.11-0.6-9.28-8.89-20.64-0.64-28.44 31.43-41.99 84.65-56.45 132.69-69.39 20.2-3.53 40.75-3.84 60.99-6.99m12.84 0.99c-27.1 4-55.41 2.21-81.67 10.39-46.75 12.31-99.47 28.44-126.84 71.64 17.16 98.69 64.72 205.52 162.48 245.95 65.78 22.54 136.44 19.82 204.88 18.83 18.2-3.25 36.16-7.85 54.54-10.02 15.12-10.13 23.43-26.68 30.6-42.94 9.69-40.01 8.58-81.55 3.14-122.01-10.11-31.43-15.56-70.08-46.03-88.97-25.31-21.48-51.78-42.45-81.5-57.54-34.38-25.1-79.07-23.52-119.6-25.33z" fill="#c00606"/>
  <path d="m501.51 641.55c40.53 1.81 85.22 0.23 119.6 25.33 29.72 15.09 56.19 36.06 81.5 57.54 30.47 18.89 35.92 57.54 46.03 88.97 5.44 40.46 6.55 82-3.14 122.01-7.17 16.26-15.48 32.81-30.6 42.94-18.38 2.17-36.34 6.77-54.54 10.02-68.44 0.99-139.1 3.71-204.88-18.83-97.76-40.43-145.32-147.26-162.48-245.95 27.37-43.2 80.09-59.33 126.84-71.64 26.26-8.18 54.57-6.39 81.67-10.39m-41.04 25.91c-51.58 5.77-111.99 14.59-145.24 59.1 11.46 71.96 45.73 149.75 115.82 181.41 53.6 18.1 111.43 16.57 167.09 12.3 11.3-5.01 26.87 0.02 34.72-11.5 21.57-24.11 21.45-58.95 19.6-89.23-1.74-31.43-8.63-64.59-30.71-88.3-31.07-22.27-60.89-48.46-98.01-60.07-20.99-2.4-42.12-4.15-63.27-3.71z" fill="#c80707"/>
  <path d="m1062.6 660.94c13.8 1.5 27.4 4.68 41.2 6.34-0.2 6.16-1.8 13.82-5.2 18.49-14.6-1.48-28.7-6.92-43.3-8.98-0.1-5.89 4.6-10.9 7.3-15.85z" fill="#f7f60b"/>
  <path d="m460.47 667.46c21.15-0.44 42.28 1.31 63.27 3.71 37.12 11.61 66.94 37.8 98.01 60.07 22.08 23.71 28.97 56.87 30.71 88.3 1.85 30.28 1.97 65.12-19.6 89.23-7.85 11.52-23.42 6.49-34.72 11.5-55.66 4.27-113.49 5.8-167.09-12.3-70.09-31.66-104.36-109.45-115.82-181.41 33.25-44.51 93.66-53.33 145.24-59.1m2.13 2.08c-51.44 5.61-111.04 13.8-145.18 57.16 11.42 71.52 45.97 148.17 115.31 179.55 61.5 19.23 128.17 18.66 190.98 6.87 29.09-19.83 28.5-62 26.36-93.07-2.09-34.02-9.08-74.83-40.42-94.7-33.51-24.86-69.22-55.92-113.5-54.07-11.11-1.32-22.37-2.42-33.55-1.74z" fill="#d00707"/>
  <path d="m462.6 669.54c11.18-0.68 22.44 0.42 33.55 1.74 44.28-1.85 79.99 29.21 113.5 54.07 31.34 19.87 38.33 60.68 40.42 94.7 2.14 31.07 2.73 73.24-26.36 93.07-62.81 11.79-129.48 12.36-190.98-6.87-69.34-31.38-103.89-108.03-115.31-179.55 34.14-43.36 93.74-51.55 145.18-57.16m-35.35 24.06c-27.77 5.97-59.7 9.23-81.45 30.18-1.52 4.34-7.85 6.5-6.32 11.82 7.13 33.76 19.34 68.63 45.32 92.59 36.39 34.06 90.74 28.11 136.6 25.21 19.92 0.17 30.17-22.07 29.67-39.42 0.53-28.03 0.37-61.68-22.06-82.01-15.76-10.67-30.75-22.91-48.2-30.79-17.1-7.18-35.73-5.26-53.56-7.58z" fill="#d70707"/>
  <path d="m1050.7 688.84c0.9-5.68 8.2-0.86 11.6-1.18 8.9 2.9 20.5 0.79 27.8 7.03-0.1 2.34-0.1 4.71-0.1 7.09-5.4 12.45-11.6 24.73-17.6 36.92 1.9 15.72 1.5 37.95 17.4 46.93 5.1 9.47 21.8 9.06 31.5 8.12 17.4-4.68 29.5-23.54 26.8-41 6.5-0.23 16.4-3.16 21.3 2.01 5.4 29.93-12.2 64.84-43.5 71.59-11.9-1.15-24.1 0.03-36-1.86-30.9-9.79-55-44.33-49.6-77.23 0.6-8.04 0.8-16.08 0.7-24.12 1.2-11.94 7.7-22.52 9.7-34.3z" fill="#faca03"/>
  <path d="m427.25 693.6c17.83 2.32 36.46 0.4 53.56 7.58 17.45 7.88 32.44 20.12 48.2 30.79 22.43 20.33 22.59 53.98 22.06 82.01 0.5 17.35-9.75 39.59-29.67 39.42-45.86 2.9-100.21 8.85-136.6-25.21-25.98-23.96-38.19-58.83-45.32-92.59-1.53-5.32 4.8-7.48 6.32-11.82 21.75-20.95 53.68-24.21 81.45-30.18m5.37 2.95c-32.08 4.56-70.36 8.04-90.48 36.64 6.03 34.22 17.97 70.18 44.96 93.71 23.24 22.94 57.75 26.36 88.93 26.56 23.13-1.3 61.47 6.07 70.11-23.36 6.62-29.28 4.31-62.01-10.96-88.29-27.5-26.16-62.79-48.84-102.56-45.26z" fill="#de0707"/>
  <path d="m1090.1 694.69c1.3-0.6 1.7 6.53-0.1 7.09 0-2.38 0-4.75 0.1-7.09z" fill="#624e02"/>
  <path d="m432.62 696.55c39.77-3.58 75.06 19.1 102.56 45.26 15.27 26.28 17.58 59.01 10.96 88.29-8.64 29.43-46.98 22.06-70.11 23.36-31.18-0.2-65.69-3.62-88.93-26.56-26.99-23.53-38.93-59.49-44.96-93.71 20.12-28.6 58.4-32.08 90.48-36.64z" fill="#e60707"/>
  <path d="m1106.5 707.98c3.5-1.97 13.2-0.93 19.6-0.73-6.6 0.35-13.1 0.81-19.6 0.73z" fill="#755a01"/>
  <path d="m1126.1 707.25c26.8-1.32 42.8 26.29 45.9 50.04 0 3.46 0.1 7.02 0 10.51-0.2 26.91-18.6 56.64-46.8 59.99-8.7-0.75-17.4-1-26-0.78-3.3 0.18-6.4-1.12-9.3-2.52 11.9 1.89 24.1 0.71 36 1.86 31.3-6.75 48.9-41.66 43.5-71.59-4.9-5.17-14.8-2.24-21.3-2.01 2.7 17.46-9.4 36.32-26.8 41-9.7 0.94-26.4 1.35-31.5-8.12 4.8 2 9.4 4.78 14.3 6.49 2.6 0.63 5.5 0.99 8.1 0.31 13.7 0.08 27.5-8.3 31.3-21.85 11.9-18.58-14.7-47.59-34.1-35.23-8.2 9.36-8.8 30.43 4.9 35.28 4.3-1.38 12.4-1.34 12.7-7.21-2.9-3.62-6.2-6.68-10.4-3.5-0.4-4.35-0.8-8.64-1.3-12.94-0.5-7.62 7.9-9.14 13.2-5.9 15 10.54 9.5 34.05-5.1 41.98-5-0.05-10-0.02-15-0.03-15.4-2.23-22.8-12.87-24.4-27.42-0.1-3.59 0-7.07 0-10.62-1.6-15.58 8.2-31.05 22.5-37.01 6.5 0.08 13-0.38 19.6-0.73z" fill="#f6c708"/>
  <path d="m1040.3 747.26c1-7.02-2.7-19.17 0.7-24.12 0.1 8.04-0.1 16.08-0.7 24.12z" fill="#876900"/>
  <path d="m1084 755.61c-1.1 0.64-2.7-10.14 0-10.62 0 3.55-0.1 7.03 0 10.62z" fill="#927a1e"/>
  <path d="m1115.3 746.98c0.5 4.3 0.9 8.59 1.3 12.94-2.6 6.4-1.8-9.04-1.3-12.94z" fill="#9c8326"/>
  <path d="m1180.1 753.23c0.7 3.23 0.7 6.48 0.1 9.76 0.1-3.24-0.1-6.57-0.1-9.76z" fill="#5d5c3e"/>
  <path d="m1172 757.29c1.3-0.31 2.5 10.61 0 10.51 0.1-3.49 0-7.05 0-10.51z" fill="#524100"/>
  <path d="m1028.4 771.55c-1.7-1.88 2.3-6.07 2.5-1.65 3.5 8.85 8.6 17.69 10.5 26.82-1 2.35-1.2 4.91-0.6 7.39-4.6-10.66-7.9-21.83-12.4-32.56z" fill="#e1e127"/>
  <path d="m1108.4 783.03c5 0.01 10-0.02 15 0.03-0.5 1.02-14.2 2.41-15-0.03z" fill="#a08824"/>
  <path d="m1104.1 792.12c2.7-0.02 5.4 0.05 8.1 0.31-2.6 0.68-5.5 0.32-8.1-0.31z" fill="#554100"/>
  <path d="m1040.8 804.11c-0.6-2.48-0.4-5.04 0.6-7.39 36.7 32.78 45 84.54 46.6 131.29 0 5.67-0.1 11.35 0 17.06-0.4 9.15 0.1 18.31 0.8 27.45-0.1 6.62-0.1 13.32 0.9 19.91 0.1 4.13 0.3 8.27 0.3 12.47-12.5 51.6-12.2 108.9-45.1 153.1-10.2 5-21.6 7.2-32.8 9 9.7-15.5 21.3-30.1 31.6-45.2 16.7-37.8 22.2-79 25.3-119.9-0.5-18.12 1.2-36.38-0.8-54.42l-0.1-0.98c-0.5-7.05 1.1-14.48-1-21.29-0.2-0.43-0.6-1.3-0.8-1.73-2.7-40.91-14.4-80.13-25.5-119.37z" fill="#f9f807"/>
  <path d="m1099.2 827.01c8.6-0.22 17.3 0.03 26 0.78-8.2-0.48-20 1.77-26-0.78z" fill="#c1a633"/>
  <path d="m1104.8 833.18c3.7 0.2 7.5 0.45 11.3 0.75-3.8-0.28-7.6-0.53-11.3-0.75z" fill="#67674a"/>
  <path d="m1079 840.03c10.6 9.77 18.1 22.34 26.7 33.84-4.5 3.84-7.6 9.03-11.8 13.14-5.2-15.55-9.8-31.37-14.9-46.98z" fill="#a5a62f"/>
  <path d="m1111.3 881.15c6 4.3 10.3 12.83 15.6 18.91-9.1 11.59-19.6 22.59-29.2 33.88-2.2-4.95-1-11.91-1.7-17.64-0.3-2.89-0.3-5.63-0.7-8.42-3.5-11.28 11.9-17.31 16-26.73z" fill="#a8a92c"/>
  <path d="m1056 902.92c1.8 3.56 0.5 8.24 0.7 12.24-0.3-4.08-0.5-8.19-0.7-12.24z" fill="#4a0606"/>
  <path d="m1095.3 907.88c0.4 2.79 0.4 5.53 0.7 8.42-1.8-2.47-0.8-5.64-0.7-8.42z" fill="#545219"/>
  <path d="m1131.1 908.37c6.1 5.08 11.1 12.31 15.7 18.62-14.6 19.58-31 38.35-47.6 56.41 0.3-5.07 0.7-10.08 1.1-15.11 0.3-5.11 0.7-10.13 0.9-15.21 0.2-3.98 0.5-7.91 0.8-11.84 9-11.02 15.5-26.44 29.1-32.87z" fill="#a9a92b"/>
  <path d="m1066.3 923.48c0.2 0.43 0.6 1.3 0.8 1.73 0 7.3 0.1 14.61 0.2 21.94-2.7-6-1.4-16.08-1-23.67z" fill="#4c4c00"/>
  <path d="m1067.1 925.21c2.1 6.81 0.5 14.24 1 21.29l-0.8 0.65c-0.1-7.33-0.2-14.64-0.2-21.94z" fill="#f5f53d"/>
  <path d="m1088 928.01c2.5 3.61 0.7 11.62 0.9 16.86l-0.9 0.2c-0.1-5.71 0-11.39 0-17.06z" fill="#78780c"/>
  <path d="m1150.3 937.44c4 3.72 8.9 10.87 11.5 16.41-23.9 33.18-49.1 66.35-72.5 99.45 3.1-15.7 6.5-31.3 8.7-47.1 12.8-25.96 31.6-48.94 52.3-68.76z" fill="#989825"/>
  <path d="m1101.2 953.08c1.2-3.16-2.4-10.02 0.8-11.84-0.3 3.93-0.6 7.86-0.8 11.84z" fill="#777833"/>
  <path d="m1088 945.07l0.9-0.2c0.1 9.21 0 18.42-0.1 27.65-0.7-9.14-1.2-18.3-0.8-27.45z" fill="#f2f348"/>
  <path d="m1088.9 944.87c2.1 7.23 1.6 18.44 0.5 26.8l-0.6 0.85c0.1-9.23 0.2-18.44 0.1-27.65z" fill="#272900"/>
  <path d="m1067.3 947.15l0.8-0.65 0.1 0.98c-0.1 8.5-0.1 17.02-0.2 25.54-2.5-6.65-0.8-17.68-0.7-25.87z" fill="#9f9e22"/>
  <path d="m1068.2 947.48c2 18.04 0.3 36.3 0.8 54.42-2.4-7.66-0.6-19.46-1-28.88 0.1-8.52 0.1-17.04 0.2-25.54z" fill="#f6f630"/>
  <path d="m1100.3 968.29c0.8-4.41-2.3-12.41 0.9-15.21-0.2 5.08-0.6 10.1-0.9 15.21z" fill="#404000"/>
  <path d="m1167.3 962.55c4.1 7.07 17.7 23.38 4.6 30.39-17.5 16.86-33.9 35.66-43.8 58.16-16 30.3-32.9 60.1-48 90.9-2.5 8.8-13.2 8.4-20.2 11.8 1.9-8.3 4.9-16.4 9.1-23.8 11.8-21.5 11.4-47.9 25.8-68.2 14.3-31.3 38.8-56 57.5-84.47 3.7-6.16 9-11.02 15-14.78z" fill="#999825"/>
  <path d="m1088.8 972.52l0.6-0.85c0.8 6.85 1 13.86 0.3 20.76-1-6.59-1-13.29-0.9-19.91z" fill="#bebe16"/>
  <path d="m1059 1024c-0.2-12.1-0.2-24.23 0.7-36.28-0.3 11.68 1.8 26.28-0.7 36.28z" fill="#610202"/>
  <path d="m1089.7 992.43c1.3 0.38 3 10.87 0.3 12.47 0-4.2-0.2-8.34-0.3-12.47z" fill="#636405"/>
  <path d="m1180.4 992.57c4.1 6.79 7.8 18.63 11.5 27.23-30.1 30.5-46.9 69.8-63.6 108.4-12.2 5.9-25.7 9.7-38.5 14.6 16.1-36.3 33.4-72.9 57.4-104.6 6.7-18.1 19.8-32.2 33.2-45.63z" fill="#909124"/>
  <path d="m1192 1030.8c5.7 3 3.3 11 3.7 15.9-0.3 5.5-0.6 10.9-0.7 16.4-0.3 30.5-29.1 49.9-54.3 59.3 10.7-32.4 29.1-64.4 51.3-91.6z" fill="#909125"/>
  <path d="m1195 1063.1c0.1-5.5 0.4-10.9 0.7-16.4-0.5 5.2 1.7 11.9-0.7 16.4z" fill="#363702"/>
  <path d="m1201.6 1071.1c-0.5-4.3-0.2-8.8 0.2-13.1-0.2 4.4-0.2 8.7-0.2 13.1z" fill="#3c3c2b"/>
  <path d="m534.82 1173c49.97 12.7 100.97 19.7 151.97 26.3 10.02 0.8 20.11 0.9 30.18 0.7 14.24-0.4 28.46 0.9 42.7 1.3 18.84 1.1 37.76 1.2 56.61 0.1 11.87-0.4 23.7-1.4 35.58-1.4 4.45-0.1 8.97-0.2 13.44-0.6 5.52-0.5 11.03-1.1 16.57-1.5 3.07-0.2 6.29-0.2 9.4-0.5 9.49-1 19.02-1.4 28.53-2.2 1.52 8.6 2.45 17.4 5.06 25.7-36.15 13-74.41 18.9-112.64 21.3-3.84 0.1-7.66 0.3-11.47 0.5-7.62 0-15.16 1.2-22.76 1.3-6.01-0.1-12-0.1-17.99 0-15.62-0.7-31.21-2.1-46.8-3.3-3.2-0.3-6.27-0.6-9.44-0.6-5.27 0-10.5-0.6-15.71-1.3-2.83-0.4-5.54-0.6-8.34-0.7-22.23-1.1-44.35-4.2-66.32-7.4-26.53-8.3-52.83-17.5-79.82-24.2-0.76-1.7-0.45-3.6-0.43-5.3 0.22-3.9 0.44-7.7 0.65-11.5 0.28-5.6 0.33-11.1 1.03-16.7z" fill="#929224"/>
  <path d="m527.27 1200.7c-0.07-7.3-0.03-14.5 0.62-21.8-0.01 7.3 0.24 14.6-0.62 21.8z" fill="#2e2d2e"/>
  <path d="m533.14 1201.2c-0.08-3.9 0.14-7.7 0.65-11.5-0.21 3.8-0.43 7.6-0.65 11.5z" fill="#3d3b11"/>
  <path d="m930.01 1190.7c2.69-0.3 5.32-0.5 8.1-0.6-2.69 0.3-5.49 0.3-8.1 0.6z" fill="#595a5b"/>
  <path d="m844.6 1191.7c7.44-0.5 14.91-1 22.4-0.8-5.19 2.7-15.37 0.5-22.4 0.8z" fill="#610c0c"/>
  <path d="m824.64 1192.6c6.61-0.8 13.28-0.8 19.96-0.9-3.49 2.1-13.51 1.6-19.96 0.9z" fill="#520000"/>
  <path d="m786.6 1193.7c6.72-1.1 13.57-1 20.38-0.7-4.6 2.2-13.72 1-20.38 0.7z" fill="#5c0a0b"/>
  <path d="m743.02 1194c14.52-0.1 29.05 0.2 43.58-0.3-10.71 1.5-32.05 3-43.58 0.3z" fill="#490000"/>
  <path d="m881.87 1197.9c2.96-1.1 6.3-0.9 9.4-0.5-3.11 0.3-6.33 0.3-9.4 0.5z" fill="#3c3c04"/>
  <path d="m686.79 1199.3c9.07 1 23.1-2.8 30.18 0.7-10.07 0.2-20.16 0.1-30.18-0.7z" fill="#454508"/>
  <path d="m851.86 1200c3.52-2.4 9.07-0.6 13.44-0.6-4.47 0.4-8.99 0.5-13.44 0.6z" fill="#47470a"/>
  <path d="m759.67 1201.3c18.85-0.3 37.77-0.9 56.61 0.1-18.85 1.1-37.77 1-56.61-0.1z" fill="#50500e"/>
  <path d="m506.02 1232c7.45-6.2 13.48-20 24.93-17 31.76 8 63.3 16.9 95.01 25.1 36.21 4 72.56 6.6 108.81 10.2 26.75 1.1 53.64 1.3 80.38-0.1 38.77-3.1 77.66-8.8 114.59-21.2 19.39 15 39.13 29.7 58.57 44.7 1.92 1.4 5.23 3.9 2.99 6.5-33.26 8.8-65.15 23-99.54 27.2-2.85 0-4.1 2.8-6.4 3.9-9.86-0.3-19.84-1.2-29.63 0.3-17.97 2-35.64 6.4-53.69 7.4-8.36 0-16.7-0.2-25.04 0-33.9-0.2-67.81 0.4-101.69-0.3-12.06-0.9-24.15-0.9-36.22-0.7-37.43-1-74.15-9.7-110.63-17.5-24.41-4.5-45.41-18.2-68.28-26.8 11.59-15.8 32.7-25.7 45.84-41.7z" fill="#960101"/>
  <path d="m679.71 1238.1c2.8 0.1 5.51 0.3 8.34 0.7-2.77 0-5.87 0.9-8.34-0.7z" fill="#525312"/>
  <path d="m703.76 1240.1c3.17 0 6.24 0.3 9.44 0.6-3.08-0.4-6.77 1.3-9.44-0.6z" fill="#4a4a0c"/>
  <path d="m800.75 1242.7c3.81-0.2 7.63-0.4 11.47-0.5-3.82 0.5-7.65 0.7-11.47 0.5z" fill="#3e3c03"/>
  <path d="m760 1244c5.99-0.1 11.98-0.1 17.99 0-3.36 1.2-14.73 2.9-17.99 0z" fill="#313100"/>
  <path d="m734.77 1250.3c26.79-0.5 53.59-0.5 80.38-0.1-26.74 1.4-53.63 1.2-80.38 0.1z" fill="#340101"/>
  <path d="m457.38 1282.7c26.93 9 52.68 21.8 80.47 28.4 25.25 8.1 52.08 8.3 77.98 13.2 5.02 0.3 10.11 0.9 15.18 0.8 8.9-0.2 17.81-0.3 26.72 0.2 5.45 0.3 10.92 0.6 16.42 0.7 10.52 0.1 21.04 0.7 31.55 1.4 7.4 0.4 14.84 0.7 22.28 0.6 9.58-0.1 19.2-0.3 28.79 0.3 11.79 1.1 23.66 1 35.46 0 4.49-0.3 9.04-0.2 13.55-0.5 3.81-0.1 7.62-0.3 11.46-0.5 59.86-7.5 120.11-17.6 176.55-39.7 8.41-3.3 6.21 9.6 4.08 14.2-59.05 32.5-128.85 31.2-193.81 41.2-4.37-0.1-8.7-0.1-13.03 0-6.71-0.1-13.4 0.1-20.09 0-8.45-0.2-16.93-0.4-25.32 0.6-14.52 0.5-29.04 1.5-43.57 1.4-8.71-0.1-17.4-0.2-26.1 0-13.04 0.6-25.85-2.2-38.78-3.2-3.82-0.3-7.62-0.5-11.42-0.6-54.85-2.9-108.41-16.7-158.8-38-8.96-2.5-6.72-13.6-9.57-20.5z" fill="#909025"/>
  <path d="m855.73 1311.6c9.79-1.5 19.77-0.6 29.63-0.3-6.27 1.2-20.06 1.1-29.63 0.3z" fill="#470303"/>
  <path d="m639.09 1318c12.07-0.2 24.16-0.2 36.22 0.7-11.66-0.3-26.48 1.8-36.22-0.7z" fill="#560000"/>
  <path d="m777 1319c8.34-0.2 16.68 0 25.04 0-6.19 1.8-19.1 1.8-25.04 0z" fill="#5c0b0c"/>
  <path d="m615.83 1324.3c4.38 0.8 12.25-2.3 15.18 0.8-5.07 0.1-10.16-0.5-15.18-0.8z" fill="#65642c"/>
  <path d="m657.73 1325.3c5.11 0.6 12.16-1.9 16.42 0.7-5.5-0.1-10.97-0.4-16.42-0.7z" fill="#414206"/>
  <path d="m705.7 1327.4c6.56 0.7 17.61-2.6 22.28 0.6-7.44 0.1-14.88-0.2-22.28-0.6z" fill="#4b4b0a"/>
  <path d="m805.78 1327.8c3.79-0.6 7.6-0.8 11.46-0.5-3.84 0.2-7.65 0.4-11.46 0.5z" fill="#4a490b"/>
  <path d="m756.77 1328.3c11.81-0.3 23.65-0.7 35.46 0-11.8 1-23.67 1.1-35.46 0z" fill="#232200"/>
  <path d="m625.75 1341.2c3.8 0.1 7.6 0.3 11.42 0.6-3.84 0.1-7.64-0.1-11.42-0.6z" fill="#54531e"/>
  <path d="m745.62 1343.6c8.39-1 16.87-0.8 25.32-0.6-6.1 2.1-17.07 1.2-25.32 0.6z" fill="#474716"/>
  <path d="m791.03 1343c4.33-0.1 8.66-0.1 13.03 0-1.83 1.4-11.39 2.6-13.03 0z" fill="#444516"/>
  <path d="m675.95 1345c8.7-0.2 17.39-0.1 26.1 0-6.29 1.5-19.91 2.2-26.1 0z" fill="#3b3b0f"/>
  <path d="m675.31 1352c24.96-2.1 50.31-1.3 75.34 0h-75.34z" fill="#2c2c2c"/>
 </g>
</svg>
