<?xml version="1.0" encoding="UTF-8"?>
<svg width="647pt" height="1733pt" version="1.1" viewBox="0 0 647 1733" xmlns="http://www.w3.org/2000/svg">
 <defs>
  <filter id="a" color-interpolation-filters="sRGB">
   <feColorMatrix values="1 0 0 0 0 0 1 0 0 0 0 0 1 0 0 0 0 0 1000 -500 "/>
  </filter>
 </defs>
 <g filter="url(#a)">
  <path d="m305.85 0h13.74l0.49 0.86c-4.67 0.06-9.32 0.14-13.98 0.1l-0.25-0.96z" fill="#5d5c3f"/>
  <path d="m211.49 15.43c30.68-9.5 62.95-10.55 94.61-14.47 4.66 0.04 9.31-0.04 13.98-0.1 15.58 0.56 31.15 1.19 46.74 1.37 5.12 0.4 10.27 0.27 15.41 0.01 25 1.64 49.37 11.18 73.2 18.24 2.4 11.3-0.58 24.39 0.41 36.31-0.47 6.46-0.76 12.95-0.79 19.44-0.82 9.15 7.35 15.83-0.67 24.11-2.58 11.11-20.69 11.51-15.79 25.07-0.09 2.61 0.06 5.24-0.01 7.86 1.52 29.43-33.7 48.61-57.94 32.09-9.86 1.06-2.49 16.91-4.84 23.35-1.11 11.47-0.93 22.99-0.61 34.49 0.15 20.28-0.8 40.55-0.78 60.83-0.06 4.64-0.08 9.3-0.2 13.95-1.71 28.57-1.89 57.26 0 85.83 0.11 2.64 0.19 5.3 0.23 7.97-0.03 4.98 0.64 9.91 0.96 14.89-0.09 4.85-0.51 9.79 0.27 14.62 0.91 9.42 1.28 18.88 1.71 28.33-0.13 4.87-0.52 9.84 0.31 14.68 1 11.39 1.04 22.84 1.68 34.26-0.1 8.56-1.45 17.34 0.38 25.81 0.55 15.74 1.25 31.47 1.63 47.22-0.28 8.21-1.23 16.6 0.36 24.74 0.48 8.4 0.19 16.82 0.57 25.24 0.21 10.14-1.71 20.54 0.4 30.57 9.19 36.58 17.66 73.41 25.93 110.19 4.37 10.88 11.49 20.44 15.56 31.48 3.74 7.52 3.57 17.87 12.44 21.62 17.83 10.12 32.92 24.47 51.39 33.56 25.75 10.7 44.52 32.1 66.85 48.13 23.64 15.35 34.3 42.63 50.23 64.76 32.42 48.62 28.98 109.02 41.89 163.92v20.7c-1.39 14.7-2.05 29.5-2.19 44.2-0.23 2.7-0.35 5.7-0.62 8.5-9.17 73.5-25.83 145.9-50.17 215.8-18.54 34.1-36.01 68.7-53.82 103.2-1.98 4.6-6.32 9-5.41 14.4 11.91 38.8 18.32 79.3 33.39 117.1 19.99 7.5 13.41 34.3 17.52 51.7-24.91 12.5-53.62 9.7-79.67 18.6-43.07 5.7-86.53 9.9-129.91 12.2-11.92 0.1-24.08-1.5-35.87 0.8h-48.64c-8.54-0.7-17.13-1.6-25.68-0.8-13 0.2-25.93-0.6-38.8-2.4-2.8-0.3-5.57-0.4-8.36-0.6-6.54-0.3-13.07-0.8-19.6-1.4-2.8-0.3-5.57-0.4-8.36-0.6-33.04-0.4-64.89-9.6-97.33-14.6-4.94-0.1-12.86-3.1-11.18-9.3 3.53-13.4 6.28-26.9 9.58-40.3 0.7-5.5 9.9-1.4 10.5-6.8 5.73-31 10.39-62.3 16.78-93.2 1.11-8.3 0.84-16.7 0.67-25.1 1.9-9.3 1.44-19.2-4.98-26.7-18.51-37.1-38.5-73.5-55.85-111.2-13.06-42.1-34.39-81.7-41.5-125.5-6.5-32.3-15.6-64.3-16.75-97.4 0.13-5.4 0.26-10.7 0.22-16.1 1.86-24.6 5.07-49.3 8.01-73.8 8.84-22.8 15.38-46.3 24.09-69.1 12.01-21.48 25.39-42.2 37.3-63.71 25.45-26.88 44.41-60.78 76.75-80.27 16.79-11.8 33.27-24.05 49.79-36.21 7.43-7.08 21.23-5.07 25.36-15.72 21.58-28.96 29.11-65.08 43.27-97.77 6.75-40.01 13.67-80.04 18.65-120.31 0.64-5.44 0.78-10.91 0.08-16.33-0.61-11.84-0.27-23.71-0.08-35.55 1.8-73.09 0.46-146.29 0.66-219.42-0.27-25.54 1.36-51.03 1.36-76.57 1.03-11.13 0.95-22.3 0.6-33.45-0.27-15.68 1.75-31.29 1.07-46.97-13.67 9.88-31.57 8.72-47.18 5.66-23.74-9.77-31.27-36.57-25.87-60.09-8.74-3.8-16.55-9.69-19.1-19.32 0.19-9.75 0.26-19.51 0.08-29.26 0.26-13.6 1.11-27.17 1.42-40.76 0.79-3.12 1.29-6.28-0.15-9.23-1.58-7.29 10-4.77 14.41-7.39m86.43-5.42c-9.28 0.32-18.52 1.49-27.63 3.28-2.49 0.05-5.7-0.45-7.38 1.85-4.53 0.74-9.12 1.12-13.59 2.21-3.03 0.07-7.42-0.79-9.43 1.74-11.3 0.97-22.36 3.85-33.62 5.2-1.44 8.27-2.52 16.59-4.08 24.84 14.72-4.57 31.75-5.31 41.74 8.66 7.27-14.22 22.14-20.37 37.45-21.48 5.9 3.81 9.42 11.64 16.39 13.46 7.3-4.65 12.29-12.13 18.55-17.98 6.58 0.22 13.17 0.55 19.77 0.87 4.45 6.18 10.15 11.42 15.88 16.34 6.34-4.39 8.76-14.64 17.77-14.36 4.09 0.31 8.13-0.38 12.17-0.96 7.69 4.65 14.7 10.39 22.27 15.22 10.75-2.59 19.24-15.3 31.37-9.65 5.05 3.78 17.28 13.56 12.04-0.87 0.22-3.09 1.31-6.84-0.49-9.58-0.43-1.78 0.92-4.96-1.8-5.08-16.21-4.08-32.43-8.18-48.51-12.65-6.39-3.37-20.22 0-28.74-0.98-8.76-0.51-17.56 0.04-26.32 0.14-2.87-3.55-13.81-0.04-19.01-0.95-3.84-0.18-7.68-0.2-11.52-0.05-4.29 0.25-10.07-1.59-13.28 0.78m18.81 32.61c-11.73 4.68-13.12 25.24 3.98 18.15 3.93 0.37 7.77 0.14 11.53-0.67 26.37 5.65-3.92-35.67-15.51-17.48m50.09 18.36c2.32 2.49 7.31-0.01 10.31 0.77 3.99 0.54 7.95 1.25 11.99 1.37 2.31 2.92 15.35 1.26 9.16-4.94-4.07-10.95-18.03-14.34-28.44-16.63-8.21 1.96-18.12 22.67-3.02 19.43m-114.06 4.22c-2.99 1.72 5.19 3.19 6.34 0.83 4.6 0.1 9.15-1.03 13.73-1.39 2.71-0.03 6.19 1.41 8.41-0.63 3.92-0.34 15.85 0.27 9.97-6.22-6.23-20.94-39.79-13.03-38.45 7.41m171.62-18.72c-8.62 3.02-12.04 11.86-12.34 20.39 10.96 1.38 21.89 3.31 32.91 4.01 1.84-0.55 1.64-7.68 0.04-7.33-1.42-10.55-11.45-15.26-20.61-17.07m-213.1 8.58c-5.03 5.89-6.67 14.09-6.78 21.64 10.66-0.84 20.8-6.8 31.43-9.02 1.53-14.15-16.13-9.31-24.65-12.62m104.62 12.76c-3.63 0.26-7.2 1.07-10.8 1.5-2.64 0.11-6.22-1.43-8.24 0.71-9.54 1.01-19.14 1.24-28.67 2.34-2.71 0.05-6.25-1.46-8.39 0.63-18.49 0.99-35.04 10.05-52.5 15.27-3.89 0.55-1.43 5.02-1.03 7.5 41.17-4.16 82.5-6.88 123.56-12.08 6.78 0.6 13.61 0.28 20.41-0.04 7.18 0.73 14.39 1.14 21.61 1.36 2.61 2.99 8.83-0.39 12.39 0.77 3.5 0.16 6.98 0.25 10.5 0.4 3.71 0.69 7.48 0.9 11.3 0.62 3.45 1.09 7.19 1.43 11.22 1.01 3.51 0.26 7 0.14 10.53 0.2 2.37 2.18 6.46 0.24 9.4 0.76 8.52 4.54 13.68-1.24 8.81-7.75-32.5-4.03-65.01-10.21-97.68-12.06-2.33-1.81-5.64-0.67-8.37-0.78-4.25-0.67-8.52-1.17-12.82-0.92-3.84-0.39-7.58-0.2-11.23 0.56m13.2 24.21c-4.72 0.16-9.43 0.63-14.13 1.05-4.69 0.19-9.97-0.14-14.13 1.82-1.2 0.07-2.39 0.21-3.56 0.42-1.75 0.17-14.48-0.01-11.63 2.44 7.85 8.7 21.68 14.25 20.62 27.95 0.07 2.5-0.39 5.64 1.84 7.4 0.99 8.23 3.84 16.12 4.29 24.42-0.87 48.41-0.29 96.92-0.28 145.36-4-11.03 1.62-26.63-2.17-37.95-4.98 2.57-0.2 12.86-2.6 17.77-1.31-18.65 1.11-39.5-1.3-56.79 0.16-3.32-0.5-6.63-0.94-9.91 0.01-1.89-0.22-3.76-0.48-5.63 0.13-3.09 1.33-6.97-0.59-9.63-0.1-3.83-0.21-7.66-0.32-11.48 0.41-3.92 0.22-7.75-0.56-11.48-0.28-3.15-0.35-6.32-0.46-9.46-0.5-3.77 1.69-9.69-1.03-12.21-0.07-2.68 1.44-6.19-0.62-8.33-0.15-20.26-11.46-44.49-32.7-46.87-2.72-1.98-6.61-0.38-9.68-0.72 0.11-1.97-8.4-1.97-8.59-0.27-22.21 2.73-31.17 28.86-30.43 48.43 5.15 6.78 9.27 14.69 15.46 20.47 8.24 9.91 28.49 10.44 40.23 4.47 2.65-9.49 4.93-19.14 8.46-28.37-5.3-13.77-24.67-27.87-37.75-15.51-1.76-0.3-1.94 8.96-0.08 8.2-1.41 13.56 20.38 16.18 12.19 0.69 10.96-11.07 11.58 11.98 6.11 17.11-18.94 7.75-37.2-22.15-22.08-36 1.22 1.15 1.86-2.87 2.92-3.74 6.82 0.82 13.72 0.28 20.57 0.16 7.3 7.1 17.96 10.7 23.68 19.23-0.04 2.55-1.39 6.07 0.7 7.98 1.54 14.39 5.47 28.49 5.96 43.01-3.44 6.73 0.26 20.44-0.83 29.19-3.51 4.78-0.27 17.5-0.97 24.61-0.57 12.7-0.12 25.43-0.21 38.14-2.31 14.96-0.58 34.26-0.85 50.87-2.63 15.39-0.65 34.32-1.01 51.06-0.52 11.36-0.04 22.75-0.1 34.12-3.26 3.86-0.11 14.06-0.93 19.83-2.02 23.31-1.73 53.02-0.08 76.13 0.12 4.85-1.47 11.92 0.94 15.01 0.01 4.21 0.11 8.42 0.29 12.66 0.56 3.65-1.7 9.89 1.11 12.08-0.34 5.74-0.38 11.51-0.15 17.28-1.14 3.44-1.48 7.2-1 11.28-0.12 3.82-0.21 7.66-0.26 11.51-2.94 2.7 0.33 8.7-0.75 12.29-3.32 1.67 0.31 8.98-1.03 12.13-0.24 3.53-0.14 7.02-0.2 10.58-2.98 2.68 0.36 8.76-0.74 12.35-0.46 10.78-3.82 21.13-5.11 31.71 8 0.15 15.85-2.1 23.77-2.82 1.92 0.02 3.83-0.2 5.75-0.32 20.6 0.46 41.25 0.49 61.84-0.09 4.03 2.11 3.02-2.29 2.15-5.31-0.06-3.27 1.85-8.1-0.65-10.51 0.07-3.85-0.06-7.68-0.39-11.49 0.35-4.42 1.53-12.09-0.98-14.01 0.7-4.8 0.38-9.71-0.06-14.49 1.04-4.06 1.09-12.39-0.79-13.42-0.02-4.66 1.68-11.56-0.83-14.49 0.13-4.65 0.16-9.31 0.02-13.93 0.02-4.65 0.99-12.82-1.24-14.64 0.1-4.65 1.69-11.4-0.76-14.43 0.13-4.53 0.13-9.09-0.34-13.58 0.41-4.77 1.39-12.97-0.91-15.05-0.66-5.01 2.02-12.61-0.74-16.4-0.06-3.87-0.15-7.73-0.27-11.57-0.56-3.67 1.74-10.01-1.04-12.12-0.36-5.4 2.01-13.37-0.73-17.27 0.14-6.86 0.4-13.77-0.35-20.6 0.48-17.85 1.54-39.79-0.83-54.95 0.5-12.46 0.29-24.94 0.2-37.4 0.03-8.02 1.07-19.32-1.23-24.57 0.59-12.89 0.28-25.8 0.08-38.69 3.51-4.36 0.19-16.98 1.11-23.7 0.5-8.43-0.05-16.9-0.06-25.33 2.59-7.21 0.64-21.21 0.84-30.95 0.75-8.52 1.87-17 2.33-25.54 1.9-2.22 0.62-5.61 0.73-8.3 3.05-17.98-0.1-38.63 19.22-48.19 4.64 0.22 9.27 0.06 13.92-0.03 11.56 2.55 16.32 16.04 13.92 25.96-3.14 11.94-27.06 12.12-29.62 0.35 3.41-10.89 19.87 7.32 21.67-4.25 6.17-13.94-19.64-19.61-25.03-7.75-2.52 6.68-4.02 13.73-5.53 20.69 5.32 6.45 12.23 11.75 20.13 14.61 13.2 0.93 22.71-10.29 29.61-19.72 2.01-6.4 1.35-24.04 0-30.09-8.97-21.79-40.16-27.38-54.81-8.21-13.24 8.33-12.66 24.61-16.87 37.88 1.47-4.88-7.62-6.81-8-1.7-1.83 12.13-4.34 24.19-7.37 36.06-0.05-0.42-0.15-1.26-0.2-1.69 2.86-17.69 6.92-35.17 10.15-52.79 5.37-10.99 16.12-19.83 19.88-31.07-4.68-2.53-14.38-0.42-20.81-0.96-4.34-2.83-17.66-1.18-21.92 0.01m100.33 5.71c1.76 4.19 8.71 13.15 13.39 6.16 9.77-7.76-8.73-4.69-13.39-6.16m-221.58 6.59c-6.23 7.25 16.44 10.61 12.29 1.11-4.13 0.61-8.43 0.38-12.29-1.11m108.21 568.67c-13.98 3.46-39.35-1.08-36.18 20.81 7.6-1.1 15.28-1.27 22.89-2.22 2.74-0.02 6.28 1.52 8.5-0.51 2.79-0.32 5.57-0.22 8.39-0.39 2.67-0.43 8.04 2.14 9.15-0.96 2.75 0.32 5.83 0.72 8.37-0.63 2.83-0.13 5.64-0.16 8.48-0.43 2.83 0.24 5.68 0.26 8.52 0.1 10.42 1.19 20.5 4.31 30.8 6.03-0.82-9.49-5.32-24.47-17.82-19.78-3.13-3.03-10.11 0.06-14.36-0.78-2.32-3.2-10.87-0.18-15.05-1-4.27-0.21-8.54-0.22-12.79-0.23-0.25-1.91-9.35-1.9-8.9-0.01m1.16 24.21c-2.71 0.18-6.36-1.31-8.43 0.85-10.81 1.06-21.74 2.43-32.17 5.41-7.49 25.19-8.67 52.59-22.41 75.74 12.28-6.01 32.99-6.4 38.9 8.78 11.44-14.81 34.94-19.35 48.02-4.05 7.34-6.12 18.49-9.18 28.18-9.12 6.66 7.77 15.27 13.23 20.72 0.81 4.46 0.54 17.25 1.67 14.41-2.28-7.48-22.51-11.31-46.12-18.15-68.74-14.83-2.8-28.67-8.98-44.27-7.63-5.82-1.95-19.52-1.67-24.8 0.23m-14.67 94.14c0.98 3.8 29.7 2.34 30.9 0-6.04-10.11-25.87-13.15-30.9 0m-34.08-6.93c-8.61 4.23-21.59 5.33-21.37 17.6 12.17-3.22 24.68-5 36.83-8.22 0.31-7.31-10.36-8.55-15.46-9.38m81.32 6.88c-10.64 5.52 31.89 3.42 24.29 1.09-1.94-11.07-21.17-11.86-24.29-1.09m37.72 4.07c-2.44 2.99 9.3 1.17 11.71 1.37 4.93 0.51 9.87 0.9 14.79 1.53-2.39-8.5-11.89-10.93-18.94-14.21-3.55 2.52-4.12 8.2-7.56 11.31m-144.87 16.29c-5.86 0.82-13.2 10.1-6.38 14.09 18.68-2.78 37.46-5.16 56.23-7.01 11.43 0.72 22.96 0.27 34.41 0.04 17.68 0.57 35.39 0.07 53.08 0.19 12.2 2.79 29.7 0.39 43.6 0.65 1.41 0.41 2.85 0.71 4.35 0.61-3.58-9.72-13.08-14.07-23.03-14.19-3.21-3.41-13.08 0.23-18.12-0.77-3.18-0.15-6.39-0.37-9.54-0.45-3.71-0.72-7.47-0.93-11.28-0.63-3.47-1.13-7.23-1.44-11.28-0.94-3.82-0.17-7.62-0.31-11.43-0.41-3.72-0.73-7.48-0.95-11.29-0.64-3.46-1.11-7.21-1.45-11.23-1-25.87 1.72-53.49 1.58-78.09 10.46m55.5 14.36c-7.68 0.79-15.32 2.09-22.95 3.27-2.8 0.22-6.97-1.46-8.95 1.01-24.69 2.22-49.03 7.47-71.94 16.95-22.48 17.56-46.47 33.44-67.93 52.13-23.27 32.83-54.08 60.45-72.34 96.63-21.11 31.89-28.49 70.59-40.97 106.09-3 2.7 0.06 10.7-0.78 15.1-2.3 23.7-6.9 47.8-2.98 71.6 0.2 3.2-1.64 7.9 0.97 10.1-0.43 3.8-0.24 7.5 0.57 11.2 4.56 32.4 13.71 64.1 19.76 96.2 12.04 33.1 25.13 65.7 37.48 98.6 20.68 39.7 40.97 79.7 64.09 118 18.21 3.9 37.02 7.7 55.79 8.1 5.09 2.6 14.67 0.2 21.34 0.8 3.88 3.4 16.55 0.1 22.95 0.9 5.91 0.3 11.84 0.4 17.77 0.3 4.66 3.1 15.74-0.1 22.32 0.7 3.85 2.7 14.66 0.7 20.96 1 5.53 0.3 11.06 0.2 16.61 0.3 3.85 2.7 11.31 0 16.31 0.8 2.3 3.2 10.81 0.1 15 1 5.24 0.4 10.49 0.1 15.75 0.1 2.93 3.1 10.84-0.1 15.28 0.9 6.68 2.3 23.88 1.7 30.4 0.1 7.92-1.7 16.03-1.9 24-3.3 3.9-1 10.24 1 13.29-1.8 29.44-3.6 59.12-6.7 88.32-11.5 13.37-26 28-51.4 41.94-77.1 23.17-34.6 27.41-77.2 41.16-115.8 7.16-20.3 6.98-42 12.36-62.6 4-12.6 9.28-25 8.46-38.5 0.69-3.8 0.88-7.7 0.57-11.5 0.07-1.6 0.13-3.2 0.21-4.7 2.56-2.1-0.03-7.4 0.84-10.1 2.49-1.9 0.26-6.7 0.96-9.3 0.05-1.7 0.16-5 0.21-6.6 2.56-2.1-0.1-7.5 0.75-10.3 0.64-5.9 1.45-11.7 1.26-17.6 2.54-2.3-0.05-7.5 0.79-10.4 3.21-1.7-0.04-9.6 1.13-13l0.04-1c1.77-3.3 1.7-6.5-0.21-9.6-0.18-2.6 1.44-6.5-0.75-8.2-4.51-19-7.2-38.4-10.27-57.7-0.05-2.5 0.45-5.7-1.73-7.4-0.1-0.7-0.28-1.9-0.37-2.6-0.08-2.7 0.66-6.7-1.8-8.3-1.21-27.8-16.53-51.88-25.09-77.72-21.35-33.1-49.26-61.84-81.43-84.57-24.27-14.85-49.46-28.22-73.31-43.76-1.99-4.69-10.15-0.51-14.15-1.76-2.59-0.16-5.16-0.22-7.73-0.16-7.73-3.13-19.38-1.29-28.33-1.83-3.22-0.2-6.5-0.18-9.71-0.15-2.7-3.11-10.19 0.1-14.3-0.76-8.55-0.68-17.1-1.21-25.67-1.26-2.52-3.12-9.52 0.21-13.3-0.8-3.59-0.24-7.23-0.29-10.81-0.22-4.22-2.81-17.71-1.19-21.84 0.01m224.11 705.28c-20.78 0.1 1.74 15.1 8.89 20.6-3.83-6.1-1.01-20-8.89-20.6m-393.1 8.9c-0.77 5.5-1.79 11-2.3 16.6 6.76-3.5 14.66-18.1 10.28-22.8-4.26 0.4-10.19-0.8-7.98 6.2m362.21-4.8c-16.02 3.2-32.26 5.2-48.44 7.2-14.72 16-21.16 37.3-30.78 56.4 11.53 14.9 23.95 29.3 36.21 43.6 18.87 17.7 44.77-0.5 66.95 0.2 8.25-12.6 14.53-26.4 22.15-39.3 10.12-12.3-0.9-28.6-10.31-37.6-11.91-10.1-18-30.7-35.78-30.5m-338.61 4.4c-8.69 12.5-20.52 23-28.73 35.6-2.39 0.9-1.44 14.1-0.1 15.2 10.37-10.7 19.69-31.6 32.26-41.6 1.33 2.5 11.53 1.4 12.69 0 3.95 0.1 7.9 0 11.85-0.4 3.03 0.2 6.77 1.2 9.42-0.6 9.87-2.9 7.93 8.9 11.89 14 9.53 13.9 20.64 26.8 29.56 41.2-7.67 13.2-16.74 25.6-25.92 37.8-13.67-5.8-27.36 0.4-41.08 1.7-14.85-13.4-28.18-30.7-42.83-43.3-2.53-0.7-0.47 11.3 0.34 9.8 11.34 14.1 21.83 33.5 37.83 40.8 3 3 10.06-0.2 14.27 0.8 11.29 0 23.03 0.9 34.02 0.5 10.45-19.6 27.36-36.7 28.51-59.9-15.78-14.8-24.18-35.4-37.61-52-5.34-0.6-10.72-0.5-16.07-0.4-5.37-3.5-17.1 0.3-24.3-0.8-2.14-0.1-4.81-0.8-6 1.6m60.7 3.6c11.89 13.8 15.28 36.7 34.31 42.5 8.93-13.6 21.7-25.4 28.44-40 2.83-13.5-27.67-2.5-37.47-5.7-2.39-3.5-13.3 0-18.07-1-3.97 0-13.83-1.9-7.21 4.2m77.88-0.5c-13.85 16.8-26.77 36.9-40.9 54.3 3.38 13.8 12.58 25.1 22.07 35.3 0.97 8.6 4.59 16 10.34 22.5 0.6 2.5 2.63 3.8 5.05 4.3 0.98 0.6 2.08 0.9 3.29 0.8 3.27 2 17.13 1.3 19.36-0.1 4.03 0.1 8.07-0.1 12.11-0.3 4-0.4 9.25 1.6 12.55-0.7l0.97-0.1c3.18-0.3 10.86 1.4 11.49-1 3.35 0.2 6.67-0.1 10.03-0.3 2.9 0.1 6.38 1.4 8.78-0.9 1.51 0.5 10.27 0.8 7.65-0.7 11.02-16.5 19.83-35 28.79-52.9-13.68-20-27.78-39.8-42.36-59.2-11.02-2.7-30.37 0-43.93-0.7-4.43-2.3-20.48-1.8-25.29-0.3m113.94 0.3c-3.09 0.1-6.7-1-9.47 0.7-2.84 0.2-5.72 0.2-8.52 0.5-3.03-0.2-6.78-1.4-9.44 0.6-2.68 0.1-5.29 0.4-7.92 0.8 11.3 14.8 23.32 30.1 35.08 44 7.77-13.4 15.66-28.5 23.02-42.8 3.03-4.2-1.34-5.1-4.91-4-3.66-2.9-15.11-1.1-17.84 0.2m-244.88 14.8c-3.41 0.2-6.13 3.2-7.27 6.2-5.99 8.1-11.98 16.2-17.27 24.8-1.6 1.4-3.07 3-3.77 5 11.74 12.7 20.7 28.6 33.2 40 1.53 2.5 12.55 1.1 13.31-0.3 4.4 0 10.22 1.7 13.61-0.7 15.96 2.6 17.05-19.7 25.65-29.1-7.27-15-18.26-28.5-26.61-43.1-7.08-3.1-15.6-2-23.29-2.8-0.53-1.8-7.68-1.7-7.56 0m82.74 50.3c-9.45 17.1-19.01 34.1-29.24 50.8-13.21-0.3-26.42-0.1-39.63-0.2-2.33-1.7-5.59-0.6-8.3-0.7-24.68 1.6-32.11-29.2-48.84-40.9-4.24 13.5-3.89 29.2-6 43.6 36.9 11.8 76.12 11.5 114.21 17.1-0.28 3.1 9.23 0.1 11.51 0.8 2.68 0.2 5.38 0.2 8.09 0.2 15.88 2.9 36.92 0.1 54.44 0.8 0.44 3 9.57 0.4 12.54 1.1 12.02 0.4 24.07 0 36.1 0.1 2.34-0.3 7.22 1.3 7.9-1 19.23-2.4 38.67-2.7 57.88-5.4 2.72 0 6.29 1.5 8.46-0.6 1.63-0.1 4.9-0.3 6.54-0.4 2.65 0 6.38 1.5 8.37-0.6 4.57-0.4 9.13-0.8 13.68-1.3 2.66-0.1 6.24 1.4 8.32-0.7 13.89-1.9 27.88-3.9 41.46-7.3 1.95-0.3 5.58 0.4 6.05-2.1 17.68-0.7 34.79-6.3 52.22-8.9-2.19-14.1-8.91-27.3-13.95-40.7-13.85 12.6-16.49 41.7-36.55 44.5-3.19-0.1-8.23-2.2-10.45 0.5-5.58 0.2-11.11 1-16.66 1.4-2.78 0-6.41-1.6-8.6 0.8-2.77 0.2-8.74-2.2-9.7 0.9-3.51-0.4-7.45 0.4-10.6-1.3-12.19-14.2-26.31-26.5-38.24-41-1.85-1.3-4.48-7.1-6.88-3.6-9.44 16.5-16.94 34.3-27.29 50.2-2.55-0.1-6.14-1.5-8.04 0.6-4.94 0-9.85 0.8-14.73 1.4-2.73 0-6.26-1.5-8.46 0.6-2.48 0.1-4.96 0.2-7.43 0.3-2.57 0.1-6.77-1.5-8.23 1.1-3.02-0.3-6.5-1.2-9.27 0.5-11.13-1.9-24.48 6.7-33.46-2 0.83-1.9-10.94-1.6-11.05 0.1-15.61-15.4-21.85-41.6-36.17-58.7m319.25 52.2c-12.5 3.9-25.57 6.7-37.7 11.3 9.31 18.8 47.08 7 37.7-11.3m-459.36 7.5c2.84 12.6 15.68 31.5 30.12 21.2 9.63 0.4 8.49-17.2 0.01-15.9-3.01 0-6.04-0.2-9.05-0.1-7.01-1.8-13.95-3.9-21.08-5.2m467.26 8.6c-6.32 6.7-11.7 16.2-22.4 15.3-9.82 4.5-18.44-10.8-27.42-6.6-8.8 20.6-34.2 17.9-50.46 8.8-6.36 3.8-10.43 11.7-19.04 13-4.67-0.1-9.35 0.1-13.99 0.2-7.65-0.9-14.62-4.5-21.99-6.3-6.15 1-6.32 11-13.27 10.8-8.21-0.5-16.48 6.4-24.28 1.8-9.22-2.9-19.56-11.1-28.49-3.5-15.22 9.1-35.3 5.4-42.21-12.5-7.75 2.9-12.95 15-22.7 14.5-3.69-3.5-12.88 0.2-18.08-0.7-8.66-2.8-17.11-19.6-25.96-7.5-11.56 13.3-32.65 3.7-44-4.8-15.6 9.1-39.88 10.7-50.87-3.9-18.04 10.9-40.65 1.6-48.36-17.4-3.36 7.3-4.02 15.5-6.55 23.1 5.98 6.5 16.29 4.1 24.05 6.9 28.97 4.4 57.39 12.8 86.58 15.3 2.72 2.9 8.78-0.5 12.37 0.6 2.86 2.9 11.37 0.3 16.03 1.1 4.88 0.3 9.76 0 14.65 0.1 3.21 3.1 10.82 0 15.37 0.9 1.96 2.7 11.4 0.5 15.75 1.2 12.99 0.2 26.01 0 39.01 0 3.84-0.1 11.71 0.9 12.63-1.2 4.14 0.6 7.99 0.4 11.55-0.8 5.48-0.1 10.97 0 16.45-0.4 8.61-0.2 20.67 2 27.2-0.6 15.99-1.5 32.02-2.9 47.91-5.4 3.25 0 7.81 1.7 10.35-0.6 3.55 0.1 7.06-0.3 10.61-0.4 2.74 0 6.4 1.6 8.54-0.6 2.83-0.2 5.62-0.4 8.49-0.3 4.86-0.7 12.67 2 16.2-0.7 26.4-3.1 51.9-11.5 78.32-14.5 3.99-1.6 10.4-4.4 9.56-9.4 1.08-4.1-0.48-31.9-1.55-15.5m-68.55-3.1c-8.3 2.6-18.82 0.3-24.8 7.7 1.66 12.6 20.64 14.2 27.33 5.1 11.37-1 10.44-19.5-2.53-12.8m-348.32 3.8c-15.05 23.8 41.46 32.1 36.44 3.7-12.2-0.7-24.19-4.1-36.44-3.7m298.27 3.3c-10.78 1.7-21.69 2.6-32.39 4.7 1.55 18.6 37.19 16.9 41.7-0.2 5.52-7.1-5.74-4.5-9.31-4.5m-249.04 14.6c13.04 4.3 29.08 13.9 37.63-2.4 2.59-1.7 0.4-8.7-4.3-6.8-1.97-2.2-6.48-0.3-9.19-0.8-3.51-0.2-7.04-0.2-10.55-0.2-2.4-2.2-6.61-0.4-9.54-0.7-9.59-4.1-3.86 6.9-4.05 10.9m164.33-9.2c-1.63 0-3.26-0.1-4.87 0.1-1.92 0.4-1.76 7.6 0.02 7.5 1.38 18.7 27.89 11.7 39.95 7.4 5.36-10.8 1.95-21.2-12.74-15.7-7.07 0.3-17.05-2-22.36 0.7m-112.16 7.6c9.89 15.2 36 13.4 42.74-4 1.84-1.5-4.74-2-6.72-1.5-2.86-0.3-5.76-0.2-8.6-0.1-2.92-3-9.59 0.1-13.57-0.8-0.12-2.5-6.57-0.7-8.57-1.3-6.4-4.2-8.01 5.9-5.28 7.7m66.82-7.2c-3.78 2.2-11.65 5-6.73 9.6 6.83 16.9 35.66 10.4 35.94-6.9-9.68-1.4-19.41-2.8-29.21-2.7z" fill="#090504"/>
  <path d="m366.82 2.23c5.14-0.06 10.26-0.04 15.41 0.01-5.14 0.26-10.29 0.39-15.41-0.01z" fill="#45452e"/>
  <path d="m297.92 10.01c3.21-2.37 8.99-0.53 13.28-0.78-4.44 0.29-8.85 0.6-13.28 0.78z" fill="#610461"/>
  <path d="m311.2 9.23c3.84-0.15 7.68-0.13 11.52 0.05 6.33 0.33 12.67 0.74 19.01 0.95 8.72 0.61 17.47 1.09 26.22 0.85 9.61-0.06 19.22-0.16 28.84-0.01 16.08 4.47 32.3 8.57 48.51 12.65 2.72 0.12 1.37 3.3 1.8 5.08 0.06 3.19 0.11 6.4 0.49 9.58 5.24 14.43-6.99 4.65-12.04 0.87-12.13-5.65-20.62 7.06-31.37 9.65-7.57-4.83-14.58-10.57-22.27-15.22-4.14-1.4-8.22-0.2-12.17 0.96-9.01-0.28-11.43 9.97-17.77 14.36-5.73-4.92-11.43-10.16-15.88-16.34-5.1-4-13.64-1.04-19.77-0.87-6.26 5.85-11.25 13.33-18.55 17.98-6.97-1.82-10.49-9.65-16.39-13.46-15.31 1.11-30.18 7.26-37.45 21.48-9.99-13.97-27.02-13.23-41.74-8.66 1.56-8.25 2.64-16.57 4.08-24.84 11.26-1.35 22.32-4.23 33.62-5.2 3.21-0.14 6.34-0.91 9.43-1.74 4.47-1.09 9.06-1.47 13.59-2.21 2.52-0.37 4.96-1.1 7.38-1.85 9.11-1.79 18.35-2.96 27.63-3.28 4.43-0.18 8.84-0.49 13.28-0.78z" fill="#940295"/>
  <path d="m322.72 9.28c5.2 0.91 16.14-2.6 19.01 0.95-6.34-0.21-12.68-0.62-19.01-0.95z" fill="#620463"/>
  <path d="m341.73 10.23c8.76-0.1 17.56-0.65 26.32-0.14l-0.1 0.99c-8.75 0.24-17.5-0.24-26.22-0.85z" fill="#771577"/>
  <path d="m368.05 10.09c8.52 0.98 22.35-2.39 28.74 0.98-9.62-0.15-19.23-0.05-28.84 0.01l0.1-0.99z" fill="#3c003d"/>
  <path d="m262.91 15.14c1.68-2.3 4.89-1.8 7.38-1.85-2.42 0.75-4.86 1.48-7.38 1.85z" fill="#450346"/>
  <path d="m239.89 19.09c2.01-2.53 6.4-1.67 9.43-1.74-3.09 0.83-6.22 1.6-9.43 1.74z" fill="#4d074d"/>
  <path d="m197.08 22.82c1.44 2.95 0.94 6.11 0.15 9.23-0.01-3.08-0.13-6.16-0.15-9.23z" fill="#3d3f26"/>
  <path d="m447.1 28.8c1.8 2.74 0.71 6.49 0.49 9.58-0.38-3.18-0.43-6.39-0.49-9.58z" fill="#530155"/>
  <path d="m316.32 31.79c6.13-0.17 14.67-3.13 19.77 0.87-6.6-0.32-13.19-0.65-19.77-0.87z" fill="#5c0b5c"/>
  <path d="m369.74 34.64c3.95-1.16 8.03-2.36 12.17-0.96-4.04 0.58-8.08 1.27-12.17 0.96z" fill="#520750"/>
  <path d="m316.73 42.62c11.59-18.19 41.88 23.13 15.51 17.48-3.85 0.21-7.7 0.44-11.53 0.67-17.1 7.09-15.71-13.47-3.98-18.15z" fill="#f6c70a"/>
  <path d="m366.82 60.98c-15.1 3.24-5.19-17.47 3.02-19.43 10.41 2.29 24.37 5.68 28.44 16.63 0.92 5.98-4.97 4.76-9.16 4.94-4.04-0.12-8-0.83-11.99-1.37-3.44-0.41-6.85-0.81-10.31-0.77z" fill="#f7c809"/>
  <path d="m252.76 65.2c-1.34-20.44 32.22-28.35 38.45-7.41 5.88 6.49-6.05 5.88-9.97 6.22-2.83 0.15-5.62 0.29-8.41 0.63-4.58 0.36-9.13 1.49-13.73 1.39-1.58-0.21-4.75-0.62-6.34-0.83z" fill="#f3c60a"/>
  <path d="m424.38 46.48c9.16 1.81 19.19 6.52 20.61 17.07-0.02 2.44-0.03 4.89-0.04 7.33-11.02-0.7-21.95-2.63-32.91-4.01 0.3-8.53 3.72-17.37 12.34-20.39z" fill="#f4c609"/>
  <path d="m211.28 55.06c8.52 3.31 26.18-1.53 24.65 12.62-10.63 2.22-20.77 8.18-31.43 9.02 0.11-7.55 1.75-15.75 6.78-21.64z" fill="#f3c50c"/>
  <path d="m455.05 76.23c0.03-6.49 0.32-12.98 0.79-19.44 0.16 6.49-0.2 12.97-0.79 19.44z" fill="#2f2f1d"/>
  <path d="m398.28 58.18c6.19 6.2-6.85 7.86-9.16 4.94 4.19-0.18 10.08 1.04 9.16-4.94z" fill="#ab902d"/>
  <path d="m320.71 60.77c3.83-0.23 7.68-0.46 11.53-0.67-3.76 0.81-7.6 1.04-11.53 0.67z" fill="#866a01"/>
  <path d="m366.82 60.98c3.46-0.04 6.87 0.36 10.31 0.77-3-0.78-7.99 1.72-10.31-0.77z" fill="#b89a2a"/>
  <path d="m444.99 63.55c1.6-0.35 1.8 6.78-0.04 7.33 0.01-2.44 0.02-4.89 0.04-7.33z" fill="#917504"/>
  <path d="m272.83 64.64c2.79-0.34 5.58-0.48 8.41-0.63-2.22 2.04-5.7 0.6-8.41 0.63z" fill="#6a5000"/>
  <path d="m259.1 66.03c-1.15 2.36-9.33 0.89-6.34-0.83 1.59 0.21 4.76 0.62 6.34 0.83z" fill="#574308"/>
  <path d="m315.9 67.82c3.65-0.76 7.39-0.95 11.23-0.56-3.75 0.18-7.5 0.36-11.23 0.56z" fill="#725700"/>
  <path d="m327.13 67.26c4.3-0.25 8.57 0.25 12.82 0.92 2.75 0.32 5.57 0.72 8.37 0.78 32.67 1.85 65.18 8.03 97.68 12.06 4.87 6.51-0.29 12.29-8.81 7.75-3.16-0.35-6.25-0.74-9.4-0.76-3.53-0.06-7.02 0.06-10.53-0.2-3.75-0.36-7.49-0.7-11.22-1.01-3.77-0.28-7.54-0.49-11.3-0.62-3.52-0.15-7-0.24-10.5-0.4-4.14-0.29-8.26-0.59-12.39-0.77-7.22-0.22-14.43-0.63-21.61-1.36-6.79-0.75-13.63-0.72-20.41 0.04-41.06 5.2-82.39 7.92-123.56 12.08-0.4-2.48-2.86-6.95 1.03-7.5 17.46-5.22 34.01-14.28 52.5-15.27 2.77-0.19 5.6-0.34 8.39-0.63 9.53-1.1 19.13-1.33 28.67-2.34 2.73-0.19 5.51-0.33 8.24-0.71 3.6-0.43 7.17-1.24 10.8-1.5 3.73-0.2 7.48-0.38 11.23-0.56z" fill="#f6c809"/>
  <path d="m339.95 68.18c2.73 0.11 6.04-1.03 8.37 0.78-2.8-0.06-5.62-0.46-8.37-0.78z" fill="#b79c2e"/>
  <path d="m296.86 70.03c2.02-2.14 5.6-0.6 8.24-0.71-2.73 0.38-5.51 0.52-8.24 0.71z" fill="#876a00"/>
  <path d="m259.8 73c2.14-2.09 5.68-0.58 8.39-0.63-2.79 0.29-5.62 0.44-8.39 0.63z" fill="#5b4602"/>
  <path d="m195.73 102.07c-2.43-9.54-0.11-19.59 0.08-29.26 0.18 9.75 0.11 19.51-0.08 29.26z" fill="#58583d"/>
  <path d="m329.83 83.69c6.78-0.76 13.62-0.79 20.41-0.04-6.8 0.32-13.63 0.64-20.41 0.04z" fill="#887313"/>
  <path d="m371.85 85.01c4.13 0.18 8.25 0.48 12.39 0.77-3.56-1.16-9.78 2.22-12.39-0.77z" fill="#79650a"/>
  <path d="m394.74 86.18c3.76 0.13 7.53 0.34 11.3 0.62-3.82 0.28-7.59 0.07-11.3-0.62z" fill="#bb9916"/>
  <path d="m406.04 86.8c3.73 0.31 7.47 0.65 11.22 1.01-4.03 0.42-7.77 0.08-11.22-1.01z" fill="#655002"/>
  <path d="m427.79 88.01c3.15 0.02 6.24 0.41 9.4 0.76-2.94-0.52-7.03 1.42-9.4-0.76z" fill="#a98909"/>
  <path d="m329.1 92.03c4.26-1.19 17.58-2.84 21.92-0.01-7.31-0.03-14.62-0.01-21.92 0.01z" fill="#2a002b"/>
  <path d="m314.97 93.08c4.7-0.42 9.41-0.89 14.13-1.05 7.3-0.02 14.61-0.04 21.92-0.01l-0.01 1c-12.04-0.07-24.11-0.24-36.1 0.99l0.06-0.93z" fill="#6e0f70"/>
  <path d="m351.02 92.02c6.43 0.54 16.13-1.57 20.81 0.96-6.95 0.01-13.88 0.12-20.82 0.04l0.01-1z" fill="#430443"/>
  <path d="m300.84 94.9c4.16-1.96 9.44-1.63 14.13-1.82l-0.06 0.93c-4.69 0.41-9.38 0.64-14.07 0.89z" fill="#3e043e"/>
  <path d="m314.91 94.01c11.99-1.23 24.06-1.06 36.1-0.99 6.94 0.08 13.87-0.03 20.82-0.04-3.76 11.24-14.51 20.08-19.88 31.07-3.23 17.62-7.29 35.1-10.15 52.79-1.1 2.26-1.69 4.72-1.98 7.21-2.72 43.05 0.3 86.69-0.82 129.95 0.38 25.78-0.85 51.6 0.68 77.35 0.17 8.45 0.29 16.92 0.55 25.38-0.32 9.9-0.3 19.81 1.49 29.59 0.24 3.44 0.39 6.95 0.47 10.41 0.37 4.07 0.51 8.18 0.83 12.28 0.31 4.06 0.5 8.16 0.73 12.26 0.14 3.12 0.26 6.33 0.56 9.47 0.16 4.73-0.93 9.7 0.45 14.34l0.52 2.84c0.11 9.37-1.4 18.88 0.58 28.17 0.65 5.35 0.49 10.77 0.96 16.15 0.17 2.78 0.27 5.66 0.39 8.49 0.21 4.03 0.35 8.11 0.71 12.16l0.1 0.96c0.14 6.7-0.08 13.42-0.02 20.14-3.18 10.94 7.42 35.32-7.31 36.33-6.69-1.11-13.69 0.31-20.26-1.36-0.08-3.7-0.17-7.38-0.29-11.06-0.1-1.64-0.3-4.92-0.41-6.57 0-3.19 0.16-6.32-0.68-9.39l-0.19-0.92c-0.13-4.37 0.18-8.77-0.72-13.05l-0.19-0.91c-0.55-3.09-0.2-6.19-0.64-9.27-0.31-2.52-0.52-5.04-0.64-7.55-0.78-11.28 2.49-23.25-0.62-34.2-0.2-16.38 0.17-32.76-0.24-49.14-0.41-20.91 1.65-42.21-0.79-62.91-1.26-16.22 2.07-33.14-1.06-49.01 0-24.02 0.15-48.05-0.04-72.07-0.33-46.92 1.06-93.92-0.68-140.8-0.2-1.54-0.57-3.05-0.84-4.58-0.45-8.3-3.3-16.19-4.29-24.42-0.32-2.53-1.06-4.98-1.84-7.4 1.06-13.7-12.77-19.25-20.62-27.95 3.88-0.79 7.74-1.65 11.63-2.44 1.17-0.21 2.36-0.35 3.56-0.42 4.69-0.25 9.38-0.48 14.07-0.89z" fill="#960196"/>
  <path d="m285.65 97.76c-2.85-2.45 9.88-2.27 11.63-2.44-3.89 0.79-7.75 1.65-11.63 2.44z" fill="#4b094b"/>
  <path d="m374.24 106.29c14.65-19.17 45.84-13.58 54.81 8.21-0.07 10.03-0.07 20.06 0 30.09-6.9 9.43-16.41 20.65-29.61 19.72-7.9-2.86-14.81-8.16-20.13-14.61 1.51-6.96 3.01-14.01 5.53-20.69 5.39-11.86 31.2-6.19 25.03 7.75-1.8 11.57-18.26-6.64-21.67 4.25 2.56 11.77 26.48 11.59 29.62-0.35 2.4-9.92-2.36-23.41-13.92-25.96-4.58-0.33-9.5-1.92-13.92 0.03-19.32 9.56-16.17 30.21-19.22 48.19-0.32 2.75-0.57 5.52-0.73 8.3-0.46 8.54-1.58 17.02-2.33 25.54-0.86 9.96-0.73 19.97-0.86 29.96-0.72 8.72-1.19 17.47-0.91 26.23 0.07 7.93 0.06 15.86-0.12 23.79-0.78 12.86-1.88 25.86-0.08 38.69 0.32 8.17 0.22 16.36 0.23 24.55 0.19 12.8-0.7 25.66 0.77 38.42 1.02 17.97-0.81 36.02 0.86 53.95 0.75 6.83 0.49 13.74 0.35 20.6-0.03 5.76 0.23 11.52 0.73 17.27 0.3 4.02 0.77 8.06 1.04 12.12 0.12 3.84 0.21 7.7 0.27 11.57 0.2 5.46 0.4 10.93 0.74 16.4 0.04 5 0.09 10.08 0.91 15.05 0.47 4.49 0.47 9.05 0.34 13.58-0.2 4.79-0.15 9.68 0.76 14.43 0.11 4.86 0.2 9.77 0.24 14.66 0.03 14.14-0.6 28.38 1.81 42.39 0.12 4.63 0.37 9.3 0.85 13.92 0.26 4.65 0.42 9.36 0.98 14.01 0.33 3.81 0.46 7.64 0.39 11.49 0.02 3.47-0.1 7.07 0.65 10.51 0.87 3.02 1.88 7.42-2.15 5.31l-0.77-0.58c-21.71-0.84-45.28-3.75-66.82 0.99-7.92 0.72-15.77 2.97-23.77 2.82 1.29-10.58 4.65-20.93 5.11-31.71 0.33-4.13 0.62-8.23 0.74-12.35 0.06-3.56-0.04-7.05 0.2-10.58 0.32-4.06 0.75-8.09 1.03-12.13 0.27-4.12 0.6-8.2 0.75-12.29 0.05-3.85 0.14-7.69 0.26-11.51 0.31-3.78 0.64-7.54 1-11.28 0.69-5.74 0.93-11.55 0.15-17.28-0.3-4.05-0.77-8.06-1.11-12.08-0.18-4.24-0.28-8.45-0.29-12.66 0.04-5.02 0.12-10.01 0.06-15.02 0-25.27-0.15-50.53 0.02-75.8 0.03-0.49 0.08-1.48 0.11-1.97 1.68-17.3 0.45-34.68 0.93-52.01l0.03-0.99c1.72-16.63 0.49-33.33 0.96-50l0.03-0.99c2.05-29.25 0.23-58.62 0.97-87.91 3.16-13.19-0.29-26.91 2.8-40.03 8.38-8.2 3.05 11.52 7.22 15.71 0.44 3.28 1.1 6.59 0.94 9.91-0.24 19.08 0.19 38.16-0.24 57.24-1.88 26.5-0.25 53.11-0.87 79.66l-0.04 0.98c-1.42 46.57-1.63 93.53 0.04 140 0.22 0.43 0.64 1.29 0.86 1.72 0.31 6.06 0.31 12.14 0.45 18.22-0.25 5.77-0.17 11.58 0.71 17.31 0.18 5.4 0.65 10.8 0.84 16.23 0.14 5.15 0.17 10.34 0.37 15.51 0.07 5.4 0.4 10.81 0.84 16.22 0.22 5.4 0.6 10.81 0.76 16.24 3.59 11.68-5.57 33.88 10.68 37.5 14.57-1.37 29.08-3.79 43.6-5.61-1.26-5.51-4.19-10.51-5.41-16.02 0.2-6.13 0.31-12.26-0.27-18.35-0.06-4.52-0.43-8.98-0.64-13.47-0.06-5.15 1.25-10.52-0.73-15.44-0.52-5.35-0.46-10.73-0.78-16.07-0.13-4.5-0.25-8.96-0.49-13.42-0.02-5.15 0.19-10.25 0.08-15.37-1.15-15.53 0.89-33.49-2.04-47.77l-0.93-0.27c-0.03-5.32 0.17-10.6 0.13-15.91-0.1-5.96 0.93-12.38-0.98-18.1-0.12-4.99-0.12-9.95-0.15-14.93 0.08-5.16 0.73-10.42-0.69-15.45l-0.13-0.97c-0.22-4.85 1.12-10.09-1.04-14.64-0.05-4.62 0-9.22-0.01-13.83-0.22-4.65 1.18-9.8-1.03-14.12 0.09-20.67 0.03-41.34 0.03-62.01 1.07-8.58 1.4-17.23 1.01-25.86 0.1-8.72-0.18-17.43 0.05-26.14 0.92-8.87 1.29-17.78 1.03-26.68 0.9-8.68 1.31-17.41 0.66-26.11 0.54-13.71 0.17-27.42 0.16-41.13 1.33-7.09 3.63-13.95 5.49-20.91 4.21-13.27 3.63-29.55 16.87-37.88z" fill="#f9ca05"/>
  <path d="m429.43 97.74c4.66 1.47 23.16-1.6 13.39 6.16-4.68 6.99-11.63-1.97-13.39-6.16z" fill="#7d097e"/>
  <path d="m250.08 99.93c0.19-1.7 8.7-1.7 8.59 0.27-2.88-0.11-5.72-0.21-8.59-0.27z" fill="#745800"/>
  <path d="m219.65 148.36c-0.74-19.57 8.22-45.7 30.43-48.43 2.87 0.06 5.71 0.16 8.59 0.27 3.2 0.26 6.44 0.71 9.68 0.72 21.24 2.38 32.55 26.61 32.7 46.87 0.18 2.76 0.39 5.56 0.62 8.33 0.23 4.07 0.71 8.13 1.03 12.21 0.11 3.14 0.18 6.31 0.46 9.46 0.18 3.82 0.37 7.65 0.56 11.48 0.11 3.82 0.22 7.65 0.32 11.48 0.09 3.2 0.1 6.45 0.59 9.63 0.26 1.87 0.49 3.74 0.48 5.63-4.17-4.19 1.16-23.91-7.22-15.71-3.09 13.12 0.36 26.84-2.8 40.03-0.06-8.37-0.14-16.73 0.1-25.08 0.7-9.71 1.28-19.45 0.83-29.19-0.49-14.52-4.42-28.62-5.96-43.01-0.14-2.68-0.01-5.37-0.7-7.98-5.72-8.53-16.38-12.13-23.68-19.23-6.69-1.16-13.97-1.99-20.57-0.16-1.06 0.87-1.7 4.89-2.92 3.74-10.23-9.47-22.03 9.42-19.66 19.17-5.17 12.49 9.19 19.35 12.58 30.24-6.19-5.78-10.31-13.69-15.46-20.47z" fill="#f5c70b"/>
  <path d="m258.67 100.2c3.07 0.34 6.96-1.26 9.68 0.72-3.24-0.01-6.48-0.46-9.68-0.72z" fill="#b99c2d"/>
  <path d="m207.85 104.33c3.86 1.49 8.16 1.72 12.29 1.11 4.15 9.5-18.52 6.14-12.29-1.11z" fill="#6f0a6e"/>
  <path d="m389.98 114.73c4.42-1.95 9.34-0.36 13.92-0.03-4.65 0.09-9.28 0.25-13.92 0.03z" fill="#533a00"/>
  <path d="m429.05 114.5c1.35 6.05 2.01 23.69 0 30.09-0.07-10.03-0.07-20.06 0-30.09z" fill="#917701"/>
  <path d="m245.11 115.68c6.6-1.83 13.88-1 20.57 0.16-6.85 0.12-13.75 0.66-20.57-0.16z" fill="#8b7310"/>
  <path d="m222.53 138.59c-2.37-9.75 9.43-28.64 19.66-19.17-19.99 15.09 5.83 49.62 25.93 35.19 0.51-7.05 4.82-21.8-6.91-20.77-8.1 1.4 0.91 16.74-8.56 13.63-8.56-7.63 4.71-15.4 10.3-19.97 9.47 2.98 22.74 13.29 16.84 24.18-2.58 6.62-3.41 13.74-5.46 20.51-12.44 6.33-27.61 3.01-39.22-3.36-3.39-10.89-17.75-17.75-12.58-30.24z" fill="#fbcb02"/>
  <path d="m268.12 154.61c-20.1 14.43-45.92-20.1-25.93-35.19-15.12 13.85 3.14 43.75 22.08 36 5.47-5.13 4.85-28.18-6.11-17.11 8.19 15.49-13.6 12.87-12.19-0.69-0.01-2.74 0.03-5.46 0.08-8.2 13.08-12.36 32.45 1.74 37.75 15.51-3.53 9.23-5.81 18.88-8.46 28.37-11.74 5.97-31.99 5.44-40.23-4.47 11.61 6.37 26.78 9.69 39.22 3.36 2.05-6.77 2.88-13.89 5.46-20.51 5.9-10.89-7.37-21.2-16.84-24.18-5.59 4.57-18.86 12.34-10.3 19.97 9.47 3.11 0.46-12.23 8.56-13.63 11.73-1.03 7.42 13.72 6.91 20.77z" fill="#e3bb18"/>
  <path d="m438.59 125.41c0.5 2.6-0.34 5.23-0.01 7.86 0.07-2.62-0.08-5.25 0.01-7.86z" fill="#747557"/>
  <path d="m306.27 125.71c0.78 2.42 1.52 4.87 1.84 7.4-2.23-1.76-1.77-4.9-1.84-7.4z" fill="#4f054d"/>
  <path d="m245.97 137.62c-1.86 0.76-1.68-8.5 0.08-8.2-0.05 2.74-0.09 5.46-0.08 8.2z" fill="#ac932c"/>
  <path d="m289.36 135.07c0.69 2.61 0.56 5.3 0.7 7.98-2.09-1.91-0.74-5.43-0.7-7.98z" fill="#8f7816"/>
  <path d="m349.37 142.47c0.38-5.11 9.47-3.18 8 1.7-1.86 6.96-4.16 13.82-5.49 20.91-1.67 13.43-0.69 26.99-0.91 40.48-0.99 8.73-1.27 17.52-0.79 26.3-0.21 9.04-0.06 18.09-0.15 27.14-1.08 8.57-1.41 17.22-1.01 25.86-0.12 8.71 0.18 17.43-0.05 26.14-1.3 20.55-2.01 41.62-0.03 62.01 0.06 4.61 0.06 9.25 0.1 13.88 0.15 4.61-1.11 9.71 0.94 14.07 0.1 4.99 0.03 10 0.15 15 0.07 5.4 0.27 10.8 0.75 16.19 0.25 5.26 0.66 10.51 1.12 15.78 0.04 5.64-0.14 11.28 0.01 16.94 0.18 5.36 0.36 10.73 0.83 16.09 0.37 5.39 0.63 10.79 0.98 16.2 0.11 5.47 0.26 10.95 0.47 16.44-0.09 5.25-0.87 10.69 0.63 15.84 0 4.95-0.21 10.03 0.81 14.93 0.24 4.46 0.36 8.92 0.49 13.42 0.05 5.35 0.33 10.71 0.78 16.07 0.07 5.12-0.39 10.38 0.73 15.44 0.21 4.49 0.58 8.95 0.64 13.47-0.07 6.09-0.91 12.3 0.27 18.35 1.22 5.51 4.15 10.51 5.41 16.02-14.52 1.82-29.03 4.24-43.6 5.61-16.25-3.62-7.09-25.82-10.68-37.5-0.08-5.44-0.32-10.85-0.76-16.24-0.27-5.42-0.68-10.82-0.84-16.22-0.2-5.17-0.23-10.36-0.37-15.51 0.05-5.44-0.46-10.84-0.84-16.23-0.19-5.78-0.25-11.56-0.71-17.31-0.14-6.08-0.14-12.16-0.45-18.22 0.4-47.48 0.2-94.97 0.1-142.46 0.18-25.98 0.18-51.97-0.05-77.95 0.37-0.6 1.12-1.8 1.5-2.4 2.4-4.91-2.38-15.2 2.6-17.77 3.79 11.32-1.83 26.92 2.17 37.95l0.89 0.42c0.77 24.16-1.51 48.75 0.94 72.66 0.95 15.93-1.63 32.33 1.07 48.02-0.06 2.58-0.11 5.17-0.18 7.77-1.34 18.49-1.46 37.13 0.09 55.62 1.34 16.43-2.07 33.54 1.04 49.65 0.18 11.06-0.58 22.18 0.7 33.21 0.12 2.51 0.33 5.03 0.64 7.55-0.01 3.06-0.2 6.26 0.64 9.27l0.19 0.91c0.09 4.32-0.18 8.76 0.72 13.05l0.19 0.92c0.45 3.05 0.28 6.29 0.68 9.39 0.11 1.65 0.31 4.93 0.41 6.57 0.1 3.68 0.19 7.36 0.29 11.06 6.57 1.67 13.57 0.25 20.26 1.36 18.41 4.59 3.69-26.27 8.31-36.4-0.25-6.65 1.31-13.65-0.98-20.07l-0.1-0.96c-0.46-4.06-0.58-8.11-0.71-12.16-0.12-2.83-0.22-5.71-0.39-8.49-0.1-5.4-0.32-10.8-0.96-16.15-0.01-9.38 0.96-18.89-0.58-28.17l-0.52-2.84c-0.11-4.79 0.36-9.61-0.45-14.34-0.3-3.14-0.42-6.35-0.56-9.47-0.36-4.1-0.49-8.18-0.73-12.26-0.37-4.11-0.68-8.19-0.83-12.28-0.08-3.46-0.23-6.97-0.47-10.41 0.13-9.88-0.22-19.78-1.49-29.59-0.26-8.46-0.38-16.93-0.55-25.38 0.62-25.78 0.22-51.57 0.32-77.35-0.09-43.32 0.21-86.64-0.18-129.95 0.77-1.82 1.59-3.63 2.18-5.52 3.03-11.87 5.54-23.93 7.37-36.06z" fill="#050103"/>
  <path d="m301.05 147.79c2.06 2.14 0.55 5.65 0.62 8.33-0.23-2.77-0.44-5.57-0.62-8.33z" fill="#927500"/>
  <path d="m301.67 156.12c2.72 2.52 0.53 8.44 1.03 12.21-0.32-4.08-0.8-8.14-1.03-12.21z" fill="#453402"/>
  <path d="m312.4 157.53c0.27 1.53 0.64 3.04 0.84 4.58-0.52 47.06-0.12 94.14-0.23 141.2l-0.89-0.42c-0.01-48.44-0.59-96.95 0.28-145.36z" fill="#190019"/>
  <path d="m313.24 162.11c1.74 46.88 0.35 93.88 0.68 140.8l-0.91 0.4c0.11-47.06-0.29-94.14 0.23-141.2z" fill="#6d146b"/>
  <path d="m370.03 171.22c0.16-2.78 0.41-5.55 0.73-8.3-0.11 2.69 1.17 6.08-0.73 8.3z" fill="#a78c23"/>
  <path d="m350.97 205.56c0.22-13.49-0.76-27.05 0.91-40.48 0.01 13.71 0.38 27.42-0.16 41.13l-0.75-0.65z" fill="#7b640b"/>
  <path d="m339.82 184.05c0.29-2.49 0.88-4.95 1.98-7.21 0.05 0.43 0.15 1.27 0.2 1.69-0.59 1.89-1.41 3.7-2.18 5.52z" fill="#460447"/>
  <path d="m303.16 177.79c0.78 3.73 0.97 7.56 0.56 11.48-0.19-3.83-0.38-7.66-0.56-11.48z" fill="#7d6300"/>
  <path d="m339 314c1.12-43.26-1.9-86.9 0.82-129.95 0.39 43.31 0.09 86.63 0.18 129.95h-1z" fill="#7d0e7d"/>
  <path d="m295.19 215.25c1.09-8.75-2.61-22.46 0.83-29.19 0.45 9.74-0.13 19.48-0.83 29.19z" fill="#bda130"/>
  <path d="m375.19 223.2c-0.32-11.5-0.5-23.02 0.61-34.49 0.35 11.5 0.51 23.02-0.61 34.49z" fill="#302e1e"/>
  <path d="m366.84 226.72c0.13-9.99 0-20 0.86-29.96-0.2 9.74 1.75 23.74-0.84 30.95l-0.02-0.99z" fill="#826600"/>
  <path d="m304.04 200.75c1.92 2.66 0.72 6.54 0.59 9.63-0.49-3.18-0.5-6.43-0.59-9.63z" fill="#ba9e2e"/>
  <path d="m350.18 231.86c-0.48-8.78-0.2-17.57 0.79-26.3-0.16 8.92 0.15 17.84 0.09 26.76l-0.88-0.46z" fill="#341e00"/>
  <path d="m350.97 205.56l0.75 0.65c0.65 8.7 0.24 17.43-0.66 26.11 0.06-8.92-0.25-17.84-0.09-26.76z" fill="#e9c83e"/>
  <path d="m294.22 239.86c0.7-7.11-2.54-19.83 0.97-24.61-0.24 8.35-0.16 16.71-0.1 25.08l-0.87-0.47z" fill="#795d00"/>
  <path d="m286.21 256.24c-0.38-11.16-0.48-22.33 0.6-33.45 0.35 11.15 0.43 22.32-0.6 33.45z" fill="#3a3828"/>
  <path d="m306.05 225.92c2.41 17.29-0.01 38.14 1.3 56.79-0.38 0.6-1.13 1.8-1.5 2.4-0.01-0.49-0.03-1.47-0.04-1.95 0.43-19.08 0-38.16 0.24-57.24z" fill="#a58c25"/>
  <path d="m365.93 252.95c-0.28-8.76 0.19-17.51 0.91-26.23l0.02 0.99c0.01 8.43 0.56 16.9 0.06 25.33l-0.99-0.09z" fill="#c7a936"/>
  <path d="m350.18 231.86l0.88 0.46c0.26 8.9-0.11 17.81-1.03 26.68 0.09-9.05-0.06-18.1 0.15-27.14z" fill="#c09c18"/>
  <path d="m294.22 239.86l0.87 0.47c-0.74 29.29 1.08 58.66-0.97 87.91-0.14-16.75-0.1-33.49-0.11-50.24 0.09-12.71-0.36-25.44 0.21-38.14z" fill="#f2c824"/>
  <path d="m365.93 252.95l0.99 0.09c-0.92 6.72 2.4 19.34-1.11 23.7 0.18-7.93 0.19-15.86 0.12-23.79z" fill="#3d2d00"/>
  <path d="m349.02 284.86c-0.4-8.64-0.07-17.29 1.01-25.86-0.23 8.71 0.05 17.42-0.05 26.14l-0.96-0.28z" fill="#685504"/>
  <path d="m365.73 315.43c-1.8-12.83-0.7-25.83 0.08-38.69 0.2 12.89 0.51 25.8-0.08 38.69z" fill="#947700"/>
  <path d="m293.16 328.87c0.27-16.61-1.46-35.91 0.85-50.87 0.01 16.75-0.03 33.49 0.11 50.24l-0.03 0.99-0.93-0.36z" fill="#ad942a"/>
  <path d="m304.94 362.82c0.62-26.55-1.01-53.16 0.87-79.66 0.01 0.48 0.03 1.46 0.04 1.95 0.23 25.98 0.23 51.97 0.05 77.95l-0.96-0.24z" fill="#eec82e"/>
  <path d="m374.41 284.03c1.01 4.6 0.1 9.31-0.2 13.95 0.12-4.65 0.14-9.31 0.2-13.95z" fill="#747457"/>
  <path d="m349.02 284.86l0.96 0.28c0.39 8.63 0.06 17.28-1.01 25.86 0.23-8.71-0.07-17.43 0.05-26.14z" fill="#e6c842"/>
  <path d="m313.01 303.31l0.91-0.4c0.19 24.02 0.04 48.05 0.04 72.07l-0.01 0.99c-2.45-23.91-0.17-48.5-0.94-72.66z" fill="#2f002f"/>
  <path d="m348.94 373.01c-1.98-20.39-1.27-41.46 0.03-62.01 0 20.67 0.06 41.34-0.03 62.01z" fill="#aa8c0d"/>
  <path d="m339 314h1c-0.1 25.78 0.3 51.57-0.32 77.35-1.53-25.75-0.3-51.57-0.68-77.35z" fill="#420042"/>
  <path d="m365.73 315.43c2.3 5.25 1.26 16.55 1.23 24.57l-1-0.02c-0.01-8.19 0.09-16.38-0.23-24.55z" fill="#412e01"/>
  <path d="m292.15 379.93c0.36-16.74-1.62-35.67 1.01-51.06-0.35 16.79-0.13 33.57-0.03 50.36l-0.03 0.99-0.95-0.29z" fill="#674e00"/>
  <path d="m293.16 328.87l0.93 0.36c-0.47 16.67 0.76 33.37-0.96 50-0.1-16.79-0.32-33.57 0.03-50.36z" fill="#eec92c"/>
  <path d="m284.19 552.23c0.13-73.13-1.21-146.34 0.66-219.42-0.2 73.13 1.14 146.33-0.66 219.42z" fill="#4c4c3a"/>
  <path d="m365.96 339.98l1 0.02c0.09 12.46 0.3 24.94-0.2 37.4l-0.03 1c-1.47-12.76-0.58-25.62-0.77-38.42z" fill="#c9ac38"/>
  <path d="m304.94 362.82l0.96 0.24c0.1 47.49 0.3 94.98-0.1 142.46-0.22-0.43-0.64-1.29-0.86-1.72 0.06-46.67 0.15-93.34-0.04-140l0.04-0.98z" fill="#715700"/>
  <path d="m304.94 503.8c-1.67-46.47-1.46-93.43-0.04-140 0.19 46.66 0.1 93.33 0.04 140z" fill="#f2c925"/>
  <path d="m348.94 373.01c2.21 4.32 0.81 9.47 1.03 14.12l-0.93-0.24c-0.04-4.63-0.04-9.27-0.1-13.88z" fill="#e7c743"/>
  <path d="m313.96 374.98c3.13 15.87-0.2 32.79 1.06 49.01-2.7-15.69-0.12-32.09-1.07-48.02l0.01-0.99z" fill="#5e015c"/>
  <path d="m366.76 377.4c2.37 15.16 1.31 37.1 0.83 54.95-1.67-17.93 0.16-35.98-0.86-53.95l0.03-1z" fill="#826500"/>
  <path d="m292.15 379.93l0.95 0.29c-0.48 17.33 0.75 34.71-0.93 52.01 0.05-6.07 0.01-12.13-0.12-18.18 0.06-11.37-0.42-22.76 0.1-34.12z" fill="#efc92c"/>
  <path d="m374.21 383.81c1.24 2.54 0.59 5.27 0.23 7.97-0.04-2.67-0.12-5.33-0.23-7.97z" fill="#747558"/>
  <path d="m349.04 386.89l0.93 0.24c0.01 4.61-0.04 9.21 0.01 13.83-2.05-4.36-0.79-9.46-0.94-14.07z" fill="#6b5304"/>
  <path d="m349.98 400.96c2.16 4.55 0.82 9.79 1.04 14.64l-0.89 0.36c-0.12-5-0.05-10.01-0.15-15z" fill="#bc9a16"/>
  <path d="m375.4 406.67c0.59 4.85 0.23 9.73 0.27 14.62-0.78-4.83-0.36-9.77-0.27-14.62z" fill="#343321"/>
  <path d="m291.12 433.88c0.82-5.77-2.33-15.97 0.93-19.83 0.13 6.05 0.17 12.11 0.12 18.18-0.03 0.49-0.08 1.48-0.11 1.97l-0.94-0.32z" fill="#9b831e"/>
  <path d="m350.13 415.96l0.89-0.36 0.13 0.97c0 5.18-0.21 10.38-0.27 15.58-0.48-5.39-0.68-10.79-0.75-16.19z" fill="#341e00"/>
  <path d="m340.23 416.73c1.27 9.81 1.62 19.71 1.49 29.59-1.79-9.78-1.81-19.69-1.49-29.59z" fill="#470548"/>
  <path d="m351.15 416.57c1.42 5.03 0.77 10.29 0.69 15.45l-0.96 0.13c0.06-5.2 0.27-10.4 0.27-15.58z" fill="#e7c73d"/>
  <path d="m315.02 423.99c2.44 20.7 0.38 42 0.79 62.91l-0.88 0.48c0.05-18.55 0.19-37.08-0.09-55.62 0.07-2.6 0.12-5.19 0.18-7.77z" fill="#751675"/>
  <path d="m314.93 487.38c-1.55-18.49-1.43-37.13-0.09-55.62 0.28 18.54 0.14 37.07 0.09 55.62z" fill="#1a001c"/>
  <path d="m350.88 432.15l0.96-0.13c0.03 4.98 0.03 9.94 0.15 14.93l0.01 0.98c-0.46-5.27-0.87-10.52-1.12-15.78z" fill="#7d660d"/>
  <path d="m291.04 510.01c-1.65-23.11-1.94-52.82 0.08-76.13-0.23 25.38-0.13 50.75-0.08 76.13z" fill="#553d00"/>
  <path d="m291.12 433.88l0.94 0.32c-0.17 25.27-0.02 50.53-0.02 75.8l-1 0.01c-0.05-25.38-0.15-50.75 0.08-76.13z" fill="#ecc834"/>
  <path d="m351.99 446.95c1.91 5.72 0.88 12.14 0.98 18.1l-0.96-0.18c-0.15-5.66 0.03-11.3-0.01-16.94l-0.01-0.98z" fill="#d2ae21"/>
  <path d="m377.38 449.62c0.58 4.87 0.34 9.78 0.31 14.68-0.83-4.84-0.44-9.81-0.31-14.68z" fill="#42412f"/>
  <path d="m367.94 452.95c2.74 3.9 0.37 11.87 0.73 17.27-0.5-5.75-0.76-11.51-0.73-17.27z" fill="#b3992b"/>
  <path d="m342.19 456.73c0.15 4.09 0.46 8.17 0.83 12.28-0.32-4.1-0.46-8.21-0.83-12.28z" fill="#4a044b"/>
  <path d="m352.01 464.87l0.96 0.18c0.04 5.31-0.16 10.59-0.13 15.91-0.47-5.36-0.65-10.73-0.83-16.09z" fill="#452e00"/>
  <path d="m343.02 469.01c0.24 4.08 0.37 8.16 0.73 12.26-0.23-4.1-0.42-8.2-0.73-12.26z" fill="#330034"/>
  <path d="m368.67 470.22c2.78 2.11 0.48 8.45 1.04 12.12-0.27-4.06-0.74-8.1-1.04-12.12z" fill="#735800"/>
  <path d="m352.84 480.96l0.93 0.27c0.09 5.29 0.09 10.62 0.05 15.93-0.35-5.41-0.61-10.81-0.98-16.2z" fill="#8a7517"/>
  <path d="m353.77 481.23c2.93 14.28 0.89 32.24 2.04 47.77l-0.89 0.44c0.06-5.29 0.41-10.64-0.63-15.84-0.21-5.49-0.36-10.97-0.47-16.44 0.04-5.31 0.04-10.64-0.05-15.93z" fill="#eac429"/>
  <path d="m314.93 487.38l0.88-0.48c0.41 16.38 0.04 32.76 0.24 49.14l-0.08 0.99c-3.11-16.11 0.3-33.22-1.04-49.65z" fill="#360038"/>
  <path d="m344.31 490.74c0.81 4.73 0.34 9.55 0.45 14.34-1.38-4.64-0.29-9.61-0.45-14.34z" fill="#3d033f"/>
  <path d="m369.98 493.91c2.76 3.79 0.08 11.39 0.74 16.4-0.34-5.47-0.54-10.94-0.74-16.4z" fill="#a38923"/>
  <path d="m379.37 498.56c1.33 8.53 0.56 17.21 0.38 25.81-1.83-8.47-0.48-17.25-0.38-25.81z" fill="#565644"/>
  <path d="m345.28 507.92c1.54 9.28 0.57 18.79 0.58 28.17-1.98-9.29-0.47-18.8-0.58-28.17z" fill="#4d034d"/>
  <path d="m291.04 510.01l1-0.01c0.06 5.01-0.02 10-0.06 15.02-2.41-3.09-0.82-10.16-0.94-15.01z" fill="#9e8421"/>
  <path d="m370.72 510.31c2.3 2.08 1.32 10.28 0.91 15.05-0.82-4.97-0.87-10.05-0.91-15.05z" fill="#644a01"/>
  <path d="m354.29 513.6c1.04 5.2 0.69 10.55 0.63 15.84-1.5-5.15-0.72-10.59-0.63-15.84z" fill="#573f00"/>
  <path d="m306.25 523.74c0.46 5.75 0.52 11.53 0.71 17.31-0.88-5.73-0.96-11.54-0.71-17.31z" fill="#a38b24"/>
  <path d="m354.92 529.44l0.89-0.44c0.11 5.12-0.1 10.22-0.08 15.37-1.02-4.9-0.81-9.98-0.81-14.93z" fill="#99821f"/>
  <path d="m316.05 536.04c3.11 10.95-0.16 22.92 0.62 34.2-1.28-11.03-0.52-22.15-0.7-33.21l0.08-0.99z" fill="#640465"/>
  <path d="m345.86 536.09c0.64 5.35 0.86 10.75 0.96 16.15-0.47-5.38-0.31-10.8-0.96-16.15z" fill="#3e013c"/>
  <path d="m292.27 537.68c0.34 4.02 0.81 8.03 1.11 12.08-2.81-2.19-0.55-8.43-1.11-12.08z" fill="#664d00"/>
  <path d="m371.97 538.94c2.45 3.03 0.86 9.78 0.76 14.43-0.91-4.75-0.96-9.64-0.76-14.43z" fill="#917a19"/>
  <path d="m306.96 541.05c0.38 5.39 0.89 10.79 0.84 16.23-0.19-5.43-0.66-10.83-0.84-16.23z" fill="#644a00"/>
  <path d="m293.38 549.76c0.78 5.73 0.54 11.54-0.15 17.28-0.23-5.77-0.19-11.54 0.15-17.28z" fill="#af9626"/>
  <path d="m372.73 553.37c2.23 1.82 1.26 9.99 1.24 14.64l-1 0.02c-0.04-4.89-0.13-9.8-0.24-14.66z" fill="#523a00"/>
  <path d="m356.22 557.79c0.32 5.34 0.26 10.72 0.78 16.07-0.45-5.36-0.73-10.72-0.78-16.07z" fill="#6a5000"/>
  <path d="m347.21 560.73c0.13 4.05 0.25 8.1 0.71 12.16-0.36-4.05-0.5-8.13-0.71-12.16z" fill="#520150"/>
  <path d="m292.23 578.32c-0.48-4.08-0.14-7.84 1-11.28-0.36 3.74-0.69 7.5-1 11.28z" fill="#6c5100"/>
  <path d="m372.97 568.03l1-0.02c0.14 4.62 0.11 9.28-0.02 13.93-0.12 4.8-0.24 9.76 0.83 14.49 0.04 4.64 0.01 9.33 0 13.99-2.41-14.01-1.78-28.25-1.81-42.39z" fill="#e6c22a"/>
  <path d="m381.38 571.59c1.08 8.2 0.68 16.49 0.36 24.74-1.59-8.14-0.64-16.53-0.36-24.74z" fill="#686852"/>
  <path d="m308.17 572.79c0.16 5.4 0.57 10.8 0.84 16.22-0.44-5.41-0.77-10.82-0.84-16.22z" fill="#987e1d"/>
  <path d="m348.02 573.85c2.29 6.42 0.73 13.42 0.98 20.07l-1 0.07c-0.06-6.72 0.16-13.44 0.02-20.14z" fill="#350034"/>
  <path d="m357 573.86c1.98 4.92 0.67 10.29 0.73 15.44-1.12-5.06-0.66-10.32-0.73-15.44z" fill="#aa9027"/>
  <path d="m317.31 577.79c0.44 3.08 0.09 6.18 0.64 9.27-0.84-3.01-0.65-6.21-0.64-9.27z" fill="#40023f"/>
  <path d="m373.95 581.94c2.51 2.93 0.81 9.83 0.83 14.49-1.07-4.73-0.95-9.69-0.83-14.49z" fill="#846b11"/>
  <path d="m284.27 587.78c0.7 5.42 0.56 10.89-0.08 16.33 0.09-5.44 0.05-10.91 0.08-16.33z" fill="#4b4d3a"/>
  <path d="m318.14 587.97c0.9 4.28 0.59 8.68 0.72 13.05-0.9-4.29-0.63-8.73-0.72-13.05z" fill="#4d044d"/>
  <path d="m309.01 589.01c0.44 5.39 0.68 10.8 0.76 16.24-0.16-5.43-0.54-10.84-0.76-16.24z" fill="#523b00"/>
  <path d="m291.22 602.12c1.08-3.59-2.19-9.59 0.75-12.29-0.15 4.09-0.48 8.17-0.75 12.29z" fill="#977f1a"/>
  <path d="m348 593.99l1-0.07c-4.62 10.13 10.1 40.99-8.31 36.4 14.73-1.01 4.13-25.39 7.31-36.33z" fill="#6e136e"/>
  <path d="m374.78 596.43c1.88 1.03 1.83 9.36 0.79 13.42l-0.79 0.57c0.01-4.66 0.04-9.35 0-13.99z" fill="#3b2700"/>
  <path d="m290.19 614.25c1.34-3.15-2.29-10.46 1.03-12.13-0.28 4.04-0.71 8.07-1.03 12.13z" fill="#5c4301"/>
  <path d="m319.05 601.94c0.84 3.07 0.68 6.2 0.68 9.39-0.4-3.1-0.23-6.34-0.68-9.39z" fill="#460545"/>
  <path d="m358.37 602.77c0.58 6.09 0.47 12.22 0.27 18.35-1.18-6.05-0.34-12.26-0.27-18.35z" fill="#7b6000"/>
  <path d="m374.78 610.42l0.79-0.57c0.44 4.78 0.76 9.69 0.06 14.49-0.48-4.62-0.73-9.29-0.85-13.92z" fill="#c4a21a"/>
  <path d="m320.14 617.9c0.12 3.68 0.21 7.36 0.29 11.06-0.1-3.7-0.19-7.38-0.29-11.06z" fill="#360036"/>
  <path d="m382.31 621.57c1.77 10.09 0.27 20.39 0.4 30.57-2.11-10.03-0.19-20.43-0.4-30.57z" fill="#25250d"/>
  <path d="m375.63 624.34c2.51 1.92 1.33 9.59 0.98 14.01-0.56-4.65-0.72-9.36-0.98-14.01z" fill="#705c06"/>
  <path d="m289.25 637.18c1.1-3.59-2.24-9.67 0.74-12.35-0.12 4.12-0.41 8.22-0.74 12.35z" fill="#8f7617"/>
  <path d="m377 649.84c2.5 2.41 0.59 7.24 0.65 10.51-0.75-3.44-0.63-7.04-0.65-10.51z" fill="#ab8e0f"/>
  <path d="m307.91 666.07c21.54-4.74 45.11-1.83 66.82-0.99-20.36 0.15-40.75-0.88-61.07 0.67-1.92 0.12-3.83 0.34-5.75 0.32z" fill="#eec72a"/>
  <path d="m313.66 665.75c20.32-1.55 40.71-0.52 61.07-0.67l0.77 0.58c-20.59 0.58-41.24 0.55-61.84 0.09z" fill="#544200"/>
  <path d="m316.06 673c-0.45-1.89 8.65-1.9 8.9 0.01-3-0.04-5.93 0.01-8.9-0.01z" fill="#947c20"/>
  <path d="m279.88 693.81c-3.17-21.89 22.2-17.35 36.18-20.81 2.97 0.02 5.9-0.03 8.9 0.01 4.25 0.01 8.52 0.02 12.79 0.23 5 0.28 10.03 0.75 15.05 1 4.77 0.26 9.56 0.82 14.36 0.78 12.5-4.69 17 10.29 17.82 19.78-10.3-1.72-20.38-4.84-30.8-6.03-2.86-0.74-5.71-0.97-8.52-0.1-2.84 0.27-5.65 0.3-8.48 0.43-3.13 0.04-6.23 0.01-9.31 0.51-2.76 0.33-5.45 0.87-8.21 1.08-2.82 0.17-5.6 0.07-8.39 0.39-2.86 0.08-5.67 0.25-8.5 0.51-7.61 0.95-15.29 1.12-22.89 2.22z" fill="#f7c808"/>
  <path d="m337.75 673.24c4.18 0.82 12.73-2.2 15.05 1-5.02-0.25-10.05-0.72-15.05-1z" fill="#644a00"/>
  <path d="m352.8 674.24c4.25 0.84 11.23-2.25 14.36 0.78-4.8 0.04-9.59-0.52-14.36-0.78z" fill="#ab9127"/>
  <path d="m345.66 688.67c2.81-0.87 5.66-0.64 8.52 0.1-2.84 0.16-5.69 0.14-8.52-0.1z" fill="#654a00"/>
  <path d="m327.87 689.61c3.08-0.5 6.18-0.47 9.31-0.51-2.54 1.35-5.62 0.95-8.37 0.63l-0.94-0.12z" fill="#99811e"/>
  <path d="m319.66 690.69c2.76-0.21 5.45-0.75 8.21-1.08l0.94 0.12c-1.11 3.1-6.48 0.53-9.15 0.96z" fill="#503900"/>
  <path d="m302.77 691.59c2.83-0.26 5.64-0.43 8.5-0.51-2.22 2.03-5.76 0.49-8.5 0.51z" fill="#877113"/>
  <path d="m317.22 697.21c5.28-1.9 18.98-2.18 24.8-0.23-8.28-0.08-16.54 0.05-24.8 0.23z" fill="#320032"/>
  <path d="m308.79 698.06c2.07-2.16 5.72-0.67 8.43-0.85-2.81 0.28-5.64 0.55-8.43 0.85z" fill="#580356"/>
  <path d="m317.22 697.21c8.26-0.18 16.52-0.31 24.8-0.23 15.6-1.35 29.44 4.83 44.27 7.63 6.84 22.62 10.67 46.23 18.15 68.74-4.51 1.87-9.71 1.04-14.41 2.28-5.45 12.42-14.06 6.96-20.72-0.81-9.69-0.06-20.84 3-28.18 9.12-13.08-15.3-36.58-10.76-48.02 4.05-5.91-15.18-26.62-14.79-38.9-8.78 13.74-23.15 14.92-50.55 22.41-75.74 10.43-2.98 21.36-4.35 32.17-5.41 2.79-0.3 5.62-0.57 8.43-0.85m3.99 1.38c-13.48 4.21-28.46 1.55-41.6 7.05-7.16 20.62-6.66 43.62-18.22 62.76-0.68 4.6 5.37 1.72 7.43 0.38 10.81-2.51 19.49 3.07 27.12 9.1 9.83-9.92 27.62-16.13 38.65-3.51 9.15-2.55 20.95-10.65 30.04-2.8 5.47 3.81 10.79-0.83 15.46-3.42-1.07 9.69 3.13-5.07 10.33-1.53-7.1-18.54-9.23-41.01-15.86-60.27-17.16-6.27-35.28-7.42-53.35-7.76z" fill="#900490"/>
  <path d="m321.21 698.59c18.07 0.34 36.19 1.49 53.35 7.76 6.63 19.26 8.76 41.73 15.86 60.27-7.2-3.54-11.4 11.22-10.33 1.53-4.67 2.59-9.99 7.23-15.46 3.42-9.09-7.85-20.89 0.25-30.04 2.8-11.03-12.62-28.82-6.41-38.65 3.51-7.63-6.03-16.31-11.61-27.12-9.1-2.06 1.34-8.11 4.22-7.43-0.38 11.56-19.14 11.06-42.14 18.22-62.76 13.14-5.5 28.12-2.84 41.6-7.05m0.23 4.93c-12.04 1.23-25.21 1.33-36.29 5.51-4.8 17.29-7.4 35.47-15.56 51.68 9.51-3.53 21.05-1.8 27.42 5.3 7.94-8.31 24.49-11.35 33.13-1.46 6.82-5.52 20.74-10.42 27.13-0.5 5.34-2.29 9.71-8.36 16.5-5.03-4.97-16.29-8.29-33.17-13.47-49.31-12.32-5.17-25.82-5.26-38.86-6.19z" fill="#a108a1"/>
  <path d="m321.44 703.52c13.04 0.93 26.54 1.02 38.86 6.19 5.18 16.14 8.5 33.02 13.47 49.31-6.79-3.33-11.16 2.74-16.5 5.03-6.39-9.92-20.31-5.02-27.13 0.5-8.64-9.89-25.19-6.85-33.13 1.46-6.37-7.1-17.91-8.83-27.42-5.3 8.16-16.21 10.76-34.39 15.56-51.68 11.08-4.18 24.25-4.28 36.29-5.51m-11.84 7.03c-5.63 1.47-12.84-0.2-17.52 3.59-4.23 9.97-3.73 20.86-8.15 30.68 5.49-1.38 11.22-1.18 15.2 3.23 14-8.78 33.06 3.18 45.42-5.63-3.18-9-4.45-18.56-7.3-27.61-8.38-4.7-18.41-4.17-27.65-4.26z" fill="#af14ae"/>
  <path d="m309.6 710.55c9.24 0.09 19.27-0.44 27.65 4.26 2.85 9.05 4.12 18.61 7.3 27.61-12.36 8.81-31.42-3.15-45.42 5.63-3.98-4.41-9.71-4.61-15.2-3.23 4.42-9.82 3.92-20.71 8.15-30.68 4.68-3.79 11.89-2.12 17.52-3.59m-4 4.97c-12.21-2.69-11.08 11.26-13.3 19.42 12.08 1.46 25.22 3.06 36.64-1.06-0.99-12.96-7.49-24.9-23.34-18.36z" fill="#bd22bc"/>
  <path d="m305.6 715.52c15.85-6.54 22.35 5.4 23.34 18.36-11.42 4.12-24.56 2.52-36.64 1.06 2.22-8.16 1.09-22.11 13.3-19.42z" fill="#c72cc6"/>
  <path d="m404.44 773.35c2.84 3.95-9.95 2.82-14.41 2.28 4.7-1.24 9.9-0.41 14.41-2.28z" fill="#470645"/>
  <path d="m302.55 791.35c5.03-13.15 24.86-10.11 30.9 0-10.28 0.99-20.62 0.92-30.9 0z" fill="#f1c40e"/>
  <path d="m268.47 784.42c5.1 0.83 15.77 2.07 15.46 9.38-12.15 3.22-24.66 5-36.83 8.22-0.22-12.27 12.76-13.37 21.37-17.6z" fill="#efc30f"/>
  <path d="m349.79 791.3c3.12-10.77 22.35-9.98 24.29 1.09-7.6-1.09-17.86 4.02-24.29-1.09z" fill="#f3c60e"/>
  <path d="m387.51 795.37c3.44-3.11 4.01-8.79 7.56-11.31 7.05 3.28 16.55 5.71 18.94 14.21-4.92-0.63-9.86-1.02-14.79-1.53-3.92-0.48-7.81-0.92-11.71-1.37z" fill="#edc211"/>
  <path d="m333.45 791.35c-1.2 2.34-29.92 3.8-30.9 0 10.28 0.92 20.62 0.99 30.9 0z" fill="#a1840c"/>
  <path d="m374.08 792.39c7.6 2.33-34.93 4.43-24.29-1.09 6.43 5.11 16.69 0 24.29 1.09z" fill="#d8bb48"/>
  <path d="m399.22 796.74c-2.41-0.2-14.15 1.62-11.71-1.37 3.9 0.45 7.79 0.89 11.71 1.37z" fill="#826707"/>
  <path d="m242.64 811.66c24.6-8.88 52.22-8.74 78.09-10.46 3.74 0.35 7.48 0.68 11.23 1 3.75 0.26 7.52 0.47 11.29 0.64 3.81 0.1 7.61 0.24 11.43 0.41 3.75 0.31 7.51 0.62 11.28 0.94 3.75 0.25 7.51 0.46 11.28 0.63 3.15 0.08 6.36 0.3 9.54 0.45 6.02 0.39 12.07 0.66 18.12 0.77 9.95 0.12 19.45 4.47 23.03 14.19-1.5 0.1-2.94-0.2-4.35-0.61-0.44-0.16-1.32-0.49-1.76-0.66-31.38-2.45-63.07-0.05-94.57-1.11-10.63-0.32-21.66-2.52-32.13-0.13-0.66 0.26-1.97 0.77-2.63 1.02-18.77 1.85-37.55 4.23-56.23 7.01-6.82-3.99 0.52-13.27 6.38-14.09z" fill="#f8c907"/>
  <path d="m320.73 801.2c4.02-0.45 7.77-0.11 11.23 1-3.75-0.32-7.49-0.65-11.23-1z" fill="#664d00"/>
  <path d="m331.96 802.2c3.81-0.31 7.57-0.09 11.29 0.64-3.77-0.17-7.54-0.38-11.29-0.64z" fill="#a89027"/>
  <path d="m354.68 803.25c4.05-0.5 7.81-0.19 11.28 0.94-3.77-0.32-7.53-0.63-11.28-0.94z" fill="#745b00"/>
  <path d="m365.96 804.19c3.81-0.3 7.57-0.09 11.28 0.63-3.77-0.17-7.53-0.38-11.28-0.63z" fill="#b69c2b"/>
  <path d="m386.78 805.27c5.04 1 14.91-2.64 18.12 0.77-6.05-0.11-12.1-0.38-18.12-0.77z" fill="#876900"/>
  <path d="m295.12 817.72c10.47-2.39 21.5-0.19 32.13 0.13-10.72 0.3-21.42-0.04-32.13-0.13z" fill="#edc834"/>
  <path d="m292.49 818.74c0.66-0.25 1.97-0.76 2.63-1.02 10.71 0.09 21.41 0.43 32.13 0.13l-0.35 0.93c-11.45 0.23-22.98 0.68-34.41-0.04z" fill="#533b00"/>
  <path d="m327.25 817.85c31.5 1.06 63.19-1.34 94.57 1.11-13.95-0.15-27.9 0.12-41.84 0.01-17.69-0.12-35.4 0.38-53.08-0.19l0.35-0.93z" fill="#e6c025"/>
  <path d="m379.98 818.97c13.94 0.11 27.89-0.16 41.84-0.01 0.44 0.17 1.32 0.5 1.76 0.66-13.9-0.26-31.4 2.14-43.6-0.65z" fill="#867012"/>
  <path d="m298.14 826.02c4.13-1.2 17.62-2.82 21.84-0.01-7.28 0.05-14.56-0.02-21.84 0.01z" fill="#60045e"/>
  <path d="m275.19 829.29c7.63-1.18 15.27-2.48 22.95-3.27 7.28-0.03 14.56 0.04 21.84-0.01 3.58-0.07 7.22-0.02 10.81 0.22 4.42 0.28 8.86 0.66 13.3 0.8 8.57 0.05 17.12 0.58 25.67 1.26 4.75 0.27 9.52 0.74 14.3 0.76 3.21-0.03 6.49-0.05 9.71 0.15 9.43 0.75 18.86 1.68 28.33 1.83 2.57-0.06 5.14 0 7.73 0.16 4.71 0.47 9.48 0.87 14.15 1.76 23.85 15.54 49.04 28.91 73.31 43.76 32.17 22.73 60.08 51.47 81.43 84.57 8.56 25.84 23.88 49.92 25.09 77.72 0.21 2.8 1.03 5.6 1.8 8.3 0.09 0.7 0.27 1.9 0.37 2.6 0.24 2.5 0.9 5 1.73 7.4 3.07 19.3 5.76 38.7 10.27 57.7 0.25 2.6 0.68 5.5 0.75 8.2 0.03 3.1 0.1 6.4 0.21 9.6l-0.04 1c-0.36 4.3-0.78 8.7-1.13 13-0.36 3.4-0.74 6.9-0.79 10.4 0.19 5.9-0.62 11.7-1.26 17.6-0.38 3.4-0.71 6.9-0.75 10.3-0.05 1.6-0.16 4.9-0.21 6.6-0.35 3-0.69 6.2-0.96 9.3-0.38 3.2-0.72 6.7-0.84 10.1-0.08 1.5-0.14 3.1-0.21 4.7-0.25 3.8-0.44 7.6-0.57 11.5 0.82 13.5-4.46 25.9-8.46 38.5-5.38 20.6-5.2 42.3-12.36 62.6-13.75 38.6-17.99 81.2-41.16 115.8-13.94 25.7-28.57 51.1-41.94 77.1-29.2 4.8-58.88 7.9-88.32 11.5-4.5 0.1-8.93 0.8-13.29 1.8-7.97 1.4-16.08 1.6-24 3.3-10.14 0.1-20.27 0.3-30.4-0.1-5.1-0.3-10.17-0.9-15.28-0.9-5.26 0-10.51 0.3-15.75-0.1-5.01-0.4-9.99-0.8-15-1-5.44-0.5-10.88-0.7-16.31-0.8-5.55-0.1-11.08 0-16.61-0.3-6.98-0.5-13.97-0.8-20.96-1-7.43-0.5-14.88-0.9-22.32-0.7-5.93 0.1-11.86 0-17.77-0.3-7.64-0.5-15.3-0.8-22.95-0.9-7.1-0.6-14.22-1-21.34-0.8-18.77-0.4-37.58-4.2-55.79-8.1-23.12-38.3-43.41-78.3-64.09-118-12.35-32.9-25.44-65.5-37.48-98.6-6.05-32.1-15.2-63.8-19.76-96.2-0.19-3.7-0.38-7.5-0.57-11.2-0.11-3.4-0.21-6.7-0.97-10.1-3.92-23.8 0.68-47.9 2.98-71.6 0.36-5.1 0.71-10 0.78-15.1 12.48-35.5 19.86-74.2 40.97-106.09 18.26-36.18 49.07-63.8 72.34-96.63 21.46-18.69 45.45-34.57 67.93-52.13 22.91-9.48 47.25-14.73 71.94-16.95 2.97-0.34 5.99-0.5 8.95-1.01m-81.77 29.11c-19.25 13.38-37.15 28.06-56.23 41.79-12.32 17.1-27.9 32.17-39.24 49.74-13.46 15.6-23.43 33.83-32.85 52.07-9.8 8.8-8.62 24.3-14.76 35.4-22.89 59-17.87 124.8-2.9 185.2 2.42 26 14.85 49.4 23.25 73.7 13.49 41.6 36.96 78.7 56.48 117.5 6.31 8 8.28 23.3 21.06 23 58.76 8.6 118.45 6.6 177.62 9.8 50.72 4.4 100.97-8.4 151.27-13.3 13.21-23.9 26.24-47.9 39.23-71.9 15.15-18.8 15.77-44.2 23.99-66.1 9.62-25.2 13.85-51.6 18.96-78 11.46-25.6 6.51-54.4 10.22-81.7 8.16-45.2-8.21-89.6-13.8-134.3-11.62-22.01-14.8-48.73-33.77-66.26-28.32-42.43-75.64-63.89-117.88-89.36-69.98-3.43-143.59-14.18-210.65 12.72z" fill="#970197"/>
  <path d="m330.79 826.23c3.78 1.01 10.78-2.32 13.3 0.8-4.44-0.14-8.88-0.52-13.3-0.8z" fill="#3c003c"/>
  <path d="m369.76 828.29c4.11 0.86 11.6-2.35 14.3 0.76-4.78-0.02-9.55-0.49-14.3-0.76z" fill="#400344"/>
  <path d="m266.24 830.3c1.98-2.47 6.15-0.79 8.95-1.01-2.96 0.51-5.98 0.67-8.95 1.01z" fill="#4e054e"/>
  <path d="m393.77 829.2c8.95 0.54 20.6-1.3 28.33 1.83-9.47-0.15-18.9-1.08-28.33-1.83z" fill="#450446"/>
  <path d="m429.83 831.19c4 1.25 12.16-2.93 14.15 1.76-4.67-0.89-9.44-1.29-14.15-1.76z" fill="#3f013f"/>
  <path d="m193.42 858.4c67.06-26.9 140.67-16.15 210.65-12.72 42.24 25.47 89.56 46.93 117.88 89.36 18.97 17.53 22.15 44.25 33.77 66.26 5.59 44.7 21.96 89.1 13.8 134.3-3.71 27.3 1.24 56.1-10.22 81.7-5.11 26.4-9.34 52.8-18.96 78-8.22 21.9-8.84 47.3-23.99 66.1-12.99 24-26.02 48-39.23 71.9-50.3 4.9-100.55 17.7-151.27 13.3-59.17-3.2-118.86-1.2-177.62-9.8-12.78 0.3-14.75-15-21.06-23-19.52-38.8-42.99-75.9-56.48-117.5-8.4-24.3-20.83-47.7-23.25-73.7-14.97-60.4-19.99-126.2 2.9-185.2 6.14-11.1 4.96-26.6 14.76-35.4-9.75 21.8-15.85 45-23.49 67.6-8.57 49.1-7.06 100.1 6.64 148.2 2.58 30.8 17.93 57.9 27.03 86.9 17.3 44.8 41.41 86.6 65.23 128.2 72.93 13.4 147.84 7.5 221.54 13.7 37.96-5.5 76.31-8.8 114.19-14.6 15.7-33.1 37.95-63.4 51.29-97.4 6.92-26 14.68-51.8 22.63-77.5 1.78-21 7.37-41.4 14.26-61.2-0.17-33 4.93-65.9 6.03-98.8-5.06-32.7-10.69-65.7-17.47-98.04-11-21.5-14.98-46.86-33.07-63.97-28.43-41.61-75.03-63.24-117.07-87.95-69.4-2.54-142.42-14.92-208.72 12.98-19.22 12.88-36.82 27.96-55.65 41.35-14.16 15.53-25.34 33.88-40.52 48.46 11.34-17.57 26.92-32.64 39.24-49.74 19.08-13.73 36.98-28.41 56.23-41.79z" fill="#9d049d"/>
  <path d="m194.12 860.12c66.3-27.9 139.32-15.52 208.72-12.98 42.04 24.71 88.64 46.34 117.07 87.95 18.09 17.11 22.07 42.47 33.07 63.97 6.78 32.34 12.41 65.34 17.47 98.04-1.1 32.9-6.2 65.8-6.03 98.8-6.89 19.8-12.48 40.2-14.26 61.2-7.95 25.7-15.71 51.5-22.63 77.5-13.34 34-35.59 64.3-51.29 97.4-37.88 5.8-76.23 9.1-114.19 14.6-73.7-6.2-148.61-0.3-221.54-13.7-23.82-41.6-47.93-83.4-65.23-128.2-9.1-29-24.45-56.1-27.03-86.9-13.7-48.1-15.21-99.1-6.64-148.2 7.64-22.6 13.74-45.8 23.49-67.6 9.42-18.24 19.39-36.47 32.85-52.07 15.18-14.58 26.36-32.93 40.52-48.46 18.83-13.39 36.43-28.47 55.65-41.35m70.53-2.55c-24.86 3.2-50.71 4.27-73.65 15.38-14.76 10.5-29.2 21.47-43.55 32.5-29.36 33.99-60.6 69.48-71.95 114.05-22.7 54.9-11.74 115.7 1.42 171.5 17.03 54.4 42.73 105.8 71.9 154.4 60.95 10.8 123.32 6 184.84 10.6 30.3-5.1 60.94-8.2 91.52-11.1 14.25-22.9 24.27-48.7 39.66-71.1 21.82-67.5 38.77-137.8 38.62-209-8.83-44.7-10.7-94.5-41.84-130.43-24.08-34.54-62.51-53.98-98.68-73.35-32.62-2.1-65.54-4.55-98.29-3.45z" fill="#a209a2"/>
  <path d="m264.65 857.57c32.75-1.1 65.67 1.35 98.29 3.45 36.17 19.37 74.6 38.81 98.68 73.35 31.14 35.93 33.01 85.73 41.84 130.43 0.15 71.2-16.8 141.5-38.62 209-15.39 22.4-25.41 48.2-39.66 71.1-30.58 2.9-61.22 6-91.52 11.1-61.52-4.6-123.89 0.2-184.84-10.6-29.17-48.6-54.87-100-71.9-154.4-13.16-55.8-24.12-116.6-1.42-171.5 11.35-44.57 42.59-80.06 71.95-114.05 14.35-11.03 28.79-22 43.55-32.5 22.94-11.11 48.79-12.18 73.65-15.38m-19.04 15.98c-17.58 2.06-35.29 4.09-52.15 9.76-54.4 34.02-95.59 91.52-103.22 155.99-6.69 77.8 28.33 151.1 65.77 216.9 47.57 9.9 96.92 3.7 145.11 9.2 24.18-3.2 48.54-7.5 72.93-8.9 24.58-38.3 40.96-80.4 50.54-124.7 14.96-59.2 15.25-124.3-9.4-181-19.72-35.17-54.32-58.75-90.25-74.92-26.45-0.55-52.9-3.71-79.33-2.33z" fill="#ac11ab"/>
  <path d="m245.61 873.55c26.43-1.38 52.88 1.78 79.33 2.33 35.93 16.17 70.53 39.75 90.25 74.92 24.65 56.7 24.36 121.8 9.4 181-9.58 44.3-25.96 86.4-50.54 124.7-24.39 1.4-48.75 5.7-72.93 8.9-48.19-5.5-97.54 0.7-145.11-9.2-37.44-65.8-72.46-139.1-65.77-216.9 7.63-64.47 48.82-121.97 103.22-155.99 16.86-5.67 34.57-7.7 52.15-9.76m-10.97 14.94c-16.51 2.13-35.51 0.63-49.08 12.09-36.22 25.79-66.42 66.61-69.09 112.22-2.7 56.1 21.06 109.6 50.26 155.7 47.42 4.1 95.88 8.5 143.15 0.4 6.38-0.4 15.25 1.3 16.94-7.1 25.5-42 39.12-90.6 40.28-139.7 4.34-16.3-3.74-32.08-4.88-48.34-4.8-39.45-39.16-67-73-83.08-18.12-1.05-36.36-3.13-54.58-2.19z" fill="#b419b3"/>
  <path d="m234.64 888.49c18.22-0.94 36.46 1.14 54.58 2.19 33.84 16.08 68.2 43.63 73 83.08 1.14 16.26 9.22 32.04 4.88 48.34-1.16 49.1-14.78 97.7-40.28 139.7-1.69 8.4-10.56 6.7-16.94 7.1-47.27 8.1-95.73 3.7-143.15-0.4-29.2-46.1-52.96-99.6-50.26-155.7 2.67-45.61 32.87-86.43 69.09-112.22 13.57-11.46 32.57-9.96 49.08-12.09m-22.02 16.08c-27.35-0.86-46.09 22.98-59.31 43.74-22.18 42.68-2.62 93.89 21.58 130.89 32.01 5.8 65.81 5.6 98.04-0.1 17.85-21.5 22.54-50.1 27.3-76.9 4.45-32.32-3.2-72.36-35.09-88.31-13.98-13.69-34.91-8.55-52.52-9.32z" fill="#be23bd"/>
  <path d="m212.62 904.57c17.61 0.77 38.54-4.37 52.52 9.32 31.89 15.95 39.54 55.99 35.09 88.31-4.76 26.8-9.45 55.4-27.3 76.9-32.23 5.7-66.03 5.9-98.04 0.1-24.2-37-43.76-88.21-21.58-130.89 13.22-20.76 31.96-44.6 59.31-43.74z" fill="#c82dc7"/>
  <path d="m623.81 1039c2.46 1.6 1.72 5.6 1.8 8.3-0.77-2.7-1.59-5.5-1.8-8.3z" fill="#4f074e"/>
  <path d="m625.98 1049.9c2.18 1.7 1.68 4.9 1.73 7.4-0.83-2.4-1.49-4.9-1.73-7.4z" fill="#4a074a"/>
  <path d="m12.28 1117.2c0.84-4.4-2.22-12.4 0.78-15.1-0.07 5.1-0.42 10-0.78 15.1z" fill="#620463"/>
  <path d="m637.98 1115c2.19 1.7 0.57 5.6 0.75 8.2-0.07-2.7-0.5-5.6-0.75-8.2z" fill="#510a50"/>
  <path d="m638.73 1123.2c1.91 3.1 1.98 6.3 0.21 9.6-0.11-3.2-0.18-6.5-0.21-9.6z" fill="#480049"/>
  <path d="m637.77 1146.8c0.35-4.3 0.77-8.7 1.13-13-1.17 3.4 2.08 11.3-1.13 13z" fill="#420741"/>
  <path d="m636.98 1157.2c0.05-3.5 0.43-7 0.79-10.4-0.84 2.9 1.75 8.1-0.79 10.4z" fill="#5b025a"/>
  <path d="m0 1161.1l0.97-0.1c0.04 5.4-0.09 10.7-0.22 16.1l-0.75-0.6v-15.4z" fill="#2e2c1d"/>
  <path d="m634.97 1185.1c0.04-3.4 0.37-6.9 0.75-10.3-0.85 2.8 1.81 8.2-0.75 10.3z" fill="#60025f"/>
  <path d="m9.3 1188.8c0.76 3.4 0.86 6.7 0.97 10.1-2.61-2.2-0.77-6.9-0.97-10.1z" fill="#390439"/>
  <path d="m644.19 1199.2c0.27-2.8 0.39-5.8 0.62-8.5-0.13 2.9-0.43 5.6-0.62 8.5z" fill="#5f5e45"/>
  <path d="m633.8 1201c0.27-3.1 0.61-6.3 0.96-9.3-0.7 2.6 1.53 7.4-0.96 9.3z" fill="#410340"/>
  <path d="m10.27 1198.9c0.19 3.7 0.38 7.5 0.57 11.2-0.81-3.7-1-7.4-0.57-11.2z" fill="#5b015c"/>
  <path d="m632.96 1211.1c0.12-3.4 0.46-6.9 0.84-10.1-0.87 2.7 1.72 8-0.84 10.1z" fill="#5c055b"/>
  <path d="m632.18 1227.3c0.13-3.9 0.32-7.7 0.57-11.5 0.31 3.8 0.12 7.7-0.57 11.5z" fill="#490647"/>
  <path d="m187.96 1531c7.12-0.2 14.24 0.2 21.34 0.8-6.67-0.6-16.25 1.8-21.34-0.8z" fill="#631064"/>
  <path d="m522.25 1531.3c7.88 0.6 5.06 14.5 8.89 20.6-7.15-5.5-29.67-20.5-8.89-20.6z" fill="#ebc115"/>
  <path d="m209.3 1531.8c7.65 0.1 15.31 0.4 22.95 0.9-6.4-0.8-19.07 2.5-22.95-0.9z" fill="#530153"/>
  <path d="m250.02 1533c7.44-0.2 14.89 0.2 22.32 0.7-6.58-0.8-17.66 2.4-22.32-0.7z" fill="#5e0f5e"/>
  <path d="m426.65 1534.6c4.36-1 8.79-1.7 13.29-1.8-3.05 2.8-9.39 0.8-13.29 1.8z" fill="#4c064b"/>
  <path d="m129.15 1540.2c-2.21-7 3.72-5.8 7.98-6.2-4.47 0-9.05 0.3-7.98 6.2z" fill="#876e12"/>
  <path d="m137.13 1534c4.38 4.7-3.52 19.3-10.28 22.8 0.51-5.6 1.53-11.1 2.3-16.6-1.07-5.9 3.51-6.2 7.98-6.2z" fill="#eac015"/>
  <path d="m272.34 1533.7c6.99 0.2 13.98 0.5 20.96 1-6.3-0.3-17.11 1.7-20.96-1z" fill="#4e004e"/>
  <path d="m309.91 1535c5.43 0.1 10.87 0.3 16.31 0.8-5-0.8-12.46 1.9-16.31-0.8z" fill="#590b5a"/>
  <path d="m491.36 1535.4c17.78-0.2 23.87 20.4 35.78 30.5 9.41 9 20.43 25.3 10.31 37.6-7.62 12.9-13.9 26.7-22.15 39.3-22.18-0.7-48.08 17.5-66.95-0.2-12.26-14.3-24.68-28.7-36.21-43.6 9.62-19.1 16.06-40.4 30.78-56.4 16.18-2 32.42-4 48.44-7.2m0.94 8c-13.5 2.4-28.18 12.4-41.34 5.6-9.36 17.7-19.92 34.8-28.92 52.7 15.01 12 28.92 25.3 44.13 37 15.22-2.8 30.87-3.2 46-6.3 5.72-14 13.43-27.2 18.76-41.2-13.21-15.3-25.45-34.2-38.63-47.8z" fill="#f4f40d"/>
  <path d="m326.22 1535.8c5.01 0.2 9.99 0.6 15 1-4.19-0.9-12.7 2.2-15-1z" fill="#404"/>
  <path d="m356.97 1536.9c5.11 0 10.18 0.6 15.28 0.9-4.44-1-12.35 2.2-15.28-0.9z" fill="#540954"/>
  <path d="m119.16 1563c-0.17-8.4-0.25-16.8 0.67-25.1 0.17 8.4 0.44 16.8-0.67 25.1z" fill="#302f19"/>
  <path d="m152.75 1539.8c1.19-2.4 3.86-1.7 6-1.6 8.08 0.6 16.19 1.1 24.3 0.8 5.35-0.1 10.73-0.2 16.07 0.4 13.43 16.6 21.83 37.2 37.61 52-1.15 23.2-18.06 40.3-28.51 59.9-10.99 0.4-22.73-0.5-34.02-0.5-4.76-0.4-9.51-0.8-14.27-0.8-16-7.3-26.49-26.7-37.83-40.8-0.12-3.3-0.19-6.5-0.34-9.8 14.65 12.6 27.98 29.9 42.83 43.3 13.72-1.3 27.41-7.5 41.08-1.7 9.18-12.2 18.25-24.6 25.92-37.8-8.92-14.4-20.03-27.3-29.56-41.2-3.96-5.1-2.02-16.9-11.89-14-3.16-0.1-6.3 0.2-9.42 0.6-3.95 0.4-7.9 0.5-11.85 0.4-4.24-0.1-8.47-0.3-12.69 0-12.57 10-21.89 30.9-32.26 41.6 0-5.2 0.02-10.2 0.1-15.2 8.21-12.6 20.04-23.1 28.73-35.6z" fill="#f4f40f"/>
  <path d="m158.75 1538.2c7.2 1.1 18.93-2.7 24.3 0.8-8.11 0.3-16.22-0.2-24.3-0.8z" fill="#acad2a"/>
  <path d="m372.25 1537.8c10.13 0.4 20.26 0.2 30.4 0.1-6.52 1.6-23.72 2.2-30.4-0.1z" fill="#3b003b"/>
  <path d="m213.45 1543.4c-6.62-6.1 3.24-4.2 7.21-4.2 6.01 0.4 12.04 0.8 18.07 1 9.95 5.4 35.12-7.3 37.47 5.7-6.74 14.6-19.51 26.4-28.44 40-19.03-5.8-22.42-28.7-34.31-42.5z" fill="#f8c906"/>
  <path d="m220.66 1539.2c4.77 1 15.68-2.5 18.07 1-6.03-0.2-12.06-0.6-18.07-1z" fill="#745900"/>
  <path d="m238.73 1540.2c9.8 3.2 40.3-7.8 37.47 5.7-2.35-13-27.52-0.3-37.47-5.7z" fill="#ba9f31"/>
  <path d="m291.33 1542.9c4.81-1.5 20.86-2 25.29 0.3-8.43-0.2-16.86-0.2-25.29-0.3z" fill="#3f4000"/>
  <path d="m405.27 1543.2c2.73-1.3 14.18-3.1 17.84-0.2-5.95 0.1-11.9 0-17.84 0.2z" fill="#403000"/>
  <path d="m250.43 1597.2c14.13-17.4 27.05-37.5 40.9-54.3 8.43 0.1 16.86 0.1 25.29 0.3 14.61 1.3 29.28 0.8 43.93 0.7 14.58 19.4 28.68 39.2 42.36 59.2-8.96 17.9-17.77 36.4-28.79 52.9-2.48-0.1-4.94-0.1-7.4 0 8.36 1.2 10.19-7.4 13.39-12.9 6.17-10.9 11.79-22.2 17.56-33.3-0.74-1.8-2.86-1.6-4.41-1.6-6.81 12-13.23 24.1-19.65 36.2-1.35 3.1-4.61 4.7-8.08 3.6-22.82-1-45.43 2.9-68.24 1.4-5.44-4.2-9.59-10-12.41-16.2 4.96 4 7.53 10.2 12.26 14.3 12.39 0.9 24.84 0.9 37.22-0.1 6.16-0.2 12.31-0.6 18.47-0.7 5.7 0.1 11.46 0.6 17.14-0.2 9.12-14.7 17.36-30.6 25.04-46.3-12.64-13.8-29.42-25.3-36.12-43.5-4.27-0.3-8.53-0.4-12.78-0.7-3.46-0.4-6.88-0.7-10.34-0.9-7.89-0.2-15.78-0.2-23.66 0.1-3.12 0-6.18 0.4-9.28 0.4-15.92 6.9-20.6 29-31.88 42.4-13.1 13.1 11.33 22.3 13.93 35.2-4.25-2.4-5.38-8.4-9.67-10.2-3.63 2-4.34 6-2.71 9.5-9.49-10.2-18.69-21.5-22.07-35.3z" fill="#f5f50e"/>
  <path d="m316.62 1543.2c13.56 0.7 32.91-2 43.93 0.7-14.65 0.1-29.32 0.6-43.93-0.7z" fill="#979701"/>
  <path d="m395.8 1543.9c2.77-1.7 6.38-0.6 9.47-0.7-3.19 0.1-6.3 0.6-9.47 0.7z" fill="#927402"/>
  <path d="m405.27 1543.2c5.94-0.2 11.89-0.1 17.84-0.2 3.57-1.1 7.94-0.2 4.91 4-7.36 14.3-15.25 29.4-23.02 42.8-11.76-13.9-23.78-29.2-35.08-44 2.63-0.4 5.24-0.7 7.92-0.8 3.12-0.3 6.31-0.3 9.44-0.6 2.8-0.3 5.68-0.3 8.52-0.5 3.17-0.1 6.28-0.6 9.47-0.7z" fill="#f6c707"/>
  <path d="m492.3 1543.4c13.18 13.6 25.42 32.5 38.63 47.8-5.33 14-13.04 27.2-18.76 41.2-15.13 3.1-30.78 3.5-46 6.3-15.21-11.7-29.12-25-44.13-37 9-17.9 19.56-35 28.92-52.7 13.16 6.8 27.84-3.2 41.34-5.6m-32.46 15.6c-16.47 1.8-16.68 24.6-25.04 35.9-5.66 5.8 4.22 9.4 7.21 13.1 10.92 8.2 18.64 26.8 34.83 19.9 3.96-0.5 9.02 1.2 12.36-0.9 22.69 5.4 20.92-22.1 30.66-35-8.9-12.4-17.7-25.1-26.66-37.4-11.04-3.6-23.05 0.6-33.36 4.4z" fill="#0f0601"/>
  <path d="m377.84 1545c2.66-2 6.41-0.8 9.44-0.6-3.13 0.3-6.32 0.3-9.44 0.6z" fill="#513d00"/>
  <path d="m180.72 1548.6c3.12-0.4 6.26-0.7 9.42-0.6-2.65 1.8-6.39 0.8-9.42 0.6z" fill="#807f00"/>
  <path d="m156.18 1549c4.22-0.3 8.45-0.1 12.69 0-1.16 1.4-11.36 2.5-12.69 0z" fill="#c1c138"/>
  <path d="m459.84 1559c10.31-3.8 22.32-8 33.36-4.4 8.96 12.3 17.76 25 26.66 37.4-9.74 12.9-7.97 40.4-30.66 35-4.14-0.1-8.33-0.1-12.36 0.9-16.19 6.9-23.91-11.7-34.83-19.9-2.99-3.7-12.87-7.3-7.21-13.1 9.45 8.5 18.39 17.5 28 25.7 11.41-0.8 22.86-1.4 34.16-3.2 4.64-5.8 5.46-13.9 9.17-20.4 8.22-12.6-10.11-21.9-14.06-32.9-5.19-13.7-21.61-5.9-32.23-5.1z" fill="#ec0505"/>
  <path d="m302.83 1555.6c3.1 0 6.16-0.4 9.28-0.4-3.12 0-6.19 0.2-9.28 0.4z" fill="#888915"/>
  <path d="m312.11 1555.2c7.88-0.3 15.77-0.3 23.66-0.1 3.43 0.2 6.89 0.7 10.34 0.9 4.24 0.3 8.53 0.3 12.78 0.7 6.7 18.2 23.48 29.7 36.12 43.5-7.68 15.7-15.92 31.6-25.04 46.3-5.72-0.3-11.44-0.2-17.14 0.2-6.16 0.1-12.31 0.5-18.47 0.7-12.4-0.6-24.82-0.5-37.22 0.1-4.73-4.1-7.3-10.3-12.26-14.3-2.6-12.9-27.03-22.1-13.93-35.2 11.28-13.4 15.96-35.5 31.88-42.4 3.09-0.2 6.16-0.4 9.28-0.4m12.2 5.8c-9.4 2.9-25.11-2.3-28.44 9-5.13 12.8-23.07 25.4-17.07 38.9 6.55 9.1 14.08 17.5 19.77 27.3 12.24 8 36.91 0.8 50.3 1.8 8.34-1 18.9-1.7 21.93-11.3 3.42-9.9 21.72-20.2 8.53-30-10.72-11.4-18.48-27-30.83-35.8-4.24-1.5-19.82-1.8-24.19 0.1z" fill="#0f0501"/>
  <path d="m335.77 1555.1c3.46 0.2 6.88 0.5 10.34 0.9-3.45-0.2-6.91-0.7-10.34-0.9z" fill="#898918"/>
  <path d="m346.11 1556c4.25 0.3 8.51 0.4 12.78 0.7-4.25-0.4-8.54-0.4-12.78-0.7z" fill="#393900"/>
  <path d="m459.84 1559c10.62-0.8 27.04-8.6 32.23 5.1 3.95 11 22.28 20.3 14.06 32.9-3.71 6.5-4.53 14.6-9.17 20.4-11.3 1.8-22.75 2.4-34.16 3.2-9.61-8.2-18.55-17.2-28-25.7 8.36-11.3 8.57-34.1 25.04-35.9m-4.32 4.4c-3.35 0.2-6.5 3.9-5.19 7.2-2.23 2.9-4.01 6.1-5.38 9.4-14.66 13.8 8.81 22 15.38 32.8 9.91-1.6 19.92-2.7 29.98-3 2.82-7.9 6.99-15.4 8.52-23.6-4.92-8-10.06-15.9-15.29-23.6-7.88-7.7-19.08-0.7-28.02 0.8z" fill="#f82524"/>
  <path d="m160.39 1558c-0.12-1.7 7.03-1.8 7.56 0h-7.56z" fill="#7b0000"/>
  <path d="m153.12 1564.2c1.14-3 3.86-6 7.27-6.2h7.56c7.69 0.8 16.21-0.3 23.29 2.8 8.35 14.6 19.34 28.1 26.61 43.1-8.6 9.4-9.69 31.7-25.65 29.1-4.55-0.1-9.09 0.2-13.61 0.7-4.44 0-8.87 0.3-13.31 0.3-12.5-11.4-21.46-27.3-33.2-40 0.7-2 2.17-3.6 3.77-5 3.24 14.2 19.41 24.7 27.66 37.6 10.16-1.1 20.56-0.7 30.66-2.1 4.53-8.3 10.66-16.3 13.57-25.3-7.32-12.1-15.17-24.2-23.01-35.9-10.19-1.1-22.3-5-31.61 0.9z" fill="#ec0606"/>
  <path d="m455.52 1563.4c8.94-1.5 20.14-8.5 28.02-0.8 5.23 7.7 10.37 15.6 15.29 23.6-1.53 8.2-5.7 15.7-8.52 23.6-10.06 0.3-20.07 1.4-29.98 3-6.57-10.8-30.04-19-15.38-32.8-6.75 10.4 7.91 15.7 13.45 22.8 7.71 1.8 16.74-0.5 24.71-1.4 2.43-5.7 4.67-11.5 6.51-17.4-3.74-7.7-9.36-14.5-14.82-21-7.03-0.6-15.85-0.3-21.64 4.1-0.94 1.3-1.71 2.8-2.46 4.2l-0.37-0.7c-1.31-3.3 1.84-7 5.19-7.2z" fill="#fc4c4c"/>
  <path d="m324.31 1561c4.37-1.9 19.95-1.6 24.19-0.1-6.12 0.1-12.23 0.1-18.34 0.2-1.95 0-3.9-0.1-5.85-0.1z" fill="#8f1110"/>
  <path d="m153.12 1564.2c9.31-5.9 21.42-2 31.61-0.9 7.84 11.7 15.69 23.8 23.01 35.9-2.91 9-9.04 17-13.57 25.3-10.1 1.4-20.5 1-30.66 2.1-8.25-12.9-24.42-23.4-27.66-37.6 5.29-8.6 11.28-16.7 17.27-24.8m-4.04 11.1c-4.92 3.7-7.05 10.8-10.96 15.6 7.12 9.5 14.78 18.5 22.2 27.7 8.57-1.1 17.32-0.1 25.82-1.1 4.21-6.8 8.16-13.9 12.75-20.5-5.92-10.4-12.94-20.4-19.79-30.2-10.14-2.2-27.39-5.9-30.02 8.5z" fill="#f92525"/>
  <path d="m295.87 1570c3.33-11.3 19.04-6.1 28.44-9 1.95 0 3.9 0.1 5.85 0.1-4.93 0.6-9.91 1.2-14.6 2.9-6.56 1.6-15.4-0.4-19.69 6z" fill="#cc0d0c"/>
  <path d="m330.16 1561.1c6.11-0.1 12.22-0.1 18.34-0.2 12.35 8.8 20.11 24.4 30.83 35.8 13.19 9.8-5.11 20.1-8.53 30-3.03 9.6-13.59 10.3-21.93 11.3-16.56-1.7-34.33 3.2-50.3-1.8-5.69-9.8-13.22-18.2-19.77-27.3 0.9-1.5 1.89-3 3.19-4.2 7.39 7.8 11.61 18.2 18.94 26 17.94 0.2 36.49 1.9 54.06-2.5 6.44-8.6 12.23-17.8 17.75-27.1-10.41-11.7-19.72-24.4-29.98-36.3-8.82-2.4-18.25 1.2-27.2-0.8 4.69-1.7 9.67-2.3 14.6-2.9z" fill="#f10404"/>
  <path d="m453.16 1567.1c5.79-4.4 14.61-4.7 21.64-4.1 5.46 6.5 11.08 13.3 14.82 21-1.84 5.9-4.08 11.7-6.51 17.4-7.97 0.9-17 3.2-24.71 1.4-5.54-7.1-20.2-12.4-13.45-22.8 1.37-3.3 3.15-6.5 5.38-9.4l0.37 0.7c-0.52 2.3-1.06 4.5-1.84 6.7-9.56 12.2 15.67 20.7 24.53 16.9 13.56-13-2.13-38-20.23-27.8z" fill="#fc7171"/>
  <path d="m295.87 1570c4.29-6.4 13.13-4.4 19.69-6 8.95 2 18.38-1.6 27.2 0.8 10.26 11.9 19.57 24.6 29.98 36.3-5.52 9.3-11.31 18.5-17.75 27.1-17.57 4.4-36.12 2.7-54.06 2.5-7.33-7.8-11.55-18.2-18.94-26-1.3 1.2-2.29 2.7-3.19 4.2-6-13.5 11.94-26.1 17.07-38.9m29.5-2.4c-9.5 1.9-25.46-4.1-29.61 8.3-3.4 7.7-10.46 13.7-12.66 21.9 5.7 8.4 12.57 16.1 17.52 25.1 15.49 0.1 31.34 1.4 46.49-2.6 4.03-7.3 9.73-14.6 12.56-22-10.47-10.5-17.08-32.4-34.3-30.7z" fill="#fa2424"/>
  <path d="m149.08 1575.3c2.63-14.4 19.88-10.7 30.02-8.5 6.85 9.8 13.87 19.8 19.79 30.2-4.59 6.6-8.54 13.7-12.75 20.5-8.5 1-17.25 0-25.82 1.1-7.42-9.2-15.08-18.2-22.2-27.7 3.91-4.8 6.04-11.9 10.96-15.6-0.12 0.6-0.34 1.7-0.45 2.3-0.91 1.8-1.81 3.6-2.79 5.3-10.33 7.6 4.72 14.5 7.95 22.1 4.63 9.5 16.7 5.5 25.23 4.9 5.86-8.5 14.78-18.6 3.21-27-4.56-13.3-24.63-22.3-33.15-7.6z" fill="#fc4b4b"/>
  <path d="m453.16 1567.1c18.1-10.2 33.79 14.8 20.23 27.8-8.86 3.8-34.09-4.7-24.53-16.9 2.8 7.6 9.63 12.2 17.68 9.6 8.33-5.5 2.29-22.3-7.92-19.1-5.47 0-7.05 5.8-9.76 9.5 0.78-2.2 1.32-4.4 1.84-6.7 0.75-1.4 1.52-2.9 2.46-4.2z" fill="#fc9696"/>
  <path d="m325.37 1567.6c17.22-1.7 23.83 20.2 34.3 30.7-2.83 7.4-8.53 14.7-12.56 22-15.15 4-31 2.7-46.49 2.6-4.95-9-11.82-16.7-17.52-25.1 2.2-8.2 9.26-14.2 12.66-21.9 4.15-12.4 20.11-6.4 29.61-8.3m-2.13 4c-8.37 1.8-21.29-3.5-25.43 6.4-3.29 5.6-7.93 10.6-9.72 17 3.56 7.3 9.23 13.4 13.83 20.1 17.77 0.5 40.68 3.3 45.74-19.3-8.13-7.6-12.44-23.4-24.42-24.2z" fill="#fb4c4c"/>
  <path d="m149.08 1575.3c8.52-14.7 28.59-5.7 33.15 7.6 11.57 8.4 2.65 18.5-3.21 27-8.53 0.6-20.6 4.6-25.23-4.9-3.23-7.6-18.28-14.5-7.95-22.1-2.7 11.8 16.22 27.4 26.98 18 13.99-13.2-10.31-42.1-24.19-23.3 0.11-0.6 0.33-1.7 0.45-2.3z" fill="#fc7171"/>
  <path d="m458.62 1568.5c10.21-3.2 16.25 13.6 7.92 19.1-8.05 2.6-14.88-2-17.68-9.6 2.71-3.7 4.29-9.5 9.76-9.5z" fill="#fbbab9"/>
  <path d="m323.24 1571.6c11.98 0.8 16.29 16.6 24.42 24.2-5.06 22.6-27.97 19.8-45.74 19.3-4.6-6.7-10.27-12.8-13.83-20.1 1.79-6.4 6.43-11.4 9.72-17 4.14-9.9 17.06-4.6 25.43-6.4m-12.7 3.9c-11.4-2.6-13.33 8.9-18.77 16 2.76 20.7 39.08 24 43.1 1.5-7.19-7.7-10.21-23.3-24.33-17.5z" fill="#fc7272"/>
  <path d="m148.63 1577.6c13.88-18.8 38.18 10.1 24.19 23.3-10.76 9.4-29.68-6.2-26.98-18 0.98-1.7 1.88-3.5 2.79-5.3m5.15-1.3c-14.77 6.4 0.42 25.1 11.82 17.5 7.48-6.8-2.33-22-11.82-17.5z" fill="#fb9696"/>
  <path d="m123.92 1590.6c-1.34-1.1-2.29-14.3 0.1-15.2-0.08 5-0.1 10-0.1 15.2z" fill="#555402"/>
  <path d="m310.54 1575.5c14.12-5.8 17.14 9.8 24.33 17.5-4.02 22.5-40.34 19.2-43.1-1.5 5.44-7.1 7.37-18.6 18.77-16m-1.96 3.9c-6.83-1.4-11.46 5.7-12.22 11.2 3.05 12.5 24.54 12.9 27.48 0.4-4.41-4.7-6.85-15-15.26-11.6z" fill="#fc9696"/>
  <path d="m153.78 1576.3c9.49-4.5 19.3 10.7 11.82 17.5-11.4 7.6-26.59-11.1-11.82-17.5z" fill="#fbbbba"/>
  <path d="m308.58 1579.4c8.41-3.4 10.85 6.9 15.26 11.6-2.94 12.5-24.43 12.1-27.48-0.4 0.76-5.5 5.39-12.6 12.22-11.2z" fill="#fbbaba"/>
  <path d="m122.1 1609.2c-0.81 1.5-2.87-10.5-0.34-9.8 0.15 3.3 0.22 6.5 0.34 9.8z" fill="#404201"/>
  <path d="m243.13 1608.3c14.32 17.1 20.56 43.3 36.17 58.7 3.68 0 7.36 0 11.05-0.1 8.98 8.7 22.33 0.1 33.46 2 3.06-0.2 6.22 0 9.27-0.5 2.7-0.6 5.47-0.9 8.23-1.1 2.47-0.1 4.95-0.2 7.43-0.3 2.79-0.3 5.65-0.3 8.46-0.6 4.88-0.6 9.79-1.4 14.73-1.4 2.66-0.2 5.45 0.3 8.04-0.6 10.35-15.9 17.85-33.7 27.29-50.2 2.4-3.5 5.03 2.3 6.88 3.6 11.93 14.5 26.05 26.8 38.24 41 3.15 1.7 7.09 0.9 10.6 1.3 3.32-0.1 6.72 0.1 10.06-0.1 14.21 0.9 28.23-2.8 42.42-1.9 1.44 4.2-6.72 0.5-8.79 3.5-2.09 0.5-4.17 1-6.05 2.1-13.58 3.4-27.57 5.4-41.46 7.3-2.82 0-5.55 0.3-8.32 0.7-4.55 0.5-9.11 0.9-13.68 1.3-2.82 0.1-5.57 0.5-8.37 0.6-1.64 0.1-4.91 0.3-6.54 0.4-2.86 0-5.64 0.4-8.46 0.6-19.21 2.7-38.65 3-57.88 5.4-2.63-0.1-5.25-0.1-7.85 0h-35.72c-21.75-4.8-50.86-0.6-74.91-2-23.21-3.5-48.49-6.9-72.77-8.1-0.78-4.3 5.74-7.9 9.45-10.1l0.92 0.1c9.02 1.5 18.17 1.4 27.25 0.5 3.5-1 8.72 1.2 11.61-1.3 10.23-16.7 19.79-33.7 29.24-50.8z" fill="#f9c905"/>
  <path d="m393.26 1608.2c1.55 0 3.67-0.2 4.41 1.6-5.77 11.1-11.39 22.4-17.56 33.3-3.2 5.5-5.03 14.1-13.39 12.9l-0.91 0.1c-6.44-0.4-12.78 0.8-19.11 1.8-3.59-0.1-7.12 0-10.69 0.1-9.5-0.1-19.02 0.2-28.42 1.7-5.48 0.1-10.94 0.3-16.41 0.4-1.21 0.1-2.31-0.2-3.29-0.8-1.71-1.4-3.39-2.9-5.05-4.3-5.75-6.5-9.37-13.9-10.34-22.5-1.63-3.5-0.92-7.5 2.71-9.5 4.29 1.8 5.42 7.8 9.67 10.2 2.82 6.2 6.97 12 12.41 16.2 22.81 1.5 45.42-2.4 68.24-1.4 3.47 1.1 6.73-0.5 8.08-3.6 6.42-12.1 12.84-24.2 19.65-36.2z" fill="#fbfb05"/>
  <path d="m508.39 1656.5c20.06-2.8 22.7-31.9 36.55-44.5 5.04 13.4 11.76 26.6 13.95 40.7-17.43 2.6-34.54 8.2-52.22 8.9 2.07-3 10.23 0.7 8.79-3.5-14.19-0.9-28.21 2.8-42.42 1.9l-0.36-0.8c2.82-0.5 5.73-0.6 8.6-0.8 5.55-0.4 11.08-1.2 16.66-1.4 3.46-0.1 6.98-0.2 10.45-0.5z" fill="#f4c60a"/>
  <path d="m117.12 1617.3c16.73 11.7 24.16 42.5 48.84 40.9 2.75 0.1 5.53 0.5 8.3 0.7l-0.15 0.9c-3.71 2.2-10.23 5.8-9.45 10.1 24.28 1.2 49.56 4.6 72.77 8.1-4.04 0-8.07-0.1-12.1 0-38.09-5.6-77.31-5.3-114.21-17.1 2.11-14.4 1.76-30.1 6-43.6z" fill="#f4c60a"/>
  <path d="m476.84 1627.9c4.03-1 8.22-1 12.36-0.9-3.34 2.1-8.4 0.4-12.36 0.9z" fill="#850c0e"/>
  <path d="m178.59 1633.7c4.52-0.5 9.06-0.8 13.61-0.7-3.39 2.4-9.21 0.7-13.61 0.7z" fill="#880b0c"/>
  <path d="m165.28 1634c4.44 0 8.87-0.3 13.31-0.3-0.76 1.4-11.78 2.8-13.31 0.3z" fill="#6a0101"/>
  <path d="m298.57 1636.2c15.97 5 33.74 0.1 50.3 1.8-13.39-1-38.06 6.2-50.3-1.8z" fill="#a80807"/>
  <path d="m352.83 1646.7c5.7-0.4 11.42-0.5 17.14-0.2-5.68 0.8-11.44 0.3-17.14 0.2z" fill="#898b16"/>
  <path d="m297.14 1647.5c12.4-0.6 24.82-0.7 37.22-0.1-12.38 1-24.83 1-37.22 0.1z" fill="#4c4c00"/>
  <path d="m159.93 1650c4.76 0 9.51 0.4 14.27 0.8-4.21-1-11.27 2.2-14.27-0.8z" fill="#4b4c00"/>
  <path d="m282.84 1655c1.66 1.4 3.34 2.9 5.05 4.3-2.42-0.5-4.45-1.8-5.05-4.3z" fill="#dee234"/>
  <path d="m346.7 1657.9c6.33-1 12.67-2.2 19.11-1.8l0.66 0.6c-2.95 0.3-5.84 0.8-8.78 0.9-3.36 0.2-6.68 0.5-10.03 0.3h-0.96z" fill="#eeed3d"/>
  <path d="m365.81 1656.1l0.91-0.1c2.46-0.1 4.92-0.1 7.4 0 2.62 1.5-6.14 1.2-7.65 0.7l-0.66-0.6z" fill="#a2a309"/>
  <path d="m497.94 1657c2.22-2.7 7.26-0.6 10.45-0.5-3.47 0.3-6.99 0.4-10.45 0.5z" fill="#594402"/>
  <path d="m357.69 1657.6c2.94-0.1 5.83-0.6 8.78-0.9-2.4 2.3-5.88 1-8.78 0.9z" fill="#4d4e00"/>
  <path d="m165.96 1658.2c2.71 0.1 5.97-1 8.3 0.7-2.77-0.2-5.55-0.6-8.3-0.7z" fill="#655003"/>
  <path d="m307.59 1659.7c9.4-1.5 18.92-1.8 28.42-1.7l0.16 0.9-0.97 0.1c-4.19 0.2-8.37 0.4-12.55 0.7-4.04 0.2-8.08 0.4-12.11 0.3-0.74-0.1-2.22-0.2-2.95-0.3z" fill="#e7e737"/>
  <path d="m336.01 1658c3.57-0.1 7.1-0.2 10.69-0.1h0.96c-0.63 2.4-8.31 0.7-11.49 1l-0.16-0.9z" fill="#989903"/>
  <path d="m472.68 1659.2c2.19-2.4 5.82-0.8 8.6-0.8-2.87 0.2-5.78 0.3-8.6 0.8z" fill="#655003"/>
  <path d="m174.26 1658.9c13.21 0.1 26.42-0.1 39.63 0.2-2.89 2.5-8.11 0.3-11.61 1.3-9.09-0.2-18.17-0.4-27.25-0.5l-0.92-0.1 0.15-0.9z" fill="#ba9912"/>
  <path d="m322.65 1659.7c4.18-0.3 8.36-0.5 12.55-0.7-3.3 2.3-8.55 0.3-12.55 0.7z" fill="#434500"/>
  <path d="m462.98 1660.1c0.96-3.1 6.93-0.7 9.7-0.9l0.36 0.8c-3.34 0.2-6.74 0-10.06 0.1z" fill="#b49310"/>
  <path d="m175.03 1659.9c9.08 0.1 18.16 0.3 27.25 0.5-9.08 0.9-18.23 1-27.25-0.5z" fill="#f8ca0d"/>
  <path d="m291.18 1660.1c5.47-0.1 10.93-0.3 16.41-0.4 0.73 0.1 2.21 0.2 2.95 0.3-2.23 1.4-16.09 2.1-19.36 0.1z" fill="#7e8100"/>
  <path d="m562.38 1660.5c9.38 18.3-28.39 30.1-37.7 11.3 12.13-4.6 25.2-7.4 37.7-11.3z" fill="#f3f30e"/>
  <path d="m500.62 1663.7c1.88-1.1 3.96-1.6 6.05-2.1-0.47 2.5-4.1 1.8-6.05 2.1z" fill="#d2b128"/>
  <path d="m371.93 1665c1.9-2.1 5.49-0.7 8.04-0.6-2.59 0.9-5.38 0.4-8.04 0.6z" fill="#97801c"/>
  <path d="m279.3 1667c0.11-1.7 11.88-2 11.05-0.1-3.69 0.1-7.37 0.1-11.05 0.1z" fill="#a68d29"/>
  <path d="m348.74 1667c2.2-2.1 5.73-0.6 8.46-0.6-2.81 0.3-5.67 0.3-8.46 0.6z" fill="#af942a"/>
  <path d="m333.08 1668.4c1.46-2.6 5.66-1 8.23-1.1-2.76 0.2-5.53 0.5-8.23 1.1z" fill="#7b5e00"/>
  <path d="m103.02 1668c7.13 1.3 14.07 3.4 21.08 5.2 2.99 0.8 6.08 1 9.05 0.1 8.48-1.3 9.62 16.3-0.01 15.9-14.44 10.3-27.28-8.6-30.12-21.2z" fill="#f5f50c"/>
  <path d="m323.81 1668.9c2.77-1.7 6.25-0.8 9.27-0.5-3.05 0.5-6.21 0.3-9.27 0.5z" fill="#b29829"/>
  <path d="m450.84 1671.7c2.77-0.4 5.5-0.7 8.32-0.7-2.08 2.1-5.66 0.6-8.32 0.7z" fill="#685504"/>
  <path d="m570.28 1676.6c1.07-16.4 2.63 11.4 1.55 15.5-0.51-5.2-1.06-10.4-1.55-15.5z" fill="#ae8f13"/>
  <path d="m124.1 1673.2c3.01-0.1 6.04 0.1 9.05 0.1-2.97 0.9-6.06 0.7-9.05-0.1z" fill="#afad09"/>
  <path d="m428.79 1673.6c2.8-0.1 5.55-0.5 8.37-0.6-1.99 2.1-5.72 0.6-8.37 0.6z" fill="#4f3c00"/>
  <path d="m501.73 1673.5c12.97-6.7 13.9 11.8 2.53 12.8-6.69 9.1-25.67 7.5-27.33-5.1 5.98-7.4 16.5-5.1 24.8-7.7z" fill="#f5f50d"/>
  <path d="m413.79 1674.6c2.82-0.2 5.6-0.6 8.46-0.6-2.17 2.1-5.74 0.6-8.46 0.6z" fill="#987a02"/>
  <path d="m153.41 1677.3c12.25-0.4 24.24 3 36.44 3.7 5.02 28.4-51.49 20.1-36.44-3.7z" fill="#f5f60b"/>
  <path d="m547.88 1691.9c10.7 0.9 16.08-8.6 22.4-15.3 0.49 5.1 1.04 10.3 1.55 15.5 0.84 5-5.57 7.8-9.56 9.4-26.42 3-51.92 11.4-78.32 14.5-5.41 0.2-10.81 0.4-16.2 0.7-2.87-0.1-5.66 0.1-8.49 0.3-2.88 0.1-5.69 0.4-8.54 0.6-3.55 0.1-7.06 0.5-10.61 0.4-3.48-0.1-6.94-0.1-10.35 0.6-15.89 2.5-31.92 3.9-47.91 5.4-9.08-0.3-18.16-0.1-27.2 0.6-5.48 0.4-10.97 0.3-16.45 0.4-4.19 0.1-8.36 0.5-12.54 0.7-3.92 0.1-7.83 0.1-11.74 0.3-12.98 0-25.96-0.1-38.93 0-4.93-0.2-9.83-0.1-14.75-0.2-5.45-0.4-10.9-0.8-16.35-0.9-4.89-0.1-9.77 0.2-14.65-0.1-5.34-0.4-10.69-0.8-16.03-1.1-4.13-0.3-8.24-0.5-12.37-0.6-29.19-2.5-57.61-10.9-86.58-15.3-7.76-2.8-18.07-0.4-24.05-6.9 2.53-7.6 3.19-15.8 6.55-23.1 7.71 19 30.32 28.3 48.36 17.4 10.99 14.6 35.27 13 50.87 3.9 11.35 8.5 32.44 18.1 44 4.8 8.85-12.1 17.3 4.7 25.96 7.5 6 0.5 12.04 0.8 18.08 0.7 9.75 0.5 14.95-11.6 22.7-14.5 6.91 17.9 26.99 21.6 42.21 12.5 8.93-7.6 19.27 0.6 28.49 3.5 7.8 4.6 16.07-2.3 24.28-1.8 6.95 0.2 7.12-9.8 13.27-10.8 7.37 1.8 14.34 5.4 21.99 6.3 4.57 0 9.65 2.2 13.99-0.2 8.61-1.3 12.68-9.2 19.04-13 16.26 9.1 41.66 11.8 50.46-8.8 8.98-4.2 17.6 11.1 27.42 6.6z" fill="#f6c808"/>
  <path d="m225.33 1678c4.03-0.1 8.06 0 12.1 0l-0.59 0.8c-2.28-0.7-11.79 2.3-11.51-0.8z" fill="#725900"/>
  <path d="m237.43 1678c24.05 1.4 53.16-2.8 74.91 2-4.34-0.1-8.65-0.2-12.97-0.2-18.11-1.5-36.3-0.6-54.44-0.8-2.71 0-5.41 0-8.09-0.2l0.59-0.8z" fill="#f3ca20"/>
  <path d="m244.93 1679c18.14 0.2 36.33-0.7 54.44 0.8-17.52-0.7-38.56 2.1-54.44-0.8z" fill="#aa9027"/>
  <path d="m299.37 1679.8c4.32 0 8.63 0.1 12.97 0.2l-0.43 0.9c-2.97-0.7-12.1 1.9-12.54-1.1z" fill="#664c00"/>
  <path d="m312.34 1680h35.72l-0.05 1c-12.03-0.1-24.08 0.3-36.1-0.1l0.43-0.9z" fill="#edc831"/>
  <path d="m348.06 1680c2.6-0.1 5.22-0.1 7.85 0-0.68 2.3-5.56 0.7-7.9 1l0.05-1z" fill="#694e00"/>
  <path d="m451.68 1680.6c3.57 0 14.83-2.6 9.31 4.5-4.51 17.1-40.15 18.8-41.7 0.2 10.7-2.1 21.61-3 32.39-4.7z" fill="#f5f50d"/>
  <path d="m202.64 1695.2c0.19-4-5.54-15 4.05-10.9 3.16 0.1 6.35 0.7 9.54 0.7 3.51 0 7.04 0 10.55 0.2 3.04 0.1 6.13 0.6 9.19 0.8 3.33 0.8 5.43 2.7 4.3 6.8-8.55 16.3-24.59 6.7-37.63 2.4z" fill="#f8f80b"/>
  <path d="m206.69 1684.3c2.93 0.3 7.14-1.5 9.54 0.7-3.19 0-6.38-0.6-9.54-0.7z" fill="#bec134"/>
  <path d="m226.78 1685.2c2.71 0.5 7.22-1.4 9.19 0.8-3.06-0.2-6.15-0.7-9.19-0.8z" fill="#848400"/>
  <path d="m366.97 1686c5.31-2.7 15.29-0.4 22.36-0.7-7.44 0.5-14.91 0.9-22.36 0.7z" fill="#858400"/>
  <path d="m389.33 1685.3c14.69-5.5 18.1 4.9 12.74 15.7-12.06 4.3-38.57 11.3-39.95-7.4-0.03-2.6-0.03-5.1-0.02-7.5 1.61-0.2 3.24-0.1 4.87-0.1 7.45 0.2 14.92-0.2 22.36-0.7z" fill="#f8f80a"/>
  <path d="m235.97 1686c4.7-1.9 6.89 5.1 4.3 6.8 1.13-4.1-0.97-6-4.3-6.8z" fill="#c8c843"/>
  <path d="m254.81 1693.6c-2.73-1.8-1.12-11.9 5.28-7.7l-0.18 0.9c-4.77-0.8-5.54 2.5-5.1 6.8z" fill="#c2c130"/>
  <path d="m260.09 1685.9c2 0.6 8.45-1.2 8.57 1.3-2.94-0.2-5.83-0.2-8.75-0.4l0.18-0.9z" fill="#3f4000"/>
  <path d="m321.63 1686.4c9.8-0.1 19.53 1.3 29.21 2.7-0.28 17.3-29.11 23.8-35.94 6.9-4.92-4.6 2.95-7.4 6.73-9.6z" fill="#f5f50d"/>
  <path d="m362.12 1693.6c-1.78 0.1-1.94-7.1-0.02-7.5-0.01 2.4-0.01 4.9 0.02 7.5z" fill="#404201"/>
  <path d="m254.81 1693.6c-0.44-4.3 0.33-7.6 5.1-6.8 2.92 0.2 5.81 0.2 8.75 0.4 4.51 0.2 9.04 0.7 13.57 0.8 2.84-0.1 5.74-0.2 8.6 0.1 2.23 0.4 4.47 0.9 6.72 1.5-6.74 17.4-32.85 19.2-42.74 4z" fill="#f9f90c"/>
  <path d="m268.66 1687.2c3.98 0.9 10.65-2.2 13.57 0.8-4.53-0.1-9.06-0.6-13.57-0.8z" fill="#959402"/>
  <path d="m290.83 1688.1c1.98-0.5 8.56 0 6.72 1.5-2.25-0.6-4.49-1.1-6.72-1.5z" fill="#565506"/>
  <path d="m436.97 1707.3c4.64-0.1 9.32-0.3 13.99-0.2-4.34 2.4-9.42 0.2-13.99 0.2z" fill="#bd9b14"/>
  <path d="m265.95 1711.4c5.2 0.9 14.39-2.8 18.08 0.7-6.04 0.1-12.08-0.2-18.08-0.7z" fill="#513900"/>
  <path d="m467.75 1716.7c5.39-0.3 10.79-0.5 16.2-0.7-3.53 2.7-11.34 0-16.2 0.7z" fill="#3f2b00"/>
  <path d="m450.72 1717.6c2.85-0.2 5.66-0.5 8.54-0.6-2.14 2.2-5.8 0.6-8.54 0.6z" fill="#77620c"/>
  <path d="m429.76 1718.6c3.41-0.7 6.87-0.7 10.35-0.6-2.54 2.3-7.1 0.6-10.35 0.6z" fill="#b79513"/>
  <path d="m200.84 1723.1c4.13 0.1 8.24 0.3 12.37 0.6-3.59-1.1-9.65 2.3-12.37-0.6z" fill="#ccae38"/>
  <path d="m213.21 1723.7c5.34 0.3 10.69 0.7 16.03 1.1-4.66-0.8-13.17 1.8-16.03-1.1z" fill="#866a00"/>
  <path d="m354.65 1724.6c9.04-0.7 18.12-0.9 27.2-0.6-6.53 2.6-18.59 0.4-27.2 0.6z" fill="#866a00"/>
  <path d="m243.89 1724.9c5.45 0.1 10.9 0.5 16.35 0.9h-0.98c-4.55-0.9-12.16 2.2-15.37-0.9z" fill="#bda131"/>
  <path d="m325.66 1725.7c4.18-0.2 8.35-0.6 12.54-0.7-3.56 1.2-7.41 1.4-11.55 0.8l-0.99-0.1z" fill="#bea330"/>
  <path d="m259.26 1725.8h0.98c4.92 0.1 9.82 0 14.75 0.2l0.02 1c-4.35-0.7-13.79 1.5-15.75-1.2z" fill="#745a00"/>
  <path d="m274.99 1726c12.97-0.1 25.95 0 38.93 0l0.1 1c-13 0-26.02 0.2-39.01 0l-0.02-1z" fill="#ecc82e"/>
  <path d="m313.92 1726c3.91-0.2 7.82-0.2 11.74-0.3l0.99 0.1c-0.92 2.1-8.79 1.1-12.63 1.2l-0.1-1z" fill="#755b01"/>
  <path d="m190.81 1727.2c2.79 0.2 5.56 0.3 8.36 0.6-2.78-0.2-5.59-0.6-8.36-0.6z" fill="#404140"/>
  <path d="m218.77 1729.2c2.79 0.2 5.56 0.3 8.36 0.6-2.78-0.2-5.59-0.6-8.36-0.6z" fill="#535353"/>
  <path d="m265.93 1732.2c8.55-0.8 17.14 0.1 25.68 0.8h-25.05l-0.63-0.8z" fill="#242424"/>
  <path d="m340.25 1733c11.79-2.3 23.95-0.7 35.87-0.8l-0.62 0.8h-35.25z" fill="#242424"/>
 </g>
</svg>
