<?xml version="1.0" encoding="UTF-8"?>
<svg width="1792pt" height="727pt" version="1.1" viewBox="0 0 1792 727" xmlns="http://www.w3.org/2000/svg">
 <defs>
  <filter id="a" color-interpolation-filters="sRGB">
   <feColorMatrix values="1 0 0 0 0 0 1 0 0 0 0 0 1 0 0 0 0 0 1000 -500 "/>
  </filter>
 </defs>
 <g filter="url(#a)">
  <path d="m31.44 0h8.19c14.64 1.06 26.35 11.38 34.59 22.78 34.41 38.28 54.9 86.3 85.82 127.17 6.76 7.53 8.71 17.96 15.68 25.32 27.01 30.37 48.72 65.49 80.2 91.65-2.06 1.71-4.09 3.45-6.17 5.14-27.58-29.85-57.96-57.69-78.78-93.02-42.18-51.68-66.98-116.13-114.87-163.18-12.33-7.74-29-10.36-39.93 1.31-12.89 23.12-5.37 52.17 8.85 72.86 6.1 9.36 5.08 21.67 12.85 30.13 8.07 10.41 10.43 23.7 17.1 34.87 36.7 58.41 74.92 116.31 121.48 167.48 4.77 3.87 7.14 9.55 10.48 14.52-2.86-1.49-4.67 1.15-6.31 3.11-45.78-51.8-86.44-107.9-123.54-166.21-19.24-42.7-47.7-81.89-57.08-128.41v-9.01c1.48-18.27 15.27-29.87 31.44-36.51z" fill="#0b0804"/>
  <path d="m16.17 17.17c10.93-11.67 27.6-9.05 39.93-1.31 47.89 47.05 72.69 111.5 114.87 163.18 20.82 35.33 51.2 63.17 78.78 93.02 4.22 5.29 17.39 12.09 6.56 18.18-9.11 4.6-11.44 19-21.33 20.69-6.35-0.17-12.67-0.68-18.99-1.08-1.1-0.31-2.18-0.66-3.24-1.06 4.16-7.29 8.54-14.49 13.91-20.96-42.65-56.71-89.05-111.37-124.05-173.41-13.24-18.12-26.13-36.5-39.48-54.51-4.92-6.65-17.12-12.87-23.9-5.65 5.97 34.24 21.29 65.75 39.33 95.18 34.62 63.05 82.21 118.19 133.22 168.51 1.36 1.24 2.8 2.45 4.44 3.32 19.57 1.6 39.25 0.52 58.87 0.56 28.44-0.34 57.07 1.41 85.4-0.63l0.98-0.19c83.59-0.78 167.34 1.52 250.84-1.15l0.99-0.03c60.33-0.2 120.75 1.25 181.03-0.72l0.99-0.03c60.6-0.31 121.2 0.22 181.8-0.27 60.38 0.35 120.68 0.25 181.08 0.05 141.9 0.58 284.3-0.18 426.4 0.41 5.1 0.49 11.3 0.76 14.7-4.18 10.2-11.16 21.9-20.75 32.2-31.75 6.1 0.61 14.2-1.36 19.3 1.33-20.1 18.52-36 41.39-56.5 59.67-4.8 4.36-9.2 10.61-16.3 10.86-169.9-0.53-339.8 0.06-509.7-0.29-29.6-1.96-59.4-0.53-89.06-0.81l-0.99-0.06c-29.3-2.24-58.78-0.67-88.15-0.85-79.4-0.81-158.85 0.67-238.23-0.73-1.7-2.9-3.83 0.09-5.83 1.06-33.25-1.17-66.54-0.13-99.8-0.6l-0.99-0.04c-30.51-1.83-61.15-0.72-91.7-0.58-2.49-0.03-4.96-0.07-7.41-0.14-3.54-6.13-5.98 1.46-10.94 0.82-0.61-0.29-1.84-0.87-2.45-1.16-41.9-1.44-84.06-1.28-125.96-0.05-0.73 0.04-2.18 0.13-2.91 0.17-29.59-1.93-59.36-0.79-89.01-0.65-11.74 2.91-18.58-9.62-27.94-14.26-3.34-4.97-5.71-10.65-10.48-14.52-46.56-51.17-84.78-109.07-121.48-167.48-6.67-11.17-9.03-24.46-17.1-34.87-7.77-8.46-6.75-20.77-12.85-30.13-14.22-20.69-21.74-49.74-8.85-72.86z" fill="#fbca03"/>
  <path d="m1740.1 35.12c7.7-11.33 22.3-17.46 35.2-11.78 7.4 6.7 12.2 15.4 16.7 24.1v5.22c-8.2 40.83-31.3 77.04-49 114.34-16.6 37.63-44.8 68.17-65.9 103.05-16.8 19.43-35.2 37.51-51.9 57-3.1-0.75-6-1.35-9.1-1.16 18.8-23.98 42.7-43.7 59.3-69.45 17.1-27.03 39.7-50.4 53.6-79.4 18.4-35.88 36.7-71.88 51.9-109.28 7.1-13.44-1.6-28.87-12.4-36.99-3.4-1.37-6.8-0.91-10.1 0.1-5.7 2.43-10.9 6.13-14.8 10.83-48.1 76.18-102.4 148.44-162.6 215.31-2.4-0.66-4.5-1.31-6.7-1.92 31.5-37.58 67.4-72.23 91.8-114.99 24.9-34.79 49.7-69.73 74-104.98z" fill="#0a0804"/>
  <path d="m1758.4 30.87c3.3-1.01 6.7-1.47 10.1-0.1-3.5-0.05-6.7-0.11-10.1 0.1z" fill="#472f00"/>
  <path d="m1743.6 41.7c3.9-4.7 9.1-8.4 14.8-10.83 3.4-0.21 6.6-0.15 10.1-0.1 10.8 8.12 19.5 23.55 12.4 36.99-15.2 37.4-33.5 73.4-51.9 109.28-13.9 29-36.5 52.37-53.6 79.4-16.6 25.75-40.5 45.47-59.3 69.45-13.1 9.25-21.4 28.16-38.1 30.23v-0.92c7.1-0.25 11.5-6.5 16.3-10.86 20.5-18.28 36.4-41.15 56.5-59.67-5.1-2.69-13.2-0.72-19.3-1.33-10.3 11-22 20.59-32.2 31.75-3.4 4.94-9.6 4.67-14.7 4.18-142.1-0.59-284.5 0.17-426.4-0.41l0.8-0.51c144.4-1.35 288.9 0.93 433.2-1.13 15.5-12.39 31.3-26.77 42.9-43.33 39.8-56.06 79.9-112.26 114.3-171.82 5-9.57 1.1-20.32-9.4-22.85-32.4 31.66-46.3 76.52-73.8 111.97-19.3 26.44-39.3 52.31-59.7 77.88-11.2 11.27-21.1 24.28-34.3 33.21-8.6 0.55-15.7-7.04-22.2-12.16 10.9-10.5 22-20.95 31-33.11 60.2-66.87 114.5-139.13 162.6-215.31m-110.7 157.6c-25.1 30.88-49.9 62.39-78.8 89.93 3.8 6.18 14.1 15.76 21.3 8.27 31-28.43 56-62.83 80.5-96.65-4.7-4.38-16.3-1.02-23-1.55z" fill="#f6c708"/>
  <path d="m39.23 54.26c6.78-7.22 18.98-1 23.9 5.65 13.35 18.01 26.24 36.39 39.48 54.51 35 62.04 81.4 116.7 124.05 173.41-5.37 6.47-9.75 13.67-13.91 20.96-4.18 2.18-3.61 5.89-0.97 9.16-51.01-50.32-98.6-105.46-133.22-168.51-18.04-29.43-33.36-60.94-39.33-95.18m11.92 9.62c12.69 52.06 42.57 99.12 73.98 141.99 22.04 36.1 53.36 64.46 81.95 95.11 3.21-3.98 4.6-9.34 6.78-13.97-38.45-48.7-76.01-98.32-108.82-151.06-14.02-26.86-33.72-49.77-53.89-72.07z" fill="#0b0804"/>
  <path d="m1740 79.22c10.5 2.53 14.4 13.28 9.4 22.85-34.4 59.56-74.5 115.76-114.3 171.82-3.5-1.1-7.1-1.67-10.7-1.9 33.3-48.8 72-94.11 100.5-146.07 5.5-11.47 16.5-21.59 15.9-35.08-42 59.81-74.8 127.61-126.6 180.16-2.7-0.54-5.3-1.01-7.7-1.93 20.4-25.57 40.4-51.44 59.7-77.88 27.5-35.45 41.4-80.31 73.8-111.97z" fill="#0a0804"/>
  <path d="m1632.9 199.3c6.7 0.53 18.3-2.83 23 1.55-24.5 33.82-49.5 68.22-80.5 96.65-7.2 7.49-17.5-2.09-21.3-8.27 28.9-27.54 53.7-59.05 78.8-89.93z" fill="#fccb02"/>
  <path d="m1574.3 255.09c2.2 0.61 4.3 1.26 6.7 1.92-9 12.16-20.1 22.61-31 33.11 6.5 5.12 13.6 12.71 22.2 12.16 13.2-8.93 23.1-21.94 34.3-33.21 2.4 0.92 5 1.39 7.7 1.93-10.1 12.49-21.4 23.98-32.2 35.83 19.9-0.71 31-21.19 42.4-34.84 3.6 0.23 7.2 0.8 10.7 1.9-11.6 16.56-27.4 30.94-42.9 43.33-144.7-2.15-290-1.78-434.6-0.21-60.3 0.57-120.7-1.2-180.89 0.89-60.61 0.35-121.22-0.21-181.82 0.29-60.71 0.27-121.59-1.48-182.19 0.86-48.34 0.44-96.86-1.07-145.09 0.65-35.58 0.83-71.18-0.18-106.76 0.52-28.71 0-57.49-1.2-86.15 0.7-19.49 0.18-38.99-0.1-58.48 0.35-1.64-0.87-3.08-2.08-4.44-3.32-2.64-3.27-3.21-6.98 0.97-9.16 1.06 0.4 2.14 0.75 3.24 1.06 6.24 1.23 12.65 1.27 18.99 1.08 9.89-1.69 12.22-16.09 21.33-20.69 10.83-6.09-2.34-12.89-6.56-18.18 2.08-1.69 4.11-3.43 6.17-5.14 6.83 6.47 14.34 12.32 22.32 17.29 226.94 1.67 454.04 0.61 681.03 0.53 20.48 0.65 40.93-0.13 61.43 0.52 20.5 1.45 41 0.59 61.5 0.53 25.9-0.22 51.7 1.29 77.5 1.47 23.8 1.47 47.7 0.62 71.6 0.48 82.1 0.43 164.3 0.43 246.4 0 21.8-0.32 44.2 1.73 65.7-0.77 9.8-11.11 20.8-21.04 30.9-31.88m-1202.1 34.11c-10.73 0.29-24.4-1.65-33.19 0.8-8.92-0.22-17.84-0.09-26.74 0.35-6.75 0.1-17.76-1.86-21.93 1.06-8.77-0.6-22.07-1.25-27.86 0.45-4.81 3.61-8.39 9.56-12.65 14.07-3.37 0.8-1.37 5.47-1.81 8.02 34.67 1.8 76.24 1.72 110.96 0.01 31.03-0.66 66.1 1.66 94.56-1.24 46.85 0.38 93.78 0.7 140.61-0.18 62.49 0.43 127.83 1.51 188.83-0.57 93.46-0.74 190.48 1.64 281.78-1.2 102.1 0.29 204.3 0.58 306.4-0.15 45.2 0.26 93 1.41 136.8-0.58 9.4-0.24 18.7-1.17 28-1.15 4.2 0.08 10.3 1.49 13.2-0.9 2.8-1.05 10.8 3.72 9-1.89-9.2-9.33-23.9-8.83-36.1-10.79-7-0.6-14.1-0.49-21.2-0.22-16.4-0.33-32.8-0.11-49.2 0.1-18-2.98-42.5-0.34-62.7-1.16-29.2-2.48-63-0.55-93.8-0.76-29.2-0.54-58.4-0.33-87.5-0.07-12.7-2.89-31.9-0.55-46.9-0.95-11.6-0.58-23.3-0.23-34.8-0.21-4.7-3.49-16.6 0.21-23.3-0.88-9-2.55-24.3-0.69-35.7-1.12-96.43 0.01-192.87-0.23-289.29 0.12-39.78-2.78-85.65-0.35-127.7-1.15-41.18-2.4-87.07-0.5-129.91-0.79-33.02-0.51-66.08-0.14-99.11-0.17-15.88 0.4-35.04-1.44-48.75 1.15z" fill="#050201"/>
  <path d="m278.24 284.21c227 0 454.06-1.05 681.03 0.53-226.99 0.08-454.09 1.14-681.03-0.53z" fill="#2b2a1b"/>
  <path d="m1020.7 285.26c20.5-0.13 41.1-1.02 61.5 0.53-20.5 0.06-41 0.92-61.5-0.53z" fill="#717155"/>
  <path d="m1159.7 287.26c23.9-0.14 47.7-1 71.6 0.48-23.9 0.14-47.8 0.99-71.6-0.48z" fill="#5d5e44"/>
  <path d="m1477.7 287.74c21.9-1.58 43.8-0.33 65.7-0.77-21.5 2.5-43.9 0.45-65.7 0.77z" fill="#5d5d43"/>
  <path d="m372.24 289.2c13.71-2.59 32.87-0.75 48.75-1.15l0.02 1c-16.26 0.04-32.52-0.28-48.77 0.15z" fill="#4a3800"/>
  <path d="m420.99 288.05c33.03 0.03 66.09-0.34 99.11 0.17l-0.39 0.91c-32.91-0.28-65.81-0.1-98.7-0.08l-0.02-1z" fill="#b59826"/>
  <path d="m520.1 288.22c42.84 0.29 88.73-1.61 129.91 0.79l-1 0.04c-42.77-0.03-85.55-0.2-128.32 0.11l-0.98-0.03 0.39-0.91z" fill="#4a3800"/>
  <path d="m339.05 290c8.79-2.45 22.46-0.51 33.19-0.8-11.05 0.74-22.12 1.25-33.19 0.8z" fill="#806e1f"/>
  <path d="m372.24 289.2c16.25-0.43 32.51-0.11 48.77-0.15 32.89-0.02 65.79-0.2 98.7 0.08l0.98 0.03c42.72 1.96 85.54 0.26 128.3 0.88 42.58 0.04 85.16-0.27 127.73 0.15 96.72 1.92 193.54 0.22 290.28 0.85 11.6-0.04 23.2-0.15 34.8 0.15 8 0.46 16.1 1.16 24.2 0.85 11.5-0.02 23.2-0.37 34.8 0.21 15.6 1.42 31.2 0.43 46.9 0.95 28.9 1.85 58 0.19 87 0.93 31.4 1.95 62.9 0.35 94.3 0.9 20.9 0.07 41.8-0.27 62.7 0.16 16.4 1.41 32.9 0.65 49.4 0.89 7 0.01 14-0.41 21-0.77 12.2 1.96 26.9 1.46 36.1 10.79 1.8 5.61-6.2 0.84-9 1.89-4.5-0.09-8.8-0.05-13.2-0.07-55.1 2.21-110.4-0.15-165.4 1.94-102 0.84-204-0.98-305.8 0.91-93.97 0.52-187.89 0.12-281.81 0.2-63.14 0.62-126.44-1.08-189.47 0.81-46.62 1.08-93.43-1-139.94 0.94-31.52 0.64-63.06 0.13-94.59 0.24-36.57-0.03-73.15 0.19-109.71-0.02 0.12-2.35 0.32-4.68 0.59-7.01 4.26-4.51 7.84-10.46 12.65-14.07 9.3 0.76 18.6-0.07 27.86-0.45 7.31-0.08 14.61-0.82 21.93-1.06 8.9-0.44 17.82-0.57 26.74-0.35 11.07 0.45 22.14-0.06 33.19-0.8z" fill="#bf9b04"/>
  <path d="m520.69 289.16c42.77-0.31 85.55-0.14 128.32-0.11l-0.02 0.99c-42.76-0.62-85.58 1.08-128.3-0.88z" fill="#b79a1e"/>
  <path d="m649.01 289.05l1-0.04c42.05 0.8 87.92-1.63 127.7 1.15l-0.99 0.03c-42.57-0.42-85.15-0.11-127.73-0.15l0.02-0.99z" fill="#7f6d1f"/>
  <path d="m290.38 291.41c4.17-2.92 15.18-0.96 21.93-1.06-7.32 0.24-14.62 0.98-21.93 1.06z" fill="#584500"/>
  <path d="m776.72 290.19l0.99-0.03c96.42-0.35 192.86-0.11 289.29-0.12v1c-96.74-0.63-193.56 1.07-290.28-0.85z" fill="#b59925"/>
  <path d="m1067 290.04c11.4 0.43 26.7-1.43 35.7 1.12l-0.9 0.03c-11.6-0.3-23.2-0.19-34.8-0.15v-1z" fill="#564400"/>
  <path d="m262.52 291.86c5.79-1.7 19.09-1.05 27.86-0.45-9.26 0.38-18.56 1.21-27.86 0.45z" fill="#8e7825"/>
  <path d="m1101.8 291.19l0.9-0.03c6.7 1.09 18.6-2.61 23.3 0.88-8.1 0.31-16.2-0.39-24.2-0.85z" fill="#8d7826"/>
  <path d="m1160.8 292.25c15 0.4 34.2-1.94 46.9 0.95-15.7-0.52-31.3 0.47-46.9-0.95z" fill="#655000"/>
  <path d="m1207.7 293.2c29.1-0.26 58.3-0.47 87.5 0.07l-0.5 0.86c-29-0.74-58.1 0.92-87-0.93z" fill="#99852c"/>
  <path d="m1295.2 293.27c30.8 0.21 64.6-1.72 93.8 0.76-31.4-0.02-62.9-0.14-94.3 0.1l0.5-0.86z" fill="#312400"/>
  <path d="m1294.7 294.13c31.4-0.24 62.9-0.12 94.3-0.1v1c-31.4-0.55-62.9 1.05-94.3-0.9z" fill="#b69923"/>
  <path d="m1389 294.03c20.2 0.82 44.7-1.82 62.7 1.16-20.9-0.43-41.8-0.09-62.7-0.16v-1z" fill="#725c02"/>
  <path d="m1451.7 295.19c16.4-0.21 32.8-0.43 49.2-0.1l0.2 0.99c-16.5-0.24-33 0.52-49.4-0.89z" fill="#a69234"/>
  <path d="m1500.9 295.09c7.1-0.27 14.2-0.38 21.2 0.22-7 0.36-14 0.78-21 0.77l-0.2-0.99z" fill="#423301"/>
  <path d="m248.06 313.95c0.44-2.55-1.56-7.22 1.81-8.02-0.27 2.33-0.47 4.66-0.59 7.01 36.56 0.21 73.14-0.01 109.71 0.02l0.03 1c-36.99 0.05-73.98 0.09-110.96-0.01z" fill="#b49822"/>
  <path d="m1370.6 309.86c55-2.09 110.3 0.27 165.4-1.94v0.97c-9.3-0.02-18.6 0.91-28 1.15-45.8-0.19-91.6 0.16-137.4-0.18z" fill="#b6971c"/>
  <path d="m1536 307.92c4.4 0.02 8.7-0.02 13.2 0.07-2.9 2.39-9 0.98-13.2 0.9v-0.97z" fill="#5f4d0a"/>
  <path d="m215.99 309.85c6.32 0.4 12.64 0.91 18.99 1.08-6.34 0.19-12.75 0.15-18.99-1.08z" fill="#685302"/>
  <path d="m1064.8 310.77c101.8-1.89 203.8-0.07 305.8-0.91l0.6 0.76c-102.1 0.73-204.3 0.44-306.4 0.15z" fill="#b09936"/>
  <path d="m1370.6 309.86c45.8 0.34 91.6-0.01 137.4 0.18-43.8 1.99-91.6 0.84-136.8 0.58l-0.6-0.76z" fill="#4d3e02"/>
  <path d="m593.52 311.78c63.03-1.89 126.33-0.19 189.47-0.81l0.03 1c-63.17-0.07-126.34 0.3-189.5-0.19z" fill="#b89a1f"/>
  <path d="m782.99 310.97c93.92-0.08 187.84 0.32 281.81-0.2-91.3 2.84-188.32 0.46-281.78 1.2l-0.03-1z" fill="#816a0a"/>
  <path d="m453.58 312.72c46.51-1.94 93.32 0.14 139.94-0.94l0.67 0.76c-46.83 0.88-93.76 0.56-140.61 0.18z" fill="#a89337"/>
  <path d="m593.52 311.78c63.16 0.49 126.33 0.12 189.5 0.19-61 2.08-126.34 1-188.83 0.57l-0.67-0.76z" fill="#413200"/>
  <path d="m358.99 312.96c31.53-0.11 63.07 0.4 94.59-0.24-28.46 2.9-63.53 0.58-94.56 1.24l-0.03-1z" fill="#735d02"/>
  <path d="m248.06 313.95c36.98 0.1 73.97 0.06 110.96 0.01-34.72 1.71-76.29 1.79-110.96-0.01z" fill="#332500"/>
  <path d="m1157.6 317.01c144.6-1.57 289.9-1.94 434.6 0.21-144.9-0.5-289.8-0.09-434.6-0.21z" fill="#412900"/>
  <path d="m976.71 317.9c60.19-2.09 120.59-0.32 180.89-0.89l0.6 0.74c-60.5 0.52-121 0.21-181.49 0.15z" fill="#877013"/>
  <path d="m1157.6 317.01c144.8 0.12 289.7-0.29 434.6 0.21-144.3 2.06-288.8-0.22-433.2 1.13l-0.8-0.6-0.6-0.74z" fill="#ebc73b"/>
  <path d="m612.7 319.05c60.6-2.34 121.48-0.59 182.19-0.86l0.43 0.89-0.99 0.03c-60.54-0.19-121.09-0.13-181.63-0.06z" fill="#513a00"/>
  <path d="m794.89 318.19c60.6-0.5 121.21 0.06 181.82-0.29l0.41 0.91c-60.6 0.49-121.2-0.04-181.8 0.27l-0.43-0.89z" fill="#dcb926"/>
  <path d="m976.71 317.9c60.49 0.06 120.99 0.37 181.49-0.15l0.8 0.6-0.8 0.51c-60.4 0.2-120.7 0.3-181.08-0.05l-0.41-0.91z" fill="#f3c923"/>
  <path d="m467.61 319.7c48.23-1.72 96.75-0.21 145.09-0.65l0.6 0.78-0.99 0.03c-48.23 0.15-96.48 0.42-144.7-0.16z" fill="#99801d"/>
  <path d="m612.7 319.05c60.54-0.07 121.09-0.13 181.63 0.06-60.28 1.97-120.7 0.52-181.03 0.72l-0.6-0.78z" fill="#ecc836"/>
  <path d="m274.7 320.92c28.66-1.9 57.44-0.7 86.15-0.7l0.62 0.79-0.98 0.19c-28.59-0.41-57.19-0.06-85.79-0.28z" fill="#634a00"/>
  <path d="m360.85 320.22c35.58-0.7 71.18 0.31 106.76-0.52 48.22 0.58 96.47 0.31 144.7 0.16-83.5 2.67-167.25 0.37-250.84 1.15l-0.62-0.79z" fill="#f0c828"/>
  <path d="m216.22 321.27c19.49-0.45 38.99-0.17 58.48-0.35l0.39 0.91c-19.62-0.04-39.3 1.04-58.87-0.56z" fill="#ab9027"/>
  <path d="m274.7 320.92c28.6 0.22 57.2-0.13 85.79 0.28-28.33 2.04-56.96 0.29-85.4 0.63l-0.39-0.91z" fill="#eec82e"/>
  <path d="m1616.1 325.89c3.1-0.19 6 0.41 9.1 1.16-16 15.48-28.5 34.68-48.2 45.9-24.4 15.89-45.6 36.49-71.9 49.12-52.2 27.37-102 61.06-159.5 76.48-26.2 6.18-52.1 13.66-77.3 22.79-16.9 3.35-34 5.25-50.5 10.43-64.9 19.13-132.5 26.46-199.6 33.6-3.2 0.19-6.3 0.35-9.5 0.28-15.78 0.61-31.55 0.74-47.27 1.78-6.98-0.51-13.95-0.98-20.83 0.27-10.49 0.46-20.97 0.12-31.44 0.33 0.04 8.56 0.77 17.1 1.33 25.63-0.44 4.53 0.45 9.07 0.11 13.61 0.24 4.18 0.58 8.34 0.78 12.55-0.22 7.4-0.83 14.86 0.3 22.24 11.2 25.83 21.15 55.06 46.08 71.1-3.77 10.73-17 11.65-26.46 13.84h-61.45c-13.87-5.31-40.14-0.65-41.07-19.89 40.68-29.05 33.58-83.4 39.48-126.99 0.6-3.77 0.6-7.05-0.01-9.82-16.94-5.92-35.63-6.17-53.32-4.14-21.96-1.05-43.81-3.94-65.76-5.32-2.85-0.28-5.56-0.53-8.37-0.67-19.21-1.12-38.57-2.53-57.04-8.26-3.94-1.67-7.86-0.06-11.84-0.35-66.3-7.1-129.78-29.17-195.31-41.16-75.31-22.25-142.92-63.68-210.72-102.29-28.91-22.01-56.45-45.83-85.27-67.97 1.64-1.96 3.45-4.6 6.31-3.11 9.36 4.64 16.2 17.17 27.94 14.26 29.01 1.56 58.07 0.29 87.1 0.75 44.33 2.21 88.83 0.37 133.23 0.94 4.96 0.64 7.4-6.95 10.94-0.82 2.57 0.39 5.24 0.81 7.87 0.98 30.59 1.86 61.28 0.53 91.92 0.72 33.35-0.15 66.81 0.9 100.11-0.34 2-0.97 4.13-3.96 5.83-1.06 4.48 4.56 11.75 0.82 17.25 1.76 73.5-0.47 147.02-0.17 220.53-0.14 29.64 2.01 59.4 0.47 89.11 0.87 29.64 2.22 59.44 0.7 89.14 0.88 170 0.47 340.1-0.1 510.1 0.29 16.7-2.07 25-20.98 38.1-30.23m-1376.1 33.1c-6.96 0.45-14.56 0.19-21 1.64 15 10.74 29.01 23.13 44.15 33.68 2.25-21.57 41.5-26.58 48.74-6.3-2.01 6.53-11.56-1.34-15.06 4.68-7.9 3.43-10.45 11.12-6.26 18.53 1.43 10.37 14.06 4.68 19.67 0.87 7.91-15.37 10.34-38.29 0.36-52.22-6.16-2.99-21.17 0.22-29.85-0.6-7.9-0.44-15.83-0.38-23.73-0.23-2.73-2.91-14.2-1.28-17.02-0.05m189.31 23.82c-0.54 8.02-0.45 16.07 0.11 24.1-2.16 5.04-9.49 7.61-7.92 13.83-10.26 18.94-40.95 20.74-52.28 1.58 0.08-10.05-0.87-27.73 14.17-26.45 10.09-4.21 15.04 7.37 20.27 10.65 10.25-23.91-27.89-29.74-38.43-14.21-10.68 17.57-10.35 49.09 13.97 54.56 11.32-2.06 23.04-2.36 34.19-5.04 14.28-10.4 23.76-27.28 25.64-44.72 2.84-2.78-0.4-8.64 0.74-12.19 1.05-8.25 1.84-16.52 2.18-24.82-1.88-2.59-7.29-0.04-10.01-0.93-16.6-6.16-4.7 16.81-2.63 23.64m-104.26-14.72c-0.25 10.57-0.18 21.15 0.3 31.72-8.72 7-7.43 20.39-19.37 24.26 21.73 8.4 23.53-22.46 29.99-36.45 2.27-4.4 1.26-21.29 0.21-25.11-2-8.51-20.98-1.85-11.13 5.58m20.05-7.94c3.16 26.45-5.69 53.02-21.86 73.68 25.58 8.32 45.55 34.68 74.66 28.1 3.43 3.31 12.41-0.19 17.39 0.88 4.72 3.59 17.79 0.03 24.96 0.9 10.89 0.55 21.81 0.3 32.72 0.23 14.21 3.25 34.3-0.06 50.29 0.9 30.42 2.88 67.37 0.5 100.02 0.88 44.22 0.65 88.48 0.12 132.72 0.25 42.69 2.42 89.94 0.49 134.3 0.84 41.52 2.82 88.96 0.4 132.7 1.16 44.1-0.04 88.2 0.27 132.3-0.19l1 0.04c39.2 2.65 84.4 0.63 126 1 33.7 4.05 74-2.02 109.3 2.87 12.4-1 22.6-10.83 33.5-16.27-19.5 3.62-42.1-5.33-48.3-25.42 0-2.69 0.1-5.39-0.2-8.07-3.8-13.24 8.4-21.4 12.9-32.33 12.1-10.85 32.3-6.22 39.5 7.74 4.8 14.38-6 22.33-16 29.82-4.4-3.86-4-10.42-5.6-15.6-7.5-3.17-6.4 9.37-5.9 13.54 11.1 7.98 30.6 2.35 34.5-11.26 3-2.05-0.4-9.47 0.8-13 4.8-14.57-3.5-28.42-13.1-37.84-14.3-2.42-39.4-1.14-53.4-0.04-5.9 10.92-7.7 27.13-13.7 39.65-3.2 20.4-22.2 32-33 48.23-12.6 2.64-25.5 11.37-38.6 6.18-13.1-4.75-30-8.2-34.6-23.56 0.4-11.8-1.2-24.58 7-34.15 6.7-19.7 41.6-24.45 47-1.43 3.8 8.15-2.5 31.64-14.6 24.12-0.5-2.52 1.7-7.17-1-8.44-6.4-6.65-13.7 5.11-11.2 11.37 3.7 6.7 12.1 7.31 19 7.86 17.9-13.32 22.8-45.81 9.2-62.07-0.1-2.5 1.2-5.97-1-7.77-11.4-2.42-28.4-0.33-41.8-0.91-10.1-0.45-20.2 0.07-30.3 0.26-2.6-0.01-7.8-0.02-10.4-0.02-1.8 22.1-2.7 46.35-18.3 63.77-10.7 27.32-49.5 41.15-73.8 24.68-31.8-18.43-15.4-78.19 22.3-74.37 17.4-2.55 30.6 22.92 17 35.2-4.3 6.02-13.4 18.27-20.5 8.34 1.2-4.14 4.4-10.8 0.1-13.87-6.3-3.72-8.1 5.77-9.1 10.26-4 12.32 10.5 19.05 20.4 17.3 9.3-6.63 18.1-17.29 17.2-29.33 0.8-8 1-19.97-0.5-24.73-2.4-5.92-4.1-12.31-7.5-17.67-23.2-1.54-57.4-1.34-80.2-0.05-4.6 24.73-5 54.05-25.3 72.26-17.5 29.54-68.54 36.06-84.18 1.01-4.77-20.41-2.9-52.37 22.18-58.98 12.9-5.49 24.6 7.41 34.9 13.58 1 8.39-1.2 34.88-14.3 28.41-0.2-2.79 1.6-6.91-0.6-8.94 0.1-1.93-3-1.88-4.4-2.2-0.2-2.54-11.7-1.1-11.2-0.05-5.4 8.54-3.9 23.07 8.7 23.09 17.8 3.83 30.2-14.58 29-30.83-1-12.04 6.2-28-3.6-37.18-27.7-1.94-65.48-1.44-93.37 0.01-4.2 36.43-11.45 86.34-53.26 97.23-8.28-0.38-16.58-0.34-24.85 0.04-20.77-3.84-31.23-23.15-34.79-42.13 4.64-15.89 11.04-30.56 22.5-42.76 8.99 0.99 18.05 0.74 27.08 0.23 19.64 9.41 16.26 41.51-2.83 49.28-9.88-2.84 2.85-16.61-6.51-20.63-14.55-4.26-18.46 26.02-3.63 28.07 14.22 5.35 31.06-8.24 30.66-23.05 0.67-9.72 1.32-22.77-0.6-29.93-1.11-5.41-2.03-12.77-5.31-16.48-24.11-1.48-57.22-1.6-81.59 0.2-0.13 1.64-0.11 3.28-0.1 4.92-3.3 3.25 0.3 12.39-0.67 17.27-4.94 37.03-32.33 76.55-73.53 73.09-14.71-1.8-23.85-14.41-34.41-22.97-10.98-24.45 5.05-61.29 34.63-60.39 10.06-4.25 14.82 8.05 22.37 11.99-0.59 7.29-0.42 14.61-0.05 21.92-4.51 7.5-10.43 15.43-20.2 12.8-0.16-5.65 1.74-10.99 2.73-16.47-2.69-5.14-11.66-7.47-14.74-1.63-1.23 8.24 0 23.97 12.21 21.21 19.03 4.76 33.51-16.71 30.67-33.65 2.83-3.27 1.2-14.46-0.08-16.92-0.1-3.08-0.43-6.15-0.8-9.2-4.87-7.52-22.22-0.91-31.36-2.73-7.6-0.43-15.21-0.41-22.8-0.27-4.46-3.05-18.71-0.97-22.62 0.02-10.19-1.33-7.77 11.32-8.32 17.8-2.48 2.33-0.03 7.33-0.76 10.34-2.69 30.1-20.07 58.09-48.23 70.1-9.65-0.59-19.32-0.42-28.95 0.08-11.33-5.8-19.88-15.41-27.37-25.47-0.66-5.03 1.84-11.78-0.79-15.98-0.14-15.33 9.24-30.93 24.25-35.73 12.41-6.44 25.88 1.93 33 12.22-0.38 3.66-0.13 7.22 0.76 10.68 0.94 9.61-8.96 19.57-18.43 18.41-0.35-6.09 2.34-18.32-7.26-18.18-10.31 5.08-8.57 23.05 1.36 27.84 16.14 2.55 36.75-8.2 35.96-26.54 5.28-15.15 5.9-49.56-17.21-46.33-5.03 0.67-12.61-1.98-16.44 0.73-6.54-0.09-13.09-0.08-19.6 0.33-8.36 0.02-21.41-1.65-26.89 0.6-2.36 16.72-2.74 33.95-9.84 49.67-5.19 25.44-26.95 50.36-55.26 45.87-4.45-0.16-8.89-0.44-13.31-0.27-30.78-6.7-47.78-49.3-21.04-70.22 11.55-19.75 40.84-12.69 52.49 1.94-0.64 7.27-0.51 14.58-0.13 21.88-4.19 7.39-11.19 13.32-19.85 13.99-7.77-4.57 1.71-16.66-3.38-22.65-6.93-3.62-17.7-0.06-14.71 9.39-4 13.98 12.5 26 25.28 21.47 7.84-5.7 17.84-10.51 19.29-21.27 3.01-1.76-0.38-9.46 0.74-12.88 2.8-12.84-0.11-27.71-3.91-38.86-21.95-1.83-53.33-1.48-74.28-0.14-8.25 31.04-4.39 70.76-35.95 89.76-19.41 6.58-50.62 9.94-61.52-12.69-2.53-12.92-8.61-28.37-0.52-40.47 7.02-28.69 62.77-24.4 58.72 7.76 1.34 7.75-9.63 27.32-17.06 17.71 6.95-11.22-11.51-25.79-19-13.23-7.03 26.04 36.19 25.22 39.8 3.29 7.63-16.67 2.52-35.86-5.12-51.23-21.94-3.92-44.61-1.39-66.77-0.62m194.36 1.51c-0.4 4.63-1.96 11.24 0.57 14.43-0.1 4.57 0.04 9.13 0.26 13.71-0.35 5.09-0.2 10.17-0.1 15.28-1.87 18.59-17.22 38.02-37.34 35.04-21.25 0.76-35.83-30.05-19.35-44.61 8.43-5.26 21.03-1.92 27.01 5.48 0.39 3.54-2.19 9.43 0.59 11.68 0.82 1.8 2.81-2.1 3.04-3.19 2.17-1.87 1.1-18.73-0.05-21.01-14.25-14.98-42.32-4.01-46.1 16.1-2.49 2-1.04 18.87-0.11 20.83 10.1 23.61 39.38 30.73 61.88 20.37 15.67-13.44 25.53-31.8 29.27-51.9 2.52-7.28 1.06-24.81-0.01-31.49-6.25-0.79-16.88-4.46-19.56-0.72m117.31-1.26c8.86 24.55 8.19 67.64-22.68 76.85-7.69-0.4-15.39-0.32-23.06 0.18-4.27-2.35-7.89-5.99-11.25-9.49-0.22-3.1 1.4-7.46-0.95-9.82-1.92-7.52 4.22-14.75 9.35-19.29 3.24-0.1 6.41-0.13 9.69-0.11 4.51 0.87 7.12 5.13 10.52 7.81 1.06 5.4 2.93-7.63 1.47-8.67 1.98-5.69-4.76-9.31-9.36-10.88 0.38-1.66-8.52-1.83-8.15-0.02-8.14 5.07-18.55 11.95-22.31 21.24-3.16 1.78 0.51 8.73-0.89 11.86-3.87 14.36 11.67 25.33 22.25 31.93 2.57 2.62 15.56 1.29 18.36 0.04 12.22-2.8 22.32-11.79 32.78-18.49 13.27-21.24 13.99-47.05 17.28-71.3-7.59-1.27-15.35-2.79-23.05-1.84m125.62 17.36c-0.26 6.03-0.49 12.08-0.38 18.14-0.98 14.34-11.89 23.77-20.52 33.83-9.17 1.01-18.49 0.21-27.67-0.02-14.97-5.23-18.32-34.88-0.88-38.79 2.54 3.04 8.35-0.31 11.78 0.74 4.57 4.17 6.37 10.38 8.47 15.78 8.85-7-0.9-30.91-14.2-25.51-0.78-1.8-7.81-1.44-7.41 0.12-22.98 8.68-29.3 42.07-11.21 58.67 6.03 2.93 12.26 6.02 18.86 7.31 1.17 2.52 11.41 1.32 12.62-0.09 37.18-5.45 61.17-51.1 50.14-85.86-12.45-5.32-26.81 0.86-19.6 15.68m125.07-5.91c-0.09 3.2-1.87 7.55 0.54 10.16 0.04 4.98 0.72 9.93 1.47 14.85-0.11 2.71-1.52 6.12 0.53 8.39-0.41 17.59-13.99 38.69-34.02 33.87-0.62-1.9-7.75-1.86-7.59-0.11-2.76 0.36-4.06-2.51-5.82-4.05-0.52-4.34-5.38-6.08-7.82-9.21 0.73-6.8 0.01-13.66 0.08-20.45 5.77-4.03 10.65-12.37 18.69-10.96 8.08-0.63 8.15 12.63 14.4 13.31 1.36-8.09 2.74-17.6-2.08-24.77-7.25-2.04-15.21-3.79-22.66-2.02-9.58 6.22-13.07 18.47-17.15 28.39-1.91 3.45-1.8 16.25-0.05 19.37 2.19 5.76 4.8 12.54 9.85 16.44 3.1 1.95 5.69 5.1 9.46 5.89 1.4 3.21 8.87-0.61 11.87 0.85 8.97-0.73 21.18 0.35 28.02-6.69 16.2-10.26 25.7-28.65 28.84-47.01 2.81-2.78-0.39-8.39 0.96-11.88 1.87-7.73 2.35-17.21 1.13-24.16-7.39-0.99-37.76-6.56-28.65 9.79m145.64-9.8c0.5 2.17-2.7 8.04 0.7 7.9 0.1 1.6 0.5 3.18 0.6 4.79-0.3 5.75-0.4 11.52-0.2 17.29-2.1 9.38-4 18.8-5.6 28.29-8.2 17.64-38.2 25.17-49.38 6.48-11.26-9.32-1.1-23.89 7.28-30.69 8.2-0.75 14.6 4.7 21.7 7.73 3.9 0.17 5.8-5.46 3.5-8.39-6.9-7.52-16.1-14.35-26.9-12.86-25.29 10.29-26.45 51.85-3.4 65.49l-0.4 0.87c8.6 2.92 25.2 1.04 34.1 0.02 0.1-0.22 0.3-0.66 0.5-0.87 18.9-12.38 36.5-31.07 40.4-54.28 2.7-7.94 0.3-21.85 0.9-31.76-4.9-3.01-18.9-1.11-23.8-0.01m128.9-0.15c4.2 22.68 13.4 54-9.7 69.48-6.5 18.01-33.2 5.84-40.5-6.65-2.5-9.36 1.7-18.47 7.1-25.94 8.5-7.01 19 3.26 22.3 11.1 11.3-4.2 5.3-27.92-7-26.58-2.8 0.16-6.8-1.37-8.9 0.82-28.6 7.53-32.7 55.08-3.4 63.98 3 2.65 8.5-0.39 12.1 0.61 29.3 0.18 50-28.32 57-53.83-0.8-7.86 9.3-37.55-9.1-31.83-3.5-1.01-7.3-1.31-11.3-0.9 0.2-1.9-8.4-1.98-8.6-0.26m138.9 0.01c-2.3-0.09-4.7 0.3-6.9 1.24 9.2 19.33 11.4 44.16-0.9 62.92-6.1 4.8-8.3 14.15-17.3 14.68-9.4-1.88-20.8-3.38-26.1-12.54-5.4-16.12 12.7-31.22 27.6-22.62 1.6-9.12-4.9-17.3-14.1-17.42-11.6 4.42-22.1 14.23-24.3 26.81-0.7 3.59-1 7.24-0.8 10.95-2.6 5.86 3 11.63 7.6 14.09 0.3 0.25 0.8 0.74 1.1 0.99 13 7.73 31.4 13.96 45 5.86 23.3-12.03 33.7-37.18 43.2-60.28 2.5-0.38 0-7.57 0.9-9.61 3.6-11.95 0-18.51-14-13.83-1.8-3.34-9.1 0.51-12.3-0.98 0.3-1.91-8.5-1.97-8.7-0.26m116.1 0.96c-0.2 0.76 0.6 5.21 1.3 2.86 4 7.52 9.5 15.12 7.8 24.22-3.1 3.35-1.2 15-0.1 17.8-3.8 18.93-24.7 36.77-44 27.24-13.6-6.99-12.6-26.19 0.3-33.93 6.8 1.31 11.5 8.87 18.5 8.53 4.9-9.8-5.8-22-16-19.27-8 4.24-17.7 9.52-17.8 19.84-3.2 4.52-0.3 20.04-0.2 23.13 1.4 1.92 3.1 3.55 5.2 4.7 1.9 3.09 4.6 5.68 7.6 7.85 2.9 1.17 6.3 1.58 10.2 1.25 41.6 3.36 69-39.83 71.3-77.01 2.5 0.26 1.2-5 1.7-7.32-12.1-1.46-33-1.35-45.8 0.11m56.3 0.15c-4.9 9.17-5.4 22.7-8.8 33.5-2.7 15.62-16.1 26.05-21.5 40.42 39.4-18.44 80.5-44.88 109.1-74.02-24.1-1.91-55.5-1.37-78.8 0.1m-1211.8 20.86c-9.89 3.69-16.35 21.83-1.53 22.66-0.59-9.62 6.25-18.36 14.87-22.01 12.48-1.57-13.21-3.25-13.34-0.65m118.34 85.15c-1.5 0.06-4.18-0.64-3.76 1.77 10.87 4.54 21.33 10.38 32.76 13.43 3.7 0.61 7.45 0.8 11.25 0.56 2.61 0.08 5.24 0.15 7.88 0.21 2.76 1.35 6.42 1.68 10.98 0.99 61.69 2.17 127.59 0.74 190.87 0.71 25.44 0.76 50.96 0.21 76.43 0.13 29.98 2.91 66.42 0.32 98.69 1.13 29.43 2.61 63.8 0.44 94.89 0.8 31.45 0.5 62.95 0.27 94.43 0.07 28.3 2.93 63.1 0.3 93.7 1.13 42.6 2.39 89.6 0.59 133.9 0.79 33 0.01 68.5 1.35 100.1-0.73 12.5-0.75 23.8-8.14 35.1-12.33 1.5 0.36 6.6-1.05 2.7-1.66-12.9-0.3-25.9 0.02-38.8 0-18.3-2.32-40.9-0.65-60.8-0.83-22.4-2.74-48.4-0.71-72.1-0.95-23.7-0.7-47.4-0.07-71.1-0.23-57-2.23-118.2-0.69-176.82-0.75l-1-0.07c-60-2.79-123.73-0.59-185.08-0.99-30.34-0.54-60.73-0.1-91.09-0.17-36.3-2.5-77.36-0.56-115.32-0.72-15.65-0.63-31.32-0.39-46.96-0.19-12.26-2.56-30.98-0.58-45.71-1.09-12.18-3.07-30.04-0.13-43.95-0.87-10.28 0.34-21.79-1.93-31.19-0.14m55.4 22.82c-0.36 4.35 7.15 4.76 10.58 6.35 38.22 10.6 76.93 22.79 116.6 26.6 18.64 8.81 39.99 10.25 59.78 16.01 10.72 3.71 22.25-0.74 32.74 4.13 47.6 7.93 95.92 10.33 143.86 15.04 30.85-8.02 61.9 7.3 93.22 1.23 54.41-4.17 110.24 3.68 163.54-10.74 24.6 0.06 48.6-6.28 72.6-11.27 46.2-5.23 90.3-21.24 135.8-30.23 8.8-2.66 21.1-3.21 27-10.13-10.8-2.66-25.9 0.16-38-0.83-34-2.36-72.5-2.24-108.2-1.77-33.6-0.63-67.2-0.04-100.8-0.23-65.83-1.49-135.86-2.49-203.31-1.69-33.86-0.74-67.74-0.17-101.6-0.25-0.55-2.81-6.22-0.09-7.34-1.75-79.91 1.91-160-1.39-240.03-0.04-18.81-0.68-37.63-0.05-56.44-0.43m422.58 77.09c-0.78 3.61-1 7.33-0.64 11.16-2.92 33.25-10.82 65.85-13.63 99.08-8.08 10.15-17 21.81-26.75 31.82 9.04 1.97 17.92 5.27 27.19 6.04 19.58 1.63 45.32 1.64 65.01-0.01 5.08 1.03 20.01-1.82 10.8-8.87-18.31-17.08-22.93-42.32-34.8-63.29 0.24-5.16-0.39-10.34-0.39-15.48-0.26-8.67 1.99-20.7-0.69-27.32 0.08-6.43 0.99-15.98-1.19-19.73-0.13-3.95 3.3-11.26-0.74-12.45-1.94-1.96-5.56-0.45-8.15-0.66-1.87-0.16-3.72-0.21-5.57-0.33-2.41-1.66-5.65-0.68-8.39-0.75-0.51 0.2-1.54 0.59-2.06 0.79z" fill="#050405"/>
  <path d="m214.87 351.29c29.65-0.14 59.42-1.28 89.01 0.65-0.48 0.02-1.43 0.07-1.91 0.1-29.03-0.46-58.09 0.81-87.1-0.75z" fill="#ebc830"/>
  <path d="m306.79 351.77c41.9-1.23 84.06-1.39 125.96 0.05-41.98 0.22-83.99 0.4-125.96-0.05z" fill="#f3c921"/>
  <path d="m301.97 352.04c0.48-0.03 1.43-0.08 1.91-0.1 0.73-0.04 2.18-0.13 2.91-0.17 41.97 0.45 83.98 0.27 125.96 0.05 0.61 0.29 1.84 0.87 2.45 1.16-44.4-0.57-88.9 1.27-133.23-0.94z" fill="#98801d"/>
  <path d="m446.14 352.16c2.45 0.07 4.92 0.11 7.41 0.14l0.46 0.84c-2.63-0.17-5.3-0.59-7.87-0.98z" fill="#a18920"/>
  <path d="m453.55 352.3c30.55-0.14 61.19-1.25 91.7 0.58-30.41 0.27-60.83-0.07-91.24 0.26l-0.46-0.84z" fill="#edc834"/>
  <path d="m651.87 352.46c79.38 1.4 158.83-0.08 238.23 0.73l-0.45 0.89c-73.51-0.03-147.03-0.33-220.53 0.14-5.5-0.94-12.77 2.8-17.25-1.76z" fill="#dbb725"/>
  <path d="m454.01 353.14c30.41-0.33 60.83 0.01 91.24-0.26l0.99 0.04-0.31 0.94c-30.64-0.19-61.33 1.14-91.92-0.72z" fill="#523a00"/>
  <path d="m546.24 352.92c33.26 0.47 66.55-0.57 99.8 0.6-33.3 1.24-66.76 0.19-100.11 0.34l0.31-0.94z" fill="#dcb826"/>
  <path d="m890.1 353.19c29.37 0.18 58.85-1.39 88.15 0.85-29.53-0.14-59.07-0.03-88.6 0.04l0.45-0.89z" fill="#f2c924"/>
  <path d="m889.65 354.08c29.53-0.07 59.07-0.18 88.6-0.04l0.99 0.06-0.48 0.85c-29.71-0.4-59.47 1.14-89.11-0.87z" fill="#877013"/>
  <path d="m979.24 354.1c29.66 0.28 59.46-1.15 89.06 0.81-29.9 0.1-59.7 0.16-89.54 0.04l0.48-0.85z" fill="#ebc83b"/>
  <path d="m978.76 354.95c29.84 0.12 59.64 0.06 89.54-0.04l-0.4 0.92c-29.7-0.18-59.5 1.34-89.14-0.88z" fill="#402a00"/>
  <path d="m1068.3 354.91c169.9 0.35 339.8-0.24 509.7 0.29v0.92c-170-0.39-340.1 0.18-510.1-0.29l0.4-0.92z" fill="#cba81d"/>
  <path d="m240 358.99c2.82-1.23 14.29-2.86 17.02 0.05-5.68 0.06-11.35-0.02-17.02-0.05z" fill="#1f3c58"/>
  <path d="m429.31 382.81c-2.07-6.83-13.97-29.8 2.63-23.64 3.3 0.37 6.67 0.73 10.01 0.93-0.34 8.3-1.13 16.57-2.18 24.82-0.24 4.05-0.55 8.11-0.74 12.19-1.88 17.44-11.36 34.32-25.64 44.72-11.15 2.68-22.87 2.98-34.19 5.04-24.32-5.47-24.65-36.99-13.97-54.56 10.54-15.53 48.68-9.7 38.43 14.21-5.23-3.28-10.18-14.86-20.27-10.65-15.04-1.28-14.09 16.4-14.17 26.45 11.33 19.16 42.02 17.36 52.28-1.58-1.57-6.22 5.76-8.79 7.92-13.83 0.48-7.98 1.75-16.21-0.11-24.1z" fill="#f3c60c"/>
  <path d="m219 360.63c6.44-1.45 14.04-1.19 21-1.64 5.67 0.03 11.34 0.11 17.02 0.05 7.9-0.15 15.83-0.21 23.73 0.23 9.93 0.65 19.9 1.18 29.85 0.6 9.98 13.93 7.55 36.85-0.36 52.22-5.61 3.81-18.24 9.5-19.67-0.87-4.19-7.41-1.64-15.1 6.26-18.53 3.5-6.02 13.05 1.85 15.06-4.68-7.24-20.28-46.49-15.27-48.74 6.3-15.14-10.55-29.15-22.94-44.15-33.68z" fill="#336393"/>
  <path d="m280.75 359.27c8.68 0.82 23.69-2.39 29.85 0.6-9.95 0.58-19.92 0.05-29.85-0.6z" fill="#0d2235"/>
  <path d="m325.05 368.09c-9.85-7.43 9.13-14.09 11.13-5.58-0.15 8.36-0.2 16.74-0.21 25.11-6.46 13.99-8.26 44.85-29.99 36.45 11.94-3.87 10.65-17.26 19.37-24.26 0.06-10.34 2.74-21.89-0.3-31.72z" fill="#f3c50d"/>
  <path d="m345.1 360.15c22.16-0.77 44.83-3.3 66.77 0.62 7.64 15.37 12.75 34.56 5.12 51.23-3.61 21.93-46.83 22.75-39.8-3.29 7.49-12.56 25.95 2.01 19 13.23 7.43 9.61 18.4-9.96 17.06-17.71 4.05-32.16-51.7-36.45-58.72-7.76-8.09 12.1-2.01 27.55 0.52 40.47 10.9 22.63 42.11 19.27 61.52 12.69 31.56-19 27.7-58.72 35.95-89.76 24.76 0.3 49.52 0.04 74.28 0.14 3.8 11.15 6.71 26.02 3.91 38.86-0.32 4.28-0.48 8.59-0.74 12.88-1.45 10.76-11.45 15.57-19.29 21.27-12.78 4.53-29.28-7.49-25.28-21.47-2.99-9.45 7.78-13.01 14.71-9.39 5.09 5.99-4.39 18.08 3.38 22.65 8.66-0.67 15.66-6.6 19.85-13.99 0.88-7.26 1.38-14.64 0.13-21.88-11.65-14.63-40.94-21.69-52.49-1.94-26.74 20.92-9.74 63.52 21.04 70.22 4.36 1.12 8.87 0.58 13.31 0.27 28.31 4.49 50.07-20.43 55.26-45.87 7.1-15.72 7.48-32.95 9.84-49.67 8.97 0.52 17.93-0.1 26.89-0.6 6.51-0.41 13.06-0.42 19.6-0.33 5.47-0.13 10.96-0.41 16.44-0.73 23.11-3.23 22.49 31.18 17.21 46.33 0.79 18.34-19.82 29.09-35.96 26.54-9.93-4.79-11.67-22.76-1.36-27.84 9.6-0.14 6.91 12.09 7.26 18.18 9.47 1.16 19.37-8.8 18.43-18.41 0.11-3.62-0.15-7.18-0.76-10.68-7.12-10.29-20.59-18.66-33-12.22-15.01 4.8-24.39 20.4-24.25 35.73-0.22 5.33 0.14 10.67 0.79 15.98 7.49 10.06 16.04 19.67 27.37 25.47 9.57 0.28 19.49 2.27 28.95-0.08 28.16-12.01 45.54-40 48.23-70.1 0.3-3.46 0.76-6.87 0.76-10.34 0.55-6.48-1.87-19.13 8.32-17.8 7.53-0.03 15.07 0.06 22.62-0.02 7.59-0.14 15.2-0.16 22.8 0.27 10.11 2.09 22.29-2 31.36 2.73 0.37 3.05 0.7 6.12 0.8 9.2 0.05 5.63 0.03 11.27 0.08 16.92 2.84 16.94-11.64 38.41-30.67 33.65-12.21 2.76-13.44-12.97-12.21-21.21 3.08-5.84 12.05-3.51 14.74 1.63-0.99 5.48-2.89 10.82-2.73 16.47 9.77 2.63 15.69-5.3 20.2-12.8 0.41-7.24 2.02-14.79 0.05-21.92-7.55-3.94-12.31-16.24-22.37-11.99-29.58-0.9-45.61 35.94-34.63 60.39 10.56 8.56 19.7 21.17 34.41 22.97 41.2 3.46 68.59-36.06 73.53-73.09 0.42-5.75 0.65-11.51 0.67-17.27-0.01-1.64-0.03-3.28 0.1-4.92 27.2-0.23 54.4 0.16 81.59-0.2 3.28 3.71 4.2 11.07 5.31 16.48 0.01 9.97-0.64 20 0.6 29.93 0.4 14.81-16.44 28.4-30.66 23.05-14.83-2.05-10.92-32.33 3.63-28.07 9.36 4.02-3.37 17.79 6.51 20.63 19.09-7.77 22.47-39.87 2.83-49.28-9.01-0.84-18.08-1.28-27.08-0.23-11.46 12.2-17.86 26.87-22.5 42.76 3.56 18.98 14.02 38.29 34.79 42.13 8.23 1.24 16.61 1.15 24.85-0.04 41.81-10.89 49.06-60.8 53.26-97.23 31.13 0 62.27 0.04 93.37-0.01 9.8 9.18 2.6 25.14 3.6 37.18 1.2 16.25-11.2 34.66-29 30.83-12.6-0.02-14.1-14.55-8.7-23.09 3.7 0 7.4 0.02 11.2 0.05 1.4 0.32 4.5 0.27 4.4 2.2 0.1 2.91-0.9 6.22 0.6 8.94 13.1 6.47 15.3-20.02 14.3-28.41-10.3-6.17-22-19.07-34.9-13.58-25.08 6.61-26.95 38.57-22.18 58.98 15.64 35.05 66.68 28.53 84.18-1.01 20.3-18.21 20.7-47.53 25.3-72.26 26.7 0.31 53.5 0.3 80.2 0.05 3.4 5.36 5.1 11.75 7.5 17.67-0.4 8.24-0.5 16.52 0.5 24.73 0.9 12.04-7.9 22.7-17.2 29.33-9.9 1.75-24.4-4.98-20.4-17.3 1-4.49 2.8-13.98 9.1-10.26 4.3 3.07 1.1 9.73-0.1 13.87 7.1 9.93 16.2-2.32 20.5-8.34 13.6-12.28 0.4-37.75-17-35.2-37.7-3.82-54.1 55.94-22.3 74.37 24.3 16.47 63.1 2.64 73.8-24.68 15.6-17.42 16.5-41.67 18.3-63.77 2.6 0 7.8 0.01 10.4 0.02 10 0.62 20.1 1 30.2 0.74 14-0.07 27.9 0.04 41.9-0.09 0.1 2.57-0.3 5.4 1 7.77 13.6 16.26 8.7 48.75-9.2 62.07-6.9-0.55-15.3-1.16-19-7.86-2.5-6.26 4.8-18.02 11.2-11.37 0 2.8-0.4 5.86 1 8.44 12.1 7.52 18.4-15.97 14.6-24.12-5.4-23.02-40.3-18.27-47 1.43-8.2 9.57-6.6 22.35-7 34.15 4.6 15.36 21.5 18.81 34.6 23.56 13.1 5.19 26-3.54 38.6-6.18 10.8-16.23 29.8-27.83 33-48.23 6-12.52 7.8-28.73 13.7-39.65 17.8 0.07 35.6 0.02 53.4 0.04 9.6 9.42 17.9 23.27 13.1 37.84-0.4 4.31-0.6 8.66-0.8 13-3.9 13.61-23.4 19.24-34.5 11.26-0.5-4.17-1.6-16.71 5.9-13.54 1.6 5.18 1.2 11.74 5.6 15.6 10-7.49 20.8-15.44 16-29.82-7.2-13.96-27.4-18.59-39.5-7.74-4.5 10.93-16.7 19.09-12.9 32.33-0.2 2.64-1.2 5.58 0.2 8.07 6.2 20.09 28.8 29.04 48.3 25.42-10.9 5.44-21.1 15.27-33.5 16.27-34.2-6.56-73.3-0.54-109.3-2.87-42-1.99-84-0.07-126-1l-1-0.04c-44.1-1.82-88.2-0.24-132.3-0.81-44.24-0.07-88.47 0.28-132.7-0.16-44.73-1.86-89.54-0.29-134.3-0.84-44.24-0.13-88.5 0.4-132.72-0.25-32.98-1.77-66.03-0.03-99.04-0.9-17.06-1.46-34.18-0.68-51.27-0.88-10.91 0.07-21.83 0.32-32.72-0.23-8.33-0.38-16.64-0.91-24.96-0.9-5.81-0.27-11.6-0.8-17.39-0.88-29.11 6.58-49.08-19.78-74.66-28.1 16.17-20.66 25.02-47.23 21.86-73.68z" fill="#326494"/>
  <path d="m431.94 359.17c2.72 0.89 8.13-1.66 10.01 0.93-3.34-0.2-6.71-0.56-10.01-0.93z" fill="#594903"/>
  <path d="m452.52 359.87c20.95-1.34 52.33-1.69 74.28 0.14-24.76-0.1-49.52 0.16-74.28-0.14z" fill="#0d2132"/>
  <path d="m539.46 361.66c2.68-3.74 13.31-0.07 19.56 0.72-0.11 10.49 0 20.99 0.01 31.49-3.74 20.1-13.6 38.46-29.27 51.9-22.5 10.36-51.78 3.24-61.88-20.37 0.1-6.95 0.09-13.9 0.11-20.83 3.78-20.11 31.85-31.08 46.1-16.1-0.09 7-0.06 14 0.05 21.01-0.23 1.09-2.22 4.99-3.04 3.19-0.07-3.91-0.8-7.79-0.59-11.68-5.98-7.4-18.58-10.74-27.01-5.48-16.48 14.56-1.9 45.37 19.35 44.61 20.12 2.98 35.47-16.45 37.34-35.04 1.31-5.06 0.17-10.19 0.1-15.28-0.22-4.58-0.36-9.14-0.26-13.71 0.16-4.83-0.09-9.65-0.57-14.43z" fill="#f4c60a"/>
  <path d="m616.92 361.02c3.83-2.71 11.41-0.06 16.44-0.73-5.48 0.32-10.97 0.6-16.44 0.73z" fill="#244363"/>
  <path d="m656.77 360.4c7.7-0.95 15.46 0.57 23.05 1.84-3.29 24.25-4.01 50.06-17.28 71.3-10.46 6.7-20.56 15.69-32.78 18.49-6.14-0.03-12.25-0.01-18.36-0.04-10.58-6.6-26.12-17.57-22.25-31.93 0.28-3.97 0.57-7.91 0.89-11.86 3.76-9.29 14.17-16.17 22.31-21.24 2.66-0.04 5.44 0 8.15 0.02 4.6 1.57 11.34 5.19 9.36 10.88-0.52 2.86-0.96 5.79-1.47 8.67-3.4-2.68-6.01-6.94-10.52-7.81-3.26-0.95-6.49-0.91-9.69 0.11-5.13 4.54-11.27 11.77-9.35 19.29 0.03 3.24-0.37 6.73 0.95 9.82 3.36 3.5 6.98 7.14 11.25 9.49 7.6 0.4 15.56 1.85 23.06-0.18 30.87-9.21 31.54-52.3 22.68-76.85z" fill="#f4c60a"/>
  <path d="m695.35 361.05c3.91-0.99 18.16-3.07 22.62-0.02-7.55 0.08-15.09-0.01-22.62 0.02z" fill="#264264"/>
  <path d="m782.39 377.76c-7.21-14.82 7.15-21 19.6-15.68 11.03 34.76-12.96 80.41-50.14 85.86-4.24 0.01-8.42 0.05-12.62 0.09-6.6-1.29-12.83-4.38-18.86-7.31-18.09-16.6-11.77-49.99 11.21-58.67 2.45 0.01 4.92-0.03 7.41-0.12 13.3-5.4 23.05 18.51 14.2 25.51-2.1-5.4-3.9-11.61-8.47-15.78-3.87 0.17-7.83-1.23-11.78-0.74-17.44 3.91-14.09 33.56 0.88 38.79 9.18 0.23 18.5 1.03 27.67 0.02 8.63-10.06 19.54-19.49 20.52-33.83 1.54-5.96 1.39-12.14 0.38-18.14z" fill="#f6c709"/>
  <path d="m907.46 371.85c-9.11-16.35 21.26-10.78 28.65-9.79 1.22 6.95 0.74 16.43-1.13 24.16-0.33 3.91-1.17 7.88-0.96 11.88-3.14 18.36-12.64 36.75-28.84 47.01-15.83 6.27-33.93 8.17-49.35-0.05-1.53-4.65 4.21-6.87 6.74-10.1 1.76 1.54 3.06 4.41 5.82 4.05 2.5 0.07 5.03 0.11 7.59 0.11 20.03 4.82 33.61-16.28 34.02-33.87-0.26-2.83-0.61-5.58-0.53-8.39-0.75-4.92-1.43-9.87-1.47-14.85-0.1-3.41-0.02-6.79-0.54-10.16z" fill="#f8c906"/>
  <path d="m570.43 361.95c5.48-2.25 18.53-0.58 26.89-0.6-8.96 0.5-17.92 1.12-26.89 0.6z" fill="#14293d"/>
  <path d="m740.77 361.3c9.14 1.82 26.49-4.79 31.36 2.73-9.07-4.73-21.25-0.64-31.36-2.73z" fill="#142a3e"/>
  <path d="m814.1 362.06c24.37-1.8 57.48-1.68 81.59-0.2-27.19 0.36-54.39-0.03-81.59 0.2z" fill="#14293d"/>
  <path d="m947.23 361.99c27.89-1.45 65.67-1.95 93.37-0.01-31.1 0.05-62.24 0.01-93.37 0.01z" fill="#15283d"/>
  <path d="m1053.1 362.05c4.9-1.1 18.9-3 23.8 0.01-7.9-0.07-15.9-0.07-23.8-0.01z" fill="#655204"/>
  <path d="m1089.4 361.81c22.8-1.29 57-1.49 80.2 0.05-26.7 0.25-53.5 0.26-80.2-0.05z" fill="#14293d"/>
  <path d="m1182 361.9c0.2-1.72 8.8-1.64 8.6 0.26-2.9-0.13-5.7-0.18-8.6-0.26z" fill="#625105"/>
  <path d="m1320.9 361.91c0.2-1.71 9-1.65 8.7 0.26-3-0.12-5.8-0.17-8.7-0.26z" fill="#5d4c03"/>
  <path d="m336.18 362.51c1.05 3.82 2.06 20.71-0.21 25.11 0.01-8.37 0.06-16.75 0.21-25.11z" fill="#75600a"/>
  <path d="m539.46 361.66c0.48 4.78 0.73 9.6 0.57 14.43-2.53-3.19-0.97-9.8-0.57-14.43z" fill="#98831e"/>
  <path d="m559.02 362.38c1.07 6.68 2.53 24.21 0.01 31.49-0.01-10.5-0.12-21-0.01-31.49z" fill="#cca91e"/>
  <path d="m1053.1 362.05c7.9-0.06 15.9-0.06 23.8 0.01-0.6 9.91 1.8 23.82-0.9 31.76 0-10.23 0.2-20.45-0.2-30.66-7 1.74-25-6.35-22 6.79-3.4 0.14-0.2-5.73-0.7-7.9z" fill="#e2c139"/>
  <path d="m1182 361.9c2.9 0.08 5.7 0.13 8.6 0.26 3.8 0.33 7.5 0.63 11.3 0.9 17.9-2.28 5.6 21.78 9.1 31.83-7 25.51-27.7 54.01-57 53.83-4.1-0.15-8.1-0.39-12.1-0.61-29.3-8.9-25.2-56.45 3.4-63.98 2.9-0.37 5.9-0.75 8.9-0.82 12.3-1.34 18.3 22.38 7 26.58-3.3-7.84-13.8-18.11-22.3-11.1-5.4 7.47-9.6 16.58-7.1 25.94 7.3 12.49 34 24.66 40.5 6.65 23.1-15.48 13.9-46.8 9.7-69.48z" fill="#f5c709"/>
  <path d="m1190.6 362.16c4-0.41 7.8-0.11 11.3 0.9-3.8-0.27-7.5-0.57-11.3-0.9z" fill="#b89a13"/>
  <path d="m1232.7 362.3c10.1-0.19 20.2-0.71 30.3-0.26l-0.1 1c-10.1 0.26-20.2-0.12-30.2-0.74z" fill="#2b4c6e"/>
  <path d="m1263 362.04c13.4 0.58 30.4-1.51 41.8 0.91-14 0.13-27.9 0.02-41.9 0.09l0.1-1z" fill="#000f26"/>
  <path d="m1314 363.15c2.2-0.94 4.6-1.33 6.9-1.24 2.9 0.09 5.7 0.14 8.7 0.26 4.1 0.32 8.2 0.74 12.3 0.98 12-2.66 15.4 3.34 13.1 13.93-0.2 3.14 0 6.35 0 9.51-9.5 23.1-19.9 48.25-43.2 60.28-15.3 5.69-30.7-0.29-45-5.86-0.3-0.25-0.8-0.74-1.1-0.99 6-13.9 15.9 2.57 26 1.33 10.5 2.79 17.9-6.65 21.4-15.28 12.3-18.76 10.1-43.59 0.9-62.92z" fill="#f9c905"/>
  <path d="m1329.6 362.17c3.2 1.49 10.5-2.36 12.3 0.98-4.1-0.24-8.2-0.66-12.3-0.98z" fill="#b99a13"/>
  <path d="m1370.3 362.96c14-1.1 39.1-2.38 53.4 0.04-17.8-0.02-35.6 0.03-53.4-0.04z" fill="#000e25"/>
  <path d="m1437 362.87c12.8-1.46 33.7-1.57 45.8-0.11-15.3 0.33-30.6 0.39-45.8 0.11z" fill="#301b00"/>
  <path d="m1493.3 363.02c23.3-1.47 54.7-2.01 78.8-0.1-26.3 0.21-52.6-0.01-78.8 0.1z" fill="#000e25"/>
  <path d="m1053.8 369.95c-3-13.14 15-5.05 22-6.79 0.4 10.21 0.2 20.43 0.2 30.66-3.9 23.21-21.5 41.9-40.4 54.28-11.4-0.14-22.8-0.16-34.2-0.02-23.05-13.64-21.89-55.2 3.4-65.49 10.8-1.49 20 5.34 26.9 12.86 2.3 2.93 0.4 8.56-3.5 8.39-7.1-3.03-13.5-8.48-21.7-7.73-8.38 6.8-18.54 21.37-7.28 30.69 11.18 18.69 41.18 11.16 49.38-6.48 1.6-9.49 3.5-18.91 5.6-28.29 1.3-5.75 0.8-11.53 0.2-17.29-0.1-1.61-0.5-3.19-0.6-4.79z" fill="#f6c708"/>
  <path d="m1201.9 363.06c18.4-5.72 8.3 23.97 9.1 31.83-3.5-10.05 8.8-34.11-9.1-31.83z" fill="#e9c634"/>
  <path d="m1304.8 362.95c2.2 1.8 0.9 5.27 1 7.77-1.3-2.37-0.9-5.2-1-7.77z" fill="#16314b"/>
  <path d="m1341.9 363.15c14-4.68 17.6 1.88 14 13.83l-0.9 0.1c2.3-10.59-1.1-16.59-13.1-13.93z" fill="#e1bd36"/>
  <path d="m1437 362.87c15.2 0.28 30.5 0.22 45.8-0.11-0.5 2.32 0.8 7.58-1.7 7.32-4.3-11.34-30.9-6.24-42.8-4.35-0.7 2.35-1.5-2.1-1.3-2.86z" fill="#e4c340"/>
  <path d="m1484.5 396.52c3.4-10.8 3.9-24.33 8.8-33.5 26.2-0.11 52.5 0.11 78.8-0.1-28.6 29.14-69.7 55.58-109.1 74.02 5.4-14.37 18.8-24.8 21.5-40.42z" fill="#326494"/>
  <path d="m1438.3 365.73c11.9-1.89 38.5-6.99 42.8 4.35-2.3 37.18-29.7 80.37-71.3 77.01-3.4-0.33-6.9-0.74-10.2-1.25-3-2.17-5.7-4.76-7.6-7.85 2.5-4.56 5.9-6.95 10-3 19.3 9.53 40.2-8.31 44-27.24 0.2-5.94 0.2-11.87 0.1-17.8 1.7-9.1-3.8-16.7-7.8-24.22z" fill="#f8c806"/>
  <path d="m813.33 384.25c0.97-4.88-2.63-14.02 0.67-17.27-0.02 5.76-0.25 11.52-0.67 17.27z" fill="#2c4761"/>
  <path d="m325.05 368.09c3.04 9.83 0.36 21.38 0.3 31.72-0.48-10.57-0.55-21.15-0.3-31.72z" fill="#e7c844"/>
  <path d="m907.46 371.85c0.52 3.37 0.44 6.75 0.54 10.16-2.41-2.61-0.63-6.96-0.54-10.16z" fill="#9e8521"/>
  <path d="m772.93 373.23c1.28 2.46 2.91 13.65 0.08 16.92-0.05-5.65-0.03-11.29-0.08-16.92z" fill="#1f3a55"/>
  <path d="m856.83 374.37c9-1.05 18.07-0.61 27.08 0.23-9.03 0.51-18.09 0.76-27.08-0.23z" fill="#15293e"/>
  <path d="m1054.4 374.74c0.6 5.76 1.1 11.54-0.2 17.29-0.2-5.77-0.1-11.54 0.2-17.29z" fill="#785d00"/>
  <path d="m1355 377.08l0.9-0.1c-0.9 2.04 1.6 9.23-0.9 9.61 0-3.16-0.2-6.37 0-9.51z" fill="#5f4700"/>
  <path d="m782.39 377.76c1.01 6 1.16 12.18-0.38 18.14-0.11-6.06 0.12-12.11 0.38-18.14z" fill="#7a5e00"/>
  <path d="m901 378.34c1.92 7.16 1.27 20.21 0.6 29.93-1.24-9.93-0.59-19.96-0.6-29.93z" fill="#1c3d59"/>
  <path d="m686.27 389.19c0.73-3.01-1.72-8.01 0.76-10.34 0 3.47-0.46 6.88-0.76 10.34z" fill="#122f4d"/>
  <path d="m1177.1 379.53c1.5 4.76 1.3 16.73 0.5 24.73-1-8.21-0.9-16.49-0.5-24.73z" fill="#102d49"/>
  <path d="m863.18 380.86c7.45-1.77 15.41-0.02 22.66 2.02 4.82 7.17 3.44 16.68 2.08 24.77-6.25-0.68-6.32-13.94-14.4-13.31-8.04-1.41-12.92 6.93-18.69 10.96-0.85 6.69-2.11 13.85-0.08 20.45 2.44 3.13 7.3 4.87 7.82 9.21-2.53 3.23-8.27 5.45-6.74 10.1-5.05-3.9-7.66-10.68-9.85-16.44-0.03-6.47-0.06-12.92 0.05-19.37 4.08-9.92 7.57-22.17 17.15-28.39z" fill="#f4c60b"/>
  <path d="m731.58 382.05c-0.4-1.56 6.63-1.92 7.41-0.12-2.49 0.09-4.96 0.13-7.41 0.12z" fill="#846c17"/>
  <path d="m281.54 383.88c0.13-2.6 25.82-0.92 13.34 0.65-4.46-0.16-8.9-0.36-13.34-0.65z" fill="#8e7a28"/>
  <path d="m429.31 382.81c1.86 7.89 0.59 16.12 0.11 24.1-0.56-8.03-0.65-16.08-0.11-24.1z" fill="#a99024"/>
  <path d="m1145.3 384.13c2.1-2.19 6.1-0.66 8.9-0.82-3 0.07-6 0.45-8.9 0.82z" fill="#987f1d"/>
  <path d="m280.01 406.54c-14.82-0.83-8.36-18.97 1.53-22.66 4.44 0.29 8.88 0.49 13.34 0.65-8.62 3.65-15.46 12.39-14.87 22.01z" fill="#edc211"/>
  <path d="m439.03 397.11c0.19-4.08 0.5-8.14 0.74-12.19-1.14 3.55 2.1 9.41-0.74 12.19z" fill="#876c00"/>
  <path d="m612.35 386.96c-0.37-1.81 8.53-1.64 8.15 0.02-2.71-0.02-5.49-0.06-8.15-0.02z" fill="#725900"/>
  <path d="m762.39 385.97c1.97 7.13 0.36 14.68-0.05 21.92-0.37-7.31-0.54-14.63 0.05-21.92z" fill="#071f39"/>
  <path d="m934.02 398.1c-0.21-4 0.63-7.97 0.96-11.88-1.35 3.49 1.85 9.1-0.96 11.88z" fill="#c6aa37"/>
  <path d="m514.09 388.47c1.15 2.28 2.22 19.14 0.05 21.01-0.11-7.01-0.14-14.01-0.05-21.01z" fill="#655101"/>
  <path d="m1258.9 414.98c2.2-12.58 12.7-22.39 24.3-26.81 9.2 0.12 15.7 8.3 14.1 17.42-14.9-8.6-33 6.5-27.6 22.62 5.3 9.16 16.7 10.66 26.1 12.54 9-0.53 11.2-9.88 17.3-14.68-3.5 8.63-10.9 18.07-21.4 15.28-10.1 1.24-20-15.23-26-1.33-4.6-2.46-10.2-8.23-7.6-14.09 0.2-3.66 0.5-7.31 0.8-10.95z" fill="#f1c40d"/>
  <path d="m523.47 388.94c1.25 7.24 0.75 14.62-0.13 21.88-0.38-7.3-0.51-14.61 0.13-21.88z" fill="#263f59"/>
  <path d="m540.29 389.8c0.07 5.09 1.21 10.22-0.1 15.28-0.1-5.11-0.25-10.19 0.1-15.28z" fill="#674c00"/>
  <path d="m1404.8 390.32c10.2-2.73 20.9 9.47 16 19.27-7 0.34-11.7-7.22-18.5-8.53-12.9 7.74-13.9 26.94-0.3 33.93-4.1-3.95-7.5-1.56-10 3-2.1-1.15-3.8-2.78-5.2-4.7 0.2-7.72 0.2-15.43 0.2-23.13 0.1-10.32 9.8-15.6 17.8-19.84z" fill="#f1c40f"/>
  <path d="m1446 407.75c-1.1-2.8-3-14.45 0.1-17.8 0.1 5.93 0.1 11.86-0.1 17.8z" fill="#625001"/>
  <path d="m732.94 390.92c3.95-0.49 7.91 0.91 11.78 0.74-3.43-1.05-9.24 2.3-11.78-0.74z" fill="#a38508"/>
  <path d="m638.18 394.41c0.61 3.5 0.87 7.06 0.76 10.68-0.89-3.46-1.14-7.02-0.76-10.68z" fill="#112c47"/>
  <path d="m909.47 396.86c-0.08 2.81 0.27 5.56 0.53 8.39-2.05-2.27-0.64-5.68-0.53-8.39z" fill="#a68c23"/>
  <path d="m608.18 398.83c3.2-1.02 6.43-1.06 9.69-0.11-3.28-0.02-6.45 0.01-9.69 0.11z" fill="#aa9024"/>
  <path d="m628.39 406.53c0.51-2.88 0.95-5.81 1.47-8.67 1.46 1.04-0.41 14.07-1.47 8.67z" fill="#9c8110"/>
  <path d="m529.97 411.75c0.26-4.29 0.42-8.6 0.74-12.88-1.12 3.42 2.27 11.12-0.74 12.88z" fill="#11283c"/>
  <path d="m510.51 400.99c-0.21 3.89 0.52 7.77 0.59 11.68-2.78-2.25-0.2-8.14-0.59-11.68z" fill="#745a01"/>
  <path d="m1436 413.84c0.2-4.34 0.4-8.69 0.8-13-1.2 3.53 2.2 10.95-0.8 13z" fill="#233d54"/>
  <path d="m467.88 425.4c-0.93-1.96-2.38-18.83 0.11-20.83-0.02 6.93-0.01 13.88-0.11 20.83z" fill="#514000"/>
  <path d="m854.75 425.75c-2.03-6.6-0.77-13.76 0.08-20.45-0.07 6.79 0.65 13.65-0.08 20.45z" fill="#cdb137"/>
  <path d="m1006.5 406.9c-0.5-1.05 11-2.49 11.2 0.05-3.8-0.03-7.5-0.05-11.2-0.05z" fill="#203e5b"/>
  <path d="m589.15 420.06c1.4-3.13-2.27-10.08 0.89-11.86-0.32 3.95-0.61 7.89-0.89 11.86z" fill="#ac9126"/>
  <path d="m845.98 428.62c-1.75-3.12-1.86-15.92 0.05-19.37-0.11 6.45-0.08 12.9-0.05 19.37z" fill="#a99028"/>
  <path d="m1022.1 409.15c2.2 2.03 0.4 6.15 0.6 8.94-1.5-2.72-0.5-6.03-0.6-8.94z" fill="#1e334b"/>
  <path d="m1386.8 433.29c-0.1-3.09-3-18.61 0.2-23.13 0 7.7 0 15.41-0.2 23.13z" fill="#523a00"/>
  <path d="m1288.8 413.56c2.7 1.27 0.5 5.92 1 8.44-1.4-2.58-1-5.64-1-8.44z" fill="#122e47"/>
  <path d="m1258.1 425.93c-0.2-3.71 0.1-7.36 0.8-10.95-0.3 3.64-0.6 7.29-0.8 10.95z" fill="#583e00"/>
  <path d="m580.93 417.92c2.63 4.2 0.13 10.95 0.79 15.98-0.65-5.31-1.01-10.65-0.79-15.98z" fill="#1e3d5a"/>
  <path d="m598.83 418.12c2.35 2.36 0.73 6.72 0.95 9.82-1.32-3.09-0.92-6.58-0.95-9.82z" fill="#7f6400"/>
  <path d="m1376.8 430c-1.4-2.49-0.4-5.43-0.2-8.07 0.3 2.68 0.2 5.38 0.2 8.07z" fill="#1d324b"/>
  <path d="m611.03 437.43c7.67-0.5 15.37-0.58 23.06-0.18-7.5 2.03-15.46 0.58-23.06 0.18z" fill="#4b3701"/>
  <path d="m868.39 439.01c-0.16-1.75 6.97-1.79 7.59 0.11-2.56 0-5.09-0.04-7.59-0.11z" fill="#9f7f04"/>
  <path d="m1266.8 441.01c14.3 5.57 29.7 11.55 45 5.86-13.6 8.1-32 1.87-45-5.86z" fill="#d1ae21"/>
  <path d="m855.83 445.06c15.42 8.22 33.52 6.32 49.35 0.05-6.84 7.04-19.05 5.96-28.02 6.69-3.99-0.28-7.92-0.56-11.87-0.85-3.77-0.79-6.36-3.94-9.46-5.89z" fill="#dfba23"/>
  <path d="m1399.6 445.84c3.3 0.51 6.8 0.92 10.2 1.25-3.9 0.33-7.3-0.08-10.2-1.25z" fill="#a28621"/>
  <path d="m739.23 448.03c4.2-0.04 8.38-0.08 12.62-0.09-1.21 1.41-11.45 2.61-12.62 0.09z" fill="#917a1b"/>
  <path d="m1001.4 448.08c11.4-0.14 22.8-0.12 34.2 0.02-0.2 0.21-0.4 0.65-0.5 0.87-11.4 0.04-22.7 0.04-34.1-0.02l0.4-0.87z" fill="#e9c537"/>
  <path d="m1141.9 448.11c4 0.22 8 0.46 12.1 0.61-3.6-1-9.1 2.04-12.1-0.61z" fill="#967c1a"/>
  <path d="m1001 448.95c11.4 0.06 22.7 0.06 34.1 0.02-8.9 1.02-25.5 2.9-34.1-0.02z" fill="#4d3500"/>
  <path d="m865.29 450.95c3.95 0.29 7.88 0.57 11.87 0.85-3-1.46-10.47 2.36-11.87-0.85z" fill="#402900"/>
  <path d="m611.4 451.99c6.11 0.03 12.22 0.01 18.36 0.04-2.8 1.25-15.79 2.58-18.36-0.04z" fill="#6e5b08"/>
  <path d="m492.02 457.22c4.42-0.17 8.86 0.11 13.31 0.27-4.44 0.31-8.95 0.85-13.31-0.27z" fill="#162c40"/>
  <path d="m609.09 459.37c9.63-0.5 19.3-0.67 28.95-0.08-9.46 2.35-19.38 0.36-28.95 0.08z" fill="#1b3349"/>
  <path d="m869.12 459.26c8.27-0.38 16.57-0.42 24.85-0.04-8.24 1.19-16.62 1.28-24.85 0.04z" fill="#1d334a"/>
  <path d="m397.9 461.93c5.79 0.08 11.58 0.61 17.39 0.88-4.98-1.07-13.96 2.43-17.39-0.88z" fill="#28425a"/>
  <path d="m415.29 462.81c8.32-0.01 16.63 0.52 24.96 0.9-7.17-0.87-20.24 2.69-24.96-0.9z" fill="#09233b"/>
  <path d="m472.97 463.94c17.09 0.2 34.21-0.58 51.27 0.88l-0.98 0.02c-15.99-0.96-36.08 2.35-50.29-0.9z" fill="#253d55"/>
  <path d="m523.26 464.84l0.98-0.02c33.01 0.87 66.06-0.87 99.04 0.9-32.65-0.38-69.6 2-100.02-0.88z" fill="#041b33"/>
  <path d="m756 465.97c44.76 0.55 89.57-1.02 134.3 0.84-44.36-0.35-91.61 1.58-134.3-0.84z" fill="#1d364c"/>
  <path d="m890.3 466.81c44.23 0.44 88.46 0.09 132.7 0.16v1c-43.74-0.76-91.18 1.66-132.7-1.16z" fill="#00142a"/>
  <path d="m1023 466.97c44.1 0.57 88.2-1.01 132.3 0.81-44.1 0.46-88.2 0.15-132.3 0.19v-1z" fill="#2f5174"/>
  <path d="m399.88 469.03c9.4-1.79 20.91 0.48 31.19 0.14l-0.38 0.93c-0.74 0.04-2.23 0.12-2.97 0.16-9.3-0.14-18.59-0.37-27.84-1.23z" fill="#c0a42f"/>
  <path d="m1156.3 467.82c42 0.93 84-0.99 126 1-41.6-0.37-86.8 1.65-126-1z" fill="#182d44"/>
  <path d="m396.12 470.8c-0.42-2.41 2.26-1.71 3.76-1.77 9.25 0.86 18.54 1.09 27.84 1.23 15.73 1.2 31.5 0.7 47.26 0.78 14.58 0 29.17-0.2 43.76 0.15 54.71 2.09 109.49 1.88 164.25 1.85 29.92 0.04 59.85-0.24 89.77 0.1 61.91 2.08 123.93 0.13 185.88 0.98 59.36 2.05 118.96 0.28 178.36 0.9 23.6 0.12 47.1-0.3 70.7 0.14 24 1.83 48 0.33 72 0.92 20.4 1.88 40.9 0.54 61.4 0.95 12-0.18 24-0.24 36 0.66-11.3 4.19-22.6 11.58-35.1 12.33-32.6-0.17-65.2 0.22-97.7-0.2-45.4-1.91-90.9-0.26-136.3-0.86-30.9-0.06-61.8 0.28-92.7-0.16-31.32-1.9-62.69-0.13-94.01-0.95-32.05-1.92-64.2-0.32-96.28-0.89-32.58-0.06-65.16 0.28-97.73-0.16-25.27-1.82-50.61-0.19-75.91-0.98-64.08-1.92-128.26-0.27-192.37-0.83-3.69-0.05-7.32 0-10.99 0.01-2.64-0.06-5.27-0.13-7.88-0.21-3.76-0.18-7.51-0.37-11.25-0.56-11.43-3.05-21.89-8.89-32.76-13.43z" fill="#fbca03"/>
  <path d="m431.07 469.17c13.91 0.74 31.77-2.2 43.95 0.87-14.78-0.01-29.55-0.17-44.33 0.06l0.38-0.93z" fill="#473500"/>
  <path d="m1282.3 468.82c36 2.33 75.1-3.69 109.3 2.87-35.3-4.89-75.6 1.18-109.3-2.87z" fill="#000919"/>
  <path d="m427.72 470.26c0.74-0.04 2.23-0.12 2.97-0.16 14.78-0.23 29.55-0.07 44.33-0.06l-0.04 1c-15.76-0.08-31.53 0.42-47.26-0.78z" fill="#f0c72a"/>
  <path d="m475.02 470.04c14.73 0.51 33.45-1.47 45.71 1.09-0.5 0.02-1.49 0.04-1.99 0.06-14.59-0.35-29.18-0.15-43.76-0.15l0.04-1z" fill="#9c7f03"/>
  <path d="m518.74 471.19c0.5-0.02 1.49-0.04 1.99-0.06 15.64-0.2 31.31-0.44 46.96 0.19 38.41 1.59 76.88 0.19 115.32 0.72l-0.02 1c-54.76 0.03-109.54 0.24-164.25-1.85z" fill="#edc731"/>
  <path d="m567.69 471.32c37.96 0.16 79.02-1.78 115.32 0.72-38.44-0.53-76.91 0.87-115.32-0.72z" fill="#594500"/>
  <path d="m683.01 472.04c30.36 0.07 60.75-0.37 91.09 0.17l-0.35 0.93h-0.99c-29.92-0.34-59.85-0.06-89.77-0.1l0.02-1z" fill="#ae8e0d"/>
  <path d="m774.1 472.21c61.35 0.4 125.08-1.8 185.08 0.99-61.81-0.38-123.62-0.25-185.43-0.06l0.35-0.93z" fill="#1a0b00"/>
  <path d="m772.76 473.14h0.99c61.81-0.19 123.62-0.32 185.43 0.06l1 0.07-0.55 0.83-0.99 0.02c-61.95-0.85-123.97 1.1-185.88-0.98z" fill="#e7c844"/>
  <path d="m960.18 473.27c58.62 0.06 119.82-1.48 176.82 0.75-59.1 0.02-118.2-0.14-177.37 0.08l0.55-0.83z" fill="#695603"/>
  <path d="m958.64 474.12l0.99-0.02c59.17-0.22 118.27-0.06 177.37-0.08v1c-59.4-0.62-119 1.15-178.36-0.9z" fill="#f0c827"/>
  <path d="m1137 474.02c23.7 0.16 47.4-0.47 71.1 0.23l-0.4 0.91c-23.6-0.44-47.1-0.02-70.7-0.14v-1z" fill="#bd9d16"/>
  <path d="m1208.1 474.25c23.7 0.24 49.7-1.79 72.1 0.95-24.2-0.39-48.3-0.23-72.5-0.04l0.4-0.91z" fill="#351f00"/>
  <path d="m1207.7 475.16c24.2-0.19 48.3-0.35 72.5 0.04l-0.5 0.88c-24-0.59-48 0.91-72-0.92z" fill="#e9c73f"/>
  <path d="m1280.2 475.2c19.9 0.18 42.5-1.49 60.8 0.83-20.4-0.07-40.9-0.05-61.3 0.05l0.5-0.88z" fill="#7b640c"/>
  <path d="m1279.7 476.08c20.4-0.1 40.9-0.12 61.3-0.05l0.1 1c-20.5-0.41-41 0.93-61.4-0.95z" fill="#f1c824"/>
  <path d="m1341 476.03c12.9 0.02 25.9-0.3 38.8 0 3.9 0.61-1.2 2.02-2.7 1.66-12-0.9-24-0.84-36-0.66l-0.1-1z" fill="#cdac23"/>
  <path d="m428.88 484.23c3.74 0.19 7.49 0.38 11.25 0.56-3.8 0.24-7.55 0.05-11.25-0.56z" fill="#715b08"/>
  <path d="m448.01 485c3.67-0.01 7.3-0.06 10.99-0.01l-0.01 1c-4.56 0.69-8.22 0.36-10.98-0.99z" fill="#b59710"/>
  <path d="m459 484.99c64.11 0.56 128.29-1.09 192.37 0.83l-0.99 0.02c-63.8 0.35-127.6 0.08-191.39 0.15l0.01-1z" fill="#f1c928"/>
  <path d="m458.99 485.99c63.79-0.07 127.59 0.2 191.39-0.15l-0.52 0.86c-63.28 0.03-129.18 1.46-190.87-0.71z" fill="#5f4b00"/>
  <path d="m650.38 485.84l0.99-0.02c25.3 0.79 50.64-0.84 75.91 0.98l-0.99 0.03c-25.47 0.08-50.99 0.63-76.43-0.13l0.52-0.86z" fill="#e7c647"/>
  <path d="m726.29 486.83l0.99-0.03c32.57 0.44 65.15 0.1 97.73 0.16l-0.03 1c-32.27-0.81-68.71 1.78-98.69-1.13z" fill="#a38307"/>
  <path d="m825.01 486.96c32.08 0.57 64.23-1.03 96.28 0.89l-0.99 0.01c-31.77 0.26-63.55 0.13-95.32 0.1l0.03-1z" fill="#f0c929"/>
  <path d="m824.98 487.96c31.77 0.03 63.55 0.16 95.32-0.1l-0.43 0.9c-31.09-0.36-65.46 1.81-94.89-0.8z" fill="#4e3c00"/>
  <path d="m920.3 487.86l0.99-0.01c31.32 0.82 62.69-0.95 94.01 0.95l-1 0.03c-31.48 0.2-62.98 0.43-94.43-0.07l0.43-0.9z" fill="#d8bb40"/>
  <path d="m1014.3 488.83l1-0.03c30.9 0.44 61.8 0.1 92.7 0.16v1c-30.6-0.83-65.4 1.8-93.7-1.13z" fill="#927300"/>
  <path d="m1108 488.96c45.4 0.6 90.9-1.05 136.3 0.86l-2 0.04c-44.8 0.3-89.5 0.1-134.3 0.1v-1z" fill="#efc82b"/>
  <path d="m1108 489.96c44.8 0 89.5 0.2 134.3-0.1l-0.4 0.89c-44.3-0.2-91.3 1.6-133.9-0.79z" fill="#3d2b00"/>
  <path d="m1242.3 489.86l2-0.04c32.5 0.42 65.1 0.03 97.7 0.2-31.6 2.08-67.1 0.74-100.1 0.73l0.4-0.89z" fill="#c7aa36"/>
  <path d="m455.28 491.85c18.81 0.38 37.63-0.25 56.44 0.43 37.6 2.28 75.38-1.01 112.95 1.67-55.07 0.83-110.09-0.16-165.12-0.6 2.07 1.65 4.17 3.27 6.31 4.85-3.43-1.59-10.94-2-10.58-6.35z" fill="#020250"/>
  <path d="m511.72 492.28c80.03-1.35 160.12 1.95 240.03 0.04 1.12 1.66 6.79-1.06 7.34 1.75-9.79-0.02-19.56-0.01-29.33 0.14-35.03-0.52-70.06-0.01-105.09-0.26-37.57-2.68-75.35 0.61-112.95-1.67z" fill="#01012a"/>
  <path d="m459.55 493.35c55.03 0.44 110.05 1.43 165.12 0.6 35.03 0.25 70.06-0.26 105.09 0.26 91.61 0.53 183.03 4.03 274.64 2.12 19.8-0.78 39.7-0.09 59.6-0.32 33.6 0.19 67.2-0.4 100.8 0.23 36 2.68 72.1 0.46 108.2 1.77 12.1 0.99 27.2-1.83 38 0.83-5.9 6.92-18.2 7.47-27 10.13-45.5 8.99-89.6 25-135.8 30.23-24 4.99-48 11.33-72.6 11.27-53.3 14.42-109.13 6.57-163.54 10.74-31.32 6.07-62.37-9.25-93.22-1.23-47.94-4.71-96.26-7.11-143.86-15.04-10.49-4.87-22.02-0.42-32.74-4.13-19.79-5.76-41.14-7.2-59.78-16.01-39.67-3.81-78.38-16-116.6-26.6-2.14-1.58-4.24-3.2-6.31-4.85z" fill="#010163"/>
  <path d="m729.76 494.21c9.77-0.15 19.54-0.16 29.33-0.14 33.86 0.08 67.74-0.49 101.6 0.25 47.88 1.31 95.8 0.29 143.71 2.01-91.61 1.91-183.03-1.59-274.64-2.12z" fill="#020255"/>
  <path d="m860.69 494.32c67.45-0.8 137.48 0.2 203.31 1.69-19.9 0.23-39.8-0.46-59.6 0.32-47.91-1.72-95.83-0.7-143.71-2.01z" fill="#010134"/>
  <path d="m1164.8 496.24c35.7-0.47 74.2-0.59 108.2 1.77-36.1-1.31-72.2 0.91-108.2-1.77z" fill="#01013e"/>
  <path d="m671.92 551.56c3.98 0.29 7.9-1.32 11.84 0.35-3.96-0.12-7.91-0.24-11.84-0.35z" fill="#585744"/>
  <path d="m740.8 560.17c2.81 0.14 5.52 0.39 8.37 0.67-2.79-0.15-5.64-0.49-8.37-0.67z" fill="#67664c"/>
  <path d="m1008.7 565.65c3.2 0.07 6.3-0.09 9.5-0.28-3.1-0.07-6.4 0.19-9.5 0.28z" fill="#464733"/>
  <path d="m940.6 567.7c6.88-1.25 13.85-0.78 20.83-0.27-6.92 0.84-13.91 0.72-20.83 0.27z" fill="#5c5b47"/>
  <path d="m877.86 568.94c0.52-0.2 1.55-0.59 2.06-0.79 2.72 0.23 5.59 0.65 8.39 0.75 1.85 0.12 3.7 0.17 5.57 0.33 2.39 0.17 4.8 0.37 7.24 0.6 0.4 4.47 1.55 8.93 1.47 13.46 0.19 6.21 0.36 12.44 0.38 18.68 0.77 14.17-1.46 29.08 2.07 42.9 11.87 20.97 16.49 46.21 34.8 63.29 9.21 7.05-5.72 9.9-10.8 8.87-21.68-0.06-43.34-0.08-65.01 0.01-9.27-0.77-18.15-4.07-27.19-6.04 9.75-10.01 18.67-21.67 26.75-31.82 2.81-33.23 10.71-65.83 13.63-99.08 0.19-3.73 0.41-7.45 0.64-11.16z" fill="#faca03"/>
  <path d="m879.92 568.15c2.74 0.07 5.98-0.91 8.39 0.75-2.8-0.1-5.67-0.52-8.39-0.75z" fill="#a9880e"/>
  <path d="m877.22 580.1c-0.36-3.83-0.14-7.55 0.64-11.16-0.23 3.71-0.45 7.43-0.64 11.16z" fill="#ac9128"/>
  <path d="m893.88 569.23c2.59 0.21 6.21-1.3 8.15 0.66l-0.91-0.06c-2.44-0.23-4.85-0.43-7.24-0.6z" fill="#6e5905"/>
  <path d="m868.25 570.3c0.61 2.77 0.61 6.05 0.01 9.82 0.08-3.26-0.05-6.59-0.01-9.82z" fill="#4f4f3f"/>
  <path d="m901.12 569.83l0.91 0.06c4.04 1.19 0.61 8.5 0.74 12.45l-0.18 0.95c0.08-4.53-1.07-8.99-1.47-13.46z" fill="#cbae2e"/>
  <path d="m902.77 582.34c2.18 3.75 1.27 13.3 1.19 19.73l-0.99-0.1c-0.02-6.24-0.19-12.47-0.38-18.68l0.18-0.95z" fill="#866a00"/>
  <path d="m910.49 593.66c-0.62 4.52 0.43 9.04 0.11 13.61 0.34-4.54-0.55-9.08-0.11-13.61z" fill="#6d6d52"/>
  <path d="m902.97 601.97l0.99 0.1c-0.42 9.12 0.18 18.22 0.69 27.32 0 5.14 0.63 10.32 0.39 15.48-3.53-13.82-1.3-28.73-2.07-42.9z" fill="#ddbc2d"/>
  <path d="m903.96 602.07c2.68 6.62 0.43 18.65 0.69 27.32-0.51-9.1-1.11-18.2-0.69-27.32z" fill="#322100"/>
  <path d="m911.38 619.82c0.28 7.4 0.7 14.81 0.3 22.24-1.13-7.38-0.52-14.84-0.3-22.24z" fill="#2a2818"/>
  <path d="m864.03 717.04c21.67-0.09 43.33-0.07 65.01-0.01-19.69 1.65-45.43 1.64-65.01 0.01z" fill="#ecc730"/>
 </g>
</svg>
