<?xml version="1.0" encoding="UTF-8"?>
<svg width="1234pt" height="1479pt" version="1.1" viewBox="0 0 1234 1479" xmlns="http://www.w3.org/2000/svg">
 <defs>
  <filter id="a" color-interpolation-filters="sRGB">
   <feColorMatrix values="1 0 0 0 0 0 1 0 0 0 0 0 1 0 0 0 0 0 1000 -500 "/>
  </filter>
 </defs>
 <g filter="url(#a)">
  <path d="m566.1 0h15.86l0.08 0.99c-5.38 0.04-10.72 0.06-16.08-0.01l0.14-0.98z" fill="#5f5f4b"/>
  <path d="m459.23 37.58c19.52-38.86 70.6-30.68 106.73-36.6 5.36 0.07 10.7 0.05 16.08 0.01 18.25-0.4 36.46 1.19 54.71 1.15 2.75 0.21 5.62 0.48 8.42 0.73 20.24 2.4 40.6 4.5 60.64 8.28 33.73 12.26 67.23 25.31 101.78 35.24 29.75 12.08 58.91 25.59 88.13 38.89 39.29 15.34 79.19 40.49 93.94 82.12 9.39 37.43 16.34 75.54 9.33 113.88 1.51 26.52 2.51 53.8 9.01 79.64 77.4 70.01 160.2 142.96 197.6 243.44 8.7 37.04 21.9 73.42 25.8 111.35-0.3 4.16 0 8.35 0.3 12.53 0.6 8.24 0.9 16.5 1.3 24.77v32.92c-2.6 52.25-16.4 103.14-28 154.07-32.7 92.7-86 176.2-140.7 257.3-28.8 34.9-57.6 69.8-86.15 104.8-35.61 39.2-77.42 72.6-121.02 102.1 9.62 20.1-6.06 41.2-25.47 47.5-15.33 3.5-29.05 12.1-44.71 14.3-41.59 3.6-83 9.1-124.7 11.3-3.25-0.4-6.41-0.2-9.57 0.4-5.82 0.1-11.61 0.6-17.36 1.3h-51.7c-6.81-0.7-13.62-1.2-20.45-1.1-3.46-0.5-6.85-0.7-10.3-0.8-29.99-1.9-60.17-3.9-89.33-11.7-18.9-2.5-39.28-7.8-52.08-22.9-3.63-8.5-0.34-18.9 5.49-25.7-34.91-25-67.76-52.8-102.18-78.6-27.91-19.3-49.32-46-73.52-69.4-37.17-37.3-73.91-75.2-106.07-117-43.72-51.3-73.03-113.4-102.07-173.15-3.58-25.38-18.56-47.72-21.43-73.3-5.09-29.9-9-60.02-10.73-90.31 0.07-13.03 0.1-26.06 0.04-39.08-0.07-11.42-0.15-22.85 1.03-34.21 3.03-0.13 4.67 1.41 4.36 4.49-0.14 7.25-0.72 14.5-1.55 21.72-0.8 5.36-1.2 10.81-0.15 16.2 0.15 1.66 0.47 4.98 0.63 6.64 0.19 2.75 0.05 5.66 0.38 8.46 0.17 3.79 0.38 7.59 0.63 11.41-0.07 7.79-1.31 15.81 0.36 23.53 4.28 27.02 8.32 54.09 13 81.05 32.5 112.95 99.62 213.85 178.05 301.05 70.94 71.5 142.15 145.7 230.71 195.4 31.36 7.5 63.19 13.1 94.59 20.4 11.89 1.8 23.96 0.6 35.94 0.9h104c4.38-0.1 8.91 0.3 13.25-0.6 58.6-8.5 120.45-8.8 174.95-33.4 47.43-27.9 86.95-66.7 125.57-105.3 33.96-47.6 78.06-87.7 107.26-138.7 43.4-69.2 91.5-137.8 113.5-217.5 9.4-40.29 22.1-80.14 24.7-121.64 0.4-4.96 0.8-9.89 0.6-14.86 0.5-6.08 4-11.33 5.5-17.14 0.8-3.97 1.2-8.11 0-12.02-0.2-2.56-0.4-5.1-0.5-7.63-0.2-3.72-0.5-7.43-0.8-11.12 0.1-3.53 0.4-7.02-0.8-10.39-0.1-3.83-0.3-7.64-0.5-11.43 0.4-3.55 0.6-7.07-0.4-10.49-11.4-66.64-25.6-136.28-68.5-190.68 16 46.63 31.4 94.16 34.4 143.76-0.3 7.09-0.3 14.22 0.6 21.31 1.4 18.38 4.9 36.61 9 54.58-1.3 2.37-3.6 3.94-5.8 5.23-12.5-22.38-24-45.24-34.3-68.65-32.9-82-81.4-156.11-126.1-231.87-2.7-3.23-3.5-8.85-7.6-10.44 2.8 19.5 10.8 37.73 16.6 56.46 24.2 101.69 41.6 204.93 56.3 308.38-0.7 3.61-6.9 4.1-7.8 0.01-6.1-11.58-11.3-23.63-16.5-35.65 7.5-9.82 6.5 12.86 13.9 11.08l0.6-0.5c1.2-16.41-4.1-33-5.6-49.44-7.2-35.03-8.8-71.49-20.6-105.57-2.5-29.49-11.2-57.52-14.6-86.68-13.2-41.77-21.2-85.15-39.2-125.41-1.8-4.11-7.9-0.43-9.9 1.35-12.7 9.5-29.66 9.34-42.18 19.06 2.28-2.75 4.58-5.5 7.02-8.12 23.06-10.69 46.16-22.05 67.76-35.31-1.4-6.47-10.5-9.25-15.8-12.69-24.14 14.3-49.63 25.12-75.71 35.31 6.46-11.53 20.58-13.44 30.83-20.19 13.4-9.3 32.98-7.65 41.88-22.83-8.8-12.53-22.37-3.43-33.22 0.69-6.67 0.79-13.44 0.48-20.06 1.42-9.49 3.56-15.8 14.44-26.79 13.57-15.04 13.43-35.72 18.18-54.67 23.25-90.67 38.22-190.5 48.55-288.02 53.02-13.49-0.29-26.97-0.4-40.45-0.02-41.7-2-83.35-5.59-124.73-11.08-42.75-11.81-87.65-18.01-129.47-33.71-18.37-9.32-36.87-18.25-55.93-26.06-4.84-1.63-6.83-4.31-2.38-7.51 5.17 1.84 10.07 4.41 15.39 5.85 34.07-30.83 73.05-56.63 110.32-83.8 8.68-4.58 7.42-7.72-2-1-31.52 18.01-62.41 37.08-93.81 55.28 4.77-5.52 9.75-10.85 14.79-16.12 40.63-25.47 81.97-49.85 123.8-73.31 28.96-14.88 61.01-30.71 75.26-61.87 6.91-25.65 15.24-51.47 13.29-78.47 3.28-24.1-3.02-53.21-25.01-66.69-8.12-7.26-9.88-18.86-11.08-29.14m114.82-30.57c-4.2 0.73-9.82-0.25-13.24 1.92-26.27 3.1-53.57 4.3-78.53 13.35-18.85 9.78-16.25 36.91 1.14 46.34 24.46 7.23 47.85 20.88 74.36 17.36 1.8 2.18 5.63 0.6 8.24 0.81 1.32 2.37 5.67 0.77 8.19 0.99 1.64 0.05 4.91 0.16 6.54 0.21 1.85 2.19 5.79 0.57 8.46 0.76 1.7 0.07 5.1 0.19 6.79 0.26 2.78 1.27 6.45 1.59 11 0.95 0.49 1.82 7.51 1.82 8 0.01 3.34 0.05 6.63 0.1 10.01-0.01 2.39-0.59 8.89 2.3 8.92-0.95 6.97-0.43 13.88-1.55 20.82-2.45 2.56 0.07 6.85 1.73 8.37-0.58 2.51 0.03 5.02-0.07 7.54-0.31 3.05-0.15 8.89 2.26 10.42-0.67 12.21-0.54 22.47-8.87 34-12.17 6.63 0.42 13.26 0.14 19.91-0.17 19.42 8.87 39.86 15.14 60.3 21.06 33.78 18.2 72.31 28.84 101.63 54.4 24.41 13.71 36.37 42.5 42.42 68.65-0.22 4.56-1.83 11.43 0.66 14.23-0.01 5.26 0.59 10.53 1.37 15.74-0.43 4.4-0.3 8.84-0.05 13.26-10.04 20.12-16.63 42.77-33.36 58.33-1.69-0.19-1.93 9.24 0.03 8.43 2.22 20.66 23.11 35.6 42.07 40.2 1.61 2.64 7.46-0.11 10.16 0.82 0.48 0.03 1.45 0.1 1.93 0.13 0.02 1.93 9.18 1.99 8.79 0.13 10.09-1.24 23.36-1.33 27.83-12.2-2.13-15.87-5.27-31.61-6.07-47.64-0.64-4.65 1.99-13.14-0.94-16 0.3-3.47-0.02-6.98-0.09-10.43 0.78-5.93 2.6-11.74 2.32-17.79 2.59-0.91 0.17-6.64 0.97-8.98-0.15-6.59 1.26-15.1-0.94-20.04-2.82-36.45-5.09-78.16-36.2-102.78-9.45-17.32-29.7-19.96-44.69-30.31-19.83-15.92-46.93-16.5-67.31-31.7-52.7-21.22-106.55-40.09-161.06-56.11-2.31-2.99-10.64 0.06-14.72-0.76-8.8-3.95-18.59-3.71-28.03-3.25-2.29-3.16-10.26-0.01-14.23-0.87-1.21-3.32-9.74 0.07-13.01-0.95-3.56-0.34-7.2-0.26-10.75-0.21-1.15-2.71-7.59-0.01-10.01-1-4.09-1.85-15.91-1.82-19.96-0.01m146.25 75.32c-15.37 6.47-21.43 23.9-26.51 38.49-10.1 50.98 20.82 98.15 55.5 131.91 47.76 26.15 97.46 49.88 150.54 62.98 15.1-17.12 28.08-38.83 32.17-61.47 2.15-1.89 0.55-5.76 0.78-8.43 1.55-13.63-2.69-26.74-5.84-39.78-4.06-30.21-29.81-50.93-54.04-65.97-49.77-21.3-99.53-51.37-152.6-57.73m-225.14 0.45c14.58 25.58 6.2 56.4 4.81 84.17-1.09 3.36-1.31 7.07-0.68 11.12-10.03 22.08-10.01 50.33-32.32 65.02 29.7 10.15 62.57 14.1 94.01 17.87 2.08 3.24 9.6-0.24 13.26 0.79 17.46 0.34 34.99 0.62 52.44-0.11 5.74 0.4 14.44 1.57 18.19-0.65 27.18-5.42 56.42-5.24 81.82-17.27-2.26-7.45-9.35-13.33-13.1-20.3-30.83-37.78-41.15-95.76-11.48-137.26-8.31 3.42-16.7 6.26-25.85 6.26-2.58-0.03-6.86-1.72-8.38 0.6-12.52 0.94-25.04 1.81-37.5 3.36-4.53-0.5-9.11-0.31-13.63-0.2-3.44-3.42-14.32-0.06-19.96-0.92-6.59-0.58-13.22-0.27-19.8-0.25-8.38-3.11-22.91 0-33.15-0.73-16.54-2.44-32.32-8.2-48.68-11.5m-37.56 168.58c-9.06 5.24-19.47 11.56-26.48 18.51 37.32 11.17 75.98 16.19 114.73 19.07 1.69 2.23 5.72 0.61 8.34 0.86 3.2 0.28 6.36 0.11 9.6 0.25 3.45 1.09 7.24 1.32 11.36 0.71 1.26 2.86 7.59 0.11 10.13 1.01 3.79 0.41 7.58 0.38 11.37-0.1 7.33 0.31 18.02 1.49 23.12-0.67 5.27-0.73 10.62-0.88 15.91-1.37 2.9-0.11 9.18 2.28 10.24-0.71 38.06-3.17 77.6-6.28 112.97-20.01-5.41-6.98-15.64-11.61-23.24-16.82-27.02 3.82-53.6 12.84-80.54 16.91-3.36-0.13-6.79-0.13-10.1 0.05-3.28 0.37-10.98-1.45-11.7 1.15-4.24-0.63-8.06-0.37-11.48 0.78-3.57 0.09-7.2 0.03-10.75 0.09-1.71-2.74-7.58 0.1-10.26-0.83-1.19-2.84-7.63-0.14-10.07-1.04-3.2-0.29-6.48-0.17-9.66-0.15-1.76-2.69-7.64 0.11-10.36-0.8-3.5-0.38-7.07-0.26-10.56-0.29-3.47-1.1-7.25-1.32-11.34-0.66-30.58-4.26-60.76-12.1-91.23-15.94m314.78 22.78c-3.36 5.97-11.63 1.17-16.81 4.38-31.27 11.71-64.79 15.28-97.84 18.29-36.26 2.25-72.84 5.66-109 0.35-43.35 0.37-84.52-13.78-126.75-21.13-7.69 0.55-16.51 7.38-20.56 11.55 75.25 31.39 158.23 38.65 238.98 36.87 54.26-8.24 112.87-3.5 160.71-34.53-7.96-8.48-22.41-7.71-28.73-15.78m-385.39 17.05c-13.07 8.29 5.69 1.68 0 0m9.55 6.27c-47.76 26.14-90.29 61.29-132.24 95.95-4.89 5.08 4.58 10.35 8.35 7.28 42.68-34.41 86.09-67.95 128.22-103-1.08-0.06-3.24-0.18-4.33-0.23m411.8-0.2c-3.45 2.34 2.1 4.96 3.54 6.89 27.79 31.86 56.09 63.35 84.48 94.69 9.85-2.7 22.3-4.85 27.55-14.79-39.66-26.96-73.9-63.49-115.57-86.79m-397.58 4.18c-45.65 32.65-89.69 68.01-130.71 104.52 7.78 5.2 18.16 8.09 26.76 11.98 37.88-34.32 71.14-73.64 105.28-111.73 2.43-2.19 6.6-8.58-1.33-4.77m386.64 0.91c-3.17 1.58-11.05 3.7-7.04 8.25 25.37 33.43 50.83 67.12 78.85 98.28 6.23-1.91 13.89-3.13 18.69-6.96-29.48-32.64-58.7-70.22-90.5-99.57m-372.7 3.68c-35.37 37.87-70.39 76.2-106.65 113.16 3.98 3.09 16.52 9.53 20.23 1.06 31.46-37.02 66.44-70.99 97.39-108.44 6.44-6.4-7.6-4.46-10.97-5.78m413.78 0.18c27.55 24.46 59.75 50.13 91.37 72 4.72 6.26 12.39-1.19 14.9-5.06-15.72-2.49-24.31-16.83-36.01-25.87-7.96-6.57-4.47-23.15-16.58-24.36-17.75-5.85-35.57-12.77-53.68-16.71m-59.27 2.18c-3.25 1.77-9.1 1.83-10.2 5.56 17.86 36.64 42.11 70.5 58.13 107.95 10.33-3.15 23.33-2.08 30.86-11.05-26.05-34.06-53.16-69.08-78.79-102.46m-331.57 4.98c-36.92 35.51-69.58 76.09-104.56 113.55 9.88 6.32 23.13 7.75 34.11 9.48 25.31-39.7 51.46-79.05 77.9-118.1 4.93-4.92-4.91-4.54-7.45-4.93m19.59 3.63c-28.49 40.17-56.98 80.36-83.17 122.07 6.6 3.27 19.38 4.59 22.03-5.2 21.58-38.9 47.67-75.02 70.95-112.86-2.8-2.19-6.46-2.99-9.81-4.01m287.31 0.47c-2.33 0.26-6.96 0.59-5.05 4.03 11.13 28.16 23.64 55.79 35.24 83.77 3.2 9.09 6.87 18.52 13.65 25.53 7.42-1.25 14.51-5.11 21.62-7.78-19.81-35.34-38.56-71.89-60.46-105.9-1.25 0.09-3.75 0.26-5 0.35m-16.96 2.99c-4.38 1.54-8.54 3.71-12.66 5.81 2.29 9.92 9.29 18.25 10.17 28.64 3.64 29.1 17 58.07 24.71 84.76 9.21-2.54 18.88-2.73 28.11-4.94-12.81-37.18-29.99-73.49-44.14-110.49-0.9-2.55-2.18-6.35-6.19-3.78m-251.84 1.74c-6.39 3.43-8.23 11.46-12.89 16.65-20.46 35.65-46.48 68.4-62.88 106.21 10.25 2.4 21.02 3.5 31.52 4.69 22.4-38.01 40.9-78.56 59.96-118.38 4.94-11.06-8.24-10.6-15.71-9.17m29.56 3.01c-23.46 39.8-42.21 84.32-64.08 125.76 6.34 0.22 14.66 4.5 19.65-0.22 17.99-40.24 32.77-81.92 50.98-122.08 1.24-3.83-4.03-3.16-6.55-3.46m192.43 0.09c-6.31 1.41-2.75 10.5-0.52 14.6 7.77 32.89 14.01 66.17 20.47 99.33 2.24 11.36 15.51 1.4 22.14 1.47-9.29-37.86-21.35-75.66-32.27-113.29-0.57-4.8-6.97-1.46-9.82-2.11m-180.04 6.53c-14.17 40.75-33.73 79.36-47.61 120.2 1.37 1.58 4 0.73 5.9 0.96 2.91 2.98 10.86-0.16 15.31 0.77 4.05 0.34 8.12 0.37 12.2 0.08 11.55-41.49 23.12-83.03 33.31-124.86-6.12 0.73-17.39-6.29-19.11 2.85m149.71-3.79c0.12 38.27 9.6 79.05 14.29 118.18 0.24 7.44 9.53 0.72 13.59 2 4.57-0.36 19.52 0.71 15.75-8.2-12.07-33.82-11.71-70.53-23.8-104.3-1.55-1.97-0.01-9.47-4.16-8.53-4.39 0.68-13.52-1.79-15.67 0.85m-24.3 3.24c3.46 29.76 4.99 59.76 9.22 89.45 0.95 3.29-1.24 8.85 1.59 11.47 0.82 6.96 2.35 13.85 3.22 20.79 5.61-0.46 11.19-1.25 16.77-2.01-4.94-40.53-11.81-80.8-16.39-121.36-4.46-1.73-9.75 1.39-14.41 1.66m-99.08 0.73c-11.71 41.31-23.24 82.83-32.03 125.04 1.23-0.06 2.45-0.2 3.68-0.41 5.79 0.42 11.62 0.38 17.44 0.17 4.68 0.67 3.1-7 4.59-10.15 5.84-38.61 17.67-76.52 19.21-115.64-1.77-2.03-11.66-2.94-12.89 0.99m23.28-1.07c-1.42-0.07-2.21 0.63-2.36 2.11-7.09 41.34-14.9 82.66-22.84 123.88 6.59 0.99 13.18 2.3 19.89 2.08 0.55 1.84 7.9 1.54 7.5 0.01 9.89-1.81 4.91-15.87 8.1-22.4 1.82-27.31 7.89-54.18 9.36-81.49 2.5-1.81 0.1-6.71 0.82-9.4 2.07-8.9 0.38-17.72-10.92-14.76-3.42-1.82-6.6-1.82-9.55-0.03m27.99 7.64c-0.63 40.04-10.49 79.4-11.25 119.33 3.52 2.87 15.44 1.23 18.9 0.05 2.85-6.14 0.9-17.81 2.04-25.9 3.32-1.84-0.48-9.09 0.74-12.29 1.48-29.44 3.95-58.97 5.9-88.29-6.3-0.68-16.05-1.37-16.33 7.1m21.76 25.37c-2.49 1.69-0.16 6.57-0.77 9.24-0.57 5.92-2.1 11.72-2.34 17.67-1.11 3.42-1.33 7.21-0.66 11.38-0.33 5.57-0.4 11.15-0.26 16.74-2.72 10.11-1.07 28.85 0.04 38.96 11.1 0.48 21.99-2.26 32.94-3.57 4.14-1.77-0.97-6.69-0.43-10.1-0.05-2.73 2.35-7.86-0.59-9.27-3.18-34.34-5.48-68.88-12.36-102.72-20.59-8.27-12.83 20.64-15.57 31.67m390.25 50.65c37.8 55.08 70 113.77 103.6 171.47 22 45.2 42.9 91.25 65.3 136.01 0.6 9.13 4-2.86 0.9-6.16-1-12.6-2.5-25.17-4.5-37.66 0.1-10.2 1.7-23.9-0.6-31.98-12.2-48.61-21.5-98.83-44.6-143.64-28.6-37.4-62.6-70.35-96.6-102.65-6.8 5.01-22 5.52-23.5 14.61m-172.31 994.8c-47.21 16.5-97.12 23.5-146.67 28-2.77 0-7.93-2.4-9.45 0.6-3.51-0.1-7.07 0.1-10.54 0.3-3.54 0.5-10.56-2.1-12.08 1-3.78 0.3-9.88-2.1-12.33 0.7-3.18 0.1-6.49-0.4-9.6 0.3-2.75 0.2-8.07-2.4-9.41 0.7-6.21 0.2-12.43 0.6-18.59 1.4-4.22-0.3-10.81-1.9-13.38 0.6-2.94 0-5.93-0.1-8.82 0-1.96-3.4-9.14 0.4-12.41-0.7-1.65-0.1-4.94-0.2-6.58-0.3-3.4-1.2-7.19-1.5-11.38-0.8-2.91-3.5-13.77-0.1-18.96-0.9-40.06-4.5-79.41-10.9-118.87-19.4-10.91-2.2-10.05 9.3-9.23 16.1 9.43 13.8 26.23 18.1 41.59 21.7 25.14 3.9 50.29 8.3 75.65 10.3 1.9 3.2 9.01-0.5 12.28 0.8 30.67-2.4 60.93 7.4 91.48 2.8 3.03-0.1 8.89 2.2 10.38-0.6 3.19 0 6.37 0.1 9.58-0.3 2.74-0.2 9.69 2 10.08-1 3.01-0.2 8.91 2.2 10.32-0.7 3.2 0 6.4 0.2 9.6-0.3 3.05-0.2 8.92 2.2 10.44-0.7 6.56 0.1 13.07-1.2 19.63-1.4 2.56 0 6.92 1.7 8.39-0.7 41.59-4.8 87.21-8.1 121.94-33.9 3.71-7.2 6.67-19.8-3.06-23.6z" fill="#090703"/>
  <path d="m636.75 2.14c2.82 0.16 5.56 0.47 8.42 0.73-2.8-0.25-5.67-0.52-8.42-0.73z" fill="#494836"/>
  <path d="m574.05 7.01c4.05-1.81 15.87-1.84 19.96 0.01-6.67 0-13.31-0.04-19.96-0.01z" fill="#442f00"/>
  <path d="m560.81 8.93c3.42-2.17 9.04-1.19 13.24-1.92 6.65-0.03 13.29 0.01 19.96 0.01l-0.04 0.99c-11.07-0.26-22.13 0.23-33.16 0.92z" fill="#d5b630"/>
  <path d="m594.01 7.02c2.42 0.99 8.86-1.71 10.01 1-3.4 0.05-6.69 0.06-10.05-0.01l0.04-0.99z" fill="#8b7616"/>
  <path d="m560.81 8.93c11.03-0.69 22.09-1.18 33.16-0.92 3.36 0.07 6.65 0.06 10.05 0.01 3.55-0.05 7.19-0.13 10.75 0.21 3.99 0.33 8.02 0.76 12.05 1 5.03 0.36 10.11 1 15.19 0.82 9.44-0.46 19.23-0.7 28.03 3.25 4.86 0.56 9.81 0.77 14.72 0.76 54.51 16.02 108.36 34.89 161.06 56.11 20.38 15.2 47.48 15.78 67.31 31.7 14.99 10.35 35.24 12.99 44.69 30.31 31.11 24.62 33.38 66.33 36.2 102.78-0.08 6.69-0.12 13.38-0.06 20.08-0.09 2.96 0.02 5.96 0.03 8.94 0.28 6.05-1.54 11.86-2.32 17.79-0.49 3.48-0.45 6.95 0.09 10.43 0.19 5.33 0.45 10.67 0.94 16 0.8 16.03 3.94 31.77 6.07 47.64-4.47 10.87-17.74 10.96-27.83 12.2-3.01-0.06-5.85-0.07-8.79-0.13-0.48-0.03-1.45-0.1-1.93-0.13-3.44-0.38-6.74-0.75-10.16-0.82-18.96-4.6-39.85-19.54-42.07-40.2-0.1-2.84-0.03-5.62-0.03-8.43 16.73-15.56 23.32-38.21 33.36-58.33 0.66-4.37 1.28-8.94 0.05-13.26-0.78-5.21-1.38-10.48-1.37-15.74-0.17-4.73 0.84-9.64-0.66-14.23-6.05-26.15-18.01-54.94-42.42-68.65-29.32-25.56-67.85-36.2-101.63-54.4-20.44-5.92-40.88-12.19-60.3-21.06-6.6-0.9-13.37-1.33-19.91 0.17-11.53 3.3-21.79 11.63-34 12.17-3.54-0.27-7.01-0.27-10.42 0.67-2.52 0.24-5.03 0.34-7.54 0.31-2.85 0.06-5.6 0.13-8.37 0.58-6.94 0.9-13.85 2.02-20.82 2.45-3.02-0.02-5.92-0.06-8.88-0.05-9.69-0.02-19.37 0.03-29.05 0.05-1.69-0.07-5.09-0.19-6.79-0.26-2.87-0.27-5.62-0.65-8.46-0.76-1.63-0.05-4.9-0.16-6.54-0.21-2.78-0.31-5.45-0.69-8.19-0.99-2.79-0.32-5.47-0.74-8.24-0.81-26.51 3.52-49.9-10.13-74.36-17.36-17.39-9.43-19.99-36.56-1.14-46.34 24.96-9.05 52.26-10.25 78.53-13.35m12.47 8.18c-2.29 0.22-6.18-1.28-7.41 0.9-12.52 1.47-25.04 3.29-37.62 4.42-2.58-0.06-6.83-1.73-8.39 0.59-16.52-2.44-33.17 18.18-19.64 31.82 22.72 11.19 49 10.57 73.61 14.15 1.74 2.2 5.71 0.55 8.34 0.8 2.93 0.24 5.82 0.21 8.81 0.21l0.03 1c4.01 2.39 16.85 1.38 20.98 0.02l1.02-1.02c4.21-0.03 8.47 0.32 12.67-0.33 2.78-0.15 7.96 2.33 9.42-0.67 23.43-3.16 49.73 0.48 70.55-12.33 6.78-8.14 1.08-23.1-9.82-24.52-16.94-4.9-34.22-9.77-51.83-11.12-3.41-2.83-11.29-0.09-16.09-0.78-1.33-2.68-6.72-0.36-9.2-1.07-2.85-0.2-5.77-0.12-8.57-0.16-1.83-2.43-6.61-0.16-9.25-0.79-1.05-2.54-5.79-0.59-8.22-1.14-2.68-1.78-16.7-1.95-19.39 0.02z" fill="#f9c904"/>
  <path d="m614.77 8.23c3.27 1.02 11.8-2.37 13.01 0.95l-0.96 0.05c-4.03-0.24-8.06-0.67-12.05-1z" fill="#563d00"/>
  <path d="m626.82 9.23l0.96-0.05c3.97 0.86 11.94-2.29 14.23 0.87-5.08 0.18-10.16-0.46-15.19-0.82z" fill="#9e8621"/>
  <path d="m670.04 13.3c4.08 0.82 12.41-2.23 14.72 0.76-4.91 0.01-9.86-0.2-14.72-0.76z" fill="#3d2a00"/>
  <path d="m573.28 17.11c2.69-1.97 16.71-1.8 19.39-0.02l-0.98 0.02c-5.82-0.03-11.62-0.12-17.41 0.12l-1-0.12z" fill="#eac745"/>
  <path d="m565.87 18.01c1.23-2.18 5.12-0.68 7.41-0.9l1 0.12c-2.74 0.78-5.62 0.83-8.41 0.78z" fill="#a08205"/>
  <path d="m574.28 17.23c5.79-0.24 11.59-0.15 17.41-0.12 3.02 0.45 6.14 0.75 9.2 1.12 3.03 0.36 6.16 0.73 9.25 0.79 2.8 0.04 5.72-0.04 8.57 0.16 3.02 0.33 6.13 0.79 9.2 1.07 5.33 0.55 10.7 0.77 16.09 0.78 17.61 1.35 34.89 6.22 51.83 11.12 10.9 1.42 16.6 16.38 9.82 24.52-20.82 12.81-47.12 9.17-70.55 12.33-3.22-0.17-6.35-0.24-9.42 0.67-4.2 0.65-8.46 0.3-12.67 0.33-7.35-0.12-14.7-0.07-22.03 0-2.99 0-5.88 0.03-8.81-0.21-2.83-0.25-5.54-0.66-8.34-0.8-24.61-3.58-50.89-2.96-73.61-14.15-13.53-13.64 3.12-34.26 19.64-31.82 2.75-0.17 5.62-0.13 8.39-0.59 12.58-1.13 25.1-2.95 37.62-4.42 2.79 0.05 5.67 0 8.41-0.78m-17.98 7.75c-17.64 5.04-38.3 1.66-53.54 13.03-4.36 15.8 18.07 16.55 28.26 18.98 1.73 3.31 9.01-0.49 12.2 0.69 20.87 1.02 41.42 7.21 62.41 4.98 12.86 0.39 28.07 1.34 39.44-0.66 18.38-0.34 37.11-3.16 54.37-9.75 3.84-8.17-4.74-13.31-11.37-15.39-14.04-3.57-27.97-7.66-42.32-9.83-5.08-3.32-17.74 0.15-24.99-0.78-9.59-0.63-19.2-0.18-28.79-0.21-3.52-3.41-13.84 0.22-19.31-0.85-1.42-2.88-14.74-1.41-16.36-0.21z" fill="#0a0601"/>
  <path d="m591.69 17.11l0.98-0.02c2.43 0.55 7.17-1.4 8.22 1.14-3.06-0.37-6.18-0.67-9.2-1.12z" fill="#9e8206"/>
  <path d="m600.89 18.23c2.64 0.63 7.42-1.64 9.25 0.79-3.09-0.06-6.22-0.43-9.25-0.79z" fill="#514001"/>
  <path d="m618.71 19.18c2.48 0.71 7.87-1.61 9.2 1.07-3.07-0.28-6.18-0.74-9.2-1.07z" fill="#957603"/>
  <path d="m627.91 20.25c4.8 0.69 12.68-2.05 16.09 0.78-5.39-0.01-10.76-0.23-16.09-0.78z" fill="#3f2f00"/>
  <path d="m519.86 23.02c1.56-2.32 5.81-0.65 8.39-0.59-2.77 0.46-5.64 0.42-8.39 0.59z" fill="#b4992e"/>
  <path d="m556.3 24.98c1.62-1.2 14.94-2.67 16.36 0.21-5.46-0.12-10.92-0.2-16.36-0.21z" fill="#3f2e00"/>
  <path d="m502.76 38.01c15.24-11.37 35.9-7.99 53.54-13.03 5.44 0.01 10.9 0.09 16.36 0.21 6.41 0.56 12.86 1.08 19.31 0.85 9.59 0.03 19.2-0.42 28.79 0.21 8.29 1.01 16.65 0.78 24.99 0.78 14.35 2.17 28.28 6.26 42.32 9.83 6.63 2.08 15.21 7.22 11.37 15.39-17.26 6.59-35.99 9.41-54.37 9.75-13.12 0.63-26.45-1.3-39.44 0.66-20.99 2.23-41.54-3.96-62.41-4.98-4.09-0.3-8.14-0.48-12.2-0.69-10.19-2.43-32.62-3.18-28.26-18.98z" fill="#b59105"/>
  <path d="m572.66 25.19c5.47 1.07 15.79-2.56 19.31 0.85-6.45 0.23-12.9-0.29-19.31-0.85z" fill="#746217"/>
  <path d="m620.76 26.25c7.25 0.93 19.91-2.54 24.99 0.78-8.34 0-16.7 0.23-24.99-0.78z" fill="#4d3b00"/>
  <path d="m531.02 56.99c4.06 0.21 8.11 0.39 12.2 0.69-3.19-1.18-10.47 2.62-12.2-0.69z" fill="#463201"/>
  <path d="m605.63 62.66c12.99-1.96 26.32-0.03 39.44-0.66-11.37 2-26.58 1.05-39.44 0.66z" fill="#4f4003"/>
  <path d="m573.83 68.99c2.8 0.14 5.51 0.55 8.34 0.8-2.63-0.25-6.6 1.4-8.34-0.8z" fill="#866f13"/>
  <path d="m625.68 69.67c3.07-0.91 6.2-0.84 9.42-0.67-1.46 3-6.64 0.52-9.42 0.67z" fill="#7b670d"/>
  <path d="m590.98 70c7.33-0.07 14.68-0.12 22.03 0l-1.02 1.02c-7.01-0.03-13.99-0.03-20.98-0.02l-0.03-1z" fill="#4d3300"/>
  <path d="m591.01 71c6.99-0.01 13.97-0.01 20.98 0.02-4.13 1.36-16.97 2.37-20.98-0.02z" fill="#eec735"/>
  <path d="m715.08 72.83c6.54-1.5 13.31-1.07 19.91-0.17-6.65 0.31-13.28 0.59-19.91 0.17z" fill="#a48b20"/>
  <path d="m495.16 82.78c16.36 3.3 32.14 9.06 48.68 11.5 10.99 1.27 22.09 0.73 33.15 0.73 6.58-0.02 13.21-0.33 19.8 0.25 6.62 0.65 13.3 0.78 19.96 0.92 4.5 0.25 9.17 1.58 13.63 0.2 12.46-1.55 24.98-2.42 37.5-3.36 2.74-0.15 5.62-0.15 8.38-0.6 9.15 0 17.54-2.84 25.85-6.26-29.67 41.5-19.35 99.48 11.48 137.26 3.75 6.97 10.84 12.85 13.1 20.3-25.4 12.03-54.64 11.85-81.82 17.27-6.06 0.06-12.23-0.62-18.19 0.65-17.45 0.73-34.98 0.45-52.44 0.11-4.44-0.36-8.84-0.74-13.26-0.79-31.44-3.77-64.31-7.72-94.01-17.87 22.31-14.69 22.29-42.94 32.32-65.02 0.33-3.7 0.56-7.41 0.68-11.12 1.39-27.77 9.77-58.59-4.81-84.17z" fill="#cacb32"/>
  <path d="m670.66 85.67c3.41-0.94 6.88-0.94 10.42-0.67-1.53 2.93-7.37 0.52-10.42 0.67z" fill="#785e00"/>
  <path d="m557.78 85.98c2.77 0.07 5.45 0.49 8.24 0.81-2.61-0.21-6.44 1.37-8.24-0.81z" fill="#a98d23"/>
  <path d="m654.75 86.56c2.77-0.45 5.52-0.52 8.37-0.58-1.52 2.31-5.81 0.65-8.37 0.58z" fill="#ae9328"/>
  <path d="m566.02 86.79c2.74 0.3 5.41 0.68 8.19 0.99-2.52-0.22-6.87 1.38-8.19-0.99z" fill="#6b5000"/>
  <path d="m580.75 87.99c2.84 0.11 5.59 0.49 8.46 0.76-2.67-0.19-6.61 1.43-8.46-0.76z" fill="#a68b26"/>
  <path d="m596 89.01c9.68-0.02 19.36-0.07 29.05-0.05l-0.04 1c-3.38 0.11-6.67 0.06-10.01 0.01-2.69-0.06-5.35-0.06-8-0.01-4.55 0.64-8.22 0.32-11-0.95z" fill="#e6c128"/>
  <path d="m625.05 88.96c2.96-0.01 5.86 0.03 8.88 0.05-0.03 3.25-6.53 0.36-8.92 0.95l0.04-1z" fill="#594000"/>
  <path d="m607 89.96c2.65-0.05 5.31-0.05 8 0.01-0.49 1.81-7.51 1.81-8-0.01z" fill="#88711d"/>
  <path d="m667.88 93.02c1.52-2.32 5.8-0.63 8.38-0.6-2.76 0.45-5.64 0.45-8.38 0.6z" fill="#6a6a14"/>
  <path d="m543.84 94.28c10.24 0.73 24.77-2.38 33.15 0.73-11.06 0-22.16 0.54-33.15-0.73z" fill="#73731a"/>
  <path d="m596.79 95.26c5.64 0.86 16.52-2.5 19.96 0.92-6.66-0.14-13.34-0.27-19.96-0.92z" fill="#3c3c05"/>
  <path d="m616.75 96.18c4.52-0.11 9.1-0.3 13.63 0.2-4.46 1.38-9.13 0.05-13.63-0.2z" fill="#858422"/>
  <path d="m499.29 178.07c-0.63-4.05-0.41-7.76 0.68-11.12-0.12 3.71-0.35 7.42-0.68 11.12z" fill="#525113"/>
  <path d="m939.34 216.77c1.5 4.59 0.49 9.5 0.66 14.23-2.49-2.8-0.88-9.67-0.66-14.23z" fill="#aa9127"/>
  <path d="m994.02 234.96c2.2 4.94 0.79 13.45 0.94 20.04l-1 0.04c-0.06-6.7-0.02-13.39 0.06-20.08z" fill="#debf47"/>
  <path d="m932 254.24c0.13-2.82 0.41-5.64 0.78-8.43-0.23 2.67 1.37 6.54-0.78 8.43z" fill="#3e3c2b"/>
  <path d="m941.37 246.74c1.23 4.32 0.61 8.89-0.05 13.26-0.25-4.42-0.38-8.86 0.05-13.26z" fill="#c0a22e"/>
  <path d="m457.6 251.36c30.47 3.84 60.65 11.68 91.23 15.94 3.76 0.37 7.54 0.59 11.34 0.66 3.49 0.03 7.06-0.09 10.56 0.29 3.41 0.35 6.9 0.86 10.36 0.8 3.18-0.02 6.46-0.14 9.66 0.15 3.32 0.34 6.72 0.78 10.07 1.04 3.38 0.34 6.83 0.84 10.26 0.83 3.55-0.06 7.18 0 10.75-0.09 3.81-0.21 7.64-0.47 11.48-0.78 3.9-0.07 7.81-0.12 11.74-0.16 3.21-0.49 7.23 1.15 10.06-1.04 26.94-4.07 53.52-13.09 80.54-16.91 7.6 5.21 17.83 9.84 23.24 16.82-35.37 13.73-74.91 16.84-112.97 20.01-3.48-0.17-6.89-0.14-10.24 0.71-5.29 0.49-10.64 0.64-15.91 1.37-7.69 0.23-15.54-0.88-23.12 0.67-3.79 0.48-7.58 0.51-11.37 0.1-3.41-0.34-6.74-0.76-10.13-1.01-3.79-0.34-7.58-0.57-11.36-0.71-3.24-0.14-6.4 0.03-9.6-0.25-2.83-0.32-5.54-0.66-8.34-0.86-38.75-2.88-77.41-7.9-114.73-19.07 7.01-6.95 17.42-13.27 26.48-18.51z" fill="#f8c906"/>
  <path d="m993.96 255.04l1-0.04c-0.8 2.34 1.62 8.07-0.97 8.98-0.01-2.98-0.12-5.98-0.03-8.94z" fill="#544100"/>
  <path d="m560.98 260.96c4.42 0.05 8.82 0.43 13.26 0.79-3.66-1.03-11.18 2.45-13.26-0.79z" fill="#585807"/>
  <path d="m626.68 261.64c5.96-1.27 12.13-0.59 18.19-0.65-3.75 2.22-12.45 1.05-18.19 0.65z" fill="#575705"/>
  <path d="m548.83 267.3c4.09-0.66 7.87-0.44 11.34 0.66-3.8-0.07-7.58-0.29-11.34-0.66z" fill="#bda231"/>
  <path d="m570.73 268.25c2.72 0.91 8.6-1.89 10.36 0.8-3.46 0.06-6.95-0.45-10.36-0.8z" fill="#8f7001"/>
  <path d="m590.75 269.2c2.44 0.9 8.88-1.8 10.07 1.04-3.35-0.26-6.75-0.7-10.07-1.04z" fill="#473500"/>
  <path d="m633.31 270.2c0.72-2.6 8.42-0.78 11.7-1.15l0.04 0.99c-3.93 0.04-7.84 0.09-11.74 0.16z" fill="#463300"/>
  <path d="m645.01 269.05c3.31-0.18 6.74-0.18 10.1-0.05-2.83 2.19-6.85 0.55-10.06 1.04l-0.04-0.99z" fill="#ccaf38"/>
  <path d="m600.82 270.24c2.68 0.93 8.55-1.91 10.26 0.83-3.43 0.01-6.88-0.49-10.26-0.83z" fill="#9b7a05"/>
  <path d="m621.83 270.98c3.42-1.15 7.24-1.41 11.48-0.78-3.84 0.31-7.67 0.57-11.48 0.78z" fill="#9c7d04"/>
  <path d="m772.38 274.14c6.32 8.07 20.77 7.3 28.73 15.78-47.84 31.03-106.45 26.29-160.71 34.53-80.75 1.78-163.73-5.48-238.98-36.87 4.05-4.17 12.87-11 20.56-11.55 42.23 7.35 83.4 21.5 126.75 21.13 36.16 5.31 72.74 1.9 109-0.35 33.05-3.01 66.57-6.58 97.84-18.29 5.18-3.21 13.45 1.59 16.81-4.38z" fill="#026333"/>
  <path d="m991.76 292.2c-0.54-3.48-0.58-6.95-0.09-10.43 0.07 3.45 0.39 6.96 0.09 10.43z" fill="#c19e15"/>
  <path d="m545.85 288.94c2.8 0.2 5.51 0.54 8.34 0.86-2.62-0.25-6.65 1.37-8.34-0.86z" fill="#907601"/>
  <path d="m635.68 289.63c3.35-0.85 6.76-0.88 10.24-0.71-1.06 2.99-7.34 0.6-10.24 0.71z" fill="#8b6e01"/>
  <path d="m563.79 290.05c3.78 0.14 7.57 0.37 11.36 0.71-4.12 0.61-7.91 0.38-11.36-0.71z" fill="#c6a735"/>
  <path d="m386.99 291.19c5.69 1.68-13.07 8.29 0 0z" fill="#949495"/>
  <path d="m575.15 290.76c3.39 0.25 6.72 0.67 10.13 1.01-2.54-0.9-8.87 1.85-10.13-1.01z" fill="#7f6300"/>
  <path d="m596.65 291.67c7.58-1.55 15.43-0.44 23.12-0.67-5.1 2.16-15.79 0.98-23.12 0.67z" fill="#7f6400"/>
  <path d="m991.76 292.2c2.93 2.86 0.3 11.35 0.94 16-0.49-5.33-0.75-10.67-0.94-16z" fill="#695504"/>
  <path d="m396.54 297.46c1.09 0.05 3.25 0.17 4.33 0.23-42.13 35.05-85.54 68.59-128.22 103-3.77 3.07-13.24-2.2-8.35-7.28 41.95-34.66 84.48-69.81 132.24-95.95z" fill="#8c0304"/>
  <path d="m808.34 297.26c41.67 23.3 75.91 59.83 115.57 86.79-5.25 9.94-17.7 12.09-27.55 14.79-28.39-31.34-56.69-62.83-84.48-94.69-1.44-1.93-6.99-4.55-3.54-6.89z" fill="#eaeadb"/>
  <path d="m410.76 301.44c7.93-3.81 3.76 2.58 1.33 4.77-34.14 38.09-67.4 77.41-105.28 111.73-8.6-3.89-18.98-6.78-26.76-11.98 41.02-36.51 85.06-71.87 130.71-104.52z" fill="#eaebdc"/>
  <path d="m797.4 302.35c31.8 29.35 61.02 66.93 90.5 99.57-4.8 3.83-12.46 5.05-18.69 6.96-28.02-31.16-53.48-64.85-78.85-98.28-4.01-4.55 3.87-6.67 7.04-8.25z" fill="#910203"/>
  <path d="m361.99 307.9c9.42-6.72 10.68-3.58 2 1l-2-1z" fill="#babab1"/>
  <path d="m424.7 306.03c3.37 1.32 17.41-0.62 10.97 5.78-30.95 37.45-65.93 71.42-97.39 108.44-3.71 8.47-16.25 2.03-20.23-1.06 36.26-36.96 71.28-75.29 106.65-113.16z" fill="#8f0203"/>
  <path d="m838.48 306.21c18.11 3.94 35.93 10.86 53.68 16.71 12.11 1.21 8.62 17.79 16.58 24.36 11.7 9.04 20.29 23.38 36.01 25.87-2.51 3.87-10.18 11.32-14.9 5.06-31.62-21.87-63.82-47.54-91.37-72z" fill="#8f0303"/>
  <path d="m268.18 363.18c31.4-18.2 62.29-37.27 93.81-55.28l2 1c-37.27 27.17-76.25 52.97-110.32 83.8-5.32-1.44-10.22-4.01-15.39-5.85-1.54-0.74-3.03-1.59-4.28-2.75 11.62-6.6 22.99-13.63 34.18-20.92z" fill="#e6e7d8"/>
  <path d="m779.21 308.39c25.63 33.38 52.74 68.4 78.79 102.46-7.53 8.97-20.53 7.9-30.86 11.05-16.02-37.45-40.27-71.31-58.13-107.95 1.1-3.73 6.95-3.79 10.2-5.56z" fill="#eaebdc"/>
  <path d="m447.64 313.37c2.54 0.39 12.38 0.01 7.45 4.93-26.44 39.05-52.59 78.4-77.9 118.1-10.98-1.73-24.23-3.16-34.11-9.48 34.98-37.46 67.64-78.04 104.56-113.55z" fill="#ebebdc"/>
  <path d="m467.23 317c3.35 1.02 7.01 1.82 9.81 4.01-23.28 37.84-49.37 73.96-70.95 112.86-2.65 9.79-15.43 8.47-22.03 5.2 26.19-41.71 54.68-81.9 83.17-122.07z" fill="#8f0203"/>
  <path d="m754.54 317.47c1.25-0.09 3.75-0.26 5-0.35 21.9 34.01 40.65 70.56 60.46 105.9-7.11 2.67-14.2 6.53-21.62 7.78-6.78-7.01-10.45-16.44-13.65-25.53-11.6-27.98-24.11-55.61-35.24-83.77-1.91-3.44 2.72-3.77 5.05-4.03z" fill="#910202"/>
  <path d="m907.99 326.76c-1.96 0.81-1.72-8.62-0.03-8.43 0 2.81-0.07 5.59 0.03 8.43z" fill="#a9912a"/>
  <path d="m737.58 320.46c4.01-2.57 5.29 1.23 6.19 3.78 14.15 37 31.33 73.31 44.14 110.49-9.23 2.21-18.9 2.4-28.11 4.94-7.71-26.69-21.07-55.66-24.71-84.76-0.88-10.39-7.88-18.72-10.17-28.64 4.12-2.1 8.28-4.27 12.66-5.81z" fill="#eaebdc"/>
  <path d="m485.74 322.2c7.47-1.43 20.65-1.89 15.71 9.17-19.06 39.82-37.56 80.37-59.96 118.38-10.5-1.19-21.27-2.29-31.52-4.69 16.4-37.81 42.42-70.56 62.88-106.21 4.66-5.19 6.5-13.22 12.89-16.65z" fill="#ebecdc"/>
  <path d="m515.3 325.21c2.52 0.3 7.79-0.37 6.55 3.46-18.21 40.16-32.99 81.84-50.98 122.08-4.99 4.72-13.31 0.44-19.65 0.22 21.87-41.44 40.62-85.96 64.08-125.76z" fill="#8f0203"/>
  <path d="m707.73 325.3c2.85 0.65 9.25-2.69 9.82 2.11 10.92 37.63 22.98 75.43 32.27 113.29-6.63-0.07-19.9 9.89-22.14-1.47-6.46-33.16-12.7-66.44-20.47-99.33-2.23-4.1-5.79-13.19 0.52-14.6z" fill="#910202"/>
  <path d="m527.69 331.83c1.72-9.14 12.99-2.12 19.11-2.85-10.19 41.83-21.76 83.37-33.31 124.86-4.08 0.29-8.15 0.26-12.2-0.08-5.11-0.41-10.19-1.01-15.31-0.77-1.9-0.23-4.53 0.62-5.9-0.96 13.88-40.84 33.44-79.45 47.61-120.2z" fill="#ebecdd"/>
  <path d="m677.4 328.04c2.15-2.64 11.28-0.17 15.67-0.85-5.22 0.59-10.45 0.8-15.67 0.85z" fill="#9b9c94"/>
  <path d="m693.07 327.19c4.15-0.94 2.61 6.56 4.16 8.53 12.09 33.77 11.73 70.48 23.8 104.3 3.77 8.91-11.18 7.84-15.75 8.2-4.06-1.28-13.35 5.44-13.59-2-4.69-39.13-14.17-79.91-14.29-118.18 5.22-0.05 10.45-0.26 15.67-0.85z" fill="#ebecdc"/>
  <path d="m653.1 331.28c4.66-0.27 9.95-3.39 14.41-1.66 4.58 40.56 11.45 80.83 16.39 121.36-5.58 0.76-11.16 1.55-16.77 2.01-0.87-6.94-2.4-13.83-3.22-20.79-0.18-3.88-0.75-7.7-1.59-11.47-4.23-29.69-5.76-59.69-9.22-89.45z" fill="#910203"/>
  <path d="m554.02 332.01c1.23-3.93 11.12-3.02 12.89-0.99-4.33 0.15-8.62 0.38-12.89 0.99z" fill="#4e0201"/>
  <path d="m577.3 330.94c2.95-1.79 6.13-1.79 9.55 0.03-3.23-0.03-6.36 0-9.55-0.03z" fill="#6d6d64"/>
  <path d="m554.02 332.01c4.27-0.61 8.56-0.84 12.89-0.99-1.54 39.12-13.37 77.03-19.21 115.64-1.49 3.15 0.09 10.82-4.59 10.15-5.79-0.84-11.68-1.42-17.44-0.17-1.23 0.21-2.45 0.35-3.68 0.41 8.79-42.21 20.32-83.73 32.03-125.04z" fill="#920202"/>
  <path d="m574.94 333.05c0.15-1.48 0.94-2.18 2.36-2.11 3.19 0.03 6.32 0 9.55 0.03 11.3-2.96 12.99 5.86 10.92 14.76-0.37 3.1-0.72 6.26-0.82 9.4-1.47 27.31-7.54 54.18-9.36 81.49-3.19 6.53 1.79 20.59-8.1 22.4-2.52-0.02-5.02-0.03-7.5-0.01-6.71 0.22-13.3-1.09-19.89-2.08 7.94-41.22 15.75-82.54 22.84-123.88z" fill="#ebecdd"/>
  <path d="m605.29 338.58c0.28-8.47 10.03-7.78 16.33-7.1-1.95 29.32-4.42 58.85-5.9 88.29-0.33 4.07-0.64 8.18-0.74 12.29-1.14 8.09 0.81 19.76-2.04 25.9-6.32 0.03-12.61 0.06-18.9-0.05 0.76-39.93 10.62-79.29 11.25-119.33z" fill="#920202"/>
  <path d="m627.05 363.95c2.74-11.03-5.02-39.94 15.57-31.67 6.88 33.84 9.18 68.38 12.36 102.72-0.04 3.06-0.11 6.23 0.59 9.27-0.54 3.41 4.57 8.33 0.43 10.1-10.95 1.31-21.84 4.05-32.94 3.57-0.17-12.99 0.04-25.98-0.04-38.96-0.14-5.59-0.07-11.17 0.26-16.74 0.24-3.8 0.46-7.59 0.66-11.38 0.24-5.95 1.77-11.75 2.34-17.67 0.27-3.1 0.67-6.15 0.77-9.24z" fill="#eceddd"/>
  <path d="m596.95 355.13c0.1-3.14 0.45-6.3 0.82-9.4-0.72 2.69 1.68 7.59-0.82 9.4z" fill="#7a7a72"/>
  <path d="m213.87 390.87c21.92-16.32 45.59-29.97 69.1-43.81-5.04 5.27-10.02 10.6-14.79 16.12-11.19 7.29-22.56 14.32-34.18 20.92 1.25 1.16 2.74 2.01 4.28 2.75-4.45 3.2-2.46 5.88 2.38 7.51 19.06 7.81 37.56 16.74 55.93 26.06 41.82 15.7 86.72 21.9 129.47 33.71-40.25-5.55-79.42-17.62-118.85-27.33-27.26-10.96-53.12-25.47-80.31-36.6-5.76 1.73-12.91 5.87-15.73 10.55 82.91 40.02 172.31 67.88 264.13 77.82 19.32 4.4 40.23-2.81 58.87 4.61 31.25 1.3 62.95 1.46 94.15 0.1 62.46-10.73 127.29-9.58 187.78-30.21 21.73-4.65 41.78-14.86 63.73-18.19 36.5-15.47 73.17-30.74 108.51-48.72 9.8 0.76 15.56-7.48 23.66-11.25-7.2-13.16-20.85-0.8-31.22-0.94 10.85-4.12 24.42-13.22 33.22-0.69-8.9 15.18-28.48 13.53-41.88 22.83-10.25 6.75-24.37 8.66-30.83 20.19-43.15 22.38-90.58 34.15-136.83 48.18-49.55 7.13-98.35 19.31-148.27 23.78-3.2-0.28-6.32-0.25-9.42 0.47-8.52 1.05-17.15 0.94-25.6 2.52-2.8-0.02-5.51-0.16-8.16 0.69-3.47-0.11-6.96-0.28-10.25 0.91-1.88 0.1-3.76 0.06-5.64 0.04-4.06-0.32-8.1-0.61-12.13-0.93-3.75-0.53-7.5-0.83-11.25-0.89-4.26-0.11-8.49-0.02-12.73-0.01-4.38-0.86-8.81-0.9-13.24-0.91-4.56-0.08-9.08-0.23-13.61-0.27-4.72-0.47-9.42-0.92-14.15-0.85-4.38-0.83-8.82-0.84-13.24-0.88-4.56-0.09-9.09-0.18-13.64-0.24-3.39-0.41-6.72-0.68-10.1-0.91-47.8-9.61-97.61-11.01-143.5-28.56-45.19-11.5-87.81-30.23-129.64-50.52-6.77-5.15-15.15 3.31-17.65 8.83 47.74 22.1 94.89 46.77 146.64 58.36 61.26 19.55 125.19 28.11 189.01 34.09 7.66 1.1 15.39 0.71 23.11 0.77l0.96 0.05c6.24 1.13 12.63 1.16 18.97 0.98 14.3-0.01 28.59 0.02 42.89 0.01 2.77 0.05 5.72 0.48 8.18-0.99 3.07-0.01 6.26 0.01 9.28-0.75 2.48-0.2 4.98-0.37 7.5-0.51 3.05 0.26 6.28 0.68 9.17-0.64 2.72-0.48 5.59-0.31 8.34-0.8 13.58-0.68 27.06-2.16 40.39-4.93 35.14 2.33 67.58-15.2 102.11-18.69 2.69-0.18 5.56 0.06 8.28-0.47 17.65-4.1 35.16-8.94 52.09-15.31 3.5-0.27 7.02-0.56 10.56-0.86 12.7-7.31 27.88-7.14 41.18-13.19 19.18-5.74 35.48-17.93 54.14-24.88-2.44 2.62-4.74 5.37-7.02 8.12 12.52-9.72 29.48-9.56 42.18-19.06 2-1.78 8.1-5.46 9.9-1.35 18 40.26 26 83.64 39.2 125.41 3.4 29.16 12.1 57.19 14.6 86.68 11.8 34.08 13.4 70.54 20.6 105.57 1.5 16.44 6.8 33.03 5.6 49.44-0.5-2.73-1.1-5.42-1.7-8.1-10.2-81.88-29.8-161.89-44-243.07-11.8-35.21-18.3-72.09-32.6-106.46-1.6-3.31-1.6-10.2-7.3-7.85-13.02 9.84-30.07 10.62-43.38 19.82-11.51 7.01-23.74 12.68-36.02 18.15 20.08 44.64 48.54 85.46 69.9 129.71 30.8 63.81 60.6 128.12 91.2 192.02 0.9 2.16 2.1 4.23 3.3 6.28-7.4 1.78-6.4-20.9-13.9-11.08-46.1-97.61-90.13-196.55-145.81-289.21-3.42-9.61-4.62-6.2-0.72 0.33 2.42 30.25 6.13 60.42 10.22 90.5 0.11 2.77 0.2 5.66 0.38 8.47-0.31 17.03 3.23 33.7 5.61 50.47-0.15 3.05-0.74 6.34 0.71 9.2-0.12 3.07 0.01 6.26 0.75 9.29 0.15 2.49 0.33 5 0.55 7.53-0.01 2.76 0.13 5.65 0.37 8.45 0.32 5.21 1.07 10.37 1.62 15.57 0.07 2.74 0.17 5.62 0.38 8.41 0.3 5.22 1.08 10.38 1.62 15.59 0.07 2.74 0.16 5.62 0.38 8.41 0.36 5.22 1.12 10.4 1.52 15.62 0.22 3.78 0.43 7.58 0.63 11.39 0.34 10.8-0.04 21.62 0.42 32.43 0.7 9.27-2.25 19.44 0.77 28.33 0.35 9.43-0.95 19.04 0.69 28.4-2.51 7.86 7.12 26.75-5.22 28.25-15.05-37.17-29.14-75.45-41.19-113.93-32.86-78.13-63.15-157.55-96.36-235.83-1.04-7.37-2.65-1.13-1.29 3.29 0.12 0.68 0.34 2.04 0.45 2.72 0.06 3.37 0.14 6.84 0.08 10.24-0.23 8.22-0.06 16.47-0.33 24.69-0.93 7.35-0.97 14.76-0.84 22.17-1.55 7.64-1.02 15.44-0.81 23.19-0.13 7.52-0.18 15.05-0.4 22.59-0.95 8.71-0.92 17.48-0.78 26.25-1.37 6.61-1.14 13.4-0.8 20.11-0.15 5.53-0.28 11.08-0.37 16.64-0.85 5.77-0.74 11.61-0.61 17.44-0.37 9.88-0.95 19.76-1.39 29.64-0.55 5.06-1.01 10.21-0.65 15.32-0.13 4.53-0.23 9.11-0.31 13.67-0.48 4.67-0.88 9.42-0.87 14.15-0.91 4.64-0.94 9.43-0.85 14.17-0.11 4.51-0.19 9.07-0.33 13.61-0.53 5.38-0.79 10.79-0.82 16.21-1.08 5.35-0.91 10.81-0.79 16.26-0.16 7.83-0.23 15.68-0.39 23.53-1.01 7.13-0.89 14.34-0.52 21.54 3.83 7.3-6.49 17.58-9.18 6.17-34.34-119.31-63.92-240.06-97.04-359.63-12.92 58.48-20.92 118.23-37.38 175.87-17.8 63.66-28.74 129.03-42.3 193.69-0.5 3.76-4.83 2.59-7.65 3.01-4.26-26.97-11-53.54-13.4-80.8-7.51-71.03-20.69-141.32-27.66-212.37 0.45-3.55 0.5-7.11-0.4-10.56-0.54-5.81-0.63-11.69-1.6-17.45 0.44-3.55 0.5-7.09-0.4-10.53-0.43-2.86-0.25-5.65-0.53-8.47 0.08-2.85 0.21-5.63-0.78-8.29-0.35-2.77-0.26-5.47-0.66-8.19 0.09-1.85-0.96-11.46-3.31-5.7-45.15 108.6-93.3 215.93-139.96 323.87-2.29 5.19-6.53 16.88-13.81 10.6 3.86-37.77 7.83-75.64 11.9-113.42 0.23-2.84 0.52-5.55 0.7-8.34 7.32-78.09 26.14-155.85 28.54-233.86-33.06 54.63-64.94 110.03-97.48 164.99-28.13 50.65-51.69 103.76-79.04 154.8-2.61 1.89-9.02 0.03-7.45-4.24 7.77-50.8 18.04-101.2 24.9-152.13 13.26-58.74 28.26-117.06 39.93-176.15 1.63-2.95 2.41-7.78-1.05-3.08-34.94 37.5-62.51 80.93-90.24 123.85-31.71 44.53-54.37 94.41-79.02 142.96-3.58 5.68-8.23 19.81-15.01 9.7-0.1-2.53-0.14-5.03-0.1-7.51 9.79-62.18 21.66-124.01 35.94-185.31 13.64-39.73 27.76-79.32 42.24-118.76-61.79 64.36-114.12 137.27-163.9 211.07-7.17 12.85-12.43 26.69-19.42 39.61-2.87 4.73-10.49 1.02-8-4.04 26.12-74.05 50.37-149.52 88.55-218.46 3.89-5.46 1.64-7.92-0.98-1.12-30.8 35.6-58.99 74.23-77.42 117.7-15.25 36.79-24.07 75.83-29.99 115.11-0.29 4.02-0.45 8.09-0.66 12.16-0.27 3.7-0.54 7.43-0.8 11.17 0.31-3.08-1.33-4.62-4.36-4.49 0.16-13.32-1.3-27.02 2.9-39.9 9.41-41.16 15.09-84.8 39.61-120.34 24.17-51.75 61.81-95.11 101.65-135.35 17.61-24.04 44.05-38.16 67.69-55.29m-53.71 51.3c-6.32 4.48-11.74 10.44-16.31 16.66-29.03 44.22-51.92 93.08-68.84 143.22-11.06 18.7-17.16 39.26-23.28 59.92-4.28 6.43-0.81 12.88 1.94 3.16 49.26-78.1 106.52-149.03 166.38-218.13 4.4-1.51 3.73-8.58-0.89-9.23-12.37-5.52-24.76-11.06-37.12-16.62-8.3 5.68-15.49 13.26-21.88 21.02m70.75 11.71c-37.13 94.41-65.95 192.39-78.95 293.19-4.52 4.32-1.37 15.66 0.76 5.1 48.68-90.46 99.99-180.74 167.5-258.93 3.93-2.92 11.09-13.45 1.87-14.38-29-9-57.2-21.41-86.16-31.06-3.14-4.99-5.19 2.86-5.02 6.08m582.24 36.14c44.18 115.01 95.77 227.56 133.95 344.92 3.24-2.69 0.75-10.92 1.88-14.96 2.68-1.06 1.38-10.93 0.04-12.01-0.03-4.3 0.04-8.7-1.31-12.81 0.89-10.81-0.22-23.88-1.98-32.83 1.22-12.43-0.66-24.88-0.8-37.31 0.72-4.52 0.42-8.2-0.88-11.03-0.06-6.57-1.17-13.09-1.41-19.64-0.09-3.03 2.21-8.99-0.67-10.45-0.1-3.57 0.76-7.6-1.12-10.8-0.56-5.31 1.77-13.44-0.83-17.08-0.88-18.05-3.47-35.98-6.3-53.79-0.02-4.32 0.73-10.37-1.67-13.38-2.94-33.1-8.09-66.03-11.73-99.08-2.71-9.27-0.09-22.05-8.45-28.58-32.65 10.43-66.05 18.65-98.72 28.83m-473.95-5.95c-10.71 49.5-22.91 98.73-35.14 147.82-2.33 1.43-1.7 4.94-1.8 7.34-2.72 12.78-5.73 25.62-7.28 38.61-2.84 4.03-1.96 10.28-2.97 15.13-1.62 3.71-2.01 7.73-1.94 11.77-3.13 2.97-1.19 8.69-1.77 12.46-3.17 1.34-1.32 8.08-2.28 10.83-3.12 15.86-6.38 31.79-7.98 47.89-2.18 1.61-0.61 5.44-0.88 7.95-2.28 4.7-1.69 10.11-2.22 15.17-5.23 3.51 0 11.96 0.83 4.18 15.97-23.76 25.76-51.04 39.21-76.22 39.33-74.38 81.7-147.37 124-219.89-33.83-4.64-66.59-15.13-99.78-23.04m455.59 7.85c-27.47 7.95-55.58 14.11-84.2 16.63-3.01 1.81-11.89-1.04-11.58 4.41 12.74 49.3 26.47 98.37 38.05 147.97 20.71 64.35 35.47 130.41 53.69 195.48-0.42 7.22 4.5 8.25 2.23-1.42 0.97-4.19 0.97-8.55 1.07-12.81 1.03-3.48 1.27-7.25 0.71-11.3 0.49-3.28 0.96-6.62 1.24-9.89 1.14-3.29 1.37-7.02 0.72-11.18 0.68-8.57 1.69-17.14 1.24-25.75 3.23-2.14-0.27-9.68 0.79-13.32 0.28-4.27 0.27-8.56 0.24-12.8 3.21-3.93-0.2-14.33 0.81-20.16 2.66-4.31 0.69-14.44 1.11-20.76 0.44-5.43-0.09-10.91-0.19-16.31 2.92-2.46 0.39-11.43 1.1-15.94 2.77-2.44 0.48-11.3 1.1-15.76 0.4-5.41-0.1-10.86-0.11-16.25 3.05-2.02 0.36-10.75 1.18-14.76 1.7-37.72 1.65-82.24 0.03-120.01-2.03-8.48 4.24-33.79-9.23-26.07m-339.14 16.52c-3.42 11.18-1.1 23.23-3.58 34.65-2.64 1.48 0 7.38-0.93 9.97-1.71 12.63-4.19 25.22-5.02 37.94-2.6 1.5-1.63 6.31-1.9 9.2-5 31.46-13.05 62.72-14.2 94.67-2.42 1.84-0.18 6.48-0.79 9.21-2.38 1.25-0.77 5.54-1.06 8.01-1.26 7.93-1.64 15.95-2.1 23.96-3.34 1.49 0.36 8.88-0.93 11.94-3.93 19.19-8.36 38.77-8.11 58.83-2.24 1.73-0.57 5.69-0.78 8.31-0.57 4.93-1.27 9.85-1.18 14.84-2.71 1.68 0.07 7.59-0.85 10.36-0.18 1.83-0.28 3.68-0.15 5.54-4.16 3.93 2.68 5.27 1.73 0.03 2.62-0.5 2.66-5.08 4.27-6.97 47.09-106.19 91.02-213.74 137.35-320.26 0.84-4.43-17.49-0.44-22.55-1.37-26.34-3.04-53.12-6.23-79.22-8.86m226.34 4.7c-6.47 0.43-16.53-2.03-21.04 1.86-2.64 0.52-5.87-0.08-7.94 1.93-23.18 2.74-46.71 0.13-70.01 1.11-4.82 0.19-12.11-1.42-14.94 0.97-0.12 5.59 1.11 11.13 1.35 16.71-0.05 2.58-1.7 6.89 0.62 8.42 0 1.62 0.02 4.88 0.02 6.51 0.4 2.36-1.41 7.68 0.94 8.1 0.83 7.38 1.27 14.79 1.09 22.24 0.13 4.06-1.61 10.82 0.87 12.95-0.16 2.12-0.11 4.28 1.18 6.1-0.16 6.82-0.24 15.88 1.98 20.71l0.15 0.92c-0.5 5.77 0.11 12.85 1.74 17.39 0.24 8.99 1.32 18.07 3.26 26.83 0.19 2.57-1.5 6.6 0.73 8.24 0.11 1.65-0.43 3.62 0.95 4.92 0.52 4.11-0.43 10.46 2.07 12.93 0.74 8.6 1.75 17.22 3.29 25.73 1.21 3.5-1.13 9.65 1.65 12.38 0.01 1.2 0.11 2.4 0.3 3.6 0.13 3.11-0.97 8.85 1.79 10.29 0.07 0.44 0.21 1.31 0.27 1.75 0.46 3.87-1.01 9.57 1.63 12.47 5.04 37.46 9.47 76.83 16.13 112.97-1.63 6.78 2.79 6.25 1.8-0.18 7.89-42.63 20.88-84.25 28.06-126.98 3.36-5.45 3.47-14.3 5.19-20.96 13.48-60.41 27.87-120.94 37.79-182.09 3.44-3.1 1.18-11.19 2.19-15.75 1.74-3.87 3.48-16.96-3.11-12.07z" fill="#050b01"/>
  <path d="m626.28 373.19c0.61-2.67-1.72-7.55 0.77-9.24-0.1 3.09-0.5 6.14-0.77 9.24z" fill="#9a9d92"/>
  <path d="m950.06 366.96c3.42 0.07 6.72 0.44 10.16 0.82-2.7-0.93-8.55 1.82-10.16-0.82z" fill="#a08204"/>
  <path d="m962.15 367.91c2.94 0.06 5.78 0.07 8.79 0.13 0.39 1.86-8.77 1.8-8.79-0.13z" fill="#cbb23f"/>
  <path d="m980.78 373.97c10.37 0.14 24.02-12.22 31.22 0.94-8.1 3.77-13.86 12.01-23.66 11.25-35.34 17.98-72.01 33.25-108.51 48.72-21.95 3.33-42 13.54-63.73 18.19-60.49 20.63-125.32 19.48-187.78 30.21-31.38-0.53-62.78-0.32-94.15-0.1-18.64-7.42-39.55-0.21-58.87-4.61-91.82-9.94-181.22-37.8-264.13-77.82 2.82-4.68 9.97-8.82 15.73-10.55 27.19 11.13 53.05 25.64 80.31 36.6 39.43 9.71 78.6 21.78 118.85 27.33 41.38 5.49 83.03 9.08 124.73 11.08 13.44 1.3 27 1.23 40.45 0.02 97.52-4.47 197.35-14.8 288.02-53.02 18.95-5.07 39.63-9.82 54.67-23.25 10.99 0.87 17.3-10.01 26.79-13.57 6.62-0.94 13.39-0.63 20.06-1.42z" fill="#036233"/>
  <path d="m941.29 416.3c26.08-10.19 51.57-21.01 75.71-35.31 5.3 3.44 14.4 6.22 15.8 12.69-21.6 13.26-44.7 24.62-67.76 35.31-18.66 6.95-34.96 19.14-54.14 24.88-13.3 6.05-28.48 5.88-41.18 13.19-3.54 0.27-7.06 0.55-10.56 0.86-16.93 6.37-34.44 11.21-52.09 15.31-2.83 0.15-5.52 0.23-8.28 0.47-34.53 3.49-66.97 21.02-102.11 18.69-13.33 2.77-26.81 4.25-40.39 4.93-3.17-0.38-6.3-0.73-9.24 0.56-2.81 0.3-5.57 0.2-8.27 0.88-2.52 0.14-5.02 0.31-7.5 0.51-3.2-0.3-6.39-0.79-9.28 0.75-2.64 0-5.26 0.03-7.86 0.07-14.39-0.17-28.77-0.1-43.14-0.09-6.36-0.13-12.7 0.29-19.04 0.02l-0.96-0.05c-7.64-1.56-15.41-0.9-23.11-0.77-63.82-5.98-127.75-14.54-189.01-34.09-51.75-11.59-98.9-36.26-146.64-58.36 2.5-5.52 10.88-13.98 17.65-8.83 41.83 20.29 84.45 39.02 129.64 50.52 45.89 17.55 95.7 18.95 143.5 28.56 3.31 0.53 6.72 0.94 10.1 0.91 4.55 0.06 9.08 0.15 13.64 0.24 4.39 0.35 8.82 0.64 13.24 0.88 4.65 0.75 9.42 0.96 14.15 0.85 4.53 0.04 9.05 0.19 13.61 0.27 4.39 0.35 8.83 0.69 13.24 0.91 4.33 0.51 8.72 0.98 13.1 0.9 3.59 0.03 7.26-0.02 10.88 0 4.01 0.47 8.07 0.78 12.13 0.93 1.88 0.02 3.76 0.06 5.64-0.04 3.41 0.13 7.12 0.89 10.25-0.91 2.66-0.31 5.48-0.18 8.16-0.69 8.45-1.58 17.08-1.47 25.6-2.52 3.12 0.15 6.35 0.35 9.42-0.47 49.92-4.47 98.72-16.65 148.27-23.78 46.25-14.03 93.68-25.8 136.83-48.18z" fill="#f7c807"/>
  <path d="m623.28 402.24c-0.67-4.17-0.45-7.96 0.66-11.38-0.2 3.79-0.42 7.58-0.66 11.38z" fill="#373832"/>
  <path d="m1017.3 414.6c1.5-9.09 16.7-9.6 23.5-14.61 34 32.3 68 65.25 96.6 102.65 23.1 44.81 32.4 95.03 44.6 143.64 0.2 10.65-0.7 21.37 0.6 31.98 2 12.49 3.5 25.06 4.5 37.66-0.2 1.54-0.6 4.62-0.9 6.16-22.4-44.76-43.3-90.81-65.3-136.01-33.6-57.7-65.8-116.39-103.6-171.47z" fill="#02ac02"/>
  <path d="m1004.5 418.32c5.7-2.35 5.7 4.54 7.3 7.85 14.3 34.37 20.8 71.25 32.6 106.46 14.2 81.18 33.8 161.19 44 243.07-0.8 0.76-1.5 1.53-2.2 2.32-30.6-63.9-60.4-128.21-91.2-192.02-21.36-44.25-49.82-85.07-69.9-129.71 12.28-5.47 24.51-11.14 36.02-18.15 13.31-9.2 30.36-9.98 43.38-19.82z" fill="#02ad02"/>
  <path d="m623.06 457.94c-1.11-10.11-2.76-28.85-0.04-38.96 0.08 12.98-0.13 25.97 0.04 38.96z" fill="#7a7a72"/>
  <path d="m614.98 432.06c0.1-4.11 0.41-8.22 0.74-12.29-1.22 3.2 2.58 10.45-0.74 12.29z" fill="#4d0000"/>
  <path d="m160.16 442.17c6.39-7.76 13.58-15.34 21.88-21.02 12.36 5.56 24.75 11.1 37.12 16.62 2.8 2.65 3.14 6.09 0.89 9.23-59.86 69.1-117.12 140.03-166.38 218.13-0.7-1.03-1.42-2.05-1.94-3.16 6.12-20.66 12.22-41.22 23.28-59.92 16.92-50.14 39.81-99 68.84-143.22 5.9-5.04 12.1-10.04 16.31-16.66z" fill="#03f904"/>
  <path d="m662.32 420.73c0.84 3.77 1.41 7.59 1.59 11.47-2.83-2.62-0.64-8.18-1.59-11.47z" fill="#4a0304"/>
  <path d="m654.98 435c2.94 1.41 0.54 6.54 0.59 9.27-0.7-3.04-0.63-6.21-0.59-9.27z" fill="#afaea4"/>
  <path d="m219.16 437.77c4.62 0.65 5.29 7.72 0.89 9.23 2.25-3.14 1.91-6.58-0.89-9.23z" fill="#22c422"/>
  <path d="m143.85 458.83c4.57-6.22 9.99-12.18 16.31-16.66-4.21 6.62-10.41 11.62-16.31 16.66z" fill="#16b516"/>
  <path d="m1027 444.02c4.1 1.59 4.9 7.21 7.6 10.44 44.7 75.76 93.2 149.87 126.1 231.87 10.3 23.41 21.8 46.27 34.3 68.65 2.2-1.29 4.5-2.86 5.8-5.23-4.1-17.97-7.6-36.2-9-54.58 0.2-7.12 0.3-14.25-0.6-21.31-3-49.6-18.4-97.13-34.4-143.76 42.9 54.4 57.1 124.04 68.5 190.68-0.5 3.47-0.5 7.09 0.4 10.49 0.2 3.79 0.4 7.6 0.5 11.43-0.1 3.43-0.9 7.19 0.8 10.39 0.4 3.69 0.6 7.39 0.8 11.12 0.1 2.53 0.3 5.07 0.5 7.63v12.02c-1.5 5.81-5 11.06-5.5 17.14-0.7 4.9-0.8 9.9-0.6 14.86-2.6 41.5-15.3 81.35-24.7 121.64-22 79.7-70.1 148.3-113.5 217.5-29.2 51-73.3 91.1-107.26 138.7-38.62 38.6-78.14 77.4-125.57 105.3-54.5 24.6-116.35 24.9-174.95 33.4-4.39-0.2-8.74-0.4-13.09-0.4h-104.12c-12-0.2-23.99 0.1-35.98 0.1-31.4-7.3-63.23-12.9-94.59-20.4-88.56-49.7-159.77-123.9-230.71-195.4-78.43-87.2-145.55-188.1-178.05-301.05-4.68-26.96-8.72-54.03-13-81.05 0.08-7.83 1.22-15.8-0.36-23.53-0.25-3.82-0.46-7.62-0.63-11.41-0.17-2.89 0.05-5.66-0.38-8.46-0.16-1.66-0.48-4.98-0.63-6.64 0.08-5.43 0.25-10.8 0.15-16.2 0.83-7.22 1.41-14.47 1.55-21.72 0.26-3.74 0.53-7.47 0.8-11.17 0.28-4.08 0.43-8.12 0.66-12.16 5.92-39.28 14.74-78.32 29.99-115.11 18.43-43.47 46.62-82.1 77.42-117.7 0.24 0.28 0.73 0.84 0.98 1.12-38.18 68.94-62.43 144.41-88.55 218.46-2.49 5.06 5.13 8.77 8 4.04 6.99-12.92 12.25-26.76 19.42-39.61 49.78-73.8 102.11-146.71 163.9-211.07-14.48 39.44-28.6 79.03-42.24 118.76-14.28 61.3-26.15 123.13-35.94 185.31 0.13 2.39-2.39 5.78 0.1 7.51 6.78 10.11 11.43-4.02 15.01-9.7 24.65-48.55 47.31-98.43 79.02-142.96 27.73-42.92 55.3-86.35 90.24-123.85 0.35 1.02 0.7 2.04 1.05 3.08-11.67 59.09-26.67 117.41-39.93 176.15-6.86 50.93-17.13 101.33-24.9 152.13-1.57 4.27 4.84 6.13 7.45 4.24 27.35-51.04 50.91-104.15 79.04-154.8 32.54-54.96 64.42-110.36 97.48-164.99-2.4 78.01-21.22 155.77-28.54 233.86-0.26 2.72-0.42 5.57-0.7 8.34-4.07 37.78-8.04 75.65-11.9 113.42 7.28 6.28 11.52-5.41 13.81-10.6 46.66-107.94 94.81-215.27 139.96-323.87 2.35-5.76 3.4 3.85 3.31 5.7-0.03 2.71-0.22 5.55 0.66 8.19 0.35 2.71 0.26 5.57 0.78 8.29 0.28 2.82 0.1 5.61 0.53 8.47-0.48 3.49-0.53 7.11 0.4 10.53 0.97 5.76 1.06 11.64 1.6 17.45-0.38 3.5-0.55 7.12 0.4 10.56 6.97 71.05 20.15 141.34 27.66 212.37 2.4 27.26 9.14 53.83 13.4 80.8-39.01-2.45-78.1-7.4-117.06-8.49-8.72-0.97-17.49-1.6-26.11-3.3-23.98-6.11-51.29-1.78-75.14-11.12-82.08-16.57-163.97-38.15-242.78-67.44-16.09-9.22-30.78 7.76-44.14 15.34-14.34 8.25-32.59 14.43-43.27 27.96-2.55 22.04-8.14 44.15-8.43 65.18 17.48 26.9 33.69 54.36 51.23 81.36 17.59 34.58 35.79 70.28 54.73 104.28 36.86 35.3 72.12 71.7 108.74 105.3 35.71 33.3 72.12 62.7 106.76 96.3 24.8 9.4 50.77 15 77.31 16.7 5.31 4.5 19.8 2.3 29.03 4 14.77-3.3 28.97 0.7 43.32-1.7 7.55-2.9 18.87-4.1 28.23-2.4 27.22-6.7 56.02-5.2 83.56-10.6 21.44-10.1 42.51-20.8 64-30.7 13.57-0.1 16.57-20 27.52-21.6 6-11.8 20.56-22.1 28.95-34.3 21.04-31 43.94-61.6 65.47-91.5-2.15-29.3 4.83-58.1 4.93-87.3-3.37-16.2-9.72-32.3-9.74-49.02-4.6-8.89-8.46-27.13-10.84-40.25-0.63-6.98-9.57-5.16-12.81-10.42-8.7-3.71-14.6-13.27-24.46-13.97-5.47-8.84-20.38-14.31-29.57-21.65-22.62-2.14-46.17-5.67-69.5-6.74-0.02-5-5.06 0.23-7.88-1.01-14.49-0.98-29.48-3.04-44.33-2.52-2.63-0.26-5.14-0.18-7.72-0.39 2.82-0.42 7.15 0.75 7.65-3.01 13.56-64.66 24.5-130.03 42.3-193.69 16.46-57.64 24.46-117.39 37.38-175.87 33.12 119.57 62.7 240.32 97.04 359.63 2.69 11.41 13.01 1.13 9.18-6.17 0.57-7.18 0.88-14.37 0.52-21.54 0.16-7.85 0.23-15.7 0.39-23.53 0.44-5.43 0.72-10.85 0.79-16.26 1.01-5.36 0.89-10.81 0.82-16.21 0.14-4.54 0.22-9.1 0.33-13.61 0.42-4.74 0.83-9.44 0.85-14.17 0.77-4.7 1-9.42 0.87-14.15 0.08-4.56 0.18-9.14 0.31-13.67 0.49-5.12 0.99-10.21 0.65-15.32 0.44-9.88 1.02-19.76 1.39-29.64 0.63-5.81 0.7-11.63 0.61-17.44 0.09-5.56 0.22-11.11 0.37-16.64 0.72-6.69 0.95-13.4 0.8-20.11 1.69-8.67 0.91-17.51 0.78-26.25 0.22-7.54 0.27-15.07 0.4-22.59 0.96-7.71 0.93-15.46 0.81-23.19 1.51-7.32 0.97-14.78 0.84-22.17 0.27-8.22 0.1-16.47 0.33-24.69 0.97-3.43 0.94-6.84-0.08-10.24-0.11-0.68-0.33-2.04-0.45-2.72 0.41-1.11 0.84-2.2 1.29-3.29 33.21 78.28 63.5 157.7 96.36 235.83 12.05 38.48 26.14 76.76 41.19 113.93 12.34-1.5 2.71-20.39 5.22-28.25-0.64-9.31 2.35-19.52-0.69-28.4-0.52-9.42 1.17-19.06-0.77-28.33-0.46-10.81-0.08-21.63-0.42-32.43-0.18-3.81-0.39-7.61-0.63-11.39-0.4-5.22-1.16-10.4-1.52-15.62-0.24-2.86 0-5.62-0.38-8.41-0.54-5.21-1.32-10.37-1.62-15.59-0.24-2.86 0-5.62-0.38-8.41-0.55-5.2-1.3-10.36-1.62-15.57-0.32-2.87 0.03-5.65-0.37-8.45-0.22-2.53-0.4-5.04-0.55-7.53-0.03-3.17 0.84-6.41-0.75-9.29-0.09-3.13 0.05-6.18-0.71-9.2-2.38-16.77-5.92-33.44-5.61-50.47-0.27-2.87 0.14-5.68-0.38-8.47-4.09-30.08-7.8-60.25-10.22-90.5l0.72-0.33c55.68 92.66 99.71 191.6 145.81 289.21 5.2 12.02 10.4 24.07 16.5 35.65 0.9 4.09 7.1 3.6 7.8-0.01-14.7-103.45-32.1-206.69-56.3-308.38-5.8-18.73-13.8-36.96-16.6-56.46z" fill="#c9ca32"/>
  <path d="m230.91 453.88c-0.17-3.22 1.88-11.07 5.02-6.08-3.05 0.45-3.71 3.81-5.02 6.08z" fill="#20bc21"/>
  <path d="m230.91 453.88c1.31-2.27 1.97-5.63 5.02-6.08 28.96 9.65 57.16 22.06 86.16 31.06 9.22 0.93 2.06 11.46-1.87 14.38-67.51 78.19-118.82 168.47-167.5 258.93-0.26-1.71-0.55-3.4-0.76-5.1 13-100.8 41.82-198.78 78.95-293.19z" fill="#02fa03"/>
  <path d="m485.98 452.99c5.12-0.24 10.2 0.36 15.31 0.77-4.45-0.93-12.4 2.21-15.31-0.77z" fill="#595951"/>
  <path d="m525.67 456.64c5.76-1.25 11.65-0.67 17.44 0.17-5.82 0.21-11.65 0.25-17.44-0.17z" fill="#4b0506"/>
  <path d="m594.04 457.91c6.29 0.11 12.58 0.08 18.9 0.05-3.46 1.18-15.38 2.82-18.9-0.05z" fill="#480507"/>
  <path d="m571.99 459.01c2.48-0.02 4.98-0.01 7.5 0.01 0.4 1.53-6.95 1.83-7.5-0.01z" fill="#aeafa5"/>
  <path d="m813.15 490.02c32.67-10.18 66.07-18.4 98.72-28.83 8.36 6.53 5.74 19.31 8.45 28.58 3.64 33.05 8.79 65.98 11.73 99.08-0.02 4.49 0.48 9.02 1.67 13.38 2.83 17.81 5.42 35.74 6.3 53.79 0.47 5.57-1.48 11.79 0.83 17.08 1.88 3.2 1.02 7.23 1.12 10.8-0.34 3.48-0.24 7.05 0.67 10.45 0.24 6.55 1.35 13.07 1.41 19.64-0.12 3.62-0.16 7.33-0.1 10.98 0.85 12.41-0.07 25.08 1.78 37.36 1.09 10.89-0.11 22.07 1.98 32.83 1.35 4.11 1.28 8.51 1.31 12.81-0.06 3.98-0.08 7.99-0.04 12.01-1.13 4.04 1.36 12.27-1.88 14.96-38.18-117.36-89.77-229.91-133.95-344.92z" fill="#02c402"/>
  <path d="m550.79 465.21c13.48-0.38 26.96-0.27 40.45 0.02-13.45 1.21-27.01 1.28-40.45-0.02z" fill="#033018"/>
  <path d="m859.16 467.92c3.5-0.31 7.02-0.59 10.56-0.86-3.54 0.3-7.06 0.59-10.56 0.86z" fill="#7a5e00"/>
  <path d="m929.07 484.34c-3.9-6.53-2.7-9.94 0.72-0.33l-0.72 0.33z" fill="#8a894c"/>
  <path d="m534.17 483.18c31.37-0.22 62.77-0.43 94.15 0.1-31.2 1.36-62.9 1.2-94.15-0.1z" fill="#002f14"/>
  <path d="m798.79 483.7c2.76-0.24 5.45-0.32 8.28-0.47-2.72 0.53-5.59 0.29-8.28 0.47z" fill="#735a00"/>
  <path d="m339.2 484.07c33.19 7.91 65.95 18.4 99.78 23.04-42.3 72.52-84.67 145.51-124 219.89-13.45 25.18-23.24 52.46-39.21 76.22-0.29-1.4-0.57-2.8-0.83-4.18 0.53-5.06-0.06-10.47 2.22-15.17 0.37-2.71 0.82-5.27 0.88-7.95 1.6-16.1 4.86-32.03 7.98-47.89 0.91-3.6 1.81-7.16 2.28-10.83 0.74-4.14 1.44-8.28 1.77-12.46-0.07-4.04 0.32-8.06 1.94-11.77 1.98-4.81 2.73-9.98 2.97-15.13 1.55-12.99 4.56-25.83 7.28-38.61 0.99-2.34 1.73-4.79 1.8-7.34 12.23-49.09 24.43-98.32 35.14-147.82z" fill="#02fa03"/>
  <path d="m115.25 490.1c2.62-6.8 4.87-4.34 0.98 1.12-0.25-0.28-0.74-0.84-0.98-1.12z" fill="#747545"/>
  <path d="m483.03 487c3.38 0.23 6.71 0.5 10.1 0.91-3.38 0.03-6.79-0.38-10.1-0.91z" fill="#ae9328"/>
  <path d="m506.77 488.15c4.42 0.04 8.86 0.05 13.24 0.88-4.42-0.24-8.85-0.53-13.24-0.88z" fill="#755a00"/>
  <path d="m646.77 488.73c3.1-0.72 6.22-0.75 9.42-0.47-3.07 0.82-6.3 0.62-9.42 0.47z" fill="#735800"/>
  <path d="m520.01 489.03c4.73-0.07 9.43 0.38 14.15 0.85-4.73 0.11-9.5-0.1-14.15-0.85z" fill="#bca030"/>
  <path d="m547.77 490.15c4.43 0.01 8.86 0.05 13.24 0.91-4.41-0.22-8.85-0.56-13.24-0.91z" fill="#876900"/>
  <path d="m794.79 491.92c13.47-7.72 7.2 17.59 9.23 26.07-0.07 40 0.01 80.01-0.03 120.01l-0.99 0.02c-0.39-48.94 0.92-97.9-0.94-146.81-2.44 0.16-4.85 0.51-7.27 0.71z" fill="#19ab18"/>
  <path d="m561.01 491.06c4.24-0.01 8.47-0.1 12.73 0.01l0.37 0.89c-4.38 0.08-8.77-0.39-13.1-0.9z" fill="#caae39"/>
  <path d="m573.74 491.07c3.75 0.06 7.5 0.36 11.25 0.89-3.62-0.02-7.29 0.03-10.88 0l-0.37-0.89z" fill="#423100"/>
  <path d="m613.01 491.94c2.65-0.85 5.36-0.71 8.16-0.69-2.68 0.51-5.5 0.38-8.16 0.69z" fill="#4b3901"/>
  <path d="m794.79 491.92c2.42-0.2 4.83-0.55 7.27-0.71 1.86 48.91 0.55 97.87 0.94 146.81-0.08 4.89 0.01 9.83-0.19 14.74-0.5 5.4-1.01 10.83-0.87 16.28-0.05 5.22 0.13 10.5-0.12 15.73-0.47 5.3-0.89 10.6-1.1 15.94-0.42 5.42-0.84 10.86-0.8 16.33-0.01 6.89 0.25 13.83-0.12 20.74-0.63 6.68-1.1 13.43-0.81 20.16 0.03 4.24 0.04 8.53-0.24 12.8-0.38 4.4-0.86 8.87-0.79 13.32 0.45 8.61-0.56 17.18-1.24 25.75-0.28 3.7-0.52 7.43-0.72 11.18-0.28 3.27-0.75 6.61-1.24 9.89-0.47 3.73-0.71 7.5-0.71 11.3-0.1 4.26-0.1 8.62-1.07 12.81-0.56 0.36-1.67 1.07-2.23 1.42-18.22-65.07-32.98-131.13-53.69-195.48-11.58-49.6-25.31-98.67-38.05-147.97-0.31-5.45 8.57-2.6 11.58-4.41 28.62-2.52 56.73-8.68 84.2-16.63z" fill="#02c402"/>
  <path d="m584.99 491.96c4.03 0.32 8.07 0.61 12.13 0.93-4.06-0.15-8.12-0.46-12.13-0.93z" fill="#987c04"/>
  <path d="m602.76 492.85c3.29-1.19 6.78-1.02 10.25-0.91-3.13 1.8-6.84 1.04-10.25 0.91z" fill="#957702"/>
  <path d="m325.19 498.11c3.46-4.7 2.68 0.13 1.05 3.08-0.35-1.04-0.7-2.06-1.05-3.08z" fill="#8a8b44"/>
  <path d="m647.05 507.88c2.94-1.29 6.07-0.94 9.24-0.56-2.75 0.49-5.62 0.32-8.34 0.8l-0.9-0.24z" fill="#b69612"/>
  <path d="m811.63 514.18c-1.36-4.42 0.25-10.66 1.29-3.29-0.45 1.09-0.88 2.18-1.29 3.29z" fill="#767646"/>
  <path d="m455.65 508.44c26.1 2.63 52.88 5.82 79.22 8.86 7.48 0.81 15.08 0.33 22.55 1.37-46.33 106.52-90.26 214.07-137.35 320.26-1.61 1.89-1.65 6.47-4.27 6.97-0.43-0.01-1.3-0.03-1.73-0.03-0.13-1.86-0.03-3.71 0.15-5.54 0.33-3.5 0.82-6.88 0.85-10.36-0.09-4.99 0.61-9.91 1.18-14.84 0.26-2.83 0.66-5.52 0.78-8.31-0.25-20.06 4.18-39.64 8.11-58.83 0.9-3.94 0.82-7.96 0.93-11.94 0.46-8.01 0.84-16.03 2.1-23.96 0.37-2.72 0.76-5.33 1.06-8.01 0.3-3.11 0.76-6.12 0.79-9.21 1.15-31.95 9.2-63.21 14.2-94.67 1.07-2.96 1.93-6.03 1.9-9.2 0.83-12.72 3.31-25.31 5.02-37.94 0.52-3.33 0.92-6.62 0.93-9.97 2.48-11.42 0.16-23.47 3.58-34.65z" fill="#02d602"/>
  <path d="m638.78 508.76c2.7-0.68 5.46-0.58 8.27-0.88l0.9 0.24c-2.89 1.32-6.12 0.9-9.17 0.64z" fill="#614b02"/>
  <path d="m527.89 509.2c7.7-0.13 15.47-0.79 23.11 0.77-7.72-0.06-15.45 0.33-23.11-0.77z" fill="#a58709"/>
  <path d="m622 510.02c2.89-1.54 6.08-1.05 9.28-0.75-3.02 0.76-6.21 0.74-9.28 0.75z" fill="#a38608"/>
  <path d="m551.96 510.02c6.34 0.27 12.68-0.15 19.04-0.02l-0.07 1c-6.34 0.18-12.73 0.15-18.97-0.98z" fill="#554201"/>
  <path d="m571 510c14.37-0.01 28.75-0.08 43.14 0.09l-0.32 0.92c-14.3 0.01-28.59-0.02-42.89-0.01l0.07-1z" fill="#dabd44"/>
  <path d="m614.14 510.09c2.6-0.04 5.22-0.07 7.86-0.07-2.46 1.47-5.41 1.04-8.18 0.99l0.32-0.92z" fill="#533e00"/>
  <path d="m681.99 513.14c6.59-4.89 4.85 8.2 3.11 12.07-1.62 5.07-1.66 10.48-2.19 15.75-9.92 61.15-24.31 121.68-37.79 182.09-3.54 6.3-3.91 13.93-5.19 20.96-7.18 42.73-20.17 84.35-28.06 126.98-0.45 0.04-1.35 0.14-1.8 0.18-6.66-36.14-11.09-75.51-16.13-112.97 0.09-4.25-0.86-8.35-1.63-12.47-0.06-0.44-0.2-1.31-0.27-1.75-0.17-3.54-0.62-6.97-1.79-10.29-0.19-1.2-0.29-2.4-0.3-3.6 0.15-4.22-0.47-8.36-1.65-12.38-1.54-8.51-2.55-17.13-3.29-25.73-0.92-4.07 0.89-9.49-2.07-12.93-1.38-1.3-0.84-3.27-0.95-4.92-0.02-2.83 0.39-5.62-0.73-8.24-1.94-8.76-3.02-17.84-3.26-26.83-0.1-5.82-0.16-11.75-1.74-17.39l-0.15-0.92c-0.97-6.81 0.68-14.27-1.98-20.71-1.29-1.82-1.34-3.98-1.18-6.1 0.07-4.35 0.16-8.66 0.12-12.98-0.43-9.25 0.39-18.78-1.78-27.83l-1.24-2.48c0-1.63-0.02-4.89-0.02-6.51-0.14-2.86-0.04-5.65-0.62-8.42-0.24-5.58-1.47-11.12-1.35-16.71 4.95-0.01 9.95 0.07 14.92 0.03 22.98-1.97 48.02 3.48 70.03-2.11 2.07-2.01 5.3-1.41 7.94-1.93 6.93-1.1 14.48 0.5 21.04-1.86z" fill="#02d602"/>
  <path d="m660.95 515c4.51-3.89 14.57-1.43 21.04-1.86-6.56 2.36-14.11 0.76-21.04 1.86z" fill="#22ac22"/>
  <path d="m534.87 517.3c5.06 0.93 23.39-3.06 22.55 1.37-7.47-1.04-15.07-0.56-22.55-1.37z" fill="#157b15"/>
  <path d="m583 518.04c23.3-0.98 46.83 1.63 70.01-1.11-22.01 5.59-47.05 0.14-70.03 2.11l0.02-1z" fill="#1fbe1f"/>
  <path d="m812.08 516.9c1.02 3.4 1.05 6.81 0.08 10.24 0.06-3.4-0.02-6.87-0.08-10.24z" fill="#5f5e0a"/>
  <path d="m568.06 519.01c2.83-2.39 10.12-0.78 14.94-0.97l-0.02 1c-4.97 0.04-9.97-0.04-14.92-0.03z" fill="#005b00"/>
  <path d="m804.02 517.99c1.62 37.77 1.67 82.29-0.03 120.01 0.04-40-0.04-80.01 0.03-120.01z" fill="#003800"/>
  <path d="m682.91 540.96c0.53-5.27 0.57-10.68 2.19-15.75-1.01 4.56 1.25 12.65-2.19 15.75z" fill="#1cab1d"/>
  <path d="m569.41 535.72c0.58 2.77 0.48 5.56 0.62 8.42-2.32-1.53-0.67-5.84-0.62-8.42z" fill="#11780f"/>
  <path d="m561.32 540.77c0.4 2.72 0.31 5.42 0.66 8.19-0.88-2.64-0.69-5.48-0.66-8.19z" fill="#8b8a28"/>
  <path d="m451.14 553.06c0.93-2.59-1.71-8.49 0.93-9.97-0.01 3.35-0.41 6.64-0.93 9.97z" fill="#1b8519"/>
  <path d="m561.98 548.96c0.99 2.66 0.86 5.44 0.78 8.29-0.52-2.72-0.43-5.58-0.78-8.29z" fill="#434008"/>
  <path d="m570.05 550.65l1.24 2.48c0.06 1.87-0.21 3.74-0.3 5.62-2.35-0.42-0.54-5.74-0.94-8.1z" fill="#005f00"/>
  <path d="m810.99 574c-0.13-7.41-0.09-14.82 0.84-22.17 0.13 7.39 0.67 14.85-0.84 22.17z" fill="#8d8e3e"/>
  <path d="m571.29 553.13c2.17 9.05 1.35 18.58 1.78 27.83l-0.99 0.03c0.18-7.45-0.26-14.86-1.09-22.24 0.09-1.88 0.36-3.75 0.3-5.62z" fill="#1cb61c"/>
  <path d="m563.29 565.72c0.9 3.44 0.84 6.98 0.4 10.53-0.93-3.42-0.88-7.04-0.4-10.53z" fill="#7d7e21"/>
  <path d="m810.18 597.19c-0.21-7.75-0.74-15.55 0.81-23.19 0.12 7.73 0.15 15.48-0.81 23.19z" fill="#4d4b01"/>
  <path d="m939.29 574.84c0.52 2.79 0.11 5.6 0.38 8.47-0.18-2.81-0.27-5.7-0.38-8.47z" fill="#87893a"/>
  <path d="m572.08 580.99l0.99-0.03c0.04 4.32-0.05 8.63-0.12 12.98-2.48-2.13-0.74-8.89-0.87-12.95z" fill="#006a00"/>
  <path d="m932.05 588.85c2.4 3.01 1.65 9.06 1.67 13.38-1.19-4.36-1.69-8.89-1.67-13.38z" fill="#148c16"/>
  <path d="m444.22 600.2c0.27-2.89-0.7-7.7 1.9-9.2 0.03 3.17-0.83 6.24-1.9 9.2z" fill="#108010"/>
  <path d="m565.29 593.7c0.9 3.45 0.85 7.01 0.4 10.56-0.95-3.44-0.78-7.06-0.4-10.56z" fill="#6a6d16"/>
  <path d="m574.13 600.04c2.66 6.44 1.01 13.9 1.98 20.71-2.22-4.83-2.14-13.89-1.98-20.71z" fill="#17a118"/>
  <path d="m809 646.03c-0.14-8.77-0.17-17.54 0.78-26.25 0.13 8.74 0.91 17.58-0.78 26.25z" fill="#7d7e33"/>
  <path d="m576.26 621.67c1.58 5.64 1.64 11.57 1.74 17.39-1.63-4.54-2.24-11.62-1.74-17.39z" fill="#1aa81b"/>
  <path d="m302.26 639.23c0.1-2.4-0.53-5.91 1.8-7.34-0.07 2.55-0.81 5-1.8 7.34z" fill="#15a716"/>
  <path d="m945.28 633.78c0.76 3.02 0.62 6.07 0.71 9.2-1.45-2.86-0.86-6.15-0.71-9.2z" fill="#3e3f08"/>
  <path d="m803 638.02l0.99-0.02c-0.82 4.01 1.87 12.74-1.18 14.76 0.2-4.91 0.11-9.85 0.19-14.74z" fill="#017602"/>
  <path d="m945.99 642.98c1.59 2.88 0.72 6.12 0.75 9.29-0.74-3.03-0.87-6.22-0.75-9.29z" fill="#878927"/>
  <path d="m808.2 666.14c-0.34-6.71-0.57-13.5 0.8-20.11 0.15 6.71-0.08 13.42-0.8 20.11z" fill="#3c3b00"/>
  <path d="m1182 646.28c2.3 8.08 0.7 21.78 0.6 31.98-1.3-10.61-0.4-21.33-0.6-31.98z" fill="#055005"/>
  <path d="m801.94 669.04c-0.14-5.45 0.37-10.88 0.87-16.28 0.01 5.39 0.51 10.84 0.11 16.25l-0.98 0.03z" fill="#28a12b"/>
  <path d="m940.02 656.02c2.6 3.64 0.27 11.77 0.83 17.08-2.31-5.29-0.36-11.51-0.83-17.08z" fill="#168619"/>
  <path d="m947.29 659.8c0.4 2.8 0.05 5.58 0.37 8.45-0.24-2.8-0.38-5.69-0.37-8.45z" fill="#4d4f12"/>
  <path d="m53.67 665.13c-2.75 9.72-6.22 3.27-1.94-3.16 0.52 1.11 1.24 2.13 1.94 3.16z" fill="#20a921"/>
  <path d="m581.26 665.89c1.12 2.62 0.71 5.41 0.73 8.24-2.23-1.64-0.54-5.67-0.73-8.24z" fill="#168a16"/>
  <path d="m801.94 669.04l0.98-0.03c-0.62 4.46 1.67 13.32-1.1 15.76 0.25-5.23 0.07-10.51 0.12-15.73z" fill="#040"/>
  <path d="m1191.2 673.86c0.9 7.06 0.8 14.19 0.6 21.31-0.9-7.09-0.9-14.22-0.6-21.31z" fill="#6d6e27"/>
  <path d="m292.01 692.97c1.01-4.85 0.13-11.1 2.97-15.13-0.24 5.15-0.99 10.32-2.97 15.13z" fill="#18c21a"/>
  <path d="m582.94 679.05c2.96 3.44 1.15 8.86 2.07 12.93-2.5-2.47-1.55-8.82-2.07-12.93z" fill="#169f17"/>
  <path d="m807.22 700.22c-0.13-5.83-0.24-11.67 0.61-17.44 0.09 5.81 0.02 11.63-0.61 17.44z" fill="#70712a"/>
  <path d="m941.97 683.9c2.88 1.46 0.58 7.42 0.67 10.45-0.91-3.4-1.01-6.97-0.67-10.45z" fill="#065a05"/>
  <path d="m949.28 683.82c0.38 2.79 0.14 5.55 0.38 8.41-0.21-2.79-0.31-5.67-0.38-8.41z" fill="#605f20"/>
  <path d="m800.72 700.71c0.21-5.34 0.63-10.64 1.1-15.94-0.71 4.51 1.82 13.48-1.1 15.94z" fill="#068306"/>
  <path d="m429.23 704.08c0.61-2.73-1.63-7.37 0.79-9.21-0.03 3.09-0.49 6.1-0.79 9.21z" fill="#1f9220"/>
  <path d="m799.92 717.04c-0.04-5.47 0.38-10.91 0.8-16.33 0.1 5.4 0.63 10.88 0.19 16.31l-0.99 0.02z" fill="#2aa829"/>
  <path d="m428.17 712.09c0.29-2.47-1.32-6.76 1.06-8.01-0.3 2.68-0.69 5.29-1.06 8.01z" fill="#060"/>
  <path d="m288.3 717.2c0.58-3.77-1.36-9.49 1.77-12.46-0.33 4.18-1.03 8.32-1.77 12.46z" fill="#1bc11c"/>
  <path d="m951.28 707.82c0.38 2.79 0.14 5.55 0.38 8.41-0.22-2.79-0.31-5.67-0.38-8.41z" fill="#6a6a26"/>
  <path d="m944.05 713.99c1.3 2.83 1.6 6.51 0.88 11.03l-0.98-0.05c-0.06-3.65-0.02-7.36 0.1-10.98z" fill="#024f02"/>
  <path d="m1187.1 715.92c3.1 3.3-0.3 15.29-0.9 6.16 0.3-1.54 0.7-4.62 0.9-6.16z" fill="#0e670e"/>
  <path d="m1231.4 715.71c0.1 4.17 0.4 8.32 0.3 12.53-0.3-4.18-0.6-8.37-0.3-12.53z" fill="#3e3d2c"/>
  <path d="m286.02 728.03c0.96-2.75-0.89-9.49 2.28-10.83-0.47 3.67-1.37 7.23-2.28 10.83z" fill="#1bbc1c"/>
  <path d="m799.92 717.04l0.99-0.02c-0.42 6.32 1.55 16.45-1.11 20.76 0.37-6.91 0.11-13.85 0.12-20.74z" fill="#014f02"/>
  <path d="m588.3 717.71c1.18 4.02 1.8 8.16 1.65 12.38-2.78-2.73-0.44-8.88-1.65-12.38z" fill="#158e13"/>
  <path d="m1225.3 720.78c1 3.42 0.8 6.94 0.4 10.49-0.9-3.4-0.9-7.02-0.4-10.49z" fill="#4b4c02"/>
  <path d="m7.18 735.07c0.21-4.07 0.37-8.14 0.66-12.16-0.23 4.04-0.38 8.08-0.66 12.16z" fill="#6c6d26"/>
  <path d="m639.93 744.01c1.28-7.03 1.65-14.66 5.19-20.96-1.72 6.66-1.83 15.51-5.19 20.96z" fill="#1aaa19"/>
  <path d="m943.95 724.97l0.98 0.05c0.14 12.43 2.02 24.88 0.8 37.31-1.85-12.28-0.93-24.95-1.78-37.36z" fill="#19a018"/>
  <path d="m805.18 745.18c-0.36-5.11 0.1-10.26 0.65-15.32 0.34 5.11-0.16 10.2-0.65 15.32z" fill="#64641f"/>
  <path d="m953.18 731.85c0.24 3.78 0.45 7.58 0.63 11.39-0.2-3.81-0.41-7.61-0.63-11.39z" fill="#7a7931"/>
  <path d="m590.25 733.69c1.17 3.32 1.62 6.75 1.79 10.29-2.76-1.44-1.66-7.18-1.79-10.29z" fill="#158e13"/>
  <path d="m425.14 747.99c1.29-3.06-2.41-10.45 0.93-11.94-0.11 3.98-0.03 8-0.93 11.94z" fill="#1a9e1a"/>
  <path d="m798.99 757.94c-0.29-6.73 0.18-13.48 0.81-20.16-1.01 5.83 2.4 16.23-0.81 20.16z" fill="#0b8e0d"/>
  <path d="m1226.2 742.7c1.2 3.37 0.9 6.86 0.8 10.39-1.7-3.2-0.9-6.96-0.8-10.39z" fill="#7c7c33"/>
  <path d="m592.31 745.73c0.77 4.12 1.72 8.22 1.63 12.47-2.64-2.9-1.17-8.6-1.63-12.47z" fill="#169d15"/>
  <path d="m152.72 752.17c-2.13 10.56-5.28-0.78-0.76-5.1 0.21 1.7 0.5 3.39 0.76 5.1z" fill="#22a225"/>
  <path d="m416.14 756.12c0.28-2.77 0.44-5.62 0.7-8.34-0.18 2.79-0.47 5.5-0.7 8.34z" fill="#505016"/>
  <path d="m1227 753.09c0.3 3.69 0.6 7.4 0.8 11.12-0.2-3.73-0.4-7.43-0.8-11.12z" fill="#3d3e01"/>
  <path d="m1233 753.01l1 0.19v32.55l-1 0.18v-32.92z" fill="#51503d"/>
  <path d="m804 773c-0.01-4.73 0.39-9.48 0.87-14.15 0.13 4.73-0.1 9.45-0.87 14.15z" fill="#999934"/>
  <path d="m945.73 762.33c1.76 8.95 2.87 22.02 1.98 32.83-2.09-10.76-0.89-21.94-1.98-32.83z" fill="#169417"/>
  <path d="m140.92 774.62c-2.49-1.73 0.03-5.12-0.1-7.51-0.04 2.48 0 4.98 0.1 7.51z" fill="#747528"/>
  <path d="m4.68 784.16c-1.05-5.39-0.65-10.84 0.15-16.2 0.1 5.4-0.07 10.77-0.15 16.2z" fill="#929534"/>
  <path d="m797.96 784.06c-0.07-4.45 0.41-8.92 0.79-13.32-1.06 3.64 2.44 11.18-0.79 13.32z" fill="#065a06"/>
  <path d="m1228.3 771.84c1.2 3.91 0.8 8.05 0 12.02v-12.02z" fill="#72702c"/>
  <path d="m803.15 787.17c-0.09-4.74-0.06-9.53 0.85-14.17-0.02 4.73-0.43 9.43-0.85 14.17z" fill="#525113"/>
  <path d="m0 776.06l0.99-0.1c0.06 13.02 0.03 26.05-0.04 39.08l-0.95-0.3v-38.68z" fill="#676550"/>
  <path d="m277.16 783.87c0.27-2.51-1.3-6.34 0.88-7.95-0.06 2.68-0.51 5.24-0.88 7.95z" fill="#1ba31c"/>
  <path d="m954.23 775.67c1.94 9.27 0.25 18.91 0.77 28.33-3.02-8.89-0.07-19.06-0.77-28.33z" fill="#4e4e02"/>
  <path d="m1088.4 775.7c0.6 2.68 1.2 5.37 1.7 8.1l-0.6 0.5c-1.2-2.05-2.4-4.12-3.3-6.28 0.7-0.79 1.4-1.56 2.2-2.32z" fill="#1a621b"/>
  <path d="m5.31 790.8c0.43 2.8 0.21 5.57 0.38 8.46-0.33-2.8-0.19-5.71-0.38-8.46z" fill="#60631f"/>
  <path d="m275.77 803.22c-0.83 7.78-6.06-0.67-0.83-4.18 0.26 1.38 0.54 2.78 0.83 4.18z" fill="#21ae25"/>
  <path d="m802 816.99c0.03-5.42 0.29-10.83 0.82-16.21 0.07 5.4 0.19 10.85-0.82 16.21z" fill="#868525"/>
  <path d="m1222.2 815.86c-0.2-4.96-0.1-9.96 0.6-14.86 0.2 4.97-0.2 9.9-0.6 14.86z" fill="#9b9b45"/>
  <path d="m101.52 822.42c13.36-7.58 28.05-24.56 44.14-15.34 78.81 29.29 160.7 50.87 242.78 67.44 23.85 9.34 51.16 5.01 75.14 11.12-11.49-0.17-22.98-0.49-34.43-1.47-104.41-6.83-205.18-37.5-304.16-70.57-21.55 9.09-41.19 23.42-61.92 34.66-2.73 18.84-5.91 37.97-7.26 56.94 22.41 37.75 48.53 73.65 65.56 114.4 10.23 15 14.67 34.2 29.09 46 55.02 55.9 113.88 107.7 171.83 160.5 35.97 11.5 74.12 14.9 111.7 15.5 33.26-5.8 67.31-8.3 100.71-11.7 21.29-8.9 41.14-20.7 62.2-29.9 13.17-16.1 27.53-31.2 41.48-46.6 13.66-24.9 33.27-45.1 47.97-69.3 2.8-23.5 3.76-47.3 6.52-70.8-5.24-21.48-10.04-43.03-15.31-64.48-0.7-6.29-0.81-13.99-7.42-17.08-19.21-10.12-34.86-27.15-55.67-33.92 14.85-0.52 29.84 1.54 44.33 2.52 2.82 1.24 7.86-3.99 7.88 1.01 23.33 1.07 46.88 4.6 69.5 6.74 9.19 7.34 24.1 12.81 29.57 21.65 9.86 0.7 15.76 10.26 24.46 13.97 3.24 5.26 12.18 3.44 12.81 10.42 2.38 13.12 6.24 31.36 10.84 40.25 0.02 16.72 6.37 32.82 9.74 49.02-0.1 29.2-7.08 58-4.93 87.3-21.53 29.9-44.43 60.5-65.47 91.5-8.39 12.2-22.95 22.5-28.95 34.3-10.95 1.6-13.95 21.5-27.52 21.6-21.49 9.9-42.56 20.6-64 30.7-27.54 5.4-56.34 3.9-83.56 10.6-9.36-1.7-20.68-0.5-28.23 2.4-14.35 2.4-28.55-1.6-43.32 1.7-9.23-1.7-23.72 0.5-29.03-4-26.54-1.7-52.51-7.3-77.31-16.7-34.64-33.6-71.05-63-106.76-96.3-36.62-33.6-71.88-70-108.74-105.3-18.94-34-37.14-69.7-54.73-104.28-17.54-27-33.75-54.46-51.23-81.36 0.29-21.03 5.88-43.14 8.43-65.18 10.68-13.53 28.93-19.71 43.27-27.96z" fill="#d0d034"/>
  <path d="m955 804c3.04 8.88 0.05 19.09 0.69 28.4-1.64-9.36-0.34-18.97-0.69-28.4z" fill="#8e8f3e"/>
  <path d="m416.25 815.13c0.21-2.62-1.46-6.58 0.78-8.31-0.12 2.79-0.52 5.48-0.78 8.31z" fill="#028003"/>
  <path d="m949.02 807.97c1.34 1.08 2.64 10.95-0.04 12.01-0.04-4.02-0.02-8.03 0.04-12.01z" fill="#006a00"/>
  <path d="m796 820.99c0.2-3.75 0.44-7.48 0.72-11.18 0.65 4.16 0.42 7.89-0.72 11.18z" fill="#0b660c"/>
  <path d="m6.32 810.67c1.58 7.73 0.44 15.7 0.36 23.53-1.67-7.72-0.43-15.74-0.36-23.53z" fill="#2f3002"/>
  <path d="m124.99 813.6c98.98 33.07 199.75 63.74 304.16 70.57-14.52 1.34-28.94-1.56-43.32-3.04-12.09-1.3-24.25-2.2-36.39-2.92-22.38-5.81-46.66-1.33-68.5-9.75-48.64-8.93-96.42-22.51-143.52-37.86-9.21-2-19.82-13.06-28.8-4.94-11.63 8.08-24.92 13.37-36.67 21.22-10.88 5.24-5.24 18.91-9.17 28.02 1.34 9.34-6.61 19.7 2.36 26.97 8.21 14.31 21.35 28.92 24.63 43.66 6.73-5.35 3.62 13.43 11.13 6.4-2.26 2.36-3.69 5.4-0.91 8.03 5.73 13 11.3 23.08 18.53 35.62 10.8 27.92 38.49 43.52 57.53 65.42 1.46 4.7 10 1.2 6.3 6 30.19 28.8 59.99 51.6 88.67 81.3 12.95 3.1 27.79 6.7 39.68 6.7 10.31 0.8 21.51 7.5 32.01 2.1 5.3 6.9 15.22-1 22.63 0.8 17.08-0.3 31.63-4.9 46.97-4.2 26.84 0.7 46.39-16.1 70.45-24.9 30.6-26.6 50.82-62.9 75.74-94.3-0.24-19.1 1.23-37.58 3.85-56.16-3.73-13.79-6.14-27.27-10.82-41.19 2.44-3.75 1.36-5.11-3.01-4.93 5.77-13.04-6.81-18.02-15.36-23.95-12.02-4.31-19.82-17.66-33.62-17.77-3.07-1.42-7.93 2.26-9.85-1.56 38.96 1.09 78.05 6.04 117.06 8.49 2.58 0.21 5.09 0.13 7.72 0.39 20.81 6.77 36.46 23.8 55.67 33.92 6.61 3.09 6.72 10.79 7.42 17.08 5.27 21.45 10.07 43 15.31 64.48-2.76 23.5-3.72 47.3-6.52 70.8-14.7 24.2-34.31 44.4-47.97 69.3-13.95 15.4-28.31 30.5-41.48 46.6-21.06 9.2-40.91 21-62.2 29.9-33.4 3.4-67.45 5.9-100.71 11.7-37.58-0.6-75.73-4-111.7-15.5-57.95-52.8-116.81-104.6-171.83-160.5-14.42-11.8-18.86-31-29.09-46-17.03-40.75-43.15-76.65-65.56-114.4 1.35-18.97 4.53-38.1 7.26-56.94 20.73-11.24 40.37-25.57 61.92-34.66z" fill="#d7d836"/>
  <path d="m801.21 833.25c-0.12-5.45-0.29-10.91 0.79-16.26-0.07 5.41-0.35 10.83-0.79 16.26z" fill="#42430b"/>
  <path d="m108.62 825.66c8.98-8.12 19.59 2.94 28.8 4.94 47.1 15.35 94.88 28.93 143.52 37.86 21.84 8.42 46.12 3.94 68.5 9.75-74.48-3.58-149.47-12.54-219.38-38.29-10.55-1.3-15.74-7.32-26.07-7.33-11.55 6.21-22.14 13.72-33.53 20.21 0.19 11.08-6.84 22.09-2.87 33.41 10.2 17.89 22.46 34.52 30.71 53.48 9.96 12.48 12.05 29.93 24.57 40.46 17.08 16.96 36.57 35.05 53.83 49.05 12.02 15.1 31.75 27.2 42.52 41.7 28.74 3 59.4 11.2 88.17 1.4 8.23 4.3 17.8-2.6 27.04-0.8 8.96 2 14.56-10.4 23.08-8.5 33.55-12.4 49.02-49 70.49-75.57 1.04-20.99 5.2-40.33-1.22-61.09-4.64-8.59 0.23-24.26-11.44-27.7-9.67-6.1-17.52-15.93-29.51-17.51 14.38 1.48 28.8 4.38 43.32 3.04 11.45 0.98 22.94 1.3 34.43 1.47 8.62 1.7 17.39 2.33 26.11 3.3 1.92 3.82 6.78 0.14 9.85 1.56 13.8 0.11 21.6 13.46 33.62 17.77 8.55 5.93 21.13 10.91 15.36 23.95 4.37-0.18 5.45 1.18 3.01 4.93 4.68 13.92 7.09 27.4 10.82 41.19-2.62 18.58-4.09 37.06-3.85 56.16-24.92 31.4-45.14 67.7-75.74 94.3-24.06 8.8-43.61 25.6-70.45 24.9-15.34-0.7-29.89 3.9-46.97 4.2-7.41-1.8-17.33 6.1-22.63-0.8-10.5 5.4-21.7-1.3-32.01-2.1-11.89 0-26.73-3.6-39.68-6.7-28.68-29.7-58.48-52.5-88.67-81.3 3.7-4.8-4.84-1.3-6.3-6-19.04-21.9-46.73-37.5-57.53-65.42-7.23-12.54-12.8-22.62-18.53-35.62-2.78-2.63-1.35-5.67 0.91-8.03-7.51 7.03-4.4-11.75-11.13-6.4-3.28-14.74-16.42-29.35-24.63-43.66-8.97-7.27-1.02-17.63-2.36-26.97 3.93-9.11-1.71-22.78 9.17-28.02 11.75-7.85 25.04-13.14 36.67-21.22z" fill="#dcdd37"/>
  <path d="m414.22 840.33c0.92-2.77-1.86-8.68 0.85-10.36-0.03 3.48-0.52 6.86-0.85 10.36z" fill="#007400"/>
  <path d="m794.05 842.18c0-3.8 0.24-7.57 0.71-11.3 0.56 4.05 0.32 7.82-0.71 11.3z" fill="#168718"/>
  <path d="m103.99 832.59c10.33 0.01 15.52 6.03 26.07 7.33 69.91 25.75 144.9 34.71 219.38 38.29 12.14 0.72 24.3 1.62 36.39 2.92 11.99 1.58 19.84 11.41 29.51 17.51 11.67 3.44 6.8 19.11 11.44 27.7 6.42 20.76 2.26 40.1 1.22 61.09-21.47 26.57-36.94 63.17-70.49 75.57-8.52-1.9-14.12 10.5-23.08 8.5-9.24-1.8-18.81 5.1-27.04 0.8-28.77 9.8-59.43 1.6-88.17-1.4-10.77-14.5-30.5-26.6-42.52-41.7-17.26-14-36.75-32.09-53.83-49.05-12.52-10.53-14.61-27.98-24.57-40.46-8.25-18.96-20.51-35.59-30.71-53.48-3.97-11.32 3.06-22.33 2.87-33.41 11.39-6.49 21.98-14 33.53-20.21m-6.64 9.77c-7.38 2.73-12.93 9.06-20.62 11.06-4.79 6.18-3.19 15.22-4.28 22.71 13.66 17.99 21.86 39.61 34.14 58.34 2.75 0.89 6.24-3.99 5.3 3.51 18.4 17.46 36.63 34.67 55.83 51.58 20.95 7.01 43.91 6.41 65.38 1.98 8.76 1.27 16.69-3.4 24.19-7.31 17.41-6.21 23.63-25.85 36.28-38.65 2.21-4.03 9.43-10.21 4.17-14.23 3.75-17.34 4.38-45.57-15.59-53.47-8.19-9.52-22.12-3.15-32.27-7.55-52.28-0.2-103.91-10.54-152.53-27.97z" fill="#e2e237"/>
  <path d="m97.35 842.36c48.62 17.43 100.25 27.77 152.53 27.97 10.15 4.4 24.08-1.97 32.27 7.55 19.97 7.9 19.34 36.13 15.59 53.47 5.26 4.02-1.96 10.2-4.17 14.23-12.65 12.8-18.87 32.44-36.28 38.65-7.5 3.91-15.43 8.58-24.19 7.31-21.47 4.43-44.43 5.03-65.38-1.98-19.2-16.91-37.43-34.12-55.83-51.58 0.94-7.5-2.55-2.62-5.3-3.51-12.28-18.73-20.48-40.35-34.14-58.34 1.09-7.49-0.51-16.53 4.28-22.71 7.69-2 13.24-8.33 20.62-11.06z" fill="#eaea39"/>
  <path d="m415.8 845.9c0.95 5.24-5.89 3.9-1.73-0.03 0.43 0 1.3 0.02 1.73 0.03z" fill="#228f24"/>
  <path d="m790.75 856.41c0.56-0.35 1.67-1.06 2.23-1.42 2.27 9.67-2.65 8.64-2.23 1.42z" fill="#297e29"/>
  <path d="m800.3 878.32c-0.37-7.2-0.49-14.41 0.52-21.54 0.36 7.17 0.05 14.36-0.52 21.54z" fill="#7b7c1f"/>
  <path d="m610.07 871.17c0.45-0.04 1.35-0.14 1.8-0.18 0.99 6.43-3.43 6.96-1.8 0.18z" fill="#1c8a1c"/>
  <path d="m844.99 1409.4c9.73 3.8 6.77 16.4 3.06 23.6-34.73 25.8-80.35 29.1-121.94 33.9-2.86 0.1-5.61 0.3-8.39 0.7-6.56 0.2-13.07 1.5-19.63 1.4-3.55-0.4-7.04-0.3-10.44 0.7-3.2 0.5-6.4 0.3-9.6 0.3-3.5-0.4-6.99-0.4-10.32 0.7-3.43-0.1-6.79 0.1-10.08 1-3.21 0.4-6.39 0.3-9.58 0.3-3.52-0.4-6.99-0.3-10.38 0.6-30.55 4.6-60.81-5.2-91.48-2.8-4.11-0.4-8.19-0.7-12.28-0.8-25.36-2-50.51-6.4-75.65-10.3-15.36-3.6-32.16-7.9-41.59-21.7-0.82-6.8-1.68-18.3 9.23-16.1 39.46 8.5 78.81 14.9 118.87 19.4 6.29 0.5 12.63 0.8 18.96 0.9 3.78 0.2 7.57 0.5 11.38 0.8 1.64 0.1 4.93 0.2 6.58 0.3 4.11 0.2 8.25 0.6 12.41 0.7 2.89-0.1 5.88 0 8.82 0 4.42-0.1 9.02 0.4 13.38-0.6 6.16-0.8 12.38-1.2 18.59-1.4 3.12 0 6.36 0.2 9.41-0.7 3.11-0.7 6.42-0.2 9.6-0.3 4.11 0.1 8.22-0.3 12.33-0.7 4-0.4 8.07-0.5 12.08-1 3.47-0.2 7.03-0.4 10.54-0.3 3.13 0.1 6.37 0.2 9.45-0.6 49.55-4.5 99.46-11.5 146.67-28z" fill="#b59104"/>
  <path d="m523.03 1432.1c11.99 0 23.98-0.3 35.98-0.1l-0.04 1c-11.98-0.3-24.05 0.9-35.94-0.9z" fill="#3f3e07"/>
  <path d="m559.01 1432h104.12l-0.16 1h-104l0.04-1z" fill="#b7b85b"/>
  <path d="m663.13 1432c4.35 0 8.7 0.2 13.09 0.4-4.34 0.9-8.87 0.5-13.25 0.6l0.16-1z" fill="#414209"/>
  <path d="m688.87 1438c1.52-3 6.68-0.6 9.45-0.6-3.08 0.8-6.32 0.7-9.45 0.6z" fill="#625713"/>
  <path d="m666.25 1439.3c1.52-3.1 8.54-0.5 12.08-1-4.01 0.5-8.08 0.6-12.08 1z" fill="#402d00"/>
  <path d="m653.92 1440c2.45-2.8 8.55-0.4 12.33-0.7-4.11 0.4-8.22 0.8-12.33 0.7z" fill="#716119"/>
  <path d="m544.79 1440.3c5.19 0.8 16.05-2.6 18.96 0.9-6.33-0.1-12.67-0.4-18.96-0.9z" fill="#4b3a00"/>
  <path d="m634.91 1441c1.34-3.1 6.66-0.5 9.41-0.7-3.05 0.9-6.29 0.7-9.41 0.7z" fill="#4b3c01"/>
  <path d="m563.75 1441.2c4.19-0.7 7.98-0.4 11.38 0.8-3.81-0.3-7.6-0.6-11.38-0.8z" fill="#806d1f"/>
  <path d="m581.71 1442.3c3.27 1.1 10.45-2.7 12.41 0.7-4.16-0.1-8.3-0.5-12.41-0.7z" fill="#584400"/>
  <path d="m602.94 1443c2.57-2.5 9.16-0.9 13.38-0.6-4.36 1-8.96 0.5-13.38 0.6z" fill="#574200"/>
  <path d="m717.72 1467.6c2.78-0.4 5.53-0.6 8.39-0.7-1.47 2.4-5.83 0.7-8.39 0.7z" fill="#614c02"/>
  <path d="m533.93 1469c4.09 0.1 8.17 0.4 12.28 0.8-3.27-1.3-10.38 2.4-12.28-0.8z" fill="#523d00"/>
  <path d="m687.65 1469.7c3.4-1 6.89-1.1 10.44-0.7-1.52 2.9-7.39 0.5-10.44 0.7z" fill="#513c00"/>
  <path d="m667.73 1470.7c3.33-1.1 6.82-1.1 10.32-0.7-1.41 2.9-7.31 0.5-10.32 0.7z" fill="#766418"/>
  <path d="m657.65 1471.7c3.29-0.9 6.65-1.1 10.08-1-0.39 3-7.34 0.8-10.08 1z" fill="#453300"/>
  <path d="m637.69 1472.6c3.39-0.9 6.86-1 10.38-0.6-1.49 2.8-7.35 0.5-10.38 0.6z" fill="#6a5b12"/>
  <path d="m552.87 1477.1c3.45 0.1 6.84 0.3 10.3 0.8-3.45 0.1-6.91-0.5-10.3-0.8z" fill="#3f4140"/>
  <path d="m652.68 1477.7c3.16-0.6 6.32-0.8 9.57-0.4-3.12 0.9-6.4 0.5-9.57 0.4z" fill="#3e403f"/>
 </g>
</svg>
