<?xml version="1.0" encoding="utf-8"?>
<!-- Generator: Adobe Illustrator 22.1.0, SVG Export Plug-In . SVG Version: 6.00 Build 0)  -->
<svg version="1.1" id="Layer_1" xmlns="http://www.w3.org/2000/svg" xmlns:xlink="http://www.w3.org/1999/xlink" x="0px" y="0px"
	 viewBox="0 0 256 256" style="enable-background:new 0 0 256 256;" xml:space="preserve">
<style type="text/css">
	.st0{fill:#231F20;}
	.st1{fill:#FFEFE4;}
	.st2{fill:#69EBFC;}
	.st3{fill:#5FD4E3;}
	.st4{fill:#A1F1FC;}
	.st5{fill:#D476E2;}
	.st6{fill:#B665C2;}
	.st7{fill:#EA82FA;}
	.st8{fill:#FFF7F2;}
	.st9{fill:#FF8354;}
	.st10{fill:#FFA172;}
	.st11{fill:#6770E6;}
	.st12{fill:#5861C7;}
	.st13{fill:#E0734A;}
	.st14{fill:#EDD4C2;}
	.st15{fill:#CC6944;}
	.st16{fill:#858EFF;}
	.st17{fill:#C76642;}
	.st18{fill:#FFFFFF;}
	.st19{fill:#FFDEC7;}
	.st20{fill:#4E56B0;}
	.st21{fill:#94529E;}
	.st22{fill:#41B6C5;}
	.st23{fill:#9847A4;}
	.st24{fill:#C2552C;}
	.st25{fill:#CFB6A4;}
</style>
<g>
	<path class="st5" d="M55.078,120.967c5.336-3.462,10.82-6.755,15.621-10.927c7.237-6.289,11.45-13.177,2.83-21.797
		c0,0-23.19-23.19-23.19-23.19c-3.564-3.563-9.473-5.161-14.135-2.934c-2.505,1.197-4.566,3.14-6.542,5.092
		c-1.955,1.931-3.865,3.887-5.713,5.874C8.393,89.801-2.794,108.652,0.614,132.739C2.379,145.213,7.531,157,13.932,167.757
		c17.673,29.696,44.527,56.586,74.311,74.311c10.757,6.402,22.543,11.554,35.017,13.318c24.087,3.408,42.938-7.779,59.655-23.335
		c1.986-1.848,3.942-3.758,5.874-5.713c1.952-1.975,3.895-4.036,5.092-6.542c2.228-4.662,0.63-10.572-2.934-14.135
		c0,0-23.19-23.19-23.19-23.19c-8.62-8.62-15.507-4.406-21.797,2.83c-4.172,4.801-7.465,10.285-10.927,15.621
		c-2.603,4.011-5.471,7.405-10.623,7.009c-11.04-0.85-21.693-10.244-29.772-17.009c-10.924-9.147-21.081-19.328-30.176-30.299
		c-6.562-7.915-15.567-18.276-16.393-29.034C47.673,126.438,51.067,123.569,55.078,120.967z"/>
	<path class="st6" d="M193.881,212.796c-1.197,2.505-3.14,4.566-5.092,6.542c-1.931,1.955-3.887,3.865-5.874,5.713
		c-16.717,15.556-35.567,26.743-59.655,23.335c-12.474-1.765-24.261-6.917-35.017-13.318
		c-29.784-17.725-56.638-44.615-74.311-74.311C7.531,150,2.379,138.213,0.614,125.739c-0.242-1.712-0.403-3.395-0.501-5.056
		c-0.232,3.873-0.089,7.884,0.501,12.056C2.379,145.213,7.531,157,13.932,167.757c17.673,29.696,44.527,56.586,74.311,74.311
		c10.756,6.402,22.543,11.554,35.017,13.318c24.087,3.408,42.938-7.779,59.655-23.335c1.986-1.848,3.942-3.758,5.874-5.713
		c1.952-1.975,3.895-4.036,5.092-6.542c1.233-2.58,1.29-5.541,0.495-8.275C194.237,211.953,194.079,212.381,193.881,212.796z"/>
	<path class="st6" d="M36.204,62.119c-2.505,1.197-4.566,3.14-6.542,5.092c-0.333,0.329-0.656,0.663-0.987,0.993l41.921,41.921
		c0.034-0.029,0.069-0.056,0.103-0.085c7.237-6.289,11.45-13.177,2.83-21.797c0,0-23.19-23.19-23.19-23.19
		C46.776,61.489,40.866,59.891,36.204,62.119z"/>
	<path class="st6" d="M190.947,205.661c0,0-23.19-23.19-23.19-23.19c-8.62-8.62-15.507-4.406-21.797,2.83
		c-0.029,0.034-0.056,0.069-0.085,0.103l41.921,41.921c0.33-0.33,0.664-0.654,0.993-0.987c1.952-1.975,3.895-4.036,5.092-6.542
		C196.109,215.134,194.511,209.224,190.947,205.661z"/>
	<path class="st6" d="M190.947,205.661c0,0-23.19-23.19-23.19-23.19c-8.62-8.62-15.507-4.406-21.797,2.83
		c-0.029,0.034-0.056,0.069-0.085,0.103l41.921,41.921c0.33-0.33,0.664-0.654,0.993-0.987c1.952-1.975,3.895-4.036,5.092-6.542
		C196.109,215.134,194.511,209.224,190.947,205.661z"/>
	<path class="st21" d="M194.365,218.555c0.073-0.223,0.143-0.447,0.2-0.674c0.029-0.115,0.05-0.232,0.075-0.348
		c0.047-0.216,0.092-0.433,0.125-0.651c0.018-0.117,0.031-0.234,0.045-0.352c0.027-0.223,0.05-0.446,0.064-0.67
		c0.007-0.111,0.011-0.222,0.015-0.333c0.008-0.236,0.009-0.472,0.003-0.709c-0.003-0.099-0.006-0.198-0.011-0.297
		c-0.013-0.255-0.034-0.51-0.063-0.765c-0.009-0.08-0.017-0.161-0.027-0.241c-0.037-0.284-0.085-0.567-0.141-0.849
		c-0.01-0.051-0.018-0.102-0.029-0.153c-0.07-0.333-0.152-0.665-0.247-0.993c-0.139,0.432-0.297,0.86-0.495,1.275
		c-1.197,2.505-3.14,4.566-5.092,6.542c-1.495,1.513-3.011,2.99-4.539,4.442l3.545,3.545c0.33-0.33,0.664-0.654,0.993-0.987
		c0.732-0.741,1.462-1.493,2.153-2.277c1.151-1.306,2.19-2.699,2.939-4.264c0.147-0.309,0.276-0.624,0.39-0.942
		C194.307,218.755,194.333,218.655,194.365,218.555z"/>
	<path class="st7" d="M48.565,134.766c-0.412,1.127-0.606,2.383-0.495,3.823c0.826,10.758,9.831,21.118,16.393,29.034
		c9.095,10.971,19.252,21.152,30.176,30.299c8.08,6.765,18.732,16.159,29.772,17.009c5.151,0.396,8.02-2.997,10.623-7.009
		c3.462-5.336,6.755-10.82,10.927-15.621c6.289-7.237,13.177-11.45,21.797-2.83c0,0,23.19,23.19,23.19,23.19
		c1.592,1.592,2.787,3.652,3.429,5.86c1.422-4.423-0.182-9.614-3.429-12.86c0,0-23.19-23.19-23.19-23.19
		c-8.62-8.62-15.507-4.406-21.797,2.83c-4.172,4.801-7.465,10.285-10.927,15.621c-2.603,4.011-5.471,7.405-10.623,7.009
		c-11.04-0.85-21.693-10.244-29.772-17.009c-10.924-9.147-21.081-19.328-30.176-30.299C58.55,153.49,50.674,144.37,48.565,134.766z"
		/>
	<path class="st5" d="M149.315,188.843c5.393-4.856,11.327-6.488,18.442,0.627c0,0,23.19,23.19,23.19,23.19
		c1.592,1.592,2.787,3.652,3.429,5.86c0.698-2.172,0.663-4.528,0.066-6.749c-0.015-0.057-0.029-0.114-0.045-0.17
		c-0.059-0.21-0.127-0.418-0.196-0.625c-0.03-0.089-0.059-0.177-0.09-0.265c-0.066-0.185-0.137-0.367-0.211-0.549
		c-0.044-0.109-0.09-0.218-0.137-0.326c-0.071-0.163-0.145-0.325-0.223-0.486c-0.059-0.123-0.121-0.245-0.184-0.367
		c-0.075-0.145-0.151-0.289-0.231-0.431c-0.075-0.134-0.155-0.265-0.234-0.396c-0.077-0.127-0.154-0.255-0.235-0.379
		c-0.094-0.143-0.192-0.282-0.291-0.422c-0.076-0.108-0.151-0.218-0.23-0.323c-0.118-0.157-0.243-0.308-0.367-0.459
		c-0.068-0.083-0.133-0.168-0.203-0.249c-0.198-0.229-0.404-0.451-0.616-0.664c0,0-1.11-1.11-2.844-2.844
		c-0.743-0.743-1.601-1.601-2.535-2.535c-0.311-0.311-0.631-0.631-0.958-0.958c-1.635-1.635-3.447-3.446-5.258-5.258
		c-0.362-0.362-0.725-0.725-1.086-1.086c-5.414-5.414-10.509-10.509-10.509-10.509c-0.808-0.808-1.601-1.503-2.38-2.094
		c-0.26-0.197-0.517-0.382-0.774-0.556c-1.282-0.87-2.525-1.456-3.734-1.796c-5.56-1.565-10.389,2.075-14.91,7.276
		c-0.029,0.034-0.056,0.069-0.085,0.103L149.315,188.843z"/>
	<path class="st7" d="M23.949,80.085c1.848-1.986,3.758-3.942,5.713-5.874c1.975-1.952,4.036-3.895,6.542-5.092
		c4.662-2.228,10.572-0.63,14.135,2.934c0,0,23.19,23.19,23.19,23.19c2.096,2.096,3.428,4.09,4.148,5.997
		c1.472-3.925,0.658-8.192-4.148-12.997c0,0-23.19-23.19-23.19-23.19c-3.563-3.563-9.473-5.161-14.135-2.934
		c-2.505,1.197-4.566,3.14-6.542,5.092c-1.955,1.931-3.865,3.887-5.713,5.874C9.499,88.613-1.173,105.986,0.113,127.683
		C1.221,109.19,11.087,93.906,23.949,80.085z"/>
	<path class="st5" d="M28.676,68.204l3.583,3.583c1.215-1.041,2.505-1.98,3.946-2.668c4.662-2.228,10.572-0.63,14.135,2.934
		c0,0,23.19,23.19,23.19,23.19c2.096,2.096,3.428,4.09,4.148,5.997c0.088-0.235,0.167-0.472,0.239-0.71
		c0.01-0.034,0.019-0.068,0.029-0.102c0.059-0.205,0.113-0.41,0.159-0.617c0.011-0.05,0.021-0.1,0.031-0.15
		c0.04-0.193,0.074-0.386,0.103-0.581c0.008-0.057,0.016-0.115,0.024-0.172c0.024-0.189,0.042-0.38,0.054-0.571
		c0.004-0.06,0.009-0.12,0.011-0.18c0.009-0.195,0.01-0.391,0.007-0.587c-0.001-0.055,0-0.11-0.002-0.165
		c-0.007-0.214-0.024-0.429-0.047-0.646c-0.004-0.037-0.005-0.075-0.01-0.112c-0.06-0.516-0.164-1.039-0.316-1.568
		c-0.007-0.025-0.017-0.05-0.024-0.075c-0.068-0.231-0.145-0.464-0.231-0.698c-0.028-0.075-0.061-0.151-0.09-0.226
		c-0.073-0.185-0.149-0.371-0.234-0.558c-0.042-0.094-0.089-0.188-0.135-0.282c-0.082-0.17-0.168-0.341-0.26-0.513
		c-0.055-0.103-0.114-0.206-0.173-0.31c-0.094-0.165-0.193-0.331-0.297-0.498c-0.067-0.108-0.135-0.216-0.207-0.324
		c-0.109-0.165-0.224-0.331-0.342-0.498c-0.078-0.11-0.155-0.219-0.237-0.329c-0.126-0.17-0.261-0.341-0.397-0.512
		c-0.086-0.108-0.168-0.215-0.258-0.323c-0.154-0.186-0.319-0.374-0.486-0.561c-0.083-0.094-0.161-0.187-0.247-0.281
		c-0.254-0.278-0.52-0.557-0.8-0.838c-0.005-0.004-0.008-0.009-0.013-0.013c0,0-2.265-2.265-5.379-5.378
		c-1.557-1.557-3.326-3.326-5.131-5.131c-0.722-0.722-1.449-1.449-2.171-2.171c-1.444-1.444-2.865-2.865-4.173-4.173
		c-0.654-0.654-1.28-1.28-1.865-1.865c-2.637-2.637-4.471-4.471-4.471-4.471c-0.891-0.891-1.928-1.659-3.056-2.275
		c-1.974-1.078-4.225-1.691-6.452-1.683c-1.591,0.006-3.17,0.328-4.627,1.024c-2.192,1.048-4.044,2.666-5.796,4.362
		c-0.25,0.242-0.499,0.486-0.745,0.73C29.329,67.54,29.006,67.874,28.676,68.204z"/>
	<path class="st2" d="M244.477,171.068c-0.371,0-0.744-0.019-1.121-0.057c-5.94-0.611-10.259-5.923-9.648-11.862
		c3.852-37.409-9.127-74.053-35.61-100.535c-26.484-26.484-63.132-39.451-100.535-35.61c-5.949,0.618-11.252-3.706-11.863-9.648
		c-0.612-5.939,3.707-11.251,9.647-11.862c43.92-4.515,86.937,10.724,118.041,41.828c31.106,31.107,46.352,74.131,41.829,118.041
		C254.645,166.926,249.95,171.068,244.477,171.068z"/>
	<path class="st2" d="M206.82,167.476c-0.382,0-0.768-0.02-1.156-0.061c-5.938-0.631-10.24-5.956-9.609-11.894
		c2.774-26.102-6.234-51.671-24.714-70.151c-18.482-18.482-44.055-27.496-70.151-24.715c-5.92,0.631-11.263-3.671-11.894-9.609
		c-0.63-5.938,3.671-11.263,9.609-11.894c32.635-3.46,64.605,7.806,87.726,30.926c23.122,23.123,34.395,55.099,30.927,87.728
		C216.968,163.356,212.277,167.476,206.82,167.476z"/>
	<path class="st2" d="M169.188,163.886c-0.41,0-0.823-0.022-1.24-0.071c-5.933-0.677-10.194-6.036-9.516-11.968
		c1.684-14.757-3.363-29.233-13.849-39.718c-10.486-10.488-24.965-15.525-39.719-13.85c-5.944,0.697-11.292-3.582-11.969-9.514
		c-0.678-5.933,3.582-11.292,9.515-11.968c21.353-2.437,42.29,4.868,57.463,20.043c15.174,15.172,22.48,36.116,20.044,57.462
		C179.287,159.817,174.61,163.886,169.188,163.886z"/>
	<path class="st4" d="M86.547,16.576c1.509-3.457,4.78-6.027,8.8-6.441c43.92-4.515,86.937,10.724,118.041,41.828
		c26.464,26.465,41.439,61.558,42.537,98.482c1.16-40.058-14.015-78.602-42.537-107.124C182.284,12.218,139.267-3.021,95.347,1.493
		C89.408,2.104,85.089,7.416,85.7,13.356C85.818,14.497,86.112,15.578,86.547,16.576z"/>
	<path class="st4" d="M90.14,54.232c1.504-3.446,4.758-6.012,8.764-6.438c32.635-3.46,64.605,7.806,87.726,30.926
		c19.396,19.396,30.412,45.027,31.426,72.041c1.259-30.148-9.971-59.227-31.426-80.683c-23.122-23.12-55.091-34.386-87.726-30.926
		c-5.938,0.631-10.239,5.956-9.609,11.894C89.416,52.176,89.708,53.244,90.14,54.232z"/>
	<path class="st4" d="M93.729,91.872c1.491-3.421,4.706-5.981,8.681-6.434c21.353-2.437,42.29,4.868,57.463,20.043
		c12.225,12.222,19.332,28.193,20.363,45.1c1.233-20.043-6.072-39.453-20.363-53.742c-15.173-15.175-36.11-22.48-57.463-20.043
		c-5.933,0.677-10.193,6.036-9.515,11.968C93.02,89.864,93.308,90.907,93.729,91.872z"/>
	<path class="st2" d="M132.71,120.131l-30.796,3.7c-2.353,0.283-3.345,3.153-1.67,4.829l8.134,8.134l-16.658,16.658
		c-2.99,2.99-2.99,7.838,0,10.828c1.495,1.494,3.454,2.242,5.414,2.242c1.96,0,3.918-0.748,5.414-2.242l16.658-16.658l8.134,8.134
		c1.676,1.676,4.546,0.683,4.829-1.67l3.7-30.796C136.088,121.462,134.538,119.912,132.71,120.131z"/>
</g>
</svg>
