<?xml version="1.0" encoding="utf-8"?>
<!-- Generator: Adobe Illustrator 22.1.0, SVG Export Plug-In . SVG Version: 6.00 Build 0)  -->
<svg version="1.1" id="Layer_1" xmlns="http://www.w3.org/2000/svg" xmlns:xlink="http://www.w3.org/1999/xlink" x="0px" y="0px"
	 viewBox="0 0 256 256" style="enable-background:new 0 0 256 256;" xml:space="preserve">
<style type="text/css">
	.st0{fill:#231F20;}
	.st1{fill:#FFEFE4;}
	.st2{fill:#69EBFC;}
	.st3{fill:#5FD4E3;}
	.st4{fill:#A1F1FC;}
	.st5{fill:#D476E2;}
	.st6{fill:#B665C2;}
	.st7{fill:#EA82FA;}
	.st8{fill:#FFF7F2;}
	.st9{fill:#FF8354;}
	.st10{fill:#FFA172;}
	.st11{fill:#6770E6;}
	.st12{fill:#5861C7;}
	.st13{fill:#E0734A;}
	.st14{fill:#EDD4C2;}
	.st15{fill:#CC6944;}
	.st16{fill:#858EFF;}
	.st17{fill:#C76642;}
	.st18{fill:#FFFFFF;}
	.st19{fill:#FFDEC7;}
	.st20{fill:#4E56B0;}
	.st21{fill:#94529E;}
	.st22{fill:#41B6C5;}
	.st23{fill:#9847A4;}
	.st24{fill:#C2552C;}
	.st25{fill:#CFB6A4;}
</style>
<g>
	<polygon class="st1" points="162,6 71.59,6 60.71,6 30,6 30,256 226,256 226,70 	"/>
	<rect x="30" y="250" class="st14" width="196" height="6"/>
	<polygon class="st8" points="162,6 71.59,6 60.71,6 30,6 30,12 168,12 	"/>
	<path class="st14" d="M126,55.601H60c-5.523,0-10-4.477-10-10v0c0-5.523,4.477-10,10-10h66c5.523,0,10,4.477,10,10v0
		C136,51.124,131.523,55.601,126,55.601z"/>
	<polygon class="st2" points="226,70 162,70 162,6 	"/>
	<path class="st5" d="M84.47,12.88v35.65C84.47,58.16,76.63,66,67,66s-17.47-7.84-17.47-17.47V14.37h6v34.16
		C55.53,54.85,60.67,60,67,60s11.47-5.15,11.47-11.47V12.88c0-3.79-3.09-6.88-6.88-6.88H60.71c2.28-3.6,6.3-6,10.88-6
		c4.57,0,8.6,2.4,10.87,6C83.73,7.99,84.47,10.35,84.47,12.88z"/>
	<path class="st7" d="M82.46,6c-2.27-3.6-6.3-6-10.87-6c-4.58,0-8.6,2.4-10.88,6h1.593c2.342-2.452,5.627-4,9.287-4
		c4.57,0,8.6,2.4,10.87,6c1.27,1.99,2.01,4.35,2.01,6.88v-2C84.47,10.35,83.73,7.99,82.46,6z"/>
	<path class="st2" d="M194.829,231.601H61.171c-6.17,0-11.171-5.002-11.171-11.171V96.772c0-6.17,5.002-11.171,11.171-11.171
		h133.657c6.17,0,11.171,5.002,11.171,11.171V220.43C206,226.599,200.998,231.601,194.829,231.601z"/>
	<path id="XMLID_293_" class="st9" d="M178.339,105.249l-67.817,12.48c-1.27,0.234-2.191,1.34-2.191,2.629v57.582
		c-4.808-2.848-11.125-3.788-17.453-2.094c-11.36,3.041-18.45,13.411-15.835,23.161s13.944,15.188,25.304,12.147
		c10.094-2.703,16.81-11.191,16.349-19.89h0.029V130.23l56.382-10.379v44.393c-4.808-2.848-11.125-3.788-17.453-2.094
		c-11.36,3.041-18.45,13.411-15.835,23.161c2.615,9.75,13.944,15.188,25.304,12.147c9.927-2.658,16.593-10.912,16.371-19.458h0.006
		l0.001-70.12C181.5,106.208,179.984,104.946,178.339,105.249z"/>
</g>
</svg>
