<?xml version="1.0" encoding="utf-8"?>
<!-- Generator: Adobe Illustrator 22.1.0, SVG Export Plug-In . SVG Version: 6.00 Build 0)  -->
<svg version="1.1" id="Layer_1" xmlns="http://www.w3.org/2000/svg" xmlns:xlink="http://www.w3.org/1999/xlink" x="0px" y="0px"
	 viewBox="0 0 256 256" style="enable-background:new 0 0 256 256;" xml:space="preserve">
<style type="text/css">
	.st0{fill:#231F20;}
	.st1{fill:#FFEFE4;}
	.st2{fill:#69EBFC;}
	.st3{fill:#5FD4E3;}
	.st4{fill:#A1F1FC;}
	.st5{fill:#D476E2;}
	.st6{fill:#B665C2;}
	.st7{fill:#EA82FA;}
	.st8{fill:#FFF7F2;}
	.st9{fill:#FF8354;}
	.st10{fill:#FFA172;}
	.st11{fill:#6770E6;}
	.st12{fill:#5861C7;}
	.st13{fill:#E0734A;}
	.st14{fill:#EDD4C2;}
	.st15{fill:#CC6944;}
	.st16{fill:#858EFF;}
	.st17{fill:#C76642;}
	.st18{fill:#FFFFFF;}
	.st19{fill:#FFDEC7;}
	.st20{fill:#4E56B0;}
	.st21{fill:#94529E;}
	.st22{fill:#41B6C5;}
	.st23{fill:#9847A4;}
	.st24{fill:#C2552C;}
	.st25{fill:#CFB6A4;}
</style>
<g>
	<path class="st2" d="M256,89.6v149.333c0,9.426-7.641,17.067-17.067,17.067H17.067C7.641,256,0,248.359,0,238.933V89.6
		L103.436,9.114c14.447-11.242,34.682-11.242,49.129,0L256,89.6z"/>
	<path class="st5" d="M217.6,256H38.4c-9.426,0-17.067-7.641-17.067-17.067V17.067C21.333,7.641,28.974,0,38.4,0h179.2
		c9.426,0,17.067,7.641,17.067,17.067v221.867C234.667,248.359,227.026,256,217.6,256z"/>
	<path class="st7" d="M217.6,0H38.4c-9.426,0-17.067,7.641-17.067,17.067v6C21.333,13.641,28.974,6,38.4,6h179.2
		c9.426,0,17.067,7.641,17.067,17.067v-6C234.667,7.641,227.026,0,217.6,0z"/>
	<path class="st1" d="M256,89.6v149.333c0,9.429-7.637,17.067-17.067,17.067H64L256,89.6z"/>
	<path class="st14" d="M238.933,246H75.538L64,256h174.933c9.429,0,17.067-7.637,17.067-17.067v-10
		C256,238.363,248.363,246,238.933,246z"/>
	<polygon class="st14" points="64,256 212,256 138,191.867 	"/>
	<path class="st1" d="M192,256H17.067C7.637,256,0,248.363,0,238.933V89.6L192,256z"/>
	<path class="st14" d="M17.067,246C7.637,246,0,238.363,0,228.933v10C0,248.363,7.637,256,17.067,256H192l-11.538-10H17.067z"/>
	<circle class="st2" cx="128" cy="88" r="68"/>
	<path class="st11" d="M128,116.907l22.215,11.679c2.935,1.543,6.364-0.949,5.804-4.217l-4.243-24.737l17.973-17.519
		c2.374-2.314,1.064-6.346-2.217-6.823l-24.838-3.609l-11.108-22.507c-1.467-2.973-5.707-2.973-7.174,0l-11.108,22.507
		l-24.838,3.609c-3.281,0.477-4.591,4.509-2.217,6.823l17.973,17.519l-4.243,24.737c-0.56,3.268,2.869,5.759,5.804,4.217
		L128,116.907z"/>
</g>
</svg>
