<?xml version="1.0" encoding="utf-8"?>
<!-- Generator: Adobe Illustrator 22.1.0, SVG Export Plug-In . SVG Version: 6.00 Build 0)  -->
<svg version="1.1" id="Layer_1" xmlns="http://www.w3.org/2000/svg" xmlns:xlink="http://www.w3.org/1999/xlink" x="0px" y="0px"
	 viewBox="0 0 256 256" style="enable-background:new 0 0 256 256;" xml:space="preserve">
<style type="text/css">
	.st0{fill:#231F20;}
	.st1{fill:#FFEFE4;}
	.st2{fill:#69EBFC;}
	.st3{fill:#5FD4E3;}
	.st4{fill:#A1F1FC;}
	.st5{fill:#D476E2;}
	.st6{fill:#B665C2;}
	.st7{fill:#EA82FA;}
	.st8{fill:#FFF7F2;}
	.st9{fill:#FF8354;}
	.st10{fill:#FFA172;}
	.st11{fill:#6770E6;}
	.st12{fill:#5861C7;}
	.st13{fill:#E0734A;}
	.st14{fill:#EDD4C2;}
	.st15{fill:#CC6944;}
	.st16{fill:#858EFF;}
	.st17{fill:#C76642;}
	.st18{fill:#FFFFFF;}
	.st19{fill:#FFDEC7;}
	.st20{fill:#4E56B0;}
	.st21{fill:#94529E;}
	.st22{fill:#41B6C5;}
	.st23{fill:#9847A4;}
	.st24{fill:#C2552C;}
	.st25{fill:#CFB6A4;}
</style>
<g>
	<circle class="st2" cx="128" cy="128.079" r="128"/>
	<path class="st3" d="M128,249.079c-69.522,0-126.096-55.426-127.951-124.5C0.018,125.742,0,126.909,0,128.079
		c0,70.692,57.308,128,128,128s128-57.308,128-128c0-1.171-0.018-2.337-0.049-3.5C254.096,193.653,197.522,249.079,128,249.079z"/>
	<path class="st4" d="M128,7.079c69.522,0,126.096,55.426,127.951,124.5c0.031-1.163,0.049-2.329,0.049-3.5
		c0-70.692-57.308-128-128-128S0,57.387,0,128.079c0,1.171,0.018,2.337,0.049,3.5C1.904,62.505,58.478,7.079,128,7.079z"/>
	<path class="st9" d="M148.391,107.718l-29.666-29.666l-15.171-15.171c-8.281-8.281-19.311-12.833-31.079-12.833
		c-11.761,0-22.799,4.552-31.072,12.833c-17.136,17.136-17.136,45.015,0,62.143l44.836,44.844
		c8.273,8.273,19.311,12.833,31.079,12.833c7.061,0,13.866-1.647,19.956-4.754L120.1,160.773c-0.917,0.124-1.841,0.179-2.781,0.179
		c-5.958,0-11.535-2.299-15.699-6.463l-44.836-44.836c-8.653-8.661-8.653-22.737,0-31.39c4.164-4.171,9.741-6.463,15.691-6.463
		c5.958,0,11.528,2.292,15.699,6.463l14.192,14.192l15.955,15.955l14.689,14.689c6.611,6.611,8.172,16.39,4.669,24.492
		l15.955,15.955C165.302,146.449,163.554,122.881,148.391,107.718z"/>
	<path class="st10" d="M41.403,69.881c8.273-8.281,19.311-12.833,31.072-12.833c11.768,0,22.799,4.552,31.079,12.833l15.171,15.171
		l29.666,29.666c7.69,7.69,11.923,17.542,12.712,27.616c0.994-12.401-3.243-25.147-12.712-34.616l-29.666-29.666l-15.171-15.171
		c-8.281-8.281-19.311-12.833-31.079-12.833c-11.761,0-22.799,4.552-31.072,12.833c-9.457,9.457-13.684,22.186-12.702,34.575
		C29.498,87.397,33.724,77.56,41.403,69.881z"/>
	<path class="st9" d="M153.634,163.546c-1.523,2.229-3.27,4.35-5.243,6.323c-3.309,3.301-7.053,6.02-11.116,8.079L120.1,160.773
		c4.894-0.59,9.399-2.773,12.91-6.284c2.043-2.043,3.604-4.389,4.669-6.898L153.634,163.546z"/>
	<path class="st5" d="M214.597,130.975L169.76,86.131c-8.273-8.273-19.311-12.833-31.079-12.833c-7.061,0-13.866,1.647-19.956,4.754
		c-4.063,2.058-7.807,4.777-11.116,8.079c-1.973,1.973-3.721,4.094-5.243,6.323c-11.667,17.097-9.92,40.665,5.243,55.828
		l12.491,12.491c4.894-0.59,9.399-2.773,12.91-6.284c2.043-2.043,3.604-4.389,4.669-6.898l-14.689-14.689
		c-6.611-6.611-8.172-16.39-4.669-24.492c1.064-2.509,2.626-4.855,4.669-6.898c3.511-3.511,8.017-5.694,12.91-6.284
		c0.917-0.124,1.841-0.179,2.781-0.179c5.958,0,11.535,2.299,15.699,6.463l44.836,44.836c8.653,8.661,8.653,22.737,0,31.39
		c-4.164,4.171-9.741,6.463-15.691,6.463c-5.958,0-11.528-2.292-15.699-6.463l-14.192-14.192c-1.523,2.229-3.27,4.35-5.243,6.323
		c-3.309,3.301-7.053,6.02-11.116,8.079l15.171,15.171c8.281,8.281,19.311,12.833,31.079,12.833
		c11.761,0,22.799-4.552,31.072-12.833C231.733,175.982,231.733,148.103,214.597,130.975z"/>
	<path class="st7" d="M102.366,99.454c1.523-2.229,3.27-4.35,5.243-6.323c3.309-3.301,7.053-6.02,11.116-8.079
		c6.09-3.107,12.895-4.754,19.956-4.754c11.768,0,22.807,4.56,31.079,12.833l44.836,44.844c7.679,7.675,11.905,17.51,12.702,27.569
		c0.982-12.389-3.245-25.116-12.702-34.569L169.76,86.131c-8.273-8.273-19.311-12.833-31.079-12.833
		c-7.061,0-13.866,1.647-19.956,4.754c-4.063,2.058-7.807,4.777-11.116,8.079c-1.973,1.973-3.721,4.094-5.243,6.323
		c-5.75,8.426-8.235,18.424-7.468,28.212C95.495,113.208,97.984,105.875,102.366,99.454z"/>
</g>
</svg>
