<?xml version="1.0" encoding="utf-8"?>
<!-- Generator: Adobe Illustrator 28.0.0, SVG Export Plug-In . SVG Version: 6.00 Build 0)  -->
<svg fill="#69EBFC" xmlns="http://www.w3.org/2000/svg" xmlns:xlink="http://www.w3.org/1999/xlink" x="0px" y="0px"
	 viewBox="0 0 456.6 789.5" style="enable-background:new 0 0 456.6 789.5;" xml:space="preserve">
<circle cx="228.3" cy="72.2" r="72.2"/>
<path d="M452,394.5L308.6,194c-8.3-15.7-24.7-26.3-43.7-26.3h-73.3c-18.9,0-35.4,10.7-43.7,26.3L4.6,394.5c-8,11.3-5.3,27,6,35
	s27,5.3,35-6l96.7-135.2v148.4c0,10.1,3,19.4,8.2,27.2l-0.1,300.2c-0.1,13.8,11.2,25.2,25,25.3s25.2-11.2,25.3-25l0.1-278.3H256
	l-0.1,278.1c-0.1,13.8,11.2,25.2,25,25.3s25.2-11.2,25.3-25l0.1-300.7c5.1-7.8,8.1-17,8.1-27V288.4l96.7,135.2c8,11.3,23.8,14,35,6
	S460,405.8,452,394.5L452,394.5z"/>
</svg>
