<?xml version="1.0" encoding="utf-8"?>
<!-- Generator: Adobe Illustrator 22.1.0, SVG Export Plug-In . SVG Version: 6.00 Build 0)  -->
<svg version="1.1" id="Layer_1" xmlns="http://www.w3.org/2000/svg" xmlns:xlink="http://www.w3.org/1999/xlink" x="0px" y="0px"
	 viewBox="0 0 256 256" style="enable-background:new 0 0 256 256;" xml:space="preserve">
<style type="text/css">
	.st0{fill:#231F20;}
	.st1{fill:#FFEFE4;}
	.st2{fill:#69EBFC;}
	.st3{fill:#5FD4E3;}
	.st4{fill:#A1F1FC;}
	.st5{fill:#D476E2;}
	.st6{fill:#B665C2;}
	.st7{fill:#EA82FA;}
	.st8{fill:#FFF7F2;}
	.st9{fill:#FF8354;}
	.st10{fill:#FFA172;}
	.st11{fill:#6770E6;}
	.st12{fill:#5861C7;}
	.st13{fill:#E0734A;}
	.st14{fill:#EDD4C2;}
	.st15{fill:#CC6944;}
	.st16{fill:#858EFF;}
	.st17{fill:#C76642;}
	.st18{fill:#FFFFFF;}
	.st19{fill:#FFDEC7;}
	.st20{fill:#4E56B0;}
	.st21{fill:#94529E;}
	.st22{fill:#41B6C5;}
	.st23{fill:#9847A4;}
	.st24{fill:#C2552C;}
	.st25{fill:#CFB6A4;}
</style>
<g>
	<path class="st11" d="M222.959,256H33.041C14.793,256,0,241.207,0,222.959V63.041C0,44.793,14.793,30,33.041,30h189.917
		C241.207,30,256,44.793,256,63.041v159.917C256,241.207,241.207,256,222.959,256z"/>
	<path class="st9" d="M256,222.959v-9.58l-127.03-29.526L33.041,256h189.917C241.207,256,256,241.207,256,222.959z"/>
	<path class="st2" d="M222.959,30H33.041C14.793,30,0,44.793,0,63.041v49.768l256,59.504V63.041C256,44.793,241.207,30,222.959,30z"
		/>
	<path class="st12" d="M222.959,249H33.041C14.793,249,0,234.207,0,215.959v7C0,241.207,14.793,256,33.041,256h189.917
		C241.207,256,256,241.207,256,222.959v-7C256,234.207,241.207,249,222.959,249z"/>
	<path class="st13" d="M222.959,249H42.349l-9.307,7h189.917C241.207,256,256,241.207,256,222.959v-7
		C256,234.207,241.207,249,222.959,249z"/>
	<path class="st4" d="M222.959,30H33.041C14.793,30,0,44.793,0,63.041v7C0,51.793,14.793,37,33.041,37h189.917
		C241.207,37,256,51.793,256,70.041v-7C256,44.793,241.207,30,222.959,30z"/>
	<path class="st1" d="M0.972,230.922C4.537,245.322,17.539,256,33.041,256h1.037l101.682-77.31l-24.21-31.842L0.972,230.922z"/>
	<path class="st14" d="M33.041,249c-13.435,0-24.988-8.023-30.153-19.535l-1.916,1.457c0.094,0.379,0.198,0.754,0.305,1.127
		c0.029,0.101,0.056,0.203,0.086,0.304c0.103,0.349,0.214,0.696,0.329,1.04c0.039,0.118,0.079,0.236,0.12,0.353
		c0.118,0.341,0.24,0.679,0.368,1.015c0.04,0.104,0.082,0.208,0.123,0.311c0.138,0.35,0.279,0.699,0.429,1.044
		c0.016,0.036,0.032,0.071,0.048,0.107c0.509,1.16,1.084,2.284,1.718,3.37c0.041,0.07,0.08,0.142,0.122,0.212
		c0.178,0.3,0.364,0.596,0.552,0.89c0.074,0.116,0.147,0.233,0.223,0.348c0.182,0.277,0.368,0.551,0.557,0.822
		c0.087,0.124,0.175,0.247,0.263,0.37c0.19,0.265,0.383,0.528,0.581,0.787c0.09,0.118,0.184,0.234,0.276,0.351
		c0.206,0.262,0.413,0.524,0.626,0.779c0.053,0.063,0.108,0.124,0.162,0.187c0.477,0.561,0.972,1.106,1.485,1.634
		c0.066,0.068,0.13,0.139,0.197,0.207c0.211,0.213,0.428,0.42,0.644,0.627c0.138,0.132,0.274,0.265,0.414,0.395
		c0.206,0.19,0.415,0.376,0.625,0.561c0.159,0.14,0.319,0.279,0.481,0.416c0.206,0.174,0.413,0.346,0.623,0.515
		c0.175,0.141,0.352,0.279,0.53,0.417c0.206,0.159,0.413,0.319,0.623,0.474c0.196,0.144,0.395,0.283,0.594,0.422
		c0.2,0.141,0.399,0.284,0.602,0.42c0.338,0.226,0.681,0.445,1.027,0.659c0.217,0.134,0.437,0.262,0.658,0.392
		c0.256,0.15,0.512,0.301,0.773,0.444c0.193,0.106,0.389,0.207,0.584,0.309c0.247,0.13,0.494,0.258,0.745,0.382
		c0.2,0.098,0.401,0.193,0.603,0.288c0.255,0.119,0.512,0.236,0.771,0.349c0.199,0.087,0.399,0.173,0.6,0.256
		c0.277,0.114,0.556,0.223,0.837,0.33c0.187,0.071,0.373,0.145,0.561,0.213c0.346,0.125,0.695,0.241,1.046,0.354
		c0.128,0.041,0.253,0.087,0.381,0.126c0.476,0.147,0.957,0.283,1.442,0.409c0.149,0.039,0.301,0.071,0.45,0.108
		c0.346,0.085,0.692,0.167,1.042,0.24c0.189,0.04,0.379,0.075,0.569,0.111c0.318,0.061,0.637,0.119,0.959,0.171
		c0.199,0.032,0.398,0.062,0.599,0.091c0.322,0.046,0.646,0.087,0.971,0.123c0.196,0.022,0.392,0.045,0.589,0.064
		c0.352,0.033,0.706,0.058,1.061,0.081c0.17,0.011,0.34,0.025,0.511,0.033c0.525,0.025,1.053,0.04,1.585,0.04h1.037l9.207-7H33.041z
		"/>
	<polygon class="st1" points="0,153.875 256,213.379 256,172.313 0,112.809 	"/>
	<path id="XMLID_326_" class="st5" d="M190.895,59.492c2.444,48.394-46.86,91.681-59.815,102.189
		c-1.792,1.454-4.354,1.452-6.139-0.01c-12.615-10.33-59.922-52.173-59.922-98.688C65.018,28.202,93.21,0.006,127.989,0
		C161.583-0.005,189.201,25.941,190.895,59.492z"/>
	<path id="XMLID_325_" class="st7" d="M127.989,10.845c32.966-0.005,60.175,24.983,62.781,57.623
		c0.228-2.967,0.277-5.961,0.125-8.975C189.201,25.941,161.583-0.006,127.989,0C93.21,0.006,65.018,28.202,65.018,62.982
		c0,1.847,0.083,3.685,0.227,5.515C67.95,36.212,95.005,10.85,127.989,10.845z"/>
	<circle id="XMLID_324_" class="st6" cx="128" cy="63.037" r="38.693"/>
</g>
</svg>
