<?xml version="1.0" encoding="utf-8"?>
<!-- Generator: Moho 12.5 build 22438 -->
<!DOCTYPE svg PUBLIC "-//W3C//DTD SVG 1.1//EN" "http://www.w3.org/Graphics/SVG/1.1/DTD/svg11.dtd">
<svg version="1.1" id="Frame_0" xmlns="http://www.w3.org/2000/svg" xmlns:xlink="http://www.w3.org/1999/xlink" width="1280px" height="720px">
<g id="Layer_9">
<g id="Layer_5">
<path fill="#134c00" fill-rule="evenodd" stroke="#134c00" stroke-width="1" stroke-linecap="round" stroke-linejoin="round" d="M 619.019 136.069 C 619.019 136.069 619.019 136.069 619.019 136.069 C 617.028 134.440 613.906 132.712 612.382 130.639 C 609.932 127.307 608.394 121.777 607.555 117.728 C 606.643 113.327 606.582 107.252 606.831 102.765 C 606.992 99.877 606.225 95.268 608.279 93.232 C 608.947 92.571 610.446 91.986 611.296 92.388 C 612.087 92.762 612.260 94.202 612.503 95.042 C 613.441 98.292 613.093 102.919 613.589 106.264 C 614.304 111.089 614.688 117.819 616.847 122.192 C 618.178 124.890 621.323 127.598 623.242 129.915 C 623.242 129.915 623.242 129.915 623.242 129.915 C 621.975 131.761 619.019 136.069 619.019 136.069 C 619.019 136.069 619.019 136.069 619.019 136.069 Z"/>
<path fill="#2f7208" d="M 622.239 131.426 C 618.300 129.450 615.009 125.933 613.407 121.543 L 615.287 120.860 C 616.795 125.032 618.567 129.152 622.418 131.068 L 622.239 131.426 Z"/>
<path fill="#2f7208" d="M 613.407 121.543 C 611.812 117.132 612.002 112.153 612.001 108.306 L 612.401 108.306 C 612.401 112.126 613.759 116.671 615.287 120.860 L 613.407 121.543 Z"/>
<path fill="none" stroke="#2f7208" stroke-width="1" stroke-linecap="butt" stroke-linejoin="round" d="M 613.407 121.543 L 615.287 120.860 "/>
</g>
<g id="Layer_4">
<path fill="#134c00" fill-rule="evenodd" stroke="none" d="M 627.866 142.391 C 627.866 142.391 627.866 142.391 627.866 142.391 C 627.768 142.536 627.540 142.700 627.539 142.876 C 627.535 144.463 630.131 145.664 631.599 146.267 C 638.382 149.058 649.502 149.326 656.046 146.013 C 660.044 143.989 663.935 138.667 665.541 134.484 C 666.506 131.969 666.550 128.205 666.219 125.532 C 665.888 122.850 664.766 119.301 663.370 116.987 C 661.944 114.621 659.452 111.604 656.996 110.340 C 653.822 108.708 648.744 108.474 645.195 108.848 C 642.072 109.177 638.017 110.678 635.293 112.239 C 630.295 115.105 624.359 120.407 621.051 125.125 C 616.857 131.108 613.043 140.531 612.099 147.776 C 611.463 152.657 613.228 159.206 613.711 164.104 C 613.711 164.104 613.711 164.104 613.711 164.104 C 617.723 164.104 627.082 164.104 627.083 164.104 C 627.032 161.983 626.916 159.156 626.913 157.035 C 626.908 152.894 626.131 147.222 627.254 143.237 C 627.927 140.847 631.224 135.977 631.224 135.976 C 632.567 134.145 634.257 131.626 635.700 129.872 C 637.639 127.515 639.989 123.964 642.618 122.412 C 644.683 121.193 648.066 119.644 650.349 120.378 C 651.775 120.836 653.114 122.680 653.740 124.040 C 654.866 126.487 655.889 130.735 654.418 132.992 C 650.977 138.273 640.122 137.118 633.819 137.133 C 633.048 137.135 631.948 136.400 631.274 136.774 C 631.119 136.860 630.951 137.269 630.951 137.269 C 630.026 138.805 627.866 142.390 627.866 142.391 C 627.866 142.391 627.866 142.391 627.866 142.391 Z"/>
<path fill="none" stroke="#134c00" stroke-width="1" stroke-linecap="round" stroke-linejoin="round" d="M 627.083 164.104 C 627.083 164.104 627.083 164.104 627.083 164.104 C 627.082 164.104 617.723 164.104 613.711 164.104 C 613.228 159.206 611.463 152.657 612.099 147.776 C 613.043 140.531 616.857 131.108 621.051 125.125 C 624.359 120.407 630.295 115.105 635.293 112.239 C 638.017 110.678 642.072 109.177 645.195 108.848 C 648.744 108.474 653.822 108.708 656.996 110.340 C 659.452 111.604 661.944 114.621 663.370 116.987 C 664.766 119.301 665.888 122.850 666.219 125.532 C 666.550 128.205 666.506 131.969 665.541 134.484 C 663.935 138.667 660.044 143.989 656.046 146.013 C 649.502 149.326 638.382 149.058 631.599 146.267 C 630.131 145.664 627.535 144.463 627.539 142.876 C 627.540 142.700 627.768 142.536 627.866 142.391 C 627.866 142.391 627.866 142.391 627.866 142.391 C 627.866 142.390 630.026 138.805 630.951 137.269 C 630.951 137.269 630.951 137.269 630.951 137.269 C 630.951 137.269 631.119 136.860 631.274 136.774 C 631.948 136.400 633.048 137.135 633.819 137.133 C 640.122 137.118 650.977 138.273 654.418 132.992 C 655.889 130.735 654.866 126.487 653.740 124.040 C 653.114 122.680 651.775 120.836 650.349 120.378 C 648.066 119.644 644.683 121.193 642.618 122.412 C 639.989 123.964 637.639 127.515 635.700 129.872 C 634.257 131.626 632.567 134.145 631.224 135.976 C 631.224 135.976 631.224 135.976 631.224 135.976 C 631.224 135.977 627.927 140.847 627.254 143.237 C 626.131 147.222 626.908 152.894 626.913 157.035 C 626.916 159.156 627.032 161.983 627.083 164.104 M 613.711 164.104 C 613.711 164.104 613.711 164.104 613.711 164.104 M 627.866 142.391 C 627.866 142.391 627.866 142.391 627.866 142.391 "/>
<path fill="#2f7208" d="M 651.677 112.396 C 647.939 112.395 644.389 112.673 641.141 113.773 L 640.222 110.959 C 644.127 109.724 648.034 111.038 651.677 111.036 L 651.677 112.396 Z"/>
<path fill="#2f7208" d="M 641.141 113.773 C 628.219 117.879 619.887 130.581 615.843 142.726 L 614.553 142.296 C 618.655 130.004 626.319 115.609 640.222 110.959 L 641.141 113.773 Z"/>
<path fill="none" stroke="#2f7208" stroke-width="1" stroke-linecap="butt" stroke-linejoin="round" d="M 641.141 113.773 L 640.222 110.959 "/>
</g>
<g id="Layer_3">
<path fill="#134b02" fill-rule="evenodd" stroke="#134b02" stroke-width="1" stroke-linecap="round" stroke-linejoin="round" d="M 644.232 172.535 C 644.232 172.535 644.232 172.535 644.232 172.535 C 642.374 170.810 640.199 168.113 638.039 166.784 C 636.018 165.541 632.955 164.490 630.629 164.020 C 628.286 163.546 625.057 163.635 622.666 163.688 C 618.102 163.789 611.691 163.280 607.515 165.126 C 605.210 166.144 603.024 168.919 601.100 170.545 C 601.100 170.545 601.100 170.545 601.100 170.545 C 614.040 171.142 644.228 172.535 644.232 172.535 C 644.232 172.535 644.232 172.535 644.232 172.535 Z"/>
<path fill="#2f7208" d="M 608.798 166.094 C 614.786 165.097 621.295 163.978 627.425 164.845 L 627.143 166.825 C 621.209 165.976 614.828 165.494 608.864 166.489 L 608.798 166.094 Z"/>
<path fill="#2f7208" d="M 627.425 164.845 C 628.657 165.025 632.115 165.830 633.199 166.869 L 632.916 167.152 C 632.029 166.221 628.577 167.024 627.143 166.825 L 627.425 164.845 Z"/>
<path fill="none" stroke="#2f7208" stroke-width="1" stroke-linecap="butt" stroke-linejoin="round" d="M 627.425 164.845 L 627.143 166.825 "/>
</g>
<g id="Layer_1">
<path fill="#3a8909" fill-rule="evenodd" stroke="none" d="M 558.812 617.868 C 547.301 614.828 532.654 608.509 521.444 604.498 C 521.440 604.496 494.938 590.943 484.508 583.657 C 475.865 577.620 465.191 568.358 457.682 560.958 C 450.530 553.909 441.771 543.716 435.672 535.738 C 430.632 529.143 424.896 519.646 420.277 512.750 C 415.983 504.151 409.647 492.963 405.963 484.085 C 402.189 474.990 398.021 462.491 395.536 452.963 C 393.470 445.041 391.526 434.270 390.396 426.162 C 389.873 422.404 389.394 417.360 389.205 413.571 C 388.694 403.285 388.697 389.522 389.344 379.244 C 389.708 373.463 390.603 365.777 391.568 360.066 C 393.051 351.285 395.540 339.634 398.156 331.121 C 401.098 321.549 406.054 309.091 410.362 300.051 C 413.862 292.708 419.255 283.259 423.654 276.416 C 429.394 267.488 437.626 255.904 444.603 247.906 C 451.611 239.873 462.084 230.180 470.120 223.177 C 475.364 218.607 482.561 212.715 488.318 208.813 C 495.872 203.693 506.590 197.846 514.730 193.721 C 520.846 190.621 529.165 186.775 535.584 184.362 C 542.877 181.620 552.909 178.835 560.428 176.794 C 566.044 175.268 573.553 173.237 579.289 172.252 C 585.482 171.189 593.855 170.558 600.122 170.103 C 606.836 169.616 615.816 169.450 622.542 169.169 C 637.375 171.007 657.482 171.684 671.985 175.295 C 687.865 179.248 708.597 186.918 722.903 194.865 C 741.488 205.189 763.997 223.072 779.116 238.019 C 790.464 249.237 803.893 266.030 812.276 279.608 C 819.239 290.886 826.452 307.176 830.996 319.627 C 835.450 331.830 839.643 348.714 842.241 361.442 C 843.197 366.126 844.267 372.430 844.629 377.197 C 845.539 389.169 845.005 405.241 844.116 417.214 C 843.628 423.792 842.504 432.534 841.295 439.018 C 839.736 447.374 837.174 458.459 834.474 466.519 C 831.059 476.718 824.925 489.740 820.279 499.439 C 817.496 505.251 813.749 513.015 810.313 518.466 C 803.249 529.670 792.399 543.741 783.437 553.493 C 775.187 562.469 763.202 573.607 753.434 580.903 C 743.250 588.509 728.567 597.201 717.134 602.757 C 706.758 607.798 692.284 613.247 681.205 616.461 C 670.744 619.497 656.435 622.351 645.630 623.723 C 639.550 624.496 631.366 624.873 625.238 624.935 C 614.446 625.044 600.024 624.525 589.299 623.320 C 580.066 622.282 567.795 620.241 558.812 617.868 M 622.542 169.169 C 622.542 169.169 622.542 169.169 622.542 169.169 Z"/>
<path fill="none" stroke="#3a8909" stroke-width="1" stroke-linecap="round" stroke-linejoin="round" d="M 521.444 604.498 C 521.444 604.498 521.444 604.498 521.444 604.498 C 532.654 608.509 547.301 614.828 558.812 617.868 C 567.795 620.241 580.066 622.282 589.299 623.320 C 600.024 624.525 614.446 625.044 625.238 624.935 C 631.366 624.873 639.550 624.496 645.630 623.723 C 656.435 622.351 670.744 619.497 681.205 616.461 C 692.284 613.247 706.758 607.798 717.134 602.757 C 728.567 597.201 743.250 588.509 753.434 580.903 C 763.202 573.607 775.187 562.469 783.437 553.493 C 792.399 543.741 803.249 529.670 810.313 518.466 C 813.749 513.015 817.496 505.251 820.279 499.439 C 824.925 489.740 831.059 476.718 834.474 466.519 C 837.174 458.459 839.736 447.374 841.295 439.018 C 842.504 432.534 843.628 423.792 844.116 417.214 C 845.005 405.241 845.539 389.169 844.629 377.197 C 844.267 372.430 843.197 366.126 842.241 361.442 C 839.643 348.714 835.450 331.830 830.996 319.627 C 826.452 307.176 819.239 290.886 812.276 279.608 C 803.893 266.030 790.464 249.237 779.116 238.019 C 763.997 223.072 741.488 205.189 722.903 194.865 C 708.597 186.918 687.865 179.248 671.985 175.295 C 657.482 171.684 637.375 171.007 622.542 169.169 C 622.542 169.169 622.542 169.169 622.542 169.169 C 615.816 169.450 606.836 169.616 600.122 170.103 C 593.855 170.558 585.482 171.189 579.289 172.252 C 573.553 173.237 566.044 175.268 560.428 176.794 C 552.909 178.835 542.877 181.620 535.584 184.362 C 529.165 186.775 520.846 190.621 514.730 193.721 C 506.590 197.846 495.872 203.693 488.318 208.813 C 482.561 212.715 475.364 218.607 470.120 223.177 C 462.084 230.180 451.611 239.873 444.603 247.906 C 437.626 255.904 429.394 267.488 423.654 276.416 C 419.255 283.259 413.862 292.708 410.362 300.051 C 406.054 309.091 401.098 321.549 398.156 331.121 C 395.540 339.634 393.051 351.285 391.568 360.066 C 390.603 365.777 389.708 373.463 389.344 379.244 C 388.697 389.522 388.694 403.285 389.205 413.571 C 389.394 417.360 389.873 422.404 390.396 426.162 C 391.526 434.270 393.470 445.041 395.536 452.963 C 398.021 462.491 402.189 474.990 405.963 484.085 C 409.647 492.963 415.983 504.151 420.277 512.750 C 420.277 512.750 420.277 512.750 420.277 512.750 C 420.277 512.750 420.277 512.750 420.277 512.750 C 424.896 519.646 430.632 529.143 435.672 535.738 C 441.771 543.716 450.530 553.909 457.682 560.958 C 465.191 568.358 475.865 577.620 484.508 583.657 C 494.938 590.943 521.440 604.496 521.444 604.498 "/>
</g>
<g id="Layer_6">
<path fill="#114201" fill-rule="evenodd" stroke="none" d="M 644.095 227.314 C 644.573 228.810 645.414 230.733 645.979 232.198 C 645.979 232.199 641.956 236.093 640.232 237.762 C 640.233 237.762 647.037 241.656 649.953 243.325 C 649.953 243.325 650.096 245.895 650.157 246.997 C 650.157 246.997 647.974 246.773 647.038 246.677 C 647.038 246.678 646.926 250.708 646.878 252.436 C 646.878 252.436 649.621 254.955 650.797 256.035 C 650.797 256.035 650.629 259.114 650.557 260.434 C 650.557 260.434 648.542 260.434 647.678 260.434 C 647.726 263.697 646.159 268.512 647.838 271.311 C 648.045 271.656 648.552 271.927 648.900 272.128 C 649.647 272.559 651.032 272.501 651.581 273.166 C 652.151 273.857 652.913 275.731 652.100 276.107 C 651.675 276.303 651.192 275.501 650.803 275.242 C 650.803 275.242 650.863 277.482 650.889 278.441 C 650.890 278.442 652.887 281.287 653.743 282.506 C 653.743 282.508 653.635 294.292 653.589 299.344 C 653.589 299.344 651.655 299.382 651.165 299.950 C 650.374 300.868 650.720 302.827 651.064 303.990 C 652.340 308.306 658.968 311.396 660.559 315.606 C 661.883 319.107 661.958 324.406 661.179 328.067 C 660.175 332.785 655.101 337.688 653.713 342.308 C 652.903 345.003 652.504 348.807 652.588 351.620 C 652.698 355.347 653.952 360.227 654.913 363.829 C 655.710 366.813 657.889 370.500 658.256 373.567 C 658.475 375.390 658.650 378.034 657.820 379.672 C 657.124 381.047 654.609 381.660 653.953 383.055 C 653.069 384.937 653.158 388.066 653.953 389.987 C 654.670 391.718 657.721 392.671 658.327 394.444 C 658.555 395.111 658.251 396.087 658.235 396.791 C 657.945 409.935 658.431 427.469 658.340 440.616 C 658.338 440.956 658.394 441.416 658.325 441.749 C 657.511 445.657 653.133 449.685 652.217 453.571 C 651.532 456.476 651.579 460.605 652.217 463.521 C 652.934 466.796 656.358 470.348 656.937 473.651 C 657.221 475.269 657.575 477.769 656.639 479.119 C 656.122 479.864 654.629 479.905 653.954 480.511 C 653.006 481.361 651.819 482.824 651.668 484.090 C 651.499 485.504 652.736 487.238 653.258 488.564 C 654.198 490.945 656.137 493.877 656.690 496.376 C 657.165 498.520 657.412 501.559 656.894 503.692 C 656.008 507.336 650.493 510.696 650.523 514.445 C 650.530 515.301 651.281 516.296 651.688 517.048 C 652.067 517.749 652.887 518.522 653.119 519.284 C 653.446 520.362 653.137 521.913 653.119 523.040 C 653.062 526.481 653.397 531.134 652.700 534.504 C 652.099 537.410 650.671 541.186 649.158 543.739 C 648.790 544.360 647.919 544.954 647.668 545.631 C 647.181 546.942 646.853 549.155 647.668 550.291 C 648.255 551.108 650.282 550.638 650.796 551.504 C 651.102 552.020 650.755 552.905 650.683 553.501 C 650.277 556.835 649.855 561.439 648.387 564.460 C 646.658 568.016 642.395 571.475 639.827 574.481 C 639.828 574.482 642.434 581.107 641.184 583.562 C 640.638 584.636 638.467 584.746 637.826 585.766 C 637.247 586.686 636.786 588.401 637.314 589.350 C 637.774 590.179 639.660 589.889 640.181 590.682 C 641.042 591.992 640.448 594.409 639.976 595.905 C 639.344 597.912 637.067 599.880 636.085 601.742 C 634.469 604.805 633.270 609.321 631.886 612.495 C 630.809 614.964 628.987 618.082 627.994 620.586 C 627.491 621.856 627.006 623.617 626.582 624.916 C 626.583 624.916 630.313 623.810 631.783 623.043 C 638.311 619.640 645.516 612.719 651.242 608.091 C 654.683 605.310 659.127 601.424 662.507 598.567 C 662.507 598.566 662.650 591.757 662.711 588.838 C 662.713 588.836 675.019 576.246 677.777 569.403 C 678.811 566.839 679.289 563.060 679.190 560.297 C 679.148 559.097 678.641 557.550 678.405 556.372 C 678.406 556.371 683.200 545.412 684.685 540.515 C 686.322 535.123 687.938 527.741 688.610 522.146 C 689.098 518.087 688.622 512.590 689.077 508.527 C 690.293 497.657 694.753 483.627 696.471 472.825 C 697.693 465.139 701.014 454.671 699.428 447.052 C 699.373 446.788 699.214 446.455 699.061 446.234 C 697.939 444.611 695.590 443.211 694.103 441.915 C 694.103 441.915 694.103 440.012 694.103 439.197 C 694.104 439.195 701.118 429.480 702.579 424.643 C 705.660 414.444 703.928 399.778 703.379 389.138 C 703.002 381.838 701.655 372.160 700.455 364.949 C 699.724 360.557 698.079 354.824 697.428 350.420 C 696.283 342.669 695.906 332.201 695.310 324.388 C 694.557 314.546 693.674 301.413 692.973 291.566 C 692.973 291.566 694.937 287.814 694.898 286.067 C 694.826 282.800 691.987 279.001 690.361 276.167 C 688.986 273.772 686.674 270.883 685.094 268.619 C 685.094 268.618 685.903 262.423 685.865 259.754 C 685.835 257.660 685.807 254.785 685.094 252.816 C 683.892 249.499 679.282 246.584 678.349 243.181 C 677.721 240.892 679.163 237.613 678.734 235.279 C 678.486 233.927 677.265 232.388 677.000 231.039 C 676.732 229.678 677.588 227.671 677.000 226.414 C 676.636 225.636 675.468 225.114 674.880 224.487 C 668.880 218.091 662.747 208.008 657.365 201.085 C 652.511 194.842 646.173 186.384 640.814 180.568 C 639.216 178.833 636.971 176.620 635.189 175.075 C 633.108 173.273 630.085 171.174 627.898 169.502 C 627.897 169.502 622.745 169.114 620.537 168.947 C 623.208 171.296 627.154 174.053 629.442 176.777 C 630.961 178.587 632.469 181.392 633.620 183.456 C 635.725 187.227 638.787 192.234 639.914 196.403 C 641.388 201.859 640.257 209.618 641.134 215.200 C 641.715 218.896 642.956 223.750 644.095 227.314 M 620.537 168.947 C 620.537 168.947 620.537 168.947 620.537 168.947 Z"/>
<path fill="none" stroke="#114201" stroke-width="1" stroke-linecap="round" stroke-linejoin="round" d="M 645.979 232.198 C 645.979 232.198 645.979 232.198 645.979 232.198 C 645.414 230.733 644.573 228.810 644.095 227.314 C 642.956 223.750 641.715 218.896 641.134 215.200 C 640.257 209.618 641.388 201.859 639.914 196.403 C 638.787 192.234 635.725 187.227 633.620 183.456 C 632.469 181.392 630.961 178.587 629.442 176.777 C 627.154 174.053 623.208 171.296 620.537 168.947 C 620.537 168.947 620.537 168.947 620.537 168.947 C 622.745 169.114 627.897 169.502 627.898 169.502 C 627.898 169.502 627.898 169.502 627.898 169.502 C 630.085 171.174 633.108 173.273 635.189 175.075 C 636.971 176.620 639.216 178.833 640.814 180.568 C 646.173 186.384 652.511 194.842 657.365 201.085 C 662.747 208.008 668.880 218.091 674.880 224.487 C 675.468 225.114 676.636 225.636 677.000 226.414 C 677.588 227.671 676.732 229.678 677.000 231.039 C 677.265 232.388 678.486 233.927 678.734 235.279 C 679.163 237.613 677.721 240.892 678.349 243.181 C 679.282 246.584 683.892 249.499 685.094 252.816 C 685.807 254.785 685.835 257.660 685.865 259.754 C 685.903 262.423 685.094 268.618 685.094 268.619 C 685.094 268.619 685.094 268.619 685.094 268.619 C 686.674 270.883 688.986 273.772 690.361 276.167 C 691.987 279.001 694.826 282.800 694.898 286.067 C 694.937 287.814 692.973 291.566 692.973 291.566 C 692.973 291.566 692.973 291.566 692.973 291.566 C 693.674 301.413 694.557 314.546 695.310 324.388 C 695.906 332.201 696.283 342.669 697.428 350.420 C 698.079 354.824 699.724 360.557 700.455 364.949 C 701.655 372.160 703.002 381.838 703.379 389.138 C 703.928 399.778 705.660 414.444 702.579 424.643 C 701.118 429.480 694.104 439.195 694.103 439.197 C 694.103 439.197 694.103 439.197 694.103 439.197 C 694.103 440.012 694.103 441.915 694.103 441.915 C 694.103 441.915 694.103 441.915 694.103 441.915 C 695.590 443.211 697.939 444.611 699.061 446.234 C 699.214 446.455 699.373 446.788 699.428 447.052 C 701.014 454.671 697.693 465.139 696.471 472.825 C 694.753 483.627 690.293 497.657 689.077 508.527 C 688.622 512.590 689.098 518.087 688.610 522.146 C 687.938 527.741 686.322 535.123 684.685 540.515 C 683.200 545.412 678.406 556.371 678.405 556.372 C 678.405 556.372 678.405 556.372 678.405 556.372 C 678.641 557.550 679.148 559.097 679.190 560.297 C 679.289 563.060 678.811 566.839 677.777 569.403 C 675.019 576.246 662.713 588.836 662.711 588.838 C 662.711 588.838 662.711 588.838 662.711 588.838 C 662.650 591.757 662.507 598.566 662.507 598.567 C 662.507 598.567 662.507 598.567 662.507 598.567 C 659.127 601.424 654.683 605.310 651.242 608.091 C 645.516 612.719 638.311 619.640 631.783 623.043 C 630.313 623.810 626.583 624.916 626.582 624.916 C 626.582 624.916 626.582 624.916 626.582 624.916 C 627.006 623.617 627.491 621.856 627.994 620.586 C 628.987 618.082 630.809 614.964 631.886 612.495 C 633.270 609.321 634.469 604.805 636.085 601.742 C 637.067 599.880 639.344 597.912 639.976 595.905 C 640.448 594.409 641.042 591.992 640.181 590.682 C 639.660 589.889 637.774 590.179 637.314 589.350 C 636.786 588.401 637.247 586.686 637.826 585.766 C 638.467 584.746 640.638 584.636 641.184 583.562 C 642.434 581.107 639.828 574.482 639.827 574.481 C 639.827 574.481 639.827 574.481 639.827 574.481 C 642.395 571.475 646.658 568.016 648.387 564.460 C 649.855 561.439 650.277 556.835 650.683 553.501 C 650.755 552.905 651.102 552.020 650.796 551.504 C 650.282 550.638 648.255 551.108 647.668 550.291 C 646.853 549.155 647.181 546.942 647.668 545.631 C 647.919 544.954 648.790 544.360 649.158 543.739 C 650.671 541.186 652.099 537.410 652.700 534.504 C 653.397 531.134 653.062 526.481 653.119 523.040 C 653.137 521.913 653.446 520.362 653.119 519.284 C 652.887 518.522 652.067 517.749 651.688 517.048 C 651.281 516.296 650.530 515.301 650.523 514.445 C 650.493 510.696 656.008 507.336 656.894 503.692 C 657.412 501.559 657.165 498.520 656.690 496.376 C 656.137 493.877 654.198 490.945 653.258 488.564 C 652.736 487.238 651.499 485.504 651.668 484.090 C 651.819 482.824 653.006 481.361 653.954 480.511 C 654.629 479.905 656.122 479.864 656.639 479.119 C 657.575 477.769 657.221 475.269 656.937 473.651 C 656.358 470.348 652.934 466.796 652.217 463.521 C 651.579 460.605 651.532 456.476 652.217 453.571 C 653.133 449.685 657.511 445.657 658.325 441.749 C 658.394 441.416 658.338 440.956 658.340 440.616 C 658.431 427.469 657.945 409.935 658.235 396.791 C 658.251 396.087 658.555 395.111 658.327 394.444 C 657.721 392.671 654.670 391.718 653.953 389.987 C 653.158 388.066 653.069 384.937 653.953 383.055 C 654.609 381.660 657.124 381.047 657.820 379.672 C 658.650 378.034 658.475 375.390 658.256 373.567 C 657.889 370.500 655.710 366.813 654.913 363.829 C 653.952 360.227 652.698 355.347 652.588 351.620 C 652.504 348.807 652.903 345.003 653.713 342.308 C 655.101 337.688 660.175 332.785 661.179 328.067 C 661.958 324.406 661.883 319.107 660.559 315.606 C 658.968 311.396 652.340 308.306 651.064 303.990 C 650.720 302.827 650.374 300.868 651.165 299.950 C 651.655 299.382 653.589 299.344 653.589 299.344 C 653.589 299.344 653.589 299.344 653.589 299.344 C 653.635 294.292 653.743 282.508 653.743 282.506 C 653.743 282.506 653.743 282.506 653.743 282.506 C 652.887 281.287 650.890 278.442 650.889 278.441 C 650.889 278.441 650.889 278.441 650.889 278.441 C 650.863 277.482 650.803 275.242 650.803 275.242 C 650.803 275.242 650.803 275.242 650.803 275.242 C 651.192 275.501 651.675 276.303 652.100 276.107 C 652.913 275.731 652.151 273.857 651.581 273.166 C 651.032 272.501 649.647 272.559 648.900 272.128 C 648.552 271.927 648.045 271.656 647.838 271.311 C 646.159 268.512 647.726 263.697 647.678 260.434 C 647.678 260.434 647.678 260.434 647.678 260.434 C 647.678 260.434 647.678 260.434 647.678 260.434 C 648.542 260.434 650.557 260.434 650.557 260.434 C 650.557 260.434 650.557 260.434 650.557 260.434 C 650.629 259.114 650.797 256.035 650.797 256.035 C 650.797 256.035 650.797 256.035 650.797 256.035 C 649.621 254.955 646.878 252.436 646.878 252.436 C 646.878 252.436 646.878 252.436 646.878 252.436 C 646.926 250.708 647.038 246.678 647.038 246.677 C 647.038 246.677 647.038 246.677 647.038 246.677 C 647.974 246.773 650.157 246.997 650.157 246.997 C 650.157 246.997 650.157 246.997 650.157 246.997 C 650.096 245.895 649.953 243.325 649.953 243.325 C 649.953 243.325 649.953 243.325 649.953 243.325 C 647.037 241.656 640.233 237.762 640.232 237.762 C 640.232 237.762 640.232 237.762 640.232 237.762 C 641.956 236.093 645.979 232.199 645.979 232.198 "/>
<path fill="#114201" fill-rule="evenodd" stroke="none" d="M 597.838 227.314 C 597.416 228.804 596.669 230.733 596.169 232.198 C 596.169 232.199 599.732 236.093 601.260 237.762 C 601.259 237.762 595.232 241.656 592.648 243.325 C 592.648 243.325 592.522 245.895 592.468 246.997 C 592.468 246.997 594.402 246.773 595.231 246.677 C 595.231 246.678 595.330 250.708 595.372 252.436 C 595.372 252.436 592.942 254.955 591.901 256.035 C 591.901 256.035 592.050 259.114 592.113 260.434 C 592.114 260.434 593.899 260.434 594.664 260.434 C 594.621 263.697 596.102 268.456 594.522 271.311 C 594.341 271.638 593.895 271.925 593.581 272.128 C 592.928 272.551 591.686 272.554 591.206 273.166 C 590.656 273.869 589.914 275.784 590.747 276.107 C 591.149 276.263 591.551 275.501 591.896 275.242 C 591.896 275.242 591.842 277.482 591.819 278.442 C 591.819 278.442 590.050 281.287 589.291 282.506 C 589.291 282.508 589.386 294.292 589.427 299.344 C 589.427 299.344 591.143 299.439 591.575 299.950 C 592.357 300.876 591.981 302.820 591.664 303.990 C 590.539 308.143 584.652 311.538 583.253 315.607 C 582.037 319.145 581.999 324.393 582.705 328.067 C 583.593 332.693 588.097 337.759 589.318 342.308 C 590.047 345.022 590.389 348.811 590.315 351.620 C 590.216 355.333 589.110 360.214 588.255 363.829 C 587.551 366.800 585.619 370.531 585.293 373.567 C 585.097 375.392 584.904 378.009 585.680 379.672 C 586.290 380.981 588.528 381.731 589.105 383.055 C 589.935 384.962 589.845 388.044 589.105 389.987 C 588.475 391.643 585.765 392.755 585.231 394.444 C 585.018 395.116 585.298 396.087 585.312 396.791 C 585.569 409.936 585.138 427.468 585.219 440.616 C 585.221 440.955 585.170 441.414 585.232 441.748 C 585.950 445.582 589.835 449.755 590.643 453.570 C 591.262 456.491 591.218 460.591 590.643 463.521 C 590.010 466.747 586.975 470.403 586.462 473.651 C 586.206 475.273 585.826 477.745 586.727 479.119 C 587.180 479.810 588.518 479.928 589.104 480.510 C 589.980 481.380 590.994 482.863 591.130 484.090 C 591.285 485.488 590.185 487.235 589.721 488.564 C 588.891 490.938 587.169 493.909 586.681 496.376 C 586.254 498.530 586.029 501.548 586.500 503.692 C 587.283 507.250 592.159 510.802 592.144 514.445 C 592.140 515.285 591.475 516.291 591.112 517.048 C 590.779 517.743 590.048 518.540 589.844 519.284 C 589.546 520.371 589.828 521.913 589.844 523.040 C 589.894 526.481 589.591 531.120 590.215 534.504 C 590.746 537.381 591.986 541.151 593.353 543.739 C 593.676 544.351 594.451 544.975 594.673 545.631 C 595.120 546.956 595.470 549.143 594.673 550.291 C 594.155 551.036 592.358 550.719 591.902 551.503 C 591.601 552.022 591.938 552.904 592.002 553.501 C 592.361 556.826 592.695 561.397 594.036 564.461 C 595.549 567.914 599.344 571.475 601.618 574.481 C 601.618 574.482 599.219 581.088 600.416 583.562 C 600.900 584.562 602.831 584.807 603.391 585.766 C 603.938 586.702 604.362 588.398 603.845 589.350 C 603.435 590.107 601.764 589.954 601.305 590.682 C 600.468 592.007 601.057 594.397 601.486 595.905 C 602.044 597.861 604.070 599.901 604.934 601.742 C 606.382 604.833 607.422 609.311 608.653 612.495 C 609.604 614.956 611.225 618.097 612.100 620.586 C 612.549 621.861 612.976 623.617 613.351 624.916 C 613.351 624.916 610.032 623.796 608.744 623.043 C 602.834 619.589 596.565 612.705 591.507 608.091 C 588.450 605.303 584.522 601.425 581.528 598.567 C 581.528 598.566 581.401 591.757 581.347 588.838 C 581.345 588.836 570.415 576.051 568.001 569.403 C 567.060 566.812 566.661 563.054 566.749 560.298 C 566.787 559.102 567.236 557.550 567.445 556.372 C 567.444 556.371 563.193 545.383 561.882 540.516 C 560.424 535.100 559.000 527.723 558.405 522.147 C 557.972 518.082 558.396 512.595 557.992 508.527 C 556.916 497.691 552.962 483.608 551.442 472.825 C 550.357 465.129 547.396 454.692 548.822 447.052 C 548.871 446.792 549.009 446.458 549.148 446.234 C 550.122 444.663 552.222 443.211 553.540 441.915 C 553.540 441.915 553.540 440.012 553.540 439.197 C 553.539 439.195 547.319 429.384 546.031 424.643 C 543.238 414.362 544.836 399.780 545.323 389.138 C 545.656 381.848 546.847 372.169 547.912 364.949 C 548.559 360.564 550.018 354.815 550.594 350.420 C 551.611 342.657 551.942 332.200 552.471 324.388 C 553.137 314.545 553.919 301.413 554.540 291.567 C 554.540 291.566 552.799 287.794 552.835 286.066 C 552.903 282.862 555.399 279.023 556.855 276.167 C 558.063 273.795 560.120 270.883 561.520 268.619 C 561.520 268.618 560.803 262.421 560.837 259.754 C 560.864 257.663 560.871 254.805 561.520 252.816 C 562.575 249.583 566.670 246.480 567.495 243.180 C 568.070 240.879 566.768 237.620 567.153 235.279 C 567.373 233.944 568.455 232.372 568.690 231.039 C 568.930 229.673 568.139 227.688 568.690 226.414 C 569.010 225.673 570.051 225.107 570.568 224.487 C 575.958 218.014 581.305 208.022 586.083 201.085 C 590.374 194.855 595.958 186.426 600.744 180.568 C 602.151 178.845 604.136 176.630 605.727 175.076 C 607.558 173.287 610.248 171.174 612.186 169.502 C 612.186 169.502 616.750 169.114 618.706 168.947 C 616.340 171.296 612.816 174.107 610.818 176.777 C 609.446 178.611 608.132 181.402 607.116 183.456 C 605.242 187.246 602.535 192.293 601.542 196.403 C 600.215 201.894 601.241 209.606 600.461 215.200 C 599.947 218.883 598.851 223.737 597.838 227.314 M 618.706 168.947 C 618.706 168.947 618.706 168.947 618.706 168.947 Z"/>
<path fill="none" stroke="#114201" stroke-width="1" stroke-linecap="round" stroke-linejoin="round" d="M 596.169 232.198 C 596.169 232.198 596.169 232.198 596.169 232.198 C 596.669 230.733 597.416 228.804 597.838 227.314 C 598.851 223.737 599.947 218.883 600.461 215.200 C 601.241 209.606 600.215 201.894 601.542 196.403 C 602.535 192.293 605.242 187.246 607.116 183.456 C 608.132 181.402 609.446 178.611 610.818 176.777 C 612.816 174.107 616.340 171.296 618.706 168.947 C 618.706 168.947 618.706 168.947 618.706 168.947 C 616.750 169.114 612.186 169.502 612.186 169.502 C 612.186 169.502 612.186 169.502 612.186 169.502 C 610.248 171.174 607.558 173.287 605.727 175.076 C 604.136 176.630 602.151 178.845 600.744 180.568 C 595.958 186.426 590.374 194.855 586.083 201.085 C 581.305 208.022 575.958 218.014 570.568 224.487 C 570.051 225.107 569.010 225.673 568.690 226.414 C 568.139 227.688 568.930 229.673 568.690 231.039 C 568.455 232.372 567.373 233.944 567.153 235.279 C 566.768 237.620 568.070 240.879 567.495 243.180 C 566.670 246.480 562.575 249.583 561.520 252.816 C 560.871 254.805 560.864 257.663 560.837 259.754 C 560.803 262.421 561.520 268.618 561.520 268.619 C 561.520 268.619 561.520 268.619 561.520 268.619 C 560.120 270.883 558.063 273.795 556.855 276.167 C 555.399 279.023 552.903 282.862 552.835 286.066 C 552.799 287.794 554.540 291.566 554.540 291.567 C 554.540 291.567 554.540 291.567 554.540 291.567 C 553.919 301.413 553.137 314.545 552.471 324.388 C 551.942 332.200 551.611 342.657 550.594 350.420 C 550.018 354.815 548.559 360.564 547.912 364.949 C 546.847 372.169 545.656 381.848 545.323 389.138 C 544.836 399.780 543.238 414.362 546.031 424.643 C 547.319 429.384 553.539 439.195 553.540 439.197 C 553.540 439.197 553.540 439.197 553.540 439.197 C 553.540 440.012 553.540 441.915 553.540 441.915 C 553.540 441.915 553.540 441.915 553.540 441.915 C 552.222 443.211 550.122 444.663 549.148 446.234 C 549.009 446.458 548.871 446.792 548.822 447.052 C 547.396 454.692 550.357 465.129 551.442 472.825 C 552.962 483.608 556.916 497.691 557.992 508.527 C 558.396 512.595 557.972 518.082 558.405 522.147 C 559.000 527.723 560.424 535.100 561.882 540.516 C 563.193 545.383 567.444 556.371 567.445 556.372 C 567.445 556.372 567.445 556.372 567.445 556.372 C 567.236 557.550 566.787 559.102 566.749 560.298 C 566.661 563.054 567.060 566.812 568.001 569.403 C 570.415 576.051 581.345 588.836 581.347 588.838 C 581.347 588.838 581.347 588.838 581.347 588.838 C 581.401 591.757 581.528 598.566 581.528 598.567 C 581.528 598.567 581.528 598.567 581.528 598.567 C 584.522 601.425 588.450 605.303 591.507 608.091 C 596.565 612.705 602.834 619.589 608.744 623.043 C 610.032 623.796 613.351 624.916 613.351 624.916 C 613.351 624.916 613.351 624.916 613.351 624.916 C 612.976 623.617 612.549 621.861 612.100 620.586 C 611.225 618.097 609.604 614.956 608.653 612.495 C 607.422 609.311 606.382 604.833 604.934 601.742 C 604.070 599.901 602.044 597.861 601.486 595.905 C 601.057 594.397 600.468 592.007 601.305 590.682 C 601.764 589.954 603.435 590.107 603.845 589.350 C 604.362 588.398 603.938 586.702 603.391 585.766 C 602.831 584.807 600.900 584.562 600.416 583.562 C 599.219 581.088 601.618 574.482 601.618 574.481 C 601.618 574.481 601.618 574.481 601.618 574.481 C 599.344 571.475 595.549 567.914 594.036 564.461 C 592.695 561.397 592.361 556.826 592.002 553.501 C 591.938 552.904 591.601 552.022 591.902 551.503 C 592.358 550.719 594.155 551.036 594.673 550.291 C 595.470 549.143 595.120 546.956 594.673 545.631 C 594.451 544.975 593.676 544.351 593.353 543.739 C 591.986 541.151 590.746 537.381 590.215 534.504 C 589.591 531.120 589.894 526.481 589.844 523.040 C 589.828 521.913 589.546 520.371 589.844 519.284 C 590.048 518.540 590.779 517.743 591.112 517.048 C 591.475 516.291 592.140 515.285 592.144 514.445 C 592.159 510.802 587.283 507.250 586.500 503.692 C 586.029 501.548 586.254 498.530 586.681 496.376 C 587.169 493.909 588.891 490.938 589.721 488.564 C 590.185 487.235 591.285 485.488 591.130 484.090 C 590.994 482.863 589.980 481.380 589.104 480.510 C 588.518 479.928 587.180 479.810 586.727 479.119 C 585.826 477.745 586.206 475.273 586.462 473.651 C 586.975 470.403 590.010 466.747 590.643 463.521 C 591.218 460.591 591.262 456.491 590.643 453.570 C 589.835 449.755 585.950 445.582 585.232 441.748 C 585.170 441.414 585.221 440.955 585.219 440.616 C 585.138 427.468 585.569 409.936 585.312 396.791 C 585.298 396.087 585.018 395.116 585.231 394.444 C 585.765 392.755 588.475 391.643 589.105 389.987 C 589.845 388.044 589.935 384.962 589.105 383.055 C 588.528 381.731 586.290 380.981 585.680 379.672 C 584.904 378.009 585.097 375.392 585.293 373.567 C 585.619 370.531 587.551 366.800 588.255 363.829 C 589.110 360.214 590.216 355.333 590.315 351.620 C 590.389 348.811 590.047 345.022 589.318 342.308 C 588.097 337.759 583.593 332.693 582.705 328.067 C 581.999 324.393 582.037 319.145 583.253 315.607 C 584.652 311.538 590.539 308.143 591.664 303.990 C 591.981 302.820 592.357 300.876 591.575 299.950 C 591.143 299.439 589.427 299.344 589.427 299.344 C 589.427 299.344 589.427 299.344 589.427 299.344 C 589.386 294.292 589.291 282.508 589.291 282.506 C 589.291 282.506 589.291 282.506 589.291 282.506 C 590.050 281.287 591.819 278.442 591.819 278.442 C 591.819 278.442 591.819 278.442 591.819 278.442 C 591.842 277.482 591.896 275.242 591.896 275.242 C 591.896 275.242 591.896 275.242 591.896 275.242 C 591.551 275.501 591.149 276.263 590.747 276.107 C 589.914 275.784 590.656 273.869 591.206 273.166 C 591.686 272.554 592.928 272.551 593.581 272.128 C 593.895 271.925 594.341 271.638 594.522 271.311 C 596.102 268.456 594.621 263.697 594.664 260.434 C 594.664 260.434 594.664 260.434 594.664 260.434 C 594.664 260.434 594.664 260.434 594.664 260.434 C 593.899 260.434 592.114 260.434 592.113 260.434 C 592.113 260.434 592.113 260.434 592.113 260.434 C 592.050 259.114 591.901 256.035 591.901 256.035 C 591.901 256.035 591.901 256.035 591.901 256.035 C 592.942 254.955 595.372 252.436 595.372 252.436 C 595.372 252.436 595.372 252.436 595.372 252.436 C 595.330 250.708 595.231 246.678 595.231 246.677 C 595.231 246.677 595.231 246.677 595.231 246.677 C 594.402 246.773 592.468 246.997 592.468 246.997 C 592.468 246.997 592.468 246.997 592.468 246.997 C 592.522 245.895 592.648 243.325 592.648 243.325 C 592.648 243.325 592.648 243.325 592.648 243.325 C 595.232 241.656 601.259 237.762 601.260 237.762 C 601.260 237.762 601.260 237.762 601.260 237.762 C 599.732 236.093 596.169 232.199 596.169 232.198 "/>
<path fill="#114201" fill-rule="evenodd" stroke="none" d="M 728.356 266.307 C 733.372 276.598 739.605 290.536 744.426 300.919 C 744.426 300.921 743.682 314.893 744.920 320.698 C 745.518 323.500 747.794 326.794 748.382 329.598 C 749.871 336.713 748.438 346.560 748.629 353.826 C 748.795 360.153 748.303 368.692 749.515 374.904 C 750.058 377.692 752.096 381.076 752.509 383.886 C 753.053 387.592 751.126 392.721 752.010 396.361 C 752.570 398.672 755.173 401.041 755.752 403.347 C 756.628 406.832 756.162 411.790 755.503 415.323 C 754.600 420.161 750.746 425.867 749.744 430.686 C 747.513 441.413 751.547 456.589 748.799 467.195 C 747.243 473.204 741.409 479.805 739.672 485.764 C 738.341 490.329 738.620 496.820 737.784 501.501 C 736.666 507.753 733.184 515.735 732.797 522.074 C 732.734 523.112 733.344 524.537 733.044 525.533 C 731.868 529.449 725.823 531.946 723.657 535.414 C 720.950 539.750 720.117 546.850 717.860 551.436 C 715.188 556.865 710.341 563.390 706.952 568.403 C 701.902 575.875 695.722 586.354 689.501 592.884 C 681.128 601.672 668.164 611.837 657.512 617.658 C 652.566 620.361 645.218 622.330 639.949 624.332 C 639.950 624.332 649.841 623.436 653.934 622.337 C 663.956 619.648 676.931 614.219 685.725 608.712 C 694.284 603.353 703.611 593.371 711.186 586.693 C 716.184 582.286 722.281 575.711 727.717 571.857 C 729.134 570.853 731.222 569.822 732.724 568.950 C 732.724 568.950 733.006 565.728 733.127 564.347 C 733.129 564.346 741.403 553.768 745.159 549.408 C 747.428 546.775 750.636 543.427 752.983 540.863 C 752.983 540.863 752.735 537.025 752.629 535.381 C 752.631 535.377 767.644 511.897 772.613 501.072 C 776.064 493.553 779.637 483.057 781.809 475.075 C 782.965 470.831 784.302 465.084 784.723 460.706 C 785.367 454.022 784.677 445.034 784.341 438.328 C 784.093 433.383 782.838 426.827 783.002 421.879 C 783.213 415.496 785.842 407.213 786.254 400.840 C 787.252 385.368 785.810 364.619 784.153 349.204 C 782.649 335.203 780.649 316.290 776.111 302.960 C 772.981 293.766 767.697 281.505 761.366 274.141 C 760.435 273.057 758.786 272.029 757.680 271.125 C 757.678 271.122 747.553 250.374 742.094 242.151 C 734.799 231.164 723.828 217.211 714.308 208.084 C 708.006 202.042 698.546 195.104 691.169 190.436 C 685.394 186.782 677.159 182.807 670.975 179.900 C 667.256 178.152 662.282 175.797 658.370 174.543 C 655.623 173.662 651.811 173.033 648.998 172.399 C 647.197 171.994 642.993 171.064 642.993 171.064 C 648.567 173.606 656.578 175.787 661.838 178.927 C 669.662 183.598 678.781 191.870 685.209 198.329 C 692.681 205.837 701.730 216.820 707.551 225.669 C 715.079 237.111 722.355 253.996 728.356 266.307 Z"/>
<path fill="none" stroke="#114201" stroke-width="1" stroke-linecap="round" stroke-linejoin="round" d="M 744.426 300.919 C 744.426 300.919 744.426 300.919 744.426 300.919 C 739.605 290.536 733.372 276.598 728.356 266.307 C 722.355 253.996 715.079 237.111 707.551 225.669 C 701.730 216.820 692.681 205.837 685.209 198.329 C 678.781 191.870 669.662 183.598 661.838 178.927 C 656.578 175.787 648.567 173.606 642.993 171.064 C 642.993 171.064 647.197 171.994 648.998 172.399 C 651.811 173.033 655.623 173.662 658.370 174.543 C 662.282 175.797 667.256 178.152 670.975 179.900 C 677.159 182.807 685.394 186.782 691.169 190.436 C 698.546 195.104 708.006 202.042 714.308 208.084 C 723.828 217.211 734.799 231.164 742.094 242.151 C 747.553 250.374 757.678 271.122 757.680 271.125 C 757.680 271.125 757.680 271.125 757.680 271.125 C 758.786 272.029 760.435 273.057 761.366 274.141 C 767.697 281.505 772.981 293.766 776.111 302.960 C 780.649 316.290 782.649 335.203 784.153 349.204 C 785.810 364.619 787.252 385.368 786.254 400.840 C 785.842 407.213 783.213 415.496 783.002 421.879 C 782.838 426.827 784.093 433.383 784.341 438.328 C 784.677 445.034 785.367 454.022 784.723 460.706 C 784.302 465.084 782.965 470.831 781.809 475.075 C 779.637 483.057 776.064 493.553 772.613 501.072 C 767.644 511.897 752.631 535.377 752.629 535.381 C 752.629 535.381 752.629 535.381 752.629 535.381 C 752.735 537.025 752.983 540.863 752.983 540.863 C 752.983 540.863 752.983 540.863 752.983 540.863 C 750.636 543.427 747.428 546.775 745.159 549.408 C 741.403 553.768 733.129 564.346 733.127 564.347 C 733.127 564.347 733.127 564.347 733.127 564.347 C 733.006 565.728 732.724 568.950 732.724 568.950 C 732.724 568.950 732.724 568.950 732.724 568.950 C 731.222 569.822 729.134 570.853 727.717 571.857 C 722.281 575.711 716.184 582.286 711.186 586.693 C 703.611 593.371 694.284 603.353 685.725 608.712 C 676.931 614.219 663.956 619.648 653.934 622.337 C 649.841 623.436 639.950 624.332 639.949 624.332 C 639.949 624.332 639.949 624.332 639.949 624.332 C 645.218 622.330 652.566 620.361 657.512 617.658 C 668.164 611.837 681.128 601.672 689.501 592.884 C 695.722 586.354 701.902 575.875 706.952 568.403 C 710.341 563.390 715.188 556.865 717.860 551.436 C 720.117 546.850 720.950 539.750 723.657 535.414 C 725.823 531.946 731.868 529.449 733.044 525.533 C 733.344 524.537 732.734 523.112 732.797 522.074 C 733.184 515.735 736.666 507.753 737.784 501.501 C 738.620 496.820 738.341 490.329 739.672 485.764 C 741.409 479.805 747.243 473.204 748.799 467.195 C 751.547 456.589 747.513 441.413 749.744 430.686 C 750.746 425.867 754.600 420.161 755.503 415.323 C 756.162 411.790 756.628 406.832 755.752 403.347 C 755.173 401.041 752.570 398.672 752.010 396.361 C 751.126 392.721 753.053 387.592 752.509 383.886 C 752.096 381.076 750.058 377.692 749.515 374.904 C 748.303 368.692 748.795 360.153 748.629 353.826 C 748.438 346.560 749.871 336.713 748.382 329.598 C 747.794 326.794 745.518 323.500 744.920 320.698 C 743.682 314.893 744.426 300.921 744.426 300.919 "/>
<path fill="#114201" fill-rule="evenodd" stroke="none" d="M 517.128 266.102 C 512.520 276.405 506.809 290.330 502.386 300.714 C 502.386 300.716 503.078 314.669 501.932 320.492 C 501.385 323.274 499.295 326.609 498.757 329.393 C 497.379 336.529 498.706 346.354 498.531 353.621 C 498.378 359.947 498.836 368.470 497.718 374.699 C 497.220 377.472 495.350 380.889 494.971 383.681 C 494.468 387.392 496.253 392.502 495.429 396.156 C 494.916 398.434 492.526 400.867 491.996 403.141 C 491.180 406.641 491.615 411.576 492.225 415.118 C 493.051 419.921 496.591 425.694 497.508 430.480 C 499.571 441.240 495.821 456.335 498.374 466.990 C 499.798 472.932 505.160 479.657 506.747 485.559 C 507.980 490.145 507.711 496.609 508.480 501.295 C 509.504 507.535 512.699 515.556 513.054 521.869 C 513.112 522.907 512.542 524.327 512.827 525.327 C 513.905 529.109 519.472 531.804 521.439 535.209 C 523.972 539.594 524.669 546.617 526.757 551.231 C 529.194 556.614 533.649 563.175 536.763 568.197 C 541.388 575.655 546.984 586.083 552.773 592.678 C 560.374 601.336 572.208 611.576 582.118 617.452 C 586.618 620.121 593.396 622.124 598.230 624.126 C 598.229 624.126 589.140 623.221 585.400 622.132 C 576.129 619.430 564.225 613.932 556.236 608.507 C 548.269 603.097 539.823 593.160 532.880 586.487 C 528.291 582.077 522.754 575.538 517.714 571.652 C 516.423 570.656 514.499 569.617 513.121 568.745 C 513.121 568.745 512.862 565.523 512.751 564.142 C 512.750 564.141 505.170 553.574 501.714 549.203 C 499.637 546.577 496.690 543.221 494.536 540.658 C 494.536 540.657 494.763 536.820 494.861 535.175 C 494.859 535.172 481.064 511.619 476.528 500.866 C 473.341 493.311 470.080 482.824 468.092 474.869 C 467.029 470.615 465.805 464.868 465.419 460.500 C 464.826 453.812 465.461 444.829 465.770 438.122 C 465.997 433.179 467.148 426.620 466.998 421.673 C 466.804 415.301 464.392 406.998 464.015 400.634 C 463.097 385.160 464.420 364.425 465.942 348.999 C 467.321 335.018 469.115 316.159 473.319 302.754 C 476.177 293.641 480.905 281.413 486.846 273.935 C 487.691 272.871 489.213 271.824 490.227 270.919 C 490.229 270.916 499.477 250.220 504.526 241.946 C 511.175 231.050 521.177 217.088 530.015 207.878 C 535.750 201.903 544.422 194.927 551.243 190.230 C 556.508 186.604 564.077 182.609 569.768 179.694 C 573.171 177.951 577.762 175.707 581.331 174.337 C 583.812 173.385 587.217 172.377 589.784 171.686 C 591.615 171.193 595.945 170.279 595.945 170.279 C 590.348 172.172 583.080 175.465 578.150 178.721 C 570.911 183.502 562.565 191.723 556.710 198.124 C 549.791 205.687 541.519 216.692 536.214 225.463 C 529.243 236.988 522.627 253.806 517.128 266.102 Z"/>
<path fill="none" stroke="#114201" stroke-width="1" stroke-linecap="round" stroke-linejoin="round" d="M 502.386 300.714 C 502.386 300.714 502.386 300.714 502.386 300.714 C 506.809 290.330 512.520 276.405 517.128 266.102 C 522.627 253.806 529.243 236.988 536.214 225.463 C 541.519 216.692 549.791 205.687 556.710 198.124 C 562.565 191.723 570.911 183.502 578.150 178.721 C 583.080 175.465 590.348 172.172 595.945 170.279 C 595.945 170.279 591.615 171.193 589.784 171.686 C 587.217 172.377 583.812 173.385 581.331 174.337 C 577.762 175.707 573.171 177.951 569.768 179.694 C 564.077 182.609 556.508 186.604 551.243 190.230 C 544.422 194.927 535.750 201.903 530.015 207.878 C 521.177 217.088 511.175 231.050 504.526 241.946 C 499.477 250.220 490.229 270.916 490.227 270.919 C 490.227 270.919 490.227 270.919 490.227 270.919 C 489.213 271.824 487.691 272.871 486.846 273.935 C 480.905 281.413 476.177 293.641 473.319 302.754 C 469.115 316.159 467.321 335.018 465.942 348.999 C 464.420 364.425 463.097 385.160 464.015 400.634 C 464.392 406.998 466.804 415.301 466.998 421.673 C 467.148 426.620 465.997 433.179 465.770 438.122 C 465.461 444.829 464.826 453.812 465.419 460.500 C 465.805 464.868 467.029 470.615 468.092 474.869 C 470.080 482.824 473.341 493.311 476.528 500.866 C 481.064 511.619 494.859 535.172 494.861 535.175 C 494.861 535.175 494.861 535.175 494.861 535.175 C 494.763 536.820 494.536 540.657 494.536 540.658 C 494.536 540.658 494.536 540.658 494.536 540.658 C 496.690 543.221 499.637 546.577 501.714 549.203 C 505.170 553.574 512.750 564.141 512.751 564.142 C 512.751 564.142 512.751 564.142 512.751 564.142 C 512.862 565.523 513.121 568.745 513.121 568.745 C 513.121 568.745 513.121 568.745 513.121 568.745 C 514.499 569.617 516.423 570.656 517.714 571.652 C 522.754 575.538 528.291 582.077 532.880 586.487 C 539.823 593.160 548.269 603.097 556.236 608.507 C 564.225 613.932 576.129 619.430 585.400 622.132 C 589.140 623.221 598.229 624.126 598.230 624.126 C 598.230 624.126 598.230 624.126 598.230 624.126 C 593.396 622.124 586.618 620.121 582.118 617.452 C 572.208 611.576 560.374 601.336 552.773 592.678 C 546.984 586.083 541.388 575.655 536.763 568.197 C 533.649 563.175 529.194 556.614 526.757 551.231 C 524.669 546.617 523.972 539.594 521.439 535.209 C 519.472 531.804 513.905 529.109 512.827 525.327 C 512.542 524.327 513.112 522.907 513.054 521.869 C 512.699 515.556 509.504 507.535 508.480 501.295 C 507.711 496.609 507.980 490.145 506.747 485.559 C 505.160 479.657 499.798 472.932 498.374 466.990 C 495.821 456.335 499.571 441.240 497.508 430.480 C 496.591 425.694 493.051 419.921 492.225 415.118 C 491.615 411.576 491.180 406.641 491.996 403.141 C 492.526 400.867 494.916 398.434 495.429 396.156 C 496.253 392.502 494.468 387.392 494.971 383.681 C 495.350 380.889 497.220 377.472 497.718 374.699 C 498.836 368.470 498.378 359.947 498.531 353.621 C 498.706 346.354 497.379 336.529 498.757 329.393 C 499.295 326.609 501.385 323.274 501.932 320.492 C 503.078 314.669 502.386 300.716 502.386 300.714 "/>
</g>
<g id="Layer_7">
<path fill="#114201" fill-rule="evenodd" stroke="none" d="M 681.887 614.517 C 673.179 617.602 661.117 620.282 652.215 622.753 C 652.217 622.753 665.439 621.046 670.958 619.619 C 687.163 615.431 708.234 607.524 723.186 600.003 C 733.265 594.934 745.976 586.709 754.954 579.876 C 762.081 574.452 771.086 566.500 777.153 559.911 C 787.724 548.428 800.457 531.713 808.181 518.150 C 817.089 502.508 826.405 480.081 831.154 462.718 C 835.902 445.356 839.022 421.305 839.588 403.314 C 840.143 385.649 838.689 361.867 835.011 344.580 C 832.221 331.464 825.791 314.610 820.342 302.357 C 813.717 287.459 803.663 267.953 794.006 254.815 C 787.121 245.447 776.182 234.273 767.490 226.551 C 756.642 216.912 740.851 205.524 728.445 197.995 C 721.938 194.047 712.801 189.550 705.820 186.517 C 701.581 184.675 695.741 182.674 691.378 181.149 C 688.141 180.018 680.520 177.580 680.520 177.580 C 685.789 180.158 693.251 182.677 698.415 185.460 C 712.761 193.189 731.084 205.187 743.545 215.688 C 751.423 222.326 760.697 232.560 767.449 240.339 C 776.612 250.894 788.999 265.084 795.878 277.252 C 802.446 288.870 807.779 306.047 812.136 318.662 C 815.462 328.293 819.835 341.210 821.951 351.177 C 823.540 358.659 824.508 368.846 825.257 376.458 C 825.621 380.159 825.897 385.112 826.128 388.824 C 826.459 394.144 827.606 401.262 827.077 406.566 C 826.853 408.810 825.673 411.654 825.368 413.889 C 824.289 421.800 826.711 432.727 824.880 440.498 C 824.203 443.372 821.737 446.679 820.974 449.530 C 819.605 454.648 820.737 462.018 819.265 467.107 C 816.576 476.405 808.719 487.079 804.098 495.583 C 798.772 505.385 791.525 518.375 786.065 528.103 C 782.371 534.683 778.115 543.897 773.648 549.979 C 766.764 559.351 755.758 570.495 746.909 578.039 C 738.006 585.628 725.003 594.454 714.774 600.129 C 705.357 605.354 692.038 610.921 681.887 614.517 Z"/>
<path fill="none" stroke="#114201" stroke-width="1" stroke-linecap="round" stroke-linejoin="round" d="M 652.215 622.753 C 652.215 622.753 652.215 622.753 652.215 622.753 C 661.117 620.282 673.179 617.602 681.887 614.517 C 692.038 610.921 705.357 605.354 714.774 600.129 C 725.003 594.454 738.006 585.628 746.909 578.039 C 755.758 570.495 766.764 559.351 773.648 549.979 C 778.115 543.897 782.371 534.683 786.065 528.103 C 791.525 518.375 798.772 505.385 804.098 495.583 C 808.719 487.079 816.576 476.405 819.265 467.107 C 820.737 462.018 819.605 454.648 820.974 449.530 C 821.737 446.679 824.203 443.372 824.880 440.498 C 826.711 432.727 824.289 421.800 825.368 413.889 C 825.673 411.654 826.853 408.810 827.077 406.566 C 827.606 401.262 826.459 394.144 826.128 388.824 C 825.897 385.112 825.621 380.159 825.257 376.458 C 824.508 368.846 823.540 358.659 821.951 351.177 C 819.835 341.210 815.462 328.293 812.136 318.662 C 807.779 306.047 802.446 288.870 795.878 277.252 C 788.999 265.084 776.612 250.894 767.449 240.339 C 760.697 232.560 751.423 222.326 743.545 215.688 C 731.084 205.187 712.761 193.189 698.415 185.460 C 693.251 182.677 685.789 180.158 680.520 177.580 C 680.520 177.580 688.141 180.018 691.378 181.149 C 695.741 182.674 701.581 184.675 705.820 186.517 C 712.801 189.550 721.938 194.047 728.445 197.995 C 740.851 205.524 756.642 216.912 767.490 226.551 C 776.182 234.273 787.121 245.447 794.006 254.815 C 803.663 267.953 813.717 287.459 820.342 302.357 C 825.791 314.610 832.221 331.464 835.011 344.580 C 838.689 361.867 840.143 385.649 839.588 403.314 C 839.022 421.305 835.902 445.356 831.154 462.718 C 826.405 480.081 817.089 502.508 808.181 518.150 C 800.457 531.713 787.724 548.428 777.153 559.911 C 771.086 566.500 762.081 574.452 754.954 579.876 C 745.976 586.709 733.265 594.934 723.186 600.003 C 708.234 607.524 687.163 615.431 670.958 619.619 C 665.439 621.046 652.217 622.753 652.215 622.753 "/>
<path fill="#114201" fill-rule="evenodd" stroke="none" d="M 563.909 614.732 C 572.421 618.093 584.280 621.135 593.011 623.879 C 593.008 623.879 576.014 621.727 569.007 619.631 C 554.775 615.375 536.911 606.391 523.854 599.307 C 513.977 593.948 501.188 586.009 492.264 579.180 C 485.173 573.754 476.219 565.800 470.189 559.214 C 459.671 547.726 447.012 531.007 439.335 517.454 C 430.470 501.804 421.212 479.377 416.491 462.022 C 411.767 444.655 408.666 420.607 408.104 402.618 C 407.551 384.954 408.997 361.174 412.655 343.884 C 415.429 330.773 421.821 313.917 427.242 301.661 C 433.828 286.769 443.820 267.264 453.430 254.119 C 460.274 244.758 471.150 233.581 479.798 225.855 C 490.580 216.221 506.282 204.830 518.624 197.299 C 525.093 193.352 534.281 189.077 541.123 185.820 C 545.192 183.883 550.654 181.367 554.842 179.703 C 559.865 177.708 571.854 173.776 571.854 173.776 C 564.352 175.706 555.245 180.977 548.486 184.764 C 534.325 192.698 515.993 204.498 503.609 214.992 C 495.771 221.633 486.552 231.866 479.839 239.643 C 470.724 250.201 458.405 264.398 451.569 276.556 C 445.032 288.180 439.734 305.353 435.402 317.966 C 432.094 327.598 427.746 340.516 425.641 350.481 C 424.061 357.964 423.099 368.150 422.354 375.762 C 421.992 379.463 421.718 384.416 421.488 388.128 C 421.159 393.447 420.018 400.565 420.544 405.869 C 420.767 408.114 421.941 410.958 422.244 413.193 C 423.318 421.104 420.907 432.029 422.729 439.802 C 423.402 442.674 425.855 445.984 426.613 448.834 C 427.976 453.954 426.848 461.320 428.312 466.411 C 430.986 475.701 438.799 486.382 443.395 494.887 C 448.691 504.688 455.898 517.678 461.327 527.406 C 465.000 533.987 469.229 543.198 473.674 549.283 C 480.516 558.647 491.459 569.796 500.264 577.343 C 509.113 584.927 522.144 593.576 532.219 599.433 C 541.346 604.739 554.090 610.854 563.909 614.732 Z"/>
<path fill="none" stroke="#114201" stroke-width="1" stroke-linecap="round" stroke-linejoin="round" d="M 593.011 623.879 C 593.011 623.879 593.011 623.879 593.011 623.879 C 584.280 621.135 572.421 618.093 563.909 614.732 C 554.090 610.854 541.346 604.739 532.219 599.433 C 522.144 593.576 509.113 584.927 500.264 577.343 C 491.459 569.796 480.516 558.647 473.674 549.283 C 469.229 543.198 465.000 533.987 461.327 527.406 C 455.898 517.678 448.691 504.688 443.395 494.887 C 438.799 486.382 430.986 475.701 428.312 466.411 C 426.848 461.320 427.976 453.954 426.613 448.834 C 425.855 445.984 423.402 442.674 422.729 439.802 C 420.907 432.029 423.318 421.104 422.244 413.193 C 421.941 410.958 420.767 408.114 420.544 405.869 C 420.018 400.565 421.159 393.447 421.488 388.128 C 421.718 384.416 421.992 379.463 422.354 375.762 C 423.099 368.150 424.061 357.964 425.641 350.481 C 427.746 340.516 432.094 327.598 435.402 317.966 C 439.734 305.353 445.032 288.180 451.569 276.556 C 458.405 264.398 470.724 250.201 479.839 239.643 C 486.552 231.866 495.771 221.633 503.609 214.992 C 515.993 204.498 534.325 192.698 548.486 184.764 C 555.245 180.977 564.352 175.706 571.854 173.776 C 571.854 173.776 559.865 177.708 554.842 179.703 C 550.654 181.367 545.192 183.883 541.123 185.820 C 534.281 189.077 525.093 193.352 518.624 197.299 C 506.282 204.830 490.580 216.221 479.798 225.855 C 471.150 233.581 460.274 244.758 453.430 254.119 C 443.820 267.264 433.828 286.769 427.242 301.661 C 421.821 313.917 415.429 330.773 412.655 343.884 C 408.997 361.174 407.551 384.954 408.104 402.618 C 408.666 420.607 411.767 444.655 416.491 462.022 C 421.212 479.377 430.470 501.804 439.335 517.454 C 447.012 531.007 459.671 547.726 470.189 559.214 C 476.219 565.800 485.173 573.754 492.264 579.180 C 501.188 586.009 513.977 593.948 523.854 599.307 C 536.911 606.391 554.775 615.375 569.007 619.631 C 576.014 621.727 593.008 623.879 593.011 623.879 "/>
</g>
<g id="Layer_8">
<path fill="#0a2900" fill-rule="evenodd" fill-opacity="0.403922" stroke="none" d="M 432.300 521.491 C 428.262 518.775 423.410 514.428 419.599 511.401 C 419.601 511.403 427.809 526.887 432.300 532.875 C 443.433 547.715 460.999 565.554 475.507 577.116 C 486.085 585.547 501.723 594.826 513.799 600.919 C 525.954 607.052 542.896 613.890 555.972 617.681 C 565.210 620.360 577.873 622.821 587.439 623.816 C 603.851 625.523 626.013 625.646 642.439 624.081 C 655.386 622.846 672.582 619.714 685.011 615.884 C 700.152 611.217 719.704 602.690 733.403 594.731 C 744.408 588.337 758.068 578.043 767.542 569.543 C 776.231 561.747 786.668 550.086 793.939 540.952 C 800.895 532.213 809.481 519.954 814.952 510.217 C 821.745 498.128 829.379 481.157 833.813 468.019 C 837.659 456.625 841.440 440.932 843.084 429.019 C 845.089 414.489 845.954 394.789 844.891 380.160 C 844.077 368.944 841.087 354.154 838.317 343.255 C 835.967 334.008 831.803 321.949 828.342 313.058 C 825.420 305.553 821.196 295.642 817.351 288.565 C 812.102 278.901 804.029 266.575 797.313 257.866 C 792.783 251.991 785.929 244.821 780.831 239.433 C 777.080 235.470 771.838 230.421 767.984 226.559 C 770.541 233.058 774.144 241.649 776.506 248.221 C 779.674 257.039 783.484 268.946 786.133 277.934 C 787.431 282.337 789.253 288.199 790.117 292.707 C 792.545 305.380 794.635 322.605 794.395 335.506 C 794.058 353.602 790.508 377.760 785.672 395.201 C 780.500 413.856 770.832 438.209 760.690 454.698 C 749.764 472.462 731.337 493.954 715.499 507.522 C 699.203 521.481 674.291 536.493 654.622 545.069 C 638.786 551.973 616.305 558.239 599.213 560.744 C 581.307 563.368 556.876 563.639 538.895 561.593 C 520.789 559.533 496.904 553.672 479.906 547.105 C 464.778 541.260 445.758 530.541 432.300 521.491 M 767.984 226.559 C 767.984 226.559 767.984 226.559 767.984 226.559 Z"/>
<path fill="none" stroke="#0a2900" stroke-width="1" stroke-opacity="0.403922" stroke-linecap="round" stroke-linejoin="round" d="M 419.599 511.401 C 419.599 511.401 419.599 511.401 419.599 511.401 C 423.410 514.428 428.262 518.775 432.300 521.491 C 445.758 530.541 464.778 541.260 479.906 547.105 C 496.904 553.672 520.789 559.533 538.895 561.593 C 556.876 563.639 581.307 563.368 599.213 560.744 C 616.305 558.239 638.786 551.973 654.622 545.069 C 674.291 536.493 699.203 521.481 715.499 507.522 C 731.337 493.954 749.764 472.462 760.690 454.698 C 770.832 438.209 780.500 413.856 785.672 395.201 C 790.508 377.760 794.058 353.602 794.395 335.506 C 794.635 322.605 792.545 305.380 790.117 292.707 C 789.253 288.199 787.431 282.337 786.133 277.934 C 783.484 268.946 779.674 257.039 776.506 248.221 C 774.144 241.649 770.541 233.058 767.984 226.559 C 767.984 226.559 767.984 226.559 767.984 226.559 C 771.838 230.421 777.080 235.470 780.831 239.433 C 785.929 244.821 792.783 251.991 797.313 257.866 C 804.029 266.575 812.102 278.901 817.351 288.565 C 821.196 295.642 825.420 305.553 828.342 313.058 C 831.803 321.949 835.967 334.008 838.317 343.255 C 841.087 354.154 844.077 368.944 844.891 380.160 C 845.954 394.789 845.089 414.489 843.084 429.019 C 841.440 440.932 837.659 456.625 833.813 468.019 C 829.379 481.157 821.745 498.128 814.952 510.217 C 809.481 519.954 800.895 532.213 793.939 540.952 C 786.668 550.086 776.231 561.747 767.542 569.543 C 758.068 578.043 744.408 588.337 733.403 594.731 C 719.704 602.690 700.152 611.217 685.011 615.884 C 672.582 619.714 655.386 622.846 642.439 624.081 C 626.013 625.646 603.851 625.523 587.439 623.816 C 577.873 622.821 565.210 620.360 555.972 617.681 C 542.896 613.890 525.954 607.052 513.799 600.919 C 501.723 594.826 486.085 585.547 475.507 577.116 C 460.999 565.554 443.433 547.715 432.300 532.875 C 427.809 526.887 419.601 511.403 419.599 511.401 "/>
</g>
</g>
</svg>
