<svg width="50" xmlns="http://www.w3.org/2000/svg" version="1.1" x="0px" y="0px" viewBox="0 0 90 112.5" enable-background="new 0 0 90 90" xml:space="preserve">
    <path fill="grey" d="M45,16.1c-1.3,0-2.4,0.9-2.8,2.1h5.5C47.4,17,46.3,16.1,45,16.1z"/>
    <path fill="grey" d="M49.6,27v-6.8h-9.2V27c1.5-0.3,3-0.4,4.6-0.4C46.6,26.5,48.1,26.7,49.6,27z"/>
    <path fill="#f44336" d="M45,28.5c-12.5,0-22.7,10.2-22.7,22.7c0,12.5,10.2,22.7,22.7,22.7c12.5,0,22.7-10.2,22.7-22.7C67.7,38.7,57.5,28.5,45,28.5z   M63.8,50.2c0.6,0,1,0.4,1,1C64.8,62.1,55.9,71,45,71c-0.6,0-1-0.4-1-1s0.4-1,1-1c9.8,0,17.8-8,17.8-17.8  C62.8,50.7,63.3,50.2,63.8,50.2z"/>
</svg>