<?xml version="1.0" encoding="UTF-8"?>
<svg viewBox="0 0 1052.3622 744.09448" xmlns="http://www.w3.org/2000/svg">
 <g transform="translate(0 -308.27)">
  <path transform="matrix(.35036 0 0 .35036 455.75 609.17)" d="m1040.3 23.196-546.91 395.14 209.61 641.33-544.81-398.03-545.17 397.53 210.2-641.14-546.54-395.65 674.72 1.7862 207.39-642.05 206.8 642.24 674.72-1.1633z" fill="#ff0"/>
  <path d="m511.39 392.65-72.677 224.99 72.299 100.63 0.37797-325.63zm-0.38925 325.6 309.24-100.96-236.43 0.40794-72.808 100.55zm-308.71-101.25 191.52 138.63 117.2-37.409-308.72-101.22zm308.53 101.26-190.64 262.01 191.02-139.29-0.37163-122.72zm-0.0756-0.17343 191.32 262.39-73.45-224.73-117.87-37.654z" fill="#f1d009"/>
 </g>
</svg>
