<?xml version="1.0" encoding="UTF-8"?>
<svg viewBox="0 0 265 325.39514" xmlns="http://www.w3.org/2000/svg">
 <g transform="translate(-22.5,-47.125)">
  <path d="m153.5 313.62c-7.5 0-15 1.25-22.5 3.75 8.8064 17.613 5.9821 31.33-5.0625 41.188 5.1299 0.80085 9.5705 1.8009 17.625 4.0312 4.0447 0.83293 8.1112 1.3054 12.219 1.7188 11.321 0.0951 18.837-1.3093 29.125-2.7188-14.135-9.9938-18.657-24.718-8.9062-44.219-7.5-2.5-15-3.75-22.5-3.75z" fill="#633d01"/>
  <path d="m153.54 312.67c-6.7142 0-13.428 1.3057-20.143 3.9171 7.8838 18.398 5.3554 32.726-4.5321 43.023 4.5924 0.83654 8.5678 1.8812 15.778 4.2109 3.6209 0.87005 7.2614 1.3636 10.939 1.7954 10.135 0.0993 16.864-1.3676 26.074-2.8399-12.654-10.439-16.702-25.82-7.9732-46.189-6.7142-2.6114-13.428-3.9171-20.143-3.9171z" fill="#8f5902"/>
  <path d="m155 47.125c-0.75 0-1.5 0.75-2 2.25-1 5 1 68-38 83 0 7.3053 10.673 6.5757 18.375 3.7188-8.2761 12.74-20.431 23.738-38.375 29.281 0 12.048 30 6.0241 37.5 0 0 0.011-1e-4 0.0203 0 0.0312-10.266 17.666-26.548 33.557-52.625 40.969 0 9.4008 17.253 9.2115 31.281 5.9688-14.185 17.006-33.844 31.317-61.156 39.031 0 14.504 29.723 12.606 50.031 6.6875-17.928 19.307-42.826 35.574-77.531 44.312 0 17.27 57.646 20.228 89.5 15.25 12.769 1.6708 27.417 2.625 43 2.625s30.231-0.95416 43-2.625c31.854 4.9777 89.5 2.0202 89.5-15.25-34.705-8.739-59.603-25.005-77.531-44.312 20.308 5.9182 50.031 7.8165 50.031-6.6875-27.276-7.7041-46.913-21.992-61.094-38.969 13.972 3.1737 30.969 3.3005 30.969-6.0312-25.881-7.3557-42.127-23.056-52.406-40.562 0.0195-0.14882 0.0312-0.28235 0.0312-0.4375 7.5 6.0241 37.5 12.048 37.5 0-17.944-5.5433-30.099-16.542-38.375-29.281 7.7017 2.8569 18.375 3.5865 18.375-3.7188-39-15-37-78-38-83-0.5-1.5-1.25-2.25-2-2.25z" fill="#316004"/>
  <path d="m155 58.25c-0.0895 1.4486-0.13938 2.5864-0.28125 4.3125-0.56952 6.9291-1.6396 15.868-3.9375 25.188-4.4356 17.989-13.611 37.598-32.812 46.094 0.1287 0.19833 0.26033 0.39251 0.46875 0.5625 0.55578 0.45329 1.6334 0.87776 3.125 1.0312 2.9832 0.30698 7.357-0.49591 10.906-1.8125a2.6182 2.6182 0 0 1 3.0938 3.9062c-8.1605 12.562-20.164 23.542-37.406 29.5 0.06444 0.093 0.04727 0.25284 0.125 0.34375 0.44753 0.52343 1.246 1.0587 2.4062 1.4688 2.3206 0.82013 6.0348 1.0442 10.031 0.6875 7.9929-0.71333 17.403-3.9758 20.156-6.1875a2.6182 2.6182 0 0 1 4.25 2.0312 2.6182 2.6182 0 0 1 -0.375 1.3438c-10.213 17.575-26.493 33.525-51.875 41.406 0.27862 0.52924 0.72596 0.97318 1.4062 1.4375 1.2932 0.8827 3.4999 1.6063 6.2812 1.9375 5.5628 0.66242 13.204-0.14789 20-1.7188a2.6182 2.6182 0 0 1 2.5938 4.25c-14.102 16.907-33.626 31.193-60.312 39.188 0.42955 1.6547 1.5048 2.7912 3.4062 3.875 2.5353 1.4451 6.5634 2.3711 11.312 2.6562 9.4983 0.57036 21.853-1.3034 31.75-4.1875a2.6182 2.6182 0 0 1 2.625 4.2812c-17.826 19.198-42.536 35.379-76.438 44.375 0.28764 0.71665 0.73083 1.4127 1.4375 2.1562 1.2946 1.3621 3.379 2.746 6.125 3.9688 5.4921 2.4456 13.518 4.2871 22.562 5.4062 18.09 2.2384 40.358 1.7207 55.969-0.71875a2.6182 2.6182 0 0 1 0.75 0c12.641 1.6541 27.18 2.5938 42.656 2.5938s30.016-0.93969 42.656-2.5938a2.6182 2.6182 0 0 1 0.75 0c15.611 2.4394 37.879 2.9571 55.969 0.71875 9.0448-1.1192 17.07-2.9607 22.562-5.4062 2.746-1.2228 4.8304-2.6066 6.125-3.9688 0.70667-0.74353 1.1499-1.4396 1.4375-2.1562-33.901-8.9964-58.611-25.177-76.438-44.375a2.6182 2.6182 0 0 1 2.625 -4.2812c9.8968 2.8841 22.252 4.7579 31.75 4.1875 4.7491-0.28518 8.7772-1.2111 11.312-2.6562 1.9015-1.0838 2.9767-2.2203 3.4062-3.875-26.65-7.9839-46.153-22.248-60.25-39.125a2.6182 2.6182 0 0 1 2.5938 -4.25c6.7696 1.5377 14.323 2.3008 19.812 1.625 2.7448-0.33789 4.9171-1.0604 6.1875-1.9375 0.66833-0.4614 1.132-0.88039 1.4062-1.4062-25.204-7.8163-41.457-23.577-51.688-41a2.6182 2.6182 0 0 1 -0.34375 -1.6562c0.0109-0.0831 0-0.0708 0-0.0937a2.6182 2.6182 0 0 1 4.25 -2.0312c2.7535 2.2117 12.163 5.4742 20.156 6.1875 3.9964 0.35666 7.7106 0.13263 10.031-0.6875 1.1603-0.41007 1.9587-0.94532 2.4062-1.4688 0.0777-0.0909 0.0606-0.25077 0.125-0.34375-17.242-5.9581-29.246-16.938-37.406-29.5a2.6182 2.6182 0 0 1 3.0938 -3.9062c3.5492 1.3166 7.9231 2.1195 10.906 1.8125 1.4916-0.15349 2.5692-0.57796 3.125-1.0312 0.20842-0.16999 0.34005-0.36417 0.46875-0.5625-19.202-8.4962-28.377-28.105-32.812-46.094-2.2979-9.3194-3.368-18.258-3.9375-25.188-0.14187-1.726-0.19171-2.8639-0.28125-4.3125z" fill="#4e9a06"/>
  <path d="m119.97 357.57c-1.8208-0.20811-3.663-0.34489-5.5-0.375-14.798-0.92919-30.05 0.62002-43.813 7.6875-0.79604 5.6053 8.2778-1.0427 11.25-1.5 14.71-6.4348 29.874-5.3145 45.875-3.0312 7.6118 1.4336 10.628 3.3075 17.281 4.5 6.3143 1.4134 12.707 1.7051 19.094 1.3125 8.1891-0.40364 16.946-2.1117 25.032-3.3623 11.062-1.4841 31.037-2.3527 45.968 5.2373 2.7781 1.6041 11.626 7.7982 11.156 2.1562-13.33-7.8526-28.485-10.289-43.312-10.219-2.5579-0.10634-5.1091-2e-3 -7.6562 0.21875-16.512 1.6734-24.764 4.0931-39.562 3.9688-4.1075-0.41337-8.1741-0.88577-12.219-1.7187-10.939-3.029-15.194-3.834-23.594-4.8751z" fill="#312c29"/>
  <path d="m138.49 146.67c3.1214-5.4316 3.8204-10.678 2.4285-15.122-0.85242 2.8559-2.0828 5.8036-3.8136 8.8153-7.1798 12.494-20.262 22.681-33.788 27.493 14.307-1.7235 28.805-10.105 35.173-21.186z" fill="#316004"/>
  <path d="m135.04 182.48c4.1337-6.7386 5.0594-13.247 3.2161-18.761-1.1289 3.5432-2.7583 7.2002-5.0504 10.937-9.5083 15.5-26.833 28.138-44.745 34.109 18.946-2.1382 38.146-12.536 46.579-26.284z" fill="#316004"/>
  <path d="m111.74 230.14c5.1166-6.5096 6.643-13.015 5.0097-18.712-1.5269 3.4969-3.6199 7.0733-6.457 10.683-11.769 14.973-32.026 26.503-52.429 31.258 21.264-0.81341 43.438-9.9477 53.876-23.228z" fill="#316004"/>
  <path d="m153.29 104.71c1.7689-6.1351 1.2255-11.509-1.1644-15.59-0.16301 3.0381-0.67219 6.2572-1.653 9.659-4.0688 14.112-14.415 27.339-26.446 35.335 13.51-5.1164 25.655-16.888 29.263-29.404z" fill="#316004"/>
  <path d="m149.68 178.54c1.8951-6.0328 0.80325-11.128-2.6257-14.819-1e-3 2.923-0.44451 6.0506-1.4953 9.3956-4.3591 13.877-17.034 27.473-32.292 36.215 17.405-6.1185 32.547-18.484 36.413-30.792z" fill="#316004"/>
  <path d="m175.33 182.48c-4.1337-6.7386-5.0594-13.247-3.2161-18.761 1.1289 3.5432 2.7583 7.2002 5.0504 10.937 9.5083 15.5 26.833 28.138 44.745 34.109-18.946-2.1382-38.146-12.536-46.579-26.284z" fill="#316004"/>
  <path d="m159.31 178.54c-1.8951-6.0328-0.80325-11.128 2.6257-14.819 1e-3 2.923 0.44451 6.0506 1.4953 9.3956 4.3591 13.877 17.034 27.473 32.292 36.215-17.405-6.1185-32.547-18.484-36.413-30.792z" fill="#316004"/>
  <path d="m129.42 227.55c3.3404-6.1387 3.6351-11.707 1.3728-16.116-0.75777 3.1049-1.9837 6.3642-3.8359 9.768-7.6836 14.12-23.099 26.759-39.68 33.873 17.918-4.021 35.328-15.001 42.143-27.525z" fill="#316004"/>
  <path d="m146.54 226.03c2.705-5.9351 2.3792-10.956-0.41444-14.601-0.42137 2.8785-1.3012 5.9571-2.801 9.248-6.222 13.652-20.466 27.002-36.516 35.564 17.755-5.9717 34.213-18.102 39.732-30.211z" fill="#316004"/>
  <path d="m195.57 230.14c-5.1166-6.5096-6.643-13.015-5.0097-18.712 1.5269 3.4969 3.6199 7.0733 6.457 10.683 11.769 14.973 32.026 26.503 52.429 31.258-21.264-0.81341-43.438-9.9477-53.876-23.228z" fill="#316004"/>
  <path d="m177.88 227.55c-3.3404-6.1387-3.6351-11.707-1.3728-16.116 0.75777 3.1049 1.9837 6.3642 3.8359 9.768 7.6836 14.12 23.099 26.759 39.68 33.873-17.918-4.021-35.328-15.001-42.143-27.525z" fill="#316004"/>
  <path d="m160.76 226.03c-2.705-5.9351-2.3792-10.956 0.41444-14.601 0.42137 2.8785 1.3012 5.9571 2.801 9.248 6.222 13.652 20.466 27.002 36.516 35.564-17.755-5.9717-34.213-18.102-39.732-30.211z" fill="#316004"/>
  <path d="m170.85 146.67c-3.1214-5.4316-3.8204-10.678-2.4285-15.122 0.85242 2.8559 2.0828 5.8036 3.8136 8.8153 7.1798 12.494 20.262 22.681 33.788 27.493-14.307-1.7235-28.805-10.105-35.173-21.186z" fill="#316004"/>
  <path d="m158.08 140.55c-0.83056-3.8752 0.43167-6.9567 3.2699-9.0008-0.26648 1.8123-0.22904 3.783 0.23149 5.9318 1.9104 8.9138 9.9116 18.246 20.24 24.752-12.135-5.0325-22.047-13.777-23.741-21.683z" fill="#316004"/>
  <path d="m156.92 104.71c-1.7689-6.1351-1.2255-11.509 1.1644-15.59 0.16301 3.0381 0.67219 6.2572 1.653 9.659 4.0688 14.112 14.415 27.339 26.446 35.335-13.51-5.1164-25.655-16.888-29.263-29.404z" fill="#316004"/>
  <path d="m214.66 284.42c-6.8527-7.8387-10.205-16.503-10.247-24.781 2.4906 4.4941 5.5557 8.967 9.3554 13.313 15.763 18.031 38.809 29.32 60.057 31.184-20.956 3.8002-45.185-3.7241-59.166-19.716z" fill="#316004"/>
  <path d="m197.45 283.66c-5.0154-7.7362-6.8989-15.388-5.9582-22.024 1.6286 4.1289 3.7578 8.3633 6.5388 12.653 11.536 17.795 30.183 31.744 48.382 37.763-18.615-1.422-38.731-12.609-48.963-28.392z" fill="#316004"/>
  <path d="m174.95 280.03c-4.23-7.6617-5.2526-14.714-3.4947-20.39 1.1808 3.91 2.8633 7.9983 5.2088 12.247 9.7298 17.623 27.223 33.079 45.203 41.484-18.955-4.4321-38.287-17.709-46.917-33.34z" fill="#316004"/>
  <path d="m158.2 276.1c-2.5392-6.7816-1.74-12.353 1.7231-16.234 0.22748 3.2324 0.95459 6.7168 2.3625 10.477 5.8407 15.599 20.752 31.372 38.111 41.928-19.504-7.7796-37.016-22.335-42.197-36.171z" fill="#316004"/>
  <path d="m93.414 284.42c6.8527-7.8387 10.205-16.503 10.247-24.781-2.4906 4.4941-5.5557 8.967-9.3554 13.313-15.763 18.031-38.809 29.32-60.057 31.184 20.956 3.8002 45.185-3.7241 59.166-19.716z" fill="#316004"/>
  <path d="m110.63 283.66c5.0154-7.7362 6.8989-15.388 5.9582-22.024-1.6286 4.1289-3.7578 8.3633-6.5388 12.653-11.536 17.795-30.183 31.744-48.382 37.763 18.615-1.422 38.731-12.609 48.963-28.392z" fill="#316004"/>
  <path d="m133.13 280.03c4.23-7.6617 5.2526-14.714 3.4947-20.39-1.1808 3.91-2.8633 7.9983-5.2088 12.247-9.7298 17.623-27.223 33.079-45.203 41.484 18.955-4.4321 38.287-17.709 46.917-33.34z" fill="#316004"/>
  <path d="m149.88 276.53c2.5392-7.0761 1.74-12.889-1.7231-16.939-0.22748 3.3728-0.95459 7.0085-2.3625 10.932-5.8407 16.277-20.752 32.735-38.111 43.749 19.504-8.1175 37.016-23.306 42.197-37.742z" fill="#316004"/>
  <path d="m143.59 328.8c-0.72723-4.3433-2.3533-7.051-4.5223-8.0708 0.69702 1.7771 1.2766 3.8365 1.6798 6.2448 1.6728 9.9905 0.1538 22.778-3.4938 33.537 5.0806-9.9301 7.82-22.85 6.3363-31.711z" fill="#633d01"/>
  <path d="m151.23 329.93c-0.68472-4.4201-2.2871-7.1419-4.4511-8.1221 0.6806 1.797 1.2406 3.886 1.6202 6.3369 1.575 10.167-0.0782 23.286-3.8446 34.392 5.1944-10.3 8.0724-23.589 6.6754-32.607z" fill="#633d01"/>
  <path d="m151.56 140.55c0.83056-3.8752-0.43167-6.9567-3.2699-9.0008 0.26648 1.8123 0.22904 3.783-0.23149 5.9318-1.9104 8.9138-9.9116 18.246-20.24 24.752 12.135-5.0325 22.047-13.777 23.741-21.683z" fill="#316004"/>
 </g>
</svg>
