<?xml version="1.0" encoding="UTF-8"?>
<!DOCTYPE svg PUBLIC "-//W3C//DTD SVG 1.1//EN" "http://www.w3.org/Graphics/SVG/1.1/DTD/svg11.dtd">
<!-- Creator: CorelDRAW -->
<svg xmlns="http://www.w3.org/2000/svg" xml:space="preserve" width="6.82666in" height="6.82666in" style="shape-rendering:geometricPrecision; text-rendering:geometricPrecision; image-rendering:optimizeQuality; fill-rule:evenodd; clip-rule:evenodd"
viewBox="0 0 6.82666 6.82666"
 xmlns:xlink="http://www.w3.org/1999/xlink">
 <defs>
  <style type="text/css">
   <![CDATA[
    .fil4 {fill:none}
    .fil2 {fill:#9D9D9D}
    .fil3 {fill:white}
    .fil0 {fill:#636364;fill-rule:nonzero}
    .fil1 {fill:#737373;fill-rule:nonzero}
   ]]>
  </style>
 </defs>
 <g id="Layer_x0020_1">
  <metadata id="CorelCorpID_0Corel-Layer"/>
  <path class="fil0" d="M2.23111 1.35125l0 -0.177717c0,-0.0881417 0.0360039,-0.168217 0.0939961,-0.226209 0.0579921,-0.0579921 0.138067,-0.0939961 0.226209,-0.0939961l2.5507 0c0.0881417,0 0.168217,0.0360039 0.226209,0.0939961 0.0579921,0.0579921 0.0939961,0.138067 0.0939961,0.226209l0 3.65293c0,0.0881417 -0.0360039,0.168217 -0.0939961,0.226209 -0.0579921,0.0579921 -0.138067,0.0939961 -0.226209,0.0939961l-0.212094 0 -0.042189 -3.3862c-0.00132283,-0.10635 -0.0422677,-0.207614 -0.117425,-0.282776 -0.0751614,-0.0751575 -0.176425,-0.116992 -0.282776,-0.117425l-2.21642 -0.00901575z"/>
  <path class="fil1" d="M1.81778 1.8l0 -0.21313c0,-0.0881417 0.036,-0.168217 0.0939961,-0.226209 0.0579921,-0.0579921 0.138063,-0.0939961 0.226205,-0.0939961l2.5507 0c0.0881417,0 0.168217,0.036 0.226209,0.0939961 0.0579961,0.0579921 0.0939961,0.138067 0.0939961,0.226209l0 3.65292c0,0.0881417 -0.036,0.168217 -0.0939961,0.226209 -0.0579921,0.0579961 -0.138067,0.0939961 -0.226209,0.0939961l-0.277713 0 0.116764 -3.47953c0.00356693,-0.106299 -0.0422677,-0.207614 -0.117425,-0.282772 -0.0751575,-0.0751575 -0.198232,-0.0359843 -0.304591,-0.0359843l-2.28794 0.0382874z"/>
  <path class="fil2" d="M4.27535 1.68l-2.29757 0 -0.16 0 -0.0931378 0c-0.0881378,0 -0.168209,0.0360039 -0.226201,0.0939961 -0.0579921,0.0579921 -0.0939961,0.138067 -0.0939961,0.226205l0 3.65293c0,0.0881417 0.0359961,0.168209 0.0939921,0.226205 0.0579921,0.0579961 0.138067,0.0939961 0.226205,0.0939961l2.55071 0c0.0881417,0 0.168209,-0.0359961 0.226209,-0.0939921 0.0579961,-0.0579961 0.0939921,-0.138067 0.0939921,-0.226209l0 -0.0931339 0 -0.16 0 -3.3998c0,-0.0881378 -0.0360039,-0.168213 -0.0939961,-0.226205 -0.0579921,-0.0579921 -0.138067,-0.0939961 -0.226205,-0.0939961z"/>
  <polygon class="fil3" points="1.94956,2.28001 4.05043,2.28001 4.05043,2.20001 1.94956,2.20001 "/>
  <polygon class="fil3" points="1.94956,2.80889 4.05043,2.80889 4.05043,2.72889 1.94956,2.72889 "/>
  <polygon class="fil3" points="4.05043,3.33778 4.05043,3.25778 1.94956,3.25778 1.94956,3.33778 "/>
  <polygon class="fil3" points="3,3.86666 3,3.78666 1.94956,3.78666 1.94956,3.86666 "/>
  <polygon class="fil3" points="4.05043,4.31555 1.94956,4.31555 1.94956,4.39555 4.05043,4.39555 "/>
  <polygon class="fil3" points="4.05043,4.84443 1.94956,4.84443 1.94956,4.92443 4.05043,4.92443 "/>
  <polygon class="fil3" points="3.46911,5.37331 1.94956,5.37331 1.94956,5.45331 3.46911,5.45331 "/>
 </g>
 <rect class="fil4" width="6.82666" height="6.82666"/>
</svg>
