<?xml version="1.0" encoding="utf-8"?>
<!-- Generator: Adobe Illustrator 24.3.0, SVG Export Plug-In . SVG Version: 6.00 Build 0)  -->
<svg version="1.1" id="Layer_1" xmlns="http://www.w3.org/2000/svg" xmlns:xlink="http://www.w3.org/1999/xlink" x="0px" y="0px"
	 viewBox="0 0 300 300" enable-background="new 0 0 300 300" xml:space="preserve">
<g>
	<path d="M242.282,170.949h-9.453c-1.237-20.22-9.696-39.061-24.144-53.508C193.01,101.765,172.168,93.133,150,93.133
		c-22.167,0-43.009,8.632-58.684,24.308c-14.449,14.447-22.908,33.288-24.144,53.508H57.72c-2.859,0-5.178,2.317-5.178,5.178v25.563
		c0,2.859,2.319,5.177,5.178,5.177h169.181c2.86,0,5.179-2.317,5.179-5.177v-7.483c0-2.858-2.319-5.176-5.179-5.176
		c-2.86,0-5.177,2.317-5.177,5.176v2.308h-20.405v-2.308c0-2.858-2.318-5.176-5.177-5.176c-2.86,0-5.178,2.317-5.178,5.176v2.308
		h-20.404v-2.308c0-2.858-2.319-5.176-5.179-5.176c-2.86,0-5.178,2.317-5.178,5.176v2.308h-20.403v-2.308
		c0-2.858-2.318-5.176-5.178-5.176c-2.86,0-5.177,2.317-5.177,5.176v2.308h-20.405v-2.308c0-2.858-2.318-5.176-5.178-5.176
		c-2.86,0-5.177,2.317-5.177,5.176v2.308H78.278v-2.308c0-2.858-2.317-5.176-5.177-5.176c-2.859,0-5.178,2.317-5.178,5.176v2.308
		h-5.025v-15.21h174.206v20.386c0,2.859,2.318,5.177,5.178,5.177c2.859,0,5.177-2.317,5.177-5.177v-25.563
		C247.458,173.266,245.14,170.949,242.282,170.949z M79.491,158.659l1.764,0.574c0.532,0.174,1.071,0.254,1.601,0.254
		c2.183,0,4.212-1.39,4.924-3.577c0.883-2.722-0.605-5.643-3.325-6.525l-1.757-0.57c1.575-3.869,3.475-7.567,5.664-11.073
		l1.478,1.075c0.919,0.668,1.984,0.989,3.039,0.989c1.601,0,3.18-0.74,4.193-2.134c1.68-2.315,1.168-5.553-1.146-7.232l-1.469-1.067
		c2.675-3.171,5.616-6.113,8.788-8.788l1.067,1.469c1.013,1.395,2.592,2.134,4.192,2.134c1.056,0,2.121-0.323,3.04-0.988
		c2.313-1.682,2.826-4.921,1.144-7.232l-1.074-1.479c3.503-2.19,7.206-4.089,11.072-5.663l0.572,1.757
		c0.71,2.188,2.739,3.579,4.923,3.579c0.529,0,1.07-0.083,1.601-0.255c2.72-0.885,4.207-3.805,3.323-6.523l-0.572-1.763
		c3.978-0.986,8.084-1.646,12.288-1.941v1.85c0.001,2.858,2.319,5.176,5.178,5.176c2.859,0,5.178-2.317,5.177-5.178v-1.848
		c4.205,0.296,8.31,0.955,12.288,1.941l-0.573,1.764c-0.884,2.72,0.604,5.64,3.325,6.522c0.532,0.174,1.07,0.255,1.6,0.255
		c2.183,0,4.212-1.392,4.923-3.579l0.57-1.757c3.867,1.574,7.569,3.473,11.072,5.663l-1.074,1.479
		c-1.681,2.313-1.168,5.551,1.145,7.232c0.92,0.667,1.984,0.988,3.04,0.988c1.601,0,3.18-0.739,4.193-2.134l1.066-1.469
		c3.173,2.675,6.114,5.617,8.789,8.788l-1.467,1.067c-2.314,1.68-2.827,4.917-1.146,7.232c1.013,1.393,2.592,2.134,4.193,2.134
		c1.055,0,2.12-0.321,3.038-0.989l1.479-1.075c2.189,3.506,4.088,7.206,5.663,11.073l-1.757,0.57
		c-2.719,0.885-4.206,3.806-3.323,6.525c0.711,2.188,2.741,3.578,4.922,3.578c0.53,0,1.071-0.081,1.602-0.255l1.764-0.574
		c0.986,3.979,1.644,8.085,1.94,12.29H111.756c2.538-18.842,18.719-33.417,38.245-33.417c10.657,0,20.578,4.251,27.936,11.965
		c1.973,2.07,5.25,2.149,7.319,0.175c2.069-1.974,2.147-5.252,0.174-7.32c-4.522-4.743-9.848-8.474-15.829-11.09
		c-6.194-2.711-12.789-4.084-19.6-4.084c-25.241,0-46.079,19.207-48.674,43.771H77.55C77.846,166.743,78.506,162.638,79.491,158.659
		z"/>
	<path d="M185.561,161.099c0.201,0.473,0.393,0.956,0.573,1.435c0.781,2.076,2.753,3.356,4.847,3.356
		c0.605,0,1.221-0.107,1.822-0.332c2.676-1.009,4.03-3.995,3.022-6.672c-0.229-0.608-0.473-1.223-0.728-1.821
		c-1.115-2.635-4.153-3.867-6.786-2.751C185.678,155.429,184.447,158.465,185.561,161.099z"/>
</g>
</svg>
