<?xml version="1.0" encoding="UTF-8" standalone="no"?><!DOCTYPE svg PUBLIC "-//W3C//DTD SVG 1.1//EN" "http://www.w3.org/Graphics/SVG/1.1/DTD/svg11.dtd"><svg width="100%" height="100%" viewBox="0 0 224 225" version="1.1" xmlns="http://www.w3.org/2000/svg" xmlns:xlink="http://www.w3.org/1999/xlink" xml:space="preserve" xmlns:serif="http://www.serif.com/" style="fill-rule:evenodd;clip-rule:evenodd;stroke-linejoin:round;stroke-miterlimit:1.5;"><g><path d="M21.73,22.873c32.047,-1.832 148.331,-1.832 180.379,-0c5.541,0.316 11.564,5.761 11.907,10.992c1.985,30.208 1.985,140.048 0,170.256c-0.343,5.23 -6.366,10.675 -11.907,10.992c-32.048,1.832 -148.332,1.832 -180.379,-0c-5.542,-0.317 -11.565,-5.762 -11.908,-10.992c-1.985,-30.208 -1.985,-140.048 -0,-170.256c0.343,-5.231 6.366,-10.676 11.908,-10.992Z" style="fill:none;stroke:#000;stroke-width:16.67px;"/><path d="M9.822,78.173l204.194,-0" style="fill:none;stroke:#000;stroke-width:16.67px;"/><path d="M111.756,6.25l-0,37.679" style="fill:none;stroke:#000;stroke-width:12.5px;stroke-linecap:round;"/><path d="M144.637,6.25l0,37.679" style="fill:none;stroke:#000;stroke-width:12.5px;stroke-linecap:round;"/><path d="M78.874,6.25l0.185,37.679" style="fill:none;stroke:#000;stroke-width:12.5px;stroke-linecap:round;"/><path d="M177.519,6.25l-0,37.679" style="fill:none;stroke:#000;stroke-width:12.5px;stroke-linecap:round;"/><path d="M45.992,6.25l0.186,37.679" style="fill:none;stroke:#000;stroke-width:12.5px;stroke-linecap:round;"/><path d="M55.551,74.864l-0,140.249" style="fill:none;stroke:#000;stroke-width:8.33px;"/><path d="M9.822,118.993l204.194,-0.038" style="fill:none;stroke:#000;stroke-width:8.33px;"/><path d="M9.822,87.364l204.194,-0.038" style="fill:none;stroke:#000;stroke-width:8.33px;"/><path d="M9.822,149.436l204.194,-0.038" style="fill:none;stroke:#000;stroke-width:8.33px;"/><path d="M9.822,180.472l204.194,-0.038" style="fill:none;stroke:#000;stroke-width:8.33px;"/><path d="M9.822,180.472l204.194,-0.038" style="fill:none;stroke:#000;stroke-width:8.33px;"/><path d="M93.13,74.864l-0,140.249" style="fill:none;stroke:#000;stroke-width:8.33px;"/><path d="M130.709,74.864l-0,140.249" style="fill:none;stroke:#000;stroke-width:8.33px;"/><path d="M168.287,74.864l0,140.249" style="fill:none;stroke:#000;stroke-width:8.33px;"/><rect x="16.588" y="79.686" width="37.5" height="40.848"/><rect x="170.754" y="183.035" width="37.5" height="33.452"/><rect x="133.254" y="183.035" width="37.5" height="33.452"/></g></svg>