<?xml version="1.0" encoding="utf-8"?>
<!-- Generator: Adobe Illustrator 28.0.0, SVG Export Plug-In . SVG Version: 6.00 Build 0)  -->
<svg version="1.1" id="Слой_1" xmlns="http://www.w3.org/2000/svg" xmlns:xlink="http://www.w3.org/1999/xlink" x="0px" y="0px"
	 viewBox="0 0 48 48" style="enable-background:new 0 0 48 48;" xml:space="preserve">
<style type="text/css">
	.st0{fill:url(#зад_ручки_00000021111685238507612390000012494666272127175324_);}
	
		.st1{fill-rule:evenodd;clip-rule:evenodd;fill:url(#пространство_00000008846611918375560860000007060305922736472996_);}
	.st2{fill:#FFECCD;}
	.st3{fill:#00FFFF;filter:url(#Adobe_OpacityMaskFilter);}
	.st4{opacity:0.616;mask:url(#m_00000149377654056074676940000012172884149631087270_);fill:#6C5D53;enable-background:new    ;}
	.st5{fill:#F5F5F5;filter:url(#Adobe_OpacityMaskFilter_00000108268718924001210710000001599488828613119107_);}
	.st6{mask:url(#n_00000083791596633550433550000005360116309938248331_);fill-rule:evenodd;clip-rule:evenodd;fill:#FDF9EC;}
	.st7{fill-rule:evenodd;clip-rule:evenodd;fill:#FFFFFF;}
	.st8{fill-rule:evenodd;clip-rule:evenodd;fill:#F7CBB4;}
	.st9{fill-rule:evenodd;clip-rule:evenodd;fill:#CFB2A3;}
	.st10{fill-rule:evenodd;clip-rule:evenodd;fill:#BF9985;}
	.st11{fill:#00FFFF;filter:url(#Adobe_OpacityMaskFilter_00000176043603641598757790000010978721531209436851_);}
	.st12{opacity:0.616;mask:url(#m_00000044151805116476835080000007608798083972491916_);fill:#6C5D53;enable-background:new    ;}
	.st13{fill:#F5F5F5;filter:url(#Adobe_OpacityMaskFilter_00000054223768005648703680000011429152666463822481_);}
	.st14{mask:url(#n_00000059304353976390507240000010215849859597066639_);fill-rule:evenodd;clip-rule:evenodd;fill:#FDF9EC;}
	.st15{fill-rule:evenodd;clip-rule:evenodd;fill:url(#перед_00000005949116840743079820000001514721284925949081_);}
	.st16{fill:url(#SVGID_1_);}
	.st17{fill:url(#SVGID_00000005969626550381288900000016379169661721202876_);}
	.st18{fill-rule:evenodd;clip-rule:evenodd;fill:url(#SVGID_00000009555181689055688370000001018069679481046668_);}
</style>
<linearGradient id="зад_ручки_00000134967746420904880890000015082713177795842997_" gradientUnits="userSpaceOnUse" x1="-598.2948" y1="385.8022" x2="-597.2039" y2="385.5719" gradientTransform="matrix(11 0 0 -15.7293 6606 6084.1094)">
	<stop  offset="0" style="stop-color:#552200"/>
	<stop  offset="1" style="stop-color:#B6632C"/>
</linearGradient>
<path id="зад_ручки" style="fill:url(#зад_ручки_00000134967746420904880890000015082713177795842997_);" d="
	M29.6,9.8c5.8,4.7,5.7,10.4,7.4,15.7h-4c-0.3-5.7-2.1-11-7-15.7L29.6,9.8L29.6,9.8z"/>
<linearGradient id="пространство_00000155847209615802716160000017817492990557817514_" gradientUnits="userSpaceOnUse" x1="-639.3986" y1="378.367" x2="-638.3831" y2="377.9446" gradientTransform="matrix(35.452 0 0 -11.8358 22676.9668 4506.2798)">
	<stop  offset="0" style="stop-color:#552200"/>
	<stop  offset="1" style="stop-color:#B6632C"/>
</linearGradient>
<path id="пространство" style="fill-rule:evenodd;clip-rule:evenodd;fill:url(#пространство_00000155847209615802716160000017817492990557817514_);" d="
	M43,29c0,3.3-4.9,7.1-17.5,7.3c-11.7,0.1-17.9-4.2-17.9-7.4s10.2-4.4,17.9-4.4C32.2,24.4,43,25.7,43,29z"/>
<g transform="translate(0 -892.36)">
	<g transform="matrix(.68738 0 0 .68738 23.259 304.63)">
		<path class="st2" d="M5.3,910.3C5.2,913,3,915.7,0,915.7c-3,0-5.5-1.7-5.8-5c-0.3-3.3,2-9.2,5.5-9.4
			C3.2,901.2,5.4,906.4,5.3,910.3L5.3,910.3z"/>
		<defs>
			<filter id="Adobe_OpacityMaskFilter" filterUnits="userSpaceOnUse" x="-6.1" y="901.7" width="9.6" height="14">
				<feColorMatrix  type="matrix" values="1 0 0 0 0  0 1 0 0 0  0 0 1 0 0  0 0 0 1 0"/>
			</filter>
		</defs>
		
			<mask maskUnits="userSpaceOnUse" x="-6.1" y="901.7" width="9.6" height="14" id="m_00000149377654056074676940000012172884149631087270_">
			<path class="st3" d="M8.4,910.9c-0.1,3.9-3.3,7.8-7.7,7.8c-4.4,0-8.1-2.4-8.5-7.2c-0.4-4.8,3-13.4,8.1-13.6
				C5.4,897.7,8.7,905.3,8.4,910.9L8.4,910.9z"/>
		</mask>
		<path class="st4" d="M-1.9,901.7C-1.9,901.7-1.9,901.7-1.9,901.7c-0.1,0-0.2,0.1-0.2,0.1c0,0,0,0,0,0c-0.1,0-0.1,0.1-0.2,0.1
			c0,0,0,0,0,0c-0.1,0.1-0.1,0.1-0.2,0.2c0,0,0,0,0,0c-0.1,0.1-0.1,0.1-0.2,0.2c0,0,0,0-0.1,0c-0.1,0.1-0.1,0.1-0.2,0.2
			c0,0-0.1,0.1-0.1,0.1c0,0.1-0.1,0.1-0.1,0.2c0,0-0.1,0.1-0.1,0.1c0,0-0.1,0.1-0.1,0.2c0,0-0.1,0.1-0.1,0.1c0,0.1-0.1,0.1-0.1,0.2
			c0,0-0.1,0.1-0.1,0.1c0,0.1-0.1,0.1-0.1,0.2c0,0-0.1,0.1-0.1,0.1c-0.1,0.1-0.1,0.2-0.2,0.3c0,0,0,0,0,0c0,0,0,0,0,0
			c-0.1,0.1-0.1,0.2-0.2,0.3c0,0,0,0.1-0.1,0.1c0,0.1-0.1,0.1-0.1,0.2c0,0,0,0.1-0.1,0.1c0,0.1-0.1,0.1-0.1,0.2c0,0,0,0.1-0.1,0.1
			c0,0.1-0.1,0.1-0.1,0.2c0,0,0,0.1-0.1,0.1c0,0.1-0.1,0.1-0.1,0.2c0,0,0,0.1-0.1,0.1c0,0.1-0.1,0.2-0.1,0.4c0,0.1-0.1,0.2-0.1,0.4
			c0,0,0,0.1,0,0.1c0,0.1,0,0.2-0.1,0.2c0,0.1,0,0.1,0,0.2c0,0.1,0,0.1-0.1,0.2c0,0,0,0.1,0,0.1c0,0.1,0,0.1-0.1,0.2
			c0,0,0,0.1,0,0.1c0,0.1,0,0.1,0,0.2c0,0,0,0.1,0,0.1c0,0.1,0,0.2-0.1,0.3c0,0.1,0,0.2,0,0.3c0,0,0,0.1,0,0.1c0,0.1,0,0.2,0,0.2
			c0,0,0,0.1,0,0.1c0,0.1,0,0.1,0,0.2c0,0,0,0.1,0,0.1c0,0.1,0,0.1,0,0.2c0,0,0,0.1,0,0.1c0,0.1,0,0.1,0,0.2c0,0,0,0.1,0,0.1
			c0,0.1,0,0.2,0,0.3c0.3,3.3,2.8,5,5.8,5c0.1,0,0.2,0,0.3,0c0,0,0,0,0,0c0.1,0,0.2,0,0.3,0c0.1,0,0.1,0,0.2,0c0,0,0.1,0,0.1,0
			c0.1,0,0.1,0,0.2,0c0,0,0.1,0,0.1,0c0,0,0,0,0,0c0.1,0,0.1,0,0.2,0c0,0,0,0,0.1,0c0.1,0,0.1,0,0.2-0.1c0,0,0.1,0,0.1,0
			c0.1,0,0.1-0.1,0.2-0.1c0,0,0,0,0,0c0,0,0,0,0,0c0.1,0,0.1,0,0.2-0.1c0,0,0,0,0.1,0c0.1,0,0.1-0.1,0.2-0.1c0,0,0,0,0,0
			c0,0,0,0,0,0c0.1,0,0.1-0.1,0.2-0.1c0,0,0,0,0,0c0.1,0,0.1-0.1,0.2-0.1c0,0,0,0,0,0c0,0,0,0,0,0c0.1,0,0.1-0.1,0.2-0.1
			c0.1,0,0.1-0.1,0.2-0.2c0,0,0,0,0,0c0,0,0,0,0,0c0.1-0.1,0.1-0.1,0.2-0.2c0.1-0.1,0.1-0.1,0.2-0.2c0,0,0,0,0,0l0,0
			c0.1-0.1,0.1-0.1,0.2-0.2c0,0,0,0,0,0c-0.7,0.4-1.2,0-2.1,0c-3,0-4.5-1.7-5-3.7C-4.5,907-3.8,903.7-1.9,901.7L-1.9,901.7z"/>
		<defs>
			
				<filter id="Adobe_OpacityMaskFilter_00000072242406233592287260000017376422422020179113_" filterUnits="userSpaceOnUse" x="3" y="910.2" width="2.7" height="4.5">
				<feColorMatrix  type="matrix" values="1 0 0 0 0  0 1 0 0 0  0 0 1 0 0  0 0 0 1 0"/>
			</filter>
		</defs>
		
			<mask maskUnits="userSpaceOnUse" x="3" y="910.2" width="2.7" height="4.5" id="n_00000083791596633550433550000005360116309938248331_">
			<path style="fill:#F5F5F5;filter:url(#Adobe_OpacityMaskFilter_00000072242406233592287260000017376422422020179113_);" d="
				M8.1,1053c-0.1,3.9-3.3,7.8-7.7,7.8c-4.4,0-8.1-2.4-8.5-7.2c-0.4-4.8,3-13.4,8.1-13.6S8.3,1047.3,8.1,1053L8.1,1053z"/>
		</mask>
		<path class="st6" d="M5,911.3c-0.7,1.4-1,1.3-1.8,2.8c-0.2,0.2-0.3,0.5,0,0.6c0.3,0,0.6,0,0.8-0.2c0.1-0.2,0.1,0.1,0.3,0
			c0.4-0.2,0.5-0.6,0.7-0.9c0.2-0.3,0.4-0.6,0.7-0.9c0-0.3-0.4-0.4-0.5-0.6c-0.2-0.3,0.4-1.5,0.3-1.8L5,911.3z M4.1,914.5
			C4,914.5,4.1,914.5,4.1,914.5z M4.1,914.5C4.1,914.6,4.2,914.6,4.1,914.5z"/>
		<path class="st7" d="M3.6,908c-0.1-0.7-0.4-1.4-0.7-2c-0.3-0.4-0.6-1.2-1-1.1c-0.5,0.1-0.5,1.3-0.5,2c0.1,0.8,0.6,1.2,0.9,1.8
			c0.2,0.9,1,1.2,1.3,0.2C3.7,908.6,3.7,908.3,3.6,908L3.6,908z"/>
		<g>
			<path class="st8" d="M-0.6,902.8c-0.1,0.1,0.1,0.3,0.3,0.3c0.2-0.1,0.2-0.3,0-0.4C-0.4,902.7-0.6,902.6-0.6,902.8L-0.6,902.8z"/>
			<path class="st8" d="M1.3,902.3c-0.2,0,0.2,0.4,0.3,0.4C1.7,902.5,1.4,902.3,1.3,902.3z"/>
			<path class="st8" d="M-3.7,905.1c0,0.2,0.1,0.2,0.1,0C-3.6,905-3.7,905-3.7,905.1z"/>
			<path class="st8" d="M0.3,903c0,0.1-0.2,0-0.1,0.1c0.1,0.1,0.2,0.1,0.3,0C0.5,903.1,0.4,903.1,0.3,903L0.3,903L0.3,903z"/>
			<path class="st8" d="M-1.7,907.3c0.1,0.2,0.3,0.2,0.4,0.1c0.1-0.2-0.2-0.4-0.3-0.2C-1.7,907.3-1.6,907.1-1.7,907.3
				C-1.6,907.3-1.6,907.3-1.7,907.3L-1.7,907.3z"/>
			<path class="st8" d="M0.2,905.8C0,906,0.3,906.3,0.4,906C0.5,905.9,0.3,905.7,0.2,905.8z"/>
			<path class="st9" d="M-4.6,906.4c-0.1,0.2,0,0.3,0.1,0.2c0.2-0.3,0.1-0.5,0-0.3C-4.5,906.3-4.4,906.2-4.6,906.4
				C-4.5,906.3-4.6,906.4-4.6,906.4L-4.6,906.4z"/>
			<path class="st10" d="M-5.2,910.7c0.1,0.2,0.2,0.3,0.2,0.1c-0.1-0.4-0.3-0.6-0.3-0.3c0,0.2,0-0.1,0,0.2
				C-5.2,910.6-5.2,910.7-5.2,910.7L-5.2,910.7z"/>
		</g>
	</g>
</g>
<g id="яйцо" transform="matrix(.68738 0 0 .68738 23.259 304.63)">
	<path class="st2" d="M-4.4-390c-0.1,2.5-2.1,5.1-5,5.1c-2.8,0-5.2-1.6-5.5-4.7c-0.3-3.1,1.9-8.7,5.2-8.8
		C-6.4-398.5-4.3-393.6-4.4-390L-4.4-390z"/>
	<defs>
		
			<filter id="Adobe_OpacityMaskFilter_00000124132636677146590620000013286022375181170860_" filterUnits="userSpaceOnUse" x="-15.1" y="-398" width="9" height="13.1">
			<feColorMatrix  type="matrix" values="1 0 0 0 0  0 1 0 0 0  0 0 1 0 0  0 0 0 1 0"/>
		</filter>
	</defs>
	
		<mask maskUnits="userSpaceOnUse" x="-15.1" y="-398" width="9" height="13.1" id="m_00000044151805116476835080000007608798083972491916_">
		<path style="fill:#00FFFF;filter:url(#Adobe_OpacityMaskFilter_00000124132636677146590620000013286022375181170860_);" d="
			M-1.4-389.4c-0.1,3.6-3.1,7.4-7.2,7.4c-4.1,0-7.6-2.3-8-6.8c-0.4-4.5,2.8-12.6,7.6-12.8C-4.3-401.8-1.2-394.7-1.4-389.4
			L-1.4-389.4z"/>
	</mask>
	<path class="st12" d="M-11.2-398C-11.2-398-11.2-398-11.2-398c-0.1,0-0.1,0.1-0.2,0.1c0,0,0,0,0,0c-0.1,0-0.1,0.1-0.2,0.1
		c0,0,0,0,0,0c-0.1,0-0.1,0.1-0.2,0.2c0,0,0,0,0,0c-0.1,0.1-0.1,0.1-0.2,0.2c0,0,0,0,0,0c-0.1,0.1-0.1,0.1-0.2,0.2
		c0,0-0.1,0.1-0.1,0.1c0,0-0.1,0.1-0.1,0.1c0,0-0.1,0.1-0.1,0.1c0,0-0.1,0.1-0.1,0.1c0,0-0.1,0.1-0.1,0.1c0,0-0.1,0.1-0.1,0.1
		c0,0-0.1,0.1-0.1,0.1c0,0.1-0.1,0.1-0.1,0.2c0,0,0,0.1-0.1,0.1c-0.1,0.1-0.1,0.2-0.2,0.3c0,0,0,0,0,0c0,0,0,0,0,0
		c-0.1,0.1-0.1,0.2-0.2,0.3c0,0,0,0.1-0.1,0.1c0,0.1-0.1,0.1-0.1,0.2c0,0,0,0.1-0.1,0.1c0,0.1-0.1,0.1-0.1,0.2c0,0,0,0.1-0.1,0.1
		c0,0.1-0.1,0.1-0.1,0.2c0,0,0,0.1-0.1,0.1c0,0.1-0.1,0.1-0.1,0.2c0,0,0,0.1,0,0.1c0,0.1-0.1,0.2-0.1,0.3c0,0.1-0.1,0.2-0.1,0.3
		c0,0,0,0.1,0,0.1c0,0.1,0,0.1-0.1,0.2c0,0,0,0.1,0,0.1c0,0.1,0,0.1-0.1,0.2c0,0,0,0.1,0,0.1c0,0.1,0,0.1-0.1,0.2c0,0,0,0.1,0,0.1
		c0,0.1,0,0.1,0,0.2c0,0,0,0.1,0,0.1c0,0.1,0,0.2-0.1,0.3c0,0.1,0,0.2,0,0.3c0,0,0,0.1,0,0.1c0,0.1,0,0.1,0,0.2c0,0,0,0.1,0,0.1
		c0,0.1,0,0.1,0,0.2c0,0,0,0.1,0,0.1c0,0.1,0,0.1,0,0.2c0,0,0,0.1,0,0.1c0,0.1,0,0.1,0,0.2c0,0,0,0.1,0,0.1c0,0.1,0,0.2,0,0.3
		c0.3,3.1,2.6,4.7,5.5,4.7c0.1,0,0.2,0,0.3,0c0,0,0,0,0,0c0.1,0,0.2,0,0.3,0c0.1,0,0.1,0,0.2,0c0,0,0.1,0,0.1,0c0.1,0,0.1,0,0.2,0
		c0,0,0,0,0.1,0c0,0,0,0,0,0c0.1,0,0.1,0,0.2,0c0,0,0,0,0.1,0c0.1,0,0.1,0,0.2,0c0,0,0.1,0,0.1,0c0.1,0,0.1-0.1,0.2-0.1c0,0,0,0,0,0
		c0,0,0,0,0,0c0.1,0,0.1,0,0.2-0.1c0,0,0,0,0.1,0c0.1,0,0.1-0.1,0.2-0.1c0,0,0,0,0,0c0,0,0,0,0,0c0.1,0,0.1-0.1,0.2-0.1c0,0,0,0,0,0
		c0.1,0,0.1-0.1,0.2-0.1c0,0,0,0,0,0c0,0,0,0,0,0c0.1,0,0.1-0.1,0.2-0.1c0.1,0,0.1-0.1,0.2-0.1c0,0,0,0,0,0c0,0,0,0,0,0
		c0.1-0.1,0.1-0.1,0.2-0.2c0.1-0.1,0.1-0.1,0.2-0.2c0,0,0,0,0,0l0,0c0.1-0.1,0.1-0.1,0.2-0.2c0,0,0,0,0,0c-0.6,0.3-1.1,0-1.9,0
		c-2.8,0-4.2-1.6-4.7-3.5C-13.6-393.1-12.9-396.2-11.2-398L-11.2-398z"/>
	<defs>
		
			<filter id="Adobe_OpacityMaskFilter_00000134932567727500456350000011831893361467882881_" filterUnits="userSpaceOnUse" x="-6.5" y="-390.1" width="2.5" height="4.2">
			<feColorMatrix  type="matrix" values="1 0 0 0 0  0 1 0 0 0  0 0 1 0 0  0 0 0 1 0"/>
		</filter>
	</defs>
	
		<mask maskUnits="userSpaceOnUse" x="-6.5" y="-390.1" width="2.5" height="4.2" id="n_00000059304353976390507240000010215849859597066639_">
		<path style="fill:#F5F5F5;filter:url(#Adobe_OpacityMaskFilter_00000134932567727500456350000011831893361467882881_);" d="
			M-1.7-256.1c-0.1,3.6-3.1,7.4-7.2,7.4c-4.1,0-7.6-2.3-8-6.8c-0.4-4.5,2.8-12.6,7.6-12.8C-4.6-268.4-1.5-261.4-1.7-256.1
			L-1.7-256.1z"/>
	</mask>
	<path class="st14" d="M-4.6-389.1c-0.6,1.3-1,1.2-1.7,2.6c-0.2,0.2-0.3,0.5,0,0.6c0.3,0,0.6,0,0.8-0.2c0.1-0.2,0.1,0.1,0.3,0
		c0.4-0.2,0.4-0.6,0.7-0.9c0.2-0.3,0.4-0.6,0.6-0.8c0-0.3-0.4-0.3-0.5-0.6c-0.2-0.2,0.3-1.5,0.3-1.7L-4.6-389.1z M-5.5-386.1
		C-5.6-386-5.5-386-5.5-386.1z M-5.5-386C-5.6-385.9-5.4-386-5.5-386z"/>
	<path class="st7" d="M-6-392.1c-0.1-0.7-0.4-1.3-0.7-1.9c-0.3-0.4-0.5-1.1-0.9-1c-0.5,0.1-0.4,1.2-0.4,1.8c0.1,0.8,0.6,1.1,0.8,1.7
		c0.2,0.8,0.9,1.1,1.2,0.2C-5.9-391.5-5.9-391.8-6-392.1L-6-392.1z"/>
	<g>
		<path class="st8" d="M-9.9-397c-0.1,0.1,0.1,0.3,0.3,0.3c0.2-0.1,0.2-0.3,0-0.3C-9.7-397.2-9.9-397.2-9.9-397L-9.9-397z"/>
		<path class="st8" d="M-8.2-397.5c-0.2,0,0.2,0.4,0.3,0.3C-7.8-397.3-8-397.5-8.2-397.5z"/>
		<path class="st8" d="M-12.9-394.8c0,0.1,0.1,0.2,0.1,0C-12.8-395-12.9-394.9-12.9-394.8z"/>
		<path class="st8" d="M-9.1-396.8c0,0.1-0.2,0-0.1,0.1c0.1,0.1,0.2,0.1,0.3,0C-8.9-396.8-9-396.8-9.1-396.8L-9.1-396.8L-9.1-396.8z
			"/>
		<path class="st8" d="M-10.9-392.8c0.1,0.1,0.3,0.2,0.4,0.1c0.1-0.2-0.2-0.4-0.3-0.2C-10.9-392.8-10.8-393-10.9-392.8
			C-10.9-392.8-10.9-392.8-10.9-392.8L-10.9-392.8z"/>
		<path class="st8" d="M-9.2-394.2c-0.2,0.1,0.1,0.4,0.2,0.2C-8.9-394.1-9.1-394.3-9.2-394.2z"/>
		<path class="st9" d="M-13.7-393.7c-0.1,0.2,0,0.3,0.1,0.2c0.2-0.2,0.1-0.4,0-0.3C-13.6-393.7-13.5-393.9-13.7-393.7
			C-13.6-393.7-13.6-393.7-13.7-393.7L-13.7-393.7z"/>
		<path class="st10" d="M-14.3-389.6c0.1,0.2,0.2,0.3,0.2,0c-0.1-0.4-0.3-0.5-0.2-0.3c0,0.2,0-0.1,0,0.1
			C-14.3-389.7-14.3-389.6-14.3-389.6L-14.3-389.6z"/>
	</g>
</g>
<linearGradient id="перед_00000108296017538345797640000002156312374652881343_" gradientUnits="userSpaceOnUse" x1="-638.8385" y1="397.3638" x2="-639.1112" y2="398.1092" gradientTransform="matrix(35.4418 0 0 -33.3287 22670.248 13282.1289)">
	<stop  offset="0" style="stop-color:#552200"/>
	<stop  offset="1" style="stop-color:#B6632C"/>
</linearGradient>
<path id="перед" style="fill-rule:evenodd;clip-rule:evenodd;fill:url(#перед_00000108296017538345797640000002156312374652881343_);" d="
	M29.1,9.8C27.1,9.4,26,10,24,10c-11.9,4-11.2,14.5-12.2,23.7c-2.8-1.4-4.3-3.3-4.3-4.8c0,5.5,6.2,14.3,17.9,14.2
	c12.6-0.1,17.7-8.9,17.5-14c0,3.3-4.9,7.1-17.5,7.2c-4.2,0-7.7-0.5-10.5-1.3c0.6-10.6,1.2-21.6,15-24.9C29.7,9.9,29.4,9.8,29.1,9.8
	L29.1,9.8z"/>
<g id="бант">
	
		<radialGradient id="SVGID_1_" cx="-288.4763" cy="423.7479" r="7.5" gradientTransform="matrix(1.8241 1.0595 0.4018 -0.6918 370.2662 607.835)" gradientUnits="userSpaceOnUse">
		<stop  offset="0" style="stop-color:#FFD73B"/>
		<stop  offset="1" style="stop-color:#EE8400"/>
	</radialGradient>
	<path class="st16" d="M23.7,7.9C19,10,14.1,4.2,10,6c-1.8,3.7-0.7,7.8,2,12c5.9,2.8,6-5,13-6L23.7,7.9L23.7,7.9z"/>
	
		<radialGradient id="SVGID_00000164486916413868638610000013267253189462182058_" cx="-455.8018" cy="793.3603" r="7.5" gradientTransform="matrix(3.7 0.6104 -0.1024 0.6205 1798.6843 -207.0245)" gradientUnits="userSpaceOnUse">
		<stop  offset="0" style="stop-color:#FFD73B"/>
		<stop  offset="1" style="stop-color:#EE8400"/>
	</radialGradient>
	<path style="fill:url(#SVGID_00000164486916413868638610000013267253189462182058_);" d="M27,8c6-2,6-4.6,9.7-5
		c4.1,3,1.6,6.7,1.6,9.4C35,14,33,10,27.1,11.4L27,8L27,8z"/>
	
		<radialGradient id="SVGID_00000104675941152497666420000001625067704272541108_" cx="26" cy="-81.3337" r="4" gradientTransform="matrix(1 0 0 -0.75 0 -49)" gradientUnits="userSpaceOnUse">
		<stop  offset="0" style="stop-color:#FFD73B"/>
		<stop  offset="1" style="stop-color:#EE8400"/>
	</radialGradient>
	<path style="fill-rule:evenodd;clip-rule:evenodd;fill:url(#SVGID_00000104675941152497666420000001625067704272541108_);" d="
		M30,10c0,1.7-1.8,3-4,3s-4-1.3-4-3s1.8-3,4-3S30,8.3,30,10z"/>
</g>
</svg>
