<?xml version="1.0" encoding="utf-8"?>
<!-- Generator: Adobe Illustrator 28.0.0, SVG Export Plug-In . SVG Version: 6.00 Build 0)  -->
<svg version="1.1" id="Слой_1" xmlns="http://www.w3.org/2000/svg" xmlns:xlink="http://www.w3.org/1999/xlink" x="0px" y="0px"
	 viewBox="0 0 48 48" style="enable-background:new 0 0 48 48;" xml:space="preserve">
<style type="text/css">
	.st0{fill:url(#зад_ручки_00000118385996212066409760000015995392477729221290_);}
	
		.st1{fill-rule:evenodd;clip-rule:evenodd;fill:url(#пространство_00000109738704360124323320000017754267292969930687_);}
	.st2{fill:#FFECCD;}
	.st3{fill:#00FFFF;filter:url(#Adobe_OpacityMaskFilter);}
	.st4{opacity:0.616;mask:url(#m_00000146481167811381149200000004925052236164191124_);fill:#6C5D53;enable-background:new    ;}
	.st5{fill:#F5F5F5;filter:url(#Adobe_OpacityMaskFilter_00000140716442132441964520000011843741788222496156_);}
	.st6{mask:url(#n_00000135682533370178411150000004742587051868235421_);fill-rule:evenodd;clip-rule:evenodd;fill:#FDF9EC;}
	.st7{fill-rule:evenodd;clip-rule:evenodd;fill:#FFFFFF;}
	.st8{fill-rule:evenodd;clip-rule:evenodd;fill:#F7CBB4;}
	.st9{fill-rule:evenodd;clip-rule:evenodd;fill:#CFB2A3;}
	.st10{fill-rule:evenodd;clip-rule:evenodd;fill:#BF9985;}
	.st11{fill:#00FFFF;filter:url(#Adobe_OpacityMaskFilter_00000128459548405078656690000001531508723938442661_);}
	.st12{opacity:0.616;mask:url(#m_00000018236918165816955970000010827595299756216212_);fill:#6C5D53;enable-background:new    ;}
	.st13{fill:#F5F5F5;filter:url(#Adobe_OpacityMaskFilter_00000073722524037335662320000002311974777143727003_);}
	.st14{mask:url(#n_00000007412086494991141940000012755234456501976464_);fill-rule:evenodd;clip-rule:evenodd;fill:#FDF9EC;}
	.st15{fill:#00FFFF;filter:url(#Adobe_OpacityMaskFilter_00000125563557345923609120000007908557922443633550_);}
	.st16{opacity:0.616;mask:url(#m_00000062183972098622753110000013866219346942469529_);fill:#6C5D53;enable-background:new    ;}
	.st17{fill:#F5F5F5;filter:url(#Adobe_OpacityMaskFilter_00000142869246658081757800000007545311624352413583_);}
	.st18{mask:url(#n_00000111884726475551608300000010964335911977915054_);fill-rule:evenodd;clip-rule:evenodd;fill:#FDF9EC;}
	.st19{fill:#00FFFF;filter:url(#Adobe_OpacityMaskFilter_00000101789785815593870500000001268834188200756134_);}
	.st20{opacity:0.616;mask:url(#m_00000079484189929751561630000013593923993471174031_);fill:#6C5D53;enable-background:new    ;}
	.st21{fill:#F5F5F5;filter:url(#Adobe_OpacityMaskFilter_00000076592592797825907570000006274785532118102664_);}
	.st22{mask:url(#n_00000028321708256568965630000014278281369682876083_);fill-rule:evenodd;clip-rule:evenodd;fill:#FDF9EC;}
	.st23{fill:#00FFFF;filter:url(#Adobe_OpacityMaskFilter_00000183248223113873179920000004391750094246285707_);}
	.st24{opacity:0.616;mask:url(#m_00000149377654056074676940000012172884149631087270_);fill:#6C5D53;enable-background:new    ;}
	.st25{fill:#F5F5F5;filter:url(#Adobe_OpacityMaskFilter_00000031898762654650425350000005011098621666861184_);}
	.st26{mask:url(#n_00000083791596633550433550000005360116309938248331_);fill-rule:evenodd;clip-rule:evenodd;fill:#FDF9EC;}
	.st27{fill:#00FFFF;filter:url(#Adobe_OpacityMaskFilter_00000026864881974759844580000004997406160968928426_);}
	.st28{opacity:0.616;mask:url(#m_00000044151805116476835080000007608798083972491916_);fill:#6C5D53;enable-background:new    ;}
	.st29{fill:#F5F5F5;filter:url(#Adobe_OpacityMaskFilter_00000075841623571510840680000007878490504947485365_);}
	.st30{mask:url(#n_00000059304353976390507240000010215849859597066639_);fill-rule:evenodd;clip-rule:evenodd;fill:#FDF9EC;}
	.st31{fill-rule:evenodd;clip-rule:evenodd;fill:url(#перед_00000174579575598089103010000005729941630280803237_);}
	.st32{fill:url(#SVGID_1_);}
	.st33{fill:url(#SVGID_00000091711999628555314230000003264942851493733531_);}
	.st34{fill-rule:evenodd;clip-rule:evenodd;fill:url(#SVGID_00000132059431646749829070000001393621237826196119_);}
</style>
<linearGradient id="зад_ручки_00000150087225968744842050000013833875823768703387_" gradientUnits="userSpaceOnUse" x1="-598.2948" y1="385.8022" x2="-597.2039" y2="385.5719" gradientTransform="matrix(11 0 0 -15.7293 6606 6084.1094)">
	<stop  offset="0" style="stop-color:#552200"/>
	<stop  offset="1" style="stop-color:#B6632C"/>
</linearGradient>
<path id="зад_ручки" style="fill:url(#зад_ручки_00000150087225968744842050000013833875823768703387_);" d="
	M29.6,9.8c5.8,4.7,5.7,10.4,7.4,15.7h-4c-0.3-5.7-2.1-11-7-15.7L29.6,9.8L29.6,9.8z"/>
<linearGradient id="пространство_00000019670519572524708970000001485118758410195102_" gradientUnits="userSpaceOnUse" x1="-639.3986" y1="378.367" x2="-638.3831" y2="377.9446" gradientTransform="matrix(35.452 0 0 -11.8358 22676.9668 4506.2798)">
	<stop  offset="0" style="stop-color:#552200"/>
	<stop  offset="1" style="stop-color:#B6632C"/>
</linearGradient>
<path id="пространство" style="fill-rule:evenodd;clip-rule:evenodd;fill:url(#пространство_00000019670519572524708970000001485118758410195102_);" d="
	M43,29c0,3.3-4.9,7.1-17.5,7.3c-11.7,0.1-17.9-4.2-17.9-7.4s10.2-4.4,17.9-4.4C32.2,24.4,43,25.7,43,29z"/>
<g transform="translate(0 -892.36)">
	<g transform="matrix(.68738 0 0 .68738 23.259 304.63)">
		<path class="st2" d="M7.6,907.4c-0.1,2.7-2.3,5.4-5.3,5.4c-3,0-5.5-1.7-5.8-5c-0.3-3.3,2-9.2,5.5-9.4
			C5.5,898.3,7.7,903.5,7.6,907.4L7.6,907.4z"/>
		<defs>
			<filter id="Adobe_OpacityMaskFilter" filterUnits="userSpaceOnUse" x="-3.8" y="898.8" width="9.6" height="14">
				<feColorMatrix  type="matrix" values="1 0 0 0 0  0 1 0 0 0  0 0 1 0 0  0 0 0 1 0"/>
			</filter>
		</defs>
		
			<mask maskUnits="userSpaceOnUse" x="-3.8" y="898.8" width="9.6" height="14" id="m_00000146481167811381149200000004925052236164191124_">
			<path class="st3" d="M10.7,908c-0.1,3.9-3.3,7.8-7.7,7.8c-4.4,0-8.1-2.4-8.5-7.2c-0.4-4.8,3-13.4,8.1-13.6
				C7.7,894.8,11,902.3,10.7,908L10.7,908z"/>
		</mask>
		<path class="st4" d="M0.4,898.8C0.4,898.8,0.4,898.8,0.4,898.8c-0.1,0-0.2,0.1-0.2,0.1c0,0,0,0,0,0C0,899,0,899-0.1,899.1
			c0,0,0,0,0,0c-0.1,0.1-0.1,0.1-0.2,0.2c0,0,0,0,0,0c-0.1,0.1-0.1,0.1-0.2,0.2c0,0,0,0-0.1,0c-0.1,0.1-0.1,0.1-0.2,0.2
			c0,0-0.1,0.1-0.1,0.1c0,0.1-0.1,0.1-0.1,0.2c0,0-0.1,0.1-0.1,0.1c0,0-0.1,0.1-0.1,0.2c0,0-0.1,0.1-0.1,0.1c0,0.1-0.1,0.1-0.1,0.2
			c0,0-0.1,0.1-0.1,0.1c0,0.1-0.1,0.1-0.1,0.2c0,0-0.1,0.1-0.1,0.1c-0.1,0.1-0.1,0.2-0.2,0.3c0,0,0,0,0,0c0,0,0,0,0,0
			c-0.1,0.1-0.1,0.2-0.2,0.3c0,0,0,0.1-0.1,0.1c0,0.1-0.1,0.1-0.1,0.2c0,0,0,0.1-0.1,0.1c0,0.1-0.1,0.1-0.1,0.2c0,0,0,0.1-0.1,0.1
			c0,0.1-0.1,0.1-0.1,0.2c0,0,0,0.1-0.1,0.1c0,0.1-0.1,0.1-0.1,0.2c0,0,0,0.1-0.1,0.1c0,0.1-0.1,0.2-0.1,0.4c0,0.1-0.1,0.2-0.1,0.4
			c0,0,0,0.1,0,0.1c0,0.1,0,0.2-0.1,0.2c0,0.1,0,0.1,0,0.2c0,0.1,0,0.1-0.1,0.2c0,0,0,0.1,0,0.1c0,0.1,0,0.1-0.1,0.2
			c0,0,0,0.1,0,0.1c0,0.1,0,0.1,0,0.2c0,0,0,0.1,0,0.1c0,0.1,0,0.2-0.1,0.3c0,0.1,0,0.2,0,0.3c0,0,0,0.1,0,0.1c0,0.1,0,0.2,0,0.2
			c0,0,0,0.1,0,0.1c0,0.1,0,0.1,0,0.2c0,0,0,0.1,0,0.1c0,0.1,0,0.1,0,0.2c0,0,0,0.1,0,0.1c0,0.1,0,0.1,0,0.2c0,0,0,0.1,0,0.1
			c0,0.1,0,0.2,0,0.3c0.3,3.3,2.8,5,5.8,5c0.1,0,0.2,0,0.3,0c0,0,0,0,0,0c0.1,0,0.2,0,0.3,0c0.1,0,0.1,0,0.2,0c0,0,0.1,0,0.1,0
			c0.1,0,0.1,0,0.2,0c0,0,0.1,0,0.1,0c0,0,0,0,0,0c0.1,0,0.1,0,0.2,0c0,0,0,0,0.1,0c0.1,0,0.1,0,0.2-0.1c0,0,0.1,0,0.1,0
			c0.1,0,0.1-0.1,0.2-0.1c0,0,0,0,0,0c0,0,0,0,0,0c0.1,0,0.1,0,0.2-0.1c0,0,0,0,0.1,0c0.1,0,0.1-0.1,0.2-0.1c0,0,0,0,0,0
			c0,0,0,0,0,0c0.1,0,0.1-0.1,0.2-0.1c0,0,0,0,0,0c0.1,0,0.1-0.1,0.2-0.1c0,0,0,0,0,0c0,0,0,0,0,0c0.1,0,0.1-0.1,0.2-0.1
			c0.1,0,0.1-0.1,0.2-0.2c0,0,0,0,0,0c0,0,0,0,0,0c0.1-0.1,0.1-0.1,0.2-0.2c0.1-0.1,0.1-0.1,0.2-0.2c0,0,0,0,0,0l0,0
			c0.1-0.1,0.1-0.1,0.2-0.2c0,0,0,0,0,0c-0.7,0.4-1.2,0-2.1,0c-3,0-4.5-1.7-5-3.7C-2.2,904-1.5,900.8,0.4,898.8L0.4,898.8z"/>
		<defs>
			
				<filter id="Adobe_OpacityMaskFilter_00000008117299201037110980000002805536646703425946_" filterUnits="userSpaceOnUse" x="5.3" y="907.2" width="2.7" height="4.5">
				<feColorMatrix  type="matrix" values="1 0 0 0 0  0 1 0 0 0  0 0 1 0 0  0 0 0 1 0"/>
			</filter>
		</defs>
		
			<mask maskUnits="userSpaceOnUse" x="5.3" y="907.2" width="2.7" height="4.5" id="n_00000135682533370178411150000004742587051868235421_">
			<path style="fill:#F5F5F5;filter:url(#Adobe_OpacityMaskFilter_00000008117299201037110980000002805536646703425946_);" d="
				M10.4,1050c-0.1,3.9-3.3,7.8-7.7,7.8c-4.4,0-8.1-2.4-8.5-7.2c-0.4-4.8,3-13.4,8.1-13.6S10.6,1044.4,10.4,1050L10.4,1050z"/>
		</mask>
		<path class="st6" d="M7.3,908.4c-0.7,1.4-1,1.3-1.8,2.8c-0.2,0.2-0.3,0.5,0,0.6c0.3,0,0.6,0,0.8-0.2c0.1-0.2,0.1,0.1,0.3,0
			c0.4-0.2,0.5-0.6,0.7-0.9c0.2-0.3,0.4-0.6,0.7-0.9c0-0.3-0.4-0.4-0.5-0.6c-0.2-0.3,0.4-1.5,0.3-1.8L7.3,908.4z M6.4,911.6
			C6.3,911.6,6.4,911.6,6.4,911.6z M6.4,911.6C6.4,911.7,6.5,911.7,6.4,911.6z"/>
		<path class="st7" d="M5.9,905.1c-0.1-0.7-0.4-1.4-0.7-2c-0.3-0.4-0.6-1.2-1-1.1c-0.5,0.1-0.5,1.3-0.5,2c0.1,0.8,0.6,1.2,0.9,1.8
			c0.2,0.9,1,1.2,1.3,0.2C6,905.7,6,905.4,5.9,905.1L5.9,905.1z"/>
		<g>
			<path class="st8" d="M1.7,899.9c-0.1,0.1,0.1,0.3,0.3,0.3c0.2-0.1,0.2-0.3,0-0.4C1.9,899.7,1.7,899.7,1.7,899.9L1.7,899.9z"/>
			<path class="st8" d="M3.6,899.3c-0.2,0,0.2,0.4,0.3,0.4C4,899.6,3.7,899.3,3.6,899.3z"/>
			<path class="st8" d="M-1.4,902.2c0,0.2,0.1,0.2,0.1,0C-1.3,902.1-1.4,902.1-1.4,902.2z"/>
			<path class="st8" d="M2.6,900.1c0,0.1-0.2,0-0.1,0.1c0.1,0.1,0.2,0.1,0.3,0C2.8,900.1,2.7,900.1,2.6,900.1L2.6,900.1L2.6,900.1z"
				/>
			<path class="st8" d="M0.6,904.4c0.1,0.2,0.3,0.2,0.4,0.1c0.1-0.2-0.2-0.4-0.3-0.2C0.6,904.4,0.7,904.2,0.6,904.4
				C0.7,904.4,0.7,904.4,0.6,904.4L0.6,904.4z"/>
			<path class="st8" d="M2.5,902.9c-0.2,0.2,0.2,0.4,0.2,0.2C2.8,903,2.6,902.8,2.5,902.9z"/>
			<path class="st9" d="M-2.3,903.5c-0.1,0.2,0,0.3,0.1,0.2c0.2-0.3,0.1-0.5,0-0.3C-2.2,903.4-2.1,903.2-2.3,903.5
				C-2.2,903.4-2.3,903.4-2.3,903.5L-2.3,903.5z"/>
			<path class="st10" d="M-2.9,907.8c0.1,0.2,0.2,0.3,0.2,0.1c-0.1-0.4-0.3-0.6-0.3-0.3c0,0.2,0-0.1,0,0.2
				C-2.9,907.7-2.9,907.8-2.9,907.8L-2.9,907.8z"/>
		</g>
	</g>
</g>
<g transform="translate(0 -892.36)">
	<g transform="matrix(.68738 0 0 .68738 23.259 304.63)">
		<path class="st2" d="M18.5,909.4c-0.1,2.7-2.3,5.4-5.3,5.4c-3,0-5.5-1.7-5.8-5c-0.3-3.3,2-9.2,5.5-9.4
			C16.4,900.3,18.6,905.5,18.5,909.4L18.5,909.4z"/>
		<defs>
			
				<filter id="Adobe_OpacityMaskFilter_00000083782579335314840280000013655172106044089220_" filterUnits="userSpaceOnUse" x="7.1" y="900.8" width="9.6" height="14">
				<feColorMatrix  type="matrix" values="1 0 0 0 0  0 1 0 0 0  0 0 1 0 0  0 0 0 1 0"/>
			</filter>
		</defs>
		
			<mask maskUnits="userSpaceOnUse" x="7.1" y="900.8" width="9.6" height="14" id="m_00000018236918165816955970000010827595299756216212_">
			<path style="fill:#00FFFF;filter:url(#Adobe_OpacityMaskFilter_00000083782579335314840280000013655172106044089220_);" d="
				M21.6,910c-0.1,3.9-3.3,7.8-7.7,7.8c-4.4,0-8.1-2.4-8.5-7.2c-0.4-4.8,3-13.4,8.1-13.6C18.6,896.8,21.9,904.4,21.6,910L21.6,910z"
				/>
		</mask>
		<path class="st12" d="M11.3,900.8C11.3,900.8,11.3,900.8,11.3,900.8c-0.1,0-0.2,0.1-0.2,0.1c0,0,0,0,0,0c-0.1,0-0.1,0.1-0.2,0.1
			c0,0,0,0,0,0c-0.1,0.1-0.1,0.1-0.2,0.2c0,0,0,0,0,0c-0.1,0.1-0.1,0.1-0.2,0.2c0,0,0,0-0.1,0c-0.1,0.1-0.1,0.1-0.2,0.2
			c0,0-0.1,0.1-0.1,0.1c0,0.1-0.1,0.1-0.1,0.2c0,0-0.1,0.1-0.1,0.1c0,0-0.1,0.1-0.1,0.2c0,0-0.1,0.1-0.1,0.1c0,0.1-0.1,0.1-0.1,0.2
			c0,0-0.1,0.1-0.1,0.1c0,0.1-0.1,0.1-0.1,0.2c0,0-0.1,0.1-0.1,0.1c-0.1,0.1-0.1,0.2-0.2,0.3c0,0,0,0,0,0c0,0,0,0,0,0
			c-0.1,0.1-0.1,0.2-0.2,0.3c0,0,0,0.1-0.1,0.1c0,0.1-0.1,0.1-0.1,0.2c0,0,0,0.1-0.1,0.1c0,0.1-0.1,0.1-0.1,0.2c0,0,0,0.1-0.1,0.1
			c0,0.1-0.1,0.1-0.1,0.2c0,0,0,0.1-0.1,0.1c0,0.1-0.1,0.1-0.1,0.2c0,0,0,0.1-0.1,0.1c0,0.1-0.1,0.2-0.1,0.4c0,0.1-0.1,0.2-0.1,0.4
			c0,0,0,0.1,0,0.1c0,0.1,0,0.2-0.1,0.2c0,0.1,0,0.1,0,0.2c0,0.1,0,0.1-0.1,0.2c0,0,0,0.1,0,0.1c0,0.1,0,0.1-0.1,0.2
			c0,0,0,0.1,0,0.1c0,0.1,0,0.1,0,0.2c0,0,0,0.1,0,0.1c0,0.1,0,0.2-0.1,0.3c0,0.1,0,0.2,0,0.3c0,0,0,0.1,0,0.1c0,0.1,0,0.2,0,0.2
			c0,0,0,0.1,0,0.1c0,0.1,0,0.1,0,0.2c0,0,0,0.1,0,0.1c0,0.1,0,0.1,0,0.2c0,0,0,0.1,0,0.1c0,0.1,0,0.1,0,0.2c0,0,0,0.1,0,0.1
			c0,0.1,0,0.2,0,0.3c0.3,3.3,2.8,5,5.8,5c0.1,0,0.2,0,0.3,0c0,0,0,0,0,0c0.1,0,0.2,0,0.3,0c0.1,0,0.1,0,0.2,0c0,0,0.1,0,0.1,0
			c0.1,0,0.1,0,0.2,0c0,0,0.1,0,0.1,0c0,0,0,0,0,0c0.1,0,0.1,0,0.2,0c0,0,0,0,0.1,0c0.1,0,0.1,0,0.2-0.1c0,0,0.1,0,0.1,0
			c0.1,0,0.1-0.1,0.2-0.1c0,0,0,0,0,0c0,0,0,0,0,0c0.1,0,0.1,0,0.2-0.1c0,0,0,0,0.1,0c0.1,0,0.1-0.1,0.2-0.1c0,0,0,0,0,0
			c0,0,0,0,0,0c0.1,0,0.1-0.1,0.2-0.1c0,0,0,0,0,0c0.1,0,0.1-0.1,0.2-0.1c0,0,0,0,0,0c0,0,0,0,0,0c0.1,0,0.1-0.1,0.2-0.1
			c0.1,0,0.1-0.1,0.2-0.2c0,0,0,0,0,0c0,0,0,0,0,0c0.1-0.1,0.1-0.1,0.2-0.2c0.1-0.1,0.1-0.1,0.2-0.2c0,0,0,0,0,0l0,0
			c0.1-0.1,0.1-0.1,0.2-0.2c0,0,0,0,0,0c-0.7,0.4-1.2,0-2.1,0c-3,0-4.5-1.7-5-3.7C8.7,906.1,9.4,902.8,11.3,900.8L11.3,900.8z"/>
		<defs>
			
				<filter id="Adobe_OpacityMaskFilter_00000052098871243954551510000000245810517530719900_" filterUnits="userSpaceOnUse" x="16.2" y="909.3" width="2.7" height="4.5">
				<feColorMatrix  type="matrix" values="1 0 0 0 0  0 1 0 0 0  0 0 1 0 0  0 0 0 1 0"/>
			</filter>
		</defs>
		
			<mask maskUnits="userSpaceOnUse" x="16.2" y="909.3" width="2.7" height="4.5" id="n_00000007412086494991141940000012755234456501976464_">
			<path style="fill:#F5F5F5;filter:url(#Adobe_OpacityMaskFilter_00000052098871243954551510000000245810517530719900_);" d="
				M21.3,1052c-0.1,3.9-3.3,7.8-7.7,7.8c-4.4,0-8.1-2.4-8.5-7.2c-0.4-4.8,3-13.4,8.1-13.6S21.5,1046.4,21.3,1052L21.3,1052z"/>
		</mask>
		<path class="st14" d="M18.2,910.4c-0.7,1.4-1,1.3-1.8,2.8c-0.2,0.2-0.3,0.5,0,0.6c0.3,0,0.6,0,0.8-0.2c0.1-0.2,0.1,0.1,0.3,0
			c0.4-0.2,0.5-0.6,0.7-0.9c0.2-0.3,0.4-0.6,0.7-0.9c0-0.3-0.4-0.4-0.5-0.6c-0.2-0.3,0.4-1.5,0.3-1.8L18.2,910.4z M17.3,913.6
			C17.2,913.6,17.3,913.6,17.3,913.6z M17.3,913.6C17.3,913.7,17.4,913.7,17.3,913.6z"/>
		<path class="st7" d="M16.8,907.1c-0.1-0.7-0.4-1.4-0.7-2c-0.3-0.4-0.6-1.2-1-1.1c-0.5,0.1-0.5,1.3-0.5,2c0.1,0.8,0.6,1.2,0.9,1.8
			c0.2,0.9,1,1.2,1.3,0.2C16.9,907.7,16.9,907.4,16.8,907.1L16.8,907.1z"/>
		<g>
			<path class="st8" d="M12.6,901.9c-0.1,0.1,0.1,0.3,0.3,0.3c0.2-0.1,0.2-0.3,0-0.4C12.8,901.7,12.6,901.7,12.6,901.9L12.6,901.9z"
				/>
			<path class="st8" d="M14.5,901.3c-0.2,0,0.2,0.4,0.3,0.4C14.9,901.6,14.6,901.3,14.5,901.3z"/>
			<path class="st8" d="M9.5,904.2c0,0.2,0.1,0.2,0.1,0C9.6,904.1,9.5,904.1,9.5,904.2z"/>
			<path class="st8" d="M13.5,902.1c0,0.1-0.2,0-0.1,0.1c0.1,0.1,0.2,0.1,0.3,0C13.7,902.1,13.6,902.1,13.5,902.1L13.5,902.1
				L13.5,902.1z"/>
			<path class="st8" d="M11.5,906.4c0.1,0.2,0.3,0.2,0.4,0.1c0.1-0.2-0.2-0.4-0.3-0.2C11.5,906.4,11.6,906.2,11.5,906.4
				C11.6,906.4,11.6,906.4,11.5,906.4L11.5,906.4z"/>
			<path class="st8" d="M13.4,904.9c-0.2,0.2,0.2,0.4,0.2,0.2C13.7,905,13.5,904.8,13.4,904.9z"/>
			<path class="st9" d="M8.6,905.5c-0.1,0.2,0,0.3,0.1,0.2c0.2-0.3,0.1-0.5,0-0.3C8.7,905.4,8.8,905.2,8.6,905.5
				C8.7,905.4,8.6,905.5,8.6,905.5L8.6,905.5z"/>
			<path class="st10" d="M8,909.8c0.1,0.2,0.2,0.3,0.2,0.1c-0.1-0.4-0.3-0.6-0.3-0.3c0,0.2,0-0.1,0,0.2C8,909.7,8,909.8,8,909.8
				L8,909.8z"/>
		</g>
	</g>
</g>
<g transform="translate(0 -892.36)">
	<g transform="matrix(.68738 0 0 .68738 23.259 304.63)">
		<path class="st2" d="M1.1,908.9c-0.1,2.7-2.3,5.4-5.3,5.4c-3,0-5.5-1.7-5.8-5c-0.3-3.3,2-9.2,5.5-9.4C-1,899.8,1.3,905,1.1,908.9
			L1.1,908.9z"/>
		<defs>
			
				<filter id="Adobe_OpacityMaskFilter_00000117646106412252126900000013602207230105500053_" filterUnits="userSpaceOnUse" x="-10.2" y="900.3" width="9.6" height="14">
				<feColorMatrix  type="matrix" values="1 0 0 0 0  0 1 0 0 0  0 0 1 0 0  0 0 0 1 0"/>
			</filter>
		</defs>
		
			<mask maskUnits="userSpaceOnUse" x="-10.2" y="900.3" width="9.6" height="14" id="m_00000062183972098622753110000013866219346942469529_">
			<path style="fill:#00FFFF;filter:url(#Adobe_OpacityMaskFilter_00000117646106412252126900000013602207230105500053_);" d="
				M4.3,909.6c-0.1,3.9-3.3,7.8-7.7,7.8c-4.4,0-8.1-2.4-8.5-7.2c-0.4-4.8,3-13.4,8.1-13.6C1.2,896.4,4.5,903.9,4.3,909.6L4.3,909.6z
				"/>
		</mask>
		<path class="st16" d="M-6.1,900.3C-6.1,900.3-6.1,900.3-6.1,900.3c-0.1,0-0.2,0.1-0.2,0.1c0,0,0,0,0,0c-0.1,0-0.1,0.1-0.2,0.1
			c0,0,0,0,0,0c-0.1,0.1-0.1,0.1-0.2,0.2c0,0,0,0,0,0c-0.1,0.1-0.1,0.1-0.2,0.2c0,0,0,0-0.1,0c-0.1,0.1-0.1,0.1-0.2,0.2
			c0,0-0.1,0.1-0.1,0.1c0,0.1-0.1,0.1-0.1,0.2c0,0-0.1,0.1-0.1,0.1c0,0-0.1,0.1-0.1,0.2c0,0-0.1,0.1-0.1,0.1c0,0.1-0.1,0.1-0.1,0.2
			c0,0-0.1,0.1-0.1,0.1c0,0.1-0.1,0.1-0.1,0.2c0,0-0.1,0.1-0.1,0.1c-0.1,0.1-0.1,0.2-0.2,0.3c0,0,0,0,0,0c0,0,0,0,0,0
			c-0.1,0.1-0.1,0.2-0.2,0.3c0,0,0,0.1-0.1,0.1c0,0.1-0.1,0.1-0.1,0.2c0,0,0,0.1-0.1,0.1c0,0.1-0.1,0.1-0.1,0.2c0,0,0,0.1-0.1,0.1
			c0,0.1-0.1,0.1-0.1,0.2c0,0,0,0.1-0.1,0.1c0,0.1-0.1,0.1-0.1,0.2c0,0,0,0.1-0.1,0.1c0,0.1-0.1,0.2-0.1,0.4c0,0.1-0.1,0.2-0.1,0.4
			c0,0,0,0.1,0,0.1c0,0.1,0,0.2-0.1,0.2c0,0.1,0,0.1,0,0.2c0,0.1,0,0.1-0.1,0.2c0,0,0,0.1,0,0.1c0,0.1,0,0.1-0.1,0.2
			c0,0,0,0.1,0,0.1c0,0.1,0,0.1,0,0.2c0,0,0,0.1,0,0.1c0,0.1,0,0.2-0.1,0.3c0,0.1,0,0.2,0,0.3c0,0,0,0.1,0,0.1c0,0.1,0,0.2,0,0.2
			c0,0,0,0.1,0,0.1c0,0.1,0,0.1,0,0.2c0,0,0,0.1,0,0.1c0,0.1,0,0.1,0,0.2c0,0,0,0.1,0,0.1c0,0.1,0,0.1,0,0.2c0,0,0,0.1,0,0.1
			c0,0.1,0,0.2,0,0.3c0.3,3.3,2.8,5,5.8,5c0.1,0,0.2,0,0.3,0c0,0,0,0,0,0c0.1,0,0.2,0,0.3,0c0.1,0,0.1,0,0.2,0c0,0,0.1,0,0.1,0
			c0.1,0,0.1,0,0.2,0c0,0,0.1,0,0.1,0c0,0,0,0,0,0c0.1,0,0.1,0,0.2,0c0,0,0,0,0.1,0c0.1,0,0.1,0,0.2-0.1c0,0,0.1,0,0.1,0
			c0.1,0,0.1-0.1,0.2-0.1c0,0,0,0,0,0c0,0,0,0,0,0c0.1,0,0.1,0,0.2-0.1c0,0,0,0,0.1,0c0.1,0,0.1-0.1,0.2-0.1c0,0,0,0,0,0
			c0,0,0,0,0,0c0.1,0,0.1-0.1,0.2-0.1c0,0,0,0,0,0c0.1,0,0.1-0.1,0.2-0.1c0,0,0,0,0,0c0,0,0,0,0,0c0.1,0,0.1-0.1,0.2-0.1
			c0.1,0,0.1-0.1,0.2-0.2c0,0,0,0,0,0c0,0,0,0,0,0c0.1-0.1,0.1-0.1,0.2-0.2c0.1-0.1,0.1-0.1,0.2-0.2c0,0,0,0,0,0l0,0
			c0.1-0.1,0.1-0.1,0.2-0.2c0,0,0,0,0,0c-0.7,0.4-1.2,0-2.1,0c-3,0-4.5-1.7-5-3.7C-8.7,905.6-8,902.3-6.1,900.3L-6.1,900.3z"/>
		<defs>
			
				<filter id="Adobe_OpacityMaskFilter_00000101065275718372268730000003953985732364366996_" filterUnits="userSpaceOnUse" x="-1.1" y="908.8" width="2.7" height="4.5">
				<feColorMatrix  type="matrix" values="1 0 0 0 0  0 1 0 0 0  0 0 1 0 0  0 0 0 1 0"/>
			</filter>
		</defs>
		
			<mask maskUnits="userSpaceOnUse" x="-1.1" y="908.8" width="2.7" height="4.5" id="n_00000111884726475551608300000010964335911977915054_">
			<path style="fill:#F5F5F5;filter:url(#Adobe_OpacityMaskFilter_00000101065275718372268730000003953985732364366996_);" d="
				M4,1051.6c-0.1,3.9-3.3,7.8-7.7,7.8c-4.4,0-8.1-2.4-8.5-7.2c-0.4-4.8,3-13.4,8.1-13.6C0.9,1038.4,4.2,1045.9,4,1051.6L4,1051.6z"
				/>
		</mask>
		<path class="st18" d="M0.9,909.9c-0.7,1.4-1,1.3-1.8,2.8c-0.2,0.2-0.3,0.5,0,0.6c0.3,0,0.6,0,0.8-0.2c0.1-0.2,0.1,0.1,0.3,0
			c0.4-0.2,0.5-0.6,0.7-0.9c0.2-0.3,0.4-0.6,0.7-0.9c0-0.3-0.4-0.4-0.5-0.6c-0.2-0.3,0.4-1.5,0.3-1.8L0.9,909.9z M-0.1,913.1
			C-0.1,913.1-0.1,913.1-0.1,913.1z M-0.1,913.1C-0.1,913.2,0,913.2-0.1,913.1z"/>
		<path class="st7" d="M-0.5,906.6c-0.1-0.7-0.4-1.4-0.7-2c-0.3-0.4-0.6-1.2-1-1.1c-0.5,0.1-0.5,1.3-0.5,2c0.1,0.8,0.6,1.2,0.9,1.8
			c0.2,0.9,1,1.2,1.3,0.2C-0.5,907.3-0.5,906.9-0.5,906.6L-0.5,906.6z"/>
		<g>
			<path class="st8" d="M-4.8,901.4c-0.1,0.1,0.1,0.3,0.3,0.3c0.2-0.1,0.2-0.3,0-0.4C-4.5,901.3-4.8,901.3-4.8,901.4L-4.8,901.4z"/>
			<path class="st8" d="M-2.9,900.9c-0.2,0,0.2,0.4,0.3,0.4C-2.5,901.2-2.7,900.9-2.9,900.9z"/>
			<path class="st8" d="M-7.9,903.7c0,0.2,0.1,0.2,0.1,0C-7.8,903.6-7.9,903.6-7.9,903.7z"/>
			<path class="st8" d="M-3.8,901.6c0,0.1-0.2,0-0.1,0.1c0.1,0.1,0.2,0.1,0.3,0C-3.6,901.7-3.8,901.7-3.8,901.6L-3.8,901.6
				L-3.8,901.6z"/>
			<path class="st8" d="M-5.8,906c0.1,0.2,0.3,0.2,0.4,0.1c0.1-0.2-0.2-0.4-0.3-0.2C-5.8,905.9-5.7,905.8-5.8,906
				C-5.8,905.9-5.8,906-5.8,906L-5.8,906z"/>
			<path class="st8" d="M-4,904.5c-0.2,0.2,0.2,0.4,0.2,0.2C-3.7,904.5-3.9,904.3-4,904.5z"/>
			<path class="st9" d="M-8.7,905c-0.1,0.2,0,0.3,0.1,0.2c0.2-0.3,0.1-0.5,0-0.3C-8.7,904.9-8.6,904.8-8.7,905
				C-8.7,904.9-8.7,905-8.7,905L-8.7,905z"/>
			<path class="st10" d="M-9.4,909.3c0.1,0.2,0.2,0.3,0.2,0.1c-0.1-0.4-0.3-0.6-0.3-0.3c0,0.2,0-0.1,0,0.2
				C-9.4,909.2-9.4,909.3-9.4,909.3L-9.4,909.3z"/>
		</g>
	</g>
</g>
<g transform="translate(0 -892.36)">
	<g transform="matrix(.68738 0 0 .68738 23.259 304.63)">
		<path class="st2" d="M11.4,909.9c-0.1,2.7-2.3,5.4-5.3,5.4c-3,0-5.5-1.7-5.8-5c-0.3-3.3,2-9.2,5.5-9.4
			C9.3,900.8,11.5,906,11.4,909.9L11.4,909.9z"/>
		<defs>
			
				<filter id="Adobe_OpacityMaskFilter_00000172436274911743607820000007378466974912812472_" filterUnits="userSpaceOnUse" x="0" y="901.3" width="9.6" height="14">
				<feColorMatrix  type="matrix" values="1 0 0 0 0  0 1 0 0 0  0 0 1 0 0  0 0 0 1 0"/>
			</filter>
		</defs>
		
			<mask maskUnits="userSpaceOnUse" x="0" y="901.3" width="9.6" height="14" id="m_00000079484189929751561630000013593923993471174031_">
			<path style="fill:#00FFFF;filter:url(#Adobe_OpacityMaskFilter_00000172436274911743607820000007378466974912812472_);" d="
				M14.5,910.5c-0.1,3.9-3.3,7.8-7.7,7.8c-4.4,0-8.1-2.4-8.5-7.2c-0.4-4.8,3-13.4,8.1-13.6C11.5,897.3,14.7,904.9,14.5,910.5
				L14.5,910.5z"/>
		</mask>
		<path class="st20" d="M4.1,901.3C4.1,901.3,4.1,901.3,4.1,901.3c-0.1,0-0.2,0.1-0.2,0.1c0,0,0,0,0,0c-0.1,0-0.1,0.1-0.2,0.1
			c0,0,0,0,0,0c-0.1,0.1-0.1,0.1-0.2,0.2c0,0,0,0,0,0c-0.1,0.1-0.1,0.1-0.2,0.2c0,0,0,0-0.1,0c-0.1,0.1-0.1,0.1-0.2,0.2
			c0,0-0.1,0.1-0.1,0.1c0,0.1-0.1,0.1-0.1,0.2c0,0-0.1,0.1-0.1,0.1c0,0-0.1,0.1-0.1,0.2c0,0-0.1,0.1-0.1,0.1c0,0.1-0.1,0.1-0.1,0.2
			c0,0-0.1,0.1-0.1,0.1c0,0.1-0.1,0.1-0.1,0.2c0,0-0.1,0.1-0.1,0.1c-0.1,0.1-0.1,0.2-0.2,0.3c0,0,0,0,0,0c0,0,0,0,0,0
			c-0.1,0.1-0.1,0.2-0.2,0.3c0,0,0,0.1-0.1,0.1c0,0.1-0.1,0.1-0.1,0.2c0,0,0,0.1-0.1,0.1c0,0.1-0.1,0.1-0.1,0.2c0,0,0,0.1-0.1,0.1
			c0,0.1-0.1,0.1-0.1,0.2c0,0,0,0.1-0.1,0.1c0,0.1-0.1,0.1-0.1,0.2c0,0,0,0.1-0.1,0.1c0,0.1-0.1,0.2-0.1,0.4c0,0.1-0.1,0.2-0.1,0.4
			c0,0,0,0.1,0,0.1c0,0.1,0,0.2-0.1,0.2c0,0.1,0,0.1,0,0.2c0,0.1,0,0.1-0.1,0.2c0,0,0,0.1,0,0.1c0,0.1,0,0.1-0.1,0.2
			c0,0,0,0.1,0,0.1c0,0.1,0,0.1,0,0.2c0,0,0,0.1,0,0.1c0,0.1,0,0.2-0.1,0.3c0,0.1,0,0.2,0,0.3c0,0,0,0.1,0,0.1c0,0.1,0,0.2,0,0.2
			c0,0,0,0.1,0,0.1c0,0.1,0,0.1,0,0.2c0,0,0,0.1,0,0.1c0,0.1,0,0.1,0,0.2c0,0,0,0.1,0,0.1c0,0.1,0,0.1,0,0.2c0,0,0,0.1,0,0.1
			c0,0.1,0,0.2,0,0.3c0.3,3.3,2.8,5,5.8,5c0.1,0,0.2,0,0.3,0c0,0,0,0,0,0c0.1,0,0.2,0,0.3,0c0.1,0,0.1,0,0.2,0c0,0,0.1,0,0.1,0
			c0.1,0,0.1,0,0.2,0c0,0,0.1,0,0.1,0c0,0,0,0,0,0c0.1,0,0.1,0,0.2,0c0,0,0,0,0.1,0c0.1,0,0.1,0,0.2-0.1c0,0,0.1,0,0.1,0
			c0.1,0,0.1-0.1,0.2-0.1c0,0,0,0,0,0c0,0,0,0,0,0c0.1,0,0.1,0,0.2-0.1c0,0,0,0,0.1,0c0.1,0,0.1-0.1,0.2-0.1c0,0,0,0,0,0
			c0,0,0,0,0,0c0.1,0,0.1-0.1,0.2-0.1c0,0,0,0,0,0c0.1,0,0.1-0.1,0.2-0.1c0,0,0,0,0,0c0,0,0,0,0,0c0.1,0,0.1-0.1,0.2-0.1
			c0.1,0,0.1-0.1,0.2-0.2c0,0,0,0,0,0c0,0,0,0,0,0c0.1-0.1,0.1-0.1,0.2-0.2c0.1-0.1,0.1-0.1,0.2-0.2c0,0,0,0,0,0l0,0
			c0.1-0.1,0.1-0.1,0.2-0.2c0,0,0,0,0,0c-0.7,0.4-1.2,0-2.1,0c-3,0-4.5-1.7-5-3.7C1.6,906.6,2.3,903.3,4.1,901.3L4.1,901.3z"/>
		<defs>
			
				<filter id="Adobe_OpacityMaskFilter_00000092437355291279473870000006478207911588222133_" filterUnits="userSpaceOnUse" x="9.1" y="909.8" width="2.7" height="4.5">
				<feColorMatrix  type="matrix" values="1 0 0 0 0  0 1 0 0 0  0 0 1 0 0  0 0 0 1 0"/>
			</filter>
		</defs>
		
			<mask maskUnits="userSpaceOnUse" x="9.1" y="909.8" width="2.7" height="4.5" id="n_00000028321708256568965630000014278281369682876083_">
			<path style="fill:#F5F5F5;filter:url(#Adobe_OpacityMaskFilter_00000092437355291279473870000006478207911588222133_);" d="
				M14.2,1052.6c-0.1,3.9-3.3,7.8-7.7,7.8c-4.4,0-8.1-2.4-8.5-7.2c-0.4-4.8,3-13.4,8.1-13.6C11.2,1039.4,14.4,1046.9,14.2,1052.6
				L14.2,1052.6z"/>
		</mask>
		<path class="st22" d="M11.1,910.9c-0.7,1.4-1,1.3-1.8,2.8c-0.2,0.2-0.3,0.5,0,0.6c0.3,0,0.6,0,0.8-0.2c0.1-0.2,0.1,0.1,0.3,0
			c0.4-0.2,0.5-0.6,0.7-0.9c0.2-0.3,0.4-0.6,0.7-0.9c0-0.3-0.4-0.4-0.5-0.6c-0.2-0.3,0.4-1.5,0.3-1.8L11.1,910.9z M10.2,914.1
			C10.1,914.1,10.2,914.1,10.2,914.1z M10.2,914.1C10.1,914.2,10.3,914.2,10.2,914.1z"/>
		<path class="st7" d="M9.7,907.6c-0.1-0.7-0.4-1.4-0.7-2c-0.3-0.4-0.6-1.2-1-1.1c-0.5,0.1-0.5,1.3-0.5,2c0.1,0.8,0.6,1.2,0.9,1.8
			c0.2,0.9,1,1.2,1.3,0.2C9.8,908.2,9.8,907.9,9.7,907.6L9.7,907.6z"/>
		<g>
			<path class="st8" d="M5.5,902.4c-0.1,0.1,0.1,0.3,0.3,0.3c0.2-0.1,0.2-0.3,0-0.4C5.7,902.2,5.5,902.2,5.5,902.4L5.5,902.4z"/>
			<path class="st8" d="M7.4,901.8c-0.2,0,0.2,0.4,0.3,0.4C7.8,902.1,7.5,901.8,7.4,901.8z"/>
			<path class="st8" d="M2.3,904.7c0,0.2,0.1,0.2,0.1,0C2.5,904.6,2.4,904.6,2.3,904.7z"/>
			<path class="st8" d="M6.4,902.6c0,0.1-0.2,0-0.1,0.1c0.1,0.1,0.2,0.1,0.3,0C6.6,902.7,6.5,902.6,6.4,902.6L6.4,902.6L6.4,902.6z"
				/>
			<path class="st8" d="M4.4,906.9c0.1,0.2,0.3,0.2,0.4,0.1c0.1-0.2-0.2-0.4-0.3-0.2C4.4,906.9,4.5,906.7,4.4,906.9
				C4.4,906.9,4.4,906.9,4.4,906.9L4.4,906.9z"/>
			<path class="st8" d="M6.3,905.4c-0.2,0.2,0.2,0.4,0.2,0.2C6.6,905.5,6.4,905.3,6.3,905.4z"/>
			<path class="st9" d="M1.5,906c-0.1,0.2,0,0.3,0.1,0.2c0.2-0.3,0.1-0.5,0-0.3C1.5,905.9,1.7,905.7,1.5,906
				C1.5,905.9,1.5,906,1.5,906L1.5,906z"/>
			<path class="st10" d="M0.8,910.3c0.1,0.2,0.2,0.3,0.2,0.1C1,910,0.8,909.8,0.8,910c0,0.2,0-0.1,0,0.2
				C0.8,910.2,0.9,910.3,0.8,910.3L0.8,910.3z"/>
		</g>
	</g>
</g>
<g transform="translate(0 -892.36)">
	<g transform="matrix(.68738 0 0 .68738 23.259 304.63)">
		<path class="st2" d="M5.3,910.3C5.2,913,3,915.7,0,915.7c-3,0-5.5-1.7-5.8-5c-0.3-3.3,2-9.2,5.5-9.4
			C3.2,901.2,5.4,906.4,5.3,910.3L5.3,910.3z"/>
		<defs>
			
				<filter id="Adobe_OpacityMaskFilter_00000047766232255034271890000016075925879824397703_" filterUnits="userSpaceOnUse" x="-6.1" y="901.7" width="9.6" height="14">
				<feColorMatrix  type="matrix" values="1 0 0 0 0  0 1 0 0 0  0 0 1 0 0  0 0 0 1 0"/>
			</filter>
		</defs>
		
			<mask maskUnits="userSpaceOnUse" x="-6.1" y="901.7" width="9.6" height="14" id="m_00000149377654056074676940000012172884149631087270_">
			<path style="fill:#00FFFF;filter:url(#Adobe_OpacityMaskFilter_00000047766232255034271890000016075925879824397703_);" d="
				M8.4,910.9c-0.1,3.9-3.3,7.8-7.7,7.8c-4.4,0-8.1-2.4-8.5-7.2c-0.4-4.8,3-13.4,8.1-13.6C5.4,897.7,8.7,905.3,8.4,910.9L8.4,910.9z
				"/>
		</mask>
		<path class="st24" d="M-1.9,901.7C-1.9,901.7-1.9,901.7-1.9,901.7c-0.1,0-0.2,0.1-0.2,0.1c0,0,0,0,0,0c-0.1,0-0.1,0.1-0.2,0.1
			c0,0,0,0,0,0c-0.1,0.1-0.1,0.1-0.2,0.2c0,0,0,0,0,0c-0.1,0.1-0.1,0.1-0.2,0.2c0,0,0,0-0.1,0c-0.1,0.1-0.1,0.1-0.2,0.2
			c0,0-0.1,0.1-0.1,0.1c0,0.1-0.1,0.1-0.1,0.2c0,0-0.1,0.1-0.1,0.1c0,0-0.1,0.1-0.1,0.2c0,0-0.1,0.1-0.1,0.1c0,0.1-0.1,0.1-0.1,0.2
			c0,0-0.1,0.1-0.1,0.1c0,0.1-0.1,0.1-0.1,0.2c0,0-0.1,0.1-0.1,0.1c-0.1,0.1-0.1,0.2-0.2,0.3c0,0,0,0,0,0c0,0,0,0,0,0
			c-0.1,0.1-0.1,0.2-0.2,0.3c0,0,0,0.1-0.1,0.1c0,0.1-0.1,0.1-0.1,0.2c0,0,0,0.1-0.1,0.1c0,0.1-0.1,0.1-0.1,0.2c0,0,0,0.1-0.1,0.1
			c0,0.1-0.1,0.1-0.1,0.2c0,0,0,0.1-0.1,0.1c0,0.1-0.1,0.1-0.1,0.2c0,0,0,0.1-0.1,0.1c0,0.1-0.1,0.2-0.1,0.4c0,0.1-0.1,0.2-0.1,0.4
			c0,0,0,0.1,0,0.1c0,0.1,0,0.2-0.1,0.2c0,0.1,0,0.1,0,0.2c0,0.1,0,0.1-0.1,0.2c0,0,0,0.1,0,0.1c0,0.1,0,0.1-0.1,0.2
			c0,0,0,0.1,0,0.1c0,0.1,0,0.1,0,0.2c0,0,0,0.1,0,0.1c0,0.1,0,0.2-0.1,0.3c0,0.1,0,0.2,0,0.3c0,0,0,0.1,0,0.1c0,0.1,0,0.2,0,0.2
			c0,0,0,0.1,0,0.1c0,0.1,0,0.1,0,0.2c0,0,0,0.1,0,0.1c0,0.1,0,0.1,0,0.2c0,0,0,0.1,0,0.1c0,0.1,0,0.1,0,0.2c0,0,0,0.1,0,0.1
			c0,0.1,0,0.2,0,0.3c0.3,3.3,2.8,5,5.8,5c0.1,0,0.2,0,0.3,0c0,0,0,0,0,0c0.1,0,0.2,0,0.3,0c0.1,0,0.1,0,0.2,0c0,0,0.1,0,0.1,0
			c0.1,0,0.1,0,0.2,0c0,0,0.1,0,0.1,0c0,0,0,0,0,0c0.1,0,0.1,0,0.2,0c0,0,0,0,0.1,0c0.1,0,0.1,0,0.2-0.1c0,0,0.1,0,0.1,0
			c0.1,0,0.1-0.1,0.2-0.1c0,0,0,0,0,0c0,0,0,0,0,0c0.1,0,0.1,0,0.2-0.1c0,0,0,0,0.1,0c0.1,0,0.1-0.1,0.2-0.1c0,0,0,0,0,0
			c0,0,0,0,0,0c0.1,0,0.1-0.1,0.2-0.1c0,0,0,0,0,0c0.1,0,0.1-0.1,0.2-0.1c0,0,0,0,0,0c0,0,0,0,0,0c0.1,0,0.1-0.1,0.2-0.1
			c0.1,0,0.1-0.1,0.2-0.2c0,0,0,0,0,0c0,0,0,0,0,0c0.1-0.1,0.1-0.1,0.2-0.2c0.1-0.1,0.1-0.1,0.2-0.2c0,0,0,0,0,0l0,0
			c0.1-0.1,0.1-0.1,0.2-0.2c0,0,0,0,0,0c-0.7,0.4-1.2,0-2.1,0c-3,0-4.5-1.7-5-3.7C-4.5,907-3.8,903.7-1.9,901.7L-1.9,901.7z"/>
		<defs>
			
				<filter id="Adobe_OpacityMaskFilter_00000127760418051765934190000002642869239252653475_" filterUnits="userSpaceOnUse" x="3" y="910.2" width="2.7" height="4.5">
				<feColorMatrix  type="matrix" values="1 0 0 0 0  0 1 0 0 0  0 0 1 0 0  0 0 0 1 0"/>
			</filter>
		</defs>
		
			<mask maskUnits="userSpaceOnUse" x="3" y="910.2" width="2.7" height="4.5" id="n_00000083791596633550433550000005360116309938248331_">
			<path style="fill:#F5F5F5;filter:url(#Adobe_OpacityMaskFilter_00000127760418051765934190000002642869239252653475_);" d="
				M8.1,1053c-0.1,3.9-3.3,7.8-7.7,7.8c-4.4,0-8.1-2.4-8.5-7.2c-0.4-4.8,3-13.4,8.1-13.6S8.3,1047.3,8.1,1053L8.1,1053z"/>
		</mask>
		<path class="st26" d="M5,911.3c-0.7,1.4-1,1.3-1.8,2.8c-0.2,0.2-0.3,0.5,0,0.6c0.3,0,0.6,0,0.8-0.2c0.1-0.2,0.1,0.1,0.3,0
			c0.4-0.2,0.5-0.6,0.7-0.9c0.2-0.3,0.4-0.6,0.7-0.9c0-0.3-0.4-0.4-0.5-0.6c-0.2-0.3,0.4-1.5,0.3-1.8L5,911.3z M4.1,914.5
			C4,914.5,4.1,914.5,4.1,914.5z M4.1,914.5C4.1,914.6,4.2,914.6,4.1,914.5z"/>
		<path class="st7" d="M3.6,908c-0.1-0.7-0.4-1.4-0.7-2c-0.3-0.4-0.6-1.2-1-1.1c-0.5,0.1-0.5,1.3-0.5,2c0.1,0.8,0.6,1.2,0.9,1.8
			c0.2,0.9,1,1.2,1.3,0.2C3.7,908.6,3.7,908.3,3.6,908L3.6,908z"/>
		<g>
			<path class="st8" d="M-0.6,902.8c-0.1,0.1,0.1,0.3,0.3,0.3c0.2-0.1,0.2-0.3,0-0.4C-0.4,902.7-0.6,902.6-0.6,902.8L-0.6,902.8z"/>
			<path class="st8" d="M1.3,902.3c-0.2,0,0.2,0.4,0.3,0.4C1.7,902.5,1.4,902.3,1.3,902.3z"/>
			<path class="st8" d="M-3.7,905.1c0,0.2,0.1,0.2,0.1,0C-3.6,905-3.7,905-3.7,905.1z"/>
			<path class="st8" d="M0.3,903c0,0.1-0.2,0-0.1,0.1c0.1,0.1,0.2,0.1,0.3,0C0.5,903.1,0.4,903.1,0.3,903L0.3,903L0.3,903z"/>
			<path class="st8" d="M-1.7,907.3c0.1,0.2,0.3,0.2,0.4,0.1c0.1-0.2-0.2-0.4-0.3-0.2C-1.7,907.3-1.6,907.1-1.7,907.3
				C-1.6,907.3-1.6,907.3-1.7,907.3L-1.7,907.3z"/>
			<path class="st8" d="M0.2,905.8C0,906,0.3,906.3,0.4,906C0.5,905.9,0.3,905.7,0.2,905.8z"/>
			<path class="st9" d="M-4.6,906.4c-0.1,0.2,0,0.3,0.1,0.2c0.2-0.3,0.1-0.5,0-0.3C-4.5,906.3-4.4,906.2-4.6,906.4
				C-4.5,906.3-4.6,906.4-4.6,906.4L-4.6,906.4z"/>
			<path class="st10" d="M-5.2,910.7c0.1,0.2,0.2,0.3,0.2,0.1c-0.1-0.4-0.3-0.6-0.3-0.3c0,0.2,0-0.1,0,0.2
				C-5.2,910.6-5.2,910.7-5.2,910.7L-5.2,910.7z"/>
		</g>
	</g>
</g>
<g id="яйцо" transform="matrix(.68738 0 0 .68738 23.259 304.63)">
	<path class="st2" d="M-4.4-390c-0.1,2.5-2.1,5.1-5,5.1c-2.8,0-5.2-1.6-5.5-4.7c-0.3-3.1,1.9-8.7,5.2-8.8
		C-6.4-398.5-4.3-393.6-4.4-390L-4.4-390z"/>
	<defs>
		
			<filter id="Adobe_OpacityMaskFilter_00000035497325146171175680000004080517459839262625_" filterUnits="userSpaceOnUse" x="-15.1" y="-398" width="9" height="13.1">
			<feColorMatrix  type="matrix" values="1 0 0 0 0  0 1 0 0 0  0 0 1 0 0  0 0 0 1 0"/>
		</filter>
	</defs>
	
		<mask maskUnits="userSpaceOnUse" x="-15.1" y="-398" width="9" height="13.1" id="m_00000044151805116476835080000007608798083972491916_">
		<path style="fill:#00FFFF;filter:url(#Adobe_OpacityMaskFilter_00000035497325146171175680000004080517459839262625_);" d="
			M-1.4-389.4c-0.1,3.6-3.1,7.4-7.2,7.4c-4.1,0-7.6-2.3-8-6.8c-0.4-4.5,2.8-12.6,7.6-12.8C-4.3-401.8-1.2-394.7-1.4-389.4
			L-1.4-389.4z"/>
	</mask>
	<path class="st28" d="M-11.2-398C-11.2-398-11.2-398-11.2-398c-0.1,0-0.1,0.1-0.2,0.1c0,0,0,0,0,0c-0.1,0-0.1,0.1-0.2,0.1
		c0,0,0,0,0,0c-0.1,0-0.1,0.1-0.2,0.2c0,0,0,0,0,0c-0.1,0.1-0.1,0.1-0.2,0.2c0,0,0,0,0,0c-0.1,0.1-0.1,0.1-0.2,0.2
		c0,0-0.1,0.1-0.1,0.1c0,0-0.1,0.1-0.1,0.1c0,0-0.1,0.1-0.1,0.1c0,0-0.1,0.1-0.1,0.1c0,0-0.1,0.1-0.1,0.1c0,0-0.1,0.1-0.1,0.1
		c0,0-0.1,0.1-0.1,0.1c0,0.1-0.1,0.1-0.1,0.2c0,0,0,0.1-0.1,0.1c-0.1,0.1-0.1,0.2-0.2,0.3c0,0,0,0,0,0c0,0,0,0,0,0
		c-0.1,0.1-0.1,0.2-0.2,0.3c0,0,0,0.1-0.1,0.1c0,0.1-0.1,0.1-0.1,0.2c0,0,0,0.1-0.1,0.1c0,0.1-0.1,0.1-0.1,0.2c0,0,0,0.1-0.1,0.1
		c0,0.1-0.1,0.1-0.1,0.2c0,0,0,0.1-0.1,0.1c0,0.1-0.1,0.1-0.1,0.2c0,0,0,0.1,0,0.1c0,0.1-0.1,0.2-0.1,0.3c0,0.1-0.1,0.2-0.1,0.3
		c0,0,0,0.1,0,0.1c0,0.1,0,0.1-0.1,0.2c0,0,0,0.1,0,0.1c0,0.1,0,0.1-0.1,0.2c0,0,0,0.1,0,0.1c0,0.1,0,0.1-0.1,0.2c0,0,0,0.1,0,0.1
		c0,0.1,0,0.1,0,0.2c0,0,0,0.1,0,0.1c0,0.1,0,0.2-0.1,0.3c0,0.1,0,0.2,0,0.3c0,0,0,0.1,0,0.1c0,0.1,0,0.1,0,0.2c0,0,0,0.1,0,0.1
		c0,0.1,0,0.1,0,0.2c0,0,0,0.1,0,0.1c0,0.1,0,0.1,0,0.2c0,0,0,0.1,0,0.1c0,0.1,0,0.1,0,0.2c0,0,0,0.1,0,0.1c0,0.1,0,0.2,0,0.3
		c0.3,3.1,2.6,4.7,5.5,4.7c0.1,0,0.2,0,0.3,0c0,0,0,0,0,0c0.1,0,0.2,0,0.3,0c0.1,0,0.1,0,0.2,0c0,0,0.1,0,0.1,0c0.1,0,0.1,0,0.2,0
		c0,0,0,0,0.1,0c0,0,0,0,0,0c0.1,0,0.1,0,0.2,0c0,0,0,0,0.1,0c0.1,0,0.1,0,0.2,0c0,0,0.1,0,0.1,0c0.1,0,0.1-0.1,0.2-0.1c0,0,0,0,0,0
		c0,0,0,0,0,0c0.1,0,0.1,0,0.2-0.1c0,0,0,0,0.1,0c0.1,0,0.1-0.1,0.2-0.1c0,0,0,0,0,0c0,0,0,0,0,0c0.1,0,0.1-0.1,0.2-0.1c0,0,0,0,0,0
		c0.1,0,0.1-0.1,0.2-0.1c0,0,0,0,0,0c0,0,0,0,0,0c0.1,0,0.1-0.1,0.2-0.1c0.1,0,0.1-0.1,0.2-0.1c0,0,0,0,0,0c0,0,0,0,0,0
		c0.1-0.1,0.1-0.1,0.2-0.2c0.1-0.1,0.1-0.1,0.2-0.2c0,0,0,0,0,0l0,0c0.1-0.1,0.1-0.1,0.2-0.2c0,0,0,0,0,0c-0.6,0.3-1.1,0-1.9,0
		c-2.8,0-4.2-1.6-4.7-3.5C-13.6-393.1-12.9-396.2-11.2-398L-11.2-398z"/>
	<defs>
		
			<filter id="Adobe_OpacityMaskFilter_00000114073332506772039370000018245299181663190683_" filterUnits="userSpaceOnUse" x="-6.5" y="-390.1" width="2.5" height="4.2">
			<feColorMatrix  type="matrix" values="1 0 0 0 0  0 1 0 0 0  0 0 1 0 0  0 0 0 1 0"/>
		</filter>
	</defs>
	
		<mask maskUnits="userSpaceOnUse" x="-6.5" y="-390.1" width="2.5" height="4.2" id="n_00000059304353976390507240000010215849859597066639_">
		<path style="fill:#F5F5F5;filter:url(#Adobe_OpacityMaskFilter_00000114073332506772039370000018245299181663190683_);" d="
			M-1.7-256.1c-0.1,3.6-3.1,7.4-7.2,7.4c-4.1,0-7.6-2.3-8-6.8c-0.4-4.5,2.8-12.6,7.6-12.8C-4.6-268.4-1.5-261.4-1.7-256.1
			L-1.7-256.1z"/>
	</mask>
	<path class="st30" d="M-4.6-389.1c-0.6,1.3-1,1.2-1.7,2.6c-0.2,0.2-0.3,0.5,0,0.6c0.3,0,0.6,0,0.8-0.2c0.1-0.2,0.1,0.1,0.3,0
		c0.4-0.2,0.4-0.6,0.7-0.9c0.2-0.3,0.4-0.6,0.6-0.8c0-0.3-0.4-0.3-0.5-0.6c-0.2-0.2,0.3-1.5,0.3-1.7L-4.6-389.1z M-5.5-386.1
		C-5.6-386-5.5-386-5.5-386.1z M-5.5-386C-5.6-385.9-5.4-386-5.5-386z"/>
	<path class="st7" d="M-6-392.1c-0.1-0.7-0.4-1.3-0.7-1.9c-0.3-0.4-0.5-1.1-0.9-1c-0.5,0.1-0.4,1.2-0.4,1.8c0.1,0.8,0.6,1.1,0.8,1.7
		c0.2,0.8,0.9,1.1,1.2,0.2C-5.9-391.5-5.9-391.8-6-392.1L-6-392.1z"/>
	<g>
		<path class="st8" d="M-9.9-397c-0.1,0.1,0.1,0.3,0.3,0.3c0.2-0.1,0.2-0.3,0-0.3C-9.7-397.2-9.9-397.2-9.9-397L-9.9-397z"/>
		<path class="st8" d="M-8.2-397.5c-0.2,0,0.2,0.4,0.3,0.3C-7.8-397.3-8-397.5-8.2-397.5z"/>
		<path class="st8" d="M-12.9-394.8c0,0.1,0.1,0.2,0.1,0C-12.8-395-12.9-394.9-12.9-394.8z"/>
		<path class="st8" d="M-9.1-396.8c0,0.1-0.2,0-0.1,0.1c0.1,0.1,0.2,0.1,0.3,0C-8.9-396.8-9-396.8-9.1-396.8L-9.1-396.8L-9.1-396.8z
			"/>
		<path class="st8" d="M-10.9-392.8c0.1,0.1,0.3,0.2,0.4,0.1c0.1-0.2-0.2-0.4-0.3-0.2C-10.9-392.8-10.8-393-10.9-392.8
			C-10.9-392.8-10.9-392.8-10.9-392.8L-10.9-392.8z"/>
		<path class="st8" d="M-9.2-394.2c-0.2,0.1,0.1,0.4,0.2,0.2C-8.9-394.1-9.1-394.3-9.2-394.2z"/>
		<path class="st9" d="M-13.7-393.7c-0.1,0.2,0,0.3,0.1,0.2c0.2-0.2,0.1-0.4,0-0.3C-13.6-393.7-13.5-393.9-13.7-393.7
			C-13.6-393.7-13.6-393.7-13.7-393.7L-13.7-393.7z"/>
		<path class="st10" d="M-14.3-389.6c0.1,0.2,0.2,0.3,0.2,0c-0.1-0.4-0.3-0.5-0.2-0.3c0,0.2,0-0.1,0,0.1
			C-14.3-389.7-14.3-389.6-14.3-389.6L-14.3-389.6z"/>
	</g>
</g>
<linearGradient id="перед_00000163042190433153093590000009839414726530410137_" gradientUnits="userSpaceOnUse" x1="-638.8385" y1="397.3638" x2="-639.1112" y2="398.1092" gradientTransform="matrix(35.4418 0 0 -33.3287 22670.248 13282.1289)">
	<stop  offset="0" style="stop-color:#552200"/>
	<stop  offset="1" style="stop-color:#B6632C"/>
</linearGradient>
<path id="перед" style="fill-rule:evenodd;clip-rule:evenodd;fill:url(#перед_00000163042190433153093590000009839414726530410137_);" d="
	M29.1,9.8C27.1,9.4,26,10,24,10c-11.9,4-11.2,14.5-12.2,23.7c-2.8-1.4-4.3-3.3-4.3-4.8c0,5.5,6.2,14.3,17.9,14.2
	c12.6-0.1,17.7-8.9,17.5-14c0,3.3-4.9,7.1-17.5,7.2c-4.2,0-7.7-0.5-10.5-1.3c0.6-10.6,1.2-21.6,15-24.9C29.7,9.9,29.4,9.8,29.1,9.8
	L29.1,9.8z"/>
<g id="бант">
	
		<radialGradient id="SVGID_1_" cx="-288.4763" cy="423.7479" r="7.5" gradientTransform="matrix(1.8241 1.0595 0.4018 -0.6918 370.2662 607.835)" gradientUnits="userSpaceOnUse">
		<stop  offset="0" style="stop-color:#FFD73B"/>
		<stop  offset="1" style="stop-color:#EE8400"/>
	</radialGradient>
	<path class="st32" d="M23.7,7.9C19,10,14.1,4.2,10,6c-1.8,3.7-0.7,7.8,2,12c5.9,2.8,6-5,13-6L23.7,7.9L23.7,7.9z"/>
	
		<radialGradient id="SVGID_00000104697612251305097790000010382320817363519366_" cx="-455.8018" cy="793.3603" r="7.5" gradientTransform="matrix(3.7 0.6104 -0.1024 0.6205 1798.6843 -207.0245)" gradientUnits="userSpaceOnUse">
		<stop  offset="0" style="stop-color:#FFD73B"/>
		<stop  offset="1" style="stop-color:#EE8400"/>
	</radialGradient>
	<path style="fill:url(#SVGID_00000104697612251305097790000010382320817363519366_);" d="M27,8c6-2,6-4.6,9.7-5
		c4.1,3,1.6,6.7,1.6,9.4C35,14,33,10,27.1,11.4L27,8L27,8z"/>
	
		<radialGradient id="SVGID_00000113318795765858352910000001678373439952329856_" cx="26" cy="-81.3337" r="4" gradientTransform="matrix(1 0 0 -0.75 0 -49)" gradientUnits="userSpaceOnUse">
		<stop  offset="0" style="stop-color:#FFD73B"/>
		<stop  offset="1" style="stop-color:#EE8400"/>
	</radialGradient>
	<path style="fill-rule:evenodd;clip-rule:evenodd;fill:url(#SVGID_00000113318795765858352910000001678373439952329856_);" d="
		M30,10c0,1.7-1.8,3-4,3s-4-1.3-4-3s1.8-3,4-3S30,8.3,30,10z"/>
</g>
</svg>
