<?xml version="1.0" encoding="utf-8"?>
<!-- Generator: Adobe Illustrator 28.0.0, SVG Export Plug-In . SVG Version: 6.00 Build 0)  -->
<svg version="1.1" id="Слой_1" xmlns="http://www.w3.org/2000/svg" xmlns:xlink="http://www.w3.org/1999/xlink" x="0px" y="0px"
	 viewBox="0 0 48 48" style="enable-background:new 0 0 48 48;" xml:space="preserve">
<style type="text/css">
	.st0{fill:url(#зад_ручки_00000111166338051127713590000017675362355640597420_);}
	
		.st1{fill-rule:evenodd;clip-rule:evenodd;fill:url(#пространство_00000167367923356628608650000003949185836599437700_);}
	.st2{fill:#FFECCD;}
	.st3{opacity:0.616;fill:#6C5D53;enable-background:new    ;}
	.st4{fill-rule:evenodd;clip-rule:evenodd;fill:#FDF9EC;}
	.st5{fill-rule:evenodd;clip-rule:evenodd;fill:#FFFFFF;}
	.st6{fill-rule:evenodd;clip-rule:evenodd;fill:#F7CBB4;}
	.st7{fill-rule:evenodd;clip-rule:evenodd;fill:#CFB2A3;}
	.st8{fill-rule:evenodd;clip-rule:evenodd;fill:#BF9985;}
	.st9{fill-rule:evenodd;clip-rule:evenodd;fill:url(#перед_00000117678842851599413770000014348310111003285934_);}
	.st10{fill:url(#SVGID_1_);}
	.st11{fill:url(#SVGID_00000106851808030772875420000018150206246922289825_);}
	.st12{fill-rule:evenodd;clip-rule:evenodd;fill:url(#SVGID_00000011728894608251490300000002147925850663632060_);}
</style>
<linearGradient id="зад_ручки_00000131330306116996585960000003454550413459389326_" gradientUnits="userSpaceOnUse" x1="-1794.658" y1="340.157" x2="-1793.567" y2="339.9268" gradientTransform="matrix(11 0 0 -15.7293 19766 5366.1094)">
	<stop  offset="0" style="stop-color:#552200"/>
	<stop  offset="1" style="stop-color:#B6632C"/>
</linearGradient>
<path id="зад_ручки" style="fill:url(#зад_ручки_00000131330306116996585960000003454550413459389326_);" d="
	M29.6,9.8c5.8,4.7,5.7,10.4,7.4,15.7h-4c-0.3-5.7-2.1-11-7-15.7H29.6L29.6,9.8z"/>
<linearGradient id="пространство_00000111875519304835909330000018142472361159998891_" gradientUnits="userSpaceOnUse" x1="-1918.2781" y1="317.7034" x2="-1917.2626" y2="317.281" gradientTransform="matrix(35.452 0 0 -11.8358 68015.7969 3788.2798)">
	<stop  offset="0" style="stop-color:#552200"/>
	<stop  offset="1" style="stop-color:#B6632C"/>
</linearGradient>
<path id="пространство" style="fill-rule:evenodd;clip-rule:evenodd;fill:url(#пространство_00000111875519304835909330000018142472361159998891_);" d="
	M43,29c0,3.3-4.9,7.1-17.5,7.3c-11.7,0.1-17.9-4.2-17.9-7.4s10.2-4.4,17.9-4.4C32.2,24.4,43,25.7,43,29z"/>
<g transform="translate(0 -892.36)">
	<g transform="matrix(.68738 0 0 .68738 23.259 304.63)">
		<path class="st2" d="M-10.4,900.7c0.6,2.6-0.8,5.8-3.7,6.6s-5.8-0.2-6.9-3.3s-0.4-9.4,2.9-10.5S-11.3,896.9-10.4,900.7
			L-10.4,900.7z"/>
		<path class="st3" d="M-19.6,894.3L-19.6,894.3c-0.1,0.1-0.1,0.1-0.2,0.2l0,0c-0.1,0.1-0.1,0.1-0.2,0.2l0,0
			c-0.1,0.1-0.1,0.1-0.2,0.2l0,0c-0.1,0.1-0.1,0.2-0.2,0.2c0,0,0,0,0,0.1s-0.1,0.1-0.1,0.2c0,0,0,0.1-0.1,0.1c0,0.1-0.1,0.1-0.1,0.2
			c0,0,0,0.1-0.1,0.1c0,0.1-0.1,0.1-0.1,0.2c0,0,0,0.1-0.1,0.1c0,0.1-0.1,0.1-0.1,0.2c0,0,0,0.1-0.1,0.1c0,0.1-0.1,0.1-0.1,0.2v0.1
			c0,0.1-0.1,0.2-0.1,0.3l0,0l0,0c0,0.1-0.1,0.2-0.1,0.3v0.1c0,0.1,0,0.2-0.1,0.2c0,0.1,0,0.1,0,0.2c0,0.1,0,0.1,0,0.2
			c0,0.1,0,0.1,0,0.2c0,0.1,0,0.2,0,0.2c0,0.1,0,0.1,0,0.2c0,0.1,0,0.2,0,0.2v0.1c0,0.1,0,0.3,0,0.4c0,0.1,0,0.3,0,0.4v0.1
			c0,0.1,0,0.2,0,0.2c0,0.1,0,0.1,0,0.2c0,0.1,0,0.2,0,0.2v0.1c0,0.1,0,0.2,0,0.2v0.1c0,0.1,0,0.2,0,0.2v0.1c0,0.1,0,0.2,0,0.4
			c0,0.1,0,0.2,0,0.3v0.1c0,0.1,0,0.2,0,0.2v0.1c0,0.1,0,0.1,0,0.2v0.1c0,0.1,0,0.1,0,0.2v0.1c0,0.1,0,0.1,0.1,0.2v0.1
			c0,0.1,0.1,0.2,0.1,0.3c1.1,3.1,4,4.1,6.9,3.3c0.1,0,0.2-0.1,0.3-0.1l0,0c0.1,0,0.2-0.1,0.3-0.1s0.1,0,0.2-0.1h0.1
			c0.1,0,0.1-0.1,0.2-0.1c0,0,0,0,0.1,0l0,0c0.1,0,0.1-0.1,0.2-0.1c0,0,0,0,0.1,0s0.1-0.1,0.1-0.1s0,0,0.1,0s0.1-0.1,0.2-0.1l0,0
			l0,0c0.1,0,0.1-0.1,0.1-0.1s0,0,0.1,0s0.1-0.1,0.2-0.1l0,0l0,0c0.1,0,0.1-0.1,0.1-0.1l0,0c0.1-0.1,0.1-0.1,0.2-0.2l0,0l0,0
			c0.1-0.1,0.1-0.1,0.2-0.2c0.1-0.1,0.1-0.1,0.1-0.2l0,0l0,0c0-0.1,0.1-0.1,0.1-0.2c0-0.1,0.1-0.1,0.1-0.2l0,0l0,0
			c0-0.1,0.1-0.1,0.1-0.2l0,0c-0.6,0.5-1.1,0.4-2,0.6c-2.9,0.8-4.8-0.5-5.8-2.3C-20.7,900-20.9,896.7-19.6,894.3L-19.6,894.3z"/>
		<path class="st4" d="M-10.4,901.7c-0.3,1.5-0.7,1.5-1,3.2c-0.1,0.2-0.2,0.6,0.2,0.6c0.3-0.1,0.6-0.2,0.8-0.4
			c0-0.2,0.2,0.1,0.3-0.1c0.3-0.3,0.3-0.7,0.5-1.1c0.1-0.4,0.3-0.7,0.4-1c-0.1-0.3-0.5-0.2-0.6-0.5c-0.2-0.2-0.1-1.6-0.2-1.9
			L-10.4,901.7z M-10.5,905C-10.5,905.1-10.4,905-10.5,905z M-10.5,905.1C-10.5,905.2-10.3,905.1-10.5,905.1z"/>
		<path class="st5" d="M-12.6,898.9c-0.3-0.7-0.8-1.2-1.2-1.7c-0.4-0.3-0.8-1-1.2-0.8c-0.5,0.3-0.1,1.4,0,2c0.3,0.8,0.9,1,1.3,1.5
			c0.4,0.8,1.3,0.9,1.3-0.1C-12.4,899.5-12.5,899.2-12.6,898.9L-12.6,898.9z"/>
		<g>
			<path class="st6" d="M-18,894.9c0,0.2,0.2,0.3,0.4,0.2c0.2-0.1,0.1-0.3-0.1-0.4C-17.8,894.7-18.1,894.8-18,894.9L-18,894.9z"/>
			<path class="st6" d="M-16.3,893.9c-0.2,0.1,0.3,0.4,0.4,0.3C-15.9,894.1-16.2,893.9-16.3,893.9z"/>
			<path class="st6" d="M-20.5,898c0,0.2,0.2,0.1,0.1,0C-20.4,897.8-20.5,897.9-20.5,898z"/>
			<path class="st6" d="M-17.1,894.9c0,0.1-0.2,0.1-0.1,0.1c0.1,0.1,0.3,0,0.3-0.1C-16.8,894.9-17,894.9-17.1,894.9L-17.1,894.9
				L-17.1,894.9z"/>
			<path class="st6" d="M-17.9,899.6c0.1,0.1,0.3,0.1,0.4,0c0-0.2-0.3-0.3-0.4-0.2C-17.9,899.6-17.8,899.4-17.9,899.6
				C-17.9,899.6-17.8,899.6-17.9,899.6L-17.9,899.6z"/>
			<path class="st6" d="M-16.5,897.7c-0.1,0.2,0.3,0.4,0.3,0.1C-16.2,897.6-16.4,897.5-16.5,897.7z"/>
			<path class="st7" d="M-20.9,899.4c0,0.2,0.1,0.3,0.2,0.1c0.1-0.3,0-0.5-0.1-0.3S-20.8,899.2-20.9,899.4L-20.9,899.4L-20.9,899.4z
				"/>
			<path class="st8" d="M-20.4,903.8c0.2,0.2,0.3,0.2,0.2,0c-0.2-0.3-0.4-0.5-0.3-0.2c0.1,0.2,0-0.1,0.1,0.1
				C-20.5,903.7-20.4,903.8-20.4,903.8L-20.4,903.8z"/>
		</g>
	</g>
</g>
<g transform="translate(0 -892.36)">
	<g transform="matrix(.68738 0 0 .68738 23.259 304.63)">
		<path class="st2" d="M14.1,907.2c-0.1,2.7-2.3,5.4-5.3,5.4s-5.5-1.7-5.8-5s2-9.2,5.5-9.4C12,898.1,14.2,903.3,14.1,907.2
			L14.1,907.2z"/>
		<path class="st3" d="M6.9,898.6L6.9,898.6c-0.1,0-0.2,0.1-0.2,0.1l0,0c-0.1,0-0.1,0.1-0.2,0.1l0,0c-0.1,0.1-0.1,0.1-0.2,0.2l0,0
			c-0.1,0.1-0.1,0.1-0.2,0.2c0,0,0,0-0.1,0c-0.1,0.1-0.1,0.1-0.2,0.2l-0.1,0.1c0,0.1-0.1,0.1-0.1,0.2l-0.1,0.1c0,0-0.1,0.1-0.1,0.2
			l-0.1,0.1c0,0.1-0.1,0.1-0.1,0.2l-0.1,0.1c0,0.1-0.1,0.1-0.1,0.2l-0.1,0.1c-0.1,0.1-0.1,0.2-0.2,0.3l0,0l0,0
			c-0.1,0.1-0.1,0.2-0.2,0.3c0,0,0,0.1-0.1,0.1c0,0.1-0.1,0.1-0.1,0.2c0,0,0,0.1-0.1,0.1C4,901.9,4,902,4,902s0,0.1-0.1,0.1
			c0,0.1-0.1,0.1-0.1,0.2c0,0,0,0.1-0.1,0.1c0,0.1-0.1,0.1-0.1,0.2c0,0,0,0.1-0.1,0.1c0,0.1-0.1,0.2-0.1,0.4c0,0.1-0.1,0.2-0.1,0.4
			v0.1c0,0.1,0,0.2-0.1,0.2c0,0.1,0,0.1,0,0.2c0,0.1,0,0.1-0.1,0.2v0.1c0,0.1,0,0.1-0.1,0.2v0.1c0,0.1,0,0.1,0,0.2v0.1
			c0,0.1,0,0.2-0.1,0.3c0,0.1,0,0.2,0,0.3v0.1c0,0.1,0,0.2,0,0.2v0.1c0,0.1,0,0.1,0,0.2v0.1c0,0.1,0,0.1,0,0.2v0.1
			c0,0.1,0,0.1,0,0.2v0.1c0,0.1,0,0.2,0,0.3c0.3,3.3,2.8,5,5.8,5c0.1,0,0.2,0,0.3,0l0,0c0.1,0,0.2,0,0.3,0s0.1,0,0.2,0h0.1
			c0.1,0,0.1,0,0.2,0h0.1l0,0c0.1,0,0.1,0,0.2,0c0,0,0,0,0.1,0s0.1,0,0.2-0.1h0.1c0.1,0,0.1-0.1,0.2-0.1l0,0l0,0
			c0.1,0,0.1,0,0.2-0.1c0,0,0,0,0.1,0s0.1-0.1,0.2-0.1l0,0l0,0c0.1,0,0.1-0.1,0.2-0.1l0,0c0.1,0,0.1-0.1,0.2-0.1l0,0l0,0
			c0.1,0,0.1-0.1,0.2-0.1c0.1,0,0.1-0.1,0.2-0.2l0,0l0,0c0.1-0.1,0.1-0.1,0.2-0.2c0.1-0.1,0.1-0.1,0.2-0.2l0,0l0,0
			c0.1-0.1,0.1-0.1,0.2-0.2l0,0c-0.7,0.4-1.2,0-2.1,0c-3,0-4.5-1.7-5-3.7C4.3,903.9,5,900.6,6.9,898.6L6.9,898.6z"/>
		<path class="st4" d="M13.8,908.2c-0.7,1.4-1,1.3-1.8,2.8c-0.2,0.2-0.3,0.5,0,0.6c0.3,0,0.6,0,0.8-0.2c0.1-0.2,0.1,0.1,0.3,0
			c0.4-0.2,0.5-0.6,0.7-0.9c0.2-0.3,0.4-0.6,0.7-0.9c0-0.3-0.4-0.4-0.5-0.6c-0.2-0.3,0.4-1.5,0.3-1.8L13.8,908.2z M12.9,911.4
			L12.9,911.4z M12.9,911.4C12.9,911.5,13,911.5,12.9,911.4z"/>
		<path class="st5" d="M12.4,904.9c-0.1-0.7-0.4-1.4-0.7-2c-0.3-0.4-0.6-1.2-1-1.1c-0.5,0.1-0.5,1.3-0.5,2c0.1,0.8,0.6,1.2,0.9,1.8
			c0.2,0.9,1,1.2,1.3,0.2C12.5,905.6,12.5,905.2,12.4,904.9L12.4,904.9z"/>
		<g>
			<path class="st6" d="M8.2,899.7c-0.1,0.1,0.1,0.3,0.3,0.3c0.2-0.1,0.2-0.3,0-0.4C8.4,899.6,8.2,899.6,8.2,899.7L8.2,899.7z"/>
			<path class="st6" d="M10.1,899.2c-0.2,0,0.2,0.4,0.3,0.4C10.5,899.4,10.2,899.2,10.1,899.2z"/>
			<path class="st6" d="M5.1,902C5.1,902.2,5.2,902.2,5.1,902C5.2,901.9,5.1,901.9,5.1,902z"/>
			<path class="st6" d="M9.1,899.9c0,0.1-0.2,0-0.1,0.1c0.1,0.1,0.2,0.1,0.3,0C9.4,900,9.2,900,9.1,899.9L9.1,899.9L9.1,899.9z"/>
			<path class="st6" d="M7.1,904.2c0.1,0.2,0.3,0.2,0.4,0.1c0.1-0.2-0.2-0.4-0.3-0.2C7.1,904.2,7.3,904,7.1,904.2
				C7.2,904.2,7.2,904.2,7.1,904.2L7.1,904.2z"/>
			<path class="st6" d="M9,902.7c-0.2,0.2,0.2,0.4,0.2,0.2C9.3,902.8,9.1,902.6,9,902.7z"/>
			<path class="st7" d="M4.2,903.3c-0.1,0.2,0,0.3,0.1,0.2C4.5,903.2,4.4,903,4.2,903.3C4.3,903.2,4.4,903.1,4.2,903.3
				C4.3,903.2,4.3,903.3,4.2,903.3L4.2,903.3z"/>
			<path class="st8" d="M3.6,907.6c0.1,0.2,0.2,0.3,0.2,0.1c-0.1-0.4-0.3-0.6-0.3-0.3C3.5,907.6,3.5,907.3,3.6,907.6
				C3.6,907.5,3.6,907.6,3.6,907.6L3.6,907.6z"/>
		</g>
	</g>
</g>
<g transform="translate(0 -892.36)">
	<g transform="matrix(.68738 0 0 .68738 23.259 304.63)">
		<path class="st2" d="M3.3,906c-0.1,2.7-2.3,5.4-5.3,5.4s-5.5-1.7-5.8-5c-0.3-3.3,2-9.2,5.5-9.4C1.2,896.9,3.4,902.1,3.3,906
			L3.3,906z"/>
		<path class="st3" d="M-3.9,897.4L-3.9,897.4c-0.1,0-0.2,0.1-0.2,0.1l0,0c-0.1,0-0.1,0.1-0.2,0.1l0,0c-0.1,0.1-0.1,0.1-0.2,0.2l0,0
			c-0.1,0.1-0.1,0.1-0.2,0.2c0,0,0,0-0.1,0c-0.1,0.1-0.1,0.1-0.2,0.2l-0.1,0.1c0,0.1-0.1,0.1-0.1,0.2l-0.1,0.1c0,0-0.1,0.1-0.1,0.2
			l-0.1,0.1c0,0.1-0.1,0.1-0.1,0.2l-0.1,0.1c0,0.1-0.1,0.1-0.1,0.2l-0.1,0.1c-0.1,0.1-0.1,0.2-0.2,0.3l0,0l0,0
			c-0.1,0.1-0.1,0.2-0.2,0.3c0,0,0,0.1-0.1,0.1c0,0.1-0.1,0.1-0.1,0.2c0,0,0,0.1-0.1,0.1c0,0.1-0.1,0.1-0.1,0.2c0,0,0,0.1-0.1,0.1
			c0,0.1-0.1,0.1-0.1,0.2c0,0,0,0.1-0.1,0.1c0,0.1-0.1,0.1-0.1,0.2c0,0,0,0.1-0.1,0.1c0,0.1-0.1,0.2-0.1,0.4c0,0.1-0.1,0.2-0.1,0.4
			v0.1c0,0.1,0,0.2-0.1,0.2c0,0.1,0,0.1,0,0.2c0,0.1,0,0.1-0.1,0.2v0.1c0,0.1,0,0.1-0.1,0.2v0.1c0,0.1,0,0.1,0,0.2v0.1
			c0,0.1,0,0.2-0.1,0.3c0,0.1,0,0.2,0,0.3v0.1c0,0.1,0,0.2,0,0.2v0.1c0,0.1,0,0.1,0,0.2v0.1c0,0.1,0,0.1,0,0.2v0.1
			c0,0.1,0,0.1,0,0.2v0.1c0,0.1,0,0.2,0,0.3c0.3,3.3,2.8,5,5.8,5c0.1,0,0.2,0,0.3,0l0,0c0.1,0,0.2,0,0.3,0c0.1,0,0.1,0,0.2,0h0.1
			c0.1,0,0.1,0,0.2,0h0.1l0,0c0.1,0,0.1,0,0.2,0c0,0,0,0,0.1,0s0.1,0,0.2-0.1h0.1c0.1,0,0.1-0.1,0.2-0.1l0,0l0,0
			c0.1,0,0.1,0,0.2-0.1c0,0,0,0,0.1,0s0.1-0.1,0.2-0.1l0,0l0,0c0.1,0,0.1-0.1,0.2-0.1l0,0c0.1,0,0.1-0.1,0.2-0.1l0,0l0,0
			c0.1,0,0.1-0.1,0.2-0.1c0.1,0,0.1-0.1,0.2-0.2l0,0l0,0c0.1-0.1,0.1-0.1,0.2-0.2c0.1-0.1,0.1-0.1,0.2-0.2l0,0l0,0
			c0.1-0.1,0.1-0.1,0.2-0.2l0,0c-0.7,0.4-1.2,0-2.1,0c-3,0-4.5-1.7-5-3.7C-6.5,902.7-5.8,899.4-3.9,897.4L-3.9,897.4z"/>
		<path class="st4" d="M3.1,907c-0.7,1.4-1,1.3-1.8,2.8c-0.2,0.2-0.3,0.5,0,0.6c0.3,0,0.6,0,0.8-0.2c0.1-0.2,0.1,0.1,0.3,0
			c0.4-0.2,0.5-0.6,0.7-0.9c0.2-0.3,0.4-0.6,0.7-0.9c0-0.3-0.4-0.4-0.5-0.6c-0.2-0.3,0.4-1.5,0.3-1.8L3.1,907z M2.1,910.2L2.1,910.2
			z M2.1,910.2C2.1,910.3,2.2,910.3,2.1,910.2z"/>
		<path class="st5" d="M1.6,903.7c-0.1-0.7-0.4-1.4-0.7-2c-0.3-0.4-0.6-1.2-1-1.1c-0.5,0.1-0.5,1.3-0.5,2c0.1,0.8,0.6,1.2,0.9,1.8
			c0.2,0.9,1,1.2,1.3,0.2C1.7,904.3,1.7,904,1.6,903.7L1.6,903.7z"/>
		<g>
			<path class="st6" d="M-2.6,898.5c-0.1,0.1,0.1,0.3,0.3,0.3c0.2-0.1,0.2-0.3,0-0.4C-2.4,898.3-2.6,898.3-2.6,898.5L-2.6,898.5z"/>
			<path class="st6" d="M-0.7,897.9c-0.2,0,0.2,0.4,0.3,0.4C-0.3,898.2-0.5,898-0.7,897.9z"/>
			<path class="st6" d="M-5.7,900.8C-5.7,901-5.6,901-5.7,900.8C-5.6,900.7-5.7,900.7-5.7,900.8z"/>
			<path class="st6" d="M-1.7,898.7c0,0.1-0.2,0-0.1,0.1s0.2,0.1,0.3,0C-1.4,898.8-1.6,898.7-1.7,898.7L-1.7,898.7L-1.7,898.7z"/>
			<path class="st6" d="M-3.6,903c0.1,0.2,0.3,0.2,0.4,0.1c0.1-0.2-0.2-0.4-0.3-0.2C-3.6,903-3.5,902.8-3.6,903L-3.6,903L-3.6,903z"
				/>
			<path class="st6" d="M-1.8,901.5c-0.2,0.2,0.2,0.4,0.2,0.2C-1.5,901.6-1.7,901.4-1.8,901.5z"/>
			<path class="st7" d="M-6.6,902.1c-0.1,0.2,0,0.3,0.1,0.2C-6.3,902-6.4,901.8-6.6,902.1C-6.5,902-6.4,901.8-6.6,902.1
				C-6.5,902-6.5,902.1-6.6,902.1L-6.6,902.1z"/>
			<path class="st8" d="M-7.2,906.4c0.1,0.2,0.2,0.3,0.2,0.1c-0.1-0.4-0.3-0.6-0.3-0.3c0,0.2,0-0.1,0,0.2
				C-7.2,906.3-7.2,906.4-7.2,906.4L-7.2,906.4z"/>
		</g>
	</g>
</g>
<g transform="translate(0 -892.36)">
	<g transform="matrix(.68738 0 0 .68738 23.259 304.63)">
		<path class="st2" d="M-3.2,905.3c-0.1,2.7-2.3,5.4-5.3,5.4s-5.5-1.7-5.8-5s2-9.2,5.5-9.4C-5.2,896.3-3,901.5-3.2,905.3L-3.2,905.3
			z"/>
		<path class="st3" d="M-10.4,896.8L-10.4,896.8c-0.1,0-0.2,0.1-0.2,0.1l0,0c-0.1,0-0.1,0.1-0.2,0.1l0,0c-0.1,0.1-0.1,0.1-0.2,0.2
			l0,0c-0.1,0.1-0.1,0.1-0.2,0.2c0,0,0,0-0.1,0c-0.1,0.1-0.1,0.1-0.2,0.2l-0.1,0.1c0,0.1-0.1,0.1-0.1,0.2l-0.1,0.1
			c0,0-0.1,0.1-0.1,0.2l-0.1,0.1c0,0.1-0.1,0.1-0.1,0.2l-0.1,0.1c0,0.1-0.1,0.1-0.1,0.2l-0.1,0.1c-0.1,0.1-0.1,0.2-0.2,0.3l0,0l0,0
			c-0.1,0.1-0.1,0.2-0.2,0.3c0,0,0,0.1-0.1,0.1c0,0.1-0.1,0.1-0.1,0.2c0,0,0,0.1-0.1,0.1c0,0.1-0.1,0.1-0.1,0.2c0,0,0,0.1-0.1,0.1
			c0,0.1-0.1,0.1-0.1,0.2c0,0,0,0.1-0.1,0.1c0,0.1-0.1,0.1-0.1,0.2c0,0,0,0.1-0.1,0.1c0,0.1-0.1,0.2-0.1,0.4c0,0.1-0.1,0.2-0.1,0.4
			v0.1c0,0.1,0,0.2-0.1,0.2c0,0.1,0,0.1,0,0.2c0,0.1,0,0.1-0.1,0.2v0.1c0,0.1,0,0.1-0.1,0.2v0.1c0,0.1,0,0.1,0,0.2v0.1
			c0,0.1,0,0.2-0.1,0.3c0,0.1,0,0.2,0,0.3v0.1c0,0.1,0,0.2,0,0.2v0.1c0,0.1,0,0.1,0,0.2v0.1c0,0.1,0,0.1,0,0.2v0.1
			c0,0.1,0,0.1,0,0.2v0.1c0,0.1,0,0.2,0,0.3c0.3,3.3,2.8,5,5.8,5c0.1,0,0.2,0,0.3,0l0,0c0.1,0,0.2,0,0.3,0c0.1,0,0.1,0,0.2,0h0.1
			c0.1,0,0.1,0,0.2,0h0.1l0,0c0.1,0,0.1,0,0.2,0c0,0,0,0,0.1,0s0.1,0,0.2-0.1h0.1c0.1,0,0.1-0.1,0.2-0.1l0,0l0,0
			c0.1,0,0.1,0,0.2-0.1c0,0,0,0,0.1,0s0.1-0.1,0.2-0.1l0,0l0,0c0.1,0,0.1-0.1,0.2-0.1l0,0c0.1,0,0.1-0.1,0.2-0.1l0,0l0,0
			c0.1,0,0.1-0.1,0.2-0.1s0.1-0.1,0.2-0.2l0,0l0,0c0.1-0.1,0.1-0.1,0.2-0.2c0.1-0.1,0.1-0.1,0.2-0.2l0,0l0,0
			c0.1-0.1,0.1-0.1,0.2-0.2l0,0c-0.7,0.4-1.2,0-2.1,0c-3,0-4.5-1.7-5-3.7C-13,902-12.2,898.8-10.4,896.8L-10.4,896.8z"/>
		<path class="st4" d="M-3.4,906.3c-0.7,1.4-1,1.3-1.8,2.8c-0.2,0.2-0.3,0.5,0,0.6c0.3,0,0.6,0,0.8-0.2c0.1-0.2,0.1,0.1,0.3,0
			c0.4-0.2,0.5-0.6,0.7-0.9c0.2-0.3,0.4-0.6,0.7-0.9c0-0.3-0.4-0.4-0.5-0.6c-0.2-0.3,0.4-1.5,0.3-1.8L-3.4,906.3z M-4.4,909.5
			C-4.4,909.6-4.3,909.6-4.4,909.5z M-4.4,909.6C-4.4,909.7-4.2,909.6-4.4,909.6z"/>
		<path class="st5" d="M-4.8,903.1c-0.1-0.7-0.4-1.4-0.7-2c-0.3-0.4-0.6-1.2-1-1.1c-0.5,0.1-0.5,1.3-0.5,2c0.1,0.8,0.6,1.2,0.9,1.8
			c0.2,0.9,1,1.2,1.3,0.2C-4.8,903.7-4.8,903.4-4.8,903.1L-4.8,903.1z"/>
		<g>
			<path class="st6" d="M-9,897.8c-0.1,0.1,0.1,0.3,0.3,0.3c0.2-0.1,0.2-0.3,0-0.4C-8.8,897.7-9,897.7-9,897.8L-9,897.8z"/>
			<path class="st6" d="M-7.1,897.3c-0.2,0,0.2,0.4,0.3,0.4C-6.7,897.6-7,897.3-7.1,897.3z"/>
			<path class="st6" d="M-12.2,900.2c0,0.2,0.1,0.2,0.1,0C-12.1,900-12.2,900.1-12.2,900.2z"/>
			<path class="st6" d="M-8.1,898.1c0,0.1-0.2,0-0.1,0.1c0.1,0.1,0.2,0.1,0.3,0C-7.9,898.1-8,898.1-8.1,898.1L-8.1,898.1L-8.1,898.1
				z"/>
			<path class="st6" d="M-10.1,902.4c0.1,0.2,0.3,0.2,0.4,0.1c0.1-0.2-0.2-0.4-0.3-0.2C-10.1,902.3-10,902.2-10.1,902.4
				C-10.1,902.3-10.1,902.4-10.1,902.4L-10.1,902.4z"/>
			<path class="st6" d="M-8.3,900.9c-0.2,0.2,0.2,0.4,0.2,0.2C-8,900.9-8.1,900.8-8.3,900.9z"/>
			<path class="st7" d="M-13,901.4c-0.1,0.2,0,0.3,0.1,0.2c0.2-0.3,0.1-0.5,0-0.3C-13,901.4-12.8,901.2-13,901.4L-13,901.4
				L-13,901.4z"/>
			<path class="st8" d="M-13.7,905.7c0.1,0.2,0.2,0.3,0.2,0.1c-0.1-0.4-0.3-0.6-0.3-0.3c0,0.2,0-0.1,0,0.2
				C-13.7,905.7-13.7,905.7-13.7,905.7L-13.7,905.7z"/>
		</g>
	</g>
</g>
<g transform="translate(0 -892.36)">
	<g transform="matrix(.68738 0 0 .68738 23.259 304.63)">
		<path class="st2" d="M26.7,902.3c-0.9,2.5-3.7,4.5-6.6,3.6s-4.8-3.2-4.1-6.5c0.6-3.3,4.6-8.2,8-7.4
			C27.3,893.1,28,898.7,26.7,902.3L26.7,902.3z"/>
		<path class="st3" d="M22.2,892.1L22.2,892.1c-0.1,0-0.2,0-0.3,0.1l0,0c-0.1,0-0.2,0.1-0.2,0.1l0,0c-0.1,0-0.2,0.1-0.3,0.1l0,0
			c-0.1,0-0.2,0.1-0.3,0.1c0,0,0,0-0.1,0s-0.2,0.1-0.2,0.1s-0.1,0-0.1,0.1c-0.1,0-0.1,0.1-0.2,0.1l-0.1,0.1c-0.1,0-0.1,0.1-0.2,0.1
			l-0.1,0.1c-0.1,0-0.1,0.1-0.2,0.1l-0.1,0.1c-0.1,0-0.1,0.1-0.2,0.1l-0.1,0.1c-0.1,0.1-0.2,0.2-0.3,0.2l0,0l0,0
			c-0.1,0.1-0.2,0.2-0.2,0.2l-0.1,0.1c-0.1,0.1-0.1,0.1-0.2,0.2l-0.1,0.1c0,0.1-0.1,0.1-0.1,0.2l-0.1,0.1c0,0.1-0.1,0.1-0.1,0.2
			l-0.1,0.1c0,0.1-0.1,0.1-0.1,0.2l-0.1,0.1c-0.1,0.1-0.1,0.2-0.2,0.3s-0.1,0.2-0.2,0.3c0,0,0,0.1-0.1,0.1c0,0.1-0.1,0.1-0.1,0.2
			l-0.1,0.1c0,0.1-0.1,0.1-0.1,0.2c0,0,0,0.1-0.1,0.1c0,0.1-0.1,0.1-0.1,0.2c0,0,0,0.1-0.1,0.1c0,0.1-0.1,0.1-0.1,0.2
			c0,0,0,0.1-0.1,0.1c-0.1,0.1-0.1,0.2-0.1,0.3s-0.1,0.2-0.1,0.3v0.1c0,0.1-0.1,0.1-0.1,0.2v0.1c0,0.1,0,0.1-0.1,0.2v0.1
			c0,0.1,0,0.1-0.1,0.2v0.1c0,0.1,0,0.1,0,0.2v0.1c0,0.1,0,0.2-0.1,0.3c-0.6,3.3,1.3,5.6,4.1,6.5c0.1,0,0.2,0,0.3,0.1l0,0
			c0.1,0,0.2,0,0.3,0c0.1,0,0.1,0,0.2,0h0.1c0.1,0,0.1,0,0.2,0h0.1l0,0c0.1,0,0.1,0,0.2,0h0.1c0.1,0,0.1,0,0.2,0H22
			c0.1,0,0.2,0,0.2,0l0,0l0,0c0.1,0,0.1,0,0.2,0c0,0,0,0,0.1,0s0.1,0,0.2,0l0,0l0,0c0.1,0,0.1,0,0.2-0.1l0,0c0.1,0,0.1,0,0.2-0.1
			l0,0l0,0c0.1,0,0.2-0.1,0.2-0.1c0.1,0,0.2-0.1,0.2-0.1l0,0l0,0c0.1,0,0.2-0.1,0.2-0.1c0.1,0,0.1-0.1,0.2-0.1l0,0l0,0
			c0.1,0,0.1-0.1,0.2-0.1l0,0c-0.8,0.2-1.2-0.3-2-0.6c-2.9-0.9-3.8-3-3.7-4.9C18.3,896.3,19.9,893.4,22.2,892.1L22.2,892.1z"/>
		<path class="st4" d="M26.2,903.2c-1,1.2-1.3,0.8-2.6,2.1c-0.2,0.1-0.4,0.4-0.1,0.6c0.3,0,0.6,0.1,0.9,0c0.1-0.2,0.1,0.2,0.3,0.1
			c0.4-0.1,0.6-0.5,0.9-0.7c0.3-0.3,0.6-0.5,0.9-0.7c0.1-0.3-0.3-0.5-0.3-0.7c-0.1-0.3,0.8-1.4,0.8-1.7L26.2,903.2z M24.3,905.9
			C24.3,906,24.3,906,24.3,905.9z M24.3,906C24.3,906.1,24.4,906.2,24.3,906z"/>
		<path class="st5" d="M25.7,899.7c0.1-0.8,0-1.4-0.1-2.1c-0.2-0.5-0.1-1.3-0.6-1.3c-0.6,0-0.8,1.1-1.1,1.8c-0.2,0.8,0.2,1.3,0.3,2
			c0,0.9,0.6,1.4,1.2,0.5C25.6,900.3,25.7,900,25.7,899.7L25.7,899.7z"/>
		<g>
			<path class="st6" d="M23.3,893.5c-0.1,0.1,0,0.4,0.2,0.3c0.2,0,0.3-0.2,0.1-0.3C23.5,893.4,23.3,893.3,23.3,893.5L23.3,893.5z"/>
			<path class="st6" d="M25.2,893.5c-0.2,0,0.1,0.5,0.2,0.4C25.6,893.9,25.4,893.5,25.2,893.5z"/>
			<path class="st6" d="M19.5,894.8C19.5,894.9,19.6,895,19.5,894.8C19.7,894.7,19.6,894.7,19.5,894.8z"/>
			<path class="st6" d="M24.1,893.9c0,0.1-0.2,0-0.1,0.1c0,0.1,0.2,0.2,0.3,0.1C24.3,894,24.2,893.9,24.1,893.9L24.1,893.9
				L24.1,893.9z"/>
			<path class="st6" d="M20.9,897.5c0,0.2,0.2,0.3,0.3,0.2C21.3,897.5,21.1,897.3,20.9,897.5C20.9,897.4,21,897.3,20.9,897.5
				C20.9,897.4,20.9,897.5,20.9,897.5L20.9,897.5z"/>
			<path class="st6" d="M23.1,896.6c-0.2,0.1,0,0.4,0.2,0.3C23.4,896.7,23.3,896.5,23.1,896.6z"/>
			<path class="st7" d="M18.4,895.7c-0.1,0.2-0.1,0.3,0.1,0.2c0.2-0.2,0.2-0.4,0.1-0.3C18.4,895.7,18.6,895.5,18.4,895.7
				C18.5,895.7,18.4,895.7,18.4,895.7L18.4,895.7z"/>
			<path class="st8" d="M16.5,899.6c0,0.3,0.1,0.3,0.2,0.1c0-0.4-0.1-0.6-0.2-0.4C16.5,899.5,16.6,899.2,16.5,899.6L16.5,899.6
				L16.5,899.6z"/>
		</g>
	</g>
</g>
<g transform="translate(0 -892.36)">
	<g transform="matrix(.68738 0 0 .68738 23.259 304.63)">
		<path class="st2" d="M-8.6,903.4c0.4,2.6-1.2,5.7-4.1,6.3c-3,0.6-5.8-0.6-6.7-3.8c-0.9-3.2,0.2-9.5,3.6-10.3
			C-12.4,894.9-9.2,899.5-8.6,903.4L-8.6,903.4z"/>
		<path class="st3" d="M-17.3,896.4L-17.3,896.4c-0.1,0.1-0.1,0.1-0.2,0.2l0,0c-0.1,0.1-0.1,0.1-0.2,0.2l0,0
			c-0.1,0.1-0.1,0.1-0.2,0.2l0,0c-0.1,0.1-0.1,0.1-0.2,0.2c0,0,0,0,0,0.1c-0.1,0.1-0.1,0.1-0.2,0.2c0,0,0,0.1-0.1,0.1
			c0,0.1-0.1,0.1-0.1,0.2c0,0,0,0.1-0.1,0.1c0,0.1-0.1,0.1-0.1,0.2l-0.1,0.1c0,0.1-0.1,0.1-0.1,0.2c0,0,0,0.1-0.1,0.1
			c0,0.1-0.1,0.1-0.1,0.2c0,0,0,0.1-0.1,0.1c0,0.1-0.1,0.2-0.1,0.3l0,0l0,0c0,0.1-0.1,0.2-0.1,0.3v0.1c0,0.1,0,0.1-0.1,0.2v0.1
			c0,0.1,0,0.1-0.1,0.2c0,0.1,0,0.1,0,0.2c0,0.1,0,0.2-0.1,0.2v0.1c0,0.1,0,0.2,0,0.2v0.1c0,0.1,0,0.2-0.1,0.4c0,0.1,0,0.3-0.1,0.4
			v0.1c0,0.1,0,0.2,0,0.2c0,0.1,0,0.1,0,0.2c0,0.1,0,0.2,0,0.2v0.1c0,0.1,0,0.2,0,0.2v0.1c0,0.1,0,0.2,0,0.2v0.1c0,0.1,0,0.2,0,0.4
			c0,0.1,0,0.2,0,0.4v0.1c0,0.1,0,0.2,0,0.2v0.1c0,0.1,0,0.1,0,0.2v0.1c0,0.1,0,0.1,0,0.2v0.1c0,0.1,0,0.1,0,0.2v0.1
			c0,0.1,0,0.2,0.1,0.3c0.9,3.2,3.7,4.3,6.7,3.8c0.1,0,0.2,0,0.3-0.1l0,0c0.1,0,0.2,0,0.3-0.1c0.1,0,0.1,0,0.2-0.1h0.1
			c0.1,0,0.1,0,0.2-0.1c0,0,0,0,0.1,0l0,0c0.1,0,0.1-0.1,0.2-0.1c0,0,0,0,0.1,0s0.1-0.1,0.2-0.1h0.1c0.1,0,0.1-0.1,0.2-0.1l0,0l0,0
			c0.1,0,0.1-0.1,0.2-0.1c0,0,0,0,0.1,0s0.1-0.1,0.2-0.1l0,0l0,0c0.1,0,0.1-0.1,0.2-0.1l0,0c0.1-0.1,0.1-0.1,0.2-0.2l0,0l0,0
			c0.1-0.1,0.1-0.1,0.2-0.2c0.1-0.1,0.1-0.1,0.2-0.2l0,0l0,0c0.1-0.1,0.1-0.1,0.2-0.2c0.1-0.1,0.1-0.1,0.1-0.2l0,0l0,0
			c0-0.1,0.1-0.1,0.1-0.2l0,0c-0.6,0.5-1.2,0.3-2,0.4c-3,0.6-4.7-0.8-5.6-2.6C-18.8,902-18.7,898.7-17.3,896.4L-17.3,896.4z"/>
		<path class="st4" d="M-8.6,904.4c-0.4,1.5-0.8,1.4-1.3,3.1c-0.2,0.2-0.2,0.5,0.1,0.6c0.3-0.1,0.6-0.1,0.8-0.3
			c0-0.2,0.2,0.1,0.3-0.1c0.3-0.3,0.3-0.7,0.5-1.1c0.1-0.3,0.3-0.7,0.5-1c-0.1-0.3-0.5-0.3-0.6-0.5c-0.2-0.2,0.1-1.6-0.1-1.9
			L-8.6,904.4z M-8.9,907.7C-8.9,907.8-8.9,907.7-8.9,907.7z M-8.9,907.8C-8.9,907.9-8.8,907.8-8.9,907.8z"/>
		<path class="st5" d="M-10.6,901.5c-0.3-0.7-0.7-1.3-1.1-1.8c-0.4-0.3-0.8-1-1.2-0.9c-0.5,0.2-0.2,1.4-0.1,2c0.2,0.8,0.8,1,1.2,1.6
			c0.4,0.8,1.2,1,1.3-0.1C-10.4,902.1-10.5,901.7-10.6,901.5L-10.6,901.5z"/>
		<g>
			<path class="st6" d="M-15.8,897.2c-0.1,0.2,0.2,0.3,0.3,0.2c0.2-0.1,0.2-0.3,0-0.4C-15.6,897-15.8,897-15.8,897.2L-15.8,897.2z"
				/>
			<path class="st6" d="M-14,896.3c-0.2,0,0.3,0.4,0.4,0.3C-13.6,896.5-13.9,896.2-14,896.3z"/>
			<path class="st6" d="M-18.4,900c0,0.2,0.2,0.1,0.1,0C-18.3,899.9-18.4,899.9-18.4,900z"/>
			<path class="st6" d="M-14.8,897.2c0,0.1-0.2,0.1-0.1,0.1c0.1,0.1,0.3,0.1,0.3-0.1H-14.8L-14.8,897.2L-14.8,897.2z"/>
			<path class="st6" d="M-15.9,901.8c0.1,0.1,0.3,0.1,0.4,0c0-0.2-0.3-0.3-0.4-0.2C-16,901.8-15.9,901.6-15.9,901.8L-15.9,901.8
				L-15.9,901.8z"/>
			<path class="st6" d="M-14.4,900c-0.1,0.2,0.2,0.4,0.3,0.2C-14.1,900-14.3,899.8-14.4,900z"/>
			<path class="st7" d="M-19,901.4c0,0.2,0.1,0.3,0.2,0.1c0.1-0.3,0-0.5-0.1-0.3S-18.9,901.2-19,901.4
				C-18.9,901.4-19,901.4-19,901.4L-19,901.4z"/>
			<path class="st8" d="M-18.8,905.8c0.2,0.2,0.3,0.2,0.2,0c-0.1-0.4-0.4-0.5-0.3-0.3s0-0.1,0.1,0.1
				C-18.8,905.7-18.8,905.8-18.8,905.8L-18.8,905.8z"/>
		</g>
	</g>
</g>
<g transform="translate(0 -892.36)">
	<g transform="matrix(.68738 0 0 .68738 23.259 304.63)">
		<path class="st2" d="M23.9,905.9c-0.1,2.7-2.3,5.4-5.3,5.4s-5.5-1.7-5.8-5s2-9.2,5.5-9.4C21.8,896.8,24,902,23.9,905.9L23.9,905.9
			z"/>
		<path class="st3" d="M16.7,897.3L16.7,897.3c-0.1,0-0.2,0.1-0.2,0.1l0,0c-0.1,0-0.1,0.1-0.2,0.1l0,0c-0.1,0.1-0.1,0.1-0.2,0.2l0,0
			c-0.1,0.1-0.1,0.1-0.2,0.2c0,0,0,0-0.1,0c-0.1,0.1-0.1,0.1-0.2,0.2l-0.1,0.1c0,0.1-0.1,0.1-0.1,0.2l-0.1,0.1c0,0-0.1,0.1-0.1,0.2
			l-0.1,0.1c0,0.1-0.1,0.1-0.1,0.2l-0.1,0.1c0,0.1-0.1,0.1-0.1,0.2l-0.1,0.1c-0.1,0.1-0.1,0.2-0.2,0.3l0,0l0,0
			c-0.1,0.1-0.1,0.2-0.2,0.3c0,0,0,0.1-0.1,0.1c0,0.1-0.1,0.1-0.1,0.2c0,0,0,0.1-0.1,0.1c0,0.1-0.1,0.1-0.1,0.2c0,0,0,0.1-0.1,0.1
			c0,0.1-0.1,0.1-0.1,0.2c0,0,0,0.1-0.1,0.1c0,0.1-0.1,0.1-0.1,0.2c0,0,0,0.1-0.1,0.1c0,0.1-0.1,0.2-0.1,0.4c0,0.1-0.1,0.2-0.1,0.4
			v0.1c0,0.1,0,0.2-0.1,0.2c0,0.1,0,0.1,0,0.2c0,0.1,0,0.1-0.1,0.2v0.1c0,0.1,0,0.1-0.1,0.2v0.1c0,0.1,0,0.1,0,0.2v0.1
			c0,0.1,0,0.2-0.1,0.3c0,0.1,0,0.2,0,0.3v0.1c0,0.1,0,0.2,0,0.2v0.1c0,0.1,0,0.1,0,0.2v0.1c0,0.1,0,0.1,0,0.2v0.1
			c0,0.1,0,0.1,0,0.2v0.1c0,0.1,0,0.2,0,0.3c0.3,3.3,2.8,5,5.8,5c0.1,0,0.2,0,0.3,0l0,0c0.1,0,0.2,0,0.3,0c0.1,0,0.1,0,0.2,0h0.1
			c0.1,0,0.1,0,0.2,0h0.1l0,0c0.1,0,0.1,0,0.2,0c0,0,0,0,0.1,0s0.1,0,0.2-0.1h0.1c0.1,0,0.1-0.1,0.2-0.1l0,0l0,0
			c0.1,0,0.1,0,0.2-0.1c0,0,0,0,0.1,0s0.1-0.1,0.2-0.1l0,0l0,0c0.1,0,0.1-0.1,0.2-0.1l0,0c0.1,0,0.1-0.1,0.2-0.1l0,0l0,0
			c0.1,0,0.1-0.1,0.2-0.1s0.1-0.1,0.2-0.2l0,0l0,0c0.1-0.1,0.1-0.1,0.2-0.2c0.1-0.1,0.1-0.1,0.2-0.2l0,0l0,0
			c0.1-0.1,0.1-0.1,0.2-0.2l0,0c-0.7,0.4-1.2,0-2.1,0c-3,0-4.5-1.7-5-3.7C14.1,902.6,14.8,899.3,16.7,897.3L16.7,897.3z"/>
		<path class="st4" d="M23.6,906.9c-0.7,1.4-1,1.3-1.8,2.8c-0.2,0.2-0.3,0.5,0,0.6c0.3,0,0.6,0,0.8-0.2c0.1-0.2,0.1,0.1,0.3,0
			c0.4-0.2,0.5-0.6,0.7-0.9c0.2-0.3,0.4-0.6,0.7-0.9c0-0.3-0.4-0.4-0.5-0.6c-0.2-0.3,0.4-1.5,0.3-1.8L23.6,906.9z M22.7,910.1
			L22.7,910.1z M22.7,910.1C22.7,910.2,22.8,910.2,22.7,910.1z"/>
		<path class="st5" d="M22.2,903.6c-0.1-0.7-0.4-1.4-0.7-2c-0.3-0.4-0.6-1.2-1-1.1c-0.5,0.1-0.5,1.3-0.5,2c0.1,0.8,0.6,1.2,0.9,1.8
			c0.2,0.9,1,1.2,1.3,0.2C22.3,904.3,22.3,903.9,22.2,903.6L22.2,903.6z"/>
		<g>
			<path class="st6" d="M18,898.4c-0.1,0.1,0.1,0.3,0.3,0.3c0.2-0.1,0.2-0.3,0-0.4C18.2,898.3,18,898.3,18,898.4L18,898.4z"/>
			<path class="st6" d="M19.9,897.9c-0.2,0,0.2,0.4,0.3,0.4C20.3,898.2,20,897.9,19.9,897.9z"/>
			<path class="st6" d="M14.9,900.7c0,0.2,0.1,0.2,0.1,0C15,900.6,14.9,900.6,14.9,900.7z"/>
			<path class="st6" d="M18.9,898.6c0,0.1-0.2,0-0.1,0.1s0.2,0.1,0.3,0C19.2,898.7,19,898.7,18.9,898.6L18.9,898.6L18.9,898.6z"/>
			<path class="st6" d="M16.9,902.9c0.1,0.2,0.3,0.2,0.4,0.1c0.1-0.2-0.2-0.4-0.3-0.2C16.9,902.9,17,902.7,16.9,902.9
				C17,902.9,17,902.9,16.9,902.9L16.9,902.9z"/>
			<path class="st6" d="M18.8,901.4c-0.2,0.2,0.2,0.4,0.2,0.2C19.1,901.5,18.9,901.3,18.8,901.4z"/>
			<path class="st7" d="M14,902c-0.1,0.2,0,0.3,0.1,0.2c0.2-0.3,0.1-0.5,0-0.3C14.1,901.9,14.2,901.8,14,902
				C14.1,901.9,14.1,902,14,902L14,902z"/>
			<path class="st8" d="M13.4,906.3c0.1,0.2,0.2,0.3,0.2,0.1c-0.1-0.4-0.3-0.6-0.3-0.3c0,0.2,0-0.1,0,0.2
				C13.4,906.2,13.4,906.3,13.4,906.3L13.4,906.3z"/>
		</g>
	</g>
</g>
<g transform="translate(0 -892.36)">
	<g transform="matrix(.68738 0 0 .68738 23.259 304.63)">
		<path class="st2" d="M7.6,907.4c-0.1,2.7-2.3,5.4-5.3,5.4s-5.5-1.7-5.8-5s2-9.2,5.5-9.4C5.5,898.3,7.7,903.5,7.6,907.4L7.6,907.4z
			"/>
		<path class="st3" d="M0.4,898.8L0.4,898.8c-0.1,0-0.2,0.1-0.2,0.1l0,0C0,899,0,899-0.1,899.1l0,0c-0.1,0.1-0.1,0.1-0.2,0.2l0,0
			c-0.1,0.1-0.1,0.1-0.2,0.2c0,0,0,0-0.1,0c-0.1,0.1-0.1,0.1-0.2,0.2l-0.1,0.1c0,0.1-0.1,0.1-0.1,0.2l-0.1,0.1c0,0-0.1,0.1-0.1,0.2
			l-0.1,0.1c0,0.1-0.1,0.1-0.1,0.2l-0.1,0.1c0,0.1-0.1,0.1-0.1,0.2l-0.1,0.1c-0.1,0.1-0.1,0.2-0.2,0.3l0,0l0,0
			c-0.1,0.1-0.1,0.2-0.2,0.3c0,0,0,0.1-0.1,0.1c0,0.1-0.1,0.1-0.1,0.2c0,0,0,0.1-0.1,0.1c0,0.1-0.1,0.1-0.1,0.2c0,0,0,0.1-0.1,0.1
			c0,0.1-0.1,0.1-0.1,0.2c0,0,0,0.1-0.1,0.1c0,0.1-0.1,0.1-0.1,0.2c0,0,0,0.1-0.1,0.1c0,0.1-0.1,0.2-0.1,0.4c0,0.1-0.1,0.2-0.1,0.4
			v0.1c0,0.1,0,0.2-0.1,0.2c0,0.1,0,0.1,0,0.2c0,0.1,0,0.1-0.1,0.2v0.1c0,0.1,0,0.1-0.1,0.2v0.1c0,0.1,0,0.1,0,0.2v0.1
			c0,0.1,0,0.2-0.1,0.3c0,0.1,0,0.2,0,0.3v0.1c0,0.1,0,0.2,0,0.2v0.1c0,0.1,0,0.1,0,0.2v0.1c0,0.1,0,0.1,0,0.2v0.1
			c0,0.1,0,0.1,0,0.2v0.1c0,0.1,0,0.2,0,0.3c0.3,3.3,2.8,5,5.8,5c0.1,0,0.2,0,0.3,0l0,0c0.1,0,0.2,0,0.3,0s0.1,0,0.2,0h0.1
			c0.1,0,0.1,0,0.2,0h0.1l0,0c0.1,0,0.1,0,0.2,0c0,0,0,0,0.1,0s0.1,0,0.2-0.1H4c0.1,0,0.1-0.1,0.2-0.1l0,0l0,0c0.1,0,0.1,0,0.2-0.1
			c0,0,0,0,0.1,0s0.1-0.1,0.2-0.1l0,0l0,0c0.1,0,0.1-0.1,0.2-0.1l0,0c0.1,0,0.1-0.1,0.2-0.1l0,0l0,0c0.1,0,0.1-0.1,0.2-0.1
			s0.1-0.1,0.2-0.2l0,0l0,0c0.1-0.1,0.1-0.1,0.2-0.2c0.1-0.1,0.1-0.1,0.2-0.2l0,0l0,0c0.1-0.1,0.1-0.1,0.2-0.2l0,0
			c-0.7,0.4-1.2,0-2.1,0c-3,0-4.5-1.7-5-3.7C-2.2,904-1.5,900.8,0.4,898.8L0.4,898.8z"/>
		<path class="st4" d="M7.3,908.4c-0.7,1.4-1,1.3-1.8,2.8c-0.2,0.2-0.3,0.5,0,0.6c0.3,0,0.6,0,0.8-0.2c0.1-0.2,0.1,0.1,0.3,0
			c0.4-0.2,0.5-0.6,0.7-0.9c0.2-0.3,0.4-0.6,0.7-0.9c0-0.3-0.4-0.4-0.5-0.6c-0.2-0.3,0.4-1.5,0.3-1.8L7.3,908.4z M6.4,911.6
			C6.3,911.6,6.4,911.6,6.4,911.6z M6.4,911.6C6.4,911.7,6.5,911.7,6.4,911.6z"/>
		<path class="st5" d="M5.9,905.1c-0.1-0.7-0.4-1.4-0.7-2c-0.3-0.4-0.6-1.2-1-1.1c-0.5,0.1-0.5,1.3-0.5,2c0.1,0.8,0.6,1.2,0.9,1.8
			c0.2,0.9,1,1.2,1.3,0.2C6,905.7,6,905.4,5.9,905.1L5.9,905.1z"/>
		<g>
			<path class="st6" d="M1.7,899.9c-0.1,0.1,0.1,0.3,0.3,0.3c0.2-0.1,0.2-0.3,0-0.4C1.9,899.7,1.7,899.7,1.7,899.9L1.7,899.9z"/>
			<path class="st6" d="M3.6,899.3c-0.2,0,0.2,0.4,0.3,0.4C4,899.6,3.7,899.3,3.6,899.3z"/>
			<path class="st6" d="M-1.4,902.2c0,0.2,0.1,0.2,0.1,0C-1.3,902.1-1.4,902.1-1.4,902.2z"/>
			<path class="st6" d="M2.6,900.1C2.6,900.2,2.4,900.1,2.6,900.1c0,0.2,0.1,0.2,0.2,0.1C2.8,900.1,2.7,900.1,2.6,900.1L2.6,900.1
				L2.6,900.1z"/>
			<path class="st6" d="M0.6,904.4c0.1,0.2,0.3,0.2,0.4,0.1c0.1-0.2-0.2-0.4-0.3-0.2C0.6,904.4,0.7,904.2,0.6,904.4
				C0.7,904.4,0.7,904.4,0.6,904.4L0.6,904.4z"/>
			<path class="st6" d="M2.5,902.9c-0.2,0.2,0.2,0.4,0.2,0.2C2.8,903,2.6,902.8,2.5,902.9z"/>
			<path class="st7" d="M-2.3,903.5c-0.1,0.2,0,0.3,0.1,0.2C-2,903.4-2.1,903.2-2.3,903.5C-2.2,903.4-2.1,903.2-2.3,903.5
				C-2.2,903.4-2.3,903.4-2.3,903.5L-2.3,903.5z"/>
			<path class="st8" d="M-2.9,907.8c0.1,0.2,0.2,0.3,0.2,0.1c-0.1-0.4-0.3-0.6-0.3-0.3C-3,907.8-3,907.5-2.9,907.8
				C-2.9,907.7-2.9,907.8-2.9,907.8L-2.9,907.8z"/>
		</g>
	</g>
</g>
<g transform="translate(0 -892.36)">
	<g transform="matrix(.68738 0 0 .68738 23.259 304.63)">
		<path class="st2" d="M18.5,909.4c-0.1,2.7-2.3,5.4-5.3,5.4s-5.5-1.7-5.8-5s2-9.2,5.5-9.4C16.4,900.3,18.6,905.5,18.5,909.4
			L18.5,909.4z"/>
		<path class="st3" d="M11.3,900.8L11.3,900.8c-0.1,0-0.2,0.1-0.2,0.1l0,0c-0.1,0-0.1,0.1-0.2,0.1l0,0c-0.1,0.1-0.1,0.1-0.2,0.2l0,0
			c-0.1,0.1-0.1,0.1-0.2,0.2c0,0,0,0-0.1,0c-0.1,0.1-0.1,0.1-0.2,0.2l-0.1,0.1c0,0.1-0.1,0.1-0.1,0.2L9.9,902c0,0-0.1,0.1-0.1,0.2
			l-0.1,0.1c0,0.1-0.1,0.1-0.1,0.2l-0.1,0.1c0,0.1-0.1,0.1-0.1,0.2l-0.1,0.1c-0.1,0.1-0.1,0.2-0.2,0.3l0,0l0,0
			c-0.1,0.1-0.1,0.2-0.2,0.3c0,0,0,0.1-0.1,0.1c0,0.1-0.1,0.1-0.1,0.2c0,0,0,0.1-0.1,0.1c0,0.1-0.1,0.1-0.1,0.2c0,0,0,0.1-0.1,0.1
			c0,0.1-0.1,0.1-0.1,0.2c0,0,0,0.1-0.1,0.1c0,0.1-0.1,0.1-0.1,0.2c0,0,0,0.1-0.1,0.1c0,0.1-0.1,0.2-0.1,0.4c0,0.1-0.1,0.2-0.1,0.4
			v0.1c0,0.1,0,0.2-0.1,0.2c0,0.1,0,0.1,0,0.2c0,0.1,0,0.1-0.1,0.2v0.1c0,0.1,0,0.1-0.1,0.2v0.1c0,0.1,0,0.1,0,0.2v0.1
			c0,0.1,0,0.2-0.1,0.3c0,0.1,0,0.2,0,0.3v0.1c0,0.1,0,0.2,0,0.2v0.1c0,0.1,0,0.1,0,0.2v0.1c0,0.1,0,0.1,0,0.2v0.1
			c0,0.1,0,0.1,0,0.2v0.1c0,0.1,0,0.2,0,0.3c0.3,3.3,2.8,5,5.8,5c0.1,0,0.2,0,0.3,0l0,0c0.1,0,0.2,0,0.3,0s0.1,0,0.2,0h0.1
			c0.1,0,0.1,0,0.2,0h0.1l0,0c0.1,0,0.1,0,0.2,0c0,0,0,0,0.1,0s0.1,0,0.2-0.1H15c0.1,0,0.1-0.1,0.2-0.1l0,0l0,0c0.1,0,0.1,0,0.2-0.1
			c0,0,0,0,0.1,0s0.1-0.1,0.2-0.1l0,0l0,0c0.1,0,0.1-0.1,0.2-0.1l0,0c0.1,0,0.1-0.1,0.2-0.1l0,0l0,0c0.1,0,0.1-0.1,0.2-0.1
			s0.1-0.1,0.2-0.2l0,0l0,0c0.1-0.1,0.1-0.1,0.2-0.2c0.1-0.1,0.1-0.1,0.2-0.2l0,0l0,0c0.1-0.1,0.1-0.1,0.2-0.2l0,0
			c-0.7,0.4-1.2,0-2.1,0c-3,0-4.5-1.7-5-3.7C8.7,906.1,9.4,902.8,11.3,900.8L11.3,900.8z"/>
		<path class="st4" d="M18.2,910.4c-0.7,1.4-1,1.3-1.8,2.8c-0.2,0.2-0.3,0.5,0,0.6c0.3,0,0.6,0,0.8-0.2c0.1-0.2,0.1,0.1,0.3,0
			c0.4-0.2,0.5-0.6,0.7-0.9c0.2-0.3,0.4-0.6,0.7-0.9c0-0.3-0.4-0.4-0.5-0.6c-0.2-0.3,0.4-1.5,0.3-1.8L18.2,910.4z M17.3,913.6
			C17.2,913.6,17.3,913.6,17.3,913.6z M17.3,913.6C17.3,913.7,17.4,913.7,17.3,913.6z"/>
		<path class="st5" d="M16.8,907.1c-0.1-0.7-0.4-1.4-0.7-2c-0.3-0.4-0.6-1.2-1-1.1c-0.5,0.1-0.5,1.3-0.5,2c0.1,0.8,0.6,1.2,0.9,1.8
			c0.2,0.9,1,1.2,1.3,0.2C16.9,907.7,16.9,907.4,16.8,907.1L16.8,907.1z"/>
		<g>
			<path class="st6" d="M12.6,901.9c-0.1,0.1,0.1,0.3,0.3,0.3c0.2-0.1,0.2-0.3,0-0.4C12.8,901.7,12.6,901.7,12.6,901.9L12.6,901.9z"
				/>
			<path class="st6" d="M14.5,901.3c-0.2,0,0.2,0.4,0.3,0.4C14.9,901.6,14.6,901.3,14.5,901.3z"/>
			<path class="st6" d="M9.5,904.2c0,0.2,0.1,0.2,0.1,0C9.6,904.1,9.5,904.1,9.5,904.2z"/>
			<path class="st6" d="M13.5,902.1c0,0.1-0.2,0-0.1,0.1c0.1,0.1,0.2,0.1,0.3,0C13.7,902.1,13.6,902.1,13.5,902.1L13.5,902.1
				L13.5,902.1z"/>
			<path class="st6" d="M11.5,906.4c0.1,0.2,0.3,0.2,0.4,0.1c0.1-0.2-0.2-0.4-0.3-0.2C11.5,906.4,11.6,906.2,11.5,906.4
				C11.6,906.4,11.6,906.4,11.5,906.4L11.5,906.4z"/>
			<path class="st6" d="M13.4,904.9c-0.2,0.2,0.2,0.4,0.2,0.2C13.7,905,13.5,904.8,13.4,904.9z"/>
			<path class="st7" d="M8.6,905.5c-0.1,0.2,0,0.3,0.1,0.2c0.2-0.3,0.1-0.5,0-0.3C8.7,905.4,8.8,905.2,8.6,905.5
				C8.7,905.4,8.6,905.5,8.6,905.5L8.6,905.5z"/>
			<path class="st8" d="M8,909.8c0.1,0.2,0.2,0.3,0.2,0.1c-0.1-0.4-0.3-0.6-0.3-0.3c0,0.2,0-0.1,0,0.2C8,909.7,8,909.8,8,909.8
				L8,909.8z"/>
		</g>
	</g>
</g>
<g transform="translate(0 -892.36)">
	<g transform="matrix(.68738 0 0 .68738 23.259 304.63)">
		<path class="st2" d="M1.1,908.9c-0.1,2.7-2.3,5.4-5.3,5.4s-5.5-1.7-5.8-5c-0.3-3.3,2-9.2,5.5-9.4C-1,899.8,1.3,905,1.1,908.9
			L1.1,908.9z"/>
		<path class="st3" d="M-6.1,900.3L-6.1,900.3c-0.1,0-0.2,0.1-0.2,0.1l0,0c-0.1,0-0.1,0.1-0.2,0.1l0,0c-0.1,0.1-0.1,0.1-0.2,0.2l0,0
			c-0.1,0.1-0.1,0.1-0.2,0.2c0,0,0,0-0.1,0c-0.1,0.1-0.1,0.1-0.2,0.2l-0.1,0.1c0,0.1-0.1,0.1-0.1,0.2l-0.1,0.1c0,0-0.1,0.1-0.1,0.2
			l-0.1,0.1c0,0.1-0.1,0.1-0.1,0.2l-0.1,0.1c0,0.1-0.1,0.1-0.1,0.2l-0.1,0.1c-0.1,0.1-0.1,0.2-0.2,0.3l0,0l0,0
			c-0.1,0.1-0.1,0.2-0.2,0.3c0,0,0,0.1-0.1,0.1c0,0.1-0.1,0.1-0.1,0.2c0,0,0,0.1-0.1,0.1c0,0.1-0.1,0.1-0.1,0.2c0,0,0,0.1-0.1,0.1
			c0,0.1-0.1,0.1-0.1,0.2c0,0,0,0.1-0.1,0.1c0,0.1-0.1,0.1-0.1,0.2c0,0,0,0.1-0.1,0.1c0,0.1-0.1,0.2-0.1,0.4c0,0.1-0.1,0.2-0.1,0.4
			v0.1c0,0.1,0,0.2-0.1,0.2c0,0.1,0,0.1,0,0.2c0,0.1,0,0.1-0.1,0.2v0.1c0,0.1,0,0.1-0.1,0.2v0.1c0,0.1,0,0.1,0,0.2v0.1
			c0,0.1,0,0.2-0.1,0.3c0,0.1,0,0.2,0,0.3v0.1c0,0.1,0,0.2,0,0.2v0.1c0,0.1,0,0.1,0,0.2v0.1c0,0.1,0,0.1,0,0.2v0.1
			c0,0.1,0,0.1,0,0.2v0.1c0,0.1,0,0.2,0,0.3c0.3,3.3,2.8,5,5.8,5c0.1,0,0.2,0,0.3,0l0,0c0.1,0,0.2,0,0.3,0s0.1,0,0.2,0h0.1
			c0.1,0,0.1,0,0.2,0H-3l0,0c0.1,0,0.1,0,0.2,0c0,0,0,0,0.1,0s0.1,0,0.2-0.1h0.1c0.1,0,0.1-0.1,0.2-0.1l0,0l0,0c0.1,0,0.1,0,0.2-0.1
			c0,0,0,0,0.1,0c0.1,0,0.1-0.1,0.2-0.1l0,0l0,0c0.1,0,0.1-0.1,0.2-0.1l0,0c0.1,0,0.1-0.1,0.2-0.1l0,0l0,0c0.1,0,0.1-0.1,0.2-0.1
			s0.1-0.1,0.2-0.2l0,0l0,0c0.1-0.1,0.1-0.1,0.2-0.2c0.1-0.1,0.1-0.1,0.2-0.2l0,0l0,0c0.1-0.1,0.1-0.1,0.2-0.2l0,0
			c-0.7,0.4-1.2,0-2.1,0c-3,0-4.5-1.7-5-3.7C-8.7,905.6-8,902.3-6.1,900.3L-6.1,900.3z"/>
		<path class="st4" d="M0.9,909.9c-0.7,1.4-1,1.3-1.8,2.8c-0.2,0.2-0.3,0.5,0,0.6c0.3,0,0.6,0,0.8-0.2c0.1-0.2,0.1,0.1,0.3,0
			c0.4-0.2,0.5-0.6,0.7-0.9c0.2-0.3,0.4-0.6,0.7-0.9c0-0.3-0.4-0.4-0.5-0.6c-0.2-0.3,0.4-1.5,0.3-1.8L0.9,909.9z M-0.1,913.1
			L-0.1,913.1z M-0.1,913.1C-0.1,913.2,0,913.2-0.1,913.1z"/>
		<path class="st5" d="M-0.5,906.6c-0.1-0.7-0.4-1.4-0.7-2c-0.3-0.4-0.6-1.2-1-1.1c-0.5,0.1-0.5,1.3-0.5,2c0.1,0.8,0.6,1.2,0.9,1.8
			c0.2,0.9,1,1.2,1.3,0.2C-0.5,907.3-0.5,906.9-0.5,906.6L-0.5,906.6z"/>
		<g>
			<path class="st6" d="M-4.8,901.4c-0.1,0.1,0.1,0.3,0.3,0.3c0.2-0.1,0.2-0.3,0-0.4C-4.5,901.3-4.8,901.3-4.8,901.4L-4.8,901.4z"/>
			<path class="st6" d="M-2.9,900.9c-0.2,0,0.2,0.4,0.3,0.4C-2.5,901.2-2.7,900.9-2.9,900.9z"/>
			<path class="st6" d="M-7.9,903.7C-7.9,903.9-7.8,903.9-7.9,903.7C-7.8,903.6-7.9,903.6-7.9,903.7z"/>
			<path class="st6" d="M-3.8,901.6C-3.8,901.7-4,901.6-3.8,901.6c0,0.2,0.1,0.2,0.2,0.1C-3.6,901.7-3.8,901.7-3.8,901.6L-3.8,901.6
				L-3.8,901.6z"/>
			<path class="st6" d="M-5.8,906c0.1,0.2,0.3,0.2,0.4,0.1c0.1-0.2-0.2-0.4-0.3-0.2C-5.8,905.9-5.7,905.8-5.8,906
				C-5.8,905.9-5.8,906-5.8,906L-5.8,906z"/>
			<path class="st6" d="M-4,904.5c-0.2,0.2,0.2,0.4,0.2,0.2C-3.7,904.5-3.9,904.3-4,904.5z"/>
			<path class="st7" d="M-8.7,905c-0.1,0.2,0,0.3,0.1,0.2c0.2-0.3,0.1-0.5,0-0.3C-8.7,904.9-8.6,904.8-8.7,905
				C-8.7,904.9-8.7,905-8.7,905L-8.7,905z"/>
			<path class="st8" d="M-9.4,909.3c0.1,0.2,0.2,0.3,0.2,0.1c-0.1-0.4-0.3-0.6-0.3-0.3c0,0.2,0-0.1,0,0.2
				C-9.4,909.2-9.4,909.3-9.4,909.3L-9.4,909.3z"/>
		</g>
	</g>
</g>
<g transform="translate(0 -892.36)">
	<g transform="matrix(.68738 0 0 .68738 23.259 304.63)">
		<path class="st2" d="M11.4,909.9c-0.1,2.7-2.3,5.4-5.3,5.4s-5.5-1.7-5.8-5s2-9.2,5.5-9.4C9.3,900.8,11.5,906,11.4,909.9
			L11.4,909.9z"/>
		<path class="st3" d="M4.1,901.3L4.1,901.3c-0.1,0-0.2,0.1-0.2,0.1l0,0c-0.1,0-0.1,0.1-0.2,0.1l0,0c-0.1,0.1-0.1,0.1-0.2,0.2l0,0
			c-0.1,0.1-0.1,0.1-0.2,0.2c0,0,0,0-0.1,0C3.1,902,3.1,902,3,902.1l-0.1,0.1c0,0.1-0.1,0.1-0.1,0.2l-0.1,0.1c0,0-0.1,0.1-0.1,0.2
			l-0.1,0.1c0,0.1-0.1,0.1-0.1,0.2l-0.1,0.1c0,0.1-0.1,0.1-0.1,0.2l-0.1,0.1c-0.1,0.1-0.1,0.2-0.2,0.3l0,0l0,0
			c-0.1,0.1-0.1,0.2-0.2,0.3c0,0,0,0.1-0.1,0.1c0,0.1-0.1,0.1-0.1,0.2c0,0,0,0.1-0.1,0.1c0,0.1-0.1,0.1-0.1,0.2c0,0,0,0.1-0.1,0.1
			c0,0.1-0.1,0.1-0.1,0.2c0,0,0,0.1-0.1,0.1c0,0.1-0.1,0.1-0.1,0.2c0,0,0,0.1-0.1,0.1c0,0.1-0.1,0.2-0.1,0.4c0,0.1-0.1,0.2-0.1,0.4
			v0.1c0,0.1,0,0.2-0.1,0.2c0,0.1,0,0.1,0,0.2c0,0.1,0,0.1-0.1,0.2v0.1c0,0.1,0,0.1-0.1,0.2v0.1c0,0.1,0,0.1,0,0.2v0.1
			c0,0.1,0,0.2-0.1,0.3c0,0.1,0,0.2,0,0.3v0.1c0,0.1,0,0.2,0,0.2v0.1c0,0.1,0,0.1,0,0.2v0.1c0,0.1,0,0.1,0,0.2v0.1
			c0,0.1,0,0.1,0,0.2v0.1c0,0.1,0,0.2,0,0.3c0.3,3.3,2.8,5,5.8,5c0.1,0,0.2,0,0.3,0l0,0c0.1,0,0.2,0,0.3,0c0.1,0,0.1,0,0.2,0h0.1
			c0.1,0,0.1,0,0.2,0h0.1l0,0c0.1,0,0.1,0,0.2,0c0,0,0,0,0.1,0s0.1,0,0.2-0.1h0.1c0.1,0,0.1-0.1,0.2-0.1l0,0l0,0
			c0.1,0,0.1,0,0.2-0.1c0,0,0,0,0.1,0s0.1-0.1,0.2-0.1l0,0l0,0c0.1,0,0.1-0.1,0.2-0.1l0,0c0.1,0,0.1-0.1,0.2-0.1l0,0l0,0
			c0.1,0,0.1-0.1,0.2-0.1c0.1,0,0.1-0.1,0.2-0.2l0,0l0,0c0.1-0.1,0.1-0.1,0.2-0.2c0.1-0.1,0.1-0.1,0.2-0.2l0,0l0,0
			c0.1-0.1,0.1-0.1,0.2-0.2l0,0c-0.7,0.4-1.2,0-2.1,0c-3,0-4.5-1.7-5-3.7C1.6,906.6,2.3,903.3,4.1,901.3L4.1,901.3z"/>
		<path class="st4" d="M11.1,910.9c-0.7,1.4-1,1.3-1.8,2.8c-0.2,0.2-0.3,0.5,0,0.6c0.3,0,0.6,0,0.8-0.2c0.1-0.2,0.1,0.1,0.3,0
			c0.4-0.2,0.5-0.6,0.7-0.9c0.2-0.3,0.4-0.6,0.7-0.9c0-0.3-0.4-0.4-0.5-0.6c-0.2-0.3,0.4-1.5,0.3-1.8L11.1,910.9z M10.2,914.1
			C10.1,914.1,10.2,914.1,10.2,914.1z M10.2,914.1C10.1,914.2,10.3,914.2,10.2,914.1z"/>
		<path class="st5" d="M9.7,907.6c-0.1-0.7-0.4-1.4-0.7-2c-0.3-0.4-0.6-1.2-1-1.1c-0.5,0.1-0.5,1.3-0.5,2c0.1,0.8,0.6,1.2,0.9,1.8
			c0.2,0.9,1,1.2,1.3,0.2C9.8,908.2,9.8,907.9,9.7,907.6L9.7,907.6z"/>
		<g>
			<path class="st6" d="M5.5,902.4c-0.1,0.1,0.1,0.3,0.3,0.3c0.2-0.1,0.2-0.3,0-0.4C5.7,902.2,5.5,902.2,5.5,902.4L5.5,902.4z"/>
			<path class="st6" d="M7.4,901.8c-0.2,0,0.2,0.4,0.3,0.4C7.8,902.1,7.5,901.8,7.4,901.8z"/>
			<path class="st6" d="M2.3,904.7C2.3,904.9,2.4,904.9,2.3,904.7C2.5,904.6,2.4,904.6,2.3,904.7z"/>
			<path class="st6" d="M6.4,902.6C6.4,902.7,6.2,902.6,6.4,902.6c0,0.2,0.1,0.2,0.2,0.1C6.6,902.7,6.5,902.6,6.4,902.6L6.4,902.6
				L6.4,902.6z"/>
			<path class="st6" d="M4.4,906.9c0.1,0.2,0.3,0.2,0.4,0.1c0.1-0.2-0.2-0.4-0.3-0.2C4.4,906.9,4.5,906.7,4.4,906.9L4.4,906.9
				L4.4,906.9z"/>
			<path class="st6" d="M6.3,905.4c-0.2,0.2,0.2,0.4,0.2,0.2C6.6,905.5,6.4,905.3,6.3,905.4z"/>
			<path class="st7" d="M1.5,906c-0.1,0.2,0,0.3,0.1,0.2c0.2-0.3,0.1-0.5,0-0.3C1.5,905.9,1.7,905.7,1.5,906
				C1.5,905.9,1.5,906,1.5,906L1.5,906z"/>
			<path class="st8" d="M0.8,910.3c0.1,0.2,0.2,0.3,0.2,0.1c0-0.4-0.2-0.6-0.2-0.4S0.8,909.9,0.8,910.3
				C0.8,910.2,0.9,910.3,0.8,910.3L0.8,910.3z"/>
		</g>
	</g>
</g>
<g transform="translate(0 -892.36)">
	<g transform="matrix(.68738 0 0 .68738 23.259 304.63)">
		<path class="st2" d="M5.3,910.3C5.2,913,3,915.7,0,915.7s-5.5-1.7-5.8-5s2-9.2,5.5-9.4C3.2,901.2,5.4,906.4,5.3,910.3L5.3,910.3z"
			/>
		<path class="st3" d="M-1.9,901.7L-1.9,901.7c-0.1,0-0.2,0.1-0.2,0.1l0,0c-0.1,0-0.1,0.1-0.2,0.1l0,0c-0.1,0.1-0.1,0.1-0.2,0.2l0,0
			c-0.1,0.1-0.1,0.1-0.2,0.2c0,0,0,0-0.1,0c-0.1,0.1-0.1,0.1-0.2,0.2l-0.1,0.1c0,0.1-0.1,0.1-0.1,0.2l-0.1,0.1c0,0-0.1,0.1-0.1,0.2
			l-0.1,0.1c0,0.1-0.1,0.1-0.1,0.2l-0.1,0.1c0,0.1-0.1,0.1-0.1,0.2l-0.1,0.1c-0.1,0.1-0.1,0.2-0.2,0.3l0,0l0,0
			c-0.1,0.1-0.1,0.2-0.2,0.3c0,0,0,0.1-0.1,0.1c0,0.1-0.1,0.1-0.1,0.2c0,0,0,0.1-0.1,0.1c0,0.1-0.1,0.1-0.1,0.2c0,0,0,0.1-0.1,0.1
			c0,0.1-0.1,0.1-0.1,0.2c0,0,0,0.1-0.1,0.1c0,0.1-0.1,0.1-0.1,0.2c0,0,0,0.1-0.1,0.1c0,0.1-0.1,0.2-0.1,0.4c0,0.1-0.1,0.2-0.1,0.4
			v0.1c0,0.1,0,0.2-0.1,0.2c0,0.1,0,0.1,0,0.2c0,0.1,0,0.1-0.1,0.2v0.1c0,0.1,0,0.1-0.1,0.2v0.1c0,0.1,0,0.1,0,0.2v0.1
			c0,0.1,0,0.2-0.1,0.3c0,0.1,0,0.2,0,0.3v0.1c0,0.1,0,0.2,0,0.2v0.1c0,0.1,0,0.1,0,0.2v0.1c0,0.1,0,0.1,0,0.2v0.1
			c0,0.1,0,0.1,0,0.2v0.1c0,0.1,0,0.2,0,0.3c0.3,3.3,2.8,5,5.8,5c0.1,0,0.2,0,0.3,0l0,0c0.1,0,0.2,0,0.3,0s0.1,0,0.2,0h0.1
			c0.1,0,0.1,0,0.2,0h0.1l0,0c0.1,0,0.1,0,0.2,0c0,0,0,0,0.1,0s0.1,0,0.2-0.1h0.1c0.1,0,0.1-0.1,0.2-0.1l0,0l0,0
			c0.1,0,0.1,0,0.2-0.1c0,0,0,0,0.1,0s0.1-0.1,0.2-0.1l0,0l0,0c0.1,0,0.1-0.1,0.2-0.1l0,0c0.1,0,0.1-0.1,0.2-0.1l0,0l0,0
			c0.1,0,0.1-0.1,0.2-0.1c0.1,0,0.1-0.1,0.2-0.2l0,0l0,0c0.1-0.1,0.1-0.1,0.2-0.2c0.1-0.1,0.1-0.1,0.2-0.2l0,0l0,0
			c0.1-0.1,0.1-0.1,0.2-0.2l0,0c-0.7,0.4-1.2,0-2.1,0c-3,0-4.5-1.7-5-3.7C-4.5,907-3.8,903.7-1.9,901.7L-1.9,901.7z"/>
		<path class="st4" d="M5,911.3c-0.7,1.4-1,1.3-1.8,2.8c-0.2,0.2-0.3,0.5,0,0.6c0.3,0,0.6,0,0.8-0.2c0.1-0.2,0.1,0.1,0.3,0
			c0.4-0.2,0.5-0.6,0.7-0.9c0.2-0.3,0.4-0.6,0.7-0.9c0-0.3-0.4-0.4-0.5-0.6c-0.2-0.3,0.4-1.5,0.3-1.8L5,911.3z M4.1,914.5
			C4,914.5,4.1,914.5,4.1,914.5z M4.1,914.5C4.1,914.6,4.2,914.6,4.1,914.5z"/>
		<path class="st5" d="M3.6,908c-0.1-0.7-0.4-1.4-0.7-2c-0.3-0.4-0.6-1.2-1-1.1c-0.5,0.1-0.5,1.3-0.5,2c0.1,0.8,0.6,1.2,0.9,1.8
			c0.2,0.9,1,1.2,1.3,0.2C3.7,908.6,3.7,908.3,3.6,908L3.6,908z"/>
		<g>
			<path class="st6" d="M-0.6,902.8c-0.1,0.1,0.1,0.3,0.3,0.3c0.2-0.1,0.2-0.3,0-0.4C-0.4,902.7-0.6,902.6-0.6,902.8L-0.6,902.8z"/>
			<path class="st6" d="M1.3,902.3c-0.2,0,0.2,0.4,0.3,0.4C1.7,902.5,1.4,902.3,1.3,902.3z"/>
			<path class="st6" d="M-3.7,905.1C-3.7,905.3-3.6,905.3-3.7,905.1C-3.6,905-3.7,905-3.7,905.1z"/>
			<path class="st6" d="M0.3,903C0.3,903.1,0.1,903,0.3,903c0,0.2,0.1,0.2,0.2,0.1C0.5,903.1,0.4,903.1,0.3,903L0.3,903L0.3,903z"/>
			<path class="st6" d="M-1.7,907.3c0.1,0.2,0.3,0.2,0.4,0.1c0.1-0.2-0.2-0.4-0.3-0.2C-1.7,907.3-1.6,907.1-1.7,907.3
				C-1.6,907.3-1.6,907.3-1.7,907.3L-1.7,907.3z"/>
			<path class="st6" d="M0.2,905.8C0,906,0.3,906.3,0.4,906C0.5,905.9,0.3,905.7,0.2,905.8z"/>
			<path class="st7" d="M-4.6,906.4c-0.1,0.2,0,0.3,0.1,0.2C-4.3,906.3-4.4,906.1-4.6,906.4C-4.5,906.3-4.4,906.2-4.6,906.4
				C-4.5,906.3-4.6,906.4-4.6,906.4L-4.6,906.4z"/>
			<path class="st8" d="M-5.2,910.7c0.1,0.2,0.2,0.3,0.2,0.1c-0.1-0.4-0.3-0.6-0.3-0.3c0,0.2,0-0.1,0,0.2
				C-5.2,910.6-5.2,910.7-5.2,910.7L-5.2,910.7z"/>
		</g>
	</g>
</g>
<g id="яйцо" transform="matrix(.68738 0 0 .68738 23.259 304.63)">
	<path class="st2" d="M-4.4-390c-0.1,2.5-2.1,5.1-5,5.1c-2.8,0-5.2-1.6-5.5-4.7s1.9-8.7,5.2-8.8C-6.4-398.5-4.3-393.6-4.4-390
		L-4.4-390z"/>
	<path class="st3" d="M-11.2-398L-11.2-398c-0.1,0-0.1,0.1-0.2,0.1l0,0c-0.1,0-0.1,0.1-0.2,0.1l0,0c-0.1,0-0.1,0.1-0.2,0.2l0,0
		c-0.1,0.1-0.1,0.1-0.2,0.2l0,0c-0.1,0.1-0.1,0.1-0.2,0.2l-0.1,0.1l-0.1,0.1l-0.1,0.1l-0.1,0.1l-0.1,0.1l-0.1,0.1l-0.1,0.1
		c0,0.1-0.1,0.1-0.1,0.2c0,0,0,0.1-0.1,0.1c-0.1,0.1-0.1,0.2-0.2,0.3l0,0l0,0c-0.1,0.1-0.1,0.2-0.2,0.3c0,0,0,0.1-0.1,0.1
		c0,0.1-0.1,0.1-0.1,0.2c0,0,0,0.1-0.1,0.1c0,0.1-0.1,0.1-0.1,0.2c0,0,0,0.1-0.1,0.1c0,0.1-0.1,0.1-0.1,0.2c0,0,0,0.1-0.1,0.1
		c0,0.1-0.1,0.1-0.1,0.2v0.1c0,0.1-0.1,0.2-0.1,0.3c0,0.1-0.1,0.2-0.1,0.3v0.1c0,0.1,0,0.1-0.1,0.2v0.1c0,0.1,0,0.1-0.1,0.2v0.1
		c0,0.1,0,0.1-0.1,0.2v0.1c0,0.1,0,0.1,0,0.2v0.1c0,0.1,0,0.2-0.1,0.3c0,0.1,0,0.2,0,0.3v0.1c0,0.1,0,0.1,0,0.2v0.1
		c0,0.1,0,0.1,0,0.2v0.1c0,0.1,0,0.1,0,0.2v0.1c0,0.1,0,0.1,0,0.2v0.1c0,0.1,0,0.2,0,0.3c0.3,3.1,2.6,4.7,5.5,4.7c0.1,0,0.2,0,0.3,0
		l0,0c0.1,0,0.2,0,0.3,0s0.1,0,0.2,0h0.1c0.1,0,0.1,0,0.2,0c0,0,0,0,0.1,0l0,0c0.1,0,0.1,0,0.2,0c0,0,0,0,0.1,0c0.1,0,0.1,0,0.2,0
		h0.1c0.1,0,0.1-0.1,0.2-0.1l0,0l0,0c0.1,0,0.1,0,0.2-0.1c0,0,0,0,0.1,0s0.1-0.1,0.2-0.1l0,0l0,0c0.1,0,0.1-0.1,0.2-0.1l0,0
		c0.1,0,0.1-0.1,0.2-0.1l0,0l0,0c0.1,0,0.1-0.1,0.2-0.1s0.1-0.1,0.2-0.1l0,0l0,0c0.1-0.1,0.1-0.1,0.2-0.2s0.1-0.1,0.2-0.2l0,0l0,0
		c0.1-0.1,0.1-0.1,0.2-0.2l0,0c-0.6,0.3-1.1,0-1.9,0c-2.8,0-4.2-1.6-4.7-3.5C-13.6-393.1-12.9-396.2-11.2-398L-11.2-398z"/>
	<path class="st4" d="M-4.6-389.1c-0.6,1.3-1,1.2-1.7,2.6c-0.2,0.2-0.3,0.5,0,0.6c0.3,0,0.6,0,0.8-0.2c0.1-0.2,0.1,0.1,0.3,0
		c0.4-0.2,0.4-0.6,0.7-0.9c0.2-0.3,0.4-0.6,0.6-0.8c0-0.3-0.4-0.3-0.5-0.6c-0.2-0.2,0.3-1.5,0.3-1.7L-4.6-389.1z M-5.5-386.1
		C-5.6-386-5.5-386-5.5-386.1z M-5.5-386C-5.6-385.9-5.4-386-5.5-386z"/>
	<path class="st5" d="M-6-392.1c-0.1-0.7-0.4-1.3-0.7-1.9c-0.3-0.4-0.5-1.1-0.9-1c-0.5,0.1-0.4,1.2-0.4,1.8c0.1,0.8,0.6,1.1,0.8,1.7
		c0.2,0.8,0.9,1.1,1.2,0.2C-5.9-391.5-5.9-391.8-6-392.1L-6-392.1z"/>
	<g>
		<path class="st6" d="M-9.9-397c-0.1,0.1,0.1,0.3,0.3,0.3c0.2-0.1,0.2-0.3,0-0.3C-9.7-397.2-9.9-397.2-9.9-397L-9.9-397z"/>
		<path class="st6" d="M-8.2-397.5c-0.2,0,0.2,0.4,0.3,0.3C-7.8-397.3-8-397.5-8.2-397.5z"/>
		<path class="st6" d="M-12.9-394.8c0,0.1,0.1,0.2,0.1,0C-12.8-395-12.9-394.9-12.9-394.8z"/>
		<path class="st6" d="M-9.1-396.8c0,0.1-0.2,0-0.1,0.1c0.1,0.1,0.2,0.1,0.3,0C-8.9-396.8-9-396.8-9.1-396.8L-9.1-396.8L-9.1-396.8z
			"/>
		<path class="st6" d="M-10.9-392.8c0.1,0.1,0.3,0.2,0.4,0.1c0.1-0.2-0.2-0.4-0.3-0.2C-10.9-392.8-10.8-393-10.9-392.8L-10.9-392.8
			L-10.9-392.8z"/>
		<path class="st6" d="M-9.2-394.2c-0.2,0.1,0.1,0.4,0.2,0.2C-8.9-394.1-9.1-394.3-9.2-394.2z"/>
		<path class="st7" d="M-13.7-393.7c-0.1,0.2,0,0.3,0.1,0.2c0.2-0.2,0.1-0.4,0-0.3C-13.6-393.7-13.5-393.9-13.7-393.7
			C-13.6-393.7-13.6-393.7-13.7-393.7L-13.7-393.7z"/>
		<path class="st8" d="M-14.3-389.6c0.1,0.2,0.2,0.3,0.2,0c-0.1-0.4-0.3-0.5-0.2-0.3c0,0.2,0-0.1,0,0.1
			C-14.3-389.7-14.3-389.6-14.3-389.6L-14.3-389.6z"/>
	</g>
</g>
<linearGradient id="перед_00000049920608395990217820000001154569619226516112_" gradientUnits="userSpaceOnUse" x1="-1917.7096" y1="375.82" x2="-1917.9823" y2="376.5653" gradientTransform="matrix(35.4418 0 0 -33.3287 67995.6562 12564.1289)">
	<stop  offset="0" style="stop-color:#552200"/>
	<stop  offset="1" style="stop-color:#B6632C"/>
</linearGradient>
<path id="перед" style="fill-rule:evenodd;clip-rule:evenodd;fill:url(#перед_00000049920608395990217820000001154569619226516112_);" d="
	M29.1,9.8C27.1,9.4,26,10,24,10c-11.9,4-11.2,14.5-12.2,23.7c-2.8-1.4-4.3-3.3-4.3-4.8c0,5.5,6.2,14.3,17.9,14.2
	c12.6-0.1,17.7-8.9,17.5-14c0,3.3-4.9,7.1-17.5,7.2c-4.2,0-7.7-0.5-10.5-1.3c0.6-10.6,1.2-21.6,15-24.9C29.7,9.9,29.4,9.8,29.1,9.8
	L29.1,9.8z"/>
<g id="бант">
	
		<radialGradient id="SVGID_1_" cx="-894.0666" cy="473.8766" r="7.5" gradientTransform="matrix(1.8241 1.0595 0.4018 -0.6918 1454.7819 1284.137)" gradientUnits="userSpaceOnUse">
		<stop  offset="0" style="stop-color:#FFD73B"/>
		<stop  offset="1" style="stop-color:#EE8400"/>
	</radialGradient>
	<path class="st10" d="M23.7,7.9C19,10,14.1,4.2,10,6c-1.8,3.7-0.7,7.8,2,12c5.9,2.8,6-5,13-6L23.7,7.9L23.7,7.9z"/>
	
		<radialGradient id="SVGID_00000070810049584233905130000000479891963371914652_" cx="-1394.3772" cy="1579.2103" r="7.5" gradientTransform="matrix(3.7 0.6104 -0.1024 0.6205 5351.8843 -121.7381)" gradientUnits="userSpaceOnUse">
		<stop  offset="0" style="stop-color:#FFD73B"/>
		<stop  offset="1" style="stop-color:#EE8400"/>
	</radialGradient>
	<path style="fill:url(#SVGID_00000070810049584233905130000000479891963371914652_);" d="M27,8c6-2,6-4.6,9.7-5
		c4.1,3,1.6,6.7,1.6,9.4C35,14,33,10,27.1,11.4L27,8L27,8z"/>
	
		<radialGradient id="SVGID_00000123419905499842565670000017072951858621108898_" cx="26" cy="-1038.6671" r="4" gradientTransform="matrix(1 0 0 -0.75 0 -767)" gradientUnits="userSpaceOnUse">
		<stop  offset="0" style="stop-color:#FFD73B"/>
		<stop  offset="1" style="stop-color:#EE8400"/>
	</radialGradient>
	<path style="fill-rule:evenodd;clip-rule:evenodd;fill:url(#SVGID_00000123419905499842565670000017072951858621108898_);" d="
		M30,10c0,1.7-1.8,3-4,3s-4-1.3-4-3s1.8-3,4-3S30,8.3,30,10z"/>
</g>
</svg>
