<?xml version="1.0" encoding="utf-8"?>
<!-- Generator: Adobe Illustrator 28.0.0, SVG Export Plug-In . SVG Version: 6.00 Build 0)  -->
<svg version="1.1" id="Слой_1" xmlns="http://www.w3.org/2000/svg" xmlns:xlink="http://www.w3.org/1999/xlink" x="0px" y="0px"
	 viewBox="0 0 48 48" style="enable-background:new 0 0 48 48;" xml:space="preserve">
<style type="text/css">
	.st0{fill:url(#зад_ручки_00000025401529738545452830000011888610052864805814_);}
	
		.st1{fill-rule:evenodd;clip-rule:evenodd;fill:url(#пространство_00000134953636303876100350000002543831935934804358_);}
	.st2{fill:#FFECCD;}
	.st3{opacity:0.616;fill:#6C5D53;enable-background:new    ;}
	.st4{fill-rule:evenodd;clip-rule:evenodd;fill:#FDF9EC;}
	.st5{fill-rule:evenodd;clip-rule:evenodd;fill:#FFFFFF;}
	.st6{fill-rule:evenodd;clip-rule:evenodd;fill:#F7CBB4;}
	.st7{fill-rule:evenodd;clip-rule:evenodd;fill:#CFB2A3;}
	.st8{fill-rule:evenodd;clip-rule:evenodd;fill:#BF9985;}
	.st9{fill-rule:evenodd;clip-rule:evenodd;fill:url(#перед_00000149344674991424053610000014753009420601753532_);}
	.st10{fill:url(#SVGID_1_);}
	.st11{fill:url(#SVGID_00000178895388159687663650000003808663274005108915_);}
	.st12{fill-rule:evenodd;clip-rule:evenodd;fill:url(#SVGID_00000106863515909137534790000007232263781724641434_);}
</style>
<linearGradient id="зад_ручки_00000137826502358614821280000014527925448333524632_" gradientUnits="userSpaceOnUse" x1="-1196.4762" y1="46.0193" x2="-1195.3853" y2="46.2495" gradientTransform="matrix(11 0 0 15.7293 13186 -708.1741)">
	<stop  offset="0" style="stop-color:#552200"/>
	<stop  offset="1" style="stop-color:#B6632C"/>
</linearGradient>
<path id="зад_ручки" style="fill:url(#зад_ручки_00000137826502358614821280000014527925448333524632_);" d="
	M29.6,9.8c5.8,4.7,5.7,10.4,7.4,15.7h-4c-0.3-5.7-2.1-11-7-15.7H29.6L29.6,9.8z"/>
<linearGradient id="пространство_00000042731339341020287060000002428184253010270858_" gradientUnits="userSpaceOnUse" x1="-1278.8384" y1="60.9649" x2="-1277.8229" y2="61.3873" gradientTransform="matrix(35.452 0 0 11.8358 45346.3828 -693.5625)">
	<stop  offset="0" style="stop-color:#552200"/>
	<stop  offset="1" style="stop-color:#B6632C"/>
</linearGradient>
<path id="пространство" style="fill-rule:evenodd;clip-rule:evenodd;fill:url(#пространство_00000042731339341020287060000002428184253010270858_);" d="
	M43,29c0,3.3-4.9,7.1-17.5,7.3c-11.7,0.1-17.9-4.2-17.9-7.4s10.2-4.4,17.9-4.4C32.2,24.4,43,25.7,43,29z"/>
<g transform="translate(0 -892.36)">
	<g transform="matrix(.68738 0 0 .68738 23.259 304.63)">
		<path class="st2" d="M24.3,905.3c-0.1,2.7-2.3,5.4-5.3,5.4s-5.5-1.7-5.8-5s2-9.2,5.5-9.4C22.2,896.2,24.4,901.4,24.3,905.3
			L24.3,905.3z"/>
		<path class="st3" d="M17.1,896.7L17.1,896.7c-0.1,0-0.2,0.1-0.2,0.1l0,0c-0.1,0-0.1,0.1-0.2,0.1l0,0c-0.1,0.1-0.1,0.1-0.2,0.2l0,0
			c-0.1,0.1-0.1,0.1-0.2,0.2c0,0,0,0-0.1,0c-0.1,0.1-0.1,0.1-0.2,0.2l-0.1,0.1c0,0.1-0.1,0.1-0.1,0.2l-0.1,0.1c0,0-0.1,0.1-0.1,0.2
			l-0.1,0.1c0,0.1-0.1,0.1-0.1,0.2l-0.1,0.1c0,0.1-0.1,0.1-0.1,0.2l-0.1,0.1c-0.1,0.1-0.1,0.2-0.2,0.3l0,0l0,0
			c-0.1,0.1-0.1,0.2-0.2,0.3c0,0,0,0.1-0.1,0.1c0,0.1-0.1,0.1-0.1,0.2c0,0,0,0.1-0.1,0.1c0,0.1-0.1,0.1-0.1,0.2c0,0,0,0.1-0.1,0.1
			c0,0.1-0.1,0.1-0.1,0.2c0,0,0,0.1-0.1,0.1c0,0.1-0.1,0.1-0.1,0.2c0,0,0,0.1-0.1,0.1c0,0.1-0.1,0.2-0.1,0.4c0,0.1-0.1,0.2-0.1,0.4
			v0.1c0,0.1,0,0.2-0.1,0.2c0,0.1,0,0.1,0,0.2c0,0.1,0,0.1-0.1,0.2v0.1c0,0.1,0,0.1-0.1,0.2v0.1c0,0.1,0,0.1,0,0.2v0.1
			c0,0.1,0,0.2-0.1,0.3c0,0.1,0,0.2,0,0.3v0.1c0,0.1,0,0.2,0,0.2v0.1c0,0.1,0,0.1,0,0.2v0.1c0,0.1,0,0.1,0,0.2v0.1
			c0,0.1,0,0.1,0,0.2v0.1c0,0.1,0,0.2,0,0.3c0.3,3.3,2.8,5,5.8,5c0.1,0,0.2,0,0.3,0l0,0c0.1,0,0.2,0,0.3,0c0.1,0,0.1,0,0.2,0h0.1
			c0.1,0,0.1,0,0.2,0h0.1l0,0c0.1,0,0.1,0,0.2,0c0,0,0,0,0.1,0s0.1,0,0.2-0.1h0.1c0.1,0,0.1-0.1,0.2-0.1l0,0l0,0
			c0.1,0,0.1,0,0.2-0.1c0,0,0,0,0.1,0s0.1-0.1,0.2-0.1l0,0l0,0c0.1,0,0.1-0.1,0.2-0.1l0,0c0.1,0,0.1-0.1,0.2-0.1l0,0l0,0
			c0.1,0,0.1-0.1,0.2-0.1s0.1-0.1,0.2-0.2l0,0l0,0c0.1-0.1,0.1-0.1,0.2-0.2c0.1-0.1,0.1-0.1,0.2-0.2l0,0l0,0
			c0.1-0.1,0.1-0.1,0.2-0.2l0,0c-0.7,0.4-1.2,0-2.1,0c-3,0-4.5-1.7-5-3.7C14.5,902,15.2,898.7,17.1,896.7L17.1,896.7z"/>
		<path class="st4" d="M24,906.3c-0.7,1.4-1,1.3-1.8,2.8c-0.2,0.2-0.3,0.5,0,0.6c0.3,0,0.6,0,0.8-0.2c0.1-0.2,0.1,0.1,0.3,0
			c0.4-0.2,0.5-0.6,0.7-0.9c0.2-0.3,0.4-0.6,0.7-0.9c0-0.3-0.4-0.4-0.5-0.6c-0.2-0.3,0.4-1.5,0.3-1.8L24,906.3z M23.1,909.5
			L23.1,909.5z M23.1,909.5C23.1,909.6,23.2,909.6,23.1,909.5z"/>
		<path class="st5" d="M22.6,903c-0.1-0.7-0.4-1.4-0.7-2c-0.3-0.4-0.6-1.2-1-1.1c-0.5,0.1-0.5,1.3-0.5,2c0.1,0.8,0.6,1.2,0.9,1.8
			c0.2,0.9,1,1.2,1.3,0.2C22.7,903.7,22.7,903.3,22.6,903L22.6,903z"/>
		<g>
			<path class="st6" d="M18.4,897.8c-0.1,0.1,0.1,0.3,0.3,0.3c0.2-0.1,0.2-0.3,0-0.4C18.6,897.7,18.4,897.7,18.4,897.8L18.4,897.8z"
				/>
			<path class="st6" d="M20.3,897.3c-0.2,0,0.2,0.4,0.3,0.4C20.7,897.6,20.4,897.3,20.3,897.3z"/>
			<path class="st6" d="M15.3,900.1c0,0.2,0.1,0.2,0.1,0C15.4,900,15.3,900,15.3,900.1z"/>
			<path class="st6" d="M19.3,898c0,0.1-0.2,0-0.1,0.1s0.2,0.1,0.3,0C19.6,898.1,19.4,898.1,19.3,898L19.3,898L19.3,898z"/>
			<path class="st6" d="M17.3,902.3c0.1,0.2,0.3,0.2,0.4,0.1c0.1-0.2-0.2-0.4-0.3-0.2C17.3,902.3,17.4,902.1,17.3,902.3
				C17.4,902.3,17.4,902.3,17.3,902.3L17.3,902.3z"/>
			<path class="st6" d="M19.2,900.8c-0.2,0.2,0.2,0.4,0.2,0.2C19.5,900.9,19.3,900.7,19.2,900.8z"/>
			<path class="st7" d="M14.4,901.4c-0.1,0.2,0,0.3,0.1,0.2c0.2-0.3,0.1-0.5,0-0.3C14.5,901.3,14.6,901.2,14.4,901.4
				C14.5,901.3,14.5,901.4,14.4,901.4L14.4,901.4z"/>
			<path class="st8" d="M13.8,905.7c0.1,0.2,0.2,0.3,0.2,0.1c-0.1-0.4-0.3-0.6-0.3-0.3c0,0.2,0-0.1,0,0.2
				C13.8,905.6,13.8,905.7,13.8,905.7L13.8,905.7z"/>
		</g>
	</g>
</g>
<g transform="translate(0 -892.36)">
	<g transform="matrix(.68738 0 0 .68738 23.259 304.63)">
		<path class="st2" d="M7.6,907.4c-0.1,2.7-2.3,5.4-5.3,5.4s-5.5-1.7-5.8-5s2-9.2,5.5-9.4C5.5,898.3,7.7,903.5,7.6,907.4L7.6,907.4z
			"/>
		<path class="st3" d="M0.4,898.8L0.4,898.8c-0.1,0-0.2,0.1-0.2,0.1l0,0C0,899,0,899-0.1,899.1l0,0c-0.1,0.1-0.1,0.1-0.2,0.2l0,0
			c-0.1,0.1-0.1,0.1-0.2,0.2c0,0,0,0-0.1,0c-0.1,0.1-0.1,0.1-0.2,0.2l-0.1,0.1c0,0.1-0.1,0.1-0.1,0.2l-0.1,0.1c0,0-0.1,0.1-0.1,0.2
			l-0.1,0.1c0,0.1-0.1,0.1-0.1,0.2l-0.1,0.1c0,0.1-0.1,0.1-0.1,0.2l-0.1,0.1c-0.1,0.1-0.1,0.2-0.2,0.3l0,0l0,0
			c-0.1,0.1-0.1,0.2-0.2,0.3c0,0,0,0.1-0.1,0.1c0,0.1-0.1,0.1-0.1,0.2c0,0,0,0.1-0.1,0.1c0,0.1-0.1,0.1-0.1,0.2c0,0,0,0.1-0.1,0.1
			c0,0.1-0.1,0.1-0.1,0.2c0,0,0,0.1-0.1,0.1c0,0.1-0.1,0.1-0.1,0.2c0,0,0,0.1-0.1,0.1c0,0.1-0.1,0.2-0.1,0.4c0,0.1-0.1,0.2-0.1,0.4
			v0.1c0,0.1,0,0.2-0.1,0.2c0,0.1,0,0.1,0,0.2c0,0.1,0,0.1-0.1,0.2v0.1c0,0.1,0,0.1-0.1,0.2v0.1c0,0.1,0,0.1,0,0.2v0.1
			c0,0.1,0,0.2-0.1,0.3c0,0.1,0,0.2,0,0.3v0.1c0,0.1,0,0.2,0,0.2v0.1c0,0.1,0,0.1,0,0.2v0.1c0,0.1,0,0.1,0,0.2v0.1
			c0,0.1,0,0.1,0,0.2v0.1c0,0.1,0,0.2,0,0.3c0.3,3.3,2.8,5,5.8,5c0.1,0,0.2,0,0.3,0l0,0c0.1,0,0.2,0,0.3,0s0.1,0,0.2,0h0.1
			c0.1,0,0.1,0,0.2,0h0.1l0,0c0.1,0,0.1,0,0.2,0c0,0,0,0,0.1,0s0.1,0,0.2-0.1H4c0.1,0,0.1-0.1,0.2-0.1l0,0l0,0c0.1,0,0.1,0,0.2-0.1
			c0,0,0,0,0.1,0s0.1-0.1,0.2-0.1l0,0l0,0c0.1,0,0.1-0.1,0.2-0.1l0,0c0.1,0,0.1-0.1,0.2-0.1l0,0l0,0c0.1,0,0.1-0.1,0.2-0.1
			s0.1-0.1,0.2-0.2l0,0l0,0c0.1-0.1,0.1-0.1,0.2-0.2c0.1-0.1,0.1-0.1,0.2-0.2l0,0l0,0c0.1-0.1,0.1-0.1,0.2-0.2l0,0
			c-0.7,0.4-1.2,0-2.1,0c-3,0-4.5-1.7-5-3.7C-2.2,904-1.5,900.8,0.4,898.8L0.4,898.8z"/>
		<path class="st4" d="M7.3,908.4c-0.7,1.4-1,1.3-1.8,2.8c-0.2,0.2-0.3,0.5,0,0.6c0.3,0,0.6,0,0.8-0.2c0.1-0.2,0.1,0.1,0.3,0
			c0.4-0.2,0.5-0.6,0.7-0.9c0.2-0.3,0.4-0.6,0.7-0.9c0-0.3-0.4-0.4-0.5-0.6c-0.2-0.3,0.4-1.5,0.3-1.8L7.3,908.4z M6.4,911.6
			C6.3,911.6,6.4,911.6,6.4,911.6z M6.4,911.6C6.4,911.7,6.5,911.7,6.4,911.6z"/>
		<path class="st5" d="M5.9,905.1c-0.1-0.7-0.4-1.4-0.7-2c-0.3-0.4-0.6-1.2-1-1.1c-0.5,0.1-0.5,1.3-0.5,2c0.1,0.8,0.6,1.2,0.9,1.8
			c0.2,0.9,1,1.2,1.3,0.2C6,905.7,6,905.4,5.9,905.1L5.9,905.1z"/>
		<g>
			<path class="st6" d="M1.7,899.9c-0.1,0.1,0.1,0.3,0.3,0.3c0.2-0.1,0.2-0.3,0-0.4C1.9,899.7,1.7,899.7,1.7,899.9L1.7,899.9z"/>
			<path class="st6" d="M3.6,899.3c-0.2,0,0.2,0.4,0.3,0.4C4,899.6,3.7,899.3,3.6,899.3z"/>
			<path class="st6" d="M-1.4,902.2c0,0.2,0.1,0.2,0.1,0C-1.3,902.1-1.4,902.1-1.4,902.2z"/>
			<path class="st6" d="M2.6,900.1C2.6,900.2,2.4,900.1,2.6,900.1c0,0.2,0.1,0.2,0.2,0.1C2.8,900.1,2.7,900.1,2.6,900.1L2.6,900.1
				L2.6,900.1z"/>
			<path class="st6" d="M0.6,904.4c0.1,0.2,0.3,0.2,0.4,0.1c0.1-0.2-0.2-0.4-0.3-0.2C0.6,904.4,0.7,904.2,0.6,904.4
				C0.7,904.4,0.7,904.4,0.6,904.4L0.6,904.4z"/>
			<path class="st6" d="M2.5,902.9c-0.2,0.2,0.2,0.4,0.2,0.2C2.8,903,2.6,902.8,2.5,902.9z"/>
			<path class="st7" d="M-2.3,903.5c-0.1,0.2,0,0.3,0.1,0.2C-2,903.4-2.1,903.2-2.3,903.5C-2.2,903.4-2.1,903.2-2.3,903.5
				C-2.2,903.4-2.3,903.4-2.3,903.5L-2.3,903.5z"/>
			<path class="st8" d="M-2.9,907.8c0.1,0.2,0.2,0.3,0.2,0.1c-0.1-0.4-0.3-0.6-0.3-0.3C-3,907.8-3,907.5-2.9,907.8
				C-2.9,907.7-2.9,907.8-2.9,907.8L-2.9,907.8z"/>
		</g>
	</g>
</g>
<g transform="translate(0 -892.36)">
	<g transform="matrix(.68738 0 0 .68738 23.259 304.63)">
		<path class="st2" d="M18.5,909.4c-0.1,2.7-2.3,5.4-5.3,5.4s-5.5-1.7-5.8-5s2-9.2,5.5-9.4C16.4,900.3,18.6,905.5,18.5,909.4
			L18.5,909.4z"/>
		<path class="st3" d="M11.3,900.8L11.3,900.8c-0.1,0-0.2,0.1-0.2,0.1l0,0c-0.1,0-0.1,0.1-0.2,0.1l0,0c-0.1,0.1-0.1,0.1-0.2,0.2l0,0
			c-0.1,0.1-0.1,0.1-0.2,0.2c0,0,0,0-0.1,0c-0.1,0.1-0.1,0.1-0.2,0.2l-0.1,0.1c0,0.1-0.1,0.1-0.1,0.2L9.9,902c0,0-0.1,0.1-0.1,0.2
			l-0.1,0.1c0,0.1-0.1,0.1-0.1,0.2l-0.1,0.1c0,0.1-0.1,0.1-0.1,0.2l-0.1,0.1c-0.1,0.1-0.1,0.2-0.2,0.3l0,0l0,0
			c-0.1,0.1-0.1,0.2-0.2,0.3c0,0,0,0.1-0.1,0.1c0,0.1-0.1,0.1-0.1,0.2c0,0,0,0.1-0.1,0.1c0,0.1-0.1,0.1-0.1,0.2c0,0,0,0.1-0.1,0.1
			c0,0.1-0.1,0.1-0.1,0.2c0,0,0,0.1-0.1,0.1c0,0.1-0.1,0.1-0.1,0.2c0,0,0,0.1-0.1,0.1c0,0.1-0.1,0.2-0.1,0.4c0,0.1-0.1,0.2-0.1,0.4
			v0.1c0,0.1,0,0.2-0.1,0.2c0,0.1,0,0.1,0,0.2c0,0.1,0,0.1-0.1,0.2v0.1c0,0.1,0,0.1-0.1,0.2v0.1c0,0.1,0,0.1,0,0.2v0.1
			c0,0.1,0,0.2-0.1,0.3c0,0.1,0,0.2,0,0.3v0.1c0,0.1,0,0.2,0,0.2v0.1c0,0.1,0,0.1,0,0.2v0.1c0,0.1,0,0.1,0,0.2v0.1
			c0,0.1,0,0.1,0,0.2v0.1c0,0.1,0,0.2,0,0.3c0.3,3.3,2.8,5,5.8,5c0.1,0,0.2,0,0.3,0l0,0c0.1,0,0.2,0,0.3,0s0.1,0,0.2,0h0.1
			c0.1,0,0.1,0,0.2,0h0.1l0,0c0.1,0,0.1,0,0.2,0c0,0,0,0,0.1,0s0.1,0,0.2-0.1H15c0.1,0,0.1-0.1,0.2-0.1l0,0l0,0c0.1,0,0.1,0,0.2-0.1
			c0,0,0,0,0.1,0s0.1-0.1,0.2-0.1l0,0l0,0c0.1,0,0.1-0.1,0.2-0.1l0,0c0.1,0,0.1-0.1,0.2-0.1l0,0l0,0c0.1,0,0.1-0.1,0.2-0.1
			s0.1-0.1,0.2-0.2l0,0l0,0c0.1-0.1,0.1-0.1,0.2-0.2c0.1-0.1,0.1-0.1,0.2-0.2l0,0l0,0c0.1-0.1,0.1-0.1,0.2-0.2l0,0
			c-0.7,0.4-1.2,0-2.1,0c-3,0-4.5-1.7-5-3.7C8.7,906.1,9.4,902.8,11.3,900.8L11.3,900.8z"/>
		<path class="st4" d="M18.2,910.4c-0.7,1.4-1,1.3-1.8,2.8c-0.2,0.2-0.3,0.5,0,0.6c0.3,0,0.6,0,0.8-0.2c0.1-0.2,0.1,0.1,0.3,0
			c0.4-0.2,0.5-0.6,0.7-0.9c0.2-0.3,0.4-0.6,0.7-0.9c0-0.3-0.4-0.4-0.5-0.6c-0.2-0.3,0.4-1.5,0.3-1.8L18.2,910.4z M17.3,913.6
			C17.2,913.6,17.3,913.6,17.3,913.6z M17.3,913.6C17.3,913.7,17.4,913.7,17.3,913.6z"/>
		<path class="st5" d="M16.8,907.1c-0.1-0.7-0.4-1.4-0.7-2c-0.3-0.4-0.6-1.2-1-1.1c-0.5,0.1-0.5,1.3-0.5,2c0.1,0.8,0.6,1.2,0.9,1.8
			c0.2,0.9,1,1.2,1.3,0.2C16.9,907.7,16.9,907.4,16.8,907.1L16.8,907.1z"/>
		<g>
			<path class="st6" d="M12.6,901.9c-0.1,0.1,0.1,0.3,0.3,0.3c0.2-0.1,0.2-0.3,0-0.4C12.8,901.7,12.6,901.7,12.6,901.9L12.6,901.9z"
				/>
			<path class="st6" d="M14.5,901.3c-0.2,0,0.2,0.4,0.3,0.4C14.9,901.6,14.6,901.3,14.5,901.3z"/>
			<path class="st6" d="M9.5,904.2c0,0.2,0.1,0.2,0.1,0C9.6,904.1,9.5,904.1,9.5,904.2z"/>
			<path class="st6" d="M13.5,902.1c0,0.1-0.2,0-0.1,0.1c0.1,0.1,0.2,0.1,0.3,0C13.7,902.1,13.6,902.1,13.5,902.1L13.5,902.1
				L13.5,902.1z"/>
			<path class="st6" d="M11.5,906.4c0.1,0.2,0.3,0.2,0.4,0.1c0.1-0.2-0.2-0.4-0.3-0.2C11.5,906.4,11.6,906.2,11.5,906.4
				C11.6,906.4,11.6,906.4,11.5,906.4L11.5,906.4z"/>
			<path class="st6" d="M13.4,904.9c-0.2,0.2,0.2,0.4,0.2,0.2C13.7,905,13.5,904.8,13.4,904.9z"/>
			<path class="st7" d="M8.6,905.5c-0.1,0.2,0,0.3,0.1,0.2c0.2-0.3,0.1-0.5,0-0.3C8.7,905.4,8.8,905.2,8.6,905.5
				C8.7,905.4,8.6,905.5,8.6,905.5L8.6,905.5z"/>
			<path class="st8" d="M8,909.8c0.1,0.2,0.2,0.3,0.2,0.1c-0.1-0.4-0.3-0.6-0.3-0.3c0,0.2,0-0.1,0,0.2C8,909.7,8,909.8,8,909.8
				L8,909.8z"/>
		</g>
	</g>
</g>
<g transform="translate(0 -892.36)">
	<g transform="matrix(.68738 0 0 .68738 23.259 304.63)">
		<path class="st2" d="M1.1,908.9c-0.1,2.7-2.3,5.4-5.3,5.4s-5.5-1.7-5.8-5c-0.3-3.3,2-9.2,5.5-9.4C-1,899.8,1.3,905,1.1,908.9
			L1.1,908.9z"/>
		<path class="st3" d="M-6.1,900.3L-6.1,900.3c-0.1,0-0.2,0.1-0.2,0.1l0,0c-0.1,0-0.1,0.1-0.2,0.1l0,0c-0.1,0.1-0.1,0.1-0.2,0.2l0,0
			c-0.1,0.1-0.1,0.1-0.2,0.2c0,0,0,0-0.1,0c-0.1,0.1-0.1,0.1-0.2,0.2l-0.1,0.1c0,0.1-0.1,0.1-0.1,0.2l-0.1,0.1c0,0-0.1,0.1-0.1,0.2
			l-0.1,0.1c0,0.1-0.1,0.1-0.1,0.2l-0.1,0.1c0,0.1-0.1,0.1-0.1,0.2l-0.1,0.1c-0.1,0.1-0.1,0.2-0.2,0.3l0,0l0,0
			c-0.1,0.1-0.1,0.2-0.2,0.3c0,0,0,0.1-0.1,0.1c0,0.1-0.1,0.1-0.1,0.2c0,0,0,0.1-0.1,0.1c0,0.1-0.1,0.1-0.1,0.2c0,0,0,0.1-0.1,0.1
			c0,0.1-0.1,0.1-0.1,0.2c0,0,0,0.1-0.1,0.1c0,0.1-0.1,0.1-0.1,0.2c0,0,0,0.1-0.1,0.1c0,0.1-0.1,0.2-0.1,0.4c0,0.1-0.1,0.2-0.1,0.4
			v0.1c0,0.1,0,0.2-0.1,0.2c0,0.1,0,0.1,0,0.2c0,0.1,0,0.1-0.1,0.2v0.1c0,0.1,0,0.1-0.1,0.2v0.1c0,0.1,0,0.1,0,0.2v0.1
			c0,0.1,0,0.2-0.1,0.3c0,0.1,0,0.2,0,0.3v0.1c0,0.1,0,0.2,0,0.2v0.1c0,0.1,0,0.1,0,0.2v0.1c0,0.1,0,0.1,0,0.2v0.1
			c0,0.1,0,0.1,0,0.2v0.1c0,0.1,0,0.2,0,0.3c0.3,3.3,2.8,5,5.8,5c0.1,0,0.2,0,0.3,0l0,0c0.1,0,0.2,0,0.3,0s0.1,0,0.2,0h0.1
			c0.1,0,0.1,0,0.2,0H-3l0,0c0.1,0,0.1,0,0.2,0c0,0,0,0,0.1,0s0.1,0,0.2-0.1h0.1c0.1,0,0.1-0.1,0.2-0.1l0,0l0,0c0.1,0,0.1,0,0.2-0.1
			c0,0,0,0,0.1,0c0.1,0,0.1-0.1,0.2-0.1l0,0l0,0c0.1,0,0.1-0.1,0.2-0.1l0,0c0.1,0,0.1-0.1,0.2-0.1l0,0l0,0c0.1,0,0.1-0.1,0.2-0.1
			s0.1-0.1,0.2-0.2l0,0l0,0c0.1-0.1,0.1-0.1,0.2-0.2c0.1-0.1,0.1-0.1,0.2-0.2l0,0l0,0c0.1-0.1,0.1-0.1,0.2-0.2l0,0
			c-0.7,0.4-1.2,0-2.1,0c-3,0-4.5-1.7-5-3.7C-8.7,905.6-8,902.3-6.1,900.3L-6.1,900.3z"/>
		<path class="st4" d="M0.9,909.9c-0.7,1.4-1,1.3-1.8,2.8c-0.2,0.2-0.3,0.5,0,0.6c0.3,0,0.6,0,0.8-0.2c0.1-0.2,0.1,0.1,0.3,0
			c0.4-0.2,0.5-0.6,0.7-0.9c0.2-0.3,0.4-0.6,0.7-0.9c0-0.3-0.4-0.4-0.5-0.6c-0.2-0.3,0.4-1.5,0.3-1.8L0.9,909.9z M-0.1,913.1
			L-0.1,913.1z M-0.1,913.1C-0.1,913.2,0,913.2-0.1,913.1z"/>
		<path class="st5" d="M-0.5,906.6c-0.1-0.7-0.4-1.4-0.7-2c-0.3-0.4-0.6-1.2-1-1.1c-0.5,0.1-0.5,1.3-0.5,2c0.1,0.8,0.6,1.2,0.9,1.8
			c0.2,0.9,1,1.2,1.3,0.2C-0.5,907.3-0.5,906.9-0.5,906.6L-0.5,906.6z"/>
		<g>
			<path class="st6" d="M-4.8,901.4c-0.1,0.1,0.1,0.3,0.3,0.3c0.2-0.1,0.2-0.3,0-0.4C-4.5,901.3-4.8,901.3-4.8,901.4L-4.8,901.4z"/>
			<path class="st6" d="M-2.9,900.9c-0.2,0,0.2,0.4,0.3,0.4C-2.5,901.2-2.7,900.9-2.9,900.9z"/>
			<path class="st6" d="M-7.9,903.7C-7.9,903.9-7.8,903.9-7.9,903.7C-7.8,903.6-7.9,903.6-7.9,903.7z"/>
			<path class="st6" d="M-3.8,901.6C-3.8,901.7-4,901.6-3.8,901.6c0,0.2,0.1,0.2,0.2,0.1C-3.6,901.7-3.8,901.7-3.8,901.6L-3.8,901.6
				L-3.8,901.6z"/>
			<path class="st6" d="M-5.8,906c0.1,0.2,0.3,0.2,0.4,0.1c0.1-0.2-0.2-0.4-0.3-0.2C-5.8,905.9-5.7,905.8-5.8,906
				C-5.8,905.9-5.8,906-5.8,906L-5.8,906z"/>
			<path class="st6" d="M-4,904.5c-0.2,0.2,0.2,0.4,0.2,0.2C-3.7,904.5-3.9,904.3-4,904.5z"/>
			<path class="st7" d="M-8.7,905c-0.1,0.2,0,0.3,0.1,0.2c0.2-0.3,0.1-0.5,0-0.3C-8.7,904.9-8.6,904.8-8.7,905
				C-8.7,904.9-8.7,905-8.7,905L-8.7,905z"/>
			<path class="st8" d="M-9.4,909.3c0.1,0.2,0.2,0.3,0.2,0.1c-0.1-0.4-0.3-0.6-0.3-0.3c0,0.2,0-0.1,0,0.2
				C-9.4,909.2-9.4,909.3-9.4,909.3L-9.4,909.3z"/>
		</g>
	</g>
</g>
<g transform="translate(0 -892.36)">
	<g transform="matrix(.68738 0 0 .68738 23.259 304.63)">
		<path class="st2" d="M11.4,909.9c-0.1,2.7-2.3,5.4-5.3,5.4s-5.5-1.7-5.8-5s2-9.2,5.5-9.4C9.3,900.8,11.5,906,11.4,909.9
			L11.4,909.9z"/>
		<path class="st3" d="M4.1,901.3L4.1,901.3c-0.1,0-0.2,0.1-0.2,0.1l0,0c-0.1,0-0.1,0.1-0.2,0.1l0,0c-0.1,0.1-0.1,0.1-0.2,0.2l0,0
			c-0.1,0.1-0.1,0.1-0.2,0.2c0,0,0,0-0.1,0C3.1,902,3.1,902,3,902.1l-0.1,0.1c0,0.1-0.1,0.1-0.1,0.2l-0.1,0.1c0,0-0.1,0.1-0.1,0.2
			l-0.1,0.1c0,0.1-0.1,0.1-0.1,0.2l-0.1,0.1c0,0.1-0.1,0.1-0.1,0.2l-0.1,0.1c-0.1,0.1-0.1,0.2-0.2,0.3l0,0l0,0
			c-0.1,0.1-0.1,0.2-0.2,0.3c0,0,0,0.1-0.1,0.1c0,0.1-0.1,0.1-0.1,0.2c0,0,0,0.1-0.1,0.1c0,0.1-0.1,0.1-0.1,0.2c0,0,0,0.1-0.1,0.1
			c0,0.1-0.1,0.1-0.1,0.2c0,0,0,0.1-0.1,0.1c0,0.1-0.1,0.1-0.1,0.2c0,0,0,0.1-0.1,0.1c0,0.1-0.1,0.2-0.1,0.4c0,0.1-0.1,0.2-0.1,0.4
			v0.1c0,0.1,0,0.2-0.1,0.2c0,0.1,0,0.1,0,0.2c0,0.1,0,0.1-0.1,0.2v0.1c0,0.1,0,0.1-0.1,0.2v0.1c0,0.1,0,0.1,0,0.2v0.1
			c0,0.1,0,0.2-0.1,0.3c0,0.1,0,0.2,0,0.3v0.1c0,0.1,0,0.2,0,0.2v0.1c0,0.1,0,0.1,0,0.2v0.1c0,0.1,0,0.1,0,0.2v0.1
			c0,0.1,0,0.1,0,0.2v0.1c0,0.1,0,0.2,0,0.3c0.3,3.3,2.8,5,5.8,5c0.1,0,0.2,0,0.3,0l0,0c0.1,0,0.2,0,0.3,0c0.1,0,0.1,0,0.2,0h0.1
			c0.1,0,0.1,0,0.2,0h0.1l0,0c0.1,0,0.1,0,0.2,0c0,0,0,0,0.1,0s0.1,0,0.2-0.1h0.1c0.1,0,0.1-0.1,0.2-0.1l0,0l0,0
			c0.1,0,0.1,0,0.2-0.1c0,0,0,0,0.1,0s0.1-0.1,0.2-0.1l0,0l0,0c0.1,0,0.1-0.1,0.2-0.1l0,0c0.1,0,0.1-0.1,0.2-0.1l0,0l0,0
			c0.1,0,0.1-0.1,0.2-0.1c0.1,0,0.1-0.1,0.2-0.2l0,0l0,0c0.1-0.1,0.1-0.1,0.2-0.2c0.1-0.1,0.1-0.1,0.2-0.2l0,0l0,0
			c0.1-0.1,0.1-0.1,0.2-0.2l0,0c-0.7,0.4-1.2,0-2.1,0c-3,0-4.5-1.7-5-3.7C1.6,906.6,2.3,903.3,4.1,901.3L4.1,901.3z"/>
		<path class="st4" d="M11.1,910.9c-0.7,1.4-1,1.3-1.8,2.8c-0.2,0.2-0.3,0.5,0,0.6c0.3,0,0.6,0,0.8-0.2c0.1-0.2,0.1,0.1,0.3,0
			c0.4-0.2,0.5-0.6,0.7-0.9c0.2-0.3,0.4-0.6,0.7-0.9c0-0.3-0.4-0.4-0.5-0.6c-0.2-0.3,0.4-1.5,0.3-1.8L11.1,910.9z M10.2,914.1
			C10.1,914.1,10.2,914.1,10.2,914.1z M10.2,914.1C10.1,914.2,10.3,914.2,10.2,914.1z"/>
		<path class="st5" d="M9.7,907.6c-0.1-0.7-0.4-1.4-0.7-2c-0.3-0.4-0.6-1.2-1-1.1c-0.5,0.1-0.5,1.3-0.5,2c0.1,0.8,0.6,1.2,0.9,1.8
			c0.2,0.9,1,1.2,1.3,0.2C9.8,908.2,9.8,907.9,9.7,907.6L9.7,907.6z"/>
		<g>
			<path class="st6" d="M5.5,902.4c-0.1,0.1,0.1,0.3,0.3,0.3c0.2-0.1,0.2-0.3,0-0.4C5.7,902.2,5.5,902.2,5.5,902.4L5.5,902.4z"/>
			<path class="st6" d="M7.4,901.8c-0.2,0,0.2,0.4,0.3,0.4C7.8,902.1,7.5,901.8,7.4,901.8z"/>
			<path class="st6" d="M2.3,904.7C2.3,904.9,2.4,904.9,2.3,904.7C2.5,904.6,2.4,904.6,2.3,904.7z"/>
			<path class="st6" d="M6.4,902.6C6.4,902.7,6.2,902.6,6.4,902.6c0,0.2,0.1,0.2,0.2,0.1C6.6,902.7,6.5,902.6,6.4,902.6L6.4,902.6
				L6.4,902.6z"/>
			<path class="st6" d="M4.4,906.9c0.1,0.2,0.3,0.2,0.4,0.1c0.1-0.2-0.2-0.4-0.3-0.2C4.4,906.9,4.5,906.7,4.4,906.9L4.4,906.9
				L4.4,906.9z"/>
			<path class="st6" d="M6.3,905.4c-0.2,0.2,0.2,0.4,0.2,0.2C6.6,905.5,6.4,905.3,6.3,905.4z"/>
			<path class="st7" d="M1.5,906c-0.1,0.2,0,0.3,0.1,0.2c0.2-0.3,0.1-0.5,0-0.3C1.5,905.9,1.7,905.7,1.5,906
				C1.5,905.9,1.5,906,1.5,906L1.5,906z"/>
			<path class="st8" d="M0.8,910.3c0.1,0.2,0.2,0.3,0.2,0.1c0-0.4-0.2-0.6-0.2-0.4S0.8,909.9,0.8,910.3
				C0.8,910.2,0.9,910.3,0.8,910.3L0.8,910.3z"/>
		</g>
	</g>
</g>
<g transform="translate(0 -892.36)">
	<g transform="matrix(.68738 0 0 .68738 23.259 304.63)">
		<path class="st2" d="M5.3,910.3C5.2,913,3,915.7,0,915.7s-5.5-1.7-5.8-5s2-9.2,5.5-9.4C3.2,901.2,5.4,906.4,5.3,910.3L5.3,910.3z"
			/>
		<path class="st3" d="M-1.9,901.7L-1.9,901.7c-0.1,0-0.2,0.1-0.2,0.1l0,0c-0.1,0-0.1,0.1-0.2,0.1l0,0c-0.1,0.1-0.1,0.1-0.2,0.2l0,0
			c-0.1,0.1-0.1,0.1-0.2,0.2c0,0,0,0-0.1,0c-0.1,0.1-0.1,0.1-0.2,0.2l-0.1,0.1c0,0.1-0.1,0.1-0.1,0.2l-0.1,0.1c0,0-0.1,0.1-0.1,0.2
			l-0.1,0.1c0,0.1-0.1,0.1-0.1,0.2l-0.1,0.1c0,0.1-0.1,0.1-0.1,0.2l-0.1,0.1c-0.1,0.1-0.1,0.2-0.2,0.3l0,0l0,0
			c-0.1,0.1-0.1,0.2-0.2,0.3c0,0,0,0.1-0.1,0.1c0,0.1-0.1,0.1-0.1,0.2c0,0,0,0.1-0.1,0.1c0,0.1-0.1,0.1-0.1,0.2c0,0,0,0.1-0.1,0.1
			c0,0.1-0.1,0.1-0.1,0.2c0,0,0,0.1-0.1,0.1c0,0.1-0.1,0.1-0.1,0.2c0,0,0,0.1-0.1,0.1c0,0.1-0.1,0.2-0.1,0.4c0,0.1-0.1,0.2-0.1,0.4
			v0.1c0,0.1,0,0.2-0.1,0.2c0,0.1,0,0.1,0,0.2c0,0.1,0,0.1-0.1,0.2v0.1c0,0.1,0,0.1-0.1,0.2v0.1c0,0.1,0,0.1,0,0.2v0.1
			c0,0.1,0,0.2-0.1,0.3c0,0.1,0,0.2,0,0.3v0.1c0,0.1,0,0.2,0,0.2v0.1c0,0.1,0,0.1,0,0.2v0.1c0,0.1,0,0.1,0,0.2v0.1
			c0,0.1,0,0.1,0,0.2v0.1c0,0.1,0,0.2,0,0.3c0.3,3.3,2.8,5,5.8,5c0.1,0,0.2,0,0.3,0l0,0c0.1,0,0.2,0,0.3,0s0.1,0,0.2,0h0.1
			c0.1,0,0.1,0,0.2,0h0.1l0,0c0.1,0,0.1,0,0.2,0c0,0,0,0,0.1,0s0.1,0,0.2-0.1h0.1c0.1,0,0.1-0.1,0.2-0.1l0,0l0,0
			c0.1,0,0.1,0,0.2-0.1c0,0,0,0,0.1,0s0.1-0.1,0.2-0.1l0,0l0,0c0.1,0,0.1-0.1,0.2-0.1l0,0c0.1,0,0.1-0.1,0.2-0.1l0,0l0,0
			c0.1,0,0.1-0.1,0.2-0.1c0.1,0,0.1-0.1,0.2-0.2l0,0l0,0c0.1-0.1,0.1-0.1,0.2-0.2c0.1-0.1,0.1-0.1,0.2-0.2l0,0l0,0
			c0.1-0.1,0.1-0.1,0.2-0.2l0,0c-0.7,0.4-1.2,0-2.1,0c-3,0-4.5-1.7-5-3.7C-4.5,907-3.8,903.7-1.9,901.7L-1.9,901.7z"/>
		<path class="st4" d="M5,911.3c-0.7,1.4-1,1.3-1.8,2.8c-0.2,0.2-0.3,0.5,0,0.6c0.3,0,0.6,0,0.8-0.2c0.1-0.2,0.1,0.1,0.3,0
			c0.4-0.2,0.5-0.6,0.7-0.9c0.2-0.3,0.4-0.6,0.7-0.9c0-0.3-0.4-0.4-0.5-0.6c-0.2-0.3,0.4-1.5,0.3-1.8L5,911.3z M4.1,914.5
			C4,914.5,4.1,914.5,4.1,914.5z M4.1,914.5C4.1,914.6,4.2,914.6,4.1,914.5z"/>
		<path class="st5" d="M3.6,908c-0.1-0.7-0.4-1.4-0.7-2c-0.3-0.4-0.6-1.2-1-1.1c-0.5,0.1-0.5,1.3-0.5,2c0.1,0.8,0.6,1.2,0.9,1.8
			c0.2,0.9,1,1.2,1.3,0.2C3.7,908.6,3.7,908.3,3.6,908L3.6,908z"/>
		<g>
			<path class="st6" d="M-0.6,902.8c-0.1,0.1,0.1,0.3,0.3,0.3c0.2-0.1,0.2-0.3,0-0.4C-0.4,902.7-0.6,902.6-0.6,902.8L-0.6,902.8z"/>
			<path class="st6" d="M1.3,902.3c-0.2,0,0.2,0.4,0.3,0.4C1.7,902.5,1.4,902.3,1.3,902.3z"/>
			<path class="st6" d="M-3.7,905.1C-3.7,905.3-3.6,905.3-3.7,905.1C-3.6,905-3.7,905-3.7,905.1z"/>
			<path class="st6" d="M0.3,903C0.3,903.1,0.1,903,0.3,903c0,0.2,0.1,0.2,0.2,0.1C0.5,903.1,0.4,903.1,0.3,903L0.3,903L0.3,903z"/>
			<path class="st6" d="M-1.7,907.3c0.1,0.2,0.3,0.2,0.4,0.1c0.1-0.2-0.2-0.4-0.3-0.2C-1.7,907.3-1.6,907.1-1.7,907.3
				C-1.6,907.3-1.6,907.3-1.7,907.3L-1.7,907.3z"/>
			<path class="st6" d="M0.2,905.8C0,906,0.3,906.3,0.4,906C0.5,905.9,0.3,905.7,0.2,905.8z"/>
			<path class="st7" d="M-4.6,906.4c-0.1,0.2,0,0.3,0.1,0.2C-4.3,906.3-4.4,906.1-4.6,906.4C-4.5,906.3-4.4,906.2-4.6,906.4
				C-4.5,906.3-4.6,906.4-4.6,906.4L-4.6,906.4z"/>
			<path class="st8" d="M-5.2,910.7c0.1,0.2,0.2,0.3,0.2,0.1c-0.1-0.4-0.3-0.6-0.3-0.3c0,0.2,0-0.1,0,0.2
				C-5.2,910.6-5.2,910.7-5.2,910.7L-5.2,910.7z"/>
		</g>
	</g>
</g>
<g id="яйцо" transform="matrix(.68738 0 0 .68738 23.259 304.63)">
	<path class="st2" d="M-4.4-390c-0.1,2.5-2.1,5.1-5,5.1c-2.8,0-5.2-1.6-5.5-4.7s1.9-8.7,5.2-8.8C-6.4-398.5-4.3-393.6-4.4-390
		L-4.4-390z"/>
	<path class="st3" d="M-11.2-398L-11.2-398c-0.1,0-0.1,0.1-0.2,0.1l0,0c-0.1,0-0.1,0.1-0.2,0.1l0,0c-0.1,0-0.1,0.1-0.2,0.2l0,0
		c-0.1,0.1-0.1,0.1-0.2,0.2l0,0c-0.1,0.1-0.1,0.1-0.2,0.2l-0.1,0.1l-0.1,0.1l-0.1,0.1l-0.1,0.1l-0.1,0.1l-0.1,0.1l-0.1,0.1
		c0,0.1-0.1,0.1-0.1,0.2c0,0,0,0.1-0.1,0.1c-0.1,0.1-0.1,0.2-0.2,0.3l0,0l0,0c-0.1,0.1-0.1,0.2-0.2,0.3c0,0,0,0.1-0.1,0.1
		c0,0.1-0.1,0.1-0.1,0.2c0,0,0,0.1-0.1,0.1c0,0.1-0.1,0.1-0.1,0.2c0,0,0,0.1-0.1,0.1c0,0.1-0.1,0.1-0.1,0.2c0,0,0,0.1-0.1,0.1
		c0,0.1-0.1,0.1-0.1,0.2v0.1c0,0.1-0.1,0.2-0.1,0.3c0,0.1-0.1,0.2-0.1,0.3v0.1c0,0.1,0,0.1-0.1,0.2v0.1c0,0.1,0,0.1-0.1,0.2v0.1
		c0,0.1,0,0.1-0.1,0.2v0.1c0,0.1,0,0.1,0,0.2v0.1c0,0.1,0,0.2-0.1,0.3c0,0.1,0,0.2,0,0.3v0.1c0,0.1,0,0.1,0,0.2v0.1
		c0,0.1,0,0.1,0,0.2v0.1c0,0.1,0,0.1,0,0.2v0.1c0,0.1,0,0.1,0,0.2v0.1c0,0.1,0,0.2,0,0.3c0.3,3.1,2.6,4.7,5.5,4.7c0.1,0,0.2,0,0.3,0
		l0,0c0.1,0,0.2,0,0.3,0s0.1,0,0.2,0h0.1c0.1,0,0.1,0,0.2,0c0,0,0,0,0.1,0l0,0c0.1,0,0.1,0,0.2,0c0,0,0,0,0.1,0c0.1,0,0.1,0,0.2,0
		h0.1c0.1,0,0.1-0.1,0.2-0.1l0,0l0,0c0.1,0,0.1,0,0.2-0.1c0,0,0,0,0.1,0s0.1-0.1,0.2-0.1l0,0l0,0c0.1,0,0.1-0.1,0.2-0.1l0,0
		c0.1,0,0.1-0.1,0.2-0.1l0,0l0,0c0.1,0,0.1-0.1,0.2-0.1s0.1-0.1,0.2-0.1l0,0l0,0c0.1-0.1,0.1-0.1,0.2-0.2s0.1-0.1,0.2-0.2l0,0l0,0
		c0.1-0.1,0.1-0.1,0.2-0.2l0,0c-0.6,0.3-1.1,0-1.9,0c-2.8,0-4.2-1.6-4.7-3.5C-13.6-393.1-12.9-396.2-11.2-398L-11.2-398z"/>
	<path class="st4" d="M-4.6-389.1c-0.6,1.3-1,1.2-1.7,2.6c-0.2,0.2-0.3,0.5,0,0.6c0.3,0,0.6,0,0.8-0.2c0.1-0.2,0.1,0.1,0.3,0
		c0.4-0.2,0.4-0.6,0.7-0.9c0.2-0.3,0.4-0.6,0.6-0.8c0-0.3-0.4-0.3-0.5-0.6c-0.2-0.2,0.3-1.5,0.3-1.7L-4.6-389.1z M-5.5-386.1
		C-5.6-386-5.5-386-5.5-386.1z M-5.5-386C-5.6-385.9-5.4-386-5.5-386z"/>
	<path class="st5" d="M-6-392.1c-0.1-0.7-0.4-1.3-0.7-1.9c-0.3-0.4-0.5-1.1-0.9-1c-0.5,0.1-0.4,1.2-0.4,1.8c0.1,0.8,0.6,1.1,0.8,1.7
		c0.2,0.8,0.9,1.1,1.2,0.2C-5.9-391.5-5.9-391.8-6-392.1L-6-392.1z"/>
	<g>
		<path class="st6" d="M-9.9-397c-0.1,0.1,0.1,0.3,0.3,0.3c0.2-0.1,0.2-0.3,0-0.3C-9.7-397.2-9.9-397.2-9.9-397L-9.9-397z"/>
		<path class="st6" d="M-8.2-397.5c-0.2,0,0.2,0.4,0.3,0.3C-7.8-397.3-8-397.5-8.2-397.5z"/>
		<path class="st6" d="M-12.9-394.8c0,0.1,0.1,0.2,0.1,0C-12.8-395-12.9-394.9-12.9-394.8z"/>
		<path class="st6" d="M-9.1-396.8c0,0.1-0.2,0-0.1,0.1c0.1,0.1,0.2,0.1,0.3,0C-8.9-396.8-9-396.8-9.1-396.8L-9.1-396.8L-9.1-396.8z
			"/>
		<path class="st6" d="M-10.9-392.8c0.1,0.1,0.3,0.2,0.4,0.1c0.1-0.2-0.2-0.4-0.3-0.2C-10.9-392.8-10.8-393-10.9-392.8L-10.9-392.8
			L-10.9-392.8z"/>
		<path class="st6" d="M-9.2-394.2c-0.2,0.1,0.1,0.4,0.2,0.2C-8.9-394.1-9.1-394.3-9.2-394.2z"/>
		<path class="st7" d="M-13.7-393.7c-0.1,0.2,0,0.3,0.1,0.2c0.2-0.2,0.1-0.4,0-0.3C-13.6-393.7-13.5-393.9-13.7-393.7
			C-13.6-393.7-13.6-393.7-13.7-393.7L-13.7-393.7z"/>
		<path class="st8" d="M-14.3-389.6c0.1,0.2,0.2,0.3,0.2,0c-0.1-0.4-0.3-0.5-0.2-0.3c0,0.2,0-0.1,0,0.1
			C-14.3-389.7-14.3-389.6-14.3-389.6L-14.3-389.6z"/>
	</g>
</g>
<linearGradient id="перед_00000072273803882809207070000007351908588961197246_" gradientUnits="userSpaceOnUse" x1="-1278.2751" y1="22.4085" x2="-1278.5479" y2="21.6632" gradientTransform="matrix(35.4418 0 0 33.3287 45332.9531 -708.3098)">
	<stop  offset="0" style="stop-color:#552200"/>
	<stop  offset="1" style="stop-color:#B6632C"/>
</linearGradient>
<path id="перед" style="fill-rule:evenodd;clip-rule:evenodd;fill:url(#перед_00000072273803882809207070000007351908588961197246_);" d="
	M29.1,9.8C27.1,9.4,26,10,24,10c-11.9,4-11.2,14.5-12.2,23.7c-2.8-1.4-4.3-3.3-4.3-4.8c0,5.5,6.2,14.3,17.9,14.2
	c12.6-0.1,17.7-8.9,17.5-14c0,3.3-4.9,7.1-17.5,7.2c-4.2,0-7.7-0.5-10.5-1.3c0.6-10.6,1.2-21.6,15-24.9C29.7,9.9,29.4,9.8,29.1,9.8
	L29.1,9.8z"/>
<g id="бант">
	
		<radialGradient id="SVGID_1_" cx="-591.2714" cy="-39.8122" r="7.5" gradientTransform="matrix(1.8241 1.0595 -0.4018 0.6918 1076.8602 663.0398)" gradientUnits="userSpaceOnUse">
		<stop  offset="0" style="stop-color:#FFD73B"/>
		<stop  offset="1" style="stop-color:#EE8400"/>
	</radialGradient>
	<path class="st10" d="M23.7,7.9C19,10,14.1,4.2,10,6c-1.8,3.7-0.7,7.8,2,12c5.9,2.8,6-5,13-6L23.7,7.9L23.7,7.9z"/>
	
		<radialGradient id="SVGID_00000109726220185313635360000003867916853770851208_" cx="-925.0895" cy="-777.2853" r="7.5" gradientTransform="matrix(3.7 0.6104 0.1024 -0.6205 3533.4028 89.4032)" gradientUnits="userSpaceOnUse">
		<stop  offset="0" style="stop-color:#FFD73B"/>
		<stop  offset="1" style="stop-color:#EE8400"/>
	</radialGradient>
	<path style="fill:url(#SVGID_00000109726220185313635360000003867916853770851208_);" d="M27,8c6-2,6-4.6,9.7-5
		c4.1,3,1.6,6.7,1.6,9.4C35,14,33,10,27.1,11.4L27,8L27,8z"/>
	
		<radialGradient id="SVGID_00000144302347647709963350000007128780676203179685_" cx="26" cy="969.0004" r="4" gradientTransform="matrix(1 0 0 0.75 0 -714.75)" gradientUnits="userSpaceOnUse">
		<stop  offset="0" style="stop-color:#FFD73B"/>
		<stop  offset="1" style="stop-color:#EE8400"/>
	</radialGradient>
	<path style="fill-rule:evenodd;clip-rule:evenodd;fill:url(#SVGID_00000144302347647709963350000007128780676203179685_);" d="
		M30,10c0,1.7-1.8,3-4,3s-4-1.3-4-3s1.8-3,4-3S30,8.3,30,10z"/>
</g>
</svg>
