<?xml version="1.0" encoding="UTF-8"?>
<svg version="1.1" viewBox="0 0 160 160" xmlns="http://www.w3.org/2000/svg">
 <defs>
  <mask id="m" maskUnits="userSpaceOnUse">
   <path d="m133.53 94.797c-0.89445 24.262-20.597 49.291-48.257 49.197-27.661-0.094-50.696-15.388-53.426-45.54-2.7293-30.152 18.648-84.419 50.602-85.495 31.954-1.0758 52.394 46.251 51.082 81.837z" fill="#0ff"/>
  </mask>
  <filter id="h" x="-.24176" y="-.16594" width="1.4835" height="1.3319" color-interpolation-filters="sRGB">
   <feGaussianBlur stdDeviation="8.8206318"/>
  </filter>
  <filter id="i" x="-.27321" y="-.1643" width="1.5464" height="1.3286" color-interpolation-filters="sRGB">
   <feGaussianBlur stdDeviation="2.8193639"/>
  </filter>
  <mask id="n" maskUnits="userSpaceOnUse">
   <path d="m131.53 987.16c-0.89445 24.262-20.597 49.291-48.257 49.197-27.661-0.094-50.696-15.388-53.426-45.54-2.7293-30.152 18.648-84.419 50.602-85.495 31.954-1.0758 52.394 46.251 51.082 81.837z" fill="#f5f5f5"/>
  </mask>
  <filter id="j" x="-.48432" y="-.44827" width="1.9686" height="1.8965" color-interpolation-filters="sRGB">
   <feGaussianBlur stdDeviation="3.6163133"/>
  </filter>
  <filter id="k" x="-.2138" y="-1.2997" width="1.4276" height="3.5994" color-interpolation-filters="sRGB">
   <feGaussianBlur stdDeviation="7.3494643"/>
  </filter>
  <filter id="l" x="-.11547" y="-.70192" width="1.2309" height="2.4038" color-interpolation-filters="sRGB">
   <feGaussianBlur stdDeviation="3.9691938"/>
  </filter>
 </defs>
 <g transform="translate(0 -892.36)">
  <g transform="matrix(.68738 0 0 .68738 23.259 304.63)">
   <path d="m113.52 1035.7a41.25 6.7857 0 0 1 -33.564 7.8488 41.25 6.7857 0 0 1 -47.713 -5.5212 41.25 6.7857 0 0 1 33.562 -7.8491 41.25 6.7857 0 0 1 47.715 5.5209l-40.638 1.1642z" fill="#666" filter="url(#k)" opacity=".892"/>
   <path transform="matrix(.65678 0 0 .75857 35.907 249.44)" d="m113.52 1035.7a41.25 6.7857 0 0 1 -33.564 7.8488 41.25 6.7857 0 0 1 -47.713 -5.5212 41.25 6.7857 0 0 1 33.562 -7.8491 41.25 6.7857 0 0 1 47.715 5.5209l-40.638 1.1642z" fill="#aea188" filter="url(#l)"/>
   <path d="m131.53 987.16c-0.89445 24.262-20.597 49.291-48.257 49.197-27.661-0.094-50.696-15.388-53.426-45.54-2.7293-30.152 18.648-84.419 50.602-85.495 31.954-1.0758 52.394 46.251 51.082 81.837z" fill="#ffeccd"/>
   <path transform="translate(-2 892.36)" d="m67.506 16.422c-0.0034 0.0017-0.0064 0.0041-0.0098 0.0059-0.71527 0.36534-1.4216 0.76108-2.1211 1.1777-0.07282 0.04338-0.1461 0.08499-0.21875 0.12891-0.67518 0.40817-1.342 0.84116-2.002 1.2949-0.09785 0.06728-0.19546 0.13487-0.29297 0.20312-0.66877 0.46808-1.3298 0.95808-1.9824 1.4707-0.03923 0.03081-0.07802 0.06278-0.11719 0.09375-0.68588 0.54232-1.3657 1.1044-2.0332 1.6934-0.15818 0.13956-0.30967 0.29347-0.4668 0.43555-0.59646 0.53938-1.1884 1.0895-1.7695 1.6641-0.27491 0.27178-0.54303 0.55857-0.81445 0.83789-0.45013 0.46326-0.89943 0.92885-1.3398 1.4121-0.29892 0.32798-0.59234 0.66512-0.88672 1.002-0.39591 0.45304-0.78819 0.91243-1.1758 1.3809-0.31098 0.37582-0.62024 0.75531-0.92578 1.1406-0.37519 0.47317-0.74443 0.9565-1.1113 1.4434-0.27686 0.36738-0.55604 0.73259-0.82812 1.1074-0.40188 0.55369-0.79424 1.1203-1.1855 1.6895-0.23883 0.34737-0.48195 0.68816-0.7168 1.041-0.59973 0.90117-1.1884 1.8175-1.7617 2.752-0.0059 0.0097-0.01165 0.01963-0.01758 0.0293-0.04598 0.075-0.08896 0.15331-0.13477 0.22852-0.5317 0.87301-1.0524 1.7596-1.5605 2.6582-0.21533 0.38075-0.42177 0.76932-0.63281 1.1543-0.34327 0.6262-0.68383 1.254-1.0156 1.8906-0.2183 0.41884-0.43126 0.84261-0.64453 1.2656-0.30313 0.60128-0.60362 1.2054-0.89648 1.8145-0.21057 0.43789-0.4198 0.87679-0.625 1.3184-0.29854 0.64246-0.58796 1.29-0.875 1.9395-0.18796 0.42529-0.37757 0.84936-0.56055 1.2773-0.28684 0.67094-0.56344 1.3466-0.83789 2.0234-0.16078 0.39646-0.32594 0.79124-0.48242 1.1895-0.42378 1.0785-0.83476 2.1613-1.2266 3.25-0.39342 1.0932-0.7684 2.1914-1.1289 3.291-0.12083 0.36853-0.23253 0.73846-0.34961 1.1074-0.22444 0.70733-0.44572 1.4149-0.65625 2.123-0.139 0.46752-0.27143 0.93485-0.4043 1.4023-0.18884 0.66447-0.3725 1.3285-0.54883 1.9922-0.11514 0.43336-0.22814 0.8661-0.33789 1.2988-0.17169 0.67699-0.33381 1.3526-0.49219 2.0273-0.10306 0.43903-0.20732 0.87866-0.30469 1.3164-0.15273 0.68669-0.29501 1.37-0.43359 2.0527-0.08262 0.40702-0.1705 0.81536-0.24805 1.2207-0.20472 1.0701-0.39555 2.1355-0.56445 3.1914-0.171 1.069-0.31952 2.1272-0.45312 3.1777-0.04196 0.32989-0.0731 0.6546-0.11133 0.98242-0.08189 0.70238-0.16 1.4018-0.22461 2.0938-0.03863 0.41368-0.06917 0.82279-0.10156 1.2324-0.049 0.61975-0.09431 1.236-0.12891 1.8457-0.02253 0.397-0.04027 0.79114-0.05664 1.1836-0.02547 0.61069-0.0423 1.2136-0.05273 1.8125-0.0067 0.3842-0.01518 0.76938-0.01563 1.1484-7.47e-4 0.63709 0.01225 1.2631 0.0293 1.8848 0.0084 0.30594 0.0107 0.61793 0.02344 0.91992 0.03892 0.92255 0.09389 1.8298 0.17383 2.7129 2.7293 30.152 25.765 45.447 53.426 45.541 0.86374 3e-3 1.7205-0.0192 2.5684-0.0644 6.53e-4 -4e-5 0.0013 3e-5 2e-3 0 0.83208-0.0445 1.6545-0.11179 2.4707-0.20117 0.53214-0.0583 1.0549-0.14186 1.5801-0.21875 0.29802-0.0436 0.60075-0.0755 0.89648-0.125 0.55969-0.0937 1.1108-0.20983 1.6621-0.32422 0.23411-0.0486 0.47251-0.0865 0.70508-0.13867 0.0065-1e-3 0.01303-2e-3 0.01953-4e-3 0.56387-0.12692 1.1172-0.27773 1.6719-0.42578 0.2262-0.0603 0.457-0.11005 0.68164-0.17383 0.51841-0.1473 1.0271-0.31514 1.5371-0.48047 0.25246-0.0818 0.50941-0.15412 0.75977-0.24023 0.68913-0.23722 1.3682-0.49443 2.041-0.76368 0.04829-0.0193 0.09828-0.0352 0.14648-0.0547 3e-3 -1e-3 5e-3 -3e-3 8e-3 -4e-3 0.53745-0.21737 1.0651-0.45426 1.5918-0.69141 0.20852-0.0938 0.42209-0.17854 0.6289-0.27539 0.59067-0.2768 1.1696-0.57209 1.7461-0.87304 0.1006-0.0525 0.20452-0.0992 0.30469-0.15235 7e-3 -4e-3 0.0143-8e-3 0.0215-0.0117 0.56433-0.30034 1.1178-0.6187 1.668-0.9414 0.13096-0.0768 0.26633-0.14661 0.39648-0.22461 0.59097-0.35441 1.1702-0.72618 1.7441-1.1055 0.0649-0.0429 0.13257-0.0818 0.19727-0.125 7e-3 -4e-3 0.0129-9e-3 0.0195-0.0137 0.64244-0.42957 1.2743-0.87459 1.8945-1.334 0.60017-0.4445 1.1887-0.90394 1.7676-1.375 0.0256-0.0208 0.0526-0.0397 0.0781-0.0605 4e-3 -3e-3 8e-3 -7e-3 0.0117-0.01 0.59931-0.49 1.186-0.99469 1.7617-1.5117 0.57197-0.51365 1.1336-1.0393 1.6816-1.5781 7e-3 -7e-3 0.0143-0.0144 0.0215-0.0215l4e-3 -4e-3c0.54244-0.53405 1.0715-1.0814 1.5898-1.6387 0.0107-0.0115 0.0225-0.0217 0.0332-0.0332-6.2977 3.3976-10.974 0.37621-18.785 0.34961-27.661-0.09358-40.947-15.684-45.926-33.753-8.5467-31.013-2.0163-60.736 15.029-78.969z" fill="#6c5d53" filter="url(#h)" mask="url(#m)" opacity=".616"/>
   <path d="m129.3 996.05c-5.9466 12.507-9.5597 11.45-16.777 25.591-1.8435 1.7233-2.6804 4.5117 0.0218 5.4909 2.5152-0.2895 5.6399-0.1771 7.6356-1.6787 0.64228-1.6048 1.2379 1.3214 2.7416-0.088 3.4676-1.7349 4.3541-5.8294 6.7172-8.613 1.7255-2.9145 3.9729-5.4547 5.9436-8.2002-0.0413-2.7823-3.7234-3.2836-4.5604-5.7728-1.5236-2.3661 3.3232-14.133 2.5711-16.83zm-8.8219 29.287c-0.25314 0.4194 0.25047 0.2921 0 0zm0.0352 0.3789c-0.19028 0.9071 1.0322 0.6203 0 0z" fill="#fdf9ec" fill-rule="evenodd" filter="url(#i)" mask="url(#n)"/>
   <path transform="matrix(1.202 .20168 -.14794 2.0565 142.79 -1060.3)" d="m98.107 975.89c-1.3945-3.1823-4.0605-5.6861-6.3413-8.2064-2.4772-1.5833-4.7962-4.7208-8.0659-3.9744-4.0226 0.99368-2.8441 5.9889-2.536 9.0042 0.88856 3.654 5.0475 4.7222 7.4122 7.2386 2.1945 3.5928 8.2331 4.4353 9.8852-0.0908 0.41433-1.3146 0.22684-2.739-0.35417-3.9712z" fill="#fff" fill-rule="evenodd" filter="url(#j)"/>
   <g fill-rule="evenodd">
    <path d="m77.773 918.55c-0.76775 1.323 0.99774 3.18 2.7476 2.54 1.6158-0.49378 2.0982-2.7465 0.37714-3.3781-1.0473-0.45735-3.1596-0.53683-3.1248 0.83814z" fill="#f7cbb4"/>
    <path d="m95.045 913.6c-1.864 0.0699 1.8146 3.987 3.0184 3.2591 0.78992-0.61914-1.694-3.2141-3.0184-3.2591z" fill="#f7cbb4"/>
    <path d="m49.029 939.72c-0.0894 1.4309 1.1508 1.5843 1.1235 0.13056-0.04188-1.2589-0.92619-1.013-1.1235-0.13056z" fill="#f7cbb4"/>
    <path d="m86.215 920.63c0.06804 0.70211-1.9626 0.12918-1.1208 1.1134 0.48817 0.83452 2.2392 0.94319 2.7621 0.0803 0.34311-0.84834-1.013-0.95729-1.6414-1.1938v2e-5z" fill="#f7cbb4"/>
    <path d="m67.998 960.09c0.60912 1.4418 2.5034 1.8706 3.4688 0.75936 0.80356-2.0713-1.8431-3.4267-3.0383-2.2373-0.41136 1.0739 0.56923-0.41565-0.03897 0.88421-0.11982 0.18757-0.16984 0.52864-0.39159 0.59374z" fill="#f7cbb4"/>
    <path d="m84.854 946.36c-1.482 1.3907 1.4147 3.7645 2.1631 1.8688 0.64312-1.494-1.1416-3.0427-2.1631-1.8688z" fill="#f7cbb4"/>
    <path d="m41.483 951.29c-0.5226 1.7878 0.0889 2.6078 1.134 1.4712 1.5022-2.2859 1.065-4.3154-0.1261-3.1263-0.77647 1.186 0.48409-0.39008-0.50516 1.027-0.15711 0.1991-0.3676 0.58934-0.50279 0.62812z" fill="#cfb2a3"/>
    <path d="m35.418 990.8c0.97907 2.163 2.0058 2.4372 1.8672 0.46087-0.68583-3.4691-2.4966-5.0555-2.4179-2.9054 0.35782 1.7974 0.03753-0.78405 0.42332 1.4154 0.04191 0.32431 0.19017 0.87778 0.12735 1.0291z" fill="#bf9985"/>
   </g>
  </g>
 </g>
</svg>
