<?xml version='1.0' encoding='utf-8'?>
<svg xmlns="http://www.w3.org/2000/svg" version="1.1" id="Capa_1" x="0px" y="0px" viewBox="0 0 1920 1920" style="enable-background:new 0 0 1920 1920;"> <style type="text/css"> .st0{fill:#E1657D;stroke:#D85A77;stroke-width:12;stroke-miterlimit:10;} .st1{fill:#99B77B;stroke:#83A164;stroke-width:12;stroke-miterlimit:10;} .st2{fill:none;stroke:#83A164;stroke-width:12;stroke-miterlimit:10;} .st3{fill:#CA9E67;stroke:#B1804A;stroke-width:12;stroke-miterlimit:10;} .st4{fill:#B1804A;} </style> <path class="st0" d="M1084.2,433.5c-12.3-16.7-49.2-10.7-86.3,12.5c0-0.4,0-0.9,0-1.3c0-50.9-18.7-92.2-41.8-92.2 c-23.1,0-41.8,41.3-41.8,92.2c0,0.9,0,1.8,0,2.6c-37.7-19.9-73.8-23.1-84.9-6c-12.5,19.4,12,57.5,54.7,85.2 c27.2,17.6,55.2,26.6,75.2,26c20.2,0.1,48.5-10.7,75.4-30.5C1075.8,491.7,1097.9,452.1,1084.2,433.5z"/> <g> <path class="st1" d="M1195.3,1039.3c0-297.1-37.4-538.3-237.5-538c-212.5,0.4-237.5,240.8-237.5,538c0,68,5.6,118.2,15.7,155.4 h443.6C1189.8,1157.6,1195.3,1107.3,1195.3,1039.3z"/> </g> <path class="st2" d="M787.5,1070.1c0-308.1,44-557.5,98.4-557.5"/> <path class="st2" d="M1117,1070.1c0-308.1-44-557.5-98.4-557.5"/> <line class="st2" x1="957.8" y1="1070.1" x2="957.8" y2="501.4"/> <polygon class="st3" points="1173.5,1567 740.9,1567 677,1082.3 1237.5,1082.3 "/> <polygon class="st3" points="1244.7,1163.5 670.8,1163.5 654.8,1057.3 1264.5,1057.3 "/> <ellipse transform="matrix(0.9907 -0.136 0.136 0.9907 -181.7952 117.1325)" class="st4" cx="766.7" cy="1389.6" rx="30.7" ry="141.4"/> <circle class="st4" cx="743.5" cy="1207.5" r="23.2"/> </svg>