<svg fill="#eaeaea" xmlns="http://www.w3.org/2000/svg" viewBox="0 0 32 32"><g id="battery"><path d="M23.25,10H5.75A3.75,3.75,0,0,0,2,13.75v4.5A3.75,3.75,0,0,0,5.75,22h17.5A3.75,3.75,0,0,0,27,18.25v-4.5A3.75,3.75,0,0,0,23.25,10ZM25,18.25A1.75,1.75,0,0,1,23.25,20H5.75A1.75,1.75,0,0,1,4,18.25v-4.5A1.75,1.75,0,0,1,5.75,12h17.5A1.75,1.75,0,0,1,25,13.75Z"/><path d="M18.86,13H7.14A2.14,2.14,0,0,0,5,15.14v1.72A2.14,2.14,0,0,0,7.14,19H18.86A2.14,2.14,0,0,0,21,16.86V15.14A2.14,2.14,0,0,0,18.86,13ZM19,16.86a.14.14,0,0,1-.14.14H7.14A.14.14,0,0,1,7,16.86V15.14A.14.14,0,0,1,7.14,15H18.86a.14.14,0,0,1,.14.14Z"/><path d="M29,13a1,1,0,0,0-1,1v4a1,1,0,0,0,2,0V14A1,1,0,0,0,29,13Z"/></g></svg>