<?xml version="1.0" encoding="iso-8859-1"?>
<!-- Generator: Adobe Illustrator 20.1.0, SVG Export Plug-In . SVG Version: 6.00 Build 0)  -->
<svg version="1.1" id="Signal-2" xmlns="http://www.w3.org/2000/svg" xmlns:xlink="http://www.w3.org/1999/xlink" x="0px" y="0px"
	 viewBox="0 0 30 24" style="enable-background:new 0 0 30 24;" xml:space="preserve">
<g>
	<path d="M5,12H1c-0.552,0-1,0.448-1,1v10c0,0.552,0.448,1,1,1h4c0.552,0,1-0.448,1-1V13C6,12.448,5.552,12,5,12z M4,22H2v-8h2V22z"
		/>
	<path d="M13,6H9C8.448,6,8,6.448,8,7v16c0,0.552,0.448,1,1,1h4c0.552,0,1-0.448,1-1V7C14,6.448,13.552,6,13,6z M12,22h-2V8h2V22z"
		/>
	<path d="M21,0h-4c-0.552,0-1,0.448-1,1v22c0,0.552,0.448,1,1,1h4c0.552,0,1-0.448,1-1V1C22,0.448,21.552,0,21,0z M20,22h-2V2h2V22z
		"/>
	<rect x="24" y="22" width="6" height="2"/>
</g>
</svg>
