<?xml version='1.0' encoding='utf-8'?>
<svg xmlns="http://www.w3.org/2000/svg" width="120" height="120">
    <title>acorn</title>
    <g> <path fill="#502d16" fill-rule="nonzero" stroke="#000000" stroke-width="5.670294" stroke-linecap="round" stroke-linejoin="round" stroke-miterlimit="4" id="path3270" d="0"/> <path fill="#502d16" fill-rule="nonzero" stroke="#000000" stroke-width="5.670294" stroke-linecap="round" stroke-linejoin="round" stroke-miterlimit="4" id="path3272" d="0"/> <path fill="#502d16" fill-rule="nonzero" stroke="#000000" stroke-width="5.670294" stroke-linecap="round" stroke-linejoin="round" stroke-miterlimit="4" id="path3274" d="0"/> <title>Layer 1</title> <g transform="rotate(-90, 63.293, 59.2969)" id="svg_1"> <path fill="#000000" fill-opacity="0.313725" fill-rule="nonzero" stroke-width="4" stroke-linecap="round" stroke-linejoin="round" stroke-miterlimit="4" id="path3619" d="m90.636093,37.487213c-13.937927,-13.944641 -38.752838,-14.659363 -53.509552,-1.54187c-10.393311,9.102173 -14.536469,23.093872 -15.892426,36.343628c-0.961182,9.555969 -0.390625,19.798218 4.510834,28.311707c4.915283,6.321777 13.484528,7.655029 21.006744,8.031494c14.988434,0.668396 30.829132,-2.947388 42.81723,-12.437256c14.438477,-12.390625 17.80011,-35.463989 7.200256,-51.270752c-1.727173,-2.704712 -3.817017,-5.193848 -6.133087,-7.436951z"/> <path fill="#a05a2c" fill-rule="nonzero" stroke="#000000" stroke-width="4" stroke-linecap="round" stroke-linejoin="round" stroke-miterlimit="4" id="path2383" d="m85.636093,27.487213c-13.937927,-13.944641 -38.752838,-14.659363 -53.509552,-1.54187c-10.393311,9.102173 -14.536469,23.093872 -15.892426,36.343628c-0.961182,9.555969 -0.390625,19.798218 4.510834,28.311707c4.915283,6.321777 13.484528,7.655029 21.006744,8.031494c14.988434,0.668396 30.829132,-2.947388 42.81723,-12.437256c14.438477,-12.390625 17.80011,-35.463989 7.200256,-51.270752c-1.727173,-2.704712 -3.817017,-5.193848 -6.133087,-7.436951z"/> <path fill="#000000" fill-opacity="0.313725" fill-rule="nonzero" stroke-width="4" stroke-linecap="round" stroke-linejoin="round" stroke-miterlimit="4" id="path3250" d="m54.198715,16.723419c2.967194,0.704651 5.843964,1.798462 8.535278,3.313721c2.613159,1.415894 5.080231,3.104431 7.28537,5.075623c13.336151,11.394592 16.088745,32.69751 6.350891,47.263672c-8.283478,11.386414 -21.451599,18.513855 -34.92215,21.633423c-5.464172,1.234131 -11.684082,2.085938 -17.001709,0.06073c4.913239,3.384583 11.424561,4.271973 17.30127,4.56604c14.988434,0.668457 30.830994,-2.951721 42.819092,-12.441528c14.438477,-12.390625 17.803894,-35.467102 7.204071,-51.273865c-1.727203,-2.704712 -3.817047,-5.193115 -6.133087,-7.436218c-8.154633,-8.158569 -20.03067,-11.780945 -31.439026,-10.761597z"/> <path fill="#502d16" fill-rule="evenodd" stroke="#000000" stroke-width="4" stroke-miterlimit="4" id="path3239" d="m86.008591,23.980316c2.746826,-8.533691 16.617798,-16.431335 20.72699,-13.456116c4.109161,2.97522 4.426666,10.057983 3.700409,11.104858c-0.726257,1.046875 -8.140381,-2.167542 -12.818665,1.699219c-4.678253,3.86676 -7.018341,7.168396 -7.018341,7.168396l-4.590393,-6.516357z"/> <path fill="#000000" fill-opacity="0.313725" fill-rule="evenodd" stroke-width="4" stroke-miterlimit="4" id="path3263" d="m109.561264,14.22702c0.089355,0.933899 -0.041229,1.707947 -0.287842,2.003784c-0.713593,0.855957 -7.815918,0.016846 -12.374512,3.547791c-4.558563,3.530884 -6.855865,6.233398 -6.855865,6.233398l-3.635162,-3.055359c-0.145294,0.340881 -0.293243,0.681091 -0.40387,1.024719l4.592987,6.516296c0,0 2.343292,-3.306702 7.021576,-7.173401c4.678253,-3.86676 12.091187,-0.651489 12.817444,-1.698364c0.498352,-0.718323 0.497559,-4.273804 -0.874756,-7.398865z"/> <path fill="#502d16" fill-rule="nonzero" stroke="#000000" stroke-width="4" stroke-linecap="round" stroke-linejoin="round" stroke-miterlimit="4" id="path3201" d="m89.201157,24.027191c-13.685577,-13.550598 -36.377991,-17.05603 -52.338928,-6.882019c-3.611969,1.985596 -2.513275,6.978149 -2.481506,6.895447c6.032227,-4.766479 12.280579,0.481201 20.497437,6.374695c10.049561,7.207947 21.095703,18.263489 29.206329,29.016174c5.675659,7.524597 9.741272,14.914063 6.487885,20.079468c0.167419,0.052002 4.894012,1.384094 7.049896,-3.015991c10.881409,-20.516113 4.730011,-40.217957 -8.421112,-52.467773z"/> <path fill="#000000" fill-opacity="0.313725" fill-rule="nonzero" stroke-width="4" stroke-linecap="round" stroke-linejoin="round" stroke-miterlimit="4" id="path3269" d="m88.12883,22.519196c4.334442,11.26123 3.766693,21.9151 -1.741486,32.196228c-1.249481,2.332153 -3.168396,1.578003 -4.785004,1.542786c0.849915,1.058472 1.68158,2.121521 2.478546,3.178101c5.675659,7.524536 9.744598,14.911194 6.49118,20.076599c0.167419,0.052002 4.893707,1.384705 7.049591,-3.015381c9.966766,-18.791565 5.597168,-39.241943 -9.492828,-53.978333z"/> </g> </g> </svg>