<?xml version="1.0" encoding="UTF-8"?>
<svg viewBox="0 0 194.60905 184.78824" xmlns="http://www.w3.org/2000/svg">
 <g transform="translate(-1831.7 -1228.6)">
  <path d="m1904.8 1230.7c-8.6649 0.372-17.796 6.7417-21.5 17.969-8.3096-11.519-27.754-0.5172-20.938 13.562-29.322-8.4827-48.97 47.584 7.3438 44.688-35.918 30.582 24.574 57.735 49.781 28.281 1.5822 19.262 26.326 21.698 34.469 4.5 8.0549 15.62 32.912 13.71 35.625-10.75 10.724 12.713 29.832-3.4066 20.938-15.812 14.034 1.37 20.808-18.971 2.25-23.188 13.466-14.969-8.8725-32.608-23.188-20.344 7.8227-20.514-12.212-35.603-31.094-20.938 4.1506-17.547-22.783-27.35-36.188-5.0937-3.039-9.1266-10.091-13.193-17.5-12.875zm-5.3437 124.41c-1.9717 0.0402-3.9537 0.3451-5.875 0.9063h-0.0625c-8.1597 2.412-11.918 8.879-8.4063 14.438 3.5216 5.5739 13.021 8.1445 21.219 5.75s11.99-8.8636 8.4687-14.438c-2.6962-4.2676-8.903-6.7874-15.344-6.6563zm15.5 29.906c-1.2503 0.0684-2.503 0.2962-3.7188 0.6562h-0.0625c-5.9576 1.7857-8.6891 6.5726-6.125 10.688 2.5713 4.1265 9.5146 6.0227 15.5 4.25s8.7588-6.561 6.1875-10.688c-2.0489-3.2882-6.8764-5.1747-11.781-4.9062zm21.344 19.344c-0.6878 0.0076-1.3917 0.1012-2.0625 0.2813l-0.0312 0.0312c-2.7568 0.7491-4.0303 2.7425-2.8438 4.4688s4.4178 2.5249 7.1875 1.7812 4.0336-2.7376 2.8438-4.4687c-0.9017-1.3118-2.9417-2.1175-5.0938-2.0938z" fill="#fff" fill-rule="evenodd" stroke="#000" stroke-width="4.2733"/>
 </g>
</svg>
